M48
;GenerationSoftware,Autodesk,EAGLE,9.6.2*%
;CreationDate,2022-07-22T08:57:59Z*%
FMAT,2
ICI,OFF
METRIC,TZ,000.000
T4C0.600
T3C0.813
T2C1.000
T1C1.016
%
G90
M71
T1
X-89000Y13970
X-89000Y11430
X-89000Y8890
X-89000Y6350
X-89000Y3810
X-89000Y1270
X-89000Y-1270
X-89000Y-3810
X-89000Y-6350
X-89000Y-8890
X-89000Y-11430
X-89000Y-13970
T2
X16000Y-79400
X16000Y-82600
T3
X0Y-79730
X0Y-82270
X-14000Y-79730
X-14000Y-82270
T4
X39375Y19800
X19800Y39375
X22000Y38105
X24200Y36835
X-2540Y44000
X0Y44000
X2540Y44000
X-24200Y36835
X-22000Y38105
X-19800Y39375
X-39375Y19800
X-38105Y22000
X-36835Y24200
X-44000Y-2540
X-44000Y0
X-44000Y2540
X-36835Y-24200
X-38105Y-22000
X-39375Y-19800
X-19800Y-39375
X-22000Y-38105
X-24200Y-36835
X2540Y-44000
X0Y-44000
X-2540Y-44000
X24200Y-36835
X22000Y-38105
X19800Y-39375
X39375Y-19800
X38105Y-22000
X36835Y-24200
X38105Y22000
X36835Y24200
X43000Y2540
X43000Y0
X43000Y-2540
M30