G04 EAGLE Gerber RS-274X export*
G75*
%MOMM*%
%FSLAX34Y34*%
%LPD*%
%INSoldermask Top*%
%IPPOS*%
%AMOC8*
5,1,8,0,0,1.08239X$1,22.5*%
G01*
%ADD10P,1.803519X8X292.500000*%
%ADD11C,2.032000*%
%ADD12C,1.473200*%
%ADD13C,2.387600*%


D10*
X20000Y-807300D03*
X20000Y-832700D03*
X-120000Y-807300D03*
X-120000Y-832700D03*
D11*
X-534751Y712317D02*
X-547683Y725249D01*
X-565643Y707288D02*
X-552712Y694357D01*
X-570672Y676396D02*
X-583604Y689328D01*
X-601565Y671367D02*
X-588633Y658435D01*
X-606593Y640475D02*
X-619525Y653407D01*
X-637486Y635446D02*
X-624554Y622514D01*
X-642514Y604554D02*
X-655446Y617486D01*
X-673407Y599525D02*
X-660475Y586593D01*
X-678435Y568633D02*
X-691367Y581565D01*
X-709328Y563604D02*
X-696396Y550672D01*
X-714357Y532712D02*
X-727288Y545643D01*
X-745249Y527683D02*
X-732317Y514751D01*
D12*
X406153Y263822D02*
X417151Y270172D01*
X429851Y248175D02*
X418853Y241825D01*
X431553Y219828D02*
X442551Y226178D01*
X219828Y431553D02*
X226178Y442551D01*
X248175Y429851D02*
X241825Y418853D01*
X263822Y406153D02*
X270172Y417151D01*
X-25400Y483650D02*
X-25400Y496350D01*
X0Y496350D02*
X0Y483650D01*
X25400Y483650D02*
X25400Y496350D01*
X-263822Y406153D02*
X-270172Y417151D01*
X-248175Y429851D02*
X-241825Y418853D01*
X-219828Y431553D02*
X-226178Y442551D01*
X-431553Y219828D02*
X-442551Y226178D01*
X-429851Y248175D02*
X-418853Y241825D01*
X-406153Y263822D02*
X-417151Y270172D01*
X-483650Y-25400D02*
X-496350Y-25400D01*
X-496350Y0D02*
X-483650Y0D01*
X-483650Y25400D02*
X-496350Y25400D01*
X-406153Y-263822D02*
X-417151Y-270172D01*
X-429851Y-248175D02*
X-418853Y-241825D01*
X-431553Y-219828D02*
X-442551Y-226178D01*
X-219828Y-431553D02*
X-226178Y-442551D01*
X-248175Y-429851D02*
X-241825Y-418853D01*
X-263822Y-406153D02*
X-270172Y-417151D01*
X25400Y-483650D02*
X25400Y-496350D01*
X0Y-496350D02*
X0Y-483650D01*
X-25400Y-483650D02*
X-25400Y-496350D01*
X263822Y-406153D02*
X270172Y-417151D01*
X248175Y-429851D02*
X241825Y-418853D01*
X219828Y-431553D02*
X226178Y-442551D01*
X431553Y-219828D02*
X442551Y-226178D01*
X429851Y-248175D02*
X418853Y-241825D01*
X406153Y-263822D02*
X417151Y-270172D01*
D13*
X190922Y-836000D02*
X169078Y-836000D01*
X169078Y-804000D02*
X190922Y-804000D01*
D12*
X483650Y25400D02*
X496350Y25400D01*
X496350Y0D02*
X483650Y0D01*
X483650Y-25400D02*
X496350Y-25400D01*
M02*
