M48
;GenerationSoftware,Autodesk,EAGLE,9.6.2*%
;CreationDate,2022-06-28T05:06:45Z*%
FMAT,2
ICI,OFF
METRIC,TZ,000.000
T4C0.600
T3C0.800
T2C0.813
T1C1.016
%
G90
M71
T1
X46222Y-35128
X47091Y-32741
X47959Y-30354
X48828Y-27967
X49697Y-25580
X50566Y-23193
X51434Y-20807
X52303Y-18420
X53172Y-16033
X54041Y-13646
X54909Y-11259
X55778Y-8872
T2
X-10730Y-36000
X-13270Y-36000
X-10730Y-42000
X-13270Y-42000
T3
X-15500Y-51000
X-10500Y-51000
T4
X-1270Y45000
X0Y45000
X1270Y45000
X-23600Y38336
X-22500Y38971
X-21400Y39606
X-39606Y21400
X-38971Y22500
X-38336Y23600
X45000Y1270
X-45000Y0
X-45000Y1270
X-38336Y-23600
X-38971Y-22500
X-39606Y-21400
X-21400Y-39606
X-22500Y-38971
X-23600Y-38336
X23600Y38336
X22500Y38971
X21400Y39606
X39606Y21400
X38971Y22500
X38336Y23600
X38336Y-23600
X38971Y-22500
X39606Y-21400
X21400Y-39606
X22500Y-38971
X23600Y-38336
X-1270Y-45000
X0Y-45000
X1270Y-45000
X45000Y-1270
X45000Y0
X-45000Y-1270
M30