G04 EAGLE Gerber RS-274X export*
G75*
%MOMM*%
%FSLAX34Y34*%
%LPD*%
%INSoldermask Bottom*%
%IPPOS*%
%AMOC8*
5,1,8,0,0,1.08239X$1,22.5*%
G01*
%ADD10P,1.649562X8X22.500000*%
%ADD11C,1.727200*%
%ADD12C,1.311200*%
%ADD13C,1.981200*%


D10*
X-132700Y-440000D03*
X-107300Y-440000D03*
X-132700Y-360000D03*
X-107300Y-360000D03*
D11*
X550620Y-86119D02*
X564941Y-91331D01*
X556253Y-115199D02*
X541932Y-109987D01*
X533245Y-133855D02*
X547566Y-139068D01*
X538879Y-162936D02*
X524558Y-157723D01*
X515871Y-181592D02*
X530191Y-186804D01*
X521504Y-210672D02*
X507183Y-205460D01*
X498496Y-229328D02*
X512817Y-234540D01*
X504129Y-258408D02*
X489809Y-253196D01*
X481121Y-277064D02*
X495442Y-282277D01*
X486755Y-306145D02*
X472434Y-300932D01*
X463747Y-324801D02*
X478068Y-330013D01*
X469380Y-353881D02*
X455059Y-348669D01*
D12*
X484460Y25400D02*
X495540Y25400D01*
X495540Y0D02*
X484460Y0D01*
X484460Y-25400D02*
X495540Y-25400D01*
X406854Y264227D02*
X416450Y269767D01*
X429150Y247770D02*
X419554Y242230D01*
X432254Y220233D02*
X441850Y225773D01*
X220233Y432254D02*
X225773Y441850D01*
X247770Y429150D02*
X242230Y419554D01*
X264227Y406854D02*
X269767Y416450D01*
X-25400Y484460D02*
X-25400Y495540D01*
X0Y495540D02*
X0Y484460D01*
X25400Y484460D02*
X25400Y495540D01*
X-264227Y406854D02*
X-269767Y416450D01*
X-247770Y429150D02*
X-242230Y419554D01*
X-220233Y432254D02*
X-225773Y441850D01*
X-432254Y220233D02*
X-441850Y225773D01*
X-429150Y247770D02*
X-419554Y242230D01*
X-406854Y264227D02*
X-416450Y269767D01*
X-484460Y-25400D02*
X-495540Y-25400D01*
X-495540Y0D02*
X-484460Y0D01*
X-484460Y25400D02*
X-495540Y25400D01*
X-406854Y-264227D02*
X-416450Y-269767D01*
X-429150Y-247770D02*
X-419554Y-242230D01*
X-432254Y-220233D02*
X-441850Y-225773D01*
X-220233Y-432254D02*
X-225773Y-441850D01*
X-247770Y-429150D02*
X-242230Y-419554D01*
X-264227Y-406854D02*
X-269767Y-416450D01*
X25400Y-484460D02*
X25400Y-495540D01*
X0Y-495540D02*
X0Y-484460D01*
X-25400Y-484460D02*
X-25400Y-495540D01*
X264227Y-406854D02*
X269767Y-416450D01*
X247770Y-429150D02*
X242230Y-419554D01*
X220233Y-432254D02*
X225773Y-441850D01*
X432254Y-220233D02*
X441850Y-225773D01*
X429150Y-247770D02*
X419554Y-242230D01*
X406854Y-264227D02*
X416450Y-269767D01*
D13*
X-104000Y-600000D03*
X-136000Y-600000D03*
M02*
