G04 EAGLE Gerber RS-274X export*
G75*
%MOMM*%
%FSLAX34Y34*%
%LPD*%
%INSoldermask Bottom*%
%IPPOS*%
%AMOC8*
5,1,8,0,0,1.08239X$1,22.5*%
G01*
%ADD10P,1.803519X8X292.500000*%
%ADD11C,2.032000*%
%ADD12C,1.473200*%
%ADD13C,2.387600*%
%ADD14C,0.254000*%


D10*
X20000Y-807300D03*
X20000Y-832700D03*
X-120000Y-807300D03*
X-120000Y-832700D03*
D11*
X-534751Y712317D02*
X-547683Y725249D01*
X-565643Y707288D02*
X-552712Y694357D01*
X-570672Y676396D02*
X-583604Y689328D01*
X-601565Y671367D02*
X-588633Y658435D01*
X-606593Y640475D02*
X-619525Y653407D01*
X-637486Y635446D02*
X-624554Y622514D01*
X-642514Y604554D02*
X-655446Y617486D01*
X-673407Y599525D02*
X-660475Y586593D01*
X-678435Y568633D02*
X-691367Y581565D01*
X-709328Y563604D02*
X-696396Y550672D01*
X-714357Y532712D02*
X-727288Y545643D01*
X-745249Y527683D02*
X-732317Y514751D01*
D12*
X406153Y263822D02*
X417151Y270172D01*
X429851Y248175D02*
X418853Y241825D01*
X431553Y219828D02*
X442551Y226178D01*
X219828Y431553D02*
X226178Y442551D01*
X248175Y429851D02*
X241825Y418853D01*
X263822Y406153D02*
X270172Y417151D01*
X-25400Y483650D02*
X-25400Y496350D01*
X0Y496350D02*
X0Y483650D01*
X25400Y483650D02*
X25400Y496350D01*
X-263822Y406153D02*
X-270172Y417151D01*
X-248175Y429851D02*
X-241825Y418853D01*
X-219828Y431553D02*
X-226178Y442551D01*
X-431553Y219828D02*
X-442551Y226178D01*
X-429851Y248175D02*
X-418853Y241825D01*
X-406153Y263822D02*
X-417151Y270172D01*
X-483650Y-25400D02*
X-496350Y-25400D01*
X-496350Y0D02*
X-483650Y0D01*
X-483650Y25400D02*
X-496350Y25400D01*
X-406153Y-263822D02*
X-417151Y-270172D01*
X-429851Y-248175D02*
X-418853Y-241825D01*
X-431553Y-219828D02*
X-442551Y-226178D01*
X-219828Y-431553D02*
X-226178Y-442551D01*
X-248175Y-429851D02*
X-241825Y-418853D01*
X-263822Y-406153D02*
X-270172Y-417151D01*
X25400Y-483650D02*
X25400Y-496350D01*
X0Y-496350D02*
X0Y-483650D01*
X-25400Y-483650D02*
X-25400Y-496350D01*
X263822Y-406153D02*
X270172Y-417151D01*
X248175Y-429851D02*
X241825Y-418853D01*
X219828Y-431553D02*
X226178Y-442551D01*
X431553Y-219828D02*
X442551Y-226178D01*
X429851Y-248175D02*
X418853Y-241825D01*
X406153Y-263822D02*
X417151Y-270172D01*
D13*
X190922Y-836000D02*
X169078Y-836000D01*
X169078Y-804000D02*
X190922Y-804000D01*
D12*
X483650Y25400D02*
X496350Y25400D01*
X496350Y0D02*
X483650Y0D01*
X483650Y-25400D02*
X496350Y-25400D01*
D14*
X980000Y-12027D02*
X980000Y12027D01*
X979410Y36074D01*
X978229Y60099D01*
X976460Y84088D01*
X974102Y108026D01*
X971158Y131899D01*
X967628Y155693D01*
X963516Y179393D01*
X958823Y202984D01*
X953553Y226454D01*
X947708Y249787D01*
X941293Y272970D01*
X934310Y295988D01*
X926765Y318828D01*
X918661Y341476D01*
X910004Y363918D01*
X900799Y386141D01*
X891052Y408132D01*
X880767Y429876D01*
X869952Y451362D01*
X858613Y472576D01*
X846757Y493505D01*
X834391Y514137D01*
X821522Y534459D01*
X808158Y554459D01*
X794308Y574125D01*
X779979Y593446D01*
X765180Y612408D01*
X749920Y631002D01*
X734209Y649216D01*
X718055Y667039D01*
X701469Y684460D01*
X684460Y701469D01*
X667039Y718055D01*
X649216Y734209D01*
X631002Y749920D01*
X612408Y765180D01*
X593446Y779979D01*
X574125Y794308D01*
X554459Y808158D01*
X534459Y821522D01*
X514137Y834391D01*
X493505Y846757D01*
X472576Y858613D01*
X451362Y869952D01*
X429876Y880767D01*
X408132Y891052D01*
X386141Y900799D01*
X363918Y910004D01*
X341476Y918661D01*
X318828Y926765D01*
X295988Y934310D01*
X272970Y941293D01*
X249787Y947708D01*
X226454Y953553D01*
X202984Y958823D01*
X179393Y963516D01*
X155693Y967628D01*
X131899Y971158D01*
X108026Y974102D01*
X84088Y976460D01*
X60099Y978229D01*
X36074Y979410D01*
X12027Y980000D01*
X-12027Y980000D01*
X-36074Y979410D01*
X-60099Y978229D01*
X-84088Y976460D01*
X-108026Y974102D01*
X-131899Y971158D01*
X-155693Y967628D01*
X-179393Y963516D01*
X-202984Y958823D01*
X-226454Y953553D01*
X-249787Y947708D01*
X-272970Y941293D01*
X-295988Y934310D01*
X-318828Y926765D01*
X-341476Y918661D01*
X-363918Y910004D01*
X-386141Y900799D01*
X-408132Y891052D01*
X-429876Y880767D01*
X-451362Y869952D01*
X-472576Y858613D01*
X-493505Y846757D01*
X-514137Y834391D01*
X-534459Y821522D01*
X-554459Y808158D01*
X-574125Y794308D01*
X-593446Y779979D01*
X-612408Y765180D01*
X-631002Y749920D01*
X-649216Y734209D01*
X-667039Y718055D01*
X-684460Y701469D01*
X-701469Y684460D01*
X-718055Y667039D01*
X-734209Y649216D01*
X-749920Y631002D01*
X-765180Y612408D01*
X-779979Y593446D01*
X-794308Y574125D01*
X-808158Y554459D01*
X-821522Y534459D01*
X-834391Y514137D01*
X-846757Y493505D01*
X-858613Y472576D01*
X-869952Y451362D01*
X-880767Y429876D01*
X-891052Y408132D01*
X-900799Y386141D01*
X-910004Y363918D01*
X-918661Y341476D01*
X-926765Y318828D01*
X-934310Y295988D01*
X-941293Y272970D01*
X-947708Y249787D01*
X-953553Y226454D01*
X-958823Y202984D01*
X-963516Y179393D01*
X-967628Y155693D01*
X-971158Y131899D01*
X-974102Y108026D01*
X-976460Y84088D01*
X-978229Y60099D01*
X-979410Y36074D01*
X-980000Y12027D01*
X-980000Y-12027D01*
X-979410Y-36074D01*
X-978229Y-60099D01*
X-976460Y-84088D01*
X-974102Y-108026D01*
X-971158Y-131899D01*
X-967628Y-155693D01*
X-963516Y-179393D01*
X-958823Y-202984D01*
X-953553Y-226454D01*
X-947708Y-249787D01*
X-941293Y-272970D01*
X-934310Y-295988D01*
X-926765Y-318828D01*
X-918661Y-341476D01*
X-910004Y-363918D01*
X-900799Y-386141D01*
X-891052Y-408132D01*
X-880767Y-429876D01*
X-869952Y-451362D01*
X-858613Y-472576D01*
X-846757Y-493505D01*
X-834391Y-514137D01*
X-821522Y-534459D01*
X-808158Y-554459D01*
X-794308Y-574125D01*
X-779979Y-593446D01*
X-765180Y-612408D01*
X-749920Y-631002D01*
X-734209Y-649216D01*
X-718055Y-667039D01*
X-701469Y-684460D01*
X-684460Y-701469D01*
X-667039Y-718055D01*
X-649216Y-734209D01*
X-631002Y-749920D01*
X-612408Y-765180D01*
X-593446Y-779979D01*
X-574125Y-794308D01*
X-554459Y-808158D01*
X-534459Y-821522D01*
X-514137Y-834391D01*
X-493505Y-846757D01*
X-472576Y-858613D01*
X-451362Y-869952D01*
X-429876Y-880767D01*
X-408132Y-891052D01*
X-386141Y-900799D01*
X-363918Y-910004D01*
X-341476Y-918661D01*
X-318828Y-926765D01*
X-295988Y-934310D01*
X-272970Y-941293D01*
X-249787Y-947708D01*
X-226454Y-953553D01*
X-202984Y-958823D01*
X-179393Y-963516D01*
X-155693Y-967628D01*
X-131899Y-971158D01*
X-108026Y-974102D01*
X-84088Y-976460D01*
X-60099Y-978229D01*
X-36074Y-979410D01*
X-12027Y-980000D01*
X12027Y-980000D01*
X36074Y-979410D01*
X60099Y-978229D01*
X84088Y-976460D01*
X108026Y-974102D01*
X131899Y-971158D01*
X155693Y-967628D01*
X179393Y-963516D01*
X202984Y-958823D01*
X226454Y-953553D01*
X249787Y-947708D01*
X272970Y-941293D01*
X295988Y-934310D01*
X318828Y-926765D01*
X341476Y-918661D01*
X363918Y-910004D01*
X386141Y-900799D01*
X408132Y-891052D01*
X429876Y-880767D01*
X451362Y-869952D01*
X472576Y-858613D01*
X493505Y-846757D01*
X514137Y-834391D01*
X534459Y-821522D01*
X554459Y-808158D01*
X574125Y-794308D01*
X593446Y-779979D01*
X612408Y-765180D01*
X631002Y-749920D01*
X649216Y-734209D01*
X667039Y-718055D01*
X684460Y-701469D01*
X701469Y-684460D01*
X718055Y-667039D01*
X734209Y-649216D01*
X749920Y-631002D01*
X765180Y-612408D01*
X779979Y-593446D01*
X794308Y-574125D01*
X808158Y-554459D01*
X821522Y-534459D01*
X834391Y-514137D01*
X846757Y-493505D01*
X858613Y-472576D01*
X869952Y-451362D01*
X880767Y-429876D01*
X891052Y-408132D01*
X900799Y-386141D01*
X910004Y-363918D01*
X918661Y-341476D01*
X926765Y-318828D01*
X934310Y-295988D01*
X941293Y-272970D01*
X947708Y-249787D01*
X953553Y-226454D01*
X958823Y-202984D01*
X963516Y-179393D01*
X967628Y-155693D01*
X971158Y-131899D01*
X974102Y-108026D01*
X976460Y-84088D01*
X978229Y-60099D01*
X979410Y-36074D01*
X980000Y-12027D01*
X627000Y-923D02*
X627000Y923D01*
X626928Y2767D01*
X626783Y4608D01*
X626566Y6441D01*
X626277Y8264D01*
X625917Y10074D01*
X625486Y11869D01*
X624985Y13646D01*
X624414Y15402D01*
X623776Y17133D01*
X623069Y18839D01*
X622296Y20515D01*
X621458Y22160D01*
X620556Y23770D01*
X619592Y25344D01*
X618566Y26879D01*
X617481Y28373D01*
X616339Y29822D01*
X615140Y31226D01*
X613887Y32581D01*
X612581Y33887D01*
X611226Y35140D01*
X609822Y36339D01*
X608373Y37481D01*
X606879Y38566D01*
X605344Y39592D01*
X603770Y40556D01*
X602160Y41458D01*
X600515Y42296D01*
X598839Y43069D01*
X597133Y43776D01*
X595402Y44414D01*
X593646Y44985D01*
X591869Y45486D01*
X590074Y45917D01*
X588264Y46277D01*
X586441Y46566D01*
X584608Y46783D01*
X582767Y46928D01*
X580923Y47000D01*
X579077Y47000D01*
X577233Y46928D01*
X575392Y46783D01*
X573559Y46566D01*
X571736Y46277D01*
X569926Y45917D01*
X568131Y45486D01*
X566354Y44985D01*
X564598Y44414D01*
X562867Y43776D01*
X561161Y43069D01*
X559485Y42296D01*
X557840Y41458D01*
X556230Y40556D01*
X554656Y39592D01*
X553121Y38566D01*
X551627Y37481D01*
X550178Y36339D01*
X548774Y35140D01*
X547419Y33887D01*
X546113Y32581D01*
X544860Y31226D01*
X543662Y29822D01*
X542519Y28373D01*
X541434Y26879D01*
X540408Y25344D01*
X539444Y23770D01*
X538542Y22160D01*
X537704Y20515D01*
X536931Y18839D01*
X536224Y17133D01*
X535586Y15402D01*
X535015Y13646D01*
X534514Y11869D01*
X534083Y10074D01*
X533723Y8264D01*
X533434Y6441D01*
X533217Y4608D01*
X533072Y2767D01*
X533000Y923D01*
X533000Y-923D01*
X533072Y-2767D01*
X533217Y-4608D01*
X533434Y-6441D01*
X533723Y-8264D01*
X534083Y-10074D01*
X534514Y-11869D01*
X535015Y-13646D01*
X535586Y-15402D01*
X536224Y-17133D01*
X536931Y-18839D01*
X537704Y-20515D01*
X538542Y-22160D01*
X539444Y-23770D01*
X540408Y-25344D01*
X541434Y-26879D01*
X542519Y-28373D01*
X543662Y-29822D01*
X544860Y-31226D01*
X546113Y-32581D01*
X547419Y-33887D01*
X548774Y-35140D01*
X550178Y-36339D01*
X551627Y-37481D01*
X553121Y-38566D01*
X554656Y-39592D01*
X556230Y-40556D01*
X557840Y-41458D01*
X559485Y-42296D01*
X561161Y-43069D01*
X562867Y-43776D01*
X564598Y-44414D01*
X566354Y-44985D01*
X568131Y-45486D01*
X569926Y-45917D01*
X571736Y-46277D01*
X573559Y-46566D01*
X575392Y-46783D01*
X577233Y-46928D01*
X579077Y-47000D01*
X580923Y-47000D01*
X582767Y-46928D01*
X584608Y-46783D01*
X586441Y-46566D01*
X588264Y-46277D01*
X590074Y-45917D01*
X591869Y-45486D01*
X593646Y-44985D01*
X595402Y-44414D01*
X597133Y-43776D01*
X598839Y-43069D01*
X600515Y-42296D01*
X602160Y-41458D01*
X603770Y-40556D01*
X605344Y-39592D01*
X606879Y-38566D01*
X608373Y-37481D01*
X609822Y-36339D01*
X611226Y-35140D01*
X612581Y-33887D01*
X613887Y-32581D01*
X615140Y-31226D01*
X616339Y-29822D01*
X617481Y-28373D01*
X618566Y-26879D01*
X619592Y-25344D01*
X620556Y-23770D01*
X621458Y-22160D01*
X622296Y-20515D01*
X623069Y-18839D01*
X623776Y-17133D01*
X624414Y-15402D01*
X624985Y-13646D01*
X625486Y-11869D01*
X625917Y-10074D01*
X626277Y-8264D01*
X626566Y-6441D01*
X626783Y-4608D01*
X626928Y-2767D01*
X627000Y-923D01*
X47000Y579077D02*
X47000Y580923D01*
X46928Y582767D01*
X46783Y584608D01*
X46566Y586441D01*
X46277Y588264D01*
X45917Y590074D01*
X45486Y591869D01*
X44985Y593646D01*
X44414Y595402D01*
X43776Y597133D01*
X43069Y598839D01*
X42296Y600515D01*
X41458Y602160D01*
X40556Y603770D01*
X39592Y605344D01*
X38566Y606879D01*
X37481Y608373D01*
X36339Y609822D01*
X35140Y611226D01*
X33887Y612581D01*
X32581Y613887D01*
X31226Y615140D01*
X29822Y616339D01*
X28373Y617481D01*
X26879Y618566D01*
X25344Y619592D01*
X23770Y620556D01*
X22160Y621458D01*
X20515Y622296D01*
X18839Y623069D01*
X17133Y623776D01*
X15402Y624414D01*
X13646Y624985D01*
X11869Y625486D01*
X10074Y625917D01*
X8264Y626277D01*
X6441Y626566D01*
X4608Y626783D01*
X2767Y626928D01*
X923Y627000D01*
X-923Y627000D01*
X-2767Y626928D01*
X-4608Y626783D01*
X-6441Y626566D01*
X-8264Y626277D01*
X-10074Y625917D01*
X-11869Y625486D01*
X-13646Y624985D01*
X-15402Y624414D01*
X-17133Y623776D01*
X-18839Y623069D01*
X-20515Y622296D01*
X-22160Y621458D01*
X-23770Y620556D01*
X-25344Y619592D01*
X-26879Y618566D01*
X-28373Y617481D01*
X-29822Y616339D01*
X-31226Y615140D01*
X-32581Y613887D01*
X-33887Y612581D01*
X-35140Y611226D01*
X-36339Y609822D01*
X-37481Y608373D01*
X-38566Y606879D01*
X-39592Y605344D01*
X-40556Y603770D01*
X-41458Y602160D01*
X-42296Y600515D01*
X-43069Y598839D01*
X-43776Y597133D01*
X-44414Y595402D01*
X-44985Y593646D01*
X-45486Y591869D01*
X-45917Y590074D01*
X-46277Y588264D01*
X-46566Y586441D01*
X-46783Y584608D01*
X-46928Y582767D01*
X-47000Y580923D01*
X-47000Y579077D01*
X-46928Y577233D01*
X-46783Y575392D01*
X-46566Y573559D01*
X-46277Y571736D01*
X-45917Y569926D01*
X-45486Y568131D01*
X-44985Y566354D01*
X-44414Y564598D01*
X-43776Y562867D01*
X-43069Y561161D01*
X-42296Y559485D01*
X-41458Y557840D01*
X-40556Y556230D01*
X-39592Y554656D01*
X-38566Y553121D01*
X-37481Y551627D01*
X-36339Y550178D01*
X-35140Y548774D01*
X-33887Y547419D01*
X-32581Y546113D01*
X-31226Y544860D01*
X-29822Y543662D01*
X-28373Y542519D01*
X-26879Y541434D01*
X-25344Y540408D01*
X-23770Y539444D01*
X-22160Y538542D01*
X-20515Y537704D01*
X-18839Y536931D01*
X-17133Y536224D01*
X-15402Y535586D01*
X-13646Y535015D01*
X-11869Y534514D01*
X-10074Y534083D01*
X-8264Y533723D01*
X-6441Y533434D01*
X-4608Y533217D01*
X-2767Y533072D01*
X-923Y533000D01*
X923Y533000D01*
X2767Y533072D01*
X4608Y533217D01*
X6441Y533434D01*
X8264Y533723D01*
X10074Y534083D01*
X11869Y534514D01*
X13646Y535015D01*
X15402Y535586D01*
X17133Y536224D01*
X18839Y536931D01*
X20515Y537704D01*
X22160Y538542D01*
X23770Y539444D01*
X25344Y540408D01*
X26879Y541434D01*
X28373Y542519D01*
X29822Y543662D01*
X31226Y544860D01*
X32581Y546113D01*
X33887Y547419D01*
X35140Y548774D01*
X36339Y550178D01*
X37481Y551627D01*
X38566Y553121D01*
X39592Y554656D01*
X40556Y556230D01*
X41458Y557840D01*
X42296Y559485D01*
X43069Y561161D01*
X43776Y562867D01*
X44414Y564598D01*
X44985Y566354D01*
X45486Y568131D01*
X45917Y569926D01*
X46277Y571736D01*
X46566Y573559D01*
X46783Y575392D01*
X46928Y577233D01*
X47000Y579077D01*
X-533000Y-923D02*
X-533000Y923D01*
X-533072Y2767D01*
X-533217Y4608D01*
X-533434Y6441D01*
X-533723Y8264D01*
X-534083Y10074D01*
X-534514Y11869D01*
X-535015Y13646D01*
X-535586Y15402D01*
X-536224Y17133D01*
X-536931Y18839D01*
X-537704Y20515D01*
X-538542Y22160D01*
X-539444Y23770D01*
X-540408Y25344D01*
X-541434Y26879D01*
X-542519Y28373D01*
X-543662Y29822D01*
X-544860Y31226D01*
X-546113Y32581D01*
X-547419Y33887D01*
X-548774Y35140D01*
X-550178Y36339D01*
X-551627Y37481D01*
X-553121Y38566D01*
X-554656Y39592D01*
X-556230Y40556D01*
X-557840Y41458D01*
X-559485Y42296D01*
X-561161Y43069D01*
X-562867Y43776D01*
X-564598Y44414D01*
X-566354Y44985D01*
X-568131Y45486D01*
X-569926Y45917D01*
X-571736Y46277D01*
X-573559Y46566D01*
X-575392Y46783D01*
X-577233Y46928D01*
X-579077Y47000D01*
X-580923Y47000D01*
X-582767Y46928D01*
X-584608Y46783D01*
X-586441Y46566D01*
X-588264Y46277D01*
X-590074Y45917D01*
X-591869Y45486D01*
X-593646Y44985D01*
X-595402Y44414D01*
X-597133Y43776D01*
X-598839Y43069D01*
X-600515Y42296D01*
X-602160Y41458D01*
X-603770Y40556D01*
X-605344Y39592D01*
X-606879Y38566D01*
X-608373Y37481D01*
X-609822Y36339D01*
X-611226Y35140D01*
X-612581Y33887D01*
X-613887Y32581D01*
X-615140Y31226D01*
X-616339Y29822D01*
X-617481Y28373D01*
X-618566Y26879D01*
X-619592Y25344D01*
X-620556Y23770D01*
X-621458Y22160D01*
X-622296Y20515D01*
X-623069Y18839D01*
X-623776Y17133D01*
X-624414Y15402D01*
X-624985Y13646D01*
X-625486Y11869D01*
X-625917Y10074D01*
X-626277Y8264D01*
X-626566Y6441D01*
X-626783Y4608D01*
X-626928Y2767D01*
X-627000Y923D01*
X-627000Y-923D01*
X-626928Y-2767D01*
X-626783Y-4608D01*
X-626566Y-6441D01*
X-626277Y-8264D01*
X-625917Y-10074D01*
X-625486Y-11869D01*
X-624985Y-13646D01*
X-624414Y-15402D01*
X-623776Y-17133D01*
X-623069Y-18839D01*
X-622296Y-20515D01*
X-621458Y-22160D01*
X-620556Y-23770D01*
X-619592Y-25344D01*
X-618566Y-26879D01*
X-617481Y-28373D01*
X-616339Y-29822D01*
X-615140Y-31226D01*
X-613887Y-32581D01*
X-612581Y-33887D01*
X-611226Y-35140D01*
X-609822Y-36339D01*
X-608373Y-37481D01*
X-606879Y-38566D01*
X-605344Y-39592D01*
X-603770Y-40556D01*
X-602160Y-41458D01*
X-600515Y-42296D01*
X-598839Y-43069D01*
X-597133Y-43776D01*
X-595402Y-44414D01*
X-593646Y-44985D01*
X-591869Y-45486D01*
X-590074Y-45917D01*
X-588264Y-46277D01*
X-586441Y-46566D01*
X-584608Y-46783D01*
X-582767Y-46928D01*
X-580923Y-47000D01*
X-579077Y-47000D01*
X-577233Y-46928D01*
X-575392Y-46783D01*
X-573559Y-46566D01*
X-571736Y-46277D01*
X-569926Y-45917D01*
X-568131Y-45486D01*
X-566354Y-44985D01*
X-564598Y-44414D01*
X-562867Y-43776D01*
X-561161Y-43069D01*
X-559485Y-42296D01*
X-557840Y-41458D01*
X-556230Y-40556D01*
X-554656Y-39592D01*
X-553121Y-38566D01*
X-551627Y-37481D01*
X-550178Y-36339D01*
X-548774Y-35140D01*
X-547419Y-33887D01*
X-546113Y-32581D01*
X-544860Y-31226D01*
X-543662Y-29822D01*
X-542519Y-28373D01*
X-541434Y-26879D01*
X-540408Y-25344D01*
X-539444Y-23770D01*
X-538542Y-22160D01*
X-537704Y-20515D01*
X-536931Y-18839D01*
X-536224Y-17133D01*
X-535586Y-15402D01*
X-535015Y-13646D01*
X-534514Y-11869D01*
X-534083Y-10074D01*
X-533723Y-8264D01*
X-533434Y-6441D01*
X-533217Y-4608D01*
X-533072Y-2767D01*
X-533000Y-923D01*
X47000Y-580923D02*
X47000Y-579077D01*
X46928Y-577233D01*
X46783Y-575392D01*
X46566Y-573559D01*
X46277Y-571736D01*
X45917Y-569926D01*
X45486Y-568131D01*
X44985Y-566354D01*
X44414Y-564598D01*
X43776Y-562867D01*
X43069Y-561161D01*
X42296Y-559485D01*
X41458Y-557840D01*
X40556Y-556230D01*
X39592Y-554656D01*
X38566Y-553121D01*
X37481Y-551627D01*
X36339Y-550178D01*
X35140Y-548774D01*
X33887Y-547419D01*
X32581Y-546113D01*
X31226Y-544860D01*
X29822Y-543662D01*
X28373Y-542519D01*
X26879Y-541434D01*
X25344Y-540408D01*
X23770Y-539444D01*
X22160Y-538542D01*
X20515Y-537704D01*
X18839Y-536931D01*
X17133Y-536224D01*
X15402Y-535586D01*
X13646Y-535015D01*
X11869Y-534514D01*
X10074Y-534083D01*
X8264Y-533723D01*
X6441Y-533434D01*
X4608Y-533217D01*
X2767Y-533072D01*
X923Y-533000D01*
X-923Y-533000D01*
X-2767Y-533072D01*
X-4608Y-533217D01*
X-6441Y-533434D01*
X-8264Y-533723D01*
X-10074Y-534083D01*
X-11869Y-534514D01*
X-13646Y-535015D01*
X-15402Y-535586D01*
X-17133Y-536224D01*
X-18839Y-536931D01*
X-20515Y-537704D01*
X-22160Y-538542D01*
X-23770Y-539444D01*
X-25344Y-540408D01*
X-26879Y-541434D01*
X-28373Y-542519D01*
X-29822Y-543662D01*
X-31226Y-544860D01*
X-32581Y-546113D01*
X-33887Y-547419D01*
X-35140Y-548774D01*
X-36339Y-550178D01*
X-37481Y-551627D01*
X-38566Y-553121D01*
X-39592Y-554656D01*
X-40556Y-556230D01*
X-41458Y-557840D01*
X-42296Y-559485D01*
X-43069Y-561161D01*
X-43776Y-562867D01*
X-44414Y-564598D01*
X-44985Y-566354D01*
X-45486Y-568131D01*
X-45917Y-569926D01*
X-46277Y-571736D01*
X-46566Y-573559D01*
X-46783Y-575392D01*
X-46928Y-577233D01*
X-47000Y-579077D01*
X-47000Y-580923D01*
X-46928Y-582767D01*
X-46783Y-584608D01*
X-46566Y-586441D01*
X-46277Y-588264D01*
X-45917Y-590074D01*
X-45486Y-591869D01*
X-44985Y-593646D01*
X-44414Y-595402D01*
X-43776Y-597133D01*
X-43069Y-598839D01*
X-42296Y-600515D01*
X-41458Y-602160D01*
X-40556Y-603770D01*
X-39592Y-605344D01*
X-38566Y-606879D01*
X-37481Y-608373D01*
X-36339Y-609822D01*
X-35140Y-611226D01*
X-33887Y-612581D01*
X-32581Y-613887D01*
X-31226Y-615140D01*
X-29822Y-616339D01*
X-28373Y-617481D01*
X-26879Y-618566D01*
X-25344Y-619592D01*
X-23770Y-620556D01*
X-22160Y-621458D01*
X-20515Y-622296D01*
X-18839Y-623069D01*
X-17133Y-623776D01*
X-15402Y-624414D01*
X-13646Y-624985D01*
X-11869Y-625486D01*
X-10074Y-625917D01*
X-8264Y-626277D01*
X-6441Y-626566D01*
X-4608Y-626783D01*
X-2767Y-626928D01*
X-923Y-627000D01*
X923Y-627000D01*
X2767Y-626928D01*
X4608Y-626783D01*
X6441Y-626566D01*
X8264Y-626277D01*
X10074Y-625917D01*
X11869Y-625486D01*
X13646Y-624985D01*
X15402Y-624414D01*
X17133Y-623776D01*
X18839Y-623069D01*
X20515Y-622296D01*
X22160Y-621458D01*
X23770Y-620556D01*
X25344Y-619592D01*
X26879Y-618566D01*
X28373Y-617481D01*
X29822Y-616339D01*
X31226Y-615140D01*
X32581Y-613887D01*
X33887Y-612581D01*
X35140Y-611226D01*
X36339Y-609822D01*
X37481Y-608373D01*
X38566Y-606879D01*
X39592Y-605344D01*
X40556Y-603770D01*
X41458Y-602160D01*
X42296Y-600515D01*
X43069Y-598839D01*
X43776Y-597133D01*
X44414Y-595402D01*
X44985Y-593646D01*
X45486Y-591869D01*
X45917Y-590074D01*
X46277Y-588264D01*
X46566Y-586441D01*
X46783Y-584608D01*
X46928Y-582767D01*
X47000Y-580923D01*
X400000Y-4909D02*
X400000Y4909D01*
X399759Y14724D01*
X399277Y24530D01*
X398555Y34322D01*
X397593Y44092D01*
X396391Y53836D01*
X394950Y63548D01*
X393272Y73221D01*
X391356Y82851D01*
X389205Y92430D01*
X386820Y101954D01*
X384201Y111416D01*
X381351Y120811D01*
X378271Y130134D01*
X374964Y139378D01*
X371430Y148538D01*
X367673Y157609D01*
X363695Y166584D01*
X359497Y175460D01*
X355083Y184229D01*
X350454Y192888D01*
X345615Y201431D01*
X340568Y209852D01*
X335315Y218146D01*
X329861Y226310D01*
X324207Y234337D01*
X318359Y242223D01*
X312318Y249963D01*
X306090Y257552D01*
X299677Y264986D01*
X293084Y272261D01*
X286314Y279372D01*
X279372Y286314D01*
X272261Y293084D01*
X264986Y299677D01*
X257552Y306090D01*
X249963Y312318D01*
X242223Y318359D01*
X234337Y324207D01*
X226310Y329861D01*
X218146Y335315D01*
X209852Y340568D01*
X201431Y345615D01*
X192888Y350454D01*
X184229Y355083D01*
X175460Y359497D01*
X166584Y363695D01*
X157609Y367673D01*
X148538Y371430D01*
X139378Y374964D01*
X130134Y378271D01*
X120811Y381351D01*
X111416Y384201D01*
X101954Y386820D01*
X92430Y389205D01*
X82851Y391356D01*
X73221Y393272D01*
X63548Y394950D01*
X53836Y396391D01*
X44092Y397593D01*
X34322Y398555D01*
X24530Y399277D01*
X14724Y399759D01*
X4909Y400000D01*
X-4909Y400000D01*
X-14724Y399759D01*
X-24530Y399277D01*
X-34322Y398555D01*
X-44092Y397593D01*
X-53836Y396391D01*
X-63548Y394950D01*
X-73221Y393272D01*
X-82851Y391356D01*
X-92430Y389205D01*
X-101954Y386820D01*
X-111416Y384201D01*
X-120811Y381351D01*
X-130134Y378271D01*
X-139378Y374964D01*
X-148538Y371430D01*
X-157609Y367673D01*
X-166584Y363695D01*
X-175460Y359497D01*
X-184229Y355083D01*
X-192888Y350454D01*
X-201431Y345615D01*
X-209852Y340568D01*
X-218146Y335315D01*
X-226310Y329861D01*
X-234337Y324207D01*
X-242223Y318359D01*
X-249963Y312318D01*
X-257552Y306090D01*
X-264986Y299677D01*
X-272261Y293084D01*
X-279372Y286314D01*
X-286314Y279372D01*
X-293084Y272261D01*
X-299677Y264986D01*
X-306090Y257552D01*
X-312318Y249963D01*
X-318359Y242223D01*
X-324207Y234337D01*
X-329861Y226310D01*
X-335315Y218146D01*
X-340568Y209852D01*
X-345615Y201431D01*
X-350454Y192888D01*
X-355083Y184229D01*
X-359497Y175460D01*
X-363695Y166584D01*
X-367673Y157609D01*
X-371430Y148538D01*
X-374964Y139378D01*
X-378271Y130134D01*
X-381351Y120811D01*
X-384201Y111416D01*
X-386820Y101954D01*
X-389205Y92430D01*
X-391356Y82851D01*
X-393272Y73221D01*
X-394950Y63548D01*
X-396391Y53836D01*
X-397593Y44092D01*
X-398555Y34322D01*
X-399277Y24530D01*
X-399759Y14724D01*
X-400000Y4909D01*
X-400000Y-4909D01*
X-399759Y-14724D01*
X-399277Y-24530D01*
X-398555Y-34322D01*
X-397593Y-44092D01*
X-396391Y-53836D01*
X-394950Y-63548D01*
X-393272Y-73221D01*
X-391356Y-82851D01*
X-389205Y-92430D01*
X-386820Y-101954D01*
X-384201Y-111416D01*
X-381351Y-120811D01*
X-378271Y-130134D01*
X-374964Y-139378D01*
X-371430Y-148538D01*
X-367673Y-157609D01*
X-363695Y-166584D01*
X-359497Y-175460D01*
X-355083Y-184229D01*
X-350454Y-192888D01*
X-345615Y-201431D01*
X-340568Y-209852D01*
X-335315Y-218146D01*
X-329861Y-226310D01*
X-324207Y-234337D01*
X-318359Y-242223D01*
X-312318Y-249963D01*
X-306090Y-257552D01*
X-299677Y-264986D01*
X-293084Y-272261D01*
X-286314Y-279372D01*
X-279372Y-286314D01*
X-272261Y-293084D01*
X-264986Y-299677D01*
X-257552Y-306090D01*
X-249963Y-312318D01*
X-242223Y-318359D01*
X-234337Y-324207D01*
X-226310Y-329861D01*
X-218146Y-335315D01*
X-209852Y-340568D01*
X-201431Y-345615D01*
X-192888Y-350454D01*
X-184229Y-355083D01*
X-175460Y-359497D01*
X-166584Y-363695D01*
X-157609Y-367673D01*
X-148538Y-371430D01*
X-139378Y-374964D01*
X-130134Y-378271D01*
X-120811Y-381351D01*
X-111416Y-384201D01*
X-101954Y-386820D01*
X-92430Y-389205D01*
X-82851Y-391356D01*
X-73221Y-393272D01*
X-63548Y-394950D01*
X-53836Y-396391D01*
X-44092Y-397593D01*
X-34322Y-398555D01*
X-24530Y-399277D01*
X-14724Y-399759D01*
X-4909Y-400000D01*
X4909Y-400000D01*
X14724Y-399759D01*
X24530Y-399277D01*
X34322Y-398555D01*
X44092Y-397593D01*
X53836Y-396391D01*
X63548Y-394950D01*
X73221Y-393272D01*
X82851Y-391356D01*
X92430Y-389205D01*
X101954Y-386820D01*
X111416Y-384201D01*
X120811Y-381351D01*
X130134Y-378271D01*
X139378Y-374964D01*
X148538Y-371430D01*
X157609Y-367673D01*
X166584Y-363695D01*
X175460Y-359497D01*
X184229Y-355083D01*
X192888Y-350454D01*
X201431Y-345615D01*
X209852Y-340568D01*
X218146Y-335315D01*
X226310Y-329861D01*
X234337Y-324207D01*
X242223Y-318359D01*
X249963Y-312318D01*
X257552Y-306090D01*
X264986Y-299677D01*
X272261Y-293084D01*
X279372Y-286314D01*
X286314Y-279372D01*
X293084Y-272261D01*
X299677Y-264986D01*
X306090Y-257552D01*
X312318Y-249963D01*
X318359Y-242223D01*
X324207Y-234337D01*
X329861Y-226310D01*
X335315Y-218146D01*
X340568Y-209852D01*
X345615Y-201431D01*
X350454Y-192888D01*
X355083Y-184229D01*
X359497Y-175460D01*
X363695Y-166584D01*
X367673Y-157609D01*
X371430Y-148538D01*
X374964Y-139378D01*
X378271Y-130134D01*
X381351Y-120811D01*
X384201Y-111416D01*
X386820Y-101954D01*
X389205Y-92430D01*
X391356Y-82851D01*
X393272Y-73221D01*
X394950Y-63548D01*
X396391Y-53836D01*
X397593Y-44092D01*
X398555Y-34322D01*
X399277Y-24530D01*
X399759Y-14724D01*
X400000Y-4909D01*
M02*
