M48
;GenerationSoftware,Autodesk,EAGLE,9.6.2*%
;CreationDate,2022-07-22T08:44:29Z*%
FMAT,2
ICI,OFF
METRIC,TZ,000.000
T4C0.600
T3C0.813
T2C1.000
T1C1.016
%
G90
M71
T1
X-54122Y71878
X-55918Y70082
X-57714Y68286
X-59510Y66490
X-61306Y64694
X-63102Y62898
X-64898Y61102
X-66694Y59306
X-68490Y57510
X-70286Y55714
X-72082Y53918
X-73878Y52122
T2
X18000Y-80400
X18000Y-83600
T3
X2000Y-80730
X2000Y-83270
X-12000Y-80730
X-12000Y-83270
T4
X43705Y22300
X22300Y43705
X24500Y42435
X26700Y41165
X-2540Y49000
X0Y49000
X2540Y49000
X-26700Y41165
X-24500Y42435
X-22300Y43705
X-43705Y22300
X-42435Y24500
X-41165Y26700
X-49000Y-2540
X-49000Y0
X-49000Y2540
X-41165Y-26700
X-42435Y-24500
X-43705Y-22300
X-22300Y-43705
X-24500Y-42435
X-26700Y-41165
X2540Y-49000
X0Y-49000
X-2540Y-49000
X26700Y-41165
X24500Y-42435
X22300Y-43705
X43705Y-22300
X42435Y-24500
X41165Y-26700
X42435Y24500
X41165Y26700
X49000Y2540
X49000Y0
X49000Y-2540
M30