G04 EAGLE Gerber RS-274X export*
G75*
%MOMM*%
%FSLAX34Y34*%
%LPD*%
%INSilkscreen Top*%
%IPPOS*%
%AMOC8*
5,1,8,0,0,1.08239X$1,22.5*%
G01*
%ADD10C,0.152400*%
%ADD11C,0.812800*%
%ADD12C,0.254000*%
%ADD13C,0.127000*%
%ADD14C,0.203200*%
%ADD15C,0.101600*%


D10*
X-680000Y0D02*
X-679795Y16688D01*
X-679181Y33366D01*
X-678158Y50024D01*
X-676726Y66652D01*
X-674886Y83239D01*
X-672640Y99777D01*
X-669989Y116254D01*
X-666934Y132661D01*
X-663477Y148989D01*
X-659621Y165227D01*
X-655368Y181365D01*
X-650719Y197394D01*
X-645679Y213304D01*
X-640250Y229085D01*
X-634435Y244729D01*
X-628238Y260225D01*
X-621663Y275564D01*
X-614713Y290737D01*
X-607393Y305736D01*
X-599706Y320550D01*
X-591659Y335171D01*
X-583255Y349590D01*
X-574500Y363798D01*
X-565399Y377788D01*
X-555958Y391550D01*
X-546181Y405076D01*
X-536076Y418357D01*
X-525647Y431387D01*
X-514902Y444158D01*
X-503847Y456660D01*
X-492488Y468888D01*
X-480833Y480833D01*
X-468888Y492488D01*
X-456660Y503847D01*
X-444158Y514902D01*
X-431387Y525647D01*
X-418357Y536076D01*
X-405076Y546181D01*
X-391550Y555958D01*
X-377788Y565399D01*
X-363798Y574500D01*
X-349590Y583255D01*
X-335171Y591659D01*
X-320550Y599706D01*
X-305736Y607393D01*
X-290737Y614713D01*
X-275564Y621663D01*
X-260225Y628238D01*
X-244729Y634435D01*
X-229085Y640250D01*
X-213304Y645679D01*
X-197394Y650719D01*
X-181365Y655368D01*
X-165227Y659621D01*
X-148989Y663477D01*
X-132661Y666934D01*
X-116254Y669989D01*
X-99777Y672640D01*
X-83239Y674886D01*
X-66652Y676726D01*
X-50024Y678158D01*
X-33366Y679181D01*
X-16688Y679795D01*
X0Y680000D01*
X16688Y679795D01*
X33366Y679181D01*
X50024Y678158D01*
X66652Y676726D01*
X83239Y674886D01*
X99777Y672640D01*
X116254Y669989D01*
X132661Y666934D01*
X148989Y663477D01*
X165227Y659621D01*
X181365Y655368D01*
X197394Y650719D01*
X213304Y645679D01*
X229085Y640250D01*
X244729Y634435D01*
X260225Y628238D01*
X275564Y621663D01*
X290737Y614713D01*
X305736Y607393D01*
X320550Y599706D01*
X335171Y591659D01*
X349590Y583255D01*
X363798Y574500D01*
X377788Y565399D01*
X391550Y555958D01*
X405076Y546181D01*
X418357Y536076D01*
X431387Y525647D01*
X444158Y514902D01*
X456660Y503847D01*
X468888Y492488D01*
X480833Y480833D01*
X492488Y468888D01*
X503847Y456660D01*
X514902Y444158D01*
X525647Y431387D01*
X536076Y418357D01*
X546181Y405076D01*
X555958Y391550D01*
X565399Y377788D01*
X574500Y363798D01*
X583255Y349590D01*
X591659Y335171D01*
X599706Y320550D01*
X607393Y305736D01*
X614713Y290737D01*
X621663Y275564D01*
X628238Y260225D01*
X634435Y244729D01*
X640250Y229085D01*
X645679Y213304D01*
X650719Y197394D01*
X655368Y181365D01*
X659621Y165227D01*
X663477Y148989D01*
X666934Y132661D01*
X669989Y116254D01*
X672640Y99777D01*
X674886Y83239D01*
X676726Y66652D01*
X678158Y50024D01*
X679181Y33366D01*
X679795Y16688D01*
X680000Y0D01*
X679795Y-16688D01*
X679181Y-33366D01*
X678158Y-50024D01*
X676726Y-66652D01*
X674886Y-83239D01*
X672640Y-99777D01*
X669989Y-116254D01*
X666934Y-132661D01*
X663477Y-148989D01*
X659621Y-165227D01*
X655368Y-181365D01*
X650719Y-197394D01*
X645679Y-213304D01*
X640250Y-229085D01*
X634435Y-244729D01*
X628238Y-260225D01*
X621663Y-275564D01*
X614713Y-290737D01*
X607393Y-305736D01*
X599706Y-320550D01*
X591659Y-335171D01*
X583255Y-349590D01*
X574500Y-363798D01*
X565399Y-377788D01*
X555958Y-391550D01*
X546181Y-405076D01*
X536076Y-418357D01*
X525647Y-431387D01*
X514902Y-444158D01*
X503847Y-456660D01*
X492488Y-468888D01*
X480833Y-480833D01*
X468888Y-492488D01*
X456660Y-503847D01*
X444158Y-514902D01*
X431387Y-525647D01*
X418357Y-536076D01*
X405076Y-546181D01*
X391550Y-555958D01*
X377788Y-565399D01*
X363798Y-574500D01*
X349590Y-583255D01*
X335171Y-591659D01*
X320550Y-599706D01*
X305736Y-607393D01*
X290737Y-614713D01*
X275564Y-621663D01*
X260225Y-628238D01*
X244729Y-634435D01*
X229085Y-640250D01*
X213304Y-645679D01*
X197394Y-650719D01*
X181365Y-655368D01*
X165227Y-659621D01*
X148989Y-663477D01*
X132661Y-666934D01*
X116254Y-669989D01*
X99777Y-672640D01*
X83239Y-674886D01*
X66652Y-676726D01*
X50024Y-678158D01*
X33366Y-679181D01*
X16688Y-679795D01*
X0Y-680000D01*
X-16688Y-679795D01*
X-33366Y-679181D01*
X-50024Y-678158D01*
X-66652Y-676726D01*
X-83239Y-674886D01*
X-99777Y-672640D01*
X-116254Y-669989D01*
X-132661Y-666934D01*
X-148989Y-663477D01*
X-165227Y-659621D01*
X-181365Y-655368D01*
X-197394Y-650719D01*
X-213304Y-645679D01*
X-229085Y-640250D01*
X-244729Y-634435D01*
X-260225Y-628238D01*
X-275564Y-621663D01*
X-290737Y-614713D01*
X-305736Y-607393D01*
X-320550Y-599706D01*
X-335171Y-591659D01*
X-349590Y-583255D01*
X-363798Y-574500D01*
X-377788Y-565399D01*
X-391550Y-555958D01*
X-405076Y-546181D01*
X-418357Y-536076D01*
X-431387Y-525647D01*
X-444158Y-514902D01*
X-456660Y-503847D01*
X-468888Y-492488D01*
X-480833Y-480833D01*
X-492488Y-468888D01*
X-503847Y-456660D01*
X-514902Y-444158D01*
X-525647Y-431387D01*
X-536076Y-418357D01*
X-546181Y-405076D01*
X-555958Y-391550D01*
X-565399Y-377788D01*
X-574500Y-363798D01*
X-583255Y-349590D01*
X-591659Y-335171D01*
X-599706Y-320550D01*
X-607393Y-305736D01*
X-614713Y-290737D01*
X-621663Y-275564D01*
X-628238Y-260225D01*
X-634435Y-244729D01*
X-640250Y-229085D01*
X-645679Y-213304D01*
X-650719Y-197394D01*
X-655368Y-181365D01*
X-659621Y-165227D01*
X-663477Y-148989D01*
X-666934Y-132661D01*
X-669989Y-116254D01*
X-672640Y-99777D01*
X-674886Y-83239D01*
X-676726Y-66652D01*
X-678158Y-50024D01*
X-679181Y-33366D01*
X-679795Y-16688D01*
X-680000Y0D01*
D11*
X-480000Y0D02*
X-479855Y11780D01*
X-479422Y23552D01*
X-478699Y35311D01*
X-477689Y47048D01*
X-476390Y58757D01*
X-474805Y70431D01*
X-472933Y82062D01*
X-470777Y93643D01*
X-468337Y105169D01*
X-465615Y116630D01*
X-462613Y128022D01*
X-459331Y139337D01*
X-455774Y150567D01*
X-451941Y161707D01*
X-447837Y172750D01*
X-443462Y183688D01*
X-438821Y194516D01*
X-433915Y205226D01*
X-428748Y215813D01*
X-423322Y226270D01*
X-417642Y236591D01*
X-411710Y246769D01*
X-405530Y256799D01*
X-399105Y266674D01*
X-392441Y276388D01*
X-385540Y285936D01*
X-378406Y295311D01*
X-371045Y304509D01*
X-363460Y313523D01*
X-355657Y322348D01*
X-347639Y330979D01*
X-339411Y339411D01*
X-330979Y347639D01*
X-322348Y355657D01*
X-313523Y363460D01*
X-304509Y371045D01*
X-295311Y378406D01*
X-285936Y385540D01*
X-276388Y392441D01*
X-266674Y399105D01*
X-256799Y405530D01*
X-246769Y411710D01*
X-236591Y417642D01*
X-226270Y423322D01*
X-215813Y428748D01*
X-205226Y433915D01*
X-194516Y438821D01*
X-183688Y443462D01*
X-172750Y447837D01*
X-161707Y451941D01*
X-150567Y455774D01*
X-139337Y459331D01*
X-128022Y462613D01*
X-116630Y465615D01*
X-105169Y468337D01*
X-93643Y470777D01*
X-82062Y472933D01*
X-70431Y474805D01*
X-58757Y476390D01*
X-47048Y477689D01*
X-35311Y478699D01*
X-23552Y479422D01*
X-11780Y479855D01*
X0Y480000D01*
X11780Y479855D01*
X23552Y479422D01*
X35311Y478699D01*
X47048Y477689D01*
X58757Y476390D01*
X70431Y474805D01*
X82062Y472933D01*
X93643Y470777D01*
X105169Y468337D01*
X116630Y465615D01*
X128022Y462613D01*
X139337Y459331D01*
X150567Y455774D01*
X161707Y451941D01*
X172750Y447837D01*
X183688Y443462D01*
X194516Y438821D01*
X205226Y433915D01*
X215813Y428748D01*
X226270Y423322D01*
X236591Y417642D01*
X246769Y411710D01*
X256799Y405530D01*
X266674Y399105D01*
X276388Y392441D01*
X285936Y385540D01*
X295311Y378406D01*
X304509Y371045D01*
X313523Y363460D01*
X322348Y355657D01*
X330979Y347639D01*
X339411Y339411D01*
X347639Y330979D01*
X355657Y322348D01*
X363460Y313523D01*
X371045Y304509D01*
X378406Y295311D01*
X385540Y285936D01*
X392441Y276388D01*
X399105Y266674D01*
X405530Y256799D01*
X411710Y246769D01*
X417642Y236591D01*
X423322Y226270D01*
X428748Y215813D01*
X433915Y205226D01*
X438821Y194516D01*
X443462Y183688D01*
X447837Y172750D01*
X451941Y161707D01*
X455774Y150567D01*
X459331Y139337D01*
X462613Y128022D01*
X465615Y116630D01*
X468337Y105169D01*
X470777Y93643D01*
X472933Y82062D01*
X474805Y70431D01*
X476390Y58757D01*
X477689Y47048D01*
X478699Y35311D01*
X479422Y23552D01*
X479855Y11780D01*
X480000Y0D01*
X479855Y-11780D01*
X479422Y-23552D01*
X478699Y-35311D01*
X477689Y-47048D01*
X476390Y-58757D01*
X474805Y-70431D01*
X472933Y-82062D01*
X470777Y-93643D01*
X468337Y-105169D01*
X465615Y-116630D01*
X462613Y-128022D01*
X459331Y-139337D01*
X455774Y-150567D01*
X451941Y-161707D01*
X447837Y-172750D01*
X443462Y-183688D01*
X438821Y-194516D01*
X433915Y-205226D01*
X428748Y-215813D01*
X423322Y-226270D01*
X417642Y-236591D01*
X411710Y-246769D01*
X405530Y-256799D01*
X399105Y-266674D01*
X392441Y-276388D01*
X385540Y-285936D01*
X378406Y-295311D01*
X371045Y-304509D01*
X363460Y-313523D01*
X355657Y-322348D01*
X347639Y-330979D01*
X339411Y-339411D01*
X330979Y-347639D01*
X322348Y-355657D01*
X313523Y-363460D01*
X304509Y-371045D01*
X295311Y-378406D01*
X285936Y-385540D01*
X276388Y-392441D01*
X266674Y-399105D01*
X256799Y-405530D01*
X246769Y-411710D01*
X236591Y-417642D01*
X226270Y-423322D01*
X215813Y-428748D01*
X205226Y-433915D01*
X194516Y-438821D01*
X183688Y-443462D01*
X172750Y-447837D01*
X161707Y-451941D01*
X150567Y-455774D01*
X139337Y-459331D01*
X128022Y-462613D01*
X116630Y-465615D01*
X105169Y-468337D01*
X93643Y-470777D01*
X82062Y-472933D01*
X70431Y-474805D01*
X58757Y-476390D01*
X47048Y-477689D01*
X35311Y-478699D01*
X23552Y-479422D01*
X11780Y-479855D01*
X0Y-480000D01*
X-11780Y-479855D01*
X-23552Y-479422D01*
X-35311Y-478699D01*
X-47048Y-477689D01*
X-58757Y-476390D01*
X-70431Y-474805D01*
X-82062Y-472933D01*
X-93643Y-470777D01*
X-105169Y-468337D01*
X-116630Y-465615D01*
X-128022Y-462613D01*
X-139337Y-459331D01*
X-150567Y-455774D01*
X-161707Y-451941D01*
X-172750Y-447837D01*
X-183688Y-443462D01*
X-194516Y-438821D01*
X-205226Y-433915D01*
X-215813Y-428748D01*
X-226270Y-423322D01*
X-236591Y-417642D01*
X-246769Y-411710D01*
X-256799Y-405530D01*
X-266674Y-399105D01*
X-276388Y-392441D01*
X-285936Y-385540D01*
X-295311Y-378406D01*
X-304509Y-371045D01*
X-313523Y-363460D01*
X-322348Y-355657D01*
X-330979Y-347639D01*
X-339411Y-339411D01*
X-347639Y-330979D01*
X-355657Y-322348D01*
X-363460Y-313523D01*
X-371045Y-304509D01*
X-378406Y-295311D01*
X-385540Y-285936D01*
X-392441Y-276388D01*
X-399105Y-266674D01*
X-405530Y-256799D01*
X-411710Y-246769D01*
X-417642Y-236591D01*
X-423322Y-226270D01*
X-428748Y-215813D01*
X-433915Y-205226D01*
X-438821Y-194516D01*
X-443462Y-183688D01*
X-447837Y-172750D01*
X-451941Y-161707D01*
X-455774Y-150567D01*
X-459331Y-139337D01*
X-462613Y-128022D01*
X-465615Y-116630D01*
X-468337Y-105169D01*
X-470777Y-93643D01*
X-472933Y-82062D01*
X-474805Y-70431D01*
X-476390Y-58757D01*
X-477689Y-47048D01*
X-478699Y-35311D01*
X-479422Y-23552D01*
X-479855Y-11780D01*
X-480000Y0D01*
D10*
X42860Y-798410D02*
X42860Y-841590D01*
X-2860Y-841590D02*
X-2860Y-798410D01*
X-320Y-844130D02*
X40320Y-844130D01*
X40320Y-795870D02*
X-320Y-795870D01*
X42860Y-841590D02*
X42858Y-841690D01*
X42852Y-841789D01*
X42842Y-841889D01*
X42829Y-841987D01*
X42811Y-842086D01*
X42790Y-842183D01*
X42765Y-842279D01*
X42736Y-842375D01*
X42703Y-842469D01*
X42667Y-842562D01*
X42627Y-842653D01*
X42583Y-842743D01*
X42536Y-842831D01*
X42486Y-842917D01*
X42432Y-843001D01*
X42375Y-843083D01*
X42315Y-843162D01*
X42251Y-843240D01*
X42185Y-843314D01*
X42116Y-843386D01*
X42044Y-843455D01*
X41970Y-843521D01*
X41892Y-843585D01*
X41813Y-843645D01*
X41731Y-843702D01*
X41647Y-843756D01*
X41561Y-843806D01*
X41473Y-843853D01*
X41383Y-843897D01*
X41292Y-843937D01*
X41199Y-843973D01*
X41105Y-844006D01*
X41009Y-844035D01*
X40913Y-844060D01*
X40816Y-844081D01*
X40717Y-844099D01*
X40619Y-844112D01*
X40519Y-844122D01*
X40420Y-844128D01*
X40320Y-844130D01*
X42860Y-798410D02*
X42858Y-798310D01*
X42852Y-798211D01*
X42842Y-798111D01*
X42829Y-798013D01*
X42811Y-797914D01*
X42790Y-797817D01*
X42765Y-797721D01*
X42736Y-797625D01*
X42703Y-797531D01*
X42667Y-797438D01*
X42627Y-797347D01*
X42583Y-797257D01*
X42536Y-797169D01*
X42486Y-797083D01*
X42432Y-796999D01*
X42375Y-796917D01*
X42315Y-796838D01*
X42251Y-796760D01*
X42185Y-796686D01*
X42116Y-796614D01*
X42044Y-796545D01*
X41970Y-796479D01*
X41892Y-796415D01*
X41813Y-796355D01*
X41731Y-796298D01*
X41647Y-796244D01*
X41561Y-796194D01*
X41473Y-796147D01*
X41383Y-796103D01*
X41292Y-796063D01*
X41199Y-796027D01*
X41105Y-795994D01*
X41009Y-795965D01*
X40913Y-795940D01*
X40816Y-795919D01*
X40717Y-795901D01*
X40619Y-795888D01*
X40519Y-795878D01*
X40420Y-795872D01*
X40320Y-795870D01*
X-2860Y-841590D02*
X-2858Y-841690D01*
X-2852Y-841789D01*
X-2842Y-841889D01*
X-2829Y-841987D01*
X-2811Y-842086D01*
X-2790Y-842183D01*
X-2765Y-842279D01*
X-2736Y-842375D01*
X-2703Y-842469D01*
X-2667Y-842562D01*
X-2627Y-842653D01*
X-2583Y-842743D01*
X-2536Y-842831D01*
X-2486Y-842917D01*
X-2432Y-843001D01*
X-2375Y-843083D01*
X-2315Y-843162D01*
X-2251Y-843240D01*
X-2185Y-843314D01*
X-2116Y-843386D01*
X-2044Y-843455D01*
X-1970Y-843521D01*
X-1892Y-843585D01*
X-1813Y-843645D01*
X-1731Y-843702D01*
X-1647Y-843756D01*
X-1561Y-843806D01*
X-1473Y-843853D01*
X-1383Y-843897D01*
X-1292Y-843937D01*
X-1199Y-843973D01*
X-1105Y-844006D01*
X-1009Y-844035D01*
X-913Y-844060D01*
X-816Y-844081D01*
X-717Y-844099D01*
X-619Y-844112D01*
X-519Y-844122D01*
X-420Y-844128D01*
X-320Y-844130D01*
X-2860Y-798410D02*
X-2858Y-798310D01*
X-2852Y-798211D01*
X-2842Y-798111D01*
X-2829Y-798013D01*
X-2811Y-797914D01*
X-2790Y-797817D01*
X-2765Y-797721D01*
X-2736Y-797625D01*
X-2703Y-797531D01*
X-2667Y-797438D01*
X-2627Y-797347D01*
X-2583Y-797257D01*
X-2536Y-797169D01*
X-2486Y-797083D01*
X-2432Y-796999D01*
X-2375Y-796917D01*
X-2315Y-796838D01*
X-2251Y-796760D01*
X-2185Y-796686D01*
X-2116Y-796614D01*
X-2044Y-796545D01*
X-1970Y-796479D01*
X-1892Y-796415D01*
X-1813Y-796355D01*
X-1731Y-796298D01*
X-1647Y-796244D01*
X-1561Y-796194D01*
X-1473Y-796147D01*
X-1383Y-796103D01*
X-1292Y-796063D01*
X-1199Y-796027D01*
X-1105Y-795994D01*
X-1009Y-795965D01*
X-913Y-795940D01*
X-816Y-795919D01*
X-717Y-795901D01*
X-619Y-795888D01*
X-519Y-795878D01*
X-420Y-795872D01*
X-320Y-795870D01*
X20000Y-822540D02*
X20000Y-823810D01*
D12*
X20000Y-822540D02*
X27620Y-822540D01*
X20000Y-822540D02*
X12380Y-822540D01*
X20000Y-817460D02*
X27620Y-817460D01*
X20000Y-817460D02*
X12380Y-817460D01*
D10*
X20000Y-817460D02*
X20000Y-816190D01*
D13*
X57465Y-811147D02*
X57465Y-808607D01*
X57465Y-811147D02*
X57463Y-811247D01*
X57457Y-811346D01*
X57447Y-811446D01*
X57434Y-811544D01*
X57416Y-811643D01*
X57395Y-811740D01*
X57370Y-811836D01*
X57341Y-811932D01*
X57308Y-812026D01*
X57272Y-812119D01*
X57232Y-812210D01*
X57188Y-812300D01*
X57141Y-812388D01*
X57091Y-812474D01*
X57037Y-812558D01*
X56980Y-812640D01*
X56920Y-812719D01*
X56856Y-812797D01*
X56790Y-812871D01*
X56721Y-812943D01*
X56649Y-813012D01*
X56575Y-813078D01*
X56497Y-813142D01*
X56418Y-813202D01*
X56336Y-813259D01*
X56252Y-813313D01*
X56166Y-813363D01*
X56078Y-813410D01*
X55988Y-813454D01*
X55897Y-813494D01*
X55804Y-813530D01*
X55710Y-813563D01*
X55614Y-813592D01*
X55518Y-813617D01*
X55421Y-813638D01*
X55322Y-813656D01*
X55224Y-813669D01*
X55124Y-813679D01*
X55025Y-813685D01*
X54925Y-813687D01*
X48575Y-813687D01*
X48475Y-813685D01*
X48376Y-813679D01*
X48276Y-813669D01*
X48178Y-813656D01*
X48079Y-813638D01*
X47982Y-813617D01*
X47886Y-813592D01*
X47790Y-813563D01*
X47696Y-813530D01*
X47603Y-813494D01*
X47512Y-813454D01*
X47422Y-813410D01*
X47334Y-813363D01*
X47248Y-813313D01*
X47164Y-813259D01*
X47082Y-813202D01*
X47003Y-813142D01*
X46925Y-813078D01*
X46851Y-813012D01*
X46779Y-812943D01*
X46710Y-812871D01*
X46644Y-812797D01*
X46580Y-812719D01*
X46520Y-812640D01*
X46463Y-812558D01*
X46409Y-812474D01*
X46359Y-812388D01*
X46312Y-812300D01*
X46268Y-812210D01*
X46228Y-812119D01*
X46192Y-812026D01*
X46159Y-811932D01*
X46130Y-811836D01*
X46105Y-811740D01*
X46084Y-811643D01*
X46066Y-811544D01*
X46053Y-811446D01*
X46043Y-811346D01*
X46037Y-811247D01*
X46035Y-811147D01*
X46035Y-808607D01*
X48575Y-804125D02*
X46035Y-800950D01*
X57465Y-800950D01*
X57465Y-804125D02*
X57465Y-797775D01*
D10*
X-107300Y-798410D02*
X-107300Y-841590D01*
X-132700Y-841590D02*
X-132700Y-798410D01*
X-130160Y-844130D02*
X-109840Y-844130D01*
X-109840Y-795870D02*
X-130160Y-795870D01*
X-107300Y-841590D02*
X-107302Y-841690D01*
X-107308Y-841789D01*
X-107318Y-841889D01*
X-107331Y-841987D01*
X-107349Y-842086D01*
X-107370Y-842183D01*
X-107395Y-842279D01*
X-107424Y-842375D01*
X-107457Y-842469D01*
X-107493Y-842562D01*
X-107533Y-842653D01*
X-107577Y-842743D01*
X-107624Y-842831D01*
X-107674Y-842917D01*
X-107728Y-843001D01*
X-107785Y-843083D01*
X-107845Y-843162D01*
X-107909Y-843240D01*
X-107975Y-843314D01*
X-108044Y-843386D01*
X-108116Y-843455D01*
X-108190Y-843521D01*
X-108268Y-843585D01*
X-108347Y-843645D01*
X-108429Y-843702D01*
X-108513Y-843756D01*
X-108599Y-843806D01*
X-108687Y-843853D01*
X-108777Y-843897D01*
X-108868Y-843937D01*
X-108961Y-843973D01*
X-109055Y-844006D01*
X-109151Y-844035D01*
X-109247Y-844060D01*
X-109344Y-844081D01*
X-109443Y-844099D01*
X-109541Y-844112D01*
X-109641Y-844122D01*
X-109740Y-844128D01*
X-109840Y-844130D01*
X-107300Y-798410D02*
X-107302Y-798310D01*
X-107308Y-798211D01*
X-107318Y-798111D01*
X-107331Y-798013D01*
X-107349Y-797914D01*
X-107370Y-797817D01*
X-107395Y-797721D01*
X-107424Y-797625D01*
X-107457Y-797531D01*
X-107493Y-797438D01*
X-107533Y-797347D01*
X-107577Y-797257D01*
X-107624Y-797169D01*
X-107674Y-797083D01*
X-107728Y-796999D01*
X-107785Y-796917D01*
X-107845Y-796838D01*
X-107909Y-796760D01*
X-107975Y-796686D01*
X-108044Y-796614D01*
X-108116Y-796545D01*
X-108190Y-796479D01*
X-108268Y-796415D01*
X-108347Y-796355D01*
X-108429Y-796298D01*
X-108513Y-796244D01*
X-108599Y-796194D01*
X-108687Y-796147D01*
X-108777Y-796103D01*
X-108868Y-796063D01*
X-108961Y-796027D01*
X-109055Y-795994D01*
X-109151Y-795965D01*
X-109247Y-795940D01*
X-109344Y-795919D01*
X-109443Y-795901D01*
X-109541Y-795888D01*
X-109641Y-795878D01*
X-109740Y-795872D01*
X-109840Y-795870D01*
X-132700Y-841590D02*
X-132698Y-841690D01*
X-132692Y-841789D01*
X-132682Y-841889D01*
X-132669Y-841987D01*
X-132651Y-842086D01*
X-132630Y-842183D01*
X-132605Y-842279D01*
X-132576Y-842375D01*
X-132543Y-842469D01*
X-132507Y-842562D01*
X-132467Y-842653D01*
X-132423Y-842743D01*
X-132376Y-842831D01*
X-132326Y-842917D01*
X-132272Y-843001D01*
X-132215Y-843083D01*
X-132155Y-843162D01*
X-132091Y-843240D01*
X-132025Y-843314D01*
X-131956Y-843386D01*
X-131884Y-843455D01*
X-131810Y-843521D01*
X-131732Y-843585D01*
X-131653Y-843645D01*
X-131571Y-843702D01*
X-131487Y-843756D01*
X-131401Y-843806D01*
X-131313Y-843853D01*
X-131223Y-843897D01*
X-131132Y-843937D01*
X-131039Y-843973D01*
X-130945Y-844006D01*
X-130849Y-844035D01*
X-130753Y-844060D01*
X-130656Y-844081D01*
X-130557Y-844099D01*
X-130459Y-844112D01*
X-130359Y-844122D01*
X-130260Y-844128D01*
X-130160Y-844130D01*
X-132700Y-798410D02*
X-132698Y-798310D01*
X-132692Y-798211D01*
X-132682Y-798111D01*
X-132669Y-798013D01*
X-132651Y-797914D01*
X-132630Y-797817D01*
X-132605Y-797721D01*
X-132576Y-797625D01*
X-132543Y-797531D01*
X-132507Y-797438D01*
X-132467Y-797347D01*
X-132423Y-797257D01*
X-132376Y-797169D01*
X-132326Y-797083D01*
X-132272Y-796999D01*
X-132215Y-796917D01*
X-132155Y-796838D01*
X-132091Y-796760D01*
X-132025Y-796686D01*
X-131956Y-796614D01*
X-131884Y-796545D01*
X-131810Y-796479D01*
X-131732Y-796415D01*
X-131653Y-796355D01*
X-131571Y-796298D01*
X-131487Y-796244D01*
X-131401Y-796194D01*
X-131313Y-796147D01*
X-131223Y-796103D01*
X-131132Y-796063D01*
X-131039Y-796027D01*
X-130945Y-795994D01*
X-130849Y-795965D01*
X-130753Y-795940D01*
X-130656Y-795919D01*
X-130557Y-795901D01*
X-130459Y-795888D01*
X-130359Y-795878D01*
X-130260Y-795872D01*
X-130160Y-795870D01*
X-120000Y-822540D02*
X-120000Y-823810D01*
D12*
X-120000Y-822540D02*
X-112380Y-822540D01*
X-120000Y-822540D02*
X-127620Y-822540D01*
X-120000Y-817460D02*
X-112380Y-817460D01*
X-120000Y-817460D02*
X-127620Y-817460D01*
D10*
X-120000Y-817460D02*
X-120000Y-816190D01*
D13*
X-92695Y-811147D02*
X-92695Y-808607D01*
X-92695Y-811147D02*
X-92697Y-811247D01*
X-92703Y-811346D01*
X-92713Y-811446D01*
X-92726Y-811544D01*
X-92744Y-811643D01*
X-92765Y-811740D01*
X-92790Y-811836D01*
X-92819Y-811932D01*
X-92852Y-812026D01*
X-92888Y-812119D01*
X-92928Y-812210D01*
X-92972Y-812300D01*
X-93019Y-812388D01*
X-93069Y-812474D01*
X-93123Y-812558D01*
X-93180Y-812640D01*
X-93240Y-812719D01*
X-93304Y-812797D01*
X-93370Y-812871D01*
X-93439Y-812943D01*
X-93511Y-813012D01*
X-93585Y-813078D01*
X-93663Y-813142D01*
X-93742Y-813202D01*
X-93824Y-813259D01*
X-93908Y-813313D01*
X-93994Y-813363D01*
X-94082Y-813410D01*
X-94172Y-813454D01*
X-94263Y-813494D01*
X-94356Y-813530D01*
X-94450Y-813563D01*
X-94546Y-813592D01*
X-94642Y-813617D01*
X-94739Y-813638D01*
X-94838Y-813656D01*
X-94936Y-813669D01*
X-95036Y-813679D01*
X-95135Y-813685D01*
X-95235Y-813687D01*
X-101585Y-813687D01*
X-101685Y-813685D01*
X-101784Y-813679D01*
X-101884Y-813669D01*
X-101982Y-813656D01*
X-102081Y-813638D01*
X-102178Y-813617D01*
X-102274Y-813592D01*
X-102370Y-813563D01*
X-102464Y-813530D01*
X-102557Y-813494D01*
X-102648Y-813454D01*
X-102738Y-813410D01*
X-102826Y-813363D01*
X-102912Y-813313D01*
X-102996Y-813259D01*
X-103078Y-813202D01*
X-103157Y-813142D01*
X-103235Y-813078D01*
X-103309Y-813012D01*
X-103381Y-812943D01*
X-103450Y-812871D01*
X-103516Y-812797D01*
X-103580Y-812719D01*
X-103640Y-812640D01*
X-103697Y-812558D01*
X-103751Y-812474D01*
X-103801Y-812388D01*
X-103848Y-812300D01*
X-103892Y-812210D01*
X-103932Y-812119D01*
X-103968Y-812026D01*
X-104001Y-811932D01*
X-104030Y-811836D01*
X-104055Y-811740D01*
X-104076Y-811643D01*
X-104094Y-811544D01*
X-104107Y-811446D01*
X-104117Y-811346D01*
X-104123Y-811247D01*
X-104125Y-811147D01*
X-104125Y-808607D01*
X-104126Y-800633D02*
X-104124Y-800529D01*
X-104118Y-800424D01*
X-104109Y-800320D01*
X-104096Y-800217D01*
X-104078Y-800114D01*
X-104058Y-800012D01*
X-104033Y-799910D01*
X-104005Y-799810D01*
X-103973Y-799710D01*
X-103937Y-799612D01*
X-103898Y-799515D01*
X-103856Y-799420D01*
X-103810Y-799326D01*
X-103760Y-799234D01*
X-103708Y-799144D01*
X-103652Y-799056D01*
X-103592Y-798970D01*
X-103530Y-798886D01*
X-103465Y-798805D01*
X-103397Y-798726D01*
X-103325Y-798649D01*
X-103252Y-798576D01*
X-103175Y-798504D01*
X-103096Y-798436D01*
X-103015Y-798371D01*
X-102931Y-798309D01*
X-102845Y-798249D01*
X-102757Y-798193D01*
X-102667Y-798141D01*
X-102575Y-798091D01*
X-102481Y-798045D01*
X-102386Y-798003D01*
X-102289Y-797964D01*
X-102191Y-797928D01*
X-102091Y-797896D01*
X-101991Y-797868D01*
X-101889Y-797843D01*
X-101787Y-797823D01*
X-101684Y-797805D01*
X-101581Y-797792D01*
X-101477Y-797783D01*
X-101372Y-797777D01*
X-101268Y-797775D01*
X-104125Y-800633D02*
X-104123Y-800751D01*
X-104117Y-800870D01*
X-104108Y-800988D01*
X-104095Y-801105D01*
X-104077Y-801222D01*
X-104057Y-801339D01*
X-104032Y-801455D01*
X-104004Y-801570D01*
X-103971Y-801683D01*
X-103936Y-801796D01*
X-103896Y-801908D01*
X-103854Y-802018D01*
X-103807Y-802127D01*
X-103757Y-802235D01*
X-103704Y-802340D01*
X-103647Y-802444D01*
X-103587Y-802546D01*
X-103524Y-802646D01*
X-103457Y-802744D01*
X-103388Y-802840D01*
X-103315Y-802933D01*
X-103239Y-803024D01*
X-103161Y-803113D01*
X-103079Y-803199D01*
X-102995Y-803282D01*
X-102909Y-803363D01*
X-102819Y-803440D01*
X-102728Y-803515D01*
X-102634Y-803587D01*
X-102537Y-803656D01*
X-102439Y-803721D01*
X-102338Y-803784D01*
X-102235Y-803843D01*
X-102131Y-803899D01*
X-102025Y-803951D01*
X-101917Y-804000D01*
X-101808Y-804045D01*
X-101697Y-804087D01*
X-101585Y-804125D01*
X-99046Y-798727D02*
X-99121Y-798651D01*
X-99200Y-798576D01*
X-99281Y-798505D01*
X-99365Y-798436D01*
X-99451Y-798371D01*
X-99539Y-798309D01*
X-99629Y-798249D01*
X-99721Y-798193D01*
X-99816Y-798140D01*
X-99912Y-798091D01*
X-100010Y-798045D01*
X-100109Y-798002D01*
X-100210Y-797963D01*
X-100312Y-797928D01*
X-100415Y-797896D01*
X-100519Y-797868D01*
X-100624Y-797843D01*
X-100731Y-797822D01*
X-100837Y-797805D01*
X-100944Y-797792D01*
X-101052Y-797783D01*
X-101160Y-797777D01*
X-101268Y-797775D01*
X-99045Y-798728D02*
X-92695Y-804125D01*
X-92695Y-797775D01*
D10*
X-536727Y705312D02*
X-527747Y714293D01*
X-536727Y705312D02*
X-545707Y705312D01*
X-554688Y714293D02*
X-554688Y723273D01*
X-545707Y705312D02*
X-545707Y696332D01*
X-554688Y687352D01*
X-563668Y687352D01*
X-572648Y696332D02*
X-572648Y705312D01*
X-563668Y714293D01*
X-554688Y714293D01*
X-536727Y732253D02*
X-527747Y723273D01*
X-527747Y714293D01*
X-536727Y732253D02*
X-545707Y732253D01*
X-554688Y723273D01*
X-563668Y687352D02*
X-563668Y678372D01*
X-572648Y669391D01*
X-581628Y669391D01*
X-590609Y678372D02*
X-590609Y687352D01*
X-581628Y696332D01*
X-572648Y696332D01*
X-581628Y660411D02*
X-590609Y651431D01*
X-599589Y651431D01*
X-608569Y660411D02*
X-608569Y669391D01*
X-599589Y651431D02*
X-599589Y642451D01*
X-608569Y633470D01*
X-617549Y633470D01*
X-626530Y642451D02*
X-626530Y651431D01*
X-617549Y660411D01*
X-608569Y660411D01*
X-581628Y660411D02*
X-581628Y669391D01*
X-590609Y678372D02*
X-599589Y678372D01*
X-608569Y669391D01*
X-617549Y633470D02*
X-617549Y624490D01*
X-626530Y615510D01*
X-635510Y615510D01*
X-644490Y624490D02*
X-644490Y633470D01*
X-635510Y642451D01*
X-626530Y642451D01*
X-635510Y606530D02*
X-644490Y597549D01*
X-653470Y597549D01*
X-662451Y606530D02*
X-662451Y615510D01*
X-653470Y597549D02*
X-653470Y588569D01*
X-662451Y579589D01*
X-671431Y579589D01*
X-680411Y588569D02*
X-680411Y597549D01*
X-671431Y606530D01*
X-662451Y606530D01*
X-635510Y606530D02*
X-635510Y615510D01*
X-644490Y624490D02*
X-653470Y624490D01*
X-662451Y615510D01*
X-671431Y579589D02*
X-671431Y570609D01*
X-680411Y561628D01*
X-689391Y561628D01*
X-698372Y570609D02*
X-698372Y579589D01*
X-689391Y588569D01*
X-680411Y588569D01*
X-689391Y552648D02*
X-698372Y543668D01*
X-707352Y543668D01*
X-716332Y552648D02*
X-716332Y561628D01*
X-707352Y543668D02*
X-707352Y534688D01*
X-716332Y525707D01*
X-725312Y525707D01*
X-734293Y534688D02*
X-734293Y543668D01*
X-725312Y552648D01*
X-716332Y552648D01*
X-689391Y552648D02*
X-689391Y561628D01*
X-698372Y570609D02*
X-707352Y570609D01*
X-716332Y561628D01*
X-725312Y525707D02*
X-725312Y516727D01*
X-734293Y507747D01*
X-743273Y507747D01*
X-752253Y516727D02*
X-752253Y525707D01*
X-743273Y534688D01*
X-734293Y534688D01*
X-752253Y516727D02*
X-743273Y507747D01*
D13*
X-561872Y734947D02*
X-561423Y738988D01*
X-553340Y730906D01*
X-551095Y733151D02*
X-555586Y728661D01*
X-732946Y502808D02*
X-733395Y498766D01*
X-732946Y502808D02*
X-724863Y494725D01*
X-727108Y492480D02*
X-722618Y496970D01*
X-720597Y511115D02*
X-720674Y511189D01*
X-720754Y511260D01*
X-720836Y511329D01*
X-720921Y511394D01*
X-721008Y511455D01*
X-721097Y511514D01*
X-721189Y511569D01*
X-721283Y511621D01*
X-721378Y511669D01*
X-721475Y511714D01*
X-721574Y511754D01*
X-721674Y511792D01*
X-721776Y511825D01*
X-721878Y511855D01*
X-721982Y511880D01*
X-722087Y511902D01*
X-722192Y511920D01*
X-722298Y511934D01*
X-722404Y511944D01*
X-722511Y511950D01*
X-722618Y511952D01*
X-722725Y511950D01*
X-722832Y511944D01*
X-722938Y511934D01*
X-723044Y511920D01*
X-723149Y511902D01*
X-723254Y511880D01*
X-723358Y511855D01*
X-723460Y511825D01*
X-723562Y511792D01*
X-723662Y511754D01*
X-723761Y511714D01*
X-723858Y511669D01*
X-723953Y511621D01*
X-724047Y511569D01*
X-724139Y511514D01*
X-724228Y511455D01*
X-724315Y511394D01*
X-724400Y511329D01*
X-724482Y511260D01*
X-724562Y511189D01*
X-724639Y511115D01*
X-724639Y511114D02*
X-724721Y511029D01*
X-724801Y510941D01*
X-724877Y510851D01*
X-724951Y510758D01*
X-725022Y510663D01*
X-725089Y510566D01*
X-725154Y510467D01*
X-725215Y510366D01*
X-725273Y510262D01*
X-725328Y510157D01*
X-725379Y510051D01*
X-725426Y509942D01*
X-725471Y509832D01*
X-725511Y509721D01*
X-725548Y509609D01*
X-725582Y509495D01*
X-725611Y509381D01*
X-725637Y509265D01*
X-725659Y509149D01*
X-725678Y509032D01*
X-725693Y508915D01*
X-725703Y508797D01*
X-725710Y508678D01*
X-725714Y508560D01*
X-725713Y508442D01*
X-725709Y508323D01*
X-725701Y508205D01*
X-725689Y508088D01*
X-725673Y507970D01*
X-725653Y507854D01*
X-725630Y507737D01*
X-725603Y507622D01*
X-725572Y507508D01*
X-725538Y507395D01*
X-725500Y507283D01*
X-725458Y507172D01*
X-725413Y507062D01*
X-725364Y506954D01*
X-725312Y506848D01*
X-719700Y508869D02*
X-719699Y508977D01*
X-719702Y509085D01*
X-719709Y509193D01*
X-719720Y509301D01*
X-719734Y509408D01*
X-719752Y509514D01*
X-719774Y509620D01*
X-719800Y509725D01*
X-719829Y509829D01*
X-719862Y509932D01*
X-719899Y510033D01*
X-719939Y510134D01*
X-719983Y510233D01*
X-720030Y510330D01*
X-720080Y510425D01*
X-720134Y510519D01*
X-720191Y510611D01*
X-720251Y510700D01*
X-720315Y510788D01*
X-720381Y510873D01*
X-720451Y510956D01*
X-720523Y511036D01*
X-720598Y511114D01*
X-719700Y508869D02*
X-719026Y500563D01*
X-714536Y505053D01*
X-529274Y688520D02*
X-529205Y688592D01*
X-529139Y688666D01*
X-529075Y688744D01*
X-529015Y688823D01*
X-528958Y688905D01*
X-528904Y688989D01*
X-528854Y689075D01*
X-528807Y689163D01*
X-528763Y689253D01*
X-528723Y689344D01*
X-528687Y689437D01*
X-528654Y689531D01*
X-528625Y689627D01*
X-528600Y689723D01*
X-528579Y689821D01*
X-528561Y689919D01*
X-528548Y690017D01*
X-528538Y690117D01*
X-528532Y690216D01*
X-528530Y690316D01*
X-528532Y690416D01*
X-528538Y690515D01*
X-528548Y690615D01*
X-528561Y690713D01*
X-528579Y690812D01*
X-528600Y690909D01*
X-528625Y691005D01*
X-528654Y691101D01*
X-528687Y691195D01*
X-528723Y691288D01*
X-528763Y691379D01*
X-528807Y691469D01*
X-528854Y691557D01*
X-528904Y691643D01*
X-528958Y691727D01*
X-529015Y691809D01*
X-529075Y691888D01*
X-529139Y691966D01*
X-529205Y692040D01*
X-529274Y692112D01*
X-529274Y688520D02*
X-529375Y688421D01*
X-529479Y688325D01*
X-529585Y688232D01*
X-529694Y688142D01*
X-529805Y688054D01*
X-529918Y687970D01*
X-530033Y687889D01*
X-530151Y687810D01*
X-530270Y687735D01*
X-530392Y687663D01*
X-530515Y687594D01*
X-530640Y687529D01*
X-530767Y687466D01*
X-530895Y687408D01*
X-531025Y687352D01*
X-531157Y687300D01*
X-531289Y687251D01*
X-531423Y687206D01*
X-531558Y687165D01*
X-531694Y687127D01*
X-531831Y687093D01*
X-531969Y687062D01*
X-532107Y687035D01*
X-532247Y687011D01*
X-532386Y686991D01*
X-532527Y686975D01*
X-532667Y686963D01*
X-532808Y686954D01*
X-532950Y686949D01*
X-533091Y686948D01*
X-538029Y692336D02*
X-538098Y692408D01*
X-538164Y692482D01*
X-538228Y692560D01*
X-538288Y692639D01*
X-538345Y692721D01*
X-538399Y692805D01*
X-538449Y692891D01*
X-538496Y692979D01*
X-538540Y693069D01*
X-538580Y693160D01*
X-538616Y693253D01*
X-538649Y693347D01*
X-538678Y693443D01*
X-538703Y693539D01*
X-538724Y693636D01*
X-538742Y693735D01*
X-538755Y693833D01*
X-538765Y693933D01*
X-538771Y694032D01*
X-538773Y694132D01*
X-538771Y694232D01*
X-538765Y694331D01*
X-538755Y694431D01*
X-538742Y694529D01*
X-538724Y694628D01*
X-538703Y694725D01*
X-538678Y694821D01*
X-538649Y694917D01*
X-538616Y695011D01*
X-538580Y695104D01*
X-538540Y695195D01*
X-538496Y695285D01*
X-538449Y695373D01*
X-538399Y695459D01*
X-538345Y695543D01*
X-538288Y695625D01*
X-538228Y695704D01*
X-538164Y695782D01*
X-538098Y695856D01*
X-538029Y695928D01*
X-537934Y696021D01*
X-537836Y696111D01*
X-537735Y696199D01*
X-537632Y696283D01*
X-537527Y696365D01*
X-537419Y696444D01*
X-537310Y696519D01*
X-537198Y696592D01*
X-537084Y696661D01*
X-536968Y696727D01*
X-536851Y696790D01*
X-536732Y696850D01*
X-536611Y696906D01*
X-536489Y696959D01*
X-536365Y697008D01*
X-536240Y697054D01*
X-536114Y697096D01*
X-535986Y697135D01*
X-535858Y697170D01*
X-535728Y697202D01*
X-535598Y697230D01*
X-535467Y697254D01*
X-535335Y697275D01*
X-535560Y691663D02*
X-535656Y691640D01*
X-535753Y691621D01*
X-535851Y691605D01*
X-535950Y691594D01*
X-536049Y691586D01*
X-536148Y691582D01*
X-536247Y691581D01*
X-536346Y691585D01*
X-536445Y691592D01*
X-536544Y691603D01*
X-536642Y691618D01*
X-536739Y691637D01*
X-536836Y691659D01*
X-536931Y691685D01*
X-537026Y691715D01*
X-537119Y691749D01*
X-537211Y691785D01*
X-537302Y691826D01*
X-537391Y691870D01*
X-537478Y691917D01*
X-537563Y691968D01*
X-537647Y692022D01*
X-537728Y692079D01*
X-537807Y692139D01*
X-537883Y692202D01*
X-537957Y692268D01*
X-538029Y692336D01*
X-531744Y692786D02*
X-531647Y692809D01*
X-531550Y692828D01*
X-531452Y692844D01*
X-531353Y692855D01*
X-531254Y692863D01*
X-531155Y692867D01*
X-531056Y692868D01*
X-530957Y692864D01*
X-530858Y692857D01*
X-530759Y692846D01*
X-530661Y692831D01*
X-530564Y692812D01*
X-530467Y692790D01*
X-530371Y692764D01*
X-530277Y692734D01*
X-530183Y692700D01*
X-530091Y692663D01*
X-530001Y692623D01*
X-529912Y692579D01*
X-529825Y692532D01*
X-529739Y692481D01*
X-529656Y692427D01*
X-529575Y692370D01*
X-529496Y692310D01*
X-529419Y692247D01*
X-529345Y692181D01*
X-529274Y692112D01*
X-531743Y692785D02*
X-535560Y691663D01*
X-532686Y701271D02*
X-521910Y695883D01*
X-527298Y706660D01*
X-522359Y708007D02*
X-521910Y712048D01*
X-513827Y703966D01*
X-511582Y706211D02*
X-516073Y701720D01*
D14*
X413649Y261337D02*
X418283Y264012D01*
X410758Y250546D02*
X422358Y230454D01*
X433149Y227563D02*
X437783Y230238D01*
D15*
X404292Y253330D02*
X394173Y247488D01*
X393524Y248612D02*
X394822Y246363D01*
X404941Y252205D02*
X403643Y254454D01*
X398404Y240159D02*
X399702Y237911D01*
X398404Y240160D02*
X398356Y240247D01*
X398311Y240336D01*
X398270Y240426D01*
X398232Y240518D01*
X398198Y240612D01*
X398167Y240706D01*
X398140Y240802D01*
X398117Y240899D01*
X398097Y240996D01*
X398082Y241095D01*
X398070Y241193D01*
X398061Y241292D01*
X398057Y241392D01*
X398056Y241491D01*
X398059Y241591D01*
X398066Y241690D01*
X398077Y241789D01*
X398092Y241887D01*
X398110Y241985D01*
X398132Y242082D01*
X398158Y242178D01*
X398187Y242273D01*
X398220Y242367D01*
X398257Y242459D01*
X398297Y242550D01*
X398340Y242640D01*
X398387Y242727D01*
X398438Y242813D01*
X398491Y242897D01*
X398548Y242979D01*
X398608Y243058D01*
X398670Y243135D01*
X398736Y243210D01*
X398805Y243282D01*
X398876Y243351D01*
X398950Y243418D01*
X399026Y243482D01*
X399105Y243542D01*
X399186Y243600D01*
X399269Y243655D01*
X399354Y243706D01*
X404976Y246952D01*
X404976Y246951D02*
X405063Y246999D01*
X405152Y247044D01*
X405242Y247085D01*
X405334Y247123D01*
X405428Y247157D01*
X405522Y247188D01*
X405618Y247215D01*
X405715Y247238D01*
X405812Y247258D01*
X405911Y247273D01*
X406009Y247285D01*
X406108Y247294D01*
X406208Y247298D01*
X406307Y247299D01*
X406407Y247296D01*
X406506Y247289D01*
X406605Y247278D01*
X406703Y247263D01*
X406801Y247245D01*
X406898Y247223D01*
X406994Y247197D01*
X407089Y247168D01*
X407183Y247135D01*
X407275Y247098D01*
X407366Y247058D01*
X407455Y247015D01*
X407543Y246968D01*
X407629Y246917D01*
X407713Y246864D01*
X407794Y246807D01*
X407874Y246747D01*
X407951Y246685D01*
X408026Y246619D01*
X408098Y246550D01*
X408167Y246479D01*
X408234Y246405D01*
X408298Y246329D01*
X408358Y246250D01*
X408416Y246169D01*
X408471Y246086D01*
X408522Y246001D01*
X409821Y243753D01*
X413789Y236880D02*
X413840Y236787D01*
X413889Y236692D01*
X413933Y236595D01*
X413974Y236497D01*
X414012Y236397D01*
X414046Y236296D01*
X414076Y236193D01*
X414102Y236090D01*
X414125Y235985D01*
X414143Y235880D01*
X414158Y235775D01*
X414169Y235669D01*
X414177Y235562D01*
X414180Y235456D01*
X414179Y235349D01*
X414175Y235242D01*
X414166Y235136D01*
X414154Y235030D01*
X414138Y234924D01*
X414118Y234820D01*
X414094Y234716D01*
X414066Y234613D01*
X414035Y234511D01*
X414000Y234410D01*
X413961Y234310D01*
X413919Y234212D01*
X413873Y234116D01*
X413823Y234022D01*
X413771Y233929D01*
X413715Y233838D01*
X413655Y233749D01*
X413593Y233663D01*
X413527Y233579D01*
X413458Y233497D01*
X413386Y233418D01*
X413312Y233342D01*
X413235Y233268D01*
X413155Y233198D01*
X413072Y233130D01*
X412987Y233065D01*
X412900Y233004D01*
X412811Y232945D01*
X412720Y232890D01*
X413789Y236880D02*
X413727Y236984D01*
X413662Y237086D01*
X413593Y237186D01*
X413521Y237283D01*
X413446Y237378D01*
X413368Y237470D01*
X413287Y237560D01*
X413203Y237648D01*
X413116Y237732D01*
X413027Y237814D01*
X412935Y237893D01*
X412841Y237968D01*
X412744Y238041D01*
X412645Y238110D01*
X412544Y238177D01*
X412440Y238240D01*
X412335Y238299D01*
X412228Y238356D01*
X412119Y238408D01*
X412008Y238457D01*
X411896Y238503D01*
X411783Y238545D01*
X411668Y238583D01*
X411552Y238618D01*
X411435Y238649D01*
X411317Y238675D01*
X411198Y238699D01*
X411079Y238718D01*
X410959Y238733D01*
X410838Y238745D01*
X410717Y238753D01*
X410596Y238757D01*
X410475Y238756D01*
X410355Y238752D01*
X410234Y238745D01*
X410113Y238733D01*
X409993Y238717D01*
X409874Y238698D01*
X409755Y238674D01*
X410265Y232599D02*
X410371Y232569D01*
X410478Y232544D01*
X410587Y232522D01*
X410696Y232504D01*
X410805Y232490D01*
X410915Y232480D01*
X411025Y232473D01*
X411136Y232471D01*
X411246Y232472D01*
X411357Y232478D01*
X411467Y232487D01*
X411576Y232500D01*
X411685Y232517D01*
X411794Y232538D01*
X411902Y232562D01*
X412008Y232591D01*
X412114Y232623D01*
X412219Y232659D01*
X412322Y232698D01*
X412423Y232741D01*
X412523Y232788D01*
X412622Y232838D01*
X412719Y232891D01*
X410265Y232598D02*
X401885Y234130D01*
X405130Y228509D01*
D14*
X227563Y433149D02*
X230238Y437783D01*
X230454Y422358D02*
X250546Y410758D01*
X261337Y413649D02*
X264012Y418283D01*
D15*
X223462Y421535D02*
X217620Y411417D01*
X216496Y412066D02*
X218745Y410768D01*
X224587Y420886D02*
X222338Y422185D01*
X224948Y407186D02*
X227197Y405888D01*
X224949Y407186D02*
X224864Y407237D01*
X224781Y407292D01*
X224700Y407349D01*
X224621Y407410D01*
X224545Y407474D01*
X224471Y407541D01*
X224400Y407610D01*
X224331Y407682D01*
X224265Y407757D01*
X224203Y407834D01*
X224143Y407913D01*
X224086Y407995D01*
X224033Y408079D01*
X223982Y408165D01*
X223935Y408253D01*
X223892Y408342D01*
X223852Y408433D01*
X223815Y408525D01*
X223782Y408619D01*
X223753Y408714D01*
X223727Y408810D01*
X223705Y408907D01*
X223687Y409005D01*
X223672Y409103D01*
X223661Y409202D01*
X223654Y409301D01*
X223651Y409401D01*
X223652Y409500D01*
X223656Y409600D01*
X223665Y409699D01*
X223677Y409798D01*
X223692Y409896D01*
X223712Y409993D01*
X223735Y410090D01*
X223762Y410186D01*
X223793Y410280D01*
X223827Y410374D01*
X223865Y410466D01*
X223906Y410556D01*
X223951Y410645D01*
X223999Y410732D01*
X223998Y410733D02*
X227244Y416354D01*
X227295Y416439D01*
X227350Y416522D01*
X227407Y416603D01*
X227468Y416682D01*
X227532Y416758D01*
X227599Y416832D01*
X227668Y416903D01*
X227740Y416972D01*
X227815Y417038D01*
X227892Y417100D01*
X227971Y417160D01*
X228053Y417217D01*
X228137Y417270D01*
X228223Y417321D01*
X228310Y417368D01*
X228400Y417411D01*
X228491Y417451D01*
X228583Y417488D01*
X228677Y417521D01*
X228772Y417550D01*
X228868Y417576D01*
X228965Y417598D01*
X229063Y417616D01*
X229161Y417631D01*
X229260Y417642D01*
X229359Y417649D01*
X229459Y417652D01*
X229558Y417651D01*
X229658Y417647D01*
X229757Y417638D01*
X229855Y417626D01*
X229954Y417611D01*
X230051Y417591D01*
X230148Y417568D01*
X230244Y417541D01*
X230338Y417510D01*
X230432Y417476D01*
X230524Y417438D01*
X230614Y417397D01*
X230703Y417352D01*
X230790Y417304D01*
X230790Y417305D02*
X233039Y416006D01*
X230977Y403705D02*
X233788Y402082D01*
X233887Y402027D01*
X233988Y401976D01*
X234091Y401928D01*
X234195Y401883D01*
X234301Y401843D01*
X234408Y401806D01*
X234516Y401773D01*
X234626Y401743D01*
X234736Y401718D01*
X234847Y401696D01*
X234959Y401679D01*
X235072Y401665D01*
X235185Y401655D01*
X235298Y401649D01*
X235411Y401647D01*
X235524Y401649D01*
X235637Y401655D01*
X235750Y401665D01*
X235863Y401679D01*
X235975Y401696D01*
X236086Y401718D01*
X236196Y401743D01*
X236306Y401773D01*
X236414Y401806D01*
X236521Y401843D01*
X236627Y401883D01*
X236731Y401928D01*
X236834Y401976D01*
X236935Y402027D01*
X237034Y402082D01*
X237131Y402140D01*
X237226Y402202D01*
X237319Y402267D01*
X237409Y402335D01*
X237497Y402406D01*
X237583Y402481D01*
X237666Y402558D01*
X237746Y402638D01*
X237823Y402721D01*
X237898Y402807D01*
X237969Y402895D01*
X238037Y402985D01*
X238102Y403078D01*
X238164Y403173D01*
X238222Y403270D01*
X238277Y403369D01*
X238328Y403470D01*
X238376Y403573D01*
X238421Y403677D01*
X238461Y403783D01*
X238498Y403890D01*
X238531Y403998D01*
X238561Y404108D01*
X238586Y404218D01*
X238608Y404329D01*
X238625Y404441D01*
X238639Y404554D01*
X238649Y404667D01*
X238655Y404780D01*
X238657Y404893D01*
X238655Y405006D01*
X238649Y405119D01*
X238639Y405232D01*
X238625Y405345D01*
X238608Y405457D01*
X238586Y405568D01*
X238561Y405678D01*
X238531Y405788D01*
X238498Y405896D01*
X238461Y406003D01*
X238421Y406109D01*
X238376Y406213D01*
X238328Y406316D01*
X238277Y406417D01*
X238222Y406516D01*
X238164Y406613D01*
X238102Y406708D01*
X238037Y406801D01*
X237969Y406891D01*
X237898Y406979D01*
X237823Y407065D01*
X237746Y407148D01*
X237666Y407228D01*
X237583Y407305D01*
X237497Y407380D01*
X237409Y407451D01*
X237319Y407519D01*
X237226Y407584D01*
X237131Y407646D01*
X237034Y407704D01*
X240192Y411876D02*
X236819Y413824D01*
X240193Y411877D02*
X240279Y411825D01*
X240363Y411770D01*
X240445Y411711D01*
X240524Y411649D01*
X240602Y411585D01*
X240676Y411517D01*
X240748Y411446D01*
X240817Y411373D01*
X240883Y411297D01*
X240947Y411219D01*
X241007Y411138D01*
X241064Y411055D01*
X241117Y410970D01*
X241168Y410883D01*
X241215Y410794D01*
X241258Y410703D01*
X241298Y410610D01*
X241334Y410516D01*
X241367Y410421D01*
X241396Y410324D01*
X241421Y410227D01*
X241442Y410128D01*
X241460Y410029D01*
X241473Y409929D01*
X241483Y409829D01*
X241489Y409729D01*
X241491Y409628D01*
X241489Y409527D01*
X241483Y409427D01*
X241473Y409327D01*
X241460Y409227D01*
X241442Y409128D01*
X241421Y409029D01*
X241396Y408932D01*
X241367Y408835D01*
X241334Y408740D01*
X241298Y408646D01*
X241258Y408553D01*
X241215Y408462D01*
X241168Y408373D01*
X241117Y408286D01*
X241064Y408201D01*
X241007Y408118D01*
X240947Y408037D01*
X240883Y407959D01*
X240817Y407883D01*
X240748Y407810D01*
X240676Y407739D01*
X240602Y407671D01*
X240524Y407607D01*
X240445Y407545D01*
X240363Y407486D01*
X240279Y407431D01*
X240193Y407379D01*
X240104Y407330D01*
X240014Y407285D01*
X239923Y407243D01*
X239829Y407205D01*
X239735Y407171D01*
X239639Y407140D01*
X239542Y407113D01*
X239444Y407090D01*
X239345Y407070D01*
X239245Y407055D01*
X239145Y407043D01*
X239045Y407035D01*
X238944Y407031D01*
X238844Y407031D01*
X238743Y407035D01*
X238643Y407043D01*
X238543Y407055D01*
X238443Y407070D01*
X238344Y407090D01*
X238246Y407113D01*
X238149Y407140D01*
X238053Y407171D01*
X237959Y407205D01*
X237865Y407243D01*
X237774Y407285D01*
X237684Y407330D01*
X237596Y407379D01*
X235347Y408677D01*
D14*
X-19500Y488900D02*
X-19500Y494250D01*
X-11600Y481000D02*
X11600Y481000D01*
X19500Y488900D02*
X19500Y494250D01*
D15*
X-17244Y476792D02*
X-17244Y465108D01*
X-18542Y465108D02*
X-15946Y465108D01*
X-15946Y476792D02*
X-18542Y476792D01*
X-8782Y465108D02*
X-6186Y465108D01*
X-8782Y465108D02*
X-8881Y465110D01*
X-8981Y465116D01*
X-9080Y465125D01*
X-9178Y465138D01*
X-9276Y465155D01*
X-9374Y465176D01*
X-9470Y465201D01*
X-9565Y465229D01*
X-9659Y465261D01*
X-9752Y465296D01*
X-9844Y465335D01*
X-9934Y465378D01*
X-10022Y465423D01*
X-10109Y465473D01*
X-10193Y465525D01*
X-10276Y465581D01*
X-10356Y465639D01*
X-10434Y465701D01*
X-10509Y465766D01*
X-10582Y465834D01*
X-10652Y465904D01*
X-10720Y465977D01*
X-10785Y466052D01*
X-10847Y466130D01*
X-10905Y466210D01*
X-10961Y466293D01*
X-11013Y466377D01*
X-11063Y466464D01*
X-11108Y466552D01*
X-11151Y466642D01*
X-11190Y466734D01*
X-11225Y466827D01*
X-11257Y466921D01*
X-11285Y467016D01*
X-11310Y467112D01*
X-11331Y467210D01*
X-11348Y467308D01*
X-11361Y467406D01*
X-11370Y467505D01*
X-11376Y467605D01*
X-11378Y467704D01*
X-11379Y467704D02*
X-11379Y474196D01*
X-11378Y474196D02*
X-11376Y474295D01*
X-11370Y474395D01*
X-11361Y474494D01*
X-11348Y474592D01*
X-11331Y474690D01*
X-11310Y474788D01*
X-11285Y474884D01*
X-11257Y474979D01*
X-11225Y475073D01*
X-11190Y475166D01*
X-11151Y475258D01*
X-11108Y475348D01*
X-11063Y475436D01*
X-11013Y475523D01*
X-10961Y475607D01*
X-10905Y475690D01*
X-10847Y475770D01*
X-10785Y475848D01*
X-10720Y475923D01*
X-10652Y475996D01*
X-10582Y476066D01*
X-10509Y476134D01*
X-10434Y476199D01*
X-10356Y476261D01*
X-10276Y476319D01*
X-10193Y476375D01*
X-10109Y476427D01*
X-10022Y476477D01*
X-9934Y476522D01*
X-9844Y476565D01*
X-9752Y476604D01*
X-9659Y476639D01*
X-9565Y476671D01*
X-9470Y476699D01*
X-9374Y476724D01*
X-9276Y476745D01*
X-9178Y476762D01*
X-9080Y476775D01*
X-8981Y476784D01*
X-8881Y476790D01*
X-8782Y476792D01*
X-6186Y476792D01*
X776Y476792D02*
X-1820Y467704D01*
X4671Y467704D01*
X2723Y465108D02*
X2723Y470301D01*
D14*
X-261337Y413649D02*
X-264012Y418283D01*
X-250546Y410758D02*
X-230454Y422358D01*
X-227563Y433149D02*
X-230238Y437783D01*
D15*
X-253330Y404292D02*
X-247488Y394173D01*
X-248612Y393524D02*
X-246363Y394822D01*
X-252205Y404941D02*
X-254454Y403643D01*
X-240159Y398404D02*
X-237911Y399702D01*
X-240160Y398404D02*
X-240247Y398356D01*
X-240336Y398311D01*
X-240426Y398270D01*
X-240518Y398232D01*
X-240612Y398198D01*
X-240706Y398167D01*
X-240802Y398140D01*
X-240899Y398117D01*
X-240996Y398097D01*
X-241095Y398082D01*
X-241193Y398070D01*
X-241292Y398061D01*
X-241392Y398057D01*
X-241491Y398056D01*
X-241591Y398059D01*
X-241690Y398066D01*
X-241789Y398077D01*
X-241887Y398092D01*
X-241985Y398110D01*
X-242082Y398132D01*
X-242178Y398158D01*
X-242273Y398187D01*
X-242367Y398220D01*
X-242459Y398257D01*
X-242550Y398297D01*
X-242640Y398340D01*
X-242727Y398387D01*
X-242813Y398438D01*
X-242897Y398491D01*
X-242979Y398548D01*
X-243058Y398608D01*
X-243135Y398670D01*
X-243210Y398736D01*
X-243282Y398805D01*
X-243351Y398876D01*
X-243418Y398950D01*
X-243482Y399026D01*
X-243542Y399105D01*
X-243600Y399186D01*
X-243655Y399269D01*
X-243706Y399354D01*
X-246952Y404976D01*
X-246951Y404976D02*
X-246999Y405063D01*
X-247044Y405152D01*
X-247085Y405242D01*
X-247123Y405334D01*
X-247157Y405428D01*
X-247188Y405522D01*
X-247215Y405618D01*
X-247238Y405715D01*
X-247258Y405812D01*
X-247273Y405911D01*
X-247285Y406009D01*
X-247294Y406108D01*
X-247298Y406208D01*
X-247299Y406307D01*
X-247296Y406407D01*
X-247289Y406506D01*
X-247278Y406605D01*
X-247263Y406703D01*
X-247245Y406801D01*
X-247223Y406898D01*
X-247197Y406994D01*
X-247168Y407089D01*
X-247135Y407183D01*
X-247098Y407275D01*
X-247058Y407366D01*
X-247015Y407455D01*
X-246968Y407543D01*
X-246917Y407629D01*
X-246864Y407713D01*
X-246807Y407794D01*
X-246747Y407874D01*
X-246685Y407951D01*
X-246619Y408026D01*
X-246550Y408098D01*
X-246479Y408167D01*
X-246405Y408234D01*
X-246329Y408298D01*
X-246250Y408358D01*
X-246169Y408416D01*
X-246086Y408471D01*
X-246001Y408522D01*
X-243753Y409821D01*
X-234130Y401885D02*
X-230757Y403832D01*
X-230758Y403833D02*
X-230673Y403884D01*
X-230590Y403939D01*
X-230509Y403996D01*
X-230430Y404057D01*
X-230354Y404121D01*
X-230280Y404188D01*
X-230209Y404257D01*
X-230140Y404329D01*
X-230074Y404404D01*
X-230012Y404481D01*
X-229952Y404560D01*
X-229895Y404642D01*
X-229842Y404726D01*
X-229791Y404812D01*
X-229744Y404899D01*
X-229701Y404989D01*
X-229661Y405080D01*
X-229624Y405172D01*
X-229591Y405266D01*
X-229562Y405361D01*
X-229536Y405457D01*
X-229514Y405554D01*
X-229496Y405652D01*
X-229481Y405750D01*
X-229470Y405849D01*
X-229463Y405948D01*
X-229460Y406048D01*
X-229461Y406147D01*
X-229465Y406247D01*
X-229474Y406346D01*
X-229486Y406444D01*
X-229501Y406543D01*
X-229521Y406640D01*
X-229544Y406737D01*
X-229571Y406833D01*
X-229602Y406927D01*
X-229636Y407021D01*
X-229674Y407113D01*
X-229715Y407203D01*
X-229760Y407292D01*
X-229808Y407379D01*
X-229807Y407379D02*
X-230456Y408503D01*
X-230457Y408503D02*
X-230508Y408588D01*
X-230563Y408671D01*
X-230621Y408752D01*
X-230681Y408831D01*
X-230745Y408907D01*
X-230812Y408981D01*
X-230881Y409052D01*
X-230953Y409121D01*
X-231028Y409187D01*
X-231105Y409249D01*
X-231184Y409309D01*
X-231266Y409366D01*
X-231350Y409419D01*
X-231436Y409470D01*
X-231524Y409517D01*
X-231613Y409560D01*
X-231704Y409600D01*
X-231796Y409637D01*
X-231890Y409670D01*
X-231985Y409699D01*
X-232081Y409725D01*
X-232178Y409747D01*
X-232276Y409765D01*
X-232374Y409780D01*
X-232473Y409791D01*
X-232572Y409798D01*
X-232672Y409801D01*
X-232771Y409800D01*
X-232871Y409796D01*
X-232970Y409787D01*
X-233068Y409775D01*
X-233167Y409760D01*
X-233264Y409740D01*
X-233361Y409717D01*
X-233457Y409690D01*
X-233551Y409659D01*
X-233645Y409625D01*
X-233737Y409587D01*
X-233827Y409546D01*
X-233916Y409501D01*
X-234003Y409453D01*
X-237376Y407506D01*
X-239972Y412003D01*
X-234351Y415249D01*
D14*
X-433149Y227563D02*
X-437783Y230238D01*
X-422358Y230454D02*
X-410758Y250546D01*
X-413649Y261337D02*
X-418283Y264012D01*
D15*
X-421535Y223462D02*
X-411417Y217620D01*
X-412066Y216496D02*
X-410768Y218745D01*
X-420886Y224587D02*
X-422185Y222338D01*
X-407186Y224948D02*
X-405888Y227197D01*
X-407186Y224949D02*
X-407237Y224864D01*
X-407292Y224781D01*
X-407349Y224700D01*
X-407410Y224621D01*
X-407474Y224545D01*
X-407541Y224471D01*
X-407610Y224400D01*
X-407682Y224331D01*
X-407757Y224265D01*
X-407834Y224203D01*
X-407913Y224143D01*
X-407995Y224086D01*
X-408079Y224033D01*
X-408165Y223982D01*
X-408253Y223935D01*
X-408342Y223892D01*
X-408433Y223852D01*
X-408525Y223815D01*
X-408619Y223782D01*
X-408714Y223753D01*
X-408810Y223727D01*
X-408907Y223705D01*
X-409005Y223687D01*
X-409103Y223672D01*
X-409202Y223661D01*
X-409301Y223654D01*
X-409401Y223651D01*
X-409500Y223652D01*
X-409600Y223656D01*
X-409699Y223665D01*
X-409798Y223677D01*
X-409896Y223692D01*
X-409993Y223712D01*
X-410090Y223735D01*
X-410186Y223762D01*
X-410280Y223793D01*
X-410374Y223827D01*
X-410466Y223865D01*
X-410556Y223906D01*
X-410645Y223951D01*
X-410732Y223999D01*
X-410733Y223998D02*
X-416354Y227244D01*
X-416439Y227295D01*
X-416522Y227350D01*
X-416603Y227407D01*
X-416682Y227468D01*
X-416758Y227532D01*
X-416832Y227599D01*
X-416903Y227668D01*
X-416972Y227740D01*
X-417038Y227815D01*
X-417100Y227892D01*
X-417160Y227971D01*
X-417217Y228053D01*
X-417270Y228137D01*
X-417321Y228223D01*
X-417368Y228310D01*
X-417411Y228400D01*
X-417451Y228491D01*
X-417488Y228583D01*
X-417521Y228677D01*
X-417550Y228772D01*
X-417576Y228868D01*
X-417598Y228965D01*
X-417616Y229063D01*
X-417631Y229161D01*
X-417642Y229260D01*
X-417649Y229359D01*
X-417652Y229459D01*
X-417651Y229558D01*
X-417647Y229658D01*
X-417638Y229757D01*
X-417626Y229855D01*
X-417611Y229954D01*
X-417591Y230051D01*
X-417568Y230148D01*
X-417541Y230244D01*
X-417510Y230338D01*
X-417476Y230432D01*
X-417438Y230524D01*
X-417397Y230614D01*
X-417352Y230703D01*
X-417304Y230790D01*
X-417305Y230790D02*
X-416006Y233039D01*
X-409326Y234223D02*
X-407379Y237596D01*
X-407328Y237681D01*
X-407273Y237764D01*
X-407216Y237845D01*
X-407155Y237924D01*
X-407091Y238000D01*
X-407024Y238074D01*
X-406955Y238145D01*
X-406883Y238214D01*
X-406808Y238280D01*
X-406731Y238342D01*
X-406652Y238402D01*
X-406570Y238459D01*
X-406486Y238512D01*
X-406400Y238563D01*
X-406313Y238610D01*
X-406223Y238653D01*
X-406132Y238693D01*
X-406040Y238730D01*
X-405946Y238763D01*
X-405851Y238792D01*
X-405755Y238818D01*
X-405658Y238840D01*
X-405560Y238858D01*
X-405462Y238873D01*
X-405363Y238884D01*
X-405264Y238891D01*
X-405164Y238894D01*
X-405065Y238893D01*
X-404965Y238889D01*
X-404866Y238880D01*
X-404768Y238868D01*
X-404669Y238853D01*
X-404572Y238833D01*
X-404475Y238810D01*
X-404379Y238783D01*
X-404285Y238752D01*
X-404191Y238718D01*
X-404099Y238680D01*
X-404009Y238639D01*
X-403920Y238594D01*
X-403833Y238546D01*
X-403832Y238546D02*
X-403270Y238222D01*
X-403173Y238164D01*
X-403078Y238102D01*
X-402985Y238037D01*
X-402895Y237969D01*
X-402807Y237898D01*
X-402721Y237823D01*
X-402638Y237746D01*
X-402558Y237666D01*
X-402481Y237583D01*
X-402406Y237497D01*
X-402335Y237409D01*
X-402267Y237319D01*
X-402202Y237226D01*
X-402140Y237131D01*
X-402082Y237034D01*
X-402027Y236935D01*
X-401976Y236834D01*
X-401928Y236731D01*
X-401883Y236627D01*
X-401843Y236521D01*
X-401806Y236414D01*
X-401773Y236306D01*
X-401743Y236196D01*
X-401718Y236086D01*
X-401696Y235975D01*
X-401679Y235863D01*
X-401665Y235750D01*
X-401655Y235637D01*
X-401649Y235524D01*
X-401647Y235411D01*
X-401649Y235298D01*
X-401655Y235185D01*
X-401665Y235072D01*
X-401679Y234959D01*
X-401696Y234847D01*
X-401718Y234736D01*
X-401743Y234626D01*
X-401773Y234516D01*
X-401806Y234408D01*
X-401843Y234301D01*
X-401883Y234195D01*
X-401928Y234091D01*
X-401976Y233988D01*
X-402027Y233887D01*
X-402082Y233788D01*
X-402140Y233691D01*
X-402202Y233596D01*
X-402267Y233503D01*
X-402335Y233413D01*
X-402406Y233325D01*
X-402481Y233239D01*
X-402558Y233156D01*
X-402638Y233076D01*
X-402721Y232999D01*
X-402807Y232924D01*
X-402895Y232853D01*
X-402985Y232785D01*
X-403078Y232720D01*
X-403173Y232658D01*
X-403270Y232600D01*
X-403369Y232545D01*
X-403470Y232494D01*
X-403573Y232446D01*
X-403677Y232401D01*
X-403783Y232361D01*
X-403890Y232324D01*
X-403998Y232291D01*
X-404108Y232261D01*
X-404218Y232236D01*
X-404329Y232214D01*
X-404441Y232197D01*
X-404554Y232183D01*
X-404667Y232173D01*
X-404780Y232167D01*
X-404893Y232165D01*
X-405006Y232167D01*
X-405119Y232173D01*
X-405232Y232183D01*
X-405345Y232197D01*
X-405457Y232214D01*
X-405568Y232236D01*
X-405678Y232261D01*
X-405788Y232291D01*
X-405896Y232324D01*
X-406003Y232361D01*
X-406109Y232401D01*
X-406213Y232446D01*
X-406316Y232494D01*
X-406417Y232545D01*
X-406516Y232600D01*
X-409326Y234223D01*
X-409449Y234296D01*
X-409570Y234373D01*
X-409689Y234453D01*
X-409805Y234536D01*
X-409920Y234622D01*
X-410031Y234711D01*
X-410141Y234804D01*
X-410247Y234899D01*
X-410351Y234998D01*
X-410452Y235099D01*
X-410551Y235203D01*
X-410646Y235309D01*
X-410739Y235419D01*
X-410828Y235530D01*
X-410914Y235645D01*
X-410997Y235761D01*
X-411077Y235880D01*
X-411154Y236001D01*
X-411227Y236123D01*
X-411297Y236248D01*
X-411363Y236375D01*
X-411426Y236504D01*
X-411486Y236634D01*
X-411541Y236766D01*
X-411593Y236899D01*
X-411642Y237034D01*
X-411686Y237170D01*
X-411727Y237307D01*
X-411764Y237445D01*
X-411797Y237584D01*
X-411827Y237724D01*
X-411852Y237865D01*
X-411874Y238007D01*
X-411891Y238149D01*
X-411905Y238291D01*
X-411915Y238434D01*
X-411921Y238577D01*
X-411923Y238720D01*
X-411921Y238863D01*
X-411915Y239006D01*
X-411905Y239149D01*
X-411891Y239291D01*
X-411874Y239433D01*
X-411852Y239575D01*
X-411827Y239716D01*
X-411797Y239856D01*
X-411764Y239995D01*
X-411727Y240133D01*
X-411686Y240270D01*
X-411642Y240406D01*
X-411593Y240541D01*
X-411541Y240674D01*
X-411486Y240806D01*
X-411426Y240936D01*
X-411363Y241065D01*
X-411297Y241192D01*
X-411227Y241316D01*
D14*
X-488900Y-19500D02*
X-494250Y-19500D01*
X-481000Y-11600D02*
X-481000Y11600D01*
X-488900Y19500D02*
X-494250Y19500D01*
D15*
X-476792Y-17244D02*
X-465108Y-17244D01*
X-465108Y-18542D02*
X-465108Y-15946D01*
X-476792Y-15946D02*
X-476792Y-18542D01*
X-465108Y-8782D02*
X-465108Y-6186D01*
X-465108Y-8782D02*
X-465110Y-8881D01*
X-465116Y-8981D01*
X-465125Y-9080D01*
X-465138Y-9178D01*
X-465155Y-9276D01*
X-465176Y-9374D01*
X-465201Y-9470D01*
X-465229Y-9565D01*
X-465261Y-9659D01*
X-465296Y-9752D01*
X-465335Y-9844D01*
X-465378Y-9934D01*
X-465423Y-10022D01*
X-465473Y-10109D01*
X-465525Y-10193D01*
X-465581Y-10276D01*
X-465639Y-10356D01*
X-465701Y-10434D01*
X-465766Y-10509D01*
X-465834Y-10582D01*
X-465904Y-10652D01*
X-465977Y-10720D01*
X-466052Y-10785D01*
X-466130Y-10847D01*
X-466210Y-10905D01*
X-466293Y-10961D01*
X-466377Y-11013D01*
X-466464Y-11063D01*
X-466552Y-11108D01*
X-466642Y-11151D01*
X-466734Y-11190D01*
X-466827Y-11225D01*
X-466921Y-11257D01*
X-467016Y-11285D01*
X-467112Y-11310D01*
X-467210Y-11331D01*
X-467308Y-11348D01*
X-467406Y-11361D01*
X-467505Y-11370D01*
X-467605Y-11376D01*
X-467704Y-11378D01*
X-467704Y-11379D02*
X-474196Y-11379D01*
X-474196Y-11378D02*
X-474295Y-11376D01*
X-474395Y-11370D01*
X-474494Y-11361D01*
X-474592Y-11348D01*
X-474690Y-11331D01*
X-474788Y-11310D01*
X-474884Y-11285D01*
X-474979Y-11257D01*
X-475073Y-11225D01*
X-475166Y-11190D01*
X-475258Y-11151D01*
X-475348Y-11108D01*
X-475436Y-11063D01*
X-475523Y-11013D01*
X-475607Y-10961D01*
X-475690Y-10905D01*
X-475770Y-10847D01*
X-475848Y-10785D01*
X-475923Y-10720D01*
X-475996Y-10652D01*
X-476066Y-10582D01*
X-476134Y-10509D01*
X-476199Y-10434D01*
X-476261Y-10356D01*
X-476319Y-10276D01*
X-476375Y-10193D01*
X-476427Y-10109D01*
X-476477Y-10022D01*
X-476522Y-9934D01*
X-476565Y-9844D01*
X-476604Y-9752D01*
X-476639Y-9660D01*
X-476671Y-9565D01*
X-476699Y-9470D01*
X-476724Y-9374D01*
X-476745Y-9276D01*
X-476762Y-9178D01*
X-476775Y-9080D01*
X-476784Y-8981D01*
X-476790Y-8881D01*
X-476792Y-8782D01*
X-476792Y-6186D01*
X-476792Y-1820D02*
X-475494Y-1820D01*
X-476792Y-1820D02*
X-476792Y4671D01*
X-465108Y1425D01*
D14*
X-413649Y-261337D02*
X-418283Y-264012D01*
X-410758Y-250546D02*
X-422358Y-230454D01*
X-433149Y-227563D02*
X-437783Y-230238D01*
D15*
X-414600Y-235475D02*
X-404481Y-229633D01*
X-415249Y-234351D02*
X-413951Y-236600D01*
X-403832Y-230758D02*
X-405130Y-228509D01*
X-410369Y-242803D02*
X-409071Y-245052D01*
X-410368Y-242803D02*
X-410416Y-242716D01*
X-410461Y-242627D01*
X-410502Y-242537D01*
X-410540Y-242445D01*
X-410574Y-242351D01*
X-410605Y-242257D01*
X-410632Y-242161D01*
X-410655Y-242064D01*
X-410675Y-241967D01*
X-410690Y-241868D01*
X-410702Y-241770D01*
X-410711Y-241671D01*
X-410715Y-241571D01*
X-410716Y-241472D01*
X-410713Y-241372D01*
X-410706Y-241273D01*
X-410695Y-241174D01*
X-410680Y-241076D01*
X-410662Y-240978D01*
X-410640Y-240881D01*
X-410614Y-240785D01*
X-410585Y-240690D01*
X-410552Y-240596D01*
X-410515Y-240504D01*
X-410475Y-240413D01*
X-410432Y-240323D01*
X-410385Y-240236D01*
X-410334Y-240150D01*
X-410281Y-240066D01*
X-410224Y-239984D01*
X-410164Y-239905D01*
X-410102Y-239828D01*
X-410036Y-239753D01*
X-409967Y-239681D01*
X-409896Y-239612D01*
X-409822Y-239545D01*
X-409746Y-239481D01*
X-409667Y-239420D01*
X-409586Y-239363D01*
X-409503Y-239308D01*
X-409418Y-239257D01*
X-409419Y-239257D02*
X-403797Y-236011D01*
X-403797Y-236012D02*
X-403710Y-235964D01*
X-403621Y-235919D01*
X-403531Y-235878D01*
X-403439Y-235840D01*
X-403345Y-235806D01*
X-403251Y-235775D01*
X-403155Y-235748D01*
X-403058Y-235725D01*
X-402961Y-235705D01*
X-402862Y-235690D01*
X-402764Y-235678D01*
X-402665Y-235669D01*
X-402565Y-235665D01*
X-402466Y-235664D01*
X-402366Y-235667D01*
X-402267Y-235674D01*
X-402168Y-235685D01*
X-402070Y-235700D01*
X-401972Y-235718D01*
X-401875Y-235740D01*
X-401779Y-235766D01*
X-401684Y-235795D01*
X-401590Y-235828D01*
X-401498Y-235865D01*
X-401407Y-235905D01*
X-401317Y-235948D01*
X-401230Y-235995D01*
X-401144Y-236046D01*
X-401060Y-236099D01*
X-400978Y-236156D01*
X-400899Y-236216D01*
X-400822Y-236278D01*
X-400747Y-236344D01*
X-400675Y-236413D01*
X-400606Y-236484D01*
X-400539Y-236558D01*
X-400475Y-236634D01*
X-400415Y-236713D01*
X-400357Y-236794D01*
X-400302Y-236877D01*
X-400251Y-236962D01*
X-400250Y-236961D02*
X-398952Y-239210D01*
X-404077Y-247209D02*
X-403978Y-247154D01*
X-403877Y-247103D01*
X-403774Y-247055D01*
X-403670Y-247010D01*
X-403564Y-246970D01*
X-403457Y-246933D01*
X-403349Y-246900D01*
X-403239Y-246870D01*
X-403129Y-246845D01*
X-403018Y-246823D01*
X-402906Y-246806D01*
X-402793Y-246792D01*
X-402680Y-246782D01*
X-402567Y-246776D01*
X-402454Y-246774D01*
X-402341Y-246776D01*
X-402228Y-246782D01*
X-402115Y-246792D01*
X-402002Y-246806D01*
X-401890Y-246823D01*
X-401779Y-246845D01*
X-401669Y-246870D01*
X-401559Y-246900D01*
X-401451Y-246933D01*
X-401344Y-246970D01*
X-401238Y-247010D01*
X-401134Y-247055D01*
X-401031Y-247102D01*
X-400930Y-247154D01*
X-400831Y-247209D01*
X-400734Y-247267D01*
X-400639Y-247329D01*
X-400546Y-247394D01*
X-400456Y-247462D01*
X-400368Y-247533D01*
X-400282Y-247608D01*
X-400199Y-247685D01*
X-400119Y-247765D01*
X-400042Y-247848D01*
X-399967Y-247933D01*
X-399896Y-248022D01*
X-399828Y-248112D01*
X-399763Y-248205D01*
X-399701Y-248300D01*
X-399643Y-248397D01*
X-399588Y-248496D01*
X-399537Y-248597D01*
X-399489Y-248700D01*
X-399444Y-248804D01*
X-399404Y-248910D01*
X-399367Y-249017D01*
X-399334Y-249125D01*
X-399304Y-249235D01*
X-399279Y-249345D01*
X-399257Y-249456D01*
X-399240Y-249568D01*
X-399226Y-249681D01*
X-399216Y-249794D01*
X-399210Y-249907D01*
X-399208Y-250020D01*
X-399210Y-250133D01*
X-399216Y-250246D01*
X-399226Y-250359D01*
X-399240Y-250472D01*
X-399257Y-250584D01*
X-399279Y-250695D01*
X-399304Y-250805D01*
X-399334Y-250915D01*
X-399367Y-251023D01*
X-399404Y-251130D01*
X-399444Y-251236D01*
X-399489Y-251340D01*
X-399537Y-251443D01*
X-399588Y-251544D01*
X-399643Y-251643D01*
X-399701Y-251740D01*
X-399763Y-251835D01*
X-399828Y-251928D01*
X-399896Y-252018D01*
X-399967Y-252107D01*
X-400042Y-252192D01*
X-400119Y-252275D01*
X-400199Y-252355D01*
X-400282Y-252432D01*
X-400368Y-252507D01*
X-400456Y-252578D01*
X-400546Y-252646D01*
X-400639Y-252711D01*
X-400734Y-252773D01*
X-400831Y-252831D01*
X-400930Y-252886D01*
X-401031Y-252938D01*
X-401134Y-252985D01*
X-401238Y-253030D01*
X-401344Y-253070D01*
X-401451Y-253107D01*
X-401559Y-253140D01*
X-401669Y-253170D01*
X-401779Y-253195D01*
X-401890Y-253217D01*
X-402002Y-253234D01*
X-402115Y-253248D01*
X-402228Y-253258D01*
X-402341Y-253264D01*
X-402454Y-253266D01*
X-402567Y-253264D01*
X-402680Y-253258D01*
X-402793Y-253248D01*
X-402906Y-253234D01*
X-403018Y-253217D01*
X-403129Y-253195D01*
X-403239Y-253170D01*
X-403349Y-253140D01*
X-403457Y-253107D01*
X-403564Y-253070D01*
X-403670Y-253030D01*
X-403774Y-252985D01*
X-403877Y-252937D01*
X-403978Y-252886D01*
X-404077Y-252831D01*
X-404174Y-252773D01*
X-404269Y-252711D01*
X-404362Y-252646D01*
X-404452Y-252578D01*
X-404540Y-252507D01*
X-404626Y-252432D01*
X-404709Y-252355D01*
X-404789Y-252275D01*
X-404866Y-252192D01*
X-404941Y-252106D01*
X-405012Y-252018D01*
X-405080Y-251928D01*
X-405145Y-251835D01*
X-405207Y-251740D01*
X-405265Y-251643D01*
X-405320Y-251544D01*
X-405371Y-251443D01*
X-405419Y-251340D01*
X-405464Y-251236D01*
X-405504Y-251130D01*
X-405541Y-251023D01*
X-405574Y-250915D01*
X-405604Y-250805D01*
X-405629Y-250695D01*
X-405651Y-250584D01*
X-405668Y-250472D01*
X-405682Y-250359D01*
X-405692Y-250246D01*
X-405698Y-250133D01*
X-405700Y-250020D01*
X-405698Y-249907D01*
X-405692Y-249794D01*
X-405682Y-249681D01*
X-405668Y-249568D01*
X-405651Y-249456D01*
X-405629Y-249345D01*
X-405604Y-249235D01*
X-405574Y-249125D01*
X-405541Y-249017D01*
X-405504Y-248910D01*
X-405464Y-248804D01*
X-405419Y-248700D01*
X-405372Y-248597D01*
X-405320Y-248496D01*
X-405265Y-248397D01*
X-405207Y-248300D01*
X-405145Y-248205D01*
X-405080Y-248112D01*
X-405012Y-248022D01*
X-404941Y-247934D01*
X-404866Y-247848D01*
X-404789Y-247765D01*
X-404709Y-247685D01*
X-404626Y-247608D01*
X-404541Y-247533D01*
X-404452Y-247462D01*
X-404362Y-247394D01*
X-404269Y-247329D01*
X-404174Y-247267D01*
X-404077Y-247209D01*
X-398693Y-244851D02*
X-398605Y-244802D01*
X-398515Y-244757D01*
X-398423Y-244715D01*
X-398330Y-244677D01*
X-398235Y-244643D01*
X-398140Y-244612D01*
X-398043Y-244585D01*
X-397945Y-244562D01*
X-397846Y-244542D01*
X-397746Y-244527D01*
X-397646Y-244515D01*
X-397546Y-244507D01*
X-397445Y-244503D01*
X-397345Y-244503D01*
X-397244Y-244507D01*
X-397144Y-244515D01*
X-397044Y-244527D01*
X-396944Y-244542D01*
X-396845Y-244562D01*
X-396747Y-244585D01*
X-396650Y-244612D01*
X-396555Y-244643D01*
X-396460Y-244677D01*
X-396367Y-244715D01*
X-396275Y-244757D01*
X-396185Y-244802D01*
X-396097Y-244851D01*
X-396011Y-244903D01*
X-395927Y-244958D01*
X-395845Y-245017D01*
X-395765Y-245078D01*
X-395688Y-245143D01*
X-395614Y-245211D01*
X-395542Y-245281D01*
X-395473Y-245354D01*
X-395406Y-245430D01*
X-395343Y-245509D01*
X-395283Y-245589D01*
X-395226Y-245672D01*
X-395172Y-245758D01*
X-395122Y-245845D01*
X-395075Y-245934D01*
X-395032Y-246025D01*
X-394992Y-246117D01*
X-394956Y-246211D01*
X-394923Y-246306D01*
X-394894Y-246403D01*
X-394869Y-246500D01*
X-394848Y-246599D01*
X-394830Y-246698D01*
X-394817Y-246798D01*
X-394807Y-246898D01*
X-394801Y-246998D01*
X-394799Y-247099D01*
X-394801Y-247200D01*
X-394807Y-247300D01*
X-394817Y-247400D01*
X-394830Y-247500D01*
X-394848Y-247599D01*
X-394869Y-247698D01*
X-394894Y-247795D01*
X-394923Y-247892D01*
X-394956Y-247987D01*
X-394992Y-248081D01*
X-395032Y-248173D01*
X-395075Y-248264D01*
X-395122Y-248353D01*
X-395172Y-248440D01*
X-395226Y-248526D01*
X-395283Y-248609D01*
X-395343Y-248689D01*
X-395406Y-248768D01*
X-395473Y-248844D01*
X-395542Y-248917D01*
X-395614Y-248987D01*
X-395688Y-249055D01*
X-395765Y-249120D01*
X-395845Y-249181D01*
X-395927Y-249240D01*
X-396011Y-249295D01*
X-396097Y-249347D01*
X-396185Y-249396D01*
X-396275Y-249441D01*
X-396367Y-249483D01*
X-396460Y-249521D01*
X-396555Y-249555D01*
X-396650Y-249586D01*
X-396747Y-249613D01*
X-396845Y-249636D01*
X-396944Y-249656D01*
X-397044Y-249671D01*
X-397144Y-249683D01*
X-397244Y-249691D01*
X-397345Y-249695D01*
X-397445Y-249695D01*
X-397546Y-249691D01*
X-397646Y-249683D01*
X-397746Y-249671D01*
X-397846Y-249656D01*
X-397945Y-249636D01*
X-398043Y-249613D01*
X-398140Y-249586D01*
X-398235Y-249555D01*
X-398330Y-249521D01*
X-398423Y-249483D01*
X-398515Y-249441D01*
X-398605Y-249396D01*
X-398693Y-249347D01*
X-398779Y-249295D01*
X-398863Y-249240D01*
X-398945Y-249181D01*
X-399025Y-249120D01*
X-399102Y-249055D01*
X-399176Y-248987D01*
X-399248Y-248917D01*
X-399317Y-248844D01*
X-399384Y-248768D01*
X-399447Y-248689D01*
X-399507Y-248609D01*
X-399564Y-248526D01*
X-399618Y-248440D01*
X-399668Y-248353D01*
X-399715Y-248264D01*
X-399758Y-248173D01*
X-399798Y-248081D01*
X-399834Y-247987D01*
X-399867Y-247892D01*
X-399896Y-247795D01*
X-399921Y-247698D01*
X-399942Y-247599D01*
X-399960Y-247500D01*
X-399973Y-247400D01*
X-399983Y-247300D01*
X-399989Y-247200D01*
X-399991Y-247099D01*
X-399989Y-246998D01*
X-399983Y-246898D01*
X-399973Y-246798D01*
X-399960Y-246698D01*
X-399942Y-246599D01*
X-399921Y-246500D01*
X-399896Y-246403D01*
X-399867Y-246306D01*
X-399834Y-246211D01*
X-399798Y-246117D01*
X-399758Y-246025D01*
X-399715Y-245934D01*
X-399668Y-245845D01*
X-399618Y-245758D01*
X-399564Y-245673D01*
X-399507Y-245589D01*
X-399447Y-245509D01*
X-399384Y-245430D01*
X-399317Y-245355D01*
X-399248Y-245281D01*
X-399177Y-245211D01*
X-399102Y-245143D01*
X-399025Y-245078D01*
X-398945Y-245017D01*
X-398863Y-244958D01*
X-398779Y-244903D01*
X-398693Y-244851D01*
D14*
X-227563Y-433149D02*
X-230238Y-437783D01*
X-230454Y-422358D02*
X-250546Y-410758D01*
X-261337Y-413649D02*
X-264012Y-418283D01*
D15*
X-241317Y-411227D02*
X-235475Y-401109D01*
X-240192Y-411876D02*
X-242441Y-410578D01*
X-236599Y-400459D02*
X-234350Y-401758D01*
X-233989Y-415458D02*
X-231740Y-416756D01*
X-233988Y-415457D02*
X-234073Y-415406D01*
X-234156Y-415351D01*
X-234237Y-415294D01*
X-234316Y-415233D01*
X-234392Y-415169D01*
X-234466Y-415102D01*
X-234537Y-415033D01*
X-234606Y-414961D01*
X-234672Y-414886D01*
X-234734Y-414809D01*
X-234794Y-414730D01*
X-234851Y-414648D01*
X-234904Y-414564D01*
X-234955Y-414478D01*
X-235002Y-414391D01*
X-235045Y-414301D01*
X-235085Y-414210D01*
X-235122Y-414118D01*
X-235155Y-414024D01*
X-235184Y-413929D01*
X-235210Y-413833D01*
X-235232Y-413736D01*
X-235250Y-413638D01*
X-235265Y-413540D01*
X-235276Y-413441D01*
X-235283Y-413342D01*
X-235286Y-413242D01*
X-235285Y-413143D01*
X-235281Y-413043D01*
X-235272Y-412944D01*
X-235260Y-412846D01*
X-235245Y-412747D01*
X-235225Y-412650D01*
X-235202Y-412553D01*
X-235175Y-412457D01*
X-235144Y-412363D01*
X-235110Y-412269D01*
X-235072Y-412177D01*
X-235031Y-412087D01*
X-234986Y-411998D01*
X-234938Y-411911D01*
X-234939Y-411911D02*
X-231693Y-406290D01*
X-231642Y-406205D01*
X-231587Y-406122D01*
X-231530Y-406041D01*
X-231469Y-405962D01*
X-231405Y-405886D01*
X-231338Y-405812D01*
X-231269Y-405741D01*
X-231197Y-405672D01*
X-231122Y-405606D01*
X-231045Y-405544D01*
X-230966Y-405484D01*
X-230884Y-405427D01*
X-230800Y-405374D01*
X-230714Y-405323D01*
X-230627Y-405276D01*
X-230537Y-405233D01*
X-230446Y-405193D01*
X-230354Y-405156D01*
X-230260Y-405123D01*
X-230165Y-405094D01*
X-230069Y-405068D01*
X-229972Y-405046D01*
X-229874Y-405028D01*
X-229776Y-405013D01*
X-229677Y-405002D01*
X-229578Y-404995D01*
X-229478Y-404992D01*
X-229379Y-404993D01*
X-229279Y-404997D01*
X-229180Y-405006D01*
X-229082Y-405018D01*
X-228983Y-405033D01*
X-228886Y-405053D01*
X-228789Y-405076D01*
X-228693Y-405103D01*
X-228599Y-405134D01*
X-228505Y-405168D01*
X-228413Y-405206D01*
X-228323Y-405247D01*
X-228234Y-405292D01*
X-228147Y-405340D01*
X-228147Y-405339D02*
X-225898Y-406638D01*
X-223114Y-415740D02*
X-219742Y-417687D01*
X-223114Y-415739D02*
X-223199Y-415688D01*
X-223282Y-415633D01*
X-223363Y-415576D01*
X-223442Y-415515D01*
X-223518Y-415451D01*
X-223592Y-415384D01*
X-223663Y-415315D01*
X-223732Y-415243D01*
X-223798Y-415168D01*
X-223860Y-415091D01*
X-223920Y-415012D01*
X-223977Y-414930D01*
X-224030Y-414846D01*
X-224081Y-414760D01*
X-224128Y-414673D01*
X-224171Y-414583D01*
X-224211Y-414492D01*
X-224248Y-414400D01*
X-224281Y-414306D01*
X-224310Y-414211D01*
X-224336Y-414115D01*
X-224358Y-414018D01*
X-224376Y-413920D01*
X-224391Y-413822D01*
X-224402Y-413723D01*
X-224409Y-413624D01*
X-224412Y-413524D01*
X-224411Y-413425D01*
X-224407Y-413325D01*
X-224398Y-413226D01*
X-224386Y-413128D01*
X-224371Y-413029D01*
X-224351Y-412932D01*
X-224328Y-412835D01*
X-224301Y-412739D01*
X-224270Y-412645D01*
X-224236Y-412551D01*
X-224198Y-412459D01*
X-224157Y-412369D01*
X-224112Y-412280D01*
X-224064Y-412193D01*
X-224065Y-412193D02*
X-223740Y-411631D01*
X-223741Y-411631D02*
X-223683Y-411534D01*
X-223621Y-411439D01*
X-223556Y-411346D01*
X-223488Y-411256D01*
X-223417Y-411168D01*
X-223342Y-411082D01*
X-223265Y-410999D01*
X-223185Y-410919D01*
X-223102Y-410842D01*
X-223016Y-410767D01*
X-222928Y-410696D01*
X-222838Y-410628D01*
X-222745Y-410563D01*
X-222650Y-410501D01*
X-222553Y-410443D01*
X-222454Y-410388D01*
X-222353Y-410337D01*
X-222250Y-410289D01*
X-222146Y-410244D01*
X-222040Y-410204D01*
X-221933Y-410167D01*
X-221825Y-410134D01*
X-221715Y-410104D01*
X-221605Y-410079D01*
X-221494Y-410057D01*
X-221382Y-410040D01*
X-221269Y-410026D01*
X-221156Y-410016D01*
X-221043Y-410010D01*
X-220930Y-410008D01*
X-220817Y-410010D01*
X-220704Y-410016D01*
X-220591Y-410026D01*
X-220478Y-410040D01*
X-220366Y-410057D01*
X-220255Y-410079D01*
X-220145Y-410104D01*
X-220035Y-410134D01*
X-219927Y-410167D01*
X-219820Y-410204D01*
X-219714Y-410244D01*
X-219610Y-410289D01*
X-219507Y-410337D01*
X-219406Y-410388D01*
X-219307Y-410443D01*
X-219210Y-410501D01*
X-219115Y-410563D01*
X-219022Y-410628D01*
X-218932Y-410696D01*
X-218844Y-410767D01*
X-218758Y-410842D01*
X-218675Y-410919D01*
X-218595Y-410999D01*
X-218518Y-411082D01*
X-218443Y-411167D01*
X-218372Y-411256D01*
X-218304Y-411346D01*
X-218239Y-411439D01*
X-218177Y-411534D01*
X-218119Y-411631D01*
X-218064Y-411730D01*
X-218013Y-411831D01*
X-217965Y-411934D01*
X-217920Y-412038D01*
X-217880Y-412144D01*
X-217843Y-412251D01*
X-217810Y-412359D01*
X-217780Y-412469D01*
X-217755Y-412579D01*
X-217733Y-412690D01*
X-217716Y-412802D01*
X-217702Y-412915D01*
X-217692Y-413028D01*
X-217686Y-413141D01*
X-217684Y-413254D01*
X-217686Y-413367D01*
X-217692Y-413480D01*
X-217702Y-413593D01*
X-217716Y-413706D01*
X-217733Y-413818D01*
X-217755Y-413929D01*
X-217780Y-414039D01*
X-217810Y-414149D01*
X-217843Y-414257D01*
X-217880Y-414364D01*
X-217920Y-414470D01*
X-217965Y-414574D01*
X-218013Y-414677D01*
X-218064Y-414778D01*
X-218119Y-414877D01*
X-219742Y-417687D01*
X-219815Y-417810D01*
X-219892Y-417931D01*
X-219972Y-418050D01*
X-220055Y-418166D01*
X-220141Y-418281D01*
X-220230Y-418392D01*
X-220323Y-418502D01*
X-220418Y-418608D01*
X-220517Y-418712D01*
X-220618Y-418813D01*
X-220722Y-418912D01*
X-220828Y-419007D01*
X-220938Y-419100D01*
X-221049Y-419189D01*
X-221164Y-419275D01*
X-221280Y-419358D01*
X-221399Y-419438D01*
X-221520Y-419515D01*
X-221643Y-419588D01*
X-221767Y-419658D01*
X-221894Y-419724D01*
X-222023Y-419787D01*
X-222153Y-419847D01*
X-222285Y-419902D01*
X-222418Y-419954D01*
X-222553Y-420003D01*
X-222689Y-420047D01*
X-222826Y-420088D01*
X-222964Y-420125D01*
X-223103Y-420158D01*
X-223243Y-420188D01*
X-223384Y-420213D01*
X-223526Y-420235D01*
X-223668Y-420252D01*
X-223810Y-420266D01*
X-223953Y-420276D01*
X-224096Y-420282D01*
X-224239Y-420284D01*
X-224382Y-420282D01*
X-224525Y-420276D01*
X-224668Y-420266D01*
X-224810Y-420252D01*
X-224952Y-420235D01*
X-225094Y-420213D01*
X-225235Y-420188D01*
X-225375Y-420158D01*
X-225514Y-420125D01*
X-225652Y-420088D01*
X-225789Y-420047D01*
X-225925Y-420003D01*
X-226060Y-419954D01*
X-226193Y-419902D01*
X-226325Y-419847D01*
X-226455Y-419787D01*
X-226584Y-419724D01*
X-226711Y-419658D01*
X-226836Y-419588D01*
D14*
X19500Y-488900D02*
X19500Y-494250D01*
X11600Y-481000D02*
X-11600Y-481000D01*
X-19500Y-488900D02*
X-19500Y-494250D01*
D15*
X-14803Y-476792D02*
X-14803Y-465108D01*
X-16101Y-476792D02*
X-13504Y-476792D01*
X-13504Y-465108D02*
X-16101Y-465108D01*
X-6341Y-476792D02*
X-3744Y-476792D01*
X-6341Y-476792D02*
X-6440Y-476790D01*
X-6540Y-476784D01*
X-6639Y-476775D01*
X-6737Y-476762D01*
X-6835Y-476745D01*
X-6933Y-476724D01*
X-7029Y-476699D01*
X-7124Y-476671D01*
X-7218Y-476639D01*
X-7311Y-476604D01*
X-7403Y-476565D01*
X-7493Y-476522D01*
X-7581Y-476477D01*
X-7668Y-476427D01*
X-7752Y-476375D01*
X-7835Y-476319D01*
X-7915Y-476261D01*
X-7993Y-476199D01*
X-8068Y-476134D01*
X-8141Y-476066D01*
X-8211Y-475996D01*
X-8279Y-475923D01*
X-8344Y-475848D01*
X-8406Y-475770D01*
X-8464Y-475690D01*
X-8520Y-475607D01*
X-8572Y-475523D01*
X-8622Y-475436D01*
X-8667Y-475348D01*
X-8710Y-475258D01*
X-8749Y-475166D01*
X-8784Y-475073D01*
X-8816Y-474979D01*
X-8844Y-474884D01*
X-8869Y-474788D01*
X-8890Y-474690D01*
X-8907Y-474592D01*
X-8920Y-474494D01*
X-8929Y-474395D01*
X-8935Y-474295D01*
X-8937Y-474196D01*
X-8937Y-467704D01*
X-8938Y-467704D02*
X-8936Y-467605D01*
X-8930Y-467505D01*
X-8921Y-467406D01*
X-8908Y-467308D01*
X-8890Y-467210D01*
X-8870Y-467112D01*
X-8845Y-467016D01*
X-8817Y-466920D01*
X-8785Y-466826D01*
X-8750Y-466733D01*
X-8711Y-466642D01*
X-8668Y-466552D01*
X-8623Y-466463D01*
X-8573Y-466377D01*
X-8521Y-466292D01*
X-8465Y-466210D01*
X-8406Y-466130D01*
X-8345Y-466052D01*
X-8280Y-465976D01*
X-8212Y-465903D01*
X-8142Y-465833D01*
X-8069Y-465765D01*
X-7993Y-465700D01*
X-7915Y-465639D01*
X-7835Y-465580D01*
X-7753Y-465524D01*
X-7668Y-465472D01*
X-7582Y-465423D01*
X-7493Y-465377D01*
X-7403Y-465334D01*
X-7312Y-465295D01*
X-7219Y-465260D01*
X-7125Y-465228D01*
X-7029Y-465200D01*
X-6933Y-465175D01*
X-6835Y-465155D01*
X-6737Y-465137D01*
X-6639Y-465124D01*
X-6540Y-465115D01*
X-6441Y-465109D01*
X-6341Y-465107D01*
X-6341Y-465108D02*
X-3744Y-465108D01*
X621Y-467704D02*
X3866Y-465108D01*
X3866Y-476792D01*
X621Y-476792D02*
X7112Y-476792D01*
X12051Y-470950D02*
X12054Y-470720D01*
X12062Y-470490D01*
X12076Y-470261D01*
X12095Y-470032D01*
X12120Y-469803D01*
X12150Y-469575D01*
X12185Y-469348D01*
X12226Y-469122D01*
X12272Y-468897D01*
X12324Y-468673D01*
X12381Y-468450D01*
X12443Y-468229D01*
X12511Y-468009D01*
X12584Y-467791D01*
X12662Y-467575D01*
X12745Y-467361D01*
X12833Y-467149D01*
X12926Y-466938D01*
X13025Y-466731D01*
X13024Y-466731D02*
X13057Y-466641D01*
X13093Y-466552D01*
X13133Y-466464D01*
X13177Y-466379D01*
X13224Y-466295D01*
X13274Y-466213D01*
X13328Y-466133D01*
X13384Y-466056D01*
X13444Y-465980D01*
X13507Y-465907D01*
X13572Y-465837D01*
X13641Y-465769D01*
X13712Y-465705D01*
X13785Y-465643D01*
X13861Y-465584D01*
X13939Y-465528D01*
X14020Y-465475D01*
X14102Y-465426D01*
X14186Y-465380D01*
X14273Y-465337D01*
X14360Y-465298D01*
X14450Y-465262D01*
X14540Y-465230D01*
X14632Y-465202D01*
X14725Y-465177D01*
X14819Y-465156D01*
X14913Y-465139D01*
X15008Y-465125D01*
X15104Y-465116D01*
X15200Y-465110D01*
X15296Y-465108D01*
X15392Y-465110D01*
X15488Y-465116D01*
X15584Y-465125D01*
X15679Y-465139D01*
X15773Y-465156D01*
X15867Y-465177D01*
X15960Y-465202D01*
X16052Y-465230D01*
X16142Y-465262D01*
X16232Y-465298D01*
X16320Y-465337D01*
X16406Y-465380D01*
X16490Y-465426D01*
X16572Y-465475D01*
X16653Y-465528D01*
X16731Y-465584D01*
X16807Y-465643D01*
X16880Y-465705D01*
X16951Y-465769D01*
X17020Y-465837D01*
X17085Y-465907D01*
X17148Y-465980D01*
X17208Y-466056D01*
X17264Y-466133D01*
X17318Y-466213D01*
X17368Y-466295D01*
X17415Y-466379D01*
X17459Y-466464D01*
X17499Y-466552D01*
X17535Y-466641D01*
X17568Y-466731D01*
X17667Y-466938D01*
X17760Y-467149D01*
X17848Y-467361D01*
X17931Y-467575D01*
X18009Y-467791D01*
X18082Y-468009D01*
X18150Y-468229D01*
X18212Y-468450D01*
X18269Y-468673D01*
X18321Y-468897D01*
X18367Y-469122D01*
X18408Y-469348D01*
X18443Y-469575D01*
X18473Y-469803D01*
X18498Y-470032D01*
X18517Y-470261D01*
X18531Y-470490D01*
X18539Y-470720D01*
X18542Y-470950D01*
X12051Y-470950D02*
X12054Y-471180D01*
X12062Y-471410D01*
X12076Y-471639D01*
X12095Y-471868D01*
X12120Y-472097D01*
X12150Y-472325D01*
X12185Y-472552D01*
X12226Y-472778D01*
X12272Y-473003D01*
X12324Y-473227D01*
X12381Y-473450D01*
X12443Y-473671D01*
X12511Y-473891D01*
X12584Y-474109D01*
X12662Y-474325D01*
X12745Y-474539D01*
X12833Y-474751D01*
X12926Y-474962D01*
X13025Y-475169D01*
X13024Y-475169D02*
X13057Y-475259D01*
X13093Y-475348D01*
X13134Y-475436D01*
X13177Y-475521D01*
X13224Y-475605D01*
X13274Y-475687D01*
X13328Y-475767D01*
X13384Y-475844D01*
X13444Y-475920D01*
X13507Y-475993D01*
X13572Y-476063D01*
X13641Y-476131D01*
X13712Y-476195D01*
X13785Y-476257D01*
X13861Y-476316D01*
X13939Y-476372D01*
X14020Y-476425D01*
X14102Y-476474D01*
X14186Y-476520D01*
X14273Y-476563D01*
X14360Y-476602D01*
X14450Y-476638D01*
X14540Y-476670D01*
X14632Y-476698D01*
X14725Y-476723D01*
X14819Y-476744D01*
X14913Y-476761D01*
X15008Y-476775D01*
X15104Y-476784D01*
X15200Y-476790D01*
X15296Y-476792D01*
X17568Y-475169D02*
X17667Y-474962D01*
X17760Y-474751D01*
X17848Y-474539D01*
X17931Y-474325D01*
X18009Y-474109D01*
X18082Y-473891D01*
X18150Y-473671D01*
X18212Y-473450D01*
X18269Y-473227D01*
X18321Y-473003D01*
X18367Y-472778D01*
X18408Y-472552D01*
X18443Y-472325D01*
X18473Y-472097D01*
X18498Y-471868D01*
X18517Y-471639D01*
X18531Y-471410D01*
X18539Y-471180D01*
X18542Y-470950D01*
X17568Y-475169D02*
X17535Y-475259D01*
X17499Y-475348D01*
X17459Y-475436D01*
X17415Y-475521D01*
X17368Y-475605D01*
X17318Y-475687D01*
X17264Y-475767D01*
X17208Y-475844D01*
X17148Y-475920D01*
X17085Y-475993D01*
X17020Y-476063D01*
X16951Y-476131D01*
X16880Y-476195D01*
X16807Y-476257D01*
X16731Y-476316D01*
X16653Y-476372D01*
X16572Y-476425D01*
X16490Y-476474D01*
X16406Y-476520D01*
X16319Y-476563D01*
X16232Y-476602D01*
X16142Y-476638D01*
X16052Y-476670D01*
X15960Y-476698D01*
X15867Y-476723D01*
X15773Y-476744D01*
X15679Y-476761D01*
X15584Y-476775D01*
X15488Y-476784D01*
X15392Y-476790D01*
X15296Y-476792D01*
X12700Y-474196D02*
X17893Y-467704D01*
D14*
X261337Y-413649D02*
X264012Y-418283D01*
X250546Y-410758D02*
X230454Y-422358D01*
X227563Y-433149D02*
X230238Y-437783D01*
D15*
X225577Y-420315D02*
X219735Y-410196D01*
X224452Y-420964D02*
X226701Y-419666D01*
X220859Y-409547D02*
X218610Y-410845D01*
X232905Y-416084D02*
X235153Y-414786D01*
X232904Y-416083D02*
X232817Y-416131D01*
X232728Y-416176D01*
X232638Y-416217D01*
X232546Y-416255D01*
X232452Y-416289D01*
X232358Y-416320D01*
X232262Y-416347D01*
X232165Y-416370D01*
X232068Y-416390D01*
X231969Y-416405D01*
X231871Y-416417D01*
X231772Y-416426D01*
X231672Y-416430D01*
X231573Y-416431D01*
X231473Y-416428D01*
X231374Y-416421D01*
X231275Y-416410D01*
X231177Y-416395D01*
X231079Y-416377D01*
X230982Y-416355D01*
X230886Y-416329D01*
X230791Y-416300D01*
X230697Y-416267D01*
X230605Y-416230D01*
X230514Y-416190D01*
X230424Y-416147D01*
X230337Y-416100D01*
X230251Y-416049D01*
X230167Y-415996D01*
X230085Y-415939D01*
X230006Y-415879D01*
X229929Y-415817D01*
X229854Y-415751D01*
X229782Y-415682D01*
X229713Y-415611D01*
X229646Y-415537D01*
X229582Y-415461D01*
X229521Y-415382D01*
X229464Y-415301D01*
X229409Y-415218D01*
X229358Y-415133D01*
X229358Y-415134D02*
X226112Y-409512D01*
X226113Y-409512D02*
X226065Y-409425D01*
X226020Y-409336D01*
X225979Y-409246D01*
X225941Y-409154D01*
X225907Y-409060D01*
X225876Y-408966D01*
X225849Y-408870D01*
X225826Y-408773D01*
X225806Y-408676D01*
X225791Y-408577D01*
X225779Y-408479D01*
X225770Y-408380D01*
X225766Y-408280D01*
X225765Y-408181D01*
X225768Y-408081D01*
X225775Y-407982D01*
X225786Y-407883D01*
X225801Y-407785D01*
X225819Y-407687D01*
X225841Y-407590D01*
X225867Y-407494D01*
X225896Y-407399D01*
X225929Y-407305D01*
X225966Y-407213D01*
X226006Y-407122D01*
X226049Y-407032D01*
X226096Y-406945D01*
X226147Y-406859D01*
X226200Y-406775D01*
X226257Y-406693D01*
X226317Y-406614D01*
X226379Y-406537D01*
X226445Y-406462D01*
X226514Y-406390D01*
X226585Y-406321D01*
X226659Y-406254D01*
X226735Y-406190D01*
X226814Y-406130D01*
X226895Y-406072D01*
X226978Y-406017D01*
X227063Y-405966D01*
X227063Y-405965D02*
X229311Y-404667D01*
X234390Y-404733D02*
X235902Y-400862D01*
X241744Y-410980D01*
X238934Y-412603D02*
X244555Y-409357D01*
X244289Y-399018D02*
X245801Y-395147D01*
X251643Y-405265D01*
X248832Y-406888D02*
X254454Y-403642D01*
D14*
X433149Y-227563D02*
X437783Y-230238D01*
X422358Y-230454D02*
X410758Y-250546D01*
X413649Y-261337D02*
X418283Y-264012D01*
D15*
X405512Y-251215D02*
X395394Y-245373D01*
X404863Y-252340D02*
X406161Y-250091D01*
X396043Y-244249D02*
X394744Y-246498D01*
X409743Y-243887D02*
X411041Y-241639D01*
X409742Y-243887D02*
X409691Y-243972D01*
X409636Y-244055D01*
X409579Y-244136D01*
X409518Y-244215D01*
X409454Y-244291D01*
X409387Y-244365D01*
X409318Y-244436D01*
X409246Y-244505D01*
X409171Y-244571D01*
X409094Y-244633D01*
X409015Y-244693D01*
X408933Y-244750D01*
X408849Y-244803D01*
X408763Y-244854D01*
X408676Y-244901D01*
X408586Y-244944D01*
X408495Y-244984D01*
X408403Y-245021D01*
X408309Y-245054D01*
X408214Y-245083D01*
X408118Y-245109D01*
X408021Y-245131D01*
X407923Y-245149D01*
X407825Y-245164D01*
X407726Y-245175D01*
X407627Y-245182D01*
X407527Y-245185D01*
X407428Y-245184D01*
X407328Y-245180D01*
X407229Y-245171D01*
X407131Y-245159D01*
X407032Y-245144D01*
X406935Y-245124D01*
X406838Y-245101D01*
X406742Y-245074D01*
X406648Y-245043D01*
X406554Y-245009D01*
X406462Y-244971D01*
X406372Y-244930D01*
X406283Y-244885D01*
X406196Y-244837D01*
X406196Y-244838D02*
X400575Y-241592D01*
X400575Y-241591D02*
X400490Y-241540D01*
X400407Y-241485D01*
X400326Y-241428D01*
X400247Y-241367D01*
X400171Y-241303D01*
X400097Y-241236D01*
X400026Y-241167D01*
X399957Y-241095D01*
X399891Y-241020D01*
X399829Y-240943D01*
X399769Y-240864D01*
X399712Y-240782D01*
X399659Y-240698D01*
X399608Y-240612D01*
X399561Y-240525D01*
X399518Y-240435D01*
X399478Y-240344D01*
X399441Y-240252D01*
X399408Y-240158D01*
X399379Y-240063D01*
X399353Y-239967D01*
X399331Y-239870D01*
X399313Y-239772D01*
X399298Y-239674D01*
X399287Y-239575D01*
X399280Y-239476D01*
X399277Y-239376D01*
X399278Y-239277D01*
X399282Y-239177D01*
X399291Y-239078D01*
X399303Y-238980D01*
X399318Y-238881D01*
X399338Y-238784D01*
X399361Y-238687D01*
X399388Y-238591D01*
X399419Y-238497D01*
X399453Y-238403D01*
X399491Y-238311D01*
X399532Y-238221D01*
X399577Y-238132D01*
X399625Y-238045D01*
X399624Y-238045D02*
X400923Y-235797D01*
X405354Y-233314D02*
X404728Y-229205D01*
X414847Y-235047D01*
X416469Y-232237D02*
X413224Y-237858D01*
X410605Y-219026D02*
X410660Y-218934D01*
X410719Y-218845D01*
X410780Y-218758D01*
X410845Y-218673D01*
X410913Y-218590D01*
X410983Y-218510D01*
X411057Y-218433D01*
X411133Y-218359D01*
X411212Y-218287D01*
X411294Y-218218D01*
X411378Y-218152D01*
X411464Y-218090D01*
X411553Y-218030D01*
X411644Y-217974D01*
X411737Y-217922D01*
X411831Y-217872D01*
X411927Y-217826D01*
X412025Y-217784D01*
X412125Y-217745D01*
X412226Y-217710D01*
X412328Y-217679D01*
X412431Y-217651D01*
X412535Y-217627D01*
X412639Y-217607D01*
X412745Y-217591D01*
X412851Y-217579D01*
X412957Y-217570D01*
X413064Y-217566D01*
X413171Y-217565D01*
X413277Y-217568D01*
X413384Y-217576D01*
X413490Y-217587D01*
X413595Y-217602D01*
X413701Y-217620D01*
X413805Y-217643D01*
X413908Y-217669D01*
X414011Y-217699D01*
X414112Y-217733D01*
X414212Y-217771D01*
X414310Y-217812D01*
X414407Y-217856D01*
X414502Y-217905D01*
X414596Y-217956D01*
X410605Y-219026D02*
X410546Y-219131D01*
X410491Y-219239D01*
X410439Y-219348D01*
X410390Y-219459D01*
X410346Y-219572D01*
X410305Y-219685D01*
X410267Y-219801D01*
X410234Y-219917D01*
X410204Y-220034D01*
X410178Y-220152D01*
X410155Y-220271D01*
X410137Y-220391D01*
X410122Y-220511D01*
X410112Y-220631D01*
X410105Y-220752D01*
X410102Y-220873D01*
X410103Y-220994D01*
X410108Y-221115D01*
X410117Y-221236D01*
X410130Y-221356D01*
X410146Y-221476D01*
X410167Y-221595D01*
X410191Y-221714D01*
X410219Y-221832D01*
X410251Y-221948D01*
X410286Y-222064D01*
X410326Y-222178D01*
X410369Y-222292D01*
X410415Y-222403D01*
X410466Y-222513D01*
X410519Y-222622D01*
X410576Y-222729D01*
X410637Y-222833D01*
X410701Y-222936D01*
X410768Y-223037D01*
X410839Y-223135D01*
X410912Y-223231D01*
X410989Y-223325D01*
X411068Y-223416D01*
X416076Y-219935D02*
X416048Y-219828D01*
X416017Y-219723D01*
X415981Y-219618D01*
X415942Y-219515D01*
X415900Y-219413D01*
X415854Y-219312D01*
X415804Y-219214D01*
X415751Y-219117D01*
X415694Y-219022D01*
X415635Y-218929D01*
X415572Y-218838D01*
X415505Y-218750D01*
X415436Y-218664D01*
X415364Y-218580D01*
X415289Y-218499D01*
X415211Y-218421D01*
X415130Y-218346D01*
X415047Y-218273D01*
X414961Y-218203D01*
X414873Y-218137D01*
X414783Y-218073D01*
X414690Y-218013D01*
X414595Y-217956D01*
X416076Y-219936D02*
X418939Y-227959D01*
X422184Y-222338D01*
D13*
X230000Y-870000D02*
X130000Y-870000D01*
X230000Y-870000D02*
X230000Y-770000D01*
X130000Y-770000D01*
X130000Y-870000D01*
D15*
X141703Y-859492D02*
X153387Y-859492D01*
X141703Y-859492D02*
X141703Y-856246D01*
X141705Y-856159D01*
X141711Y-856071D01*
X141721Y-855985D01*
X141734Y-855898D01*
X141752Y-855813D01*
X141773Y-855728D01*
X141798Y-855644D01*
X141827Y-855562D01*
X141860Y-855481D01*
X141896Y-855401D01*
X141935Y-855323D01*
X141979Y-855247D01*
X142025Y-855173D01*
X142075Y-855102D01*
X142128Y-855032D01*
X142184Y-854965D01*
X142243Y-854901D01*
X142304Y-854839D01*
X142369Y-854780D01*
X142436Y-854724D01*
X142506Y-854671D01*
X142577Y-854621D01*
X142651Y-854575D01*
X142727Y-854532D01*
X142805Y-854492D01*
X142885Y-854456D01*
X142966Y-854423D01*
X143048Y-854394D01*
X143132Y-854369D01*
X143217Y-854348D01*
X143302Y-854330D01*
X143389Y-854317D01*
X143475Y-854307D01*
X143563Y-854301D01*
X143650Y-854299D01*
X147545Y-854299D01*
X147632Y-854301D01*
X147720Y-854307D01*
X147806Y-854317D01*
X147893Y-854330D01*
X147978Y-854348D01*
X148063Y-854369D01*
X148147Y-854394D01*
X148229Y-854423D01*
X148310Y-854456D01*
X148390Y-854492D01*
X148468Y-854531D01*
X148544Y-854575D01*
X148618Y-854621D01*
X148689Y-854671D01*
X148759Y-854724D01*
X148826Y-854780D01*
X148891Y-854839D01*
X148952Y-854901D01*
X149011Y-854965D01*
X149067Y-855032D01*
X149120Y-855102D01*
X149170Y-855173D01*
X149216Y-855247D01*
X149260Y-855323D01*
X149299Y-855401D01*
X149335Y-855481D01*
X149368Y-855562D01*
X149397Y-855644D01*
X149422Y-855728D01*
X149443Y-855813D01*
X149461Y-855898D01*
X149474Y-855985D01*
X149484Y-856072D01*
X149490Y-856159D01*
X149492Y-856246D01*
X149492Y-859492D01*
X146896Y-849645D02*
X144299Y-849645D01*
X144299Y-849644D02*
X144198Y-849642D01*
X144098Y-849636D01*
X143998Y-849626D01*
X143898Y-849613D01*
X143799Y-849595D01*
X143700Y-849574D01*
X143603Y-849549D01*
X143506Y-849520D01*
X143411Y-849487D01*
X143317Y-849451D01*
X143225Y-849411D01*
X143134Y-849368D01*
X143045Y-849321D01*
X142958Y-849271D01*
X142872Y-849217D01*
X142789Y-849160D01*
X142709Y-849100D01*
X142630Y-849037D01*
X142554Y-848970D01*
X142481Y-848901D01*
X142411Y-848829D01*
X142343Y-848755D01*
X142278Y-848678D01*
X142217Y-848598D01*
X142158Y-848516D01*
X142103Y-848432D01*
X142051Y-848346D01*
X142002Y-848258D01*
X141957Y-848168D01*
X141915Y-848076D01*
X141877Y-847983D01*
X141843Y-847888D01*
X141812Y-847793D01*
X141785Y-847696D01*
X141762Y-847598D01*
X141742Y-847499D01*
X141727Y-847399D01*
X141715Y-847299D01*
X141707Y-847199D01*
X141703Y-847098D01*
X141703Y-846998D01*
X141707Y-846897D01*
X141715Y-846797D01*
X141727Y-846697D01*
X141742Y-846597D01*
X141762Y-846498D01*
X141785Y-846400D01*
X141812Y-846303D01*
X141843Y-846208D01*
X141877Y-846113D01*
X141915Y-846020D01*
X141957Y-845928D01*
X142002Y-845838D01*
X142051Y-845750D01*
X142103Y-845664D01*
X142158Y-845580D01*
X142217Y-845498D01*
X142278Y-845418D01*
X142343Y-845341D01*
X142411Y-845267D01*
X142481Y-845195D01*
X142554Y-845126D01*
X142630Y-845059D01*
X142709Y-844996D01*
X142789Y-844936D01*
X142872Y-844879D01*
X142958Y-844825D01*
X143045Y-844775D01*
X143134Y-844728D01*
X143225Y-844685D01*
X143317Y-844645D01*
X143411Y-844609D01*
X143506Y-844576D01*
X143603Y-844547D01*
X143700Y-844522D01*
X143799Y-844501D01*
X143898Y-844483D01*
X143998Y-844470D01*
X144098Y-844460D01*
X144198Y-844454D01*
X144299Y-844452D01*
X146896Y-844452D01*
X146997Y-844454D01*
X147097Y-844460D01*
X147197Y-844470D01*
X147297Y-844483D01*
X147396Y-844501D01*
X147495Y-844522D01*
X147592Y-844547D01*
X147689Y-844576D01*
X147784Y-844609D01*
X147878Y-844645D01*
X147970Y-844685D01*
X148061Y-844728D01*
X148150Y-844775D01*
X148237Y-844825D01*
X148323Y-844879D01*
X148406Y-844936D01*
X148486Y-844996D01*
X148565Y-845059D01*
X148641Y-845126D01*
X148714Y-845195D01*
X148784Y-845267D01*
X148852Y-845341D01*
X148917Y-845418D01*
X148978Y-845498D01*
X149037Y-845580D01*
X149092Y-845664D01*
X149144Y-845750D01*
X149193Y-845838D01*
X149238Y-845928D01*
X149280Y-846020D01*
X149318Y-846113D01*
X149352Y-846208D01*
X149383Y-846303D01*
X149410Y-846400D01*
X149433Y-846498D01*
X149453Y-846597D01*
X149468Y-846697D01*
X149480Y-846797D01*
X149488Y-846897D01*
X149492Y-846998D01*
X149492Y-847098D01*
X149488Y-847199D01*
X149480Y-847299D01*
X149468Y-847399D01*
X149453Y-847499D01*
X149433Y-847598D01*
X149410Y-847696D01*
X149383Y-847793D01*
X149352Y-847888D01*
X149318Y-847983D01*
X149280Y-848076D01*
X149238Y-848168D01*
X149193Y-848258D01*
X149144Y-848346D01*
X149092Y-848432D01*
X149037Y-848516D01*
X148978Y-848598D01*
X148917Y-848678D01*
X148852Y-848755D01*
X148784Y-848829D01*
X148714Y-848901D01*
X148641Y-848970D01*
X148565Y-849037D01*
X148486Y-849100D01*
X148406Y-849160D01*
X148323Y-849217D01*
X148237Y-849271D01*
X148150Y-849321D01*
X148061Y-849368D01*
X147970Y-849411D01*
X147878Y-849451D01*
X147784Y-849487D01*
X147689Y-849520D01*
X147592Y-849549D01*
X147495Y-849574D01*
X147396Y-849595D01*
X147297Y-849613D01*
X147197Y-849626D01*
X147097Y-849636D01*
X146997Y-849642D01*
X146896Y-849644D01*
X141703Y-839894D02*
X149492Y-837947D01*
X144299Y-835999D01*
X149492Y-834052D01*
X141703Y-832105D01*
X149492Y-825600D02*
X149492Y-822354D01*
X149492Y-825600D02*
X149490Y-825687D01*
X149484Y-825775D01*
X149474Y-825861D01*
X149461Y-825948D01*
X149443Y-826033D01*
X149422Y-826118D01*
X149397Y-826202D01*
X149368Y-826284D01*
X149335Y-826365D01*
X149299Y-826445D01*
X149260Y-826523D01*
X149216Y-826599D01*
X149170Y-826673D01*
X149120Y-826744D01*
X149067Y-826814D01*
X149011Y-826881D01*
X148952Y-826945D01*
X148890Y-827007D01*
X148826Y-827066D01*
X148759Y-827122D01*
X148689Y-827175D01*
X148618Y-827225D01*
X148544Y-827271D01*
X148468Y-827315D01*
X148390Y-827354D01*
X148310Y-827390D01*
X148229Y-827423D01*
X148147Y-827452D01*
X148063Y-827477D01*
X147978Y-827498D01*
X147893Y-827516D01*
X147806Y-827529D01*
X147720Y-827539D01*
X147632Y-827545D01*
X147545Y-827547D01*
X144299Y-827547D01*
X144299Y-827546D02*
X144198Y-827544D01*
X144098Y-827538D01*
X143998Y-827528D01*
X143898Y-827515D01*
X143799Y-827497D01*
X143700Y-827476D01*
X143603Y-827451D01*
X143506Y-827422D01*
X143411Y-827389D01*
X143317Y-827353D01*
X143225Y-827313D01*
X143134Y-827270D01*
X143045Y-827223D01*
X142958Y-827173D01*
X142872Y-827119D01*
X142789Y-827062D01*
X142709Y-827002D01*
X142630Y-826939D01*
X142554Y-826872D01*
X142481Y-826803D01*
X142411Y-826731D01*
X142343Y-826657D01*
X142278Y-826580D01*
X142217Y-826500D01*
X142158Y-826418D01*
X142103Y-826334D01*
X142051Y-826248D01*
X142002Y-826160D01*
X141957Y-826070D01*
X141915Y-825978D01*
X141877Y-825885D01*
X141843Y-825790D01*
X141812Y-825695D01*
X141785Y-825598D01*
X141762Y-825500D01*
X141742Y-825401D01*
X141727Y-825301D01*
X141715Y-825201D01*
X141707Y-825101D01*
X141703Y-825000D01*
X141703Y-824900D01*
X141707Y-824799D01*
X141715Y-824699D01*
X141727Y-824599D01*
X141742Y-824499D01*
X141762Y-824400D01*
X141785Y-824302D01*
X141812Y-824205D01*
X141843Y-824110D01*
X141877Y-824015D01*
X141915Y-823922D01*
X141957Y-823830D01*
X142002Y-823740D01*
X142051Y-823652D01*
X142103Y-823566D01*
X142158Y-823482D01*
X142217Y-823400D01*
X142278Y-823320D01*
X142343Y-823243D01*
X142411Y-823169D01*
X142481Y-823097D01*
X142554Y-823028D01*
X142630Y-822961D01*
X142709Y-822898D01*
X142789Y-822838D01*
X142872Y-822781D01*
X142958Y-822727D01*
X143045Y-822677D01*
X143134Y-822630D01*
X143225Y-822587D01*
X143317Y-822547D01*
X143411Y-822511D01*
X143506Y-822478D01*
X143603Y-822449D01*
X143700Y-822424D01*
X143799Y-822403D01*
X143898Y-822385D01*
X143998Y-822372D01*
X144098Y-822362D01*
X144198Y-822356D01*
X144299Y-822354D01*
X145597Y-822354D01*
X145597Y-827547D01*
X149492Y-817194D02*
X141703Y-817194D01*
X141703Y-813299D01*
X143001Y-813299D01*
X149492Y-801583D02*
X149492Y-798987D01*
X149492Y-801583D02*
X149490Y-801670D01*
X149484Y-801758D01*
X149474Y-801844D01*
X149461Y-801931D01*
X149443Y-802016D01*
X149422Y-802101D01*
X149397Y-802185D01*
X149368Y-802267D01*
X149335Y-802348D01*
X149299Y-802428D01*
X149260Y-802506D01*
X149216Y-802582D01*
X149170Y-802656D01*
X149120Y-802727D01*
X149067Y-802797D01*
X149011Y-802864D01*
X148952Y-802928D01*
X148890Y-802990D01*
X148826Y-803049D01*
X148759Y-803105D01*
X148689Y-803158D01*
X148618Y-803208D01*
X148544Y-803254D01*
X148468Y-803298D01*
X148390Y-803337D01*
X148310Y-803373D01*
X148229Y-803406D01*
X148147Y-803435D01*
X148063Y-803460D01*
X147978Y-803481D01*
X147893Y-803499D01*
X147806Y-803512D01*
X147720Y-803522D01*
X147632Y-803528D01*
X147545Y-803530D01*
X147545Y-803531D02*
X143650Y-803531D01*
X143650Y-803530D02*
X143563Y-803528D01*
X143475Y-803522D01*
X143389Y-803512D01*
X143302Y-803499D01*
X143217Y-803481D01*
X143132Y-803460D01*
X143048Y-803435D01*
X142966Y-803406D01*
X142885Y-803373D01*
X142805Y-803337D01*
X142727Y-803298D01*
X142651Y-803254D01*
X142577Y-803208D01*
X142506Y-803158D01*
X142436Y-803105D01*
X142369Y-803049D01*
X142305Y-802990D01*
X142243Y-802928D01*
X142184Y-802864D01*
X142128Y-802797D01*
X142075Y-802727D01*
X142025Y-802656D01*
X141979Y-802582D01*
X141935Y-802506D01*
X141896Y-802428D01*
X141860Y-802348D01*
X141827Y-802267D01*
X141798Y-802185D01*
X141773Y-802101D01*
X141752Y-802016D01*
X141734Y-801931D01*
X141721Y-801844D01*
X141711Y-801758D01*
X141705Y-801670D01*
X141703Y-801583D01*
X141703Y-798987D01*
X144948Y-792568D02*
X144948Y-789647D01*
X144948Y-792568D02*
X144950Y-792662D01*
X144956Y-792756D01*
X144965Y-792849D01*
X144979Y-792942D01*
X144996Y-793034D01*
X145018Y-793126D01*
X145042Y-793216D01*
X145071Y-793306D01*
X145103Y-793394D01*
X145139Y-793481D01*
X145179Y-793566D01*
X145222Y-793649D01*
X145268Y-793731D01*
X145318Y-793811D01*
X145371Y-793888D01*
X145427Y-793963D01*
X145486Y-794036D01*
X145548Y-794107D01*
X145613Y-794175D01*
X145681Y-794240D01*
X145752Y-794302D01*
X145825Y-794361D01*
X145900Y-794417D01*
X145977Y-794470D01*
X146057Y-794520D01*
X146139Y-794566D01*
X146222Y-794609D01*
X146307Y-794649D01*
X146394Y-794685D01*
X146482Y-794717D01*
X146572Y-794746D01*
X146662Y-794770D01*
X146754Y-794792D01*
X146846Y-794809D01*
X146939Y-794823D01*
X147032Y-794832D01*
X147126Y-794838D01*
X147220Y-794840D01*
X147314Y-794838D01*
X147408Y-794832D01*
X147501Y-794823D01*
X147594Y-794809D01*
X147686Y-794792D01*
X147778Y-794770D01*
X147868Y-794746D01*
X147958Y-794717D01*
X148046Y-794685D01*
X148133Y-794649D01*
X148218Y-794609D01*
X148301Y-794566D01*
X148383Y-794520D01*
X148463Y-794470D01*
X148540Y-794417D01*
X148615Y-794361D01*
X148688Y-794302D01*
X148759Y-794240D01*
X148827Y-794175D01*
X148892Y-794107D01*
X148954Y-794036D01*
X149013Y-793963D01*
X149069Y-793888D01*
X149122Y-793811D01*
X149172Y-793731D01*
X149218Y-793649D01*
X149261Y-793566D01*
X149301Y-793481D01*
X149337Y-793394D01*
X149369Y-793306D01*
X149398Y-793216D01*
X149422Y-793126D01*
X149444Y-793034D01*
X149461Y-792942D01*
X149475Y-792849D01*
X149484Y-792756D01*
X149490Y-792662D01*
X149492Y-792568D01*
X149492Y-789647D01*
X143650Y-789647D01*
X143563Y-789649D01*
X143475Y-789655D01*
X143389Y-789665D01*
X143302Y-789678D01*
X143217Y-789696D01*
X143132Y-789717D01*
X143048Y-789742D01*
X142966Y-789771D01*
X142885Y-789804D01*
X142805Y-789840D01*
X142727Y-789879D01*
X142651Y-789923D01*
X142577Y-789969D01*
X142506Y-790019D01*
X142436Y-790072D01*
X142369Y-790128D01*
X142304Y-790187D01*
X142243Y-790249D01*
X142184Y-790313D01*
X142128Y-790380D01*
X142075Y-790450D01*
X142025Y-790521D01*
X141979Y-790595D01*
X141935Y-790671D01*
X141896Y-790749D01*
X141860Y-790829D01*
X141827Y-790910D01*
X141798Y-790992D01*
X141773Y-791076D01*
X141752Y-791161D01*
X141734Y-791246D01*
X141721Y-791333D01*
X141711Y-791420D01*
X141705Y-791507D01*
X141703Y-791594D01*
X141703Y-794191D01*
X141703Y-784054D02*
X153387Y-784054D01*
X141703Y-784054D02*
X141703Y-780809D01*
X141705Y-780722D01*
X141711Y-780634D01*
X141721Y-780548D01*
X141734Y-780461D01*
X141752Y-780376D01*
X141773Y-780291D01*
X141798Y-780207D01*
X141827Y-780125D01*
X141860Y-780044D01*
X141896Y-779964D01*
X141935Y-779886D01*
X141979Y-779810D01*
X142025Y-779736D01*
X142075Y-779665D01*
X142128Y-779595D01*
X142184Y-779528D01*
X142243Y-779464D01*
X142304Y-779402D01*
X142369Y-779343D01*
X142436Y-779287D01*
X142506Y-779234D01*
X142577Y-779184D01*
X142651Y-779138D01*
X142727Y-779095D01*
X142805Y-779055D01*
X142885Y-779019D01*
X142966Y-778986D01*
X143048Y-778957D01*
X143132Y-778932D01*
X143217Y-778911D01*
X143302Y-778893D01*
X143389Y-778880D01*
X143475Y-778870D01*
X143563Y-778864D01*
X143650Y-778862D01*
X143650Y-778861D02*
X147545Y-778861D01*
X147545Y-778862D02*
X147632Y-778864D01*
X147720Y-778870D01*
X147806Y-778880D01*
X147893Y-778893D01*
X147978Y-778911D01*
X148063Y-778932D01*
X148147Y-778957D01*
X148229Y-778986D01*
X148310Y-779019D01*
X148390Y-779055D01*
X148468Y-779094D01*
X148544Y-779138D01*
X148618Y-779184D01*
X148689Y-779234D01*
X148759Y-779287D01*
X148826Y-779343D01*
X148891Y-779402D01*
X148952Y-779464D01*
X149011Y-779528D01*
X149067Y-779595D01*
X149120Y-779665D01*
X149170Y-779736D01*
X149216Y-779810D01*
X149260Y-779886D01*
X149299Y-779964D01*
X149335Y-780044D01*
X149368Y-780125D01*
X149397Y-780207D01*
X149422Y-780291D01*
X149443Y-780376D01*
X149461Y-780461D01*
X149474Y-780548D01*
X149484Y-780635D01*
X149490Y-780722D01*
X149492Y-780809D01*
X149492Y-784054D01*
X166792Y-852399D02*
X166792Y-855645D01*
X166790Y-855732D01*
X166784Y-855820D01*
X166774Y-855906D01*
X166761Y-855993D01*
X166743Y-856078D01*
X166722Y-856163D01*
X166697Y-856247D01*
X166668Y-856329D01*
X166635Y-856410D01*
X166599Y-856490D01*
X166560Y-856568D01*
X166516Y-856644D01*
X166470Y-856718D01*
X166420Y-856789D01*
X166367Y-856859D01*
X166311Y-856926D01*
X166252Y-856990D01*
X166190Y-857052D01*
X166126Y-857111D01*
X166059Y-857167D01*
X165989Y-857220D01*
X165918Y-857270D01*
X165844Y-857316D01*
X165768Y-857360D01*
X165690Y-857399D01*
X165610Y-857435D01*
X165529Y-857468D01*
X165447Y-857497D01*
X165363Y-857522D01*
X165278Y-857543D01*
X165193Y-857561D01*
X165106Y-857574D01*
X165020Y-857584D01*
X164932Y-857590D01*
X164845Y-857592D01*
X160950Y-857592D01*
X160863Y-857590D01*
X160775Y-857584D01*
X160689Y-857574D01*
X160602Y-857561D01*
X160517Y-857543D01*
X160432Y-857522D01*
X160348Y-857497D01*
X160266Y-857468D01*
X160185Y-857435D01*
X160105Y-857399D01*
X160027Y-857360D01*
X159951Y-857316D01*
X159877Y-857270D01*
X159806Y-857220D01*
X159736Y-857167D01*
X159669Y-857111D01*
X159605Y-857052D01*
X159543Y-856990D01*
X159484Y-856926D01*
X159428Y-856859D01*
X159375Y-856789D01*
X159325Y-856718D01*
X159279Y-856644D01*
X159235Y-856568D01*
X159196Y-856490D01*
X159160Y-856410D01*
X159127Y-856329D01*
X159098Y-856247D01*
X159073Y-856163D01*
X159052Y-856078D01*
X159034Y-855993D01*
X159021Y-855906D01*
X159011Y-855820D01*
X159005Y-855732D01*
X159003Y-855645D01*
X159003Y-852399D01*
X168739Y-852399D01*
X168826Y-852401D01*
X168914Y-852407D01*
X169000Y-852417D01*
X169087Y-852430D01*
X169172Y-852448D01*
X169257Y-852469D01*
X169341Y-852494D01*
X169423Y-852523D01*
X169504Y-852556D01*
X169584Y-852592D01*
X169662Y-852631D01*
X169738Y-852675D01*
X169812Y-852721D01*
X169883Y-852771D01*
X169953Y-852824D01*
X170020Y-852880D01*
X170085Y-852939D01*
X170146Y-853001D01*
X170205Y-853065D01*
X170261Y-853132D01*
X170314Y-853202D01*
X170364Y-853273D01*
X170410Y-853347D01*
X170454Y-853423D01*
X170493Y-853501D01*
X170529Y-853581D01*
X170562Y-853662D01*
X170591Y-853744D01*
X170616Y-853828D01*
X170637Y-853913D01*
X170655Y-853998D01*
X170668Y-854085D01*
X170678Y-854172D01*
X170684Y-854259D01*
X170686Y-854346D01*
X170687Y-854346D02*
X170687Y-856943D01*
X166792Y-846865D02*
X159003Y-846865D01*
X159003Y-843620D01*
X159005Y-843533D01*
X159011Y-843445D01*
X159021Y-843359D01*
X159034Y-843272D01*
X159052Y-843187D01*
X159073Y-843102D01*
X159098Y-843018D01*
X159127Y-842936D01*
X159160Y-842855D01*
X159196Y-842775D01*
X159235Y-842697D01*
X159279Y-842621D01*
X159325Y-842547D01*
X159375Y-842476D01*
X159428Y-842406D01*
X159484Y-842339D01*
X159543Y-842275D01*
X159604Y-842213D01*
X159669Y-842154D01*
X159736Y-842098D01*
X159806Y-842045D01*
X159877Y-841995D01*
X159951Y-841949D01*
X160027Y-841906D01*
X160105Y-841866D01*
X160185Y-841830D01*
X160266Y-841797D01*
X160348Y-841768D01*
X160432Y-841743D01*
X160517Y-841722D01*
X160602Y-841704D01*
X160689Y-841691D01*
X160775Y-841681D01*
X160863Y-841675D01*
X160950Y-841673D01*
X160950Y-841672D02*
X166792Y-841672D01*
X166792Y-831444D02*
X155108Y-831444D01*
X166792Y-831444D02*
X166792Y-834690D01*
X166790Y-834777D01*
X166784Y-834865D01*
X166774Y-834951D01*
X166761Y-835038D01*
X166743Y-835123D01*
X166722Y-835208D01*
X166697Y-835292D01*
X166668Y-835374D01*
X166635Y-835455D01*
X166599Y-835535D01*
X166560Y-835613D01*
X166516Y-835689D01*
X166470Y-835763D01*
X166420Y-835834D01*
X166367Y-835904D01*
X166311Y-835971D01*
X166252Y-836035D01*
X166190Y-836097D01*
X166126Y-836156D01*
X166059Y-836212D01*
X165989Y-836265D01*
X165918Y-836315D01*
X165844Y-836361D01*
X165768Y-836405D01*
X165690Y-836444D01*
X165610Y-836480D01*
X165529Y-836513D01*
X165447Y-836542D01*
X165363Y-836567D01*
X165278Y-836588D01*
X165193Y-836606D01*
X165106Y-836619D01*
X165020Y-836629D01*
X164932Y-836635D01*
X164845Y-836637D01*
X160950Y-836637D01*
X160863Y-836635D01*
X160775Y-836629D01*
X160689Y-836619D01*
X160602Y-836606D01*
X160517Y-836588D01*
X160432Y-836567D01*
X160348Y-836542D01*
X160266Y-836513D01*
X160185Y-836480D01*
X160105Y-836444D01*
X160027Y-836405D01*
X159951Y-836361D01*
X159877Y-836315D01*
X159806Y-836265D01*
X159736Y-836212D01*
X159669Y-836156D01*
X159605Y-836097D01*
X159543Y-836035D01*
X159484Y-835971D01*
X159428Y-835904D01*
X159375Y-835834D01*
X159325Y-835763D01*
X159279Y-835689D01*
X159235Y-835613D01*
X159196Y-835535D01*
X159160Y-835455D01*
X159127Y-835374D01*
X159098Y-835292D01*
X159073Y-835208D01*
X159052Y-835123D01*
X159034Y-835038D01*
X159021Y-834951D01*
X159011Y-834865D01*
X159005Y-834777D01*
X159003Y-834690D01*
X159003Y-831444D01*
X159003Y-806792D02*
X166792Y-804196D01*
X159003Y-801599D01*
X166792Y-795306D02*
X166792Y-792710D01*
X166792Y-795306D02*
X166790Y-795393D01*
X166784Y-795481D01*
X166774Y-795567D01*
X166761Y-795654D01*
X166743Y-795739D01*
X166722Y-795824D01*
X166697Y-795908D01*
X166668Y-795990D01*
X166635Y-796071D01*
X166599Y-796151D01*
X166560Y-796229D01*
X166516Y-796305D01*
X166470Y-796379D01*
X166420Y-796450D01*
X166367Y-796520D01*
X166311Y-796587D01*
X166252Y-796651D01*
X166190Y-796713D01*
X166126Y-796772D01*
X166059Y-796828D01*
X165989Y-796881D01*
X165918Y-796931D01*
X165844Y-796977D01*
X165768Y-797021D01*
X165690Y-797060D01*
X165610Y-797096D01*
X165529Y-797129D01*
X165447Y-797158D01*
X165363Y-797183D01*
X165278Y-797204D01*
X165193Y-797222D01*
X165106Y-797235D01*
X165020Y-797245D01*
X164932Y-797251D01*
X164845Y-797253D01*
X164845Y-797254D02*
X160950Y-797254D01*
X160950Y-797253D02*
X160863Y-797251D01*
X160775Y-797245D01*
X160689Y-797235D01*
X160602Y-797222D01*
X160517Y-797204D01*
X160432Y-797183D01*
X160348Y-797158D01*
X160266Y-797129D01*
X160185Y-797096D01*
X160105Y-797060D01*
X160027Y-797021D01*
X159951Y-796977D01*
X159877Y-796931D01*
X159806Y-796881D01*
X159736Y-796828D01*
X159669Y-796772D01*
X159605Y-796713D01*
X159543Y-796651D01*
X159484Y-796587D01*
X159428Y-796520D01*
X159375Y-796450D01*
X159325Y-796379D01*
X159279Y-796305D01*
X159235Y-796229D01*
X159196Y-796151D01*
X159160Y-796071D01*
X159127Y-795990D01*
X159098Y-795908D01*
X159073Y-795824D01*
X159052Y-795739D01*
X159034Y-795654D01*
X159021Y-795567D01*
X159011Y-795481D01*
X159005Y-795393D01*
X159003Y-795306D01*
X159003Y-792710D01*
X166792Y-786543D02*
X166792Y-783947D01*
X166792Y-786543D02*
X166790Y-786630D01*
X166784Y-786718D01*
X166774Y-786804D01*
X166761Y-786891D01*
X166743Y-786976D01*
X166722Y-787061D01*
X166697Y-787145D01*
X166668Y-787227D01*
X166635Y-787308D01*
X166599Y-787388D01*
X166560Y-787466D01*
X166516Y-787542D01*
X166470Y-787616D01*
X166420Y-787687D01*
X166367Y-787757D01*
X166311Y-787824D01*
X166252Y-787888D01*
X166190Y-787950D01*
X166126Y-788009D01*
X166059Y-788065D01*
X165989Y-788118D01*
X165918Y-788168D01*
X165844Y-788214D01*
X165768Y-788258D01*
X165690Y-788297D01*
X165610Y-788333D01*
X165529Y-788366D01*
X165447Y-788395D01*
X165363Y-788420D01*
X165278Y-788441D01*
X165193Y-788459D01*
X165106Y-788472D01*
X165020Y-788482D01*
X164932Y-788488D01*
X164845Y-788490D01*
X164845Y-788491D02*
X160950Y-788491D01*
X160950Y-788490D02*
X160863Y-788488D01*
X160775Y-788482D01*
X160689Y-788472D01*
X160602Y-788459D01*
X160517Y-788441D01*
X160432Y-788420D01*
X160348Y-788395D01*
X160266Y-788366D01*
X160185Y-788333D01*
X160105Y-788297D01*
X160027Y-788258D01*
X159951Y-788214D01*
X159877Y-788168D01*
X159806Y-788118D01*
X159736Y-788065D01*
X159669Y-788009D01*
X159605Y-787950D01*
X159543Y-787888D01*
X159484Y-787824D01*
X159428Y-787757D01*
X159375Y-787687D01*
X159325Y-787616D01*
X159279Y-787542D01*
X159235Y-787466D01*
X159196Y-787388D01*
X159160Y-787308D01*
X159127Y-787227D01*
X159098Y-787145D01*
X159073Y-787061D01*
X159052Y-786976D01*
X159034Y-786891D01*
X159021Y-786804D01*
X159011Y-786718D01*
X159005Y-786630D01*
X159003Y-786543D01*
X159003Y-783947D01*
D14*
X488900Y19500D02*
X494250Y19500D01*
X481000Y11600D02*
X481000Y-11600D01*
X488900Y-19500D02*
X494250Y-19500D01*
D15*
X476792Y-3373D02*
X465108Y-3373D01*
X476792Y-4671D02*
X476792Y-2074D01*
X465108Y-2074D02*
X465108Y-4671D01*
X476792Y5089D02*
X476792Y7686D01*
X476792Y5089D02*
X476790Y4990D01*
X476784Y4890D01*
X476775Y4791D01*
X476762Y4693D01*
X476745Y4595D01*
X476724Y4497D01*
X476699Y4401D01*
X476671Y4306D01*
X476639Y4212D01*
X476604Y4119D01*
X476565Y4027D01*
X476522Y3937D01*
X476477Y3849D01*
X476427Y3762D01*
X476375Y3678D01*
X476319Y3595D01*
X476261Y3515D01*
X476199Y3437D01*
X476134Y3362D01*
X476066Y3289D01*
X475996Y3219D01*
X475923Y3151D01*
X475848Y3086D01*
X475770Y3024D01*
X475690Y2966D01*
X475607Y2910D01*
X475523Y2858D01*
X475436Y2808D01*
X475348Y2763D01*
X475258Y2720D01*
X475166Y2681D01*
X475073Y2646D01*
X474979Y2614D01*
X474884Y2586D01*
X474788Y2561D01*
X474690Y2540D01*
X474592Y2523D01*
X474494Y2510D01*
X474395Y2501D01*
X474295Y2495D01*
X474196Y2493D01*
X467704Y2493D01*
X467704Y2492D02*
X467605Y2494D01*
X467505Y2500D01*
X467406Y2509D01*
X467308Y2522D01*
X467210Y2540D01*
X467112Y2560D01*
X467016Y2585D01*
X466920Y2613D01*
X466826Y2645D01*
X466733Y2680D01*
X466642Y2719D01*
X466552Y2762D01*
X466463Y2807D01*
X466377Y2857D01*
X466292Y2909D01*
X466210Y2965D01*
X466130Y3024D01*
X466052Y3085D01*
X465976Y3150D01*
X465903Y3218D01*
X465833Y3288D01*
X465765Y3361D01*
X465700Y3437D01*
X465639Y3515D01*
X465580Y3595D01*
X465524Y3677D01*
X465472Y3762D01*
X465423Y3848D01*
X465377Y3937D01*
X465334Y4027D01*
X465295Y4118D01*
X465260Y4211D01*
X465228Y4305D01*
X465200Y4401D01*
X465175Y4497D01*
X465155Y4595D01*
X465137Y4693D01*
X465124Y4791D01*
X465115Y4890D01*
X465109Y4989D01*
X465107Y5089D01*
X465108Y5089D02*
X465108Y7686D01*
X467704Y12051D02*
X465108Y15296D01*
X476792Y15296D01*
X476792Y12051D02*
X476792Y18542D01*
M02*
