G04 EAGLE Gerber RS-274X export*
G75*
%MOMM*%
%FSLAX34Y34*%
%LPD*%
%INTop Copper*%
%IPPOS*%
%AMOC8*
5,1,8,0,0,1.08239X$1,22.5*%
G01*
%ADD10C,1.108000*%
%ADD11P,1.429621X8X22.500000*%
%ADD12C,1.524000*%
%ADD13C,1.308000*%
%ADD14C,0.609600*%
%ADD15C,0.812800*%


D10*
X444460Y12700D02*
X455540Y12700D01*
X455540Y0D02*
X444460Y0D01*
X444460Y-12700D02*
X455540Y-12700D01*
X12700Y-444460D02*
X12700Y-455540D01*
X0Y-455540D02*
X0Y-444460D01*
X-12700Y-444460D02*
X-12700Y-455540D01*
X233229Y-378563D02*
X238769Y-388159D01*
X227770Y-394509D02*
X222230Y-384913D01*
X211231Y-391263D02*
X216771Y-400859D01*
X391263Y-211231D02*
X400859Y-216771D01*
X394509Y-227770D02*
X384913Y-222230D01*
X378563Y-233229D02*
X388159Y-238769D01*
X378563Y233229D02*
X388159Y238768D01*
X394509Y227770D02*
X384913Y222230D01*
X391263Y211232D02*
X400859Y216771D01*
X211231Y391263D02*
X216771Y400859D01*
X227770Y394509D02*
X222230Y384913D01*
X233229Y378563D02*
X238769Y388159D01*
X-12700Y444460D02*
X-12700Y455540D01*
X0Y455540D02*
X0Y444460D01*
X12700Y444460D02*
X12700Y455540D01*
X-233229Y378563D02*
X-238768Y388159D01*
X-227770Y394509D02*
X-222230Y384913D01*
X-211232Y391263D02*
X-216771Y400859D01*
X-391263Y211232D02*
X-400859Y216771D01*
X-394509Y227770D02*
X-384913Y222230D01*
X-378563Y233229D02*
X-388159Y238768D01*
X-444460Y-12700D02*
X-455540Y-12700D01*
X-455540Y0D02*
X-444460Y0D01*
X-444460Y12700D02*
X-455540Y12700D01*
X-378563Y-233229D02*
X-388159Y-238769D01*
X-394509Y-227770D02*
X-384913Y-222230D01*
X-391263Y-211231D02*
X-400859Y-216771D01*
X-211231Y-391263D02*
X-216771Y-400859D01*
X-227770Y-394509D02*
X-222230Y-384913D01*
X-233229Y-378563D02*
X-238769Y-388159D01*
D11*
X-132700Y-420000D03*
X-107300Y-420000D03*
X-132700Y-360000D03*
X-107300Y-360000D03*
D12*
X550620Y-86119D02*
X564941Y-91331D01*
X556253Y-115199D02*
X541932Y-109987D01*
X533245Y-133855D02*
X547566Y-139068D01*
X538879Y-162936D02*
X524558Y-157723D01*
X515871Y-181592D02*
X530191Y-186804D01*
X521504Y-210672D02*
X507183Y-205460D01*
X498496Y-229328D02*
X512817Y-234540D01*
X504129Y-258408D02*
X489809Y-253196D01*
X481121Y-277064D02*
X495442Y-282277D01*
X486755Y-306145D02*
X472434Y-300932D01*
X463747Y-324801D02*
X478068Y-330013D01*
X469380Y-353881D02*
X455059Y-348669D01*
D13*
X-105000Y-510000D03*
X-155000Y-510000D03*
D14*
X450000Y-12700D02*
X526025Y-88725D01*
X557780Y-88725D01*
X540406Y-136461D02*
X330000Y73944D01*
X330000Y289360D02*
X235999Y383361D01*
X330000Y289360D02*
X330000Y73944D01*
X391389Y-20000D02*
X531718Y-160330D01*
X391389Y-20000D02*
X340000Y-20000D01*
X12700Y307300D01*
X12700Y450000D01*
X-214001Y396061D02*
X272060Y-90000D01*
X428833Y-90000D02*
X523031Y-184198D01*
X428833Y-90000D02*
X272060Y-90000D01*
X-376291Y228928D02*
X-383361Y235999D01*
X-37337Y-110000D02*
X410000Y-110000D01*
X-376265Y228928D02*
X-376291Y228928D01*
X-376265Y228928D02*
X-37337Y-110000D01*
X410000Y-110000D02*
X510000Y-210000D01*
X512410Y-210000D02*
X514344Y-208066D01*
X512410Y-210000D02*
X510000Y-210000D01*
X-392700Y12700D02*
X-450000Y12700D01*
X403722Y-130000D02*
X505656Y-231934D01*
X-250000Y-130000D02*
X-392700Y12700D01*
X-250000Y-130000D02*
X403722Y-130000D01*
X-332060Y-150000D02*
X-396061Y-214001D01*
X391167Y-150000D02*
X496969Y-255802D01*
X391167Y-150000D02*
X-332060Y-150000D01*
X-22638Y-170000D02*
X380000Y-170000D01*
X-228928Y-376291D02*
X-235999Y-383361D01*
X-228928Y-376291D02*
X-228893Y-376230D01*
X-228858Y-376220D01*
X-22638Y-170000D01*
X380000Y-170000D02*
X430000Y-220000D01*
X430000Y-280000D01*
X487952Y-280000D01*
X488282Y-279670D01*
X383361Y-313361D02*
X383361Y-235999D01*
X421275Y-351275D02*
X462220Y-351275D01*
X421275Y-351275D02*
X383361Y-313361D01*
D15*
X-242500Y-442500D02*
X-315000Y-370000D01*
X-340000Y-370000D01*
X-242500Y-442500D02*
X-215000Y-415000D01*
X-214001Y-414001D01*
X-214001Y-396061D01*
X-340000Y-370000D02*
X-420000Y-290000D01*
X-440000Y-270000D01*
X-440000Y-150000D02*
X-480000Y-110000D01*
X-480000Y-30000D01*
X-480000Y200000D01*
X-480000Y220000D01*
X-440000Y-150000D02*
X-440000Y-270000D01*
X-480000Y220000D02*
X-290000Y410000D01*
X-230000Y470000D01*
X-10000Y470000D01*
X170000Y470000D01*
X230000Y470000D01*
X480000Y220000D02*
X480000Y40000D01*
X410000Y290000D02*
X230000Y470000D01*
X410000Y290000D02*
X480000Y220000D01*
D14*
X477300Y40000D02*
X450000Y12700D01*
X477300Y40000D02*
X480000Y40000D01*
X383361Y235999D02*
X410000Y262638D01*
X410000Y290000D01*
X214001Y396061D02*
X170000Y440062D01*
X170000Y470000D01*
X-12700Y467300D02*
X-12700Y450000D01*
X-12700Y467300D02*
X-10000Y470000D01*
X-235999Y383361D02*
X-263361Y383361D01*
X-290000Y410000D01*
X-396061Y214001D02*
X-410062Y200000D01*
X-480000Y200000D01*
X-450000Y-12700D02*
X-467300Y-30000D01*
X-480000Y-30000D01*
X-383361Y-235999D02*
X-383361Y-253361D01*
X-420000Y-290000D01*
X23337Y-490000D02*
X230000Y-490000D01*
X18367Y-485030D02*
X10000Y-485030D01*
X18367Y-485030D02*
X23337Y-490000D01*
X230000Y-490000D02*
X290000Y-430000D01*
X350000Y-370000D01*
X350000Y-190000D01*
X372060Y-190000D01*
X396061Y-214001D01*
X235999Y-383361D02*
X282638Y-430000D01*
X290000Y-430000D01*
X12700Y-450000D02*
X12700Y-482330D01*
X10000Y-485030D01*
D15*
X-132700Y-487700D02*
X-155000Y-510000D01*
X-132700Y-487700D02*
X-132700Y-420000D01*
D14*
X-130030Y-485030D02*
X-132700Y-487700D01*
X-130030Y-485030D02*
X10000Y-485030D01*
D15*
X-132700Y-420000D02*
X-132700Y-360000D01*
X-210000Y-420000D02*
X-215000Y-415000D01*
X-210000Y-420000D02*
X-132700Y-420000D01*
M02*
