G04 EAGLE Gerber RS-274X export*
G75*
%MOMM*%
%FSLAX34Y34*%
%LPD*%
%INBottom Copper*%
%IPPOS*%
%AMOC8*
5,1,8,0,0,1.08239X$1,22.5*%
G01*
%ADD10C,1.108000*%
%ADD11P,1.429621X8X22.500000*%
%ADD12C,1.524000*%
%ADD13C,1.308000*%
%ADD14C,0.609600*%
%ADD15C,0.812800*%


D10*
X444460Y12700D02*
X455540Y12700D01*
X455540Y0D02*
X444460Y0D01*
X444460Y-12700D02*
X455540Y-12700D01*
X12700Y-444460D02*
X12700Y-455540D01*
X0Y-455540D02*
X0Y-444460D01*
X-12700Y-444460D02*
X-12700Y-455540D01*
X233229Y-378563D02*
X238769Y-388159D01*
X227770Y-394509D02*
X222230Y-384913D01*
X211231Y-391263D02*
X216771Y-400859D01*
X391263Y-211231D02*
X400859Y-216771D01*
X394509Y-227770D02*
X384913Y-222230D01*
X378563Y-233229D02*
X388159Y-238769D01*
X378563Y233229D02*
X388159Y238768D01*
X394509Y227770D02*
X384913Y222230D01*
X391263Y211232D02*
X400859Y216771D01*
X211231Y391263D02*
X216771Y400859D01*
X227770Y394509D02*
X222230Y384913D01*
X233229Y378563D02*
X238769Y388159D01*
X-12700Y444460D02*
X-12700Y455540D01*
X0Y455540D02*
X0Y444460D01*
X12700Y444460D02*
X12700Y455540D01*
X-233229Y378563D02*
X-238768Y388159D01*
X-227770Y394509D02*
X-222230Y384913D01*
X-211232Y391263D02*
X-216771Y400859D01*
X-391263Y211232D02*
X-400859Y216771D01*
X-394509Y227770D02*
X-384913Y222230D01*
X-378563Y233229D02*
X-388159Y238768D01*
X-444460Y-12700D02*
X-455540Y-12700D01*
X-455540Y0D02*
X-444460Y0D01*
X-444460Y12700D02*
X-455540Y12700D01*
X-378563Y-233229D02*
X-388159Y-238769D01*
X-394509Y-227770D02*
X-384913Y-222230D01*
X-391263Y-211231D02*
X-400859Y-216771D01*
X-211231Y-391263D02*
X-216771Y-400859D01*
X-227770Y-394509D02*
X-222230Y-384913D01*
X-233229Y-378563D02*
X-238769Y-388159D01*
D11*
X-132700Y-420000D03*
X-107300Y-420000D03*
X-132700Y-360000D03*
X-107300Y-360000D03*
D12*
X550620Y-86119D02*
X564941Y-91331D01*
X556253Y-115199D02*
X541932Y-109987D01*
X533245Y-133855D02*
X547566Y-139068D01*
X538879Y-162936D02*
X524558Y-157723D01*
X515871Y-181592D02*
X530191Y-186804D01*
X521504Y-210672D02*
X507183Y-205460D01*
X498496Y-229328D02*
X512817Y-234540D01*
X504129Y-258408D02*
X489809Y-253196D01*
X481121Y-277064D02*
X495442Y-282277D01*
X486755Y-306145D02*
X472434Y-300932D01*
X463747Y-324801D02*
X478068Y-330013D01*
X469380Y-353881D02*
X455059Y-348669D01*
D13*
X-105000Y-510000D03*
X-155000Y-510000D03*
D14*
X550062Y60000D02*
X396061Y214001D01*
X550062Y60000D02*
X590000Y60000D01*
X600000Y50000D01*
X600000Y-110000D01*
X597407Y-112593D02*
X549093Y-112593D01*
X597407Y-112593D02*
X600000Y-110000D01*
X-4189Y-465652D02*
X-10112Y-459729D01*
X-10112Y-452588D02*
X-12700Y-450000D01*
X-10112Y-452588D02*
X-10112Y-459729D01*
X255652Y-465652D02*
X270000Y-480000D01*
X255652Y-465652D02*
X-4189Y-465652D01*
X270000Y-480000D02*
X350000Y-480000D01*
X430000Y-400000D02*
X460000Y-400000D01*
X490318Y-369682D01*
X510000Y-341573D01*
X510000Y-310000D01*
X503539Y-303539D01*
X479594Y-303539D01*
X430000Y-400000D02*
X350000Y-480000D01*
X221072Y-403132D02*
X214001Y-396061D01*
X221072Y-403132D02*
X221107Y-403192D01*
X221142Y-403202D01*
X277940Y-460000D01*
X442593Y-327407D02*
X470907Y-327407D01*
X310000Y-460000D02*
X277940Y-460000D01*
X310000Y-460000D02*
X442593Y-327407D01*
D15*
X0Y0D02*
X-105000Y-105000D01*
X0Y0D02*
X0Y-450000D01*
X225000Y-389711D02*
X225000Y-386567D01*
X221287Y-382854D01*
X221287Y-221287D02*
X0Y0D01*
X221287Y-221287D02*
X221287Y-382854D01*
X385416Y-220705D02*
X389711Y-225000D01*
X163144Y0D02*
X163143Y0D01*
X383849Y-220705D02*
X385416Y-220705D01*
X383849Y-220705D02*
X163144Y0D01*
X450000Y0D01*
X385416Y220705D02*
X389711Y225000D01*
X163143Y0D02*
X0Y0D01*
X383849Y220705D02*
X385416Y220705D01*
X383849Y220705D02*
X163143Y0D01*
X225000Y386567D02*
X225000Y389711D01*
X225000Y386567D02*
X221287Y382854D01*
X221287Y221287D02*
X0Y0D01*
X221287Y221287D02*
X221287Y382854D01*
X0Y450000D02*
X0Y0D01*
X-225000Y386567D02*
X-225000Y389711D01*
X-225000Y386567D02*
X-221287Y382854D01*
X-221287Y221287D02*
X0Y0D01*
X-221287Y221287D02*
X-221287Y382854D01*
X-163144Y0D02*
X-163143Y0D01*
X-385416Y-220705D02*
X-389711Y-225000D01*
X-163143Y0D02*
X0Y0D01*
X-383849Y-220705D02*
X-385416Y-220705D01*
X-383849Y-220705D02*
X-163143Y0D01*
X-220705Y-385416D02*
X-225000Y-389711D01*
X-105000Y-268143D02*
X-105000Y-105000D01*
X-220705Y-383849D02*
X-220705Y-385416D01*
X-220705Y-383849D02*
X-105000Y-268143D01*
D14*
X-163143Y0D02*
X-164685Y0D01*
X-382640Y217929D02*
X-389711Y225000D01*
X-382640Y217929D02*
X-382615Y217929D01*
X-164685Y0D01*
X-450000Y0D01*
D15*
X-105000Y-268143D02*
X-105000Y-357700D01*
X-107300Y-360000D01*
X-107300Y-420000D01*
X-107300Y-507700D01*
X-105000Y-510000D01*
M02*
