G04 EAGLE Gerber RS-274X export*
G75*
%MOMM*%
%FSLAX34Y34*%
%LPD*%
%IN*%
%IPPOS*%
%AMOC8*
5,1,8,0,0,1.08239X$1,22.5*%
G01*
%ADD10C,0.254000*%


D10*
X630000Y-7732D02*
X630000Y7732D01*
X629621Y23190D01*
X628862Y38635D01*
X627724Y54056D01*
X626209Y69445D01*
X624316Y84792D01*
X622047Y100088D01*
X619403Y115324D01*
X616386Y130490D01*
X612998Y145578D01*
X609241Y160577D01*
X605117Y175481D01*
X600628Y190278D01*
X595777Y204961D01*
X590568Y219520D01*
X585003Y233947D01*
X579085Y248234D01*
X572819Y262370D01*
X566208Y276349D01*
X559255Y290161D01*
X551966Y303799D01*
X544344Y317253D01*
X536394Y330516D01*
X528121Y343581D01*
X519530Y356438D01*
X510626Y369080D01*
X501415Y381501D01*
X491902Y393691D01*
X482092Y405644D01*
X471991Y417353D01*
X461607Y428811D01*
X450944Y440010D01*
X440010Y450944D01*
X428811Y461607D01*
X417353Y471991D01*
X405644Y482092D01*
X393691Y491902D01*
X381501Y501415D01*
X369080Y510626D01*
X356438Y519530D01*
X343581Y528121D01*
X330516Y536394D01*
X317253Y544344D01*
X303799Y551966D01*
X290161Y559255D01*
X276349Y566208D01*
X262370Y572819D01*
X248234Y579085D01*
X233947Y585003D01*
X219520Y590568D01*
X204961Y595777D01*
X190278Y600628D01*
X175481Y605117D01*
X160577Y609241D01*
X145578Y612998D01*
X130490Y616386D01*
X115324Y619403D01*
X100088Y622047D01*
X84792Y624316D01*
X69445Y626209D01*
X54056Y627724D01*
X38635Y628862D01*
X23190Y629621D01*
X7732Y630000D01*
X-7732Y630000D01*
X-23190Y629621D01*
X-38635Y628862D01*
X-54056Y627724D01*
X-69445Y626209D01*
X-84792Y624316D01*
X-100088Y622047D01*
X-115324Y619403D01*
X-130490Y616386D01*
X-145578Y612998D01*
X-160577Y609241D01*
X-175481Y605117D01*
X-190278Y600628D01*
X-204961Y595777D01*
X-219520Y590568D01*
X-233947Y585003D01*
X-248234Y579085D01*
X-262370Y572819D01*
X-276349Y566208D01*
X-290161Y559255D01*
X-303799Y551966D01*
X-317253Y544344D01*
X-330516Y536394D01*
X-343581Y528121D01*
X-356438Y519530D01*
X-369080Y510626D01*
X-381501Y501415D01*
X-393691Y491902D01*
X-405644Y482092D01*
X-417353Y471991D01*
X-428811Y461607D01*
X-440010Y450944D01*
X-450944Y440010D01*
X-461607Y428811D01*
X-471991Y417353D01*
X-482092Y405644D01*
X-491902Y393691D01*
X-501415Y381501D01*
X-510626Y369080D01*
X-519530Y356438D01*
X-528121Y343581D01*
X-536394Y330516D01*
X-544344Y317253D01*
X-551966Y303799D01*
X-559255Y290161D01*
X-566208Y276349D01*
X-572819Y262370D01*
X-579085Y248234D01*
X-585003Y233947D01*
X-590568Y219520D01*
X-595777Y204961D01*
X-600628Y190278D01*
X-605117Y175481D01*
X-609241Y160577D01*
X-612998Y145578D01*
X-616386Y130490D01*
X-619403Y115324D01*
X-622047Y100088D01*
X-624316Y84792D01*
X-626209Y69445D01*
X-627724Y54056D01*
X-628862Y38635D01*
X-629621Y23190D01*
X-630000Y7732D01*
X-630000Y-7732D01*
X-629621Y-23190D01*
X-628862Y-38635D01*
X-627724Y-54056D01*
X-626209Y-69445D01*
X-624316Y-84792D01*
X-622047Y-100088D01*
X-619403Y-115324D01*
X-616386Y-130490D01*
X-612998Y-145578D01*
X-609241Y-160577D01*
X-605117Y-175481D01*
X-600628Y-190278D01*
X-595777Y-204961D01*
X-590568Y-219520D01*
X-585003Y-233947D01*
X-579085Y-248234D01*
X-572819Y-262370D01*
X-566208Y-276349D01*
X-559255Y-290161D01*
X-551966Y-303799D01*
X-544344Y-317253D01*
X-536394Y-330516D01*
X-528121Y-343581D01*
X-519530Y-356438D01*
X-510626Y-369080D01*
X-501415Y-381501D01*
X-491902Y-393691D01*
X-482092Y-405644D01*
X-471991Y-417353D01*
X-461607Y-428811D01*
X-450944Y-440010D01*
X-440010Y-450944D01*
X-428811Y-461607D01*
X-417353Y-471991D01*
X-405644Y-482092D01*
X-393691Y-491902D01*
X-381501Y-501415D01*
X-369080Y-510626D01*
X-356438Y-519530D01*
X-343581Y-528121D01*
X-330516Y-536394D01*
X-317253Y-544344D01*
X-303799Y-551966D01*
X-290161Y-559255D01*
X-276349Y-566208D01*
X-262370Y-572819D01*
X-248234Y-579085D01*
X-233947Y-585003D01*
X-219520Y-590568D01*
X-204961Y-595777D01*
X-190278Y-600628D01*
X-175481Y-605117D01*
X-160577Y-609241D01*
X-145578Y-612998D01*
X-130490Y-616386D01*
X-115324Y-619403D01*
X-100088Y-622047D01*
X-84792Y-624316D01*
X-69445Y-626209D01*
X-54056Y-627724D01*
X-38635Y-628862D01*
X-23190Y-629621D01*
X-7732Y-630000D01*
X7732Y-630000D01*
X23190Y-629621D01*
X38635Y-628862D01*
X54056Y-627724D01*
X69445Y-626209D01*
X84792Y-624316D01*
X100088Y-622047D01*
X115324Y-619403D01*
X130490Y-616386D01*
X145578Y-612998D01*
X160577Y-609241D01*
X175481Y-605117D01*
X190278Y-600628D01*
X204961Y-595777D01*
X219520Y-590568D01*
X233947Y-585003D01*
X248234Y-579085D01*
X262370Y-572819D01*
X276349Y-566208D01*
X290161Y-559255D01*
X303799Y-551966D01*
X317253Y-544344D01*
X330516Y-536394D01*
X343581Y-528121D01*
X356438Y-519530D01*
X369080Y-510626D01*
X381501Y-501415D01*
X393691Y-491902D01*
X405644Y-482092D01*
X417353Y-471991D01*
X428811Y-461607D01*
X440010Y-450944D01*
X450944Y-440010D01*
X461607Y-428811D01*
X471991Y-417353D01*
X482092Y-405644D01*
X491902Y-393691D01*
X501415Y-381501D01*
X510626Y-369080D01*
X519530Y-356438D01*
X528121Y-343581D01*
X536394Y-330516D01*
X544344Y-317253D01*
X551966Y-303799D01*
X559255Y-290161D01*
X566208Y-276349D01*
X572819Y-262370D01*
X579085Y-248234D01*
X585003Y-233947D01*
X590568Y-219520D01*
X595777Y-204961D01*
X600628Y-190278D01*
X605117Y-175481D01*
X609241Y-160577D01*
X612998Y-145578D01*
X616386Y-130490D01*
X619403Y-115324D01*
X622047Y-100088D01*
X624316Y-84792D01*
X626209Y-69445D01*
X627724Y-54056D01*
X628862Y-38635D01*
X629621Y-23190D01*
X630000Y-7732D01*
X581000Y-895D02*
X581000Y895D01*
X580922Y2682D01*
X580766Y4465D01*
X580532Y6239D01*
X580222Y8001D01*
X579835Y9747D01*
X579371Y11476D01*
X578833Y13182D01*
X578221Y14864D01*
X577537Y16517D01*
X576781Y18138D01*
X575954Y19725D01*
X575060Y21275D01*
X574098Y22784D01*
X573072Y24249D01*
X571983Y25669D01*
X570833Y27040D01*
X569624Y28359D01*
X568359Y29624D01*
X567040Y30833D01*
X565669Y31983D01*
X564249Y33072D01*
X562784Y34098D01*
X561275Y35060D01*
X559725Y35954D01*
X558138Y36781D01*
X556517Y37537D01*
X554864Y38221D01*
X553182Y38833D01*
X551476Y39371D01*
X549747Y39835D01*
X548001Y40222D01*
X546239Y40532D01*
X544465Y40766D01*
X542682Y40922D01*
X540895Y41000D01*
X539105Y41000D01*
X537318Y40922D01*
X535535Y40766D01*
X533761Y40532D01*
X531999Y40222D01*
X530253Y39835D01*
X528524Y39371D01*
X526818Y38833D01*
X525137Y38221D01*
X523483Y37537D01*
X521862Y36781D01*
X520275Y35954D01*
X518725Y35060D01*
X517216Y34098D01*
X515751Y33072D01*
X514331Y31983D01*
X512960Y30833D01*
X511641Y29624D01*
X510376Y28359D01*
X509167Y27040D01*
X508017Y25669D01*
X506928Y24249D01*
X505902Y22784D01*
X504940Y21275D01*
X504046Y19725D01*
X503219Y18138D01*
X502463Y16517D01*
X501779Y14864D01*
X501167Y13182D01*
X500629Y11476D01*
X500166Y9747D01*
X499778Y8001D01*
X499468Y6239D01*
X499234Y4465D01*
X499078Y2682D01*
X499000Y895D01*
X499000Y-895D01*
X499078Y-2682D01*
X499234Y-4465D01*
X499468Y-6239D01*
X499778Y-8001D01*
X500166Y-9747D01*
X500629Y-11476D01*
X501167Y-13182D01*
X501779Y-14864D01*
X502463Y-16517D01*
X503219Y-18138D01*
X504046Y-19725D01*
X504940Y-21275D01*
X505902Y-22784D01*
X506928Y-24249D01*
X508017Y-25669D01*
X509167Y-27040D01*
X510376Y-28359D01*
X511641Y-29624D01*
X512960Y-30833D01*
X514331Y-31983D01*
X515751Y-33072D01*
X517216Y-34098D01*
X518725Y-35060D01*
X520275Y-35954D01*
X521862Y-36781D01*
X523483Y-37537D01*
X525137Y-38221D01*
X526818Y-38833D01*
X528524Y-39371D01*
X530253Y-39835D01*
X531999Y-40222D01*
X533761Y-40532D01*
X535535Y-40766D01*
X537318Y-40922D01*
X539105Y-41000D01*
X540895Y-41000D01*
X542682Y-40922D01*
X544465Y-40766D01*
X546239Y-40532D01*
X548001Y-40222D01*
X549747Y-39835D01*
X551476Y-39371D01*
X553182Y-38833D01*
X554864Y-38221D01*
X556517Y-37537D01*
X558138Y-36781D01*
X559725Y-35954D01*
X561275Y-35060D01*
X562784Y-34098D01*
X564249Y-33072D01*
X565669Y-31983D01*
X567040Y-30833D01*
X568359Y-29624D01*
X569624Y-28359D01*
X570833Y-27040D01*
X571983Y-25669D01*
X573072Y-24249D01*
X574098Y-22784D01*
X575060Y-21275D01*
X575954Y-19725D01*
X576781Y-18138D01*
X577537Y-16517D01*
X578221Y-14864D01*
X578833Y-13182D01*
X579371Y-11476D01*
X579835Y-9747D01*
X580222Y-8001D01*
X580532Y-6239D01*
X580766Y-4465D01*
X580922Y-2682D01*
X581000Y-895D01*
X41000Y539105D02*
X41000Y540895D01*
X40922Y542682D01*
X40766Y544465D01*
X40532Y546239D01*
X40222Y548001D01*
X39835Y549747D01*
X39371Y551476D01*
X38833Y553182D01*
X38221Y554864D01*
X37537Y556517D01*
X36781Y558138D01*
X35954Y559725D01*
X35060Y561275D01*
X34098Y562784D01*
X33072Y564249D01*
X31983Y565669D01*
X30833Y567040D01*
X29624Y568359D01*
X28359Y569624D01*
X27040Y570833D01*
X25669Y571983D01*
X24249Y573072D01*
X22784Y574098D01*
X21275Y575060D01*
X19725Y575954D01*
X18138Y576781D01*
X16517Y577537D01*
X14864Y578221D01*
X13182Y578833D01*
X11476Y579371D01*
X9747Y579835D01*
X8001Y580222D01*
X6239Y580532D01*
X4465Y580766D01*
X2682Y580922D01*
X895Y581000D01*
X-895Y581000D01*
X-2682Y580922D01*
X-4465Y580766D01*
X-6239Y580532D01*
X-8001Y580222D01*
X-9747Y579835D01*
X-11476Y579371D01*
X-13182Y578833D01*
X-14864Y578221D01*
X-16517Y577537D01*
X-18138Y576781D01*
X-19725Y575954D01*
X-21275Y575060D01*
X-22784Y574098D01*
X-24249Y573072D01*
X-25669Y571983D01*
X-27040Y570833D01*
X-28359Y569624D01*
X-29624Y568359D01*
X-30833Y567040D01*
X-31983Y565669D01*
X-33072Y564249D01*
X-34098Y562784D01*
X-35060Y561275D01*
X-35954Y559725D01*
X-36781Y558138D01*
X-37537Y556517D01*
X-38221Y554864D01*
X-38833Y553182D01*
X-39371Y551476D01*
X-39835Y549747D01*
X-40222Y548001D01*
X-40532Y546239D01*
X-40766Y544465D01*
X-40922Y542682D01*
X-41000Y540895D01*
X-41000Y539105D01*
X-40922Y537318D01*
X-40766Y535535D01*
X-40532Y533761D01*
X-40222Y531999D01*
X-39835Y530253D01*
X-39371Y528524D01*
X-38833Y526818D01*
X-38221Y525137D01*
X-37537Y523483D01*
X-36781Y521862D01*
X-35954Y520275D01*
X-35060Y518725D01*
X-34098Y517216D01*
X-33072Y515751D01*
X-31983Y514331D01*
X-30833Y512960D01*
X-29624Y511641D01*
X-28359Y510376D01*
X-27040Y509167D01*
X-25669Y508017D01*
X-24249Y506928D01*
X-22784Y505902D01*
X-21275Y504940D01*
X-19725Y504046D01*
X-18138Y503219D01*
X-16517Y502463D01*
X-14864Y501779D01*
X-13182Y501167D01*
X-11476Y500629D01*
X-9747Y500166D01*
X-8001Y499778D01*
X-6239Y499468D01*
X-4465Y499234D01*
X-2682Y499078D01*
X-895Y499000D01*
X895Y499000D01*
X2682Y499078D01*
X4465Y499234D01*
X6239Y499468D01*
X8001Y499778D01*
X9747Y500166D01*
X11476Y500629D01*
X13182Y501167D01*
X14864Y501779D01*
X16517Y502463D01*
X18138Y503219D01*
X19725Y504046D01*
X21275Y504940D01*
X22784Y505902D01*
X24249Y506928D01*
X25669Y508017D01*
X27040Y509167D01*
X28359Y510376D01*
X29624Y511641D01*
X30833Y512960D01*
X31983Y514331D01*
X33072Y515751D01*
X34098Y517216D01*
X35060Y518725D01*
X35954Y520275D01*
X36781Y521862D01*
X37537Y523483D01*
X38221Y525137D01*
X38833Y526818D01*
X39371Y528524D01*
X39835Y530253D01*
X40222Y531999D01*
X40532Y533761D01*
X40766Y535535D01*
X40922Y537318D01*
X41000Y539105D01*
X-499000Y-895D02*
X-499000Y895D01*
X-499078Y2682D01*
X-499234Y4465D01*
X-499468Y6239D01*
X-499778Y8001D01*
X-500166Y9747D01*
X-500629Y11476D01*
X-501167Y13182D01*
X-501779Y14864D01*
X-502463Y16517D01*
X-503219Y18138D01*
X-504046Y19725D01*
X-504940Y21275D01*
X-505902Y22784D01*
X-506928Y24249D01*
X-508017Y25669D01*
X-509167Y27040D01*
X-510376Y28359D01*
X-511641Y29624D01*
X-512960Y30833D01*
X-514331Y31983D01*
X-515751Y33072D01*
X-517216Y34098D01*
X-518725Y35060D01*
X-520275Y35954D01*
X-521862Y36781D01*
X-523483Y37537D01*
X-525137Y38221D01*
X-526818Y38833D01*
X-528524Y39371D01*
X-530253Y39835D01*
X-531999Y40222D01*
X-533761Y40532D01*
X-535535Y40766D01*
X-537318Y40922D01*
X-539105Y41000D01*
X-540895Y41000D01*
X-542682Y40922D01*
X-544465Y40766D01*
X-546239Y40532D01*
X-548001Y40222D01*
X-549747Y39835D01*
X-551476Y39371D01*
X-553182Y38833D01*
X-554864Y38221D01*
X-556517Y37537D01*
X-558138Y36781D01*
X-559725Y35954D01*
X-561275Y35060D01*
X-562784Y34098D01*
X-564249Y33072D01*
X-565669Y31983D01*
X-567040Y30833D01*
X-568359Y29624D01*
X-569624Y28359D01*
X-570833Y27040D01*
X-571983Y25669D01*
X-573072Y24249D01*
X-574098Y22784D01*
X-575060Y21275D01*
X-575954Y19725D01*
X-576781Y18138D01*
X-577537Y16517D01*
X-578221Y14864D01*
X-578833Y13182D01*
X-579371Y11476D01*
X-579835Y9747D01*
X-580222Y8001D01*
X-580532Y6239D01*
X-580766Y4465D01*
X-580922Y2682D01*
X-581000Y895D01*
X-581000Y-895D01*
X-580922Y-2682D01*
X-580766Y-4465D01*
X-580532Y-6239D01*
X-580222Y-8001D01*
X-579835Y-9747D01*
X-579371Y-11476D01*
X-578833Y-13182D01*
X-578221Y-14864D01*
X-577537Y-16517D01*
X-576781Y-18138D01*
X-575954Y-19725D01*
X-575060Y-21275D01*
X-574098Y-22784D01*
X-573072Y-24249D01*
X-571983Y-25669D01*
X-570833Y-27040D01*
X-569624Y-28359D01*
X-568359Y-29624D01*
X-567040Y-30833D01*
X-565669Y-31983D01*
X-564249Y-33072D01*
X-562784Y-34098D01*
X-561275Y-35060D01*
X-559725Y-35954D01*
X-558138Y-36781D01*
X-556517Y-37537D01*
X-554864Y-38221D01*
X-553182Y-38833D01*
X-551476Y-39371D01*
X-549747Y-39835D01*
X-548001Y-40222D01*
X-546239Y-40532D01*
X-544465Y-40766D01*
X-542682Y-40922D01*
X-540895Y-41000D01*
X-539105Y-41000D01*
X-537318Y-40922D01*
X-535535Y-40766D01*
X-533761Y-40532D01*
X-531999Y-40222D01*
X-530253Y-39835D01*
X-528524Y-39371D01*
X-526818Y-38833D01*
X-525137Y-38221D01*
X-523483Y-37537D01*
X-521862Y-36781D01*
X-520275Y-35954D01*
X-518725Y-35060D01*
X-517216Y-34098D01*
X-515751Y-33072D01*
X-514331Y-31983D01*
X-512960Y-30833D01*
X-511641Y-29624D01*
X-510376Y-28359D01*
X-509167Y-27040D01*
X-508017Y-25669D01*
X-506928Y-24249D01*
X-505902Y-22784D01*
X-504940Y-21275D01*
X-504046Y-19725D01*
X-503219Y-18138D01*
X-502463Y-16517D01*
X-501779Y-14864D01*
X-501167Y-13182D01*
X-500629Y-11476D01*
X-500166Y-9747D01*
X-499778Y-8001D01*
X-499468Y-6239D01*
X-499234Y-4465D01*
X-499078Y-2682D01*
X-499000Y-895D01*
X41000Y-540895D02*
X41000Y-539105D01*
X40922Y-537318D01*
X40766Y-535535D01*
X40532Y-533761D01*
X40222Y-531999D01*
X39835Y-530253D01*
X39371Y-528524D01*
X38833Y-526818D01*
X38221Y-525137D01*
X37537Y-523483D01*
X36781Y-521862D01*
X35954Y-520275D01*
X35060Y-518725D01*
X34098Y-517216D01*
X33072Y-515751D01*
X31983Y-514331D01*
X30833Y-512960D01*
X29624Y-511641D01*
X28359Y-510376D01*
X27040Y-509167D01*
X25669Y-508017D01*
X24249Y-506928D01*
X22784Y-505902D01*
X21275Y-504940D01*
X19725Y-504046D01*
X18138Y-503219D01*
X16517Y-502463D01*
X14864Y-501779D01*
X13182Y-501167D01*
X11476Y-500629D01*
X9747Y-500166D01*
X8001Y-499778D01*
X6239Y-499468D01*
X4465Y-499234D01*
X2682Y-499078D01*
X895Y-499000D01*
X-895Y-499000D01*
X-2682Y-499078D01*
X-4465Y-499234D01*
X-6239Y-499468D01*
X-8001Y-499778D01*
X-9747Y-500166D01*
X-11476Y-500629D01*
X-13182Y-501167D01*
X-14864Y-501779D01*
X-16517Y-502463D01*
X-18138Y-503219D01*
X-19725Y-504046D01*
X-21275Y-504940D01*
X-22784Y-505902D01*
X-24249Y-506928D01*
X-25669Y-508017D01*
X-27040Y-509167D01*
X-28359Y-510376D01*
X-29624Y-511641D01*
X-30833Y-512960D01*
X-31983Y-514331D01*
X-33072Y-515751D01*
X-34098Y-517216D01*
X-35060Y-518725D01*
X-35954Y-520275D01*
X-36781Y-521862D01*
X-37537Y-523483D01*
X-38221Y-525137D01*
X-38833Y-526818D01*
X-39371Y-528524D01*
X-39835Y-530253D01*
X-40222Y-531999D01*
X-40532Y-533761D01*
X-40766Y-535535D01*
X-40922Y-537318D01*
X-41000Y-539105D01*
X-41000Y-540895D01*
X-40922Y-542682D01*
X-40766Y-544465D01*
X-40532Y-546239D01*
X-40222Y-548001D01*
X-39835Y-549747D01*
X-39371Y-551476D01*
X-38833Y-553182D01*
X-38221Y-554864D01*
X-37537Y-556517D01*
X-36781Y-558138D01*
X-35954Y-559725D01*
X-35060Y-561275D01*
X-34098Y-562784D01*
X-33072Y-564249D01*
X-31983Y-565669D01*
X-30833Y-567040D01*
X-29624Y-568359D01*
X-28359Y-569624D01*
X-27040Y-570833D01*
X-25669Y-571983D01*
X-24249Y-573072D01*
X-22784Y-574098D01*
X-21275Y-575060D01*
X-19725Y-575954D01*
X-18138Y-576781D01*
X-16517Y-577537D01*
X-14864Y-578221D01*
X-13182Y-578833D01*
X-11476Y-579371D01*
X-9747Y-579835D01*
X-8001Y-580222D01*
X-6239Y-580532D01*
X-4465Y-580766D01*
X-2682Y-580922D01*
X-895Y-581000D01*
X895Y-581000D01*
X2682Y-580922D01*
X4465Y-580766D01*
X6239Y-580532D01*
X8001Y-580222D01*
X9747Y-579835D01*
X11476Y-579371D01*
X13182Y-578833D01*
X14864Y-578221D01*
X16517Y-577537D01*
X18138Y-576781D01*
X19725Y-575954D01*
X21275Y-575060D01*
X22784Y-574098D01*
X24249Y-573072D01*
X25669Y-571983D01*
X27040Y-570833D01*
X28359Y-569624D01*
X29624Y-568359D01*
X30833Y-567040D01*
X31983Y-565669D01*
X33072Y-564249D01*
X34098Y-562784D01*
X35060Y-561275D01*
X35954Y-559725D01*
X36781Y-558138D01*
X37537Y-556517D01*
X38221Y-554864D01*
X38833Y-553182D01*
X39371Y-551476D01*
X39835Y-549747D01*
X40222Y-548001D01*
X40532Y-546239D01*
X40766Y-544465D01*
X40922Y-542682D01*
X41000Y-540895D01*
M02*
