G04 EAGLE Gerber RS-274X export*
G75*
%MOMM*%
%FSLAX34Y34*%
%LPD*%
%INSilkscreen Top*%
%IPPOS*%
%AMOC8*
5,1,8,0,0,1.08239X$1,22.5*%
G01*
%ADD10C,0.203200*%
%ADD11C,0.101600*%
%ADD12C,0.152400*%
%ADD13C,0.254000*%
%ADD14C,0.127000*%


D10*
X454250Y19500D02*
X448900Y19500D01*
X441000Y11600D02*
X441000Y-11600D01*
X448900Y-19500D02*
X454250Y-19500D01*
D11*
X436792Y-3373D02*
X425108Y-3373D01*
X436792Y-4671D02*
X436792Y-2074D01*
X425108Y-2074D02*
X425108Y-4671D01*
X436792Y5089D02*
X436792Y7686D01*
X436792Y5089D02*
X436790Y4990D01*
X436784Y4890D01*
X436775Y4791D01*
X436762Y4693D01*
X436745Y4595D01*
X436724Y4497D01*
X436699Y4401D01*
X436671Y4306D01*
X436639Y4212D01*
X436604Y4119D01*
X436565Y4027D01*
X436522Y3937D01*
X436477Y3849D01*
X436427Y3762D01*
X436375Y3678D01*
X436319Y3595D01*
X436261Y3515D01*
X436199Y3437D01*
X436134Y3362D01*
X436066Y3289D01*
X435996Y3219D01*
X435923Y3151D01*
X435848Y3086D01*
X435770Y3024D01*
X435690Y2966D01*
X435607Y2910D01*
X435523Y2858D01*
X435436Y2808D01*
X435348Y2763D01*
X435258Y2720D01*
X435166Y2681D01*
X435073Y2646D01*
X434979Y2614D01*
X434884Y2586D01*
X434788Y2561D01*
X434690Y2540D01*
X434592Y2523D01*
X434494Y2510D01*
X434395Y2501D01*
X434295Y2495D01*
X434196Y2493D01*
X427704Y2493D01*
X427704Y2492D02*
X427605Y2494D01*
X427505Y2500D01*
X427406Y2509D01*
X427308Y2522D01*
X427210Y2540D01*
X427112Y2560D01*
X427016Y2585D01*
X426920Y2613D01*
X426826Y2645D01*
X426733Y2680D01*
X426642Y2719D01*
X426552Y2762D01*
X426463Y2807D01*
X426377Y2857D01*
X426292Y2909D01*
X426210Y2965D01*
X426130Y3024D01*
X426052Y3085D01*
X425976Y3150D01*
X425903Y3218D01*
X425833Y3288D01*
X425765Y3361D01*
X425700Y3437D01*
X425639Y3515D01*
X425580Y3595D01*
X425524Y3677D01*
X425472Y3762D01*
X425423Y3848D01*
X425377Y3937D01*
X425334Y4027D01*
X425295Y4118D01*
X425260Y4211D01*
X425228Y4305D01*
X425200Y4401D01*
X425175Y4497D01*
X425155Y4595D01*
X425137Y4693D01*
X425124Y4791D01*
X425115Y4890D01*
X425109Y4989D01*
X425107Y5089D01*
X425108Y5089D02*
X425108Y7686D01*
X427704Y12051D02*
X425108Y15296D01*
X436792Y15296D01*
X436792Y12051D02*
X436792Y18542D01*
D10*
X19500Y-448900D02*
X19500Y-454250D01*
X11600Y-441000D02*
X-11600Y-441000D01*
X-19500Y-448900D02*
X-19500Y-454250D01*
D11*
X-14803Y-436792D02*
X-14803Y-425108D01*
X-16101Y-436792D02*
X-13504Y-436792D01*
X-13504Y-425108D02*
X-16101Y-425108D01*
X-6341Y-436792D02*
X-3744Y-436792D01*
X-6341Y-436792D02*
X-6440Y-436790D01*
X-6540Y-436784D01*
X-6639Y-436775D01*
X-6737Y-436762D01*
X-6835Y-436745D01*
X-6933Y-436724D01*
X-7029Y-436699D01*
X-7124Y-436671D01*
X-7218Y-436639D01*
X-7311Y-436604D01*
X-7403Y-436565D01*
X-7493Y-436522D01*
X-7581Y-436477D01*
X-7668Y-436427D01*
X-7752Y-436375D01*
X-7835Y-436319D01*
X-7915Y-436261D01*
X-7993Y-436199D01*
X-8068Y-436134D01*
X-8141Y-436066D01*
X-8211Y-435996D01*
X-8279Y-435923D01*
X-8344Y-435848D01*
X-8406Y-435770D01*
X-8464Y-435690D01*
X-8520Y-435607D01*
X-8572Y-435523D01*
X-8622Y-435436D01*
X-8667Y-435348D01*
X-8710Y-435258D01*
X-8749Y-435166D01*
X-8784Y-435073D01*
X-8816Y-434979D01*
X-8844Y-434884D01*
X-8869Y-434788D01*
X-8890Y-434690D01*
X-8907Y-434592D01*
X-8920Y-434494D01*
X-8929Y-434395D01*
X-8935Y-434295D01*
X-8937Y-434196D01*
X-8937Y-427704D01*
X-8938Y-427704D02*
X-8936Y-427605D01*
X-8930Y-427505D01*
X-8921Y-427406D01*
X-8908Y-427308D01*
X-8890Y-427210D01*
X-8870Y-427112D01*
X-8845Y-427016D01*
X-8817Y-426920D01*
X-8785Y-426826D01*
X-8750Y-426733D01*
X-8711Y-426642D01*
X-8668Y-426552D01*
X-8623Y-426463D01*
X-8573Y-426377D01*
X-8521Y-426292D01*
X-8465Y-426210D01*
X-8406Y-426130D01*
X-8345Y-426052D01*
X-8280Y-425976D01*
X-8212Y-425903D01*
X-8142Y-425833D01*
X-8069Y-425765D01*
X-7993Y-425700D01*
X-7915Y-425639D01*
X-7835Y-425580D01*
X-7753Y-425524D01*
X-7668Y-425472D01*
X-7582Y-425423D01*
X-7493Y-425377D01*
X-7403Y-425334D01*
X-7312Y-425295D01*
X-7219Y-425260D01*
X-7125Y-425228D01*
X-7029Y-425200D01*
X-6933Y-425175D01*
X-6835Y-425155D01*
X-6737Y-425137D01*
X-6639Y-425124D01*
X-6540Y-425115D01*
X-6441Y-425109D01*
X-6341Y-425107D01*
X-6341Y-425108D02*
X-3744Y-425108D01*
X621Y-427704D02*
X3866Y-425108D01*
X3866Y-436792D01*
X621Y-436792D02*
X7112Y-436792D01*
X12051Y-430950D02*
X12054Y-430720D01*
X12062Y-430490D01*
X12076Y-430261D01*
X12095Y-430032D01*
X12120Y-429803D01*
X12150Y-429575D01*
X12185Y-429348D01*
X12226Y-429122D01*
X12272Y-428897D01*
X12324Y-428673D01*
X12381Y-428450D01*
X12443Y-428229D01*
X12511Y-428009D01*
X12584Y-427791D01*
X12662Y-427575D01*
X12745Y-427361D01*
X12833Y-427149D01*
X12926Y-426938D01*
X13025Y-426731D01*
X13024Y-426731D02*
X13057Y-426641D01*
X13093Y-426552D01*
X13133Y-426464D01*
X13177Y-426379D01*
X13224Y-426295D01*
X13274Y-426213D01*
X13328Y-426133D01*
X13384Y-426056D01*
X13444Y-425980D01*
X13507Y-425907D01*
X13572Y-425837D01*
X13641Y-425769D01*
X13712Y-425705D01*
X13785Y-425643D01*
X13861Y-425584D01*
X13939Y-425528D01*
X14020Y-425475D01*
X14102Y-425426D01*
X14186Y-425380D01*
X14273Y-425337D01*
X14360Y-425298D01*
X14450Y-425262D01*
X14540Y-425230D01*
X14632Y-425202D01*
X14725Y-425177D01*
X14819Y-425156D01*
X14913Y-425139D01*
X15008Y-425125D01*
X15104Y-425116D01*
X15200Y-425110D01*
X15296Y-425108D01*
X15392Y-425110D01*
X15488Y-425116D01*
X15584Y-425125D01*
X15679Y-425139D01*
X15773Y-425156D01*
X15867Y-425177D01*
X15960Y-425202D01*
X16052Y-425230D01*
X16142Y-425262D01*
X16232Y-425298D01*
X16320Y-425337D01*
X16406Y-425380D01*
X16490Y-425426D01*
X16572Y-425475D01*
X16653Y-425528D01*
X16731Y-425584D01*
X16807Y-425643D01*
X16880Y-425705D01*
X16951Y-425769D01*
X17020Y-425837D01*
X17085Y-425907D01*
X17148Y-425980D01*
X17208Y-426056D01*
X17264Y-426133D01*
X17318Y-426213D01*
X17368Y-426295D01*
X17415Y-426379D01*
X17459Y-426464D01*
X17499Y-426552D01*
X17535Y-426641D01*
X17568Y-426731D01*
X17667Y-426938D01*
X17760Y-427149D01*
X17848Y-427361D01*
X17931Y-427575D01*
X18009Y-427791D01*
X18082Y-428009D01*
X18150Y-428229D01*
X18212Y-428450D01*
X18269Y-428673D01*
X18321Y-428897D01*
X18367Y-429122D01*
X18408Y-429348D01*
X18443Y-429575D01*
X18473Y-429803D01*
X18498Y-430032D01*
X18517Y-430261D01*
X18531Y-430490D01*
X18539Y-430720D01*
X18542Y-430950D01*
X12051Y-430950D02*
X12054Y-431180D01*
X12062Y-431410D01*
X12076Y-431639D01*
X12095Y-431868D01*
X12120Y-432097D01*
X12150Y-432325D01*
X12185Y-432552D01*
X12226Y-432778D01*
X12272Y-433003D01*
X12324Y-433227D01*
X12381Y-433450D01*
X12443Y-433671D01*
X12511Y-433891D01*
X12584Y-434109D01*
X12662Y-434325D01*
X12745Y-434539D01*
X12833Y-434751D01*
X12926Y-434962D01*
X13025Y-435169D01*
X13024Y-435169D02*
X13057Y-435259D01*
X13093Y-435348D01*
X13134Y-435436D01*
X13177Y-435521D01*
X13224Y-435605D01*
X13274Y-435687D01*
X13328Y-435767D01*
X13384Y-435844D01*
X13444Y-435920D01*
X13507Y-435993D01*
X13572Y-436063D01*
X13641Y-436131D01*
X13712Y-436195D01*
X13785Y-436257D01*
X13861Y-436316D01*
X13939Y-436372D01*
X14020Y-436425D01*
X14102Y-436474D01*
X14186Y-436520D01*
X14273Y-436563D01*
X14360Y-436602D01*
X14450Y-436638D01*
X14540Y-436670D01*
X14632Y-436698D01*
X14725Y-436723D01*
X14819Y-436744D01*
X14913Y-436761D01*
X15008Y-436775D01*
X15104Y-436784D01*
X15200Y-436790D01*
X15296Y-436792D01*
X17568Y-435169D02*
X17667Y-434962D01*
X17760Y-434751D01*
X17848Y-434539D01*
X17931Y-434325D01*
X18009Y-434109D01*
X18082Y-433891D01*
X18150Y-433671D01*
X18212Y-433450D01*
X18269Y-433227D01*
X18321Y-433003D01*
X18367Y-432778D01*
X18408Y-432552D01*
X18443Y-432325D01*
X18473Y-432097D01*
X18498Y-431868D01*
X18517Y-431639D01*
X18531Y-431410D01*
X18539Y-431180D01*
X18542Y-430950D01*
X17568Y-435169D02*
X17535Y-435259D01*
X17499Y-435348D01*
X17459Y-435436D01*
X17415Y-435521D01*
X17368Y-435605D01*
X17318Y-435687D01*
X17264Y-435767D01*
X17208Y-435844D01*
X17148Y-435920D01*
X17085Y-435993D01*
X17020Y-436063D01*
X16951Y-436131D01*
X16880Y-436195D01*
X16807Y-436257D01*
X16731Y-436316D01*
X16653Y-436372D01*
X16572Y-436425D01*
X16490Y-436474D01*
X16406Y-436520D01*
X16319Y-436563D01*
X16232Y-436602D01*
X16142Y-436638D01*
X16052Y-436670D01*
X15960Y-436698D01*
X15867Y-436723D01*
X15773Y-436744D01*
X15679Y-436761D01*
X15584Y-436775D01*
X15488Y-436784D01*
X15392Y-436790D01*
X15296Y-436792D01*
X12700Y-434196D02*
X17893Y-427704D01*
D10*
X241337Y-379008D02*
X244012Y-383642D01*
X230546Y-376117D02*
X210454Y-387717D01*
X207563Y-398508D02*
X210238Y-403142D01*
D11*
X205577Y-385674D02*
X199735Y-375555D01*
X204452Y-386323D02*
X206701Y-385025D01*
X200859Y-374906D02*
X198610Y-376204D01*
X212905Y-381443D02*
X215153Y-380145D01*
X212904Y-381442D02*
X212817Y-381490D01*
X212728Y-381535D01*
X212638Y-381576D01*
X212546Y-381614D01*
X212452Y-381648D01*
X212358Y-381679D01*
X212262Y-381706D01*
X212165Y-381729D01*
X212068Y-381749D01*
X211969Y-381764D01*
X211871Y-381776D01*
X211772Y-381785D01*
X211672Y-381789D01*
X211573Y-381790D01*
X211473Y-381787D01*
X211374Y-381780D01*
X211275Y-381769D01*
X211177Y-381754D01*
X211079Y-381736D01*
X210982Y-381714D01*
X210886Y-381688D01*
X210791Y-381659D01*
X210697Y-381626D01*
X210605Y-381589D01*
X210514Y-381549D01*
X210424Y-381506D01*
X210337Y-381459D01*
X210251Y-381408D01*
X210167Y-381355D01*
X210085Y-381298D01*
X210006Y-381238D01*
X209929Y-381176D01*
X209854Y-381110D01*
X209782Y-381041D01*
X209713Y-380970D01*
X209646Y-380896D01*
X209582Y-380820D01*
X209521Y-380741D01*
X209464Y-380660D01*
X209409Y-380577D01*
X209358Y-380492D01*
X209358Y-380493D02*
X206112Y-374871D01*
X206113Y-374871D02*
X206065Y-374784D01*
X206020Y-374695D01*
X205979Y-374605D01*
X205941Y-374513D01*
X205907Y-374419D01*
X205876Y-374325D01*
X205849Y-374229D01*
X205826Y-374132D01*
X205806Y-374035D01*
X205791Y-373936D01*
X205779Y-373838D01*
X205770Y-373739D01*
X205766Y-373639D01*
X205765Y-373540D01*
X205768Y-373440D01*
X205775Y-373341D01*
X205786Y-373242D01*
X205801Y-373144D01*
X205819Y-373046D01*
X205841Y-372949D01*
X205867Y-372853D01*
X205896Y-372758D01*
X205929Y-372664D01*
X205966Y-372572D01*
X206006Y-372481D01*
X206049Y-372391D01*
X206096Y-372304D01*
X206147Y-372218D01*
X206200Y-372134D01*
X206257Y-372052D01*
X206317Y-371973D01*
X206379Y-371896D01*
X206445Y-371821D01*
X206514Y-371749D01*
X206585Y-371680D01*
X206659Y-371613D01*
X206735Y-371549D01*
X206814Y-371489D01*
X206895Y-371431D01*
X206978Y-371376D01*
X207063Y-371325D01*
X207063Y-371324D02*
X209311Y-370026D01*
X214390Y-370092D02*
X215902Y-366221D01*
X221744Y-376339D01*
X218934Y-377962D02*
X224555Y-374716D01*
X224289Y-364377D02*
X225801Y-360506D01*
X231643Y-370624D01*
X228832Y-372247D02*
X234454Y-369001D01*
D10*
X398508Y-207563D02*
X403142Y-210238D01*
X387717Y-210454D02*
X376117Y-230546D01*
X379008Y-241337D02*
X383642Y-244012D01*
D11*
X370871Y-231215D02*
X360753Y-225373D01*
X370222Y-232340D02*
X371520Y-230091D01*
X361402Y-224249D02*
X360104Y-226498D01*
X375102Y-223887D02*
X376400Y-221639D01*
X375102Y-223887D02*
X375051Y-223972D01*
X374996Y-224055D01*
X374939Y-224136D01*
X374878Y-224215D01*
X374814Y-224291D01*
X374747Y-224365D01*
X374678Y-224436D01*
X374606Y-224505D01*
X374531Y-224571D01*
X374454Y-224633D01*
X374375Y-224693D01*
X374293Y-224750D01*
X374209Y-224803D01*
X374123Y-224854D01*
X374036Y-224901D01*
X373946Y-224944D01*
X373855Y-224984D01*
X373763Y-225021D01*
X373669Y-225054D01*
X373574Y-225083D01*
X373478Y-225109D01*
X373381Y-225131D01*
X373283Y-225149D01*
X373185Y-225164D01*
X373086Y-225175D01*
X372987Y-225182D01*
X372887Y-225185D01*
X372788Y-225184D01*
X372688Y-225180D01*
X372589Y-225171D01*
X372491Y-225159D01*
X372392Y-225144D01*
X372295Y-225124D01*
X372198Y-225101D01*
X372102Y-225074D01*
X372008Y-225043D01*
X371914Y-225009D01*
X371822Y-224971D01*
X371732Y-224930D01*
X371643Y-224885D01*
X371556Y-224837D01*
X371555Y-224838D02*
X365934Y-221592D01*
X365934Y-221591D02*
X365849Y-221540D01*
X365766Y-221485D01*
X365685Y-221428D01*
X365606Y-221367D01*
X365530Y-221303D01*
X365456Y-221236D01*
X365385Y-221167D01*
X365316Y-221095D01*
X365250Y-221020D01*
X365188Y-220943D01*
X365128Y-220864D01*
X365071Y-220782D01*
X365018Y-220698D01*
X364967Y-220612D01*
X364920Y-220525D01*
X364877Y-220435D01*
X364837Y-220344D01*
X364800Y-220252D01*
X364767Y-220158D01*
X364738Y-220063D01*
X364712Y-219967D01*
X364690Y-219870D01*
X364672Y-219772D01*
X364657Y-219674D01*
X364646Y-219575D01*
X364639Y-219476D01*
X364636Y-219376D01*
X364637Y-219277D01*
X364641Y-219177D01*
X364650Y-219078D01*
X364662Y-218980D01*
X364677Y-218881D01*
X364697Y-218784D01*
X364720Y-218687D01*
X364747Y-218591D01*
X364778Y-218497D01*
X364812Y-218403D01*
X364850Y-218311D01*
X364891Y-218221D01*
X364936Y-218132D01*
X364984Y-218045D01*
X364983Y-218045D02*
X366282Y-215797D01*
X370713Y-213314D02*
X370087Y-209205D01*
X380206Y-215047D01*
X378583Y-217858D02*
X381829Y-212237D01*
X379955Y-197956D02*
X379861Y-197905D01*
X379766Y-197856D01*
X379669Y-197812D01*
X379571Y-197771D01*
X379471Y-197733D01*
X379370Y-197699D01*
X379267Y-197669D01*
X379164Y-197643D01*
X379060Y-197620D01*
X378954Y-197602D01*
X378849Y-197587D01*
X378743Y-197576D01*
X378636Y-197568D01*
X378530Y-197565D01*
X378423Y-197566D01*
X378316Y-197570D01*
X378210Y-197579D01*
X378104Y-197591D01*
X377998Y-197607D01*
X377894Y-197627D01*
X377790Y-197651D01*
X377687Y-197679D01*
X377585Y-197710D01*
X377484Y-197745D01*
X377384Y-197784D01*
X377286Y-197826D01*
X377190Y-197872D01*
X377096Y-197922D01*
X377003Y-197974D01*
X376912Y-198030D01*
X376823Y-198090D01*
X376737Y-198152D01*
X376653Y-198218D01*
X376571Y-198287D01*
X376492Y-198359D01*
X376416Y-198433D01*
X376342Y-198510D01*
X376272Y-198590D01*
X376204Y-198673D01*
X376139Y-198758D01*
X376078Y-198845D01*
X376019Y-198934D01*
X375964Y-199026D01*
X375905Y-199131D01*
X375850Y-199239D01*
X375798Y-199348D01*
X375749Y-199459D01*
X375705Y-199572D01*
X375664Y-199685D01*
X375626Y-199801D01*
X375593Y-199917D01*
X375563Y-200034D01*
X375537Y-200152D01*
X375514Y-200271D01*
X375496Y-200391D01*
X375481Y-200511D01*
X375471Y-200631D01*
X375464Y-200752D01*
X375461Y-200873D01*
X375462Y-200994D01*
X375467Y-201115D01*
X375476Y-201236D01*
X375489Y-201356D01*
X375505Y-201476D01*
X375526Y-201595D01*
X375550Y-201714D01*
X375578Y-201832D01*
X375610Y-201948D01*
X375645Y-202064D01*
X375685Y-202178D01*
X375728Y-202292D01*
X375774Y-202403D01*
X375825Y-202513D01*
X375878Y-202622D01*
X375935Y-202729D01*
X375996Y-202833D01*
X376060Y-202936D01*
X376127Y-203037D01*
X376198Y-203135D01*
X376271Y-203231D01*
X376348Y-203325D01*
X376427Y-203416D01*
X381435Y-199935D02*
X381407Y-199828D01*
X381376Y-199723D01*
X381340Y-199618D01*
X381301Y-199515D01*
X381259Y-199413D01*
X381213Y-199312D01*
X381163Y-199214D01*
X381110Y-199117D01*
X381053Y-199022D01*
X380994Y-198929D01*
X380931Y-198838D01*
X380864Y-198750D01*
X380795Y-198664D01*
X380723Y-198580D01*
X380648Y-198499D01*
X380570Y-198421D01*
X380489Y-198346D01*
X380406Y-198273D01*
X380320Y-198203D01*
X380232Y-198137D01*
X380142Y-198073D01*
X380049Y-198013D01*
X379954Y-197956D01*
X381435Y-199936D02*
X384298Y-207959D01*
X387543Y-202338D01*
D10*
X379008Y241337D02*
X383642Y244012D01*
X376117Y230546D02*
X387717Y210454D01*
X398508Y207563D02*
X403142Y210238D01*
D11*
X369651Y233330D02*
X359532Y227488D01*
X358883Y228612D02*
X360181Y226363D01*
X370300Y232205D02*
X369001Y234454D01*
X363763Y220159D02*
X365061Y217911D01*
X363763Y220160D02*
X363715Y220247D01*
X363670Y220336D01*
X363629Y220426D01*
X363591Y220518D01*
X363557Y220612D01*
X363526Y220706D01*
X363499Y220802D01*
X363476Y220899D01*
X363456Y220996D01*
X363441Y221095D01*
X363429Y221193D01*
X363420Y221292D01*
X363416Y221392D01*
X363415Y221491D01*
X363418Y221591D01*
X363425Y221690D01*
X363436Y221789D01*
X363451Y221887D01*
X363469Y221985D01*
X363491Y222082D01*
X363517Y222178D01*
X363546Y222273D01*
X363579Y222367D01*
X363616Y222459D01*
X363656Y222550D01*
X363699Y222640D01*
X363746Y222727D01*
X363797Y222813D01*
X363850Y222897D01*
X363907Y222979D01*
X363967Y223058D01*
X364029Y223135D01*
X364095Y223210D01*
X364164Y223282D01*
X364235Y223351D01*
X364309Y223418D01*
X364385Y223482D01*
X364464Y223542D01*
X364545Y223600D01*
X364628Y223655D01*
X364713Y223706D01*
X370335Y226952D01*
X370335Y226951D02*
X370422Y226999D01*
X370511Y227044D01*
X370601Y227085D01*
X370693Y227123D01*
X370787Y227157D01*
X370881Y227188D01*
X370977Y227215D01*
X371074Y227238D01*
X371171Y227258D01*
X371270Y227273D01*
X371368Y227285D01*
X371467Y227294D01*
X371567Y227298D01*
X371666Y227299D01*
X371766Y227296D01*
X371865Y227289D01*
X371964Y227278D01*
X372062Y227263D01*
X372160Y227245D01*
X372257Y227223D01*
X372353Y227197D01*
X372448Y227168D01*
X372542Y227135D01*
X372634Y227098D01*
X372725Y227058D01*
X372814Y227015D01*
X372902Y226968D01*
X372988Y226917D01*
X373072Y226864D01*
X373153Y226807D01*
X373233Y226747D01*
X373310Y226685D01*
X373385Y226619D01*
X373457Y226550D01*
X373526Y226479D01*
X373593Y226405D01*
X373657Y226329D01*
X373717Y226250D01*
X373775Y226169D01*
X373830Y226086D01*
X373881Y226001D01*
X375180Y223753D01*
X379148Y216880D02*
X379199Y216787D01*
X379248Y216692D01*
X379292Y216595D01*
X379333Y216497D01*
X379371Y216397D01*
X379405Y216296D01*
X379435Y216193D01*
X379461Y216090D01*
X379484Y215985D01*
X379502Y215880D01*
X379517Y215775D01*
X379528Y215669D01*
X379536Y215562D01*
X379539Y215456D01*
X379538Y215349D01*
X379534Y215242D01*
X379525Y215136D01*
X379513Y215030D01*
X379497Y214924D01*
X379477Y214820D01*
X379453Y214716D01*
X379425Y214613D01*
X379394Y214511D01*
X379359Y214410D01*
X379320Y214310D01*
X379278Y214212D01*
X379232Y214116D01*
X379182Y214022D01*
X379130Y213929D01*
X379074Y213838D01*
X379014Y213749D01*
X378952Y213663D01*
X378886Y213579D01*
X378817Y213497D01*
X378745Y213418D01*
X378671Y213342D01*
X378594Y213268D01*
X378514Y213198D01*
X378431Y213130D01*
X378346Y213065D01*
X378259Y213004D01*
X378170Y212945D01*
X378079Y212890D01*
X379147Y216880D02*
X379085Y216984D01*
X379020Y217086D01*
X378951Y217186D01*
X378879Y217283D01*
X378804Y217378D01*
X378726Y217470D01*
X378645Y217560D01*
X378561Y217648D01*
X378474Y217732D01*
X378385Y217814D01*
X378293Y217893D01*
X378199Y217968D01*
X378102Y218041D01*
X378003Y218110D01*
X377902Y218177D01*
X377798Y218240D01*
X377693Y218299D01*
X377586Y218356D01*
X377477Y218408D01*
X377366Y218457D01*
X377254Y218503D01*
X377141Y218545D01*
X377026Y218583D01*
X376910Y218618D01*
X376793Y218649D01*
X376675Y218675D01*
X376556Y218699D01*
X376437Y218718D01*
X376317Y218733D01*
X376196Y218745D01*
X376075Y218753D01*
X375954Y218757D01*
X375833Y218756D01*
X375713Y218752D01*
X375592Y218745D01*
X375471Y218733D01*
X375351Y218717D01*
X375232Y218698D01*
X375113Y218674D01*
X375624Y212599D02*
X375730Y212569D01*
X375837Y212544D01*
X375946Y212522D01*
X376055Y212504D01*
X376164Y212490D01*
X376274Y212480D01*
X376384Y212473D01*
X376495Y212471D01*
X376605Y212472D01*
X376716Y212478D01*
X376826Y212487D01*
X376935Y212500D01*
X377044Y212517D01*
X377153Y212538D01*
X377261Y212562D01*
X377367Y212591D01*
X377473Y212623D01*
X377578Y212659D01*
X377681Y212698D01*
X377782Y212741D01*
X377882Y212788D01*
X377981Y212838D01*
X378078Y212891D01*
X375624Y212598D02*
X367244Y214130D01*
X370489Y208509D01*
D10*
X207563Y398508D02*
X210238Y403142D01*
X210454Y387717D02*
X230546Y376117D01*
X241337Y379008D02*
X244012Y383642D01*
D11*
X203462Y386894D02*
X197620Y376776D01*
X196496Y377425D02*
X198745Y376127D01*
X204587Y386245D02*
X202338Y387544D01*
X204948Y372545D02*
X207197Y371247D01*
X204949Y372545D02*
X204864Y372596D01*
X204781Y372651D01*
X204700Y372708D01*
X204621Y372769D01*
X204545Y372833D01*
X204471Y372900D01*
X204400Y372969D01*
X204331Y373041D01*
X204265Y373116D01*
X204203Y373193D01*
X204143Y373272D01*
X204086Y373354D01*
X204033Y373438D01*
X203982Y373524D01*
X203935Y373612D01*
X203892Y373701D01*
X203852Y373792D01*
X203815Y373884D01*
X203782Y373978D01*
X203753Y374073D01*
X203727Y374169D01*
X203705Y374266D01*
X203687Y374364D01*
X203672Y374462D01*
X203661Y374561D01*
X203654Y374660D01*
X203651Y374760D01*
X203652Y374859D01*
X203656Y374959D01*
X203665Y375058D01*
X203677Y375157D01*
X203692Y375255D01*
X203712Y375352D01*
X203735Y375449D01*
X203762Y375545D01*
X203793Y375639D01*
X203827Y375733D01*
X203865Y375825D01*
X203906Y375915D01*
X203951Y376004D01*
X203999Y376091D01*
X203998Y376092D02*
X207244Y381713D01*
X207295Y381798D01*
X207350Y381881D01*
X207407Y381962D01*
X207468Y382041D01*
X207532Y382117D01*
X207599Y382191D01*
X207668Y382262D01*
X207740Y382331D01*
X207815Y382397D01*
X207892Y382459D01*
X207971Y382519D01*
X208053Y382576D01*
X208137Y382629D01*
X208223Y382680D01*
X208310Y382727D01*
X208400Y382770D01*
X208491Y382810D01*
X208583Y382847D01*
X208677Y382880D01*
X208772Y382909D01*
X208868Y382935D01*
X208965Y382957D01*
X209063Y382975D01*
X209161Y382990D01*
X209260Y383001D01*
X209359Y383008D01*
X209459Y383011D01*
X209558Y383010D01*
X209658Y383006D01*
X209757Y382997D01*
X209855Y382985D01*
X209954Y382970D01*
X210051Y382950D01*
X210148Y382927D01*
X210244Y382900D01*
X210338Y382869D01*
X210432Y382835D01*
X210524Y382797D01*
X210614Y382756D01*
X210703Y382711D01*
X210790Y382663D01*
X210790Y382664D02*
X213039Y381365D01*
X210977Y369064D02*
X213788Y367441D01*
X213887Y367386D01*
X213988Y367335D01*
X214091Y367287D01*
X214195Y367242D01*
X214301Y367202D01*
X214408Y367165D01*
X214516Y367132D01*
X214626Y367102D01*
X214736Y367077D01*
X214847Y367055D01*
X214959Y367038D01*
X215072Y367024D01*
X215185Y367014D01*
X215298Y367008D01*
X215411Y367006D01*
X215524Y367008D01*
X215637Y367014D01*
X215750Y367024D01*
X215863Y367038D01*
X215975Y367055D01*
X216086Y367077D01*
X216196Y367102D01*
X216306Y367132D01*
X216414Y367165D01*
X216521Y367202D01*
X216627Y367242D01*
X216731Y367287D01*
X216834Y367335D01*
X216935Y367386D01*
X217034Y367441D01*
X217131Y367499D01*
X217226Y367561D01*
X217319Y367626D01*
X217409Y367694D01*
X217497Y367765D01*
X217583Y367840D01*
X217666Y367917D01*
X217746Y367997D01*
X217823Y368080D01*
X217898Y368166D01*
X217969Y368254D01*
X218037Y368344D01*
X218102Y368437D01*
X218164Y368532D01*
X218222Y368629D01*
X218277Y368728D01*
X218328Y368829D01*
X218376Y368932D01*
X218421Y369036D01*
X218461Y369142D01*
X218498Y369249D01*
X218531Y369357D01*
X218561Y369467D01*
X218586Y369577D01*
X218608Y369688D01*
X218625Y369800D01*
X218639Y369913D01*
X218649Y370026D01*
X218655Y370139D01*
X218657Y370252D01*
X218655Y370365D01*
X218649Y370478D01*
X218639Y370591D01*
X218625Y370704D01*
X218608Y370816D01*
X218586Y370927D01*
X218561Y371037D01*
X218531Y371147D01*
X218498Y371255D01*
X218461Y371362D01*
X218421Y371468D01*
X218376Y371572D01*
X218328Y371675D01*
X218277Y371776D01*
X218222Y371875D01*
X218164Y371972D01*
X218102Y372067D01*
X218037Y372160D01*
X217969Y372250D01*
X217898Y372338D01*
X217823Y372424D01*
X217746Y372507D01*
X217666Y372587D01*
X217583Y372664D01*
X217497Y372739D01*
X217409Y372810D01*
X217319Y372878D01*
X217226Y372943D01*
X217131Y373005D01*
X217034Y373063D01*
X220192Y377235D02*
X216819Y379183D01*
X220193Y377236D02*
X220279Y377184D01*
X220363Y377129D01*
X220445Y377070D01*
X220524Y377008D01*
X220602Y376944D01*
X220676Y376876D01*
X220748Y376805D01*
X220817Y376732D01*
X220883Y376656D01*
X220947Y376578D01*
X221007Y376497D01*
X221064Y376414D01*
X221117Y376329D01*
X221168Y376242D01*
X221215Y376153D01*
X221258Y376062D01*
X221298Y375969D01*
X221334Y375875D01*
X221367Y375780D01*
X221396Y375683D01*
X221421Y375586D01*
X221442Y375487D01*
X221460Y375388D01*
X221473Y375288D01*
X221483Y375188D01*
X221489Y375088D01*
X221491Y374987D01*
X221489Y374886D01*
X221483Y374786D01*
X221473Y374686D01*
X221460Y374586D01*
X221442Y374487D01*
X221421Y374388D01*
X221396Y374291D01*
X221367Y374194D01*
X221334Y374099D01*
X221298Y374005D01*
X221258Y373912D01*
X221215Y373821D01*
X221168Y373732D01*
X221117Y373645D01*
X221064Y373560D01*
X221007Y373477D01*
X220947Y373396D01*
X220883Y373318D01*
X220817Y373242D01*
X220748Y373169D01*
X220676Y373098D01*
X220602Y373030D01*
X220524Y372966D01*
X220445Y372904D01*
X220363Y372845D01*
X220279Y372790D01*
X220193Y372738D01*
X220104Y372689D01*
X220014Y372644D01*
X219923Y372602D01*
X219829Y372564D01*
X219735Y372530D01*
X219639Y372499D01*
X219542Y372472D01*
X219444Y372449D01*
X219345Y372429D01*
X219245Y372414D01*
X219145Y372402D01*
X219045Y372394D01*
X218944Y372390D01*
X218844Y372390D01*
X218743Y372394D01*
X218643Y372402D01*
X218543Y372414D01*
X218443Y372429D01*
X218344Y372449D01*
X218246Y372472D01*
X218149Y372499D01*
X218053Y372530D01*
X217959Y372564D01*
X217865Y372602D01*
X217774Y372644D01*
X217684Y372689D01*
X217596Y372738D01*
X215347Y374036D01*
D10*
X-19500Y448900D02*
X-19500Y454250D01*
X-11600Y441000D02*
X11600Y441000D01*
X19500Y448900D02*
X19500Y454250D01*
D11*
X-17244Y436792D02*
X-17244Y425108D01*
X-18542Y425108D02*
X-15946Y425108D01*
X-15946Y436792D02*
X-18542Y436792D01*
X-8782Y425108D02*
X-6186Y425108D01*
X-8782Y425108D02*
X-8881Y425110D01*
X-8981Y425116D01*
X-9080Y425125D01*
X-9178Y425138D01*
X-9276Y425155D01*
X-9374Y425176D01*
X-9470Y425201D01*
X-9565Y425229D01*
X-9659Y425261D01*
X-9752Y425296D01*
X-9844Y425335D01*
X-9934Y425378D01*
X-10022Y425423D01*
X-10109Y425473D01*
X-10193Y425525D01*
X-10276Y425581D01*
X-10356Y425639D01*
X-10434Y425701D01*
X-10509Y425766D01*
X-10582Y425834D01*
X-10652Y425904D01*
X-10720Y425977D01*
X-10785Y426052D01*
X-10847Y426130D01*
X-10905Y426210D01*
X-10961Y426293D01*
X-11013Y426377D01*
X-11063Y426464D01*
X-11108Y426552D01*
X-11151Y426642D01*
X-11190Y426734D01*
X-11225Y426827D01*
X-11257Y426921D01*
X-11285Y427016D01*
X-11310Y427112D01*
X-11331Y427210D01*
X-11348Y427308D01*
X-11361Y427406D01*
X-11370Y427505D01*
X-11376Y427605D01*
X-11378Y427704D01*
X-11379Y427704D02*
X-11379Y434196D01*
X-11378Y434196D02*
X-11376Y434295D01*
X-11370Y434395D01*
X-11361Y434494D01*
X-11348Y434592D01*
X-11331Y434690D01*
X-11310Y434788D01*
X-11285Y434884D01*
X-11257Y434979D01*
X-11225Y435073D01*
X-11190Y435166D01*
X-11151Y435258D01*
X-11108Y435348D01*
X-11063Y435436D01*
X-11013Y435523D01*
X-10961Y435607D01*
X-10905Y435690D01*
X-10847Y435770D01*
X-10785Y435848D01*
X-10720Y435923D01*
X-10652Y435996D01*
X-10582Y436066D01*
X-10509Y436134D01*
X-10434Y436199D01*
X-10356Y436261D01*
X-10276Y436319D01*
X-10193Y436375D01*
X-10109Y436427D01*
X-10022Y436477D01*
X-9934Y436522D01*
X-9844Y436565D01*
X-9752Y436604D01*
X-9659Y436639D01*
X-9565Y436671D01*
X-9470Y436699D01*
X-9374Y436724D01*
X-9276Y436745D01*
X-9178Y436762D01*
X-9080Y436775D01*
X-8981Y436784D01*
X-8881Y436790D01*
X-8782Y436792D01*
X-6186Y436792D01*
X776Y436792D02*
X-1820Y427704D01*
X4671Y427704D01*
X2723Y425108D02*
X2723Y430301D01*
D10*
X-241337Y379008D02*
X-244012Y383642D01*
X-230546Y376117D02*
X-210454Y387717D01*
X-207563Y398508D02*
X-210238Y403142D01*
D11*
X-233330Y369651D02*
X-227488Y359532D01*
X-228612Y358883D02*
X-226363Y360181D01*
X-232205Y370300D02*
X-234454Y369002D01*
X-220159Y363763D02*
X-217911Y365061D01*
X-220160Y363763D02*
X-220247Y363715D01*
X-220336Y363670D01*
X-220426Y363629D01*
X-220518Y363591D01*
X-220612Y363557D01*
X-220706Y363526D01*
X-220802Y363499D01*
X-220899Y363476D01*
X-220996Y363456D01*
X-221095Y363441D01*
X-221193Y363429D01*
X-221292Y363420D01*
X-221392Y363416D01*
X-221491Y363415D01*
X-221591Y363418D01*
X-221690Y363425D01*
X-221789Y363436D01*
X-221887Y363451D01*
X-221985Y363469D01*
X-222082Y363491D01*
X-222178Y363517D01*
X-222273Y363546D01*
X-222367Y363579D01*
X-222459Y363616D01*
X-222550Y363656D01*
X-222640Y363699D01*
X-222727Y363746D01*
X-222813Y363797D01*
X-222897Y363850D01*
X-222979Y363907D01*
X-223058Y363967D01*
X-223135Y364029D01*
X-223210Y364095D01*
X-223282Y364164D01*
X-223351Y364235D01*
X-223418Y364309D01*
X-223482Y364385D01*
X-223542Y364464D01*
X-223600Y364545D01*
X-223655Y364628D01*
X-223706Y364713D01*
X-226952Y370335D01*
X-226951Y370335D02*
X-226999Y370422D01*
X-227044Y370511D01*
X-227085Y370601D01*
X-227123Y370693D01*
X-227157Y370787D01*
X-227188Y370881D01*
X-227215Y370977D01*
X-227238Y371074D01*
X-227258Y371171D01*
X-227273Y371270D01*
X-227285Y371368D01*
X-227294Y371467D01*
X-227298Y371567D01*
X-227299Y371666D01*
X-227296Y371766D01*
X-227289Y371865D01*
X-227278Y371964D01*
X-227263Y372062D01*
X-227245Y372160D01*
X-227223Y372257D01*
X-227197Y372353D01*
X-227168Y372448D01*
X-227135Y372542D01*
X-227098Y372634D01*
X-227058Y372725D01*
X-227015Y372814D01*
X-226968Y372902D01*
X-226917Y372988D01*
X-226864Y373072D01*
X-226807Y373153D01*
X-226747Y373233D01*
X-226685Y373310D01*
X-226619Y373385D01*
X-226550Y373457D01*
X-226479Y373526D01*
X-226405Y373593D01*
X-226329Y373657D01*
X-226250Y373717D01*
X-226169Y373775D01*
X-226086Y373830D01*
X-226001Y373881D01*
X-223753Y375180D01*
X-214130Y367244D02*
X-210757Y369191D01*
X-210758Y369192D02*
X-210673Y369243D01*
X-210590Y369298D01*
X-210509Y369355D01*
X-210430Y369416D01*
X-210354Y369480D01*
X-210280Y369547D01*
X-210209Y369616D01*
X-210140Y369688D01*
X-210074Y369763D01*
X-210012Y369840D01*
X-209952Y369919D01*
X-209895Y370001D01*
X-209842Y370085D01*
X-209791Y370171D01*
X-209744Y370258D01*
X-209701Y370348D01*
X-209661Y370439D01*
X-209624Y370531D01*
X-209591Y370625D01*
X-209562Y370720D01*
X-209536Y370816D01*
X-209514Y370913D01*
X-209496Y371011D01*
X-209481Y371109D01*
X-209470Y371208D01*
X-209463Y371307D01*
X-209460Y371407D01*
X-209461Y371506D01*
X-209465Y371606D01*
X-209474Y371705D01*
X-209486Y371803D01*
X-209501Y371902D01*
X-209521Y371999D01*
X-209544Y372096D01*
X-209571Y372192D01*
X-209602Y372286D01*
X-209636Y372380D01*
X-209674Y372472D01*
X-209715Y372562D01*
X-209760Y372651D01*
X-209808Y372738D01*
X-209807Y372738D02*
X-210456Y373862D01*
X-210457Y373862D02*
X-210508Y373947D01*
X-210563Y374030D01*
X-210621Y374111D01*
X-210681Y374190D01*
X-210745Y374266D01*
X-210812Y374340D01*
X-210881Y374411D01*
X-210953Y374480D01*
X-211028Y374546D01*
X-211105Y374608D01*
X-211184Y374668D01*
X-211266Y374725D01*
X-211350Y374778D01*
X-211436Y374829D01*
X-211524Y374876D01*
X-211613Y374919D01*
X-211704Y374959D01*
X-211796Y374996D01*
X-211890Y375029D01*
X-211985Y375058D01*
X-212081Y375084D01*
X-212178Y375106D01*
X-212276Y375124D01*
X-212374Y375139D01*
X-212473Y375150D01*
X-212572Y375157D01*
X-212672Y375160D01*
X-212771Y375159D01*
X-212871Y375155D01*
X-212970Y375146D01*
X-213068Y375134D01*
X-213167Y375119D01*
X-213264Y375099D01*
X-213361Y375076D01*
X-213457Y375049D01*
X-213551Y375018D01*
X-213645Y374984D01*
X-213737Y374946D01*
X-213827Y374905D01*
X-213916Y374860D01*
X-214003Y374812D01*
X-217376Y372865D01*
X-219972Y377362D01*
X-214351Y380608D01*
D10*
X-398508Y207563D02*
X-403142Y210238D01*
X-387717Y210454D02*
X-376117Y230546D01*
X-379008Y241337D02*
X-383642Y244012D01*
D11*
X-386894Y203462D02*
X-376776Y197620D01*
X-377425Y196496D02*
X-376127Y198745D01*
X-386245Y204587D02*
X-387544Y202338D01*
X-372545Y204948D02*
X-371247Y207197D01*
X-372545Y204949D02*
X-372596Y204864D01*
X-372651Y204781D01*
X-372708Y204700D01*
X-372769Y204621D01*
X-372833Y204545D01*
X-372900Y204471D01*
X-372969Y204400D01*
X-373041Y204331D01*
X-373116Y204265D01*
X-373193Y204203D01*
X-373272Y204143D01*
X-373354Y204086D01*
X-373438Y204033D01*
X-373524Y203982D01*
X-373612Y203935D01*
X-373701Y203892D01*
X-373792Y203852D01*
X-373884Y203815D01*
X-373978Y203782D01*
X-374073Y203753D01*
X-374169Y203727D01*
X-374266Y203705D01*
X-374364Y203687D01*
X-374462Y203672D01*
X-374561Y203661D01*
X-374660Y203654D01*
X-374760Y203651D01*
X-374859Y203652D01*
X-374959Y203656D01*
X-375058Y203665D01*
X-375157Y203677D01*
X-375255Y203692D01*
X-375352Y203712D01*
X-375449Y203735D01*
X-375545Y203762D01*
X-375639Y203793D01*
X-375733Y203827D01*
X-375825Y203865D01*
X-375915Y203906D01*
X-376004Y203951D01*
X-376091Y203999D01*
X-376092Y203998D02*
X-381713Y207244D01*
X-381798Y207295D01*
X-381881Y207350D01*
X-381962Y207407D01*
X-382041Y207468D01*
X-382117Y207532D01*
X-382191Y207599D01*
X-382262Y207668D01*
X-382331Y207740D01*
X-382397Y207815D01*
X-382459Y207892D01*
X-382519Y207971D01*
X-382576Y208053D01*
X-382629Y208137D01*
X-382680Y208223D01*
X-382727Y208310D01*
X-382770Y208400D01*
X-382810Y208491D01*
X-382847Y208583D01*
X-382880Y208677D01*
X-382909Y208772D01*
X-382935Y208868D01*
X-382957Y208965D01*
X-382975Y209063D01*
X-382990Y209161D01*
X-383001Y209260D01*
X-383008Y209359D01*
X-383011Y209459D01*
X-383010Y209558D01*
X-383006Y209658D01*
X-382997Y209757D01*
X-382985Y209855D01*
X-382970Y209954D01*
X-382950Y210051D01*
X-382927Y210148D01*
X-382900Y210244D01*
X-382869Y210338D01*
X-382835Y210432D01*
X-382797Y210524D01*
X-382756Y210614D01*
X-382711Y210703D01*
X-382663Y210790D01*
X-382664Y210790D02*
X-381365Y213039D01*
X-374685Y214223D02*
X-372738Y217596D01*
X-372687Y217681D01*
X-372632Y217764D01*
X-372575Y217845D01*
X-372514Y217924D01*
X-372450Y218000D01*
X-372383Y218074D01*
X-372314Y218145D01*
X-372242Y218214D01*
X-372167Y218280D01*
X-372090Y218342D01*
X-372011Y218402D01*
X-371929Y218459D01*
X-371845Y218512D01*
X-371759Y218563D01*
X-371672Y218610D01*
X-371582Y218653D01*
X-371491Y218693D01*
X-371399Y218730D01*
X-371305Y218763D01*
X-371210Y218792D01*
X-371114Y218818D01*
X-371017Y218840D01*
X-370919Y218858D01*
X-370821Y218873D01*
X-370722Y218884D01*
X-370623Y218891D01*
X-370523Y218894D01*
X-370424Y218893D01*
X-370324Y218889D01*
X-370225Y218880D01*
X-370127Y218868D01*
X-370028Y218853D01*
X-369931Y218833D01*
X-369834Y218810D01*
X-369738Y218783D01*
X-369644Y218752D01*
X-369550Y218718D01*
X-369458Y218680D01*
X-369368Y218639D01*
X-369279Y218594D01*
X-369192Y218546D01*
X-369191Y218546D02*
X-368629Y218222D01*
X-368532Y218164D01*
X-368437Y218102D01*
X-368344Y218037D01*
X-368254Y217969D01*
X-368166Y217898D01*
X-368080Y217823D01*
X-367997Y217746D01*
X-367917Y217666D01*
X-367840Y217583D01*
X-367765Y217497D01*
X-367694Y217409D01*
X-367626Y217319D01*
X-367561Y217226D01*
X-367499Y217131D01*
X-367441Y217034D01*
X-367386Y216935D01*
X-367335Y216834D01*
X-367287Y216731D01*
X-367242Y216627D01*
X-367202Y216521D01*
X-367165Y216414D01*
X-367132Y216306D01*
X-367102Y216196D01*
X-367077Y216086D01*
X-367055Y215975D01*
X-367038Y215863D01*
X-367024Y215750D01*
X-367014Y215637D01*
X-367008Y215524D01*
X-367006Y215411D01*
X-367008Y215298D01*
X-367014Y215185D01*
X-367024Y215072D01*
X-367038Y214959D01*
X-367055Y214847D01*
X-367077Y214736D01*
X-367102Y214626D01*
X-367132Y214516D01*
X-367165Y214408D01*
X-367202Y214301D01*
X-367242Y214195D01*
X-367287Y214091D01*
X-367335Y213988D01*
X-367386Y213887D01*
X-367441Y213788D01*
X-367499Y213691D01*
X-367561Y213596D01*
X-367626Y213503D01*
X-367694Y213413D01*
X-367765Y213325D01*
X-367840Y213239D01*
X-367917Y213156D01*
X-367997Y213076D01*
X-368080Y212999D01*
X-368166Y212924D01*
X-368254Y212853D01*
X-368344Y212785D01*
X-368437Y212720D01*
X-368532Y212658D01*
X-368629Y212600D01*
X-368728Y212545D01*
X-368829Y212494D01*
X-368932Y212446D01*
X-369036Y212401D01*
X-369142Y212361D01*
X-369249Y212324D01*
X-369357Y212291D01*
X-369467Y212261D01*
X-369577Y212236D01*
X-369688Y212214D01*
X-369800Y212197D01*
X-369913Y212183D01*
X-370026Y212173D01*
X-370139Y212167D01*
X-370252Y212165D01*
X-370365Y212167D01*
X-370478Y212173D01*
X-370591Y212183D01*
X-370704Y212197D01*
X-370816Y212214D01*
X-370927Y212236D01*
X-371037Y212261D01*
X-371147Y212291D01*
X-371255Y212324D01*
X-371362Y212361D01*
X-371468Y212401D01*
X-371572Y212446D01*
X-371675Y212494D01*
X-371776Y212545D01*
X-371875Y212600D01*
X-374685Y214223D01*
X-374808Y214296D01*
X-374929Y214373D01*
X-375048Y214453D01*
X-375164Y214536D01*
X-375279Y214622D01*
X-375390Y214711D01*
X-375500Y214804D01*
X-375606Y214899D01*
X-375710Y214998D01*
X-375811Y215099D01*
X-375910Y215203D01*
X-376005Y215309D01*
X-376098Y215419D01*
X-376187Y215530D01*
X-376273Y215645D01*
X-376356Y215761D01*
X-376436Y215880D01*
X-376513Y216001D01*
X-376586Y216123D01*
X-376656Y216248D01*
X-376722Y216375D01*
X-376785Y216504D01*
X-376845Y216634D01*
X-376900Y216766D01*
X-376952Y216899D01*
X-377001Y217034D01*
X-377045Y217170D01*
X-377086Y217307D01*
X-377123Y217445D01*
X-377156Y217584D01*
X-377186Y217724D01*
X-377211Y217865D01*
X-377233Y218007D01*
X-377250Y218149D01*
X-377264Y218291D01*
X-377274Y218434D01*
X-377280Y218577D01*
X-377282Y218720D01*
X-377280Y218863D01*
X-377274Y219006D01*
X-377264Y219149D01*
X-377250Y219291D01*
X-377233Y219433D01*
X-377211Y219575D01*
X-377186Y219716D01*
X-377156Y219856D01*
X-377123Y219995D01*
X-377086Y220133D01*
X-377045Y220270D01*
X-377001Y220406D01*
X-376952Y220541D01*
X-376900Y220674D01*
X-376845Y220806D01*
X-376785Y220936D01*
X-376722Y221065D01*
X-376656Y221192D01*
X-376586Y221316D01*
D10*
X-448900Y-19500D02*
X-454250Y-19500D01*
X-441000Y-11600D02*
X-441000Y11600D01*
X-448900Y19500D02*
X-454250Y19500D01*
D11*
X-436792Y-17244D02*
X-425108Y-17244D01*
X-425108Y-18542D02*
X-425108Y-15946D01*
X-436792Y-15946D02*
X-436792Y-18542D01*
X-425108Y-8782D02*
X-425108Y-6186D01*
X-425108Y-8782D02*
X-425110Y-8881D01*
X-425116Y-8981D01*
X-425125Y-9080D01*
X-425138Y-9178D01*
X-425155Y-9276D01*
X-425176Y-9374D01*
X-425201Y-9470D01*
X-425229Y-9565D01*
X-425261Y-9659D01*
X-425296Y-9752D01*
X-425335Y-9844D01*
X-425378Y-9934D01*
X-425423Y-10022D01*
X-425473Y-10109D01*
X-425525Y-10193D01*
X-425581Y-10276D01*
X-425639Y-10356D01*
X-425701Y-10434D01*
X-425766Y-10509D01*
X-425834Y-10582D01*
X-425904Y-10652D01*
X-425977Y-10720D01*
X-426052Y-10785D01*
X-426130Y-10847D01*
X-426210Y-10905D01*
X-426293Y-10961D01*
X-426377Y-11013D01*
X-426464Y-11063D01*
X-426552Y-11108D01*
X-426642Y-11151D01*
X-426734Y-11190D01*
X-426827Y-11225D01*
X-426921Y-11257D01*
X-427016Y-11285D01*
X-427112Y-11310D01*
X-427210Y-11331D01*
X-427308Y-11348D01*
X-427406Y-11361D01*
X-427505Y-11370D01*
X-427605Y-11376D01*
X-427704Y-11378D01*
X-427704Y-11379D02*
X-434196Y-11379D01*
X-434196Y-11378D02*
X-434295Y-11376D01*
X-434395Y-11370D01*
X-434494Y-11361D01*
X-434592Y-11348D01*
X-434690Y-11331D01*
X-434788Y-11310D01*
X-434884Y-11285D01*
X-434979Y-11257D01*
X-435073Y-11225D01*
X-435166Y-11190D01*
X-435258Y-11151D01*
X-435348Y-11108D01*
X-435436Y-11063D01*
X-435523Y-11013D01*
X-435607Y-10961D01*
X-435690Y-10905D01*
X-435770Y-10847D01*
X-435848Y-10785D01*
X-435923Y-10720D01*
X-435996Y-10652D01*
X-436066Y-10582D01*
X-436134Y-10509D01*
X-436199Y-10434D01*
X-436261Y-10356D01*
X-436319Y-10276D01*
X-436375Y-10193D01*
X-436427Y-10109D01*
X-436477Y-10022D01*
X-436522Y-9934D01*
X-436565Y-9844D01*
X-436604Y-9752D01*
X-436639Y-9660D01*
X-436671Y-9565D01*
X-436699Y-9470D01*
X-436724Y-9374D01*
X-436745Y-9276D01*
X-436762Y-9178D01*
X-436775Y-9080D01*
X-436784Y-8981D01*
X-436790Y-8881D01*
X-436792Y-8782D01*
X-436792Y-6186D01*
X-436792Y-1820D02*
X-435494Y-1820D01*
X-436792Y-1820D02*
X-436792Y4671D01*
X-425108Y1425D01*
D10*
X-379008Y-241337D02*
X-383642Y-244012D01*
X-376117Y-230546D02*
X-387717Y-210454D01*
X-398508Y-207563D02*
X-403142Y-210238D01*
D11*
X-379959Y-215475D02*
X-369840Y-209633D01*
X-380608Y-214351D02*
X-379310Y-216600D01*
X-369191Y-210758D02*
X-370489Y-208509D01*
X-375728Y-222803D02*
X-374430Y-225052D01*
X-375727Y-222803D02*
X-375775Y-222716D01*
X-375820Y-222627D01*
X-375861Y-222537D01*
X-375899Y-222445D01*
X-375933Y-222351D01*
X-375964Y-222257D01*
X-375991Y-222161D01*
X-376014Y-222064D01*
X-376034Y-221967D01*
X-376049Y-221868D01*
X-376061Y-221770D01*
X-376070Y-221671D01*
X-376074Y-221571D01*
X-376075Y-221472D01*
X-376072Y-221372D01*
X-376065Y-221273D01*
X-376054Y-221174D01*
X-376039Y-221076D01*
X-376021Y-220978D01*
X-375999Y-220881D01*
X-375973Y-220785D01*
X-375944Y-220690D01*
X-375911Y-220596D01*
X-375874Y-220504D01*
X-375834Y-220413D01*
X-375791Y-220323D01*
X-375744Y-220236D01*
X-375693Y-220150D01*
X-375640Y-220066D01*
X-375583Y-219984D01*
X-375523Y-219905D01*
X-375461Y-219828D01*
X-375395Y-219753D01*
X-375326Y-219681D01*
X-375255Y-219612D01*
X-375181Y-219545D01*
X-375105Y-219481D01*
X-375026Y-219420D01*
X-374945Y-219363D01*
X-374862Y-219308D01*
X-374777Y-219257D01*
X-374778Y-219257D02*
X-369156Y-216011D01*
X-369156Y-216012D02*
X-369069Y-215964D01*
X-368980Y-215919D01*
X-368890Y-215878D01*
X-368798Y-215840D01*
X-368704Y-215806D01*
X-368610Y-215775D01*
X-368514Y-215748D01*
X-368417Y-215725D01*
X-368320Y-215705D01*
X-368221Y-215690D01*
X-368123Y-215678D01*
X-368024Y-215669D01*
X-367924Y-215665D01*
X-367825Y-215664D01*
X-367725Y-215667D01*
X-367626Y-215674D01*
X-367527Y-215685D01*
X-367429Y-215700D01*
X-367331Y-215718D01*
X-367234Y-215740D01*
X-367138Y-215766D01*
X-367043Y-215795D01*
X-366949Y-215828D01*
X-366857Y-215865D01*
X-366766Y-215905D01*
X-366676Y-215948D01*
X-366589Y-215995D01*
X-366503Y-216046D01*
X-366419Y-216099D01*
X-366337Y-216156D01*
X-366258Y-216216D01*
X-366181Y-216278D01*
X-366106Y-216344D01*
X-366034Y-216413D01*
X-365965Y-216484D01*
X-365898Y-216558D01*
X-365834Y-216634D01*
X-365774Y-216713D01*
X-365716Y-216794D01*
X-365661Y-216877D01*
X-365610Y-216962D01*
X-365609Y-216961D02*
X-364311Y-219210D01*
X-369436Y-227209D02*
X-369337Y-227154D01*
X-369236Y-227103D01*
X-369133Y-227055D01*
X-369029Y-227010D01*
X-368923Y-226970D01*
X-368816Y-226933D01*
X-368708Y-226900D01*
X-368598Y-226870D01*
X-368488Y-226845D01*
X-368377Y-226823D01*
X-368265Y-226806D01*
X-368152Y-226792D01*
X-368039Y-226782D01*
X-367926Y-226776D01*
X-367813Y-226774D01*
X-367700Y-226776D01*
X-367587Y-226782D01*
X-367474Y-226792D01*
X-367361Y-226806D01*
X-367249Y-226823D01*
X-367138Y-226845D01*
X-367028Y-226870D01*
X-366918Y-226900D01*
X-366810Y-226933D01*
X-366703Y-226970D01*
X-366597Y-227010D01*
X-366493Y-227055D01*
X-366390Y-227102D01*
X-366289Y-227154D01*
X-366190Y-227209D01*
X-366093Y-227267D01*
X-365998Y-227329D01*
X-365905Y-227394D01*
X-365815Y-227462D01*
X-365727Y-227533D01*
X-365641Y-227608D01*
X-365558Y-227685D01*
X-365478Y-227765D01*
X-365401Y-227848D01*
X-365326Y-227933D01*
X-365255Y-228022D01*
X-365187Y-228112D01*
X-365122Y-228205D01*
X-365060Y-228300D01*
X-365002Y-228397D01*
X-364947Y-228496D01*
X-364896Y-228597D01*
X-364848Y-228700D01*
X-364803Y-228804D01*
X-364763Y-228910D01*
X-364726Y-229017D01*
X-364693Y-229125D01*
X-364663Y-229235D01*
X-364638Y-229345D01*
X-364616Y-229456D01*
X-364599Y-229568D01*
X-364585Y-229681D01*
X-364575Y-229794D01*
X-364569Y-229907D01*
X-364567Y-230020D01*
X-364569Y-230133D01*
X-364575Y-230246D01*
X-364585Y-230359D01*
X-364599Y-230472D01*
X-364616Y-230584D01*
X-364638Y-230695D01*
X-364663Y-230805D01*
X-364693Y-230915D01*
X-364726Y-231023D01*
X-364763Y-231130D01*
X-364803Y-231236D01*
X-364848Y-231340D01*
X-364896Y-231443D01*
X-364947Y-231544D01*
X-365002Y-231643D01*
X-365060Y-231740D01*
X-365122Y-231835D01*
X-365187Y-231928D01*
X-365255Y-232018D01*
X-365326Y-232107D01*
X-365401Y-232192D01*
X-365478Y-232275D01*
X-365558Y-232355D01*
X-365641Y-232432D01*
X-365727Y-232507D01*
X-365815Y-232578D01*
X-365905Y-232646D01*
X-365998Y-232711D01*
X-366093Y-232773D01*
X-366190Y-232831D01*
X-366289Y-232886D01*
X-366390Y-232938D01*
X-366493Y-232985D01*
X-366597Y-233030D01*
X-366703Y-233070D01*
X-366810Y-233107D01*
X-366918Y-233140D01*
X-367028Y-233170D01*
X-367138Y-233195D01*
X-367249Y-233217D01*
X-367361Y-233234D01*
X-367474Y-233248D01*
X-367587Y-233258D01*
X-367700Y-233264D01*
X-367813Y-233266D01*
X-367926Y-233264D01*
X-368039Y-233258D01*
X-368152Y-233248D01*
X-368265Y-233234D01*
X-368377Y-233217D01*
X-368488Y-233195D01*
X-368598Y-233170D01*
X-368708Y-233140D01*
X-368816Y-233107D01*
X-368923Y-233070D01*
X-369029Y-233030D01*
X-369133Y-232985D01*
X-369236Y-232937D01*
X-369337Y-232886D01*
X-369436Y-232831D01*
X-369533Y-232773D01*
X-369628Y-232711D01*
X-369721Y-232646D01*
X-369811Y-232578D01*
X-369899Y-232507D01*
X-369985Y-232432D01*
X-370068Y-232355D01*
X-370148Y-232275D01*
X-370225Y-232192D01*
X-370300Y-232106D01*
X-370371Y-232018D01*
X-370439Y-231928D01*
X-370504Y-231835D01*
X-370566Y-231740D01*
X-370624Y-231643D01*
X-370679Y-231544D01*
X-370730Y-231443D01*
X-370778Y-231340D01*
X-370823Y-231236D01*
X-370863Y-231130D01*
X-370900Y-231023D01*
X-370933Y-230915D01*
X-370963Y-230805D01*
X-370988Y-230695D01*
X-371010Y-230584D01*
X-371027Y-230472D01*
X-371041Y-230359D01*
X-371051Y-230246D01*
X-371057Y-230133D01*
X-371059Y-230020D01*
X-371057Y-229907D01*
X-371051Y-229794D01*
X-371041Y-229681D01*
X-371027Y-229568D01*
X-371010Y-229456D01*
X-370988Y-229345D01*
X-370963Y-229235D01*
X-370933Y-229125D01*
X-370900Y-229017D01*
X-370863Y-228910D01*
X-370823Y-228804D01*
X-370778Y-228700D01*
X-370731Y-228597D01*
X-370679Y-228496D01*
X-370624Y-228397D01*
X-370566Y-228300D01*
X-370504Y-228205D01*
X-370439Y-228112D01*
X-370371Y-228022D01*
X-370300Y-227934D01*
X-370225Y-227848D01*
X-370148Y-227765D01*
X-370068Y-227685D01*
X-369985Y-227608D01*
X-369900Y-227533D01*
X-369811Y-227462D01*
X-369721Y-227394D01*
X-369628Y-227329D01*
X-369533Y-227267D01*
X-369436Y-227209D01*
X-364052Y-224851D02*
X-363964Y-224802D01*
X-363874Y-224757D01*
X-363782Y-224715D01*
X-363689Y-224677D01*
X-363594Y-224643D01*
X-363499Y-224612D01*
X-363402Y-224585D01*
X-363304Y-224562D01*
X-363205Y-224542D01*
X-363105Y-224527D01*
X-363005Y-224515D01*
X-362905Y-224507D01*
X-362804Y-224503D01*
X-362704Y-224503D01*
X-362603Y-224507D01*
X-362503Y-224515D01*
X-362403Y-224527D01*
X-362303Y-224542D01*
X-362204Y-224562D01*
X-362106Y-224585D01*
X-362009Y-224612D01*
X-361914Y-224643D01*
X-361819Y-224677D01*
X-361726Y-224715D01*
X-361634Y-224757D01*
X-361544Y-224802D01*
X-361456Y-224851D01*
X-361370Y-224903D01*
X-361286Y-224958D01*
X-361204Y-225017D01*
X-361124Y-225078D01*
X-361047Y-225143D01*
X-360973Y-225211D01*
X-360901Y-225281D01*
X-360832Y-225354D01*
X-360765Y-225430D01*
X-360702Y-225509D01*
X-360642Y-225589D01*
X-360585Y-225672D01*
X-360531Y-225758D01*
X-360481Y-225845D01*
X-360434Y-225934D01*
X-360391Y-226025D01*
X-360351Y-226117D01*
X-360315Y-226211D01*
X-360282Y-226306D01*
X-360253Y-226403D01*
X-360228Y-226500D01*
X-360207Y-226599D01*
X-360189Y-226698D01*
X-360176Y-226798D01*
X-360166Y-226898D01*
X-360160Y-226998D01*
X-360158Y-227099D01*
X-360160Y-227200D01*
X-360166Y-227300D01*
X-360176Y-227400D01*
X-360189Y-227500D01*
X-360207Y-227599D01*
X-360228Y-227698D01*
X-360253Y-227795D01*
X-360282Y-227892D01*
X-360315Y-227987D01*
X-360351Y-228081D01*
X-360391Y-228173D01*
X-360434Y-228264D01*
X-360481Y-228353D01*
X-360531Y-228440D01*
X-360585Y-228526D01*
X-360642Y-228609D01*
X-360702Y-228689D01*
X-360765Y-228768D01*
X-360832Y-228844D01*
X-360901Y-228917D01*
X-360973Y-228987D01*
X-361047Y-229055D01*
X-361124Y-229120D01*
X-361204Y-229181D01*
X-361286Y-229240D01*
X-361370Y-229295D01*
X-361456Y-229347D01*
X-361544Y-229396D01*
X-361634Y-229441D01*
X-361726Y-229483D01*
X-361819Y-229521D01*
X-361914Y-229555D01*
X-362009Y-229586D01*
X-362106Y-229613D01*
X-362204Y-229636D01*
X-362303Y-229656D01*
X-362403Y-229671D01*
X-362503Y-229683D01*
X-362603Y-229691D01*
X-362704Y-229695D01*
X-362804Y-229695D01*
X-362905Y-229691D01*
X-363005Y-229683D01*
X-363105Y-229671D01*
X-363205Y-229656D01*
X-363304Y-229636D01*
X-363402Y-229613D01*
X-363499Y-229586D01*
X-363594Y-229555D01*
X-363689Y-229521D01*
X-363782Y-229483D01*
X-363874Y-229441D01*
X-363964Y-229396D01*
X-364052Y-229347D01*
X-364138Y-229295D01*
X-364222Y-229240D01*
X-364304Y-229181D01*
X-364384Y-229120D01*
X-364461Y-229055D01*
X-364535Y-228987D01*
X-364607Y-228917D01*
X-364676Y-228844D01*
X-364743Y-228768D01*
X-364806Y-228689D01*
X-364866Y-228609D01*
X-364923Y-228526D01*
X-364977Y-228440D01*
X-365027Y-228353D01*
X-365074Y-228264D01*
X-365117Y-228173D01*
X-365157Y-228081D01*
X-365193Y-227987D01*
X-365226Y-227892D01*
X-365255Y-227795D01*
X-365280Y-227698D01*
X-365301Y-227599D01*
X-365319Y-227500D01*
X-365332Y-227400D01*
X-365342Y-227300D01*
X-365348Y-227200D01*
X-365350Y-227099D01*
X-365348Y-226998D01*
X-365342Y-226898D01*
X-365332Y-226798D01*
X-365319Y-226698D01*
X-365301Y-226599D01*
X-365280Y-226500D01*
X-365255Y-226403D01*
X-365226Y-226306D01*
X-365193Y-226211D01*
X-365157Y-226117D01*
X-365117Y-226025D01*
X-365074Y-225934D01*
X-365027Y-225845D01*
X-364977Y-225758D01*
X-364923Y-225673D01*
X-364866Y-225589D01*
X-364806Y-225509D01*
X-364743Y-225430D01*
X-364676Y-225355D01*
X-364607Y-225281D01*
X-364536Y-225211D01*
X-364461Y-225143D01*
X-364384Y-225078D01*
X-364304Y-225017D01*
X-364222Y-224958D01*
X-364138Y-224903D01*
X-364052Y-224851D01*
D10*
X-207563Y-398508D02*
X-210238Y-403142D01*
X-210454Y-387717D02*
X-230546Y-376117D01*
X-241337Y-379008D02*
X-244012Y-383642D01*
D11*
X-221317Y-376586D02*
X-215475Y-366468D01*
X-220192Y-377235D02*
X-222441Y-375937D01*
X-216599Y-365818D02*
X-214350Y-367117D01*
X-213989Y-380817D02*
X-211740Y-382115D01*
X-213988Y-380816D02*
X-214073Y-380765D01*
X-214156Y-380710D01*
X-214237Y-380653D01*
X-214316Y-380592D01*
X-214392Y-380528D01*
X-214466Y-380461D01*
X-214537Y-380392D01*
X-214606Y-380320D01*
X-214672Y-380245D01*
X-214734Y-380168D01*
X-214794Y-380089D01*
X-214851Y-380007D01*
X-214904Y-379923D01*
X-214955Y-379837D01*
X-215002Y-379750D01*
X-215045Y-379660D01*
X-215085Y-379569D01*
X-215122Y-379477D01*
X-215155Y-379383D01*
X-215184Y-379288D01*
X-215210Y-379192D01*
X-215232Y-379095D01*
X-215250Y-378997D01*
X-215265Y-378899D01*
X-215276Y-378800D01*
X-215283Y-378701D01*
X-215286Y-378601D01*
X-215285Y-378502D01*
X-215281Y-378402D01*
X-215272Y-378303D01*
X-215260Y-378205D01*
X-215245Y-378106D01*
X-215225Y-378009D01*
X-215202Y-377912D01*
X-215175Y-377816D01*
X-215144Y-377722D01*
X-215110Y-377628D01*
X-215072Y-377536D01*
X-215031Y-377446D01*
X-214986Y-377357D01*
X-214938Y-377270D01*
X-214939Y-377270D02*
X-211693Y-371649D01*
X-211642Y-371564D01*
X-211587Y-371481D01*
X-211530Y-371400D01*
X-211469Y-371321D01*
X-211405Y-371245D01*
X-211338Y-371171D01*
X-211269Y-371100D01*
X-211197Y-371031D01*
X-211122Y-370965D01*
X-211045Y-370903D01*
X-210966Y-370843D01*
X-210884Y-370786D01*
X-210800Y-370733D01*
X-210714Y-370682D01*
X-210627Y-370635D01*
X-210537Y-370592D01*
X-210446Y-370552D01*
X-210354Y-370515D01*
X-210260Y-370482D01*
X-210165Y-370453D01*
X-210069Y-370427D01*
X-209972Y-370405D01*
X-209874Y-370387D01*
X-209776Y-370372D01*
X-209677Y-370361D01*
X-209578Y-370354D01*
X-209478Y-370351D01*
X-209379Y-370352D01*
X-209279Y-370356D01*
X-209180Y-370365D01*
X-209082Y-370377D01*
X-208983Y-370392D01*
X-208886Y-370412D01*
X-208789Y-370435D01*
X-208693Y-370462D01*
X-208599Y-370493D01*
X-208505Y-370527D01*
X-208413Y-370565D01*
X-208323Y-370606D01*
X-208234Y-370651D01*
X-208147Y-370699D01*
X-208147Y-370698D02*
X-205898Y-371997D01*
X-203114Y-381099D02*
X-199742Y-383046D01*
X-203114Y-381098D02*
X-203199Y-381047D01*
X-203282Y-380992D01*
X-203363Y-380935D01*
X-203442Y-380874D01*
X-203518Y-380810D01*
X-203592Y-380743D01*
X-203663Y-380674D01*
X-203732Y-380602D01*
X-203798Y-380527D01*
X-203860Y-380450D01*
X-203920Y-380371D01*
X-203977Y-380289D01*
X-204030Y-380205D01*
X-204081Y-380119D01*
X-204128Y-380032D01*
X-204171Y-379942D01*
X-204211Y-379851D01*
X-204248Y-379759D01*
X-204281Y-379665D01*
X-204310Y-379570D01*
X-204336Y-379474D01*
X-204358Y-379377D01*
X-204376Y-379279D01*
X-204391Y-379181D01*
X-204402Y-379082D01*
X-204409Y-378983D01*
X-204412Y-378883D01*
X-204411Y-378784D01*
X-204407Y-378684D01*
X-204398Y-378585D01*
X-204386Y-378487D01*
X-204371Y-378388D01*
X-204351Y-378291D01*
X-204328Y-378194D01*
X-204301Y-378098D01*
X-204270Y-378004D01*
X-204236Y-377910D01*
X-204198Y-377818D01*
X-204157Y-377728D01*
X-204112Y-377639D01*
X-204064Y-377552D01*
X-204065Y-377552D02*
X-203740Y-376990D01*
X-203741Y-376990D02*
X-203683Y-376893D01*
X-203621Y-376798D01*
X-203556Y-376705D01*
X-203488Y-376615D01*
X-203417Y-376527D01*
X-203342Y-376441D01*
X-203265Y-376358D01*
X-203185Y-376278D01*
X-203102Y-376201D01*
X-203016Y-376126D01*
X-202928Y-376055D01*
X-202838Y-375987D01*
X-202745Y-375922D01*
X-202650Y-375860D01*
X-202553Y-375802D01*
X-202454Y-375747D01*
X-202353Y-375696D01*
X-202250Y-375648D01*
X-202146Y-375603D01*
X-202040Y-375563D01*
X-201933Y-375526D01*
X-201825Y-375493D01*
X-201715Y-375463D01*
X-201605Y-375438D01*
X-201494Y-375416D01*
X-201382Y-375399D01*
X-201269Y-375385D01*
X-201156Y-375375D01*
X-201043Y-375369D01*
X-200930Y-375367D01*
X-200817Y-375369D01*
X-200704Y-375375D01*
X-200591Y-375385D01*
X-200478Y-375399D01*
X-200366Y-375416D01*
X-200255Y-375438D01*
X-200145Y-375463D01*
X-200035Y-375493D01*
X-199927Y-375526D01*
X-199820Y-375563D01*
X-199714Y-375603D01*
X-199610Y-375648D01*
X-199507Y-375696D01*
X-199406Y-375747D01*
X-199307Y-375802D01*
X-199210Y-375860D01*
X-199115Y-375922D01*
X-199022Y-375987D01*
X-198932Y-376055D01*
X-198844Y-376126D01*
X-198758Y-376201D01*
X-198675Y-376278D01*
X-198595Y-376358D01*
X-198518Y-376441D01*
X-198443Y-376526D01*
X-198372Y-376615D01*
X-198304Y-376705D01*
X-198239Y-376798D01*
X-198177Y-376893D01*
X-198119Y-376990D01*
X-198064Y-377089D01*
X-198013Y-377190D01*
X-197965Y-377293D01*
X-197920Y-377397D01*
X-197880Y-377503D01*
X-197843Y-377610D01*
X-197810Y-377718D01*
X-197780Y-377828D01*
X-197755Y-377938D01*
X-197733Y-378049D01*
X-197716Y-378161D01*
X-197702Y-378274D01*
X-197692Y-378387D01*
X-197686Y-378500D01*
X-197684Y-378613D01*
X-197686Y-378726D01*
X-197692Y-378839D01*
X-197702Y-378952D01*
X-197716Y-379065D01*
X-197733Y-379177D01*
X-197755Y-379288D01*
X-197780Y-379398D01*
X-197810Y-379508D01*
X-197843Y-379616D01*
X-197880Y-379723D01*
X-197920Y-379829D01*
X-197965Y-379933D01*
X-198013Y-380036D01*
X-198064Y-380137D01*
X-198119Y-380236D01*
X-199742Y-383046D01*
X-199815Y-383169D01*
X-199892Y-383290D01*
X-199972Y-383409D01*
X-200055Y-383525D01*
X-200141Y-383640D01*
X-200230Y-383751D01*
X-200323Y-383861D01*
X-200418Y-383967D01*
X-200517Y-384071D01*
X-200618Y-384172D01*
X-200722Y-384271D01*
X-200828Y-384366D01*
X-200938Y-384459D01*
X-201049Y-384548D01*
X-201164Y-384634D01*
X-201280Y-384717D01*
X-201399Y-384797D01*
X-201520Y-384874D01*
X-201643Y-384947D01*
X-201767Y-385017D01*
X-201894Y-385083D01*
X-202023Y-385146D01*
X-202153Y-385206D01*
X-202285Y-385261D01*
X-202418Y-385313D01*
X-202553Y-385362D01*
X-202689Y-385406D01*
X-202826Y-385447D01*
X-202964Y-385484D01*
X-203103Y-385517D01*
X-203243Y-385547D01*
X-203384Y-385572D01*
X-203526Y-385594D01*
X-203668Y-385611D01*
X-203810Y-385625D01*
X-203953Y-385635D01*
X-204096Y-385641D01*
X-204239Y-385643D01*
X-204382Y-385641D01*
X-204525Y-385635D01*
X-204668Y-385625D01*
X-204810Y-385611D01*
X-204952Y-385594D01*
X-205094Y-385572D01*
X-205235Y-385547D01*
X-205375Y-385517D01*
X-205514Y-385484D01*
X-205652Y-385447D01*
X-205789Y-385406D01*
X-205925Y-385362D01*
X-206060Y-385313D01*
X-206193Y-385261D01*
X-206325Y-385206D01*
X-206455Y-385146D01*
X-206584Y-385083D01*
X-206711Y-385017D01*
X-206836Y-384947D01*
D12*
X-141590Y-397140D02*
X-98410Y-397140D01*
X-98410Y-442860D02*
X-141590Y-442860D01*
X-95870Y-440320D02*
X-95870Y-399680D01*
X-144130Y-399680D02*
X-144130Y-440320D01*
X-98410Y-397140D02*
X-98310Y-397142D01*
X-98211Y-397148D01*
X-98111Y-397158D01*
X-98013Y-397171D01*
X-97914Y-397189D01*
X-97817Y-397210D01*
X-97721Y-397235D01*
X-97625Y-397264D01*
X-97531Y-397297D01*
X-97438Y-397333D01*
X-97347Y-397373D01*
X-97257Y-397417D01*
X-97169Y-397464D01*
X-97083Y-397514D01*
X-96999Y-397568D01*
X-96917Y-397625D01*
X-96838Y-397685D01*
X-96760Y-397749D01*
X-96686Y-397815D01*
X-96614Y-397884D01*
X-96545Y-397956D01*
X-96479Y-398030D01*
X-96415Y-398108D01*
X-96355Y-398187D01*
X-96298Y-398269D01*
X-96244Y-398353D01*
X-96194Y-398439D01*
X-96147Y-398527D01*
X-96103Y-398617D01*
X-96063Y-398708D01*
X-96027Y-398801D01*
X-95994Y-398895D01*
X-95965Y-398991D01*
X-95940Y-399087D01*
X-95919Y-399184D01*
X-95901Y-399283D01*
X-95888Y-399381D01*
X-95878Y-399481D01*
X-95872Y-399580D01*
X-95870Y-399680D01*
X-141590Y-397140D02*
X-141690Y-397142D01*
X-141789Y-397148D01*
X-141889Y-397158D01*
X-141987Y-397171D01*
X-142086Y-397189D01*
X-142183Y-397210D01*
X-142279Y-397235D01*
X-142375Y-397264D01*
X-142469Y-397297D01*
X-142562Y-397333D01*
X-142653Y-397373D01*
X-142743Y-397417D01*
X-142831Y-397464D01*
X-142917Y-397514D01*
X-143001Y-397568D01*
X-143083Y-397625D01*
X-143162Y-397685D01*
X-143240Y-397749D01*
X-143314Y-397815D01*
X-143386Y-397884D01*
X-143455Y-397956D01*
X-143521Y-398030D01*
X-143585Y-398108D01*
X-143645Y-398187D01*
X-143702Y-398269D01*
X-143756Y-398353D01*
X-143806Y-398439D01*
X-143853Y-398527D01*
X-143897Y-398617D01*
X-143937Y-398708D01*
X-143973Y-398801D01*
X-144006Y-398895D01*
X-144035Y-398991D01*
X-144060Y-399087D01*
X-144081Y-399184D01*
X-144099Y-399283D01*
X-144112Y-399381D01*
X-144122Y-399481D01*
X-144128Y-399580D01*
X-144130Y-399680D01*
X-98410Y-442860D02*
X-98310Y-442858D01*
X-98211Y-442852D01*
X-98111Y-442842D01*
X-98013Y-442829D01*
X-97914Y-442811D01*
X-97817Y-442790D01*
X-97721Y-442765D01*
X-97625Y-442736D01*
X-97531Y-442703D01*
X-97438Y-442667D01*
X-97347Y-442627D01*
X-97257Y-442583D01*
X-97169Y-442536D01*
X-97083Y-442486D01*
X-96999Y-442432D01*
X-96917Y-442375D01*
X-96838Y-442315D01*
X-96760Y-442251D01*
X-96686Y-442185D01*
X-96614Y-442116D01*
X-96545Y-442044D01*
X-96479Y-441970D01*
X-96415Y-441892D01*
X-96355Y-441813D01*
X-96298Y-441731D01*
X-96244Y-441647D01*
X-96194Y-441561D01*
X-96147Y-441473D01*
X-96103Y-441383D01*
X-96063Y-441292D01*
X-96027Y-441199D01*
X-95994Y-441105D01*
X-95965Y-441009D01*
X-95940Y-440913D01*
X-95919Y-440816D01*
X-95901Y-440717D01*
X-95888Y-440619D01*
X-95878Y-440519D01*
X-95872Y-440420D01*
X-95870Y-440320D01*
X-141590Y-442860D02*
X-141690Y-442858D01*
X-141789Y-442852D01*
X-141889Y-442842D01*
X-141987Y-442829D01*
X-142086Y-442811D01*
X-142183Y-442790D01*
X-142279Y-442765D01*
X-142375Y-442736D01*
X-142469Y-442703D01*
X-142562Y-442667D01*
X-142653Y-442627D01*
X-142743Y-442583D01*
X-142831Y-442536D01*
X-142917Y-442486D01*
X-143001Y-442432D01*
X-143083Y-442375D01*
X-143162Y-442315D01*
X-143240Y-442251D01*
X-143314Y-442185D01*
X-143386Y-442116D01*
X-143455Y-442044D01*
X-143521Y-441970D01*
X-143585Y-441892D01*
X-143645Y-441813D01*
X-143702Y-441731D01*
X-143756Y-441647D01*
X-143806Y-441561D01*
X-143853Y-441473D01*
X-143897Y-441383D01*
X-143937Y-441292D01*
X-143973Y-441199D01*
X-144006Y-441105D01*
X-144035Y-441009D01*
X-144060Y-440913D01*
X-144081Y-440816D01*
X-144099Y-440717D01*
X-144112Y-440619D01*
X-144122Y-440519D01*
X-144128Y-440420D01*
X-144130Y-440320D01*
X-117460Y-420000D02*
X-116190Y-420000D01*
D13*
X-117460Y-420000D02*
X-117460Y-412380D01*
X-117460Y-420000D02*
X-117460Y-427620D01*
X-122540Y-420000D02*
X-122540Y-412380D01*
X-122540Y-420000D02*
X-122540Y-427620D01*
D12*
X-122540Y-420000D02*
X-123810Y-420000D01*
D14*
X-137145Y-393965D02*
X-139685Y-393965D01*
X-139785Y-393963D01*
X-139884Y-393957D01*
X-139984Y-393947D01*
X-140082Y-393934D01*
X-140181Y-393916D01*
X-140278Y-393895D01*
X-140374Y-393870D01*
X-140470Y-393841D01*
X-140564Y-393808D01*
X-140657Y-393772D01*
X-140748Y-393732D01*
X-140838Y-393688D01*
X-140926Y-393641D01*
X-141012Y-393591D01*
X-141096Y-393537D01*
X-141178Y-393480D01*
X-141257Y-393420D01*
X-141335Y-393356D01*
X-141409Y-393290D01*
X-141481Y-393221D01*
X-141550Y-393149D01*
X-141616Y-393075D01*
X-141680Y-392997D01*
X-141740Y-392918D01*
X-141797Y-392836D01*
X-141851Y-392752D01*
X-141901Y-392666D01*
X-141948Y-392578D01*
X-141992Y-392488D01*
X-142032Y-392397D01*
X-142068Y-392304D01*
X-142101Y-392210D01*
X-142130Y-392114D01*
X-142155Y-392018D01*
X-142176Y-391921D01*
X-142194Y-391822D01*
X-142207Y-391724D01*
X-142217Y-391624D01*
X-142223Y-391525D01*
X-142225Y-391425D01*
X-142225Y-385075D01*
X-142223Y-384975D01*
X-142217Y-384876D01*
X-142207Y-384776D01*
X-142194Y-384678D01*
X-142176Y-384579D01*
X-142155Y-384482D01*
X-142130Y-384386D01*
X-142101Y-384290D01*
X-142068Y-384196D01*
X-142032Y-384103D01*
X-141992Y-384012D01*
X-141948Y-383922D01*
X-141901Y-383834D01*
X-141851Y-383748D01*
X-141797Y-383664D01*
X-141740Y-383582D01*
X-141680Y-383503D01*
X-141616Y-383425D01*
X-141550Y-383351D01*
X-141481Y-383279D01*
X-141409Y-383210D01*
X-141335Y-383144D01*
X-141257Y-383080D01*
X-141178Y-383020D01*
X-141096Y-382963D01*
X-141012Y-382909D01*
X-140926Y-382859D01*
X-140838Y-382812D01*
X-140748Y-382768D01*
X-140657Y-382728D01*
X-140564Y-382692D01*
X-140470Y-382659D01*
X-140374Y-382630D01*
X-140278Y-382605D01*
X-140181Y-382584D01*
X-140082Y-382566D01*
X-139984Y-382553D01*
X-139884Y-382543D01*
X-139785Y-382537D01*
X-139685Y-382535D01*
X-137145Y-382535D01*
X-132663Y-385075D02*
X-129488Y-382535D01*
X-129488Y-393965D01*
X-132663Y-393965D02*
X-126313Y-393965D01*
D12*
X-141590Y-347300D02*
X-98410Y-347300D01*
X-98410Y-372700D02*
X-141590Y-372700D01*
X-95870Y-370160D02*
X-95870Y-349840D01*
X-144130Y-349840D02*
X-144130Y-370160D01*
X-98410Y-347300D02*
X-98310Y-347302D01*
X-98211Y-347308D01*
X-98111Y-347318D01*
X-98013Y-347331D01*
X-97914Y-347349D01*
X-97817Y-347370D01*
X-97721Y-347395D01*
X-97625Y-347424D01*
X-97531Y-347457D01*
X-97438Y-347493D01*
X-97347Y-347533D01*
X-97257Y-347577D01*
X-97169Y-347624D01*
X-97083Y-347674D01*
X-96999Y-347728D01*
X-96917Y-347785D01*
X-96838Y-347845D01*
X-96760Y-347909D01*
X-96686Y-347975D01*
X-96614Y-348044D01*
X-96545Y-348116D01*
X-96479Y-348190D01*
X-96415Y-348268D01*
X-96355Y-348347D01*
X-96298Y-348429D01*
X-96244Y-348513D01*
X-96194Y-348599D01*
X-96147Y-348687D01*
X-96103Y-348777D01*
X-96063Y-348868D01*
X-96027Y-348961D01*
X-95994Y-349055D01*
X-95965Y-349151D01*
X-95940Y-349247D01*
X-95919Y-349344D01*
X-95901Y-349443D01*
X-95888Y-349541D01*
X-95878Y-349641D01*
X-95872Y-349740D01*
X-95870Y-349840D01*
X-141590Y-347300D02*
X-141690Y-347302D01*
X-141789Y-347308D01*
X-141889Y-347318D01*
X-141987Y-347331D01*
X-142086Y-347349D01*
X-142183Y-347370D01*
X-142279Y-347395D01*
X-142375Y-347424D01*
X-142469Y-347457D01*
X-142562Y-347493D01*
X-142653Y-347533D01*
X-142743Y-347577D01*
X-142831Y-347624D01*
X-142917Y-347674D01*
X-143001Y-347728D01*
X-143083Y-347785D01*
X-143162Y-347845D01*
X-143240Y-347909D01*
X-143314Y-347975D01*
X-143386Y-348044D01*
X-143455Y-348116D01*
X-143521Y-348190D01*
X-143585Y-348268D01*
X-143645Y-348347D01*
X-143702Y-348429D01*
X-143756Y-348513D01*
X-143806Y-348599D01*
X-143853Y-348687D01*
X-143897Y-348777D01*
X-143937Y-348868D01*
X-143973Y-348961D01*
X-144006Y-349055D01*
X-144035Y-349151D01*
X-144060Y-349247D01*
X-144081Y-349344D01*
X-144099Y-349443D01*
X-144112Y-349541D01*
X-144122Y-349641D01*
X-144128Y-349740D01*
X-144130Y-349840D01*
X-98410Y-372700D02*
X-98310Y-372698D01*
X-98211Y-372692D01*
X-98111Y-372682D01*
X-98013Y-372669D01*
X-97914Y-372651D01*
X-97817Y-372630D01*
X-97721Y-372605D01*
X-97625Y-372576D01*
X-97531Y-372543D01*
X-97438Y-372507D01*
X-97347Y-372467D01*
X-97257Y-372423D01*
X-97169Y-372376D01*
X-97083Y-372326D01*
X-96999Y-372272D01*
X-96917Y-372215D01*
X-96838Y-372155D01*
X-96760Y-372091D01*
X-96686Y-372025D01*
X-96614Y-371956D01*
X-96545Y-371884D01*
X-96479Y-371810D01*
X-96415Y-371732D01*
X-96355Y-371653D01*
X-96298Y-371571D01*
X-96244Y-371487D01*
X-96194Y-371401D01*
X-96147Y-371313D01*
X-96103Y-371223D01*
X-96063Y-371132D01*
X-96027Y-371039D01*
X-95994Y-370945D01*
X-95965Y-370849D01*
X-95940Y-370753D01*
X-95919Y-370656D01*
X-95901Y-370557D01*
X-95888Y-370459D01*
X-95878Y-370359D01*
X-95872Y-370260D01*
X-95870Y-370160D01*
X-141590Y-372700D02*
X-141690Y-372698D01*
X-141789Y-372692D01*
X-141889Y-372682D01*
X-141987Y-372669D01*
X-142086Y-372651D01*
X-142183Y-372630D01*
X-142279Y-372605D01*
X-142375Y-372576D01*
X-142469Y-372543D01*
X-142562Y-372507D01*
X-142653Y-372467D01*
X-142743Y-372423D01*
X-142831Y-372376D01*
X-142917Y-372326D01*
X-143001Y-372272D01*
X-143083Y-372215D01*
X-143162Y-372155D01*
X-143240Y-372091D01*
X-143314Y-372025D01*
X-143386Y-371956D01*
X-143455Y-371884D01*
X-143521Y-371810D01*
X-143585Y-371732D01*
X-143645Y-371653D01*
X-143702Y-371571D01*
X-143756Y-371487D01*
X-143806Y-371401D01*
X-143853Y-371313D01*
X-143897Y-371223D01*
X-143937Y-371132D01*
X-143973Y-371039D01*
X-144006Y-370945D01*
X-144035Y-370849D01*
X-144060Y-370753D01*
X-144081Y-370656D01*
X-144099Y-370557D01*
X-144112Y-370459D01*
X-144122Y-370359D01*
X-144128Y-370260D01*
X-144130Y-370160D01*
X-117460Y-360000D02*
X-116190Y-360000D01*
D13*
X-117460Y-360000D02*
X-117460Y-352380D01*
X-117460Y-360000D02*
X-117460Y-367620D01*
X-122540Y-360000D02*
X-122540Y-352380D01*
X-122540Y-360000D02*
X-122540Y-367620D01*
D12*
X-122540Y-360000D02*
X-123810Y-360000D01*
D14*
X-137145Y-344125D02*
X-139685Y-344125D01*
X-139785Y-344123D01*
X-139884Y-344117D01*
X-139984Y-344107D01*
X-140082Y-344094D01*
X-140181Y-344076D01*
X-140278Y-344055D01*
X-140374Y-344030D01*
X-140470Y-344001D01*
X-140564Y-343968D01*
X-140657Y-343932D01*
X-140748Y-343892D01*
X-140838Y-343848D01*
X-140926Y-343801D01*
X-141012Y-343751D01*
X-141096Y-343697D01*
X-141178Y-343640D01*
X-141257Y-343580D01*
X-141335Y-343516D01*
X-141409Y-343450D01*
X-141481Y-343381D01*
X-141550Y-343309D01*
X-141616Y-343235D01*
X-141680Y-343157D01*
X-141740Y-343078D01*
X-141797Y-342996D01*
X-141851Y-342912D01*
X-141901Y-342826D01*
X-141948Y-342738D01*
X-141992Y-342648D01*
X-142032Y-342557D01*
X-142068Y-342464D01*
X-142101Y-342370D01*
X-142130Y-342274D01*
X-142155Y-342178D01*
X-142176Y-342081D01*
X-142194Y-341982D01*
X-142207Y-341884D01*
X-142217Y-341784D01*
X-142223Y-341685D01*
X-142225Y-341585D01*
X-142225Y-335235D01*
X-142223Y-335135D01*
X-142217Y-335036D01*
X-142207Y-334936D01*
X-142194Y-334838D01*
X-142176Y-334739D01*
X-142155Y-334642D01*
X-142130Y-334546D01*
X-142101Y-334450D01*
X-142068Y-334356D01*
X-142032Y-334263D01*
X-141992Y-334172D01*
X-141948Y-334082D01*
X-141901Y-333994D01*
X-141851Y-333908D01*
X-141797Y-333824D01*
X-141740Y-333742D01*
X-141680Y-333663D01*
X-141616Y-333585D01*
X-141550Y-333511D01*
X-141481Y-333439D01*
X-141409Y-333370D01*
X-141335Y-333304D01*
X-141257Y-333240D01*
X-141178Y-333180D01*
X-141096Y-333123D01*
X-141012Y-333069D01*
X-140926Y-333019D01*
X-140838Y-332972D01*
X-140748Y-332928D01*
X-140657Y-332888D01*
X-140564Y-332852D01*
X-140470Y-332819D01*
X-140374Y-332790D01*
X-140278Y-332765D01*
X-140181Y-332744D01*
X-140082Y-332726D01*
X-139984Y-332713D01*
X-139884Y-332703D01*
X-139785Y-332697D01*
X-139685Y-332695D01*
X-137145Y-332695D01*
X-129170Y-332695D02*
X-129066Y-332697D01*
X-128961Y-332703D01*
X-128857Y-332712D01*
X-128754Y-332725D01*
X-128651Y-332743D01*
X-128549Y-332763D01*
X-128447Y-332788D01*
X-128347Y-332816D01*
X-128247Y-332848D01*
X-128149Y-332884D01*
X-128052Y-332923D01*
X-127957Y-332965D01*
X-127863Y-333011D01*
X-127771Y-333061D01*
X-127681Y-333113D01*
X-127593Y-333169D01*
X-127507Y-333229D01*
X-127423Y-333291D01*
X-127342Y-333356D01*
X-127263Y-333424D01*
X-127186Y-333496D01*
X-127113Y-333569D01*
X-127041Y-333646D01*
X-126973Y-333725D01*
X-126908Y-333806D01*
X-126846Y-333890D01*
X-126786Y-333976D01*
X-126730Y-334064D01*
X-126678Y-334154D01*
X-126628Y-334246D01*
X-126582Y-334340D01*
X-126540Y-334435D01*
X-126501Y-334532D01*
X-126465Y-334630D01*
X-126433Y-334730D01*
X-126405Y-334830D01*
X-126380Y-334932D01*
X-126360Y-335034D01*
X-126342Y-335137D01*
X-126329Y-335240D01*
X-126320Y-335344D01*
X-126314Y-335449D01*
X-126312Y-335553D01*
X-129170Y-332695D02*
X-129288Y-332697D01*
X-129407Y-332703D01*
X-129525Y-332712D01*
X-129642Y-332725D01*
X-129759Y-332743D01*
X-129876Y-332763D01*
X-129992Y-332788D01*
X-130107Y-332816D01*
X-130220Y-332849D01*
X-130333Y-332884D01*
X-130445Y-332924D01*
X-130555Y-332966D01*
X-130664Y-333013D01*
X-130772Y-333063D01*
X-130877Y-333116D01*
X-130981Y-333173D01*
X-131083Y-333233D01*
X-131183Y-333296D01*
X-131281Y-333363D01*
X-131377Y-333432D01*
X-131470Y-333505D01*
X-131561Y-333581D01*
X-131650Y-333659D01*
X-131736Y-333741D01*
X-131819Y-333825D01*
X-131900Y-333911D01*
X-131977Y-334001D01*
X-132052Y-334092D01*
X-132124Y-334186D01*
X-132193Y-334283D01*
X-132258Y-334381D01*
X-132321Y-334482D01*
X-132380Y-334585D01*
X-132436Y-334689D01*
X-132488Y-334795D01*
X-132537Y-334903D01*
X-132582Y-335012D01*
X-132624Y-335123D01*
X-132662Y-335235D01*
X-127265Y-337775D02*
X-127189Y-337700D01*
X-127114Y-337621D01*
X-127043Y-337540D01*
X-126974Y-337456D01*
X-126909Y-337370D01*
X-126847Y-337282D01*
X-126787Y-337192D01*
X-126731Y-337100D01*
X-126678Y-337005D01*
X-126629Y-336909D01*
X-126583Y-336811D01*
X-126540Y-336712D01*
X-126501Y-336611D01*
X-126466Y-336509D01*
X-126434Y-336406D01*
X-126406Y-336302D01*
X-126381Y-336197D01*
X-126360Y-336090D01*
X-126343Y-335984D01*
X-126330Y-335877D01*
X-126321Y-335769D01*
X-126315Y-335661D01*
X-126313Y-335553D01*
X-127265Y-337775D02*
X-132663Y-344125D01*
X-126313Y-344125D01*
D12*
X567542Y-99036D02*
X571886Y-87102D01*
X567542Y-99036D02*
X559404Y-102831D01*
X547470Y-98487D02*
X543674Y-90348D01*
X559404Y-102831D02*
X563199Y-110970D01*
X558855Y-122904D01*
X550716Y-126699D01*
X538782Y-122355D02*
X534987Y-114217D01*
X539331Y-102282D01*
X547470Y-98487D01*
X556157Y-74619D02*
X568091Y-78963D01*
X571886Y-87102D01*
X556157Y-74619D02*
X548018Y-78414D01*
X543674Y-90348D01*
X550716Y-126699D02*
X554512Y-134838D01*
X550168Y-146772D01*
X542029Y-150567D01*
X530095Y-146224D02*
X526300Y-138085D01*
X530643Y-126151D01*
X538782Y-122355D01*
X545824Y-158706D02*
X541481Y-170640D01*
X533342Y-174435D01*
X521408Y-170092D02*
X517612Y-161953D01*
X533342Y-174435D02*
X537137Y-182574D01*
X532793Y-194508D01*
X524654Y-198304D01*
X512720Y-193960D02*
X508925Y-185821D01*
X513269Y-173887D01*
X521408Y-170092D01*
X545824Y-158706D02*
X542029Y-150567D01*
X530095Y-146224D02*
X521956Y-150019D01*
X517612Y-161953D01*
X524654Y-198304D02*
X528450Y-206443D01*
X524106Y-218377D01*
X515967Y-222172D01*
X504033Y-217828D02*
X500238Y-209689D01*
X504581Y-197755D01*
X512720Y-193960D01*
X519762Y-230311D02*
X515419Y-242245D01*
X507280Y-246040D01*
X495346Y-241696D02*
X491550Y-233557D01*
X507280Y-246040D02*
X511075Y-254179D01*
X506731Y-266113D01*
X498592Y-269908D01*
X486658Y-265565D02*
X482863Y-257426D01*
X487207Y-245492D01*
X495346Y-241696D01*
X519762Y-230311D02*
X515967Y-222172D01*
X504033Y-217828D02*
X495894Y-221623D01*
X491550Y-233557D01*
X498592Y-269908D02*
X502388Y-278047D01*
X498044Y-289981D01*
X489905Y-293776D01*
X477971Y-289433D02*
X474176Y-281294D01*
X478519Y-269360D01*
X486658Y-265565D01*
X493700Y-301915D02*
X489357Y-313849D01*
X481218Y-317645D01*
X469284Y-313301D02*
X465488Y-305162D01*
X481218Y-317645D02*
X485013Y-325783D01*
X480669Y-337718D01*
X472530Y-341513D01*
X460596Y-337169D02*
X456801Y-329030D01*
X461145Y-317096D01*
X469284Y-313301D01*
X493700Y-301915D02*
X489905Y-293776D01*
X477971Y-289433D02*
X469832Y-293228D01*
X465488Y-305162D01*
X472530Y-341513D02*
X476326Y-349652D01*
X471982Y-361586D01*
X463843Y-365381D01*
X451909Y-361037D02*
X448114Y-352898D01*
X452458Y-340964D01*
X460596Y-337169D01*
X451909Y-361037D02*
X463843Y-365381D01*
D14*
X532229Y-82804D02*
X530928Y-78952D01*
X541669Y-82861D01*
X540583Y-85844D02*
X542755Y-79877D01*
X475290Y-365493D02*
X476591Y-369345D01*
X475290Y-365493D02*
X486031Y-369402D01*
X487117Y-366419D02*
X484945Y-372386D01*
X479308Y-354454D02*
X479346Y-354356D01*
X479387Y-354261D01*
X479431Y-354166D01*
X479479Y-354073D01*
X479530Y-353982D01*
X479585Y-353894D01*
X479643Y-353807D01*
X479704Y-353722D01*
X479768Y-353639D01*
X479835Y-353559D01*
X479904Y-353482D01*
X479977Y-353407D01*
X480052Y-353334D01*
X480130Y-353265D01*
X480210Y-353198D01*
X480293Y-353135D01*
X480378Y-353074D01*
X480465Y-353017D01*
X480554Y-352963D01*
X480646Y-352912D01*
X480738Y-352864D01*
X480833Y-352820D01*
X480929Y-352779D01*
X481027Y-352742D01*
X481126Y-352709D01*
X481226Y-352679D01*
X481327Y-352653D01*
X481429Y-352630D01*
X481531Y-352612D01*
X481634Y-352597D01*
X481738Y-352585D01*
X481842Y-352578D01*
X481947Y-352574D01*
X482051Y-352575D01*
X482155Y-352579D01*
X482259Y-352586D01*
X482363Y-352598D01*
X482466Y-352613D01*
X482569Y-352633D01*
X482671Y-352656D01*
X482772Y-352682D01*
X482871Y-352712D01*
X482970Y-352746D01*
X479308Y-354453D02*
X479270Y-354565D01*
X479235Y-354678D01*
X479203Y-354793D01*
X479176Y-354908D01*
X479152Y-355024D01*
X479131Y-355140D01*
X479115Y-355257D01*
X479102Y-355375D01*
X479093Y-355493D01*
X479088Y-355611D01*
X479087Y-355730D01*
X479090Y-355848D01*
X479096Y-355966D01*
X479106Y-356084D01*
X479120Y-356202D01*
X479138Y-356319D01*
X479160Y-356435D01*
X479185Y-356551D01*
X479214Y-356666D01*
X479246Y-356779D01*
X479283Y-356892D01*
X479323Y-357003D01*
X479366Y-357113D01*
X479413Y-357222D01*
X479464Y-357329D01*
X479518Y-357434D01*
X479575Y-357538D01*
X479636Y-357640D01*
X479700Y-357739D01*
X479767Y-357837D01*
X479837Y-357932D01*
X479910Y-358025D01*
X479986Y-358116D01*
X480065Y-358204D01*
X480147Y-358290D01*
X480232Y-358372D01*
X480319Y-358452D01*
X480408Y-358530D01*
X480501Y-358604D01*
X484733Y-354401D02*
X484688Y-354303D01*
X484640Y-354206D01*
X484588Y-354112D01*
X484533Y-354019D01*
X484475Y-353928D01*
X484413Y-353839D01*
X484348Y-353752D01*
X484281Y-353668D01*
X484210Y-353586D01*
X484137Y-353507D01*
X484061Y-353430D01*
X483982Y-353356D01*
X483901Y-353285D01*
X483817Y-353217D01*
X483731Y-353151D01*
X483643Y-353089D01*
X483552Y-353030D01*
X483460Y-352974D01*
X483365Y-352922D01*
X483269Y-352873D01*
X483171Y-352827D01*
X483072Y-352785D01*
X482971Y-352746D01*
X484733Y-354401D02*
X488854Y-361645D01*
X491026Y-355678D01*
X581395Y-111106D02*
X581427Y-111011D01*
X581456Y-110916D01*
X581480Y-110819D01*
X581501Y-110722D01*
X581518Y-110623D01*
X581532Y-110525D01*
X581541Y-110425D01*
X581546Y-110326D01*
X581548Y-110226D01*
X581546Y-110126D01*
X581539Y-110027D01*
X581529Y-109927D01*
X581515Y-109829D01*
X581497Y-109731D01*
X581475Y-109633D01*
X581450Y-109537D01*
X581420Y-109442D01*
X581387Y-109347D01*
X581350Y-109255D01*
X581310Y-109164D01*
X581266Y-109074D01*
X581219Y-108986D01*
X581168Y-108900D01*
X581114Y-108817D01*
X581056Y-108735D01*
X580996Y-108656D01*
X580932Y-108579D01*
X580866Y-108505D01*
X580796Y-108433D01*
X580724Y-108364D01*
X580649Y-108298D01*
X580572Y-108235D01*
X580492Y-108176D01*
X580410Y-108119D01*
X580326Y-108066D01*
X580239Y-108015D01*
X580151Y-107969D01*
X580061Y-107926D01*
X579970Y-107886D01*
X579877Y-107850D01*
X581394Y-111105D02*
X581344Y-111237D01*
X581291Y-111368D01*
X581234Y-111497D01*
X581174Y-111625D01*
X581110Y-111751D01*
X581043Y-111875D01*
X580973Y-111998D01*
X580899Y-112119D01*
X580823Y-112237D01*
X580743Y-112354D01*
X580661Y-112468D01*
X580575Y-112581D01*
X580486Y-112691D01*
X580395Y-112798D01*
X580301Y-112903D01*
X580204Y-113006D01*
X580104Y-113106D01*
X580002Y-113204D01*
X579897Y-113298D01*
X579790Y-113390D01*
X579680Y-113479D01*
X579568Y-113565D01*
X579454Y-113649D01*
X579338Y-113729D01*
X579219Y-113806D01*
X579099Y-113880D01*
X578977Y-113950D01*
X578853Y-114018D01*
X578727Y-114082D01*
X578599Y-114143D01*
X571846Y-111347D02*
X571753Y-111311D01*
X571662Y-111271D01*
X571572Y-111228D01*
X571484Y-111182D01*
X571397Y-111131D01*
X571313Y-111078D01*
X571231Y-111021D01*
X571151Y-110962D01*
X571074Y-110899D01*
X570999Y-110833D01*
X570927Y-110764D01*
X570857Y-110692D01*
X570791Y-110618D01*
X570727Y-110541D01*
X570667Y-110462D01*
X570609Y-110380D01*
X570555Y-110297D01*
X570504Y-110211D01*
X570457Y-110123D01*
X570413Y-110033D01*
X570373Y-109942D01*
X570336Y-109850D01*
X570303Y-109755D01*
X570273Y-109660D01*
X570248Y-109564D01*
X570226Y-109466D01*
X570208Y-109368D01*
X570194Y-109270D01*
X570184Y-109170D01*
X570177Y-109071D01*
X570175Y-108971D01*
X570177Y-108871D01*
X570182Y-108772D01*
X570191Y-108673D01*
X570205Y-108574D01*
X570222Y-108475D01*
X570243Y-108378D01*
X570267Y-108281D01*
X570296Y-108186D01*
X570328Y-108091D01*
X570375Y-107967D01*
X570426Y-107844D01*
X570480Y-107722D01*
X570538Y-107602D01*
X570599Y-107483D01*
X570663Y-107367D01*
X570731Y-107252D01*
X570801Y-107139D01*
X570875Y-107028D01*
X570952Y-106919D01*
X571032Y-106812D01*
X571115Y-106708D01*
X571200Y-106606D01*
X571289Y-106506D01*
X571380Y-106409D01*
X571474Y-106315D01*
X571571Y-106223D01*
X571670Y-106134D01*
X571771Y-106048D01*
X571875Y-105964D01*
X571981Y-105884D01*
X572090Y-105806D01*
X572200Y-105732D01*
X574370Y-110913D02*
X574292Y-110975D01*
X574212Y-111033D01*
X574130Y-111089D01*
X574045Y-111141D01*
X573959Y-111190D01*
X573871Y-111236D01*
X573781Y-111278D01*
X573690Y-111316D01*
X573597Y-111352D01*
X573503Y-111383D01*
X573408Y-111411D01*
X573312Y-111435D01*
X573214Y-111456D01*
X573117Y-111473D01*
X573018Y-111486D01*
X572920Y-111495D01*
X572821Y-111500D01*
X572721Y-111502D01*
X572622Y-111500D01*
X572523Y-111494D01*
X572424Y-111484D01*
X572326Y-111470D01*
X572228Y-111453D01*
X572132Y-111432D01*
X572035Y-111407D01*
X571940Y-111379D01*
X571847Y-111346D01*
X577353Y-108283D02*
X577431Y-108221D01*
X577511Y-108163D01*
X577593Y-108107D01*
X577678Y-108055D01*
X577764Y-108006D01*
X577852Y-107960D01*
X577942Y-107918D01*
X578033Y-107880D01*
X578126Y-107844D01*
X578220Y-107813D01*
X578315Y-107785D01*
X578411Y-107761D01*
X578509Y-107740D01*
X578606Y-107723D01*
X578705Y-107710D01*
X578803Y-107701D01*
X578902Y-107696D01*
X579002Y-107694D01*
X579101Y-107696D01*
X579200Y-107702D01*
X579299Y-107712D01*
X579397Y-107726D01*
X579494Y-107743D01*
X579591Y-107764D01*
X579687Y-107789D01*
X579782Y-107817D01*
X579876Y-107850D01*
X577354Y-108283D02*
X574369Y-110913D01*
X572913Y-100990D02*
X584956Y-101319D01*
X575519Y-93830D01*
X579426Y-90522D02*
X578125Y-86669D01*
X588866Y-90579D01*
X587780Y-93562D02*
X589952Y-87595D01*
X-80000Y-460000D02*
X-80000Y-560000D01*
X-80000Y-460000D02*
X-180000Y-460000D01*
X-180000Y-560000D01*
X-80000Y-560000D01*
D11*
X-171139Y-556087D02*
X-171139Y-544403D01*
X-167893Y-544403D01*
X-167806Y-544405D01*
X-167718Y-544411D01*
X-167632Y-544421D01*
X-167545Y-544434D01*
X-167460Y-544452D01*
X-167375Y-544473D01*
X-167291Y-544498D01*
X-167209Y-544527D01*
X-167128Y-544560D01*
X-167048Y-544596D01*
X-166970Y-544635D01*
X-166894Y-544679D01*
X-166820Y-544725D01*
X-166749Y-544775D01*
X-166679Y-544828D01*
X-166612Y-544884D01*
X-166548Y-544943D01*
X-166486Y-545004D01*
X-166427Y-545069D01*
X-166371Y-545136D01*
X-166318Y-545206D01*
X-166268Y-545277D01*
X-166222Y-545351D01*
X-166179Y-545427D01*
X-166139Y-545505D01*
X-166103Y-545585D01*
X-166070Y-545666D01*
X-166041Y-545748D01*
X-166016Y-545832D01*
X-165995Y-545917D01*
X-165977Y-546002D01*
X-165964Y-546089D01*
X-165954Y-546175D01*
X-165948Y-546263D01*
X-165946Y-546350D01*
X-165946Y-550245D01*
X-165948Y-550332D01*
X-165954Y-550420D01*
X-165964Y-550506D01*
X-165977Y-550593D01*
X-165995Y-550678D01*
X-166016Y-550763D01*
X-166041Y-550847D01*
X-166070Y-550929D01*
X-166103Y-551010D01*
X-166139Y-551090D01*
X-166178Y-551168D01*
X-166222Y-551244D01*
X-166268Y-551318D01*
X-166318Y-551389D01*
X-166371Y-551459D01*
X-166427Y-551526D01*
X-166486Y-551591D01*
X-166548Y-551652D01*
X-166612Y-551711D01*
X-166679Y-551767D01*
X-166749Y-551820D01*
X-166820Y-551870D01*
X-166894Y-551916D01*
X-166970Y-551960D01*
X-167048Y-551999D01*
X-167128Y-552035D01*
X-167209Y-552068D01*
X-167291Y-552097D01*
X-167375Y-552122D01*
X-167460Y-552143D01*
X-167545Y-552161D01*
X-167632Y-552174D01*
X-167719Y-552184D01*
X-167806Y-552190D01*
X-167893Y-552192D01*
X-171139Y-552192D01*
X-161292Y-549596D02*
X-161292Y-546999D01*
X-161291Y-546999D02*
X-161289Y-546898D01*
X-161283Y-546798D01*
X-161273Y-546698D01*
X-161260Y-546598D01*
X-161242Y-546499D01*
X-161221Y-546400D01*
X-161196Y-546303D01*
X-161167Y-546206D01*
X-161134Y-546111D01*
X-161098Y-546017D01*
X-161058Y-545925D01*
X-161015Y-545834D01*
X-160968Y-545745D01*
X-160918Y-545658D01*
X-160864Y-545572D01*
X-160807Y-545489D01*
X-160747Y-545409D01*
X-160684Y-545330D01*
X-160617Y-545254D01*
X-160548Y-545181D01*
X-160476Y-545111D01*
X-160402Y-545043D01*
X-160325Y-544978D01*
X-160245Y-544917D01*
X-160163Y-544858D01*
X-160079Y-544803D01*
X-159993Y-544751D01*
X-159905Y-544702D01*
X-159815Y-544657D01*
X-159723Y-544615D01*
X-159630Y-544577D01*
X-159535Y-544543D01*
X-159440Y-544512D01*
X-159343Y-544485D01*
X-159245Y-544462D01*
X-159146Y-544442D01*
X-159046Y-544427D01*
X-158946Y-544415D01*
X-158846Y-544407D01*
X-158745Y-544403D01*
X-158645Y-544403D01*
X-158544Y-544407D01*
X-158444Y-544415D01*
X-158344Y-544427D01*
X-158244Y-544442D01*
X-158145Y-544462D01*
X-158047Y-544485D01*
X-157950Y-544512D01*
X-157855Y-544543D01*
X-157760Y-544577D01*
X-157667Y-544615D01*
X-157575Y-544657D01*
X-157485Y-544702D01*
X-157397Y-544751D01*
X-157311Y-544803D01*
X-157227Y-544858D01*
X-157145Y-544917D01*
X-157065Y-544978D01*
X-156988Y-545043D01*
X-156914Y-545111D01*
X-156842Y-545181D01*
X-156773Y-545254D01*
X-156706Y-545330D01*
X-156643Y-545409D01*
X-156583Y-545489D01*
X-156526Y-545572D01*
X-156472Y-545658D01*
X-156422Y-545745D01*
X-156375Y-545834D01*
X-156332Y-545925D01*
X-156292Y-546017D01*
X-156256Y-546111D01*
X-156223Y-546206D01*
X-156194Y-546303D01*
X-156169Y-546400D01*
X-156148Y-546499D01*
X-156130Y-546598D01*
X-156117Y-546698D01*
X-156107Y-546798D01*
X-156101Y-546898D01*
X-156099Y-546999D01*
X-156099Y-549596D01*
X-156101Y-549697D01*
X-156107Y-549797D01*
X-156117Y-549897D01*
X-156130Y-549997D01*
X-156148Y-550096D01*
X-156169Y-550195D01*
X-156194Y-550292D01*
X-156223Y-550389D01*
X-156256Y-550484D01*
X-156292Y-550578D01*
X-156332Y-550670D01*
X-156375Y-550761D01*
X-156422Y-550850D01*
X-156472Y-550937D01*
X-156526Y-551023D01*
X-156583Y-551106D01*
X-156643Y-551186D01*
X-156706Y-551265D01*
X-156773Y-551341D01*
X-156842Y-551414D01*
X-156914Y-551484D01*
X-156988Y-551552D01*
X-157065Y-551617D01*
X-157145Y-551678D01*
X-157227Y-551737D01*
X-157311Y-551792D01*
X-157397Y-551844D01*
X-157485Y-551893D01*
X-157575Y-551938D01*
X-157667Y-551980D01*
X-157760Y-552018D01*
X-157855Y-552052D01*
X-157950Y-552083D01*
X-158047Y-552110D01*
X-158145Y-552133D01*
X-158244Y-552153D01*
X-158344Y-552168D01*
X-158444Y-552180D01*
X-158544Y-552188D01*
X-158645Y-552192D01*
X-158745Y-552192D01*
X-158846Y-552188D01*
X-158946Y-552180D01*
X-159046Y-552168D01*
X-159146Y-552153D01*
X-159245Y-552133D01*
X-159343Y-552110D01*
X-159440Y-552083D01*
X-159535Y-552052D01*
X-159630Y-552018D01*
X-159723Y-551980D01*
X-159815Y-551938D01*
X-159905Y-551893D01*
X-159993Y-551844D01*
X-160079Y-551792D01*
X-160163Y-551737D01*
X-160245Y-551678D01*
X-160325Y-551617D01*
X-160402Y-551552D01*
X-160476Y-551484D01*
X-160548Y-551414D01*
X-160617Y-551341D01*
X-160684Y-551265D01*
X-160747Y-551186D01*
X-160807Y-551106D01*
X-160864Y-551023D01*
X-160918Y-550937D01*
X-160968Y-550850D01*
X-161015Y-550761D01*
X-161058Y-550670D01*
X-161098Y-550578D01*
X-161134Y-550484D01*
X-161167Y-550389D01*
X-161196Y-550292D01*
X-161221Y-550195D01*
X-161242Y-550096D01*
X-161260Y-549997D01*
X-161273Y-549897D01*
X-161283Y-549797D01*
X-161289Y-549697D01*
X-161291Y-549596D01*
X-151541Y-544403D02*
X-149594Y-552192D01*
X-147646Y-546999D01*
X-145699Y-552192D01*
X-143752Y-544403D01*
X-137246Y-552192D02*
X-134001Y-552192D01*
X-137246Y-552192D02*
X-137333Y-552190D01*
X-137421Y-552184D01*
X-137507Y-552174D01*
X-137594Y-552161D01*
X-137679Y-552143D01*
X-137764Y-552122D01*
X-137848Y-552097D01*
X-137930Y-552068D01*
X-138011Y-552035D01*
X-138091Y-551999D01*
X-138169Y-551960D01*
X-138245Y-551916D01*
X-138319Y-551870D01*
X-138390Y-551820D01*
X-138460Y-551767D01*
X-138527Y-551711D01*
X-138591Y-551652D01*
X-138653Y-551590D01*
X-138712Y-551526D01*
X-138768Y-551459D01*
X-138821Y-551389D01*
X-138871Y-551318D01*
X-138917Y-551244D01*
X-138961Y-551168D01*
X-139000Y-551090D01*
X-139036Y-551010D01*
X-139069Y-550929D01*
X-139098Y-550847D01*
X-139123Y-550763D01*
X-139144Y-550678D01*
X-139162Y-550593D01*
X-139175Y-550506D01*
X-139185Y-550420D01*
X-139191Y-550332D01*
X-139193Y-550245D01*
X-139194Y-550245D02*
X-139194Y-546999D01*
X-139193Y-546999D02*
X-139191Y-546898D01*
X-139185Y-546798D01*
X-139175Y-546698D01*
X-139162Y-546598D01*
X-139144Y-546499D01*
X-139123Y-546400D01*
X-139098Y-546303D01*
X-139069Y-546206D01*
X-139036Y-546111D01*
X-139000Y-546017D01*
X-138960Y-545925D01*
X-138917Y-545834D01*
X-138870Y-545745D01*
X-138820Y-545658D01*
X-138766Y-545572D01*
X-138709Y-545489D01*
X-138649Y-545409D01*
X-138586Y-545330D01*
X-138519Y-545254D01*
X-138450Y-545181D01*
X-138378Y-545111D01*
X-138304Y-545043D01*
X-138227Y-544978D01*
X-138147Y-544917D01*
X-138065Y-544858D01*
X-137981Y-544803D01*
X-137895Y-544751D01*
X-137807Y-544702D01*
X-137717Y-544657D01*
X-137625Y-544615D01*
X-137532Y-544577D01*
X-137437Y-544543D01*
X-137342Y-544512D01*
X-137245Y-544485D01*
X-137147Y-544462D01*
X-137048Y-544442D01*
X-136948Y-544427D01*
X-136848Y-544415D01*
X-136748Y-544407D01*
X-136647Y-544403D01*
X-136547Y-544403D01*
X-136446Y-544407D01*
X-136346Y-544415D01*
X-136246Y-544427D01*
X-136146Y-544442D01*
X-136047Y-544462D01*
X-135949Y-544485D01*
X-135852Y-544512D01*
X-135757Y-544543D01*
X-135662Y-544577D01*
X-135569Y-544615D01*
X-135477Y-544657D01*
X-135387Y-544702D01*
X-135299Y-544751D01*
X-135213Y-544803D01*
X-135129Y-544858D01*
X-135047Y-544917D01*
X-134967Y-544978D01*
X-134890Y-545043D01*
X-134816Y-545111D01*
X-134744Y-545181D01*
X-134675Y-545254D01*
X-134608Y-545330D01*
X-134545Y-545409D01*
X-134485Y-545489D01*
X-134428Y-545572D01*
X-134374Y-545658D01*
X-134324Y-545745D01*
X-134277Y-545834D01*
X-134234Y-545925D01*
X-134194Y-546017D01*
X-134158Y-546111D01*
X-134125Y-546206D01*
X-134096Y-546303D01*
X-134071Y-546400D01*
X-134050Y-546499D01*
X-134032Y-546598D01*
X-134019Y-546698D01*
X-134009Y-546798D01*
X-134003Y-546898D01*
X-134001Y-546999D01*
X-134001Y-548297D01*
X-139194Y-548297D01*
X-128840Y-552192D02*
X-128840Y-544403D01*
X-124946Y-544403D01*
X-124946Y-545701D01*
X-113230Y-552192D02*
X-110634Y-552192D01*
X-113230Y-552192D02*
X-113317Y-552190D01*
X-113405Y-552184D01*
X-113491Y-552174D01*
X-113578Y-552161D01*
X-113663Y-552143D01*
X-113748Y-552122D01*
X-113832Y-552097D01*
X-113914Y-552068D01*
X-113995Y-552035D01*
X-114075Y-551999D01*
X-114153Y-551960D01*
X-114229Y-551916D01*
X-114303Y-551870D01*
X-114374Y-551820D01*
X-114444Y-551767D01*
X-114511Y-551711D01*
X-114575Y-551652D01*
X-114637Y-551590D01*
X-114696Y-551526D01*
X-114752Y-551459D01*
X-114805Y-551389D01*
X-114855Y-551318D01*
X-114901Y-551244D01*
X-114945Y-551168D01*
X-114984Y-551090D01*
X-115020Y-551010D01*
X-115053Y-550929D01*
X-115082Y-550847D01*
X-115107Y-550763D01*
X-115128Y-550678D01*
X-115146Y-550593D01*
X-115159Y-550506D01*
X-115169Y-550420D01*
X-115175Y-550332D01*
X-115177Y-550245D01*
X-115177Y-546350D01*
X-115175Y-546263D01*
X-115169Y-546175D01*
X-115159Y-546089D01*
X-115146Y-546002D01*
X-115128Y-545917D01*
X-115107Y-545832D01*
X-115082Y-545748D01*
X-115053Y-545666D01*
X-115020Y-545585D01*
X-114984Y-545505D01*
X-114945Y-545427D01*
X-114901Y-545351D01*
X-114855Y-545277D01*
X-114805Y-545206D01*
X-114752Y-545136D01*
X-114696Y-545069D01*
X-114637Y-545005D01*
X-114575Y-544943D01*
X-114511Y-544884D01*
X-114444Y-544828D01*
X-114374Y-544775D01*
X-114303Y-544725D01*
X-114229Y-544679D01*
X-114153Y-544635D01*
X-114075Y-544596D01*
X-113995Y-544560D01*
X-113914Y-544527D01*
X-113832Y-544498D01*
X-113748Y-544473D01*
X-113663Y-544452D01*
X-113578Y-544434D01*
X-113491Y-544421D01*
X-113405Y-544411D01*
X-113317Y-544405D01*
X-113230Y-544403D01*
X-110634Y-544403D01*
X-104215Y-547648D02*
X-101294Y-547648D01*
X-104215Y-547648D02*
X-104309Y-547650D01*
X-104403Y-547656D01*
X-104496Y-547665D01*
X-104589Y-547679D01*
X-104681Y-547696D01*
X-104773Y-547718D01*
X-104863Y-547742D01*
X-104953Y-547771D01*
X-105041Y-547803D01*
X-105128Y-547839D01*
X-105213Y-547879D01*
X-105296Y-547922D01*
X-105378Y-547968D01*
X-105458Y-548018D01*
X-105535Y-548071D01*
X-105610Y-548127D01*
X-105683Y-548186D01*
X-105754Y-548248D01*
X-105822Y-548313D01*
X-105887Y-548381D01*
X-105949Y-548452D01*
X-106008Y-548525D01*
X-106064Y-548600D01*
X-106117Y-548677D01*
X-106167Y-548757D01*
X-106213Y-548839D01*
X-106256Y-548922D01*
X-106296Y-549007D01*
X-106332Y-549094D01*
X-106364Y-549182D01*
X-106393Y-549272D01*
X-106417Y-549362D01*
X-106439Y-549454D01*
X-106456Y-549546D01*
X-106470Y-549639D01*
X-106479Y-549732D01*
X-106485Y-549826D01*
X-106487Y-549920D01*
X-106485Y-550014D01*
X-106479Y-550108D01*
X-106470Y-550201D01*
X-106456Y-550294D01*
X-106439Y-550386D01*
X-106417Y-550478D01*
X-106393Y-550568D01*
X-106364Y-550658D01*
X-106332Y-550746D01*
X-106296Y-550833D01*
X-106256Y-550918D01*
X-106213Y-551001D01*
X-106167Y-551083D01*
X-106117Y-551163D01*
X-106064Y-551240D01*
X-106008Y-551315D01*
X-105949Y-551388D01*
X-105887Y-551459D01*
X-105822Y-551527D01*
X-105754Y-551592D01*
X-105683Y-551654D01*
X-105610Y-551713D01*
X-105535Y-551769D01*
X-105458Y-551822D01*
X-105378Y-551872D01*
X-105296Y-551918D01*
X-105213Y-551961D01*
X-105128Y-552001D01*
X-105041Y-552037D01*
X-104953Y-552069D01*
X-104863Y-552098D01*
X-104773Y-552122D01*
X-104681Y-552144D01*
X-104589Y-552161D01*
X-104496Y-552175D01*
X-104403Y-552184D01*
X-104309Y-552190D01*
X-104215Y-552192D01*
X-101294Y-552192D01*
X-101294Y-546350D01*
X-101296Y-546263D01*
X-101302Y-546175D01*
X-101312Y-546089D01*
X-101325Y-546002D01*
X-101343Y-545917D01*
X-101364Y-545832D01*
X-101389Y-545748D01*
X-101418Y-545666D01*
X-101451Y-545585D01*
X-101487Y-545505D01*
X-101526Y-545427D01*
X-101570Y-545351D01*
X-101616Y-545277D01*
X-101666Y-545206D01*
X-101719Y-545136D01*
X-101775Y-545069D01*
X-101834Y-545004D01*
X-101896Y-544943D01*
X-101960Y-544884D01*
X-102027Y-544828D01*
X-102097Y-544775D01*
X-102168Y-544725D01*
X-102242Y-544679D01*
X-102318Y-544635D01*
X-102396Y-544596D01*
X-102476Y-544560D01*
X-102557Y-544527D01*
X-102639Y-544498D01*
X-102723Y-544473D01*
X-102808Y-544452D01*
X-102893Y-544434D01*
X-102980Y-544421D01*
X-103067Y-544411D01*
X-103154Y-544405D01*
X-103241Y-544403D01*
X-105838Y-544403D01*
X-95701Y-544403D02*
X-95701Y-556087D01*
X-95701Y-544403D02*
X-92455Y-544403D01*
X-92368Y-544405D01*
X-92280Y-544411D01*
X-92194Y-544421D01*
X-92107Y-544434D01*
X-92022Y-544452D01*
X-91937Y-544473D01*
X-91853Y-544498D01*
X-91771Y-544527D01*
X-91690Y-544560D01*
X-91610Y-544596D01*
X-91532Y-544635D01*
X-91456Y-544679D01*
X-91382Y-544725D01*
X-91311Y-544775D01*
X-91241Y-544828D01*
X-91174Y-544884D01*
X-91110Y-544943D01*
X-91048Y-545004D01*
X-90989Y-545069D01*
X-90933Y-545136D01*
X-90880Y-545206D01*
X-90830Y-545277D01*
X-90784Y-545351D01*
X-90741Y-545427D01*
X-90701Y-545505D01*
X-90665Y-545585D01*
X-90632Y-545666D01*
X-90603Y-545748D01*
X-90578Y-545832D01*
X-90557Y-545917D01*
X-90539Y-546002D01*
X-90526Y-546089D01*
X-90516Y-546175D01*
X-90510Y-546263D01*
X-90508Y-546350D01*
X-90508Y-550245D01*
X-90510Y-550332D01*
X-90516Y-550420D01*
X-90526Y-550506D01*
X-90539Y-550593D01*
X-90557Y-550678D01*
X-90578Y-550763D01*
X-90603Y-550847D01*
X-90632Y-550929D01*
X-90665Y-551010D01*
X-90701Y-551090D01*
X-90740Y-551168D01*
X-90784Y-551244D01*
X-90830Y-551318D01*
X-90880Y-551389D01*
X-90933Y-551459D01*
X-90989Y-551526D01*
X-91048Y-551591D01*
X-91110Y-551652D01*
X-91174Y-551711D01*
X-91241Y-551767D01*
X-91311Y-551820D01*
X-91382Y-551870D01*
X-91456Y-551916D01*
X-91532Y-551960D01*
X-91610Y-551999D01*
X-91690Y-552035D01*
X-91771Y-552068D01*
X-91853Y-552097D01*
X-91937Y-552122D01*
X-92022Y-552143D01*
X-92107Y-552161D01*
X-92194Y-552174D01*
X-92281Y-552184D01*
X-92368Y-552190D01*
X-92455Y-552192D01*
X-95701Y-552192D01*
X-113363Y-534892D02*
X-116609Y-534892D01*
X-116696Y-534890D01*
X-116784Y-534884D01*
X-116870Y-534874D01*
X-116957Y-534861D01*
X-117042Y-534843D01*
X-117127Y-534822D01*
X-117211Y-534797D01*
X-117293Y-534768D01*
X-117374Y-534735D01*
X-117454Y-534699D01*
X-117532Y-534660D01*
X-117608Y-534616D01*
X-117682Y-534570D01*
X-117753Y-534520D01*
X-117823Y-534467D01*
X-117890Y-534411D01*
X-117954Y-534352D01*
X-118016Y-534290D01*
X-118075Y-534226D01*
X-118131Y-534159D01*
X-118184Y-534089D01*
X-118234Y-534018D01*
X-118280Y-533944D01*
X-118324Y-533868D01*
X-118363Y-533790D01*
X-118399Y-533710D01*
X-118432Y-533629D01*
X-118461Y-533547D01*
X-118486Y-533463D01*
X-118507Y-533378D01*
X-118525Y-533293D01*
X-118538Y-533206D01*
X-118548Y-533120D01*
X-118554Y-533032D01*
X-118556Y-532945D01*
X-118556Y-529050D01*
X-118554Y-528963D01*
X-118548Y-528875D01*
X-118538Y-528789D01*
X-118525Y-528702D01*
X-118507Y-528617D01*
X-118486Y-528532D01*
X-118461Y-528448D01*
X-118432Y-528366D01*
X-118399Y-528285D01*
X-118363Y-528205D01*
X-118324Y-528127D01*
X-118280Y-528051D01*
X-118234Y-527977D01*
X-118184Y-527906D01*
X-118131Y-527836D01*
X-118075Y-527769D01*
X-118016Y-527705D01*
X-117954Y-527643D01*
X-117890Y-527584D01*
X-117823Y-527528D01*
X-117753Y-527475D01*
X-117682Y-527425D01*
X-117608Y-527379D01*
X-117532Y-527335D01*
X-117454Y-527296D01*
X-117374Y-527260D01*
X-117293Y-527227D01*
X-117211Y-527198D01*
X-117127Y-527173D01*
X-117042Y-527152D01*
X-116957Y-527134D01*
X-116870Y-527121D01*
X-116784Y-527111D01*
X-116696Y-527105D01*
X-116609Y-527103D01*
X-113363Y-527103D01*
X-113363Y-536839D01*
X-113365Y-536926D01*
X-113371Y-537014D01*
X-113381Y-537100D01*
X-113394Y-537187D01*
X-113412Y-537272D01*
X-113433Y-537357D01*
X-113458Y-537441D01*
X-113487Y-537523D01*
X-113520Y-537604D01*
X-113556Y-537684D01*
X-113595Y-537762D01*
X-113639Y-537838D01*
X-113685Y-537912D01*
X-113735Y-537983D01*
X-113788Y-538053D01*
X-113844Y-538120D01*
X-113903Y-538185D01*
X-113965Y-538246D01*
X-114029Y-538305D01*
X-114096Y-538361D01*
X-114166Y-538414D01*
X-114237Y-538464D01*
X-114311Y-538510D01*
X-114387Y-538554D01*
X-114465Y-538593D01*
X-114545Y-538629D01*
X-114626Y-538662D01*
X-114708Y-538691D01*
X-114792Y-538716D01*
X-114877Y-538737D01*
X-114962Y-538755D01*
X-115049Y-538768D01*
X-115136Y-538778D01*
X-115223Y-538784D01*
X-115310Y-538786D01*
X-115310Y-538787D02*
X-117907Y-538787D01*
X-107829Y-534892D02*
X-107829Y-527103D01*
X-104583Y-527103D01*
X-104496Y-527105D01*
X-104408Y-527111D01*
X-104322Y-527121D01*
X-104235Y-527134D01*
X-104150Y-527152D01*
X-104065Y-527173D01*
X-103981Y-527198D01*
X-103899Y-527227D01*
X-103818Y-527260D01*
X-103738Y-527296D01*
X-103660Y-527335D01*
X-103584Y-527379D01*
X-103510Y-527425D01*
X-103439Y-527475D01*
X-103369Y-527528D01*
X-103302Y-527584D01*
X-103238Y-527643D01*
X-103176Y-527704D01*
X-103117Y-527769D01*
X-103061Y-527836D01*
X-103008Y-527906D01*
X-102958Y-527977D01*
X-102912Y-528051D01*
X-102869Y-528127D01*
X-102829Y-528205D01*
X-102793Y-528285D01*
X-102760Y-528366D01*
X-102731Y-528448D01*
X-102706Y-528532D01*
X-102685Y-528617D01*
X-102667Y-528702D01*
X-102654Y-528789D01*
X-102644Y-528875D01*
X-102638Y-528963D01*
X-102636Y-529050D01*
X-102636Y-534892D01*
X-92408Y-534892D02*
X-92408Y-523208D01*
X-92408Y-534892D02*
X-95654Y-534892D01*
X-95741Y-534890D01*
X-95829Y-534884D01*
X-95915Y-534874D01*
X-96002Y-534861D01*
X-96087Y-534843D01*
X-96172Y-534822D01*
X-96256Y-534797D01*
X-96338Y-534768D01*
X-96419Y-534735D01*
X-96499Y-534699D01*
X-96577Y-534660D01*
X-96653Y-534616D01*
X-96727Y-534570D01*
X-96798Y-534520D01*
X-96868Y-534467D01*
X-96935Y-534411D01*
X-96999Y-534352D01*
X-97061Y-534290D01*
X-97120Y-534226D01*
X-97176Y-534159D01*
X-97229Y-534089D01*
X-97279Y-534018D01*
X-97325Y-533944D01*
X-97369Y-533868D01*
X-97408Y-533790D01*
X-97444Y-533710D01*
X-97477Y-533629D01*
X-97506Y-533547D01*
X-97531Y-533463D01*
X-97552Y-533378D01*
X-97570Y-533293D01*
X-97583Y-533206D01*
X-97593Y-533120D01*
X-97599Y-533032D01*
X-97601Y-532945D01*
X-97601Y-529050D01*
X-97599Y-528963D01*
X-97593Y-528875D01*
X-97583Y-528789D01*
X-97570Y-528702D01*
X-97552Y-528617D01*
X-97531Y-528532D01*
X-97506Y-528448D01*
X-97477Y-528366D01*
X-97444Y-528285D01*
X-97408Y-528205D01*
X-97369Y-528127D01*
X-97325Y-528051D01*
X-97279Y-527977D01*
X-97229Y-527906D01*
X-97176Y-527836D01*
X-97120Y-527769D01*
X-97061Y-527705D01*
X-96999Y-527643D01*
X-96935Y-527584D01*
X-96868Y-527528D01*
X-96798Y-527475D01*
X-96727Y-527425D01*
X-96653Y-527379D01*
X-96577Y-527335D01*
X-96499Y-527296D01*
X-96419Y-527260D01*
X-96338Y-527227D01*
X-96256Y-527198D01*
X-96172Y-527173D01*
X-96087Y-527152D01*
X-96002Y-527134D01*
X-95915Y-527121D01*
X-95829Y-527111D01*
X-95741Y-527105D01*
X-95654Y-527103D01*
X-92408Y-527103D01*
X-163457Y-534892D02*
X-166053Y-527103D01*
X-160860Y-527103D02*
X-163457Y-534892D01*
X-154567Y-534892D02*
X-151971Y-534892D01*
X-154567Y-534892D02*
X-154654Y-534890D01*
X-154742Y-534884D01*
X-154828Y-534874D01*
X-154915Y-534861D01*
X-155000Y-534843D01*
X-155085Y-534822D01*
X-155169Y-534797D01*
X-155251Y-534768D01*
X-155332Y-534735D01*
X-155412Y-534699D01*
X-155490Y-534660D01*
X-155566Y-534616D01*
X-155640Y-534570D01*
X-155711Y-534520D01*
X-155781Y-534467D01*
X-155848Y-534411D01*
X-155912Y-534352D01*
X-155974Y-534290D01*
X-156033Y-534226D01*
X-156089Y-534159D01*
X-156142Y-534089D01*
X-156192Y-534018D01*
X-156238Y-533944D01*
X-156282Y-533868D01*
X-156321Y-533790D01*
X-156357Y-533710D01*
X-156390Y-533629D01*
X-156419Y-533547D01*
X-156444Y-533463D01*
X-156465Y-533378D01*
X-156483Y-533293D01*
X-156496Y-533206D01*
X-156506Y-533120D01*
X-156512Y-533032D01*
X-156514Y-532945D01*
X-156515Y-532945D02*
X-156515Y-529050D01*
X-156514Y-529050D02*
X-156512Y-528963D01*
X-156506Y-528875D01*
X-156496Y-528789D01*
X-156483Y-528702D01*
X-156465Y-528617D01*
X-156444Y-528532D01*
X-156419Y-528448D01*
X-156390Y-528366D01*
X-156357Y-528285D01*
X-156321Y-528205D01*
X-156282Y-528127D01*
X-156238Y-528051D01*
X-156192Y-527977D01*
X-156142Y-527906D01*
X-156089Y-527836D01*
X-156033Y-527769D01*
X-155974Y-527705D01*
X-155912Y-527643D01*
X-155848Y-527584D01*
X-155781Y-527528D01*
X-155711Y-527475D01*
X-155640Y-527425D01*
X-155566Y-527379D01*
X-155490Y-527335D01*
X-155412Y-527296D01*
X-155332Y-527260D01*
X-155251Y-527227D01*
X-155169Y-527198D01*
X-155085Y-527173D01*
X-155000Y-527152D01*
X-154915Y-527134D01*
X-154828Y-527121D01*
X-154742Y-527111D01*
X-154654Y-527105D01*
X-154567Y-527103D01*
X-151971Y-527103D01*
X-145804Y-534892D02*
X-143208Y-534892D01*
X-145804Y-534892D02*
X-145891Y-534890D01*
X-145979Y-534884D01*
X-146065Y-534874D01*
X-146152Y-534861D01*
X-146237Y-534843D01*
X-146322Y-534822D01*
X-146406Y-534797D01*
X-146488Y-534768D01*
X-146569Y-534735D01*
X-146649Y-534699D01*
X-146727Y-534660D01*
X-146803Y-534616D01*
X-146877Y-534570D01*
X-146948Y-534520D01*
X-147018Y-534467D01*
X-147085Y-534411D01*
X-147149Y-534352D01*
X-147211Y-534290D01*
X-147270Y-534226D01*
X-147326Y-534159D01*
X-147379Y-534089D01*
X-147429Y-534018D01*
X-147475Y-533944D01*
X-147519Y-533868D01*
X-147558Y-533790D01*
X-147594Y-533710D01*
X-147627Y-533629D01*
X-147656Y-533547D01*
X-147681Y-533463D01*
X-147702Y-533378D01*
X-147720Y-533293D01*
X-147733Y-533206D01*
X-147743Y-533120D01*
X-147749Y-533032D01*
X-147751Y-532945D01*
X-147752Y-532945D02*
X-147752Y-529050D01*
X-147751Y-529050D02*
X-147749Y-528963D01*
X-147743Y-528875D01*
X-147733Y-528789D01*
X-147720Y-528702D01*
X-147702Y-528617D01*
X-147681Y-528532D01*
X-147656Y-528448D01*
X-147627Y-528366D01*
X-147594Y-528285D01*
X-147558Y-528205D01*
X-147519Y-528127D01*
X-147475Y-528051D01*
X-147429Y-527977D01*
X-147379Y-527906D01*
X-147326Y-527836D01*
X-147270Y-527769D01*
X-147211Y-527705D01*
X-147149Y-527643D01*
X-147085Y-527584D01*
X-147018Y-527528D01*
X-146948Y-527475D01*
X-146877Y-527425D01*
X-146803Y-527379D01*
X-146727Y-527335D01*
X-146649Y-527296D01*
X-146569Y-527260D01*
X-146488Y-527227D01*
X-146406Y-527198D01*
X-146322Y-527173D01*
X-146237Y-527152D01*
X-146152Y-527134D01*
X-146065Y-527121D01*
X-145979Y-527111D01*
X-145891Y-527105D01*
X-145804Y-527103D01*
X-143208Y-527103D01*
M02*
