G04 EAGLE Gerber RS-274X export*
G75*
%MOMM*%
%FSLAX34Y34*%
%LPD*%
%INSoldermask Bottom*%
%IPPOS*%
%AMOC8*
5,1,8,0,0,1.08239X$1,22.5*%
G01*
%ADD10P,1.649562X8X22.500000*%
%ADD11C,1.727200*%
%ADD12C,1.311200*%
%ADD13C,1.981200*%
%ADD14C,0.254000*%


D10*
X-132700Y-440000D03*
X-107300Y-440000D03*
X-132700Y-360000D03*
X-107300Y-360000D03*
D11*
X550620Y-86119D02*
X564941Y-91331D01*
X556253Y-115199D02*
X541932Y-109987D01*
X533245Y-133855D02*
X547566Y-139068D01*
X538879Y-162936D02*
X524558Y-157723D01*
X515871Y-181592D02*
X530191Y-186804D01*
X521504Y-210672D02*
X507183Y-205460D01*
X498496Y-229328D02*
X512817Y-234540D01*
X504129Y-258408D02*
X489809Y-253196D01*
X481121Y-277064D02*
X495442Y-282277D01*
X486755Y-306145D02*
X472434Y-300932D01*
X463747Y-324801D02*
X478068Y-330013D01*
X469380Y-353881D02*
X455059Y-348669D01*
D12*
X484460Y25400D02*
X495540Y25400D01*
X495540Y0D02*
X484460Y0D01*
X484460Y-25400D02*
X495540Y-25400D01*
X406854Y264227D02*
X416450Y269767D01*
X429150Y247770D02*
X419554Y242230D01*
X432254Y220233D02*
X441850Y225773D01*
X220233Y432254D02*
X225773Y441850D01*
X247770Y429150D02*
X242230Y419554D01*
X264227Y406854D02*
X269767Y416450D01*
X-25400Y484460D02*
X-25400Y495540D01*
X0Y495540D02*
X0Y484460D01*
X25400Y484460D02*
X25400Y495540D01*
X-264227Y406854D02*
X-269767Y416450D01*
X-247770Y429150D02*
X-242230Y419554D01*
X-220233Y432254D02*
X-225773Y441850D01*
X-432254Y220233D02*
X-441850Y225773D01*
X-429150Y247770D02*
X-419554Y242230D01*
X-406854Y264227D02*
X-416450Y269767D01*
X-484460Y-25400D02*
X-495540Y-25400D01*
X-495540Y0D02*
X-484460Y0D01*
X-484460Y25400D02*
X-495540Y25400D01*
X-406854Y-264227D02*
X-416450Y-269767D01*
X-429150Y-247770D02*
X-419554Y-242230D01*
X-432254Y-220233D02*
X-441850Y-225773D01*
X-220233Y-432254D02*
X-225773Y-441850D01*
X-247770Y-429150D02*
X-242230Y-419554D01*
X-264227Y-406854D02*
X-269767Y-416450D01*
X25400Y-484460D02*
X25400Y-495540D01*
X0Y-495540D02*
X0Y-484460D01*
X-25400Y-484460D02*
X-25400Y-495540D01*
X264227Y-406854D02*
X269767Y-416450D01*
X247770Y-429150D02*
X242230Y-419554D01*
X220233Y-432254D02*
X225773Y-441850D01*
X432254Y-220233D02*
X441850Y-225773D01*
X429150Y-247770D02*
X419554Y-242230D01*
X406854Y-264227D02*
X416450Y-269767D01*
D13*
X-104000Y-600000D03*
X-136000Y-600000D03*
D14*
X680000Y-8345D02*
X680000Y8345D01*
X679590Y25031D01*
X678771Y41701D01*
X677544Y58347D01*
X675908Y74957D01*
X673865Y91522D01*
X671416Y108032D01*
X668562Y124477D01*
X665306Y140846D01*
X661649Y157131D01*
X657594Y173322D01*
X653142Y189408D01*
X648297Y205380D01*
X643061Y221228D01*
X637439Y236943D01*
X631432Y252515D01*
X625044Y267935D01*
X618281Y283193D01*
X611145Y298282D01*
X603640Y313190D01*
X595773Y327910D01*
X587546Y342432D01*
X578965Y356748D01*
X570036Y370849D01*
X560763Y384727D01*
X551152Y398373D01*
X541210Y411779D01*
X530941Y424936D01*
X520353Y437838D01*
X509451Y450477D01*
X498242Y462844D01*
X486734Y474932D01*
X474932Y486734D01*
X462844Y498242D01*
X450477Y509451D01*
X437838Y520353D01*
X424936Y530941D01*
X411779Y541210D01*
X398373Y551152D01*
X384727Y560763D01*
X370849Y570036D01*
X356748Y578965D01*
X342432Y587546D01*
X327910Y595773D01*
X313190Y603640D01*
X298282Y611145D01*
X283193Y618281D01*
X267935Y625044D01*
X252515Y631432D01*
X236943Y637439D01*
X221228Y643061D01*
X205380Y648297D01*
X189408Y653142D01*
X173322Y657594D01*
X157131Y661649D01*
X140846Y665306D01*
X124477Y668562D01*
X108032Y671416D01*
X91522Y673865D01*
X74957Y675908D01*
X58347Y677544D01*
X41701Y678771D01*
X25031Y679590D01*
X8345Y680000D01*
X-8345Y680000D01*
X-25031Y679590D01*
X-41701Y678771D01*
X-58347Y677544D01*
X-74957Y675908D01*
X-91522Y673865D01*
X-108032Y671416D01*
X-124477Y668562D01*
X-140846Y665306D01*
X-157131Y661649D01*
X-173322Y657594D01*
X-189408Y653142D01*
X-205380Y648297D01*
X-221228Y643061D01*
X-236943Y637439D01*
X-252515Y631432D01*
X-267935Y625044D01*
X-283193Y618281D01*
X-298282Y611145D01*
X-313190Y603640D01*
X-327910Y595773D01*
X-342432Y587546D01*
X-356748Y578965D01*
X-370849Y570036D01*
X-384727Y560763D01*
X-398373Y551152D01*
X-411779Y541210D01*
X-424936Y530941D01*
X-437838Y520353D01*
X-450477Y509451D01*
X-462844Y498242D01*
X-474932Y486734D01*
X-486734Y474932D01*
X-498242Y462844D01*
X-509451Y450477D01*
X-520353Y437838D01*
X-530941Y424936D01*
X-541210Y411779D01*
X-551152Y398373D01*
X-560763Y384727D01*
X-570036Y370849D01*
X-578965Y356748D01*
X-587546Y342432D01*
X-595773Y327910D01*
X-603640Y313190D01*
X-611145Y298282D01*
X-618281Y283193D01*
X-625044Y267935D01*
X-631432Y252515D01*
X-637439Y236943D01*
X-643061Y221228D01*
X-648297Y205380D01*
X-653142Y189408D01*
X-657594Y173322D01*
X-661649Y157131D01*
X-665306Y140846D01*
X-668562Y124477D01*
X-671416Y108032D01*
X-673865Y91522D01*
X-675908Y74957D01*
X-677544Y58347D01*
X-678771Y41701D01*
X-679590Y25031D01*
X-680000Y8345D01*
X-680000Y-8345D01*
X-679590Y-25031D01*
X-678771Y-41701D01*
X-677544Y-58347D01*
X-675908Y-74957D01*
X-673865Y-91522D01*
X-671416Y-108032D01*
X-668562Y-124477D01*
X-665306Y-140846D01*
X-661649Y-157131D01*
X-657594Y-173322D01*
X-653142Y-189408D01*
X-648297Y-205380D01*
X-643061Y-221228D01*
X-637439Y-236943D01*
X-631432Y-252515D01*
X-625044Y-267935D01*
X-618281Y-283193D01*
X-611145Y-298282D01*
X-603640Y-313190D01*
X-595773Y-327910D01*
X-587546Y-342432D01*
X-578965Y-356748D01*
X-570036Y-370849D01*
X-560763Y-384727D01*
X-551152Y-398373D01*
X-541210Y-411779D01*
X-530941Y-424936D01*
X-520353Y-437838D01*
X-509451Y-450477D01*
X-498242Y-462844D01*
X-486734Y-474932D01*
X-474932Y-486734D01*
X-462844Y-498242D01*
X-450477Y-509451D01*
X-437838Y-520353D01*
X-424936Y-530941D01*
X-411779Y-541210D01*
X-398373Y-551152D01*
X-384727Y-560763D01*
X-370849Y-570036D01*
X-356748Y-578965D01*
X-342432Y-587546D01*
X-327910Y-595773D01*
X-313190Y-603640D01*
X-298282Y-611145D01*
X-283193Y-618281D01*
X-267935Y-625044D01*
X-252515Y-631432D01*
X-236943Y-637439D01*
X-221228Y-643061D01*
X-205380Y-648297D01*
X-189408Y-653142D01*
X-173322Y-657594D01*
X-157131Y-661649D01*
X-140846Y-665306D01*
X-124477Y-668562D01*
X-108032Y-671416D01*
X-91522Y-673865D01*
X-74957Y-675908D01*
X-58347Y-677544D01*
X-41701Y-678771D01*
X-25031Y-679590D01*
X-8345Y-680000D01*
X8345Y-680000D01*
X25031Y-679590D01*
X41701Y-678771D01*
X58347Y-677544D01*
X74957Y-675908D01*
X91522Y-673865D01*
X108032Y-671416D01*
X124477Y-668562D01*
X140846Y-665306D01*
X157131Y-661649D01*
X173322Y-657594D01*
X189408Y-653142D01*
X205380Y-648297D01*
X221228Y-643061D01*
X236943Y-637439D01*
X252515Y-631432D01*
X267935Y-625044D01*
X283193Y-618281D01*
X298282Y-611145D01*
X313190Y-603640D01*
X327910Y-595773D01*
X342432Y-587546D01*
X356748Y-578965D01*
X370849Y-570036D01*
X384727Y-560763D01*
X398373Y-551152D01*
X411779Y-541210D01*
X424936Y-530941D01*
X437838Y-520353D01*
X450477Y-509451D01*
X462844Y-498242D01*
X474932Y-486734D01*
X486734Y-474932D01*
X498242Y-462844D01*
X509451Y-450477D01*
X520353Y-437838D01*
X530941Y-424936D01*
X541210Y-411779D01*
X551152Y-398373D01*
X560763Y-384727D01*
X570036Y-370849D01*
X578965Y-356748D01*
X587546Y-342432D01*
X595773Y-327910D01*
X603640Y-313190D01*
X611145Y-298282D01*
X618281Y-283193D01*
X625044Y-267935D01*
X631432Y-252515D01*
X637439Y-236943D01*
X643061Y-221228D01*
X648297Y-205380D01*
X653142Y-189408D01*
X657594Y-173322D01*
X661649Y-157131D01*
X665306Y-140846D01*
X668562Y-124477D01*
X671416Y-108032D01*
X673865Y-91522D01*
X675908Y-74957D01*
X677544Y-58347D01*
X678771Y-41701D01*
X679590Y-25031D01*
X680000Y-8345D01*
X627000Y-923D02*
X627000Y923D01*
X626928Y2767D01*
X626783Y4608D01*
X626566Y6441D01*
X626277Y8264D01*
X625917Y10074D01*
X625486Y11869D01*
X624985Y13646D01*
X624414Y15402D01*
X623776Y17133D01*
X623069Y18839D01*
X622296Y20515D01*
X621458Y22160D01*
X620556Y23770D01*
X619592Y25344D01*
X618566Y26879D01*
X617481Y28373D01*
X616339Y29822D01*
X615140Y31226D01*
X613887Y32581D01*
X612581Y33887D01*
X611226Y35140D01*
X609822Y36339D01*
X608373Y37481D01*
X606879Y38566D01*
X605344Y39592D01*
X603770Y40556D01*
X602160Y41458D01*
X600515Y42296D01*
X598839Y43069D01*
X597133Y43776D01*
X595402Y44414D01*
X593646Y44985D01*
X591869Y45486D01*
X590074Y45917D01*
X588264Y46277D01*
X586441Y46566D01*
X584608Y46783D01*
X582767Y46928D01*
X580923Y47000D01*
X579077Y47000D01*
X577233Y46928D01*
X575392Y46783D01*
X573559Y46566D01*
X571736Y46277D01*
X569926Y45917D01*
X568131Y45486D01*
X566354Y44985D01*
X564598Y44414D01*
X562867Y43776D01*
X561161Y43069D01*
X559485Y42296D01*
X557840Y41458D01*
X556230Y40556D01*
X554656Y39592D01*
X553121Y38566D01*
X551627Y37481D01*
X550178Y36339D01*
X548774Y35140D01*
X547419Y33887D01*
X546113Y32581D01*
X544860Y31226D01*
X543662Y29822D01*
X542519Y28373D01*
X541434Y26879D01*
X540408Y25344D01*
X539444Y23770D01*
X538542Y22160D01*
X537704Y20515D01*
X536931Y18839D01*
X536224Y17133D01*
X535586Y15402D01*
X535015Y13646D01*
X534514Y11869D01*
X534083Y10074D01*
X533723Y8264D01*
X533434Y6441D01*
X533217Y4608D01*
X533072Y2767D01*
X533000Y923D01*
X533000Y-923D01*
X533072Y-2767D01*
X533217Y-4608D01*
X533434Y-6441D01*
X533723Y-8264D01*
X534083Y-10074D01*
X534514Y-11869D01*
X535015Y-13646D01*
X535586Y-15402D01*
X536224Y-17133D01*
X536931Y-18839D01*
X537704Y-20515D01*
X538542Y-22160D01*
X539444Y-23770D01*
X540408Y-25344D01*
X541434Y-26879D01*
X542519Y-28373D01*
X543662Y-29822D01*
X544860Y-31226D01*
X546113Y-32581D01*
X547419Y-33887D01*
X548774Y-35140D01*
X550178Y-36339D01*
X551627Y-37481D01*
X553121Y-38566D01*
X554656Y-39592D01*
X556230Y-40556D01*
X557840Y-41458D01*
X559485Y-42296D01*
X561161Y-43069D01*
X562867Y-43776D01*
X564598Y-44414D01*
X566354Y-44985D01*
X568131Y-45486D01*
X569926Y-45917D01*
X571736Y-46277D01*
X573559Y-46566D01*
X575392Y-46783D01*
X577233Y-46928D01*
X579077Y-47000D01*
X580923Y-47000D01*
X582767Y-46928D01*
X584608Y-46783D01*
X586441Y-46566D01*
X588264Y-46277D01*
X590074Y-45917D01*
X591869Y-45486D01*
X593646Y-44985D01*
X595402Y-44414D01*
X597133Y-43776D01*
X598839Y-43069D01*
X600515Y-42296D01*
X602160Y-41458D01*
X603770Y-40556D01*
X605344Y-39592D01*
X606879Y-38566D01*
X608373Y-37481D01*
X609822Y-36339D01*
X611226Y-35140D01*
X612581Y-33887D01*
X613887Y-32581D01*
X615140Y-31226D01*
X616339Y-29822D01*
X617481Y-28373D01*
X618566Y-26879D01*
X619592Y-25344D01*
X620556Y-23770D01*
X621458Y-22160D01*
X622296Y-20515D01*
X623069Y-18839D01*
X623776Y-17133D01*
X624414Y-15402D01*
X624985Y-13646D01*
X625486Y-11869D01*
X625917Y-10074D01*
X626277Y-8264D01*
X626566Y-6441D01*
X626783Y-4608D01*
X626928Y-2767D01*
X627000Y-923D01*
X47000Y579077D02*
X47000Y580923D01*
X46928Y582767D01*
X46783Y584608D01*
X46566Y586441D01*
X46277Y588264D01*
X45917Y590074D01*
X45486Y591869D01*
X44985Y593646D01*
X44414Y595402D01*
X43776Y597133D01*
X43069Y598839D01*
X42296Y600515D01*
X41458Y602160D01*
X40556Y603770D01*
X39592Y605344D01*
X38566Y606879D01*
X37481Y608373D01*
X36339Y609822D01*
X35140Y611226D01*
X33887Y612581D01*
X32581Y613887D01*
X31226Y615140D01*
X29822Y616339D01*
X28373Y617481D01*
X26879Y618566D01*
X25344Y619592D01*
X23770Y620556D01*
X22160Y621458D01*
X20515Y622296D01*
X18839Y623069D01*
X17133Y623776D01*
X15402Y624414D01*
X13646Y624985D01*
X11869Y625486D01*
X10074Y625917D01*
X8264Y626277D01*
X6441Y626566D01*
X4608Y626783D01*
X2767Y626928D01*
X923Y627000D01*
X-923Y627000D01*
X-2767Y626928D01*
X-4608Y626783D01*
X-6441Y626566D01*
X-8264Y626277D01*
X-10074Y625917D01*
X-11869Y625486D01*
X-13646Y624985D01*
X-15402Y624414D01*
X-17133Y623776D01*
X-18839Y623069D01*
X-20515Y622296D01*
X-22160Y621458D01*
X-23770Y620556D01*
X-25344Y619592D01*
X-26879Y618566D01*
X-28373Y617481D01*
X-29822Y616339D01*
X-31226Y615140D01*
X-32581Y613887D01*
X-33887Y612581D01*
X-35140Y611226D01*
X-36339Y609822D01*
X-37481Y608373D01*
X-38566Y606879D01*
X-39592Y605344D01*
X-40556Y603770D01*
X-41458Y602160D01*
X-42296Y600515D01*
X-43069Y598839D01*
X-43776Y597133D01*
X-44414Y595402D01*
X-44985Y593646D01*
X-45486Y591869D01*
X-45917Y590074D01*
X-46277Y588264D01*
X-46566Y586441D01*
X-46783Y584608D01*
X-46928Y582767D01*
X-47000Y580923D01*
X-47000Y579077D01*
X-46928Y577233D01*
X-46783Y575392D01*
X-46566Y573559D01*
X-46277Y571736D01*
X-45917Y569926D01*
X-45486Y568131D01*
X-44985Y566354D01*
X-44414Y564598D01*
X-43776Y562867D01*
X-43069Y561161D01*
X-42296Y559485D01*
X-41458Y557840D01*
X-40556Y556230D01*
X-39592Y554656D01*
X-38566Y553121D01*
X-37481Y551627D01*
X-36339Y550178D01*
X-35140Y548774D01*
X-33887Y547419D01*
X-32581Y546113D01*
X-31226Y544860D01*
X-29822Y543662D01*
X-28373Y542519D01*
X-26879Y541434D01*
X-25344Y540408D01*
X-23770Y539444D01*
X-22160Y538542D01*
X-20515Y537704D01*
X-18839Y536931D01*
X-17133Y536224D01*
X-15402Y535586D01*
X-13646Y535015D01*
X-11869Y534514D01*
X-10074Y534083D01*
X-8264Y533723D01*
X-6441Y533434D01*
X-4608Y533217D01*
X-2767Y533072D01*
X-923Y533000D01*
X923Y533000D01*
X2767Y533072D01*
X4608Y533217D01*
X6441Y533434D01*
X8264Y533723D01*
X10074Y534083D01*
X11869Y534514D01*
X13646Y535015D01*
X15402Y535586D01*
X17133Y536224D01*
X18839Y536931D01*
X20515Y537704D01*
X22160Y538542D01*
X23770Y539444D01*
X25344Y540408D01*
X26879Y541434D01*
X28373Y542519D01*
X29822Y543662D01*
X31226Y544860D01*
X32581Y546113D01*
X33887Y547419D01*
X35140Y548774D01*
X36339Y550178D01*
X37481Y551627D01*
X38566Y553121D01*
X39592Y554656D01*
X40556Y556230D01*
X41458Y557840D01*
X42296Y559485D01*
X43069Y561161D01*
X43776Y562867D01*
X44414Y564598D01*
X44985Y566354D01*
X45486Y568131D01*
X45917Y569926D01*
X46277Y571736D01*
X46566Y573559D01*
X46783Y575392D01*
X46928Y577233D01*
X47000Y579077D01*
X-533000Y-923D02*
X-533000Y923D01*
X-533072Y2767D01*
X-533217Y4608D01*
X-533434Y6441D01*
X-533723Y8264D01*
X-534083Y10074D01*
X-534514Y11869D01*
X-535015Y13646D01*
X-535586Y15402D01*
X-536224Y17133D01*
X-536931Y18839D01*
X-537704Y20515D01*
X-538542Y22160D01*
X-539444Y23770D01*
X-540408Y25344D01*
X-541434Y26879D01*
X-542519Y28373D01*
X-543662Y29822D01*
X-544860Y31226D01*
X-546113Y32581D01*
X-547419Y33887D01*
X-548774Y35140D01*
X-550178Y36339D01*
X-551627Y37481D01*
X-553121Y38566D01*
X-554656Y39592D01*
X-556230Y40556D01*
X-557840Y41458D01*
X-559485Y42296D01*
X-561161Y43069D01*
X-562867Y43776D01*
X-564598Y44414D01*
X-566354Y44985D01*
X-568131Y45486D01*
X-569926Y45917D01*
X-571736Y46277D01*
X-573559Y46566D01*
X-575392Y46783D01*
X-577233Y46928D01*
X-579077Y47000D01*
X-580923Y47000D01*
X-582767Y46928D01*
X-584608Y46783D01*
X-586441Y46566D01*
X-588264Y46277D01*
X-590074Y45917D01*
X-591869Y45486D01*
X-593646Y44985D01*
X-595402Y44414D01*
X-597133Y43776D01*
X-598839Y43069D01*
X-600515Y42296D01*
X-602160Y41458D01*
X-603770Y40556D01*
X-605344Y39592D01*
X-606879Y38566D01*
X-608373Y37481D01*
X-609822Y36339D01*
X-611226Y35140D01*
X-612581Y33887D01*
X-613887Y32581D01*
X-615140Y31226D01*
X-616339Y29822D01*
X-617481Y28373D01*
X-618566Y26879D01*
X-619592Y25344D01*
X-620556Y23770D01*
X-621458Y22160D01*
X-622296Y20515D01*
X-623069Y18839D01*
X-623776Y17133D01*
X-624414Y15402D01*
X-624985Y13646D01*
X-625486Y11869D01*
X-625917Y10074D01*
X-626277Y8264D01*
X-626566Y6441D01*
X-626783Y4608D01*
X-626928Y2767D01*
X-627000Y923D01*
X-627000Y-923D01*
X-626928Y-2767D01*
X-626783Y-4608D01*
X-626566Y-6441D01*
X-626277Y-8264D01*
X-625917Y-10074D01*
X-625486Y-11869D01*
X-624985Y-13646D01*
X-624414Y-15402D01*
X-623776Y-17133D01*
X-623069Y-18839D01*
X-622296Y-20515D01*
X-621458Y-22160D01*
X-620556Y-23770D01*
X-619592Y-25344D01*
X-618566Y-26879D01*
X-617481Y-28373D01*
X-616339Y-29822D01*
X-615140Y-31226D01*
X-613887Y-32581D01*
X-612581Y-33887D01*
X-611226Y-35140D01*
X-609822Y-36339D01*
X-608373Y-37481D01*
X-606879Y-38566D01*
X-605344Y-39592D01*
X-603770Y-40556D01*
X-602160Y-41458D01*
X-600515Y-42296D01*
X-598839Y-43069D01*
X-597133Y-43776D01*
X-595402Y-44414D01*
X-593646Y-44985D01*
X-591869Y-45486D01*
X-590074Y-45917D01*
X-588264Y-46277D01*
X-586441Y-46566D01*
X-584608Y-46783D01*
X-582767Y-46928D01*
X-580923Y-47000D01*
X-579077Y-47000D01*
X-577233Y-46928D01*
X-575392Y-46783D01*
X-573559Y-46566D01*
X-571736Y-46277D01*
X-569926Y-45917D01*
X-568131Y-45486D01*
X-566354Y-44985D01*
X-564598Y-44414D01*
X-562867Y-43776D01*
X-561161Y-43069D01*
X-559485Y-42296D01*
X-557840Y-41458D01*
X-556230Y-40556D01*
X-554656Y-39592D01*
X-553121Y-38566D01*
X-551627Y-37481D01*
X-550178Y-36339D01*
X-548774Y-35140D01*
X-547419Y-33887D01*
X-546113Y-32581D01*
X-544860Y-31226D01*
X-543662Y-29822D01*
X-542519Y-28373D01*
X-541434Y-26879D01*
X-540408Y-25344D01*
X-539444Y-23770D01*
X-538542Y-22160D01*
X-537704Y-20515D01*
X-536931Y-18839D01*
X-536224Y-17133D01*
X-535586Y-15402D01*
X-535015Y-13646D01*
X-534514Y-11869D01*
X-534083Y-10074D01*
X-533723Y-8264D01*
X-533434Y-6441D01*
X-533217Y-4608D01*
X-533072Y-2767D01*
X-533000Y-923D01*
X47000Y-580923D02*
X47000Y-579077D01*
X46928Y-577233D01*
X46783Y-575392D01*
X46566Y-573559D01*
X46277Y-571736D01*
X45917Y-569926D01*
X45486Y-568131D01*
X44985Y-566354D01*
X44414Y-564598D01*
X43776Y-562867D01*
X43069Y-561161D01*
X42296Y-559485D01*
X41458Y-557840D01*
X40556Y-556230D01*
X39592Y-554656D01*
X38566Y-553121D01*
X37481Y-551627D01*
X36339Y-550178D01*
X35140Y-548774D01*
X33887Y-547419D01*
X32581Y-546113D01*
X31226Y-544860D01*
X29822Y-543662D01*
X28373Y-542519D01*
X26879Y-541434D01*
X25344Y-540408D01*
X23770Y-539444D01*
X22160Y-538542D01*
X20515Y-537704D01*
X18839Y-536931D01*
X17133Y-536224D01*
X15402Y-535586D01*
X13646Y-535015D01*
X11869Y-534514D01*
X10074Y-534083D01*
X8264Y-533723D01*
X6441Y-533434D01*
X4608Y-533217D01*
X2767Y-533072D01*
X923Y-533000D01*
X-923Y-533000D01*
X-2767Y-533072D01*
X-4608Y-533217D01*
X-6441Y-533434D01*
X-8264Y-533723D01*
X-10074Y-534083D01*
X-11869Y-534514D01*
X-13646Y-535015D01*
X-15402Y-535586D01*
X-17133Y-536224D01*
X-18839Y-536931D01*
X-20515Y-537704D01*
X-22160Y-538542D01*
X-23770Y-539444D01*
X-25344Y-540408D01*
X-26879Y-541434D01*
X-28373Y-542519D01*
X-29822Y-543662D01*
X-31226Y-544860D01*
X-32581Y-546113D01*
X-33887Y-547419D01*
X-35140Y-548774D01*
X-36339Y-550178D01*
X-37481Y-551627D01*
X-38566Y-553121D01*
X-39592Y-554656D01*
X-40556Y-556230D01*
X-41458Y-557840D01*
X-42296Y-559485D01*
X-43069Y-561161D01*
X-43776Y-562867D01*
X-44414Y-564598D01*
X-44985Y-566354D01*
X-45486Y-568131D01*
X-45917Y-569926D01*
X-46277Y-571736D01*
X-46566Y-573559D01*
X-46783Y-575392D01*
X-46928Y-577233D01*
X-47000Y-579077D01*
X-47000Y-580923D01*
X-46928Y-582767D01*
X-46783Y-584608D01*
X-46566Y-586441D01*
X-46277Y-588264D01*
X-45917Y-590074D01*
X-45486Y-591869D01*
X-44985Y-593646D01*
X-44414Y-595402D01*
X-43776Y-597133D01*
X-43069Y-598839D01*
X-42296Y-600515D01*
X-41458Y-602160D01*
X-40556Y-603770D01*
X-39592Y-605344D01*
X-38566Y-606879D01*
X-37481Y-608373D01*
X-36339Y-609822D01*
X-35140Y-611226D01*
X-33887Y-612581D01*
X-32581Y-613887D01*
X-31226Y-615140D01*
X-29822Y-616339D01*
X-28373Y-617481D01*
X-26879Y-618566D01*
X-25344Y-619592D01*
X-23770Y-620556D01*
X-22160Y-621458D01*
X-20515Y-622296D01*
X-18839Y-623069D01*
X-17133Y-623776D01*
X-15402Y-624414D01*
X-13646Y-624985D01*
X-11869Y-625486D01*
X-10074Y-625917D01*
X-8264Y-626277D01*
X-6441Y-626566D01*
X-4608Y-626783D01*
X-2767Y-626928D01*
X-923Y-627000D01*
X923Y-627000D01*
X2767Y-626928D01*
X4608Y-626783D01*
X6441Y-626566D01*
X8264Y-626277D01*
X10074Y-625917D01*
X11869Y-625486D01*
X13646Y-624985D01*
X15402Y-624414D01*
X17133Y-623776D01*
X18839Y-623069D01*
X20515Y-622296D01*
X22160Y-621458D01*
X23770Y-620556D01*
X25344Y-619592D01*
X26879Y-618566D01*
X28373Y-617481D01*
X29822Y-616339D01*
X31226Y-615140D01*
X32581Y-613887D01*
X33887Y-612581D01*
X35140Y-611226D01*
X36339Y-609822D01*
X37481Y-608373D01*
X38566Y-606879D01*
X39592Y-605344D01*
X40556Y-603770D01*
X41458Y-602160D01*
X42296Y-600515D01*
X43069Y-598839D01*
X43776Y-597133D01*
X44414Y-595402D01*
X44985Y-593646D01*
X45486Y-591869D01*
X45917Y-590074D01*
X46277Y-588264D01*
X46566Y-586441D01*
X46783Y-584608D01*
X46928Y-582767D01*
X47000Y-580923D01*
M02*
