G04 EAGLE Gerber RS-274X export*
G75*
%MOMM*%
%FSLAX34Y34*%
%LPD*%
%INBottom Copper*%
%IPPOS*%
%AMOC8*
5,1,8,0,0,1.08239X$1,22.5*%
G01*
%ADD10P,1.429621X8X22.500000*%
%ADD11C,1.524000*%
%ADD12C,1.108000*%
%ADD13C,1.778000*%
%ADD14C,0.508000*%

G36*
X147593Y-648105D02*
X147593Y-648105D01*
X147601Y-648105D01*
X147603Y-648104D01*
X147605Y-648104D01*
X186230Y-638404D01*
X186250Y-638396D01*
X186285Y-638388D01*
X233978Y-622492D01*
X233997Y-622482D01*
X234032Y-622472D01*
X280387Y-603014D01*
X280405Y-603002D01*
X280439Y-602989D01*
X325189Y-580081D01*
X325206Y-580069D01*
X325239Y-580053D01*
X368128Y-553826D01*
X368144Y-553812D01*
X368176Y-553794D01*
X408959Y-524399D01*
X408974Y-524384D01*
X409005Y-524364D01*
X447448Y-491968D01*
X447461Y-491952D01*
X447490Y-491929D01*
X483373Y-456719D01*
X483385Y-456702D01*
X483413Y-456677D01*
X516530Y-418854D01*
X516541Y-418836D01*
X516566Y-418810D01*
X546728Y-378590D01*
X546738Y-378571D01*
X546761Y-378543D01*
X573794Y-336158D01*
X573803Y-336138D01*
X573823Y-336108D01*
X597574Y-291800D01*
X597581Y-291779D01*
X597599Y-291748D01*
X617931Y-245770D01*
X617937Y-245749D01*
X617952Y-245717D01*
X634749Y-198333D01*
X634753Y-198312D01*
X634766Y-198278D01*
X647931Y-149760D01*
X647933Y-149738D01*
X647944Y-149703D01*
X657401Y-100329D01*
X657402Y-100307D01*
X657410Y-100272D01*
X663106Y-50323D01*
X663105Y-50302D01*
X663110Y-50265D01*
X665013Y-29D01*
X665010Y-8D01*
X665013Y29D01*
X663110Y50265D01*
X663106Y50286D01*
X663106Y50323D01*
X657410Y100272D01*
X657404Y100292D01*
X657401Y100329D01*
X647944Y149704D01*
X647936Y149724D01*
X647931Y149760D01*
X634766Y198278D01*
X634757Y198297D01*
X634749Y198333D01*
X617952Y245717D01*
X617942Y245735D01*
X617931Y245770D01*
X597599Y291748D01*
X597588Y291766D01*
X597574Y291800D01*
X573823Y336108D01*
X573810Y336125D01*
X573794Y336158D01*
X546761Y378543D01*
X546746Y378559D01*
X546728Y378590D01*
X516566Y418810D01*
X516551Y418824D01*
X516530Y418854D01*
X483412Y456677D01*
X483396Y456691D01*
X483373Y456719D01*
X447490Y491929D01*
X447473Y491942D01*
X447447Y491968D01*
X409005Y524364D01*
X408986Y524375D01*
X408959Y524399D01*
X368176Y553794D01*
X368157Y553804D01*
X368128Y553826D01*
X366964Y554538D01*
X365719Y555299D01*
X364475Y556060D01*
X364474Y556061D01*
X363230Y556822D01*
X361985Y557583D01*
X360740Y558344D01*
X359495Y559105D01*
X359495Y559106D01*
X358250Y559867D01*
X357005Y560628D01*
X355760Y561389D01*
X354516Y562150D01*
X354515Y562150D01*
X354515Y562151D01*
X353271Y562912D01*
X353270Y562912D01*
X352026Y563673D01*
X350781Y564434D01*
X349536Y565195D01*
X349536Y565196D01*
X348291Y565957D01*
X347046Y566718D01*
X345801Y567479D01*
X344556Y568240D01*
X344556Y568241D01*
X343312Y569002D01*
X343311Y569002D01*
X342067Y569763D01*
X342066Y569763D01*
X340822Y570524D01*
X339577Y571285D01*
X339577Y571286D01*
X338332Y572047D01*
X337087Y572808D01*
X335842Y573569D01*
X334597Y574330D01*
X334597Y574331D01*
X333352Y575092D01*
X332108Y575853D01*
X332107Y575853D01*
X330863Y576614D01*
X330862Y576614D01*
X329618Y577375D01*
X329618Y577376D01*
X328373Y578137D01*
X327128Y578898D01*
X325883Y579659D01*
X325239Y580053D01*
X325219Y580061D01*
X325189Y580081D01*
X280439Y602989D01*
X280418Y602996D01*
X280387Y603014D01*
X234032Y622472D01*
X234012Y622476D01*
X233978Y622492D01*
X186285Y638388D01*
X186264Y638392D01*
X186230Y638404D01*
X137471Y650649D01*
X137450Y650650D01*
X137415Y650660D01*
X87870Y659182D01*
X87849Y659182D01*
X87813Y659190D01*
X37765Y663940D01*
X37744Y663938D01*
X37708Y663943D01*
X-12556Y664894D01*
X-12577Y664891D01*
X-12614Y664893D01*
X-62805Y662040D01*
X-62826Y662036D01*
X-62863Y662035D01*
X-112695Y655394D01*
X-112715Y655388D01*
X-112751Y655385D01*
X-161938Y644994D01*
X-161958Y644987D01*
X-161994Y644980D01*
X-210255Y630900D01*
X-210274Y630891D01*
X-210309Y630882D01*
X-257367Y613192D01*
X-257385Y613181D01*
X-257420Y613170D01*
X-303005Y591971D01*
X-303022Y591959D01*
X-303056Y591945D01*
X-346907Y567360D01*
X-346924Y567347D01*
X-346956Y567330D01*
X-388822Y539499D01*
X-388838Y539485D01*
X-388869Y539465D01*
X-428510Y508548D01*
X-428525Y508532D01*
X-428554Y508511D01*
X-465744Y474684D01*
X-465757Y474667D01*
X-465785Y474643D01*
X-500310Y438101D01*
X-500322Y438083D01*
X-500348Y438057D01*
X-532010Y399008D01*
X-532020Y398990D01*
X-532044Y398962D01*
X-560663Y357630D01*
X-560672Y357611D01*
X-560694Y357582D01*
X-586104Y314204D01*
X-586112Y314184D01*
X-586131Y314153D01*
X-608188Y268978D01*
X-608194Y268957D01*
X-608212Y268925D01*
X-626789Y222211D01*
X-626794Y222190D01*
X-626808Y222156D01*
X-641799Y174171D01*
X-641802Y174150D01*
X-641814Y174115D01*
X-653134Y125134D01*
X-653135Y125112D01*
X-653144Y125077D01*
X-660727Y75380D01*
X-660727Y75358D01*
X-660733Y75322D01*
X-664535Y25194D01*
X-664533Y25173D01*
X-664537Y25136D01*
X-664537Y-25136D01*
X-664534Y-25157D01*
X-664535Y-25194D01*
X-660733Y-75322D01*
X-660728Y-75343D01*
X-660727Y-75380D01*
X-653144Y-125077D01*
X-653138Y-125097D01*
X-653134Y-125134D01*
X-641814Y-174115D01*
X-641806Y-174135D01*
X-641799Y-174171D01*
X-626808Y-222156D01*
X-626799Y-222175D01*
X-626789Y-222211D01*
X-608212Y-268925D01*
X-608201Y-268943D01*
X-608188Y-268978D01*
X-586131Y-314153D01*
X-586119Y-314170D01*
X-586104Y-314204D01*
X-560694Y-357582D01*
X-560680Y-357598D01*
X-560663Y-357630D01*
X-532044Y-398962D01*
X-532030Y-398977D01*
X-532010Y-399008D01*
X-500348Y-438057D01*
X-500332Y-438071D01*
X-500310Y-438101D01*
X-465785Y-474643D01*
X-465768Y-474656D01*
X-465744Y-474684D01*
X-428554Y-508511D01*
X-428536Y-508522D01*
X-428510Y-508548D01*
X-388869Y-539465D01*
X-388850Y-539476D01*
X-388822Y-539499D01*
X-346956Y-567330D01*
X-346937Y-567339D01*
X-346907Y-567360D01*
X-303056Y-591945D01*
X-303036Y-591952D01*
X-303005Y-591971D01*
X-257420Y-613170D01*
X-257399Y-613175D01*
X-257367Y-613192D01*
X-210309Y-630882D01*
X-210289Y-630886D01*
X-210255Y-630900D01*
X-177739Y-640387D01*
X-177735Y-640387D01*
X-177731Y-640389D01*
X-177614Y-640402D01*
X-177495Y-640417D01*
X-177491Y-640416D01*
X-177487Y-640416D01*
X-177371Y-640391D01*
X-177254Y-640367D01*
X-177250Y-640365D01*
X-177246Y-640364D01*
X-177145Y-640303D01*
X-177042Y-640243D01*
X-177039Y-640240D01*
X-177035Y-640238D01*
X-176958Y-640148D01*
X-176880Y-640058D01*
X-176878Y-640054D01*
X-176875Y-640051D01*
X-176830Y-639939D01*
X-176785Y-639831D01*
X-176785Y-639827D01*
X-176783Y-639823D01*
X-176765Y-639656D01*
X-176765Y-497526D01*
X-176768Y-497506D01*
X-176766Y-497487D01*
X-176788Y-497385D01*
X-176804Y-497283D01*
X-176814Y-497266D01*
X-176818Y-497246D01*
X-176871Y-497157D01*
X-176920Y-497066D01*
X-176934Y-497052D01*
X-176944Y-497035D01*
X-177023Y-496968D01*
X-177098Y-496896D01*
X-177116Y-496888D01*
X-177131Y-496875D01*
X-177227Y-496836D01*
X-177321Y-496793D01*
X-177341Y-496791D01*
X-177359Y-496783D01*
X-177526Y-496765D01*
X-243335Y-496765D01*
X-249496Y-494212D01*
X-524212Y-219496D01*
X-526765Y-213335D01*
X-526765Y-33687D01*
X-526766Y-33679D01*
X-526765Y-33671D01*
X-526786Y-33558D01*
X-526804Y-33444D01*
X-526808Y-33437D01*
X-526810Y-33429D01*
X-526866Y-33328D01*
X-526920Y-33227D01*
X-526925Y-33222D01*
X-526929Y-33215D01*
X-527014Y-33137D01*
X-527098Y-33058D01*
X-527105Y-33054D01*
X-527111Y-33049D01*
X-527216Y-33003D01*
X-527321Y-32954D01*
X-527329Y-32953D01*
X-527336Y-32950D01*
X-527451Y-32940D01*
X-527565Y-32927D01*
X-527573Y-32929D01*
X-527581Y-32928D01*
X-527693Y-32955D01*
X-527806Y-32979D01*
X-527813Y-32983D01*
X-527820Y-32985D01*
X-527918Y-33046D01*
X-528017Y-33105D01*
X-528022Y-33111D01*
X-528029Y-33116D01*
X-528142Y-33240D01*
X-534818Y-42429D01*
X-546789Y-52332D01*
X-560847Y-58947D01*
X-576108Y-61858D01*
X-591614Y-60883D01*
X-606390Y-56082D01*
X-619508Y-47757D01*
X-630143Y-36431D01*
X-637628Y-22817D01*
X-641492Y-7768D01*
X-641492Y7768D01*
X-637628Y22817D01*
X-630143Y36431D01*
X-619508Y47757D01*
X-606390Y56082D01*
X-591614Y60883D01*
X-576108Y61858D01*
X-560847Y58947D01*
X-546789Y52332D01*
X-534818Y42429D01*
X-528142Y33240D01*
X-528136Y33234D01*
X-528132Y33227D01*
X-528049Y33148D01*
X-527967Y33067D01*
X-527960Y33063D01*
X-527954Y33058D01*
X-527849Y33009D01*
X-527746Y32958D01*
X-527738Y32957D01*
X-527731Y32954D01*
X-527617Y32941D01*
X-527502Y32926D01*
X-527494Y32928D01*
X-527487Y32927D01*
X-527374Y32951D01*
X-527261Y32974D01*
X-527254Y32978D01*
X-527246Y32979D01*
X-527148Y33038D01*
X-527047Y33095D01*
X-527042Y33101D01*
X-527035Y33105D01*
X-526960Y33193D01*
X-526883Y33279D01*
X-526880Y33286D01*
X-526875Y33292D01*
X-526832Y33400D01*
X-526787Y33505D01*
X-526786Y33513D01*
X-526783Y33520D01*
X-526765Y33687D01*
X-526765Y253335D01*
X-524212Y259496D01*
X-519389Y264320D01*
X-504320Y279389D01*
X-504319Y279389D01*
X-499390Y284319D01*
X-499389Y284320D01*
X-324320Y459389D01*
X-324319Y459389D01*
X-319390Y464319D01*
X-319389Y464320D01*
X-259496Y524212D01*
X-253335Y526765D01*
X-33496Y526765D01*
X-33464Y526770D01*
X-33432Y526767D01*
X-33343Y526790D01*
X-33253Y526804D01*
X-33225Y526819D01*
X-33194Y526827D01*
X-33117Y526877D01*
X-33036Y526920D01*
X-33014Y526943D01*
X-32987Y526960D01*
X-32929Y527032D01*
X-32866Y527098D01*
X-32853Y527127D01*
X-32833Y527152D01*
X-32801Y527238D01*
X-32763Y527321D01*
X-32759Y527353D01*
X-32748Y527383D01*
X-32746Y527475D01*
X-32736Y527565D01*
X-32742Y527597D01*
X-32741Y527629D01*
X-32768Y527716D01*
X-32788Y527806D01*
X-32804Y527833D01*
X-32814Y527864D01*
X-32867Y527938D01*
X-32914Y528017D01*
X-32938Y528038D01*
X-32957Y528064D01*
X-33088Y528169D01*
X-39508Y532243D01*
X-50143Y543569D01*
X-57628Y557183D01*
X-61492Y572232D01*
X-61492Y587768D01*
X-57628Y602817D01*
X-50143Y616431D01*
X-39508Y627757D01*
X-26390Y636082D01*
X-11614Y640883D01*
X3892Y641858D01*
X19153Y638947D01*
X33211Y632332D01*
X45182Y622429D01*
X54314Y609859D01*
X60033Y595414D01*
X61981Y580000D01*
X60033Y564586D01*
X54314Y550141D01*
X45182Y537571D01*
X33748Y528113D01*
X33678Y528032D01*
X33604Y527954D01*
X33597Y527939D01*
X33587Y527927D01*
X33546Y527828D01*
X33500Y527731D01*
X33499Y527715D01*
X33492Y527700D01*
X33485Y527593D01*
X33473Y527487D01*
X33477Y527471D01*
X33476Y527455D01*
X33503Y527351D01*
X33526Y527246D01*
X33534Y527232D01*
X33538Y527217D01*
X33597Y527127D01*
X33652Y527035D01*
X33664Y527025D01*
X33673Y527011D01*
X33757Y526945D01*
X33839Y526875D01*
X33854Y526869D01*
X33866Y526859D01*
X33967Y526823D01*
X34067Y526783D01*
X34086Y526781D01*
X34098Y526777D01*
X34129Y526776D01*
X34234Y526765D01*
X263335Y526765D01*
X269496Y524212D01*
X469320Y324389D01*
X529389Y264320D01*
X529389Y264319D01*
X534212Y259496D01*
X536765Y253335D01*
X536765Y45710D01*
X536778Y45628D01*
X536783Y45545D01*
X536798Y45507D01*
X536804Y45468D01*
X536843Y45394D01*
X536875Y45316D01*
X536901Y45286D01*
X536920Y45250D01*
X536980Y45193D01*
X537034Y45129D01*
X537069Y45109D01*
X537098Y45081D01*
X537174Y45046D01*
X537245Y45003D01*
X537285Y44994D01*
X537321Y44977D01*
X537404Y44968D01*
X537486Y44950D01*
X537526Y44955D01*
X537565Y44950D01*
X537647Y44968D01*
X537730Y44977D01*
X537767Y44994D01*
X537806Y45002D01*
X537878Y45045D01*
X537953Y45080D01*
X537993Y45114D01*
X538017Y45129D01*
X538036Y45151D01*
X538081Y45189D01*
X540492Y47757D01*
X553610Y56082D01*
X568386Y60883D01*
X583892Y61858D01*
X599153Y58947D01*
X613211Y52332D01*
X625182Y42429D01*
X634314Y29859D01*
X640033Y15414D01*
X641981Y0D01*
X640033Y-15414D01*
X634314Y-29859D01*
X625182Y-42429D01*
X613211Y-52332D01*
X599153Y-58947D01*
X583892Y-61858D01*
X568386Y-60883D01*
X553610Y-56082D01*
X540492Y-47757D01*
X529857Y-36431D01*
X528193Y-33405D01*
X528159Y-33361D01*
X528132Y-33312D01*
X528083Y-33265D01*
X528041Y-33212D01*
X527995Y-33181D01*
X527954Y-33143D01*
X527893Y-33114D01*
X527836Y-33077D01*
X527782Y-33063D01*
X527731Y-33039D01*
X527664Y-33032D01*
X527598Y-33014D01*
X527542Y-33018D01*
X527487Y-33012D01*
X527420Y-33026D01*
X527352Y-33031D01*
X527301Y-33052D01*
X527246Y-33064D01*
X527188Y-33099D01*
X527125Y-33125D01*
X527083Y-33162D01*
X527035Y-33190D01*
X526991Y-33242D01*
X526940Y-33287D01*
X526912Y-33335D01*
X526875Y-33377D01*
X526850Y-33440D01*
X526815Y-33499D01*
X526804Y-33554D01*
X526783Y-33605D01*
X526772Y-33710D01*
X526765Y-33740D01*
X526767Y-33752D01*
X526765Y-33772D01*
X526765Y-53335D01*
X524212Y-59496D01*
X519390Y-64319D01*
X519389Y-64320D01*
X454040Y-129669D01*
X453987Y-129743D01*
X453927Y-129813D01*
X453915Y-129843D01*
X453896Y-129869D01*
X453869Y-129956D01*
X453835Y-130041D01*
X453831Y-130082D01*
X453824Y-130104D01*
X453825Y-130136D01*
X453817Y-130208D01*
X453817Y-209420D01*
X453828Y-209487D01*
X453829Y-209555D01*
X453847Y-209608D01*
X453856Y-209663D01*
X453888Y-209723D01*
X453911Y-209786D01*
X453945Y-209831D01*
X453972Y-209880D01*
X454020Y-209927D01*
X454062Y-209980D01*
X454126Y-210027D01*
X454150Y-210050D01*
X454169Y-210059D01*
X454197Y-210079D01*
X455137Y-210622D01*
X459924Y-216860D01*
X461959Y-224455D01*
X460932Y-232251D01*
X457001Y-239060D01*
X450763Y-243847D01*
X443168Y-245882D01*
X437914Y-245190D01*
X437868Y-245191D01*
X437823Y-245184D01*
X437746Y-245195D01*
X437668Y-245198D01*
X437625Y-245214D01*
X437580Y-245221D01*
X437510Y-245256D01*
X437438Y-245283D01*
X437402Y-245312D01*
X437361Y-245333D01*
X437307Y-245389D01*
X437246Y-245438D01*
X437222Y-245477D01*
X437190Y-245510D01*
X437156Y-245580D01*
X437114Y-245646D01*
X437104Y-245690D01*
X437084Y-245732D01*
X437074Y-245809D01*
X437056Y-245885D01*
X437060Y-245931D01*
X437054Y-245976D01*
X437075Y-246111D01*
X437076Y-246130D01*
X437078Y-246134D01*
X437079Y-246142D01*
X437161Y-246447D01*
X437265Y-248036D01*
X437057Y-249614D01*
X436776Y-250442D01*
X425741Y-244071D01*
X425722Y-244064D01*
X425706Y-244052D01*
X425608Y-244020D01*
X425511Y-243984D01*
X425491Y-243983D01*
X425472Y-243977D01*
X425368Y-243978D01*
X425265Y-243975D01*
X425246Y-243980D01*
X425226Y-243981D01*
X425129Y-244015D01*
X425029Y-244044D01*
X425013Y-244056D01*
X424994Y-244063D01*
X424912Y-244126D01*
X424828Y-244186D01*
X424816Y-244202D01*
X424801Y-244214D01*
X424828Y-244142D01*
X424829Y-244122D01*
X424835Y-244103D01*
X424833Y-244000D01*
X424837Y-243897D01*
X424831Y-243877D01*
X424831Y-243858D01*
X424797Y-243760D01*
X424767Y-243661D01*
X424756Y-243644D01*
X424749Y-243626D01*
X424685Y-243544D01*
X424626Y-243459D01*
X424610Y-243448D01*
X424598Y-243432D01*
X424462Y-243333D01*
X413427Y-236961D01*
X414004Y-236304D01*
X415266Y-235335D01*
X416694Y-234631D01*
X417000Y-234549D01*
X417041Y-234530D01*
X417086Y-234520D01*
X417153Y-234480D01*
X417224Y-234448D01*
X417257Y-234416D01*
X417297Y-234393D01*
X417347Y-234333D01*
X417404Y-234280D01*
X417426Y-234240D01*
X417455Y-234205D01*
X417484Y-234132D01*
X417521Y-234064D01*
X417529Y-234019D01*
X417546Y-233976D01*
X417550Y-233899D01*
X417564Y-233822D01*
X417557Y-233776D01*
X417559Y-233730D01*
X417538Y-233655D01*
X417527Y-233579D01*
X417506Y-233538D01*
X417493Y-233494D01*
X417422Y-233376D01*
X417414Y-233360D01*
X417410Y-233356D01*
X417406Y-233350D01*
X414180Y-229146D01*
X412145Y-221551D01*
X413172Y-213755D01*
X417103Y-206946D01*
X419989Y-204731D01*
X420002Y-204718D01*
X420017Y-204709D01*
X420086Y-204629D01*
X420158Y-204552D01*
X420165Y-204536D01*
X420177Y-204522D01*
X420216Y-204424D01*
X420260Y-204328D01*
X420262Y-204311D01*
X420269Y-204294D01*
X420287Y-204127D01*
X420287Y-119613D01*
X422840Y-113452D01*
X489827Y-46464D01*
X489869Y-46406D01*
X489918Y-46354D01*
X489940Y-46307D01*
X489970Y-46265D01*
X489991Y-46196D01*
X490022Y-46131D01*
X490027Y-46079D01*
X490043Y-46029D01*
X490041Y-45958D01*
X490049Y-45887D01*
X490038Y-45836D01*
X490036Y-45784D01*
X490012Y-45716D01*
X489997Y-45646D01*
X489970Y-45601D01*
X489952Y-45553D01*
X489907Y-45497D01*
X489870Y-45435D01*
X489831Y-45401D01*
X489798Y-45361D01*
X489738Y-45322D01*
X489683Y-45275D01*
X489635Y-45256D01*
X489591Y-45228D01*
X489522Y-45210D01*
X489455Y-45183D01*
X489384Y-45175D01*
X489353Y-45167D01*
X489329Y-45169D01*
X489289Y-45165D01*
X480529Y-45165D01*
X473264Y-42156D01*
X467704Y-36596D01*
X464695Y-29331D01*
X464695Y-21469D01*
X467704Y-14204D01*
X473264Y-8644D01*
X478160Y-6616D01*
X478199Y-6592D01*
X478242Y-6576D01*
X478303Y-6528D01*
X478369Y-6487D01*
X478398Y-6451D01*
X478434Y-6423D01*
X478476Y-6357D01*
X478526Y-6297D01*
X478542Y-6254D01*
X478567Y-6216D01*
X478586Y-6140D01*
X478614Y-6068D01*
X478616Y-6022D01*
X478627Y-5977D01*
X478621Y-5900D01*
X478624Y-5822D01*
X478612Y-5778D01*
X478608Y-5732D01*
X478578Y-5660D01*
X478556Y-5586D01*
X478530Y-5548D01*
X478512Y-5506D01*
X478426Y-5399D01*
X478416Y-5384D01*
X478412Y-5381D01*
X478407Y-5375D01*
X478183Y-5151D01*
X477299Y-3828D01*
X476690Y-2357D01*
X476519Y-1499D01*
X489262Y-1499D01*
X489281Y-1496D01*
X489301Y-1498D01*
X489403Y-1476D01*
X489505Y-1460D01*
X489522Y-1450D01*
X489542Y-1446D01*
X489631Y-1393D01*
X489722Y-1344D01*
X489736Y-1330D01*
X489753Y-1320D01*
X489820Y-1241D01*
X489891Y-1166D01*
X489900Y-1148D01*
X489913Y-1133D01*
X489951Y-1037D01*
X489995Y-943D01*
X489997Y-923D01*
X490005Y-905D01*
X490023Y-738D01*
X490023Y738D01*
X490020Y758D01*
X490022Y777D01*
X490000Y879D01*
X489983Y981D01*
X489974Y998D01*
X489970Y1018D01*
X489917Y1107D01*
X489868Y1198D01*
X489854Y1212D01*
X489844Y1229D01*
X489765Y1296D01*
X489690Y1368D01*
X489672Y1376D01*
X489657Y1389D01*
X489560Y1428D01*
X489467Y1471D01*
X489447Y1473D01*
X489429Y1481D01*
X489262Y1499D01*
X476519Y1499D01*
X476690Y2357D01*
X477299Y3828D01*
X478183Y5151D01*
X478407Y5375D01*
X478434Y5412D01*
X478468Y5443D01*
X478505Y5511D01*
X478550Y5574D01*
X478564Y5618D01*
X478586Y5659D01*
X478600Y5735D01*
X478623Y5810D01*
X478622Y5855D01*
X478630Y5901D01*
X478618Y5978D01*
X478616Y6055D01*
X478601Y6099D01*
X478594Y6144D01*
X478559Y6213D01*
X478532Y6286D01*
X478503Y6322D01*
X478483Y6363D01*
X478427Y6418D01*
X478378Y6479D01*
X478340Y6503D01*
X478307Y6536D01*
X478187Y6602D01*
X478171Y6612D01*
X478167Y6613D01*
X478160Y6616D01*
X473264Y8644D01*
X467704Y14204D01*
X464695Y21469D01*
X464695Y29331D01*
X467704Y36596D01*
X473264Y42156D01*
X480529Y45165D01*
X499471Y45165D01*
X502183Y44042D01*
X502227Y44031D01*
X502269Y44012D01*
X502346Y44003D01*
X502422Y43986D01*
X502468Y43990D01*
X502513Y43985D01*
X502590Y44001D01*
X502667Y44009D01*
X502709Y44027D01*
X502754Y44037D01*
X502821Y44077D01*
X502892Y44109D01*
X502926Y44140D01*
X502965Y44163D01*
X503016Y44222D01*
X503073Y44275D01*
X503095Y44315D01*
X503125Y44350D01*
X503154Y44422D01*
X503191Y44491D01*
X503200Y44536D01*
X503217Y44578D01*
X503232Y44714D01*
X503235Y44733D01*
X503234Y44738D01*
X503235Y44745D01*
X503235Y242741D01*
X503221Y242831D01*
X503213Y242922D01*
X503201Y242951D01*
X503196Y242983D01*
X503153Y243064D01*
X503117Y243148D01*
X503091Y243180D01*
X503080Y243201D01*
X503057Y243223D01*
X503012Y243279D01*
X457866Y288425D01*
X457850Y288437D01*
X457837Y288453D01*
X457750Y288509D01*
X457666Y288569D01*
X457647Y288575D01*
X457630Y288586D01*
X457530Y288611D01*
X457431Y288641D01*
X457411Y288641D01*
X457392Y288646D01*
X457289Y288638D01*
X457185Y288635D01*
X457166Y288628D01*
X457146Y288626D01*
X457052Y288586D01*
X456954Y288550D01*
X456938Y288538D01*
X456920Y288530D01*
X456789Y288425D01*
X436610Y268246D01*
X436543Y268153D01*
X436474Y268061D01*
X436470Y268051D01*
X436466Y268046D01*
X436460Y268025D01*
X436413Y267905D01*
X434523Y260854D01*
X431298Y256650D01*
X431276Y256609D01*
X431246Y256574D01*
X431218Y256502D01*
X431181Y256433D01*
X431174Y256388D01*
X431157Y256345D01*
X431153Y256268D01*
X431140Y256191D01*
X431147Y256145D01*
X431145Y256099D01*
X431167Y256025D01*
X431179Y255948D01*
X431200Y255907D01*
X431212Y255863D01*
X431257Y255799D01*
X431293Y255730D01*
X431326Y255698D01*
X431352Y255660D01*
X431414Y255613D01*
X431470Y255559D01*
X431512Y255540D01*
X431548Y255512D01*
X431676Y255463D01*
X431692Y255455D01*
X431697Y255454D01*
X431704Y255451D01*
X432010Y255369D01*
X433438Y254665D01*
X434700Y253696D01*
X435277Y253039D01*
X424242Y246667D01*
X424226Y246655D01*
X424208Y246647D01*
X424131Y246577D01*
X424051Y246512D01*
X424041Y246495D01*
X424026Y246481D01*
X423976Y246391D01*
X423921Y246303D01*
X423916Y246284D01*
X423906Y246267D01*
X423887Y246165D01*
X423863Y246064D01*
X423865Y246044D01*
X423861Y246025D01*
X423876Y245922D01*
X423885Y245819D01*
X423893Y245801D01*
X423896Y245782D01*
X423847Y245841D01*
X423830Y245852D01*
X423817Y245866D01*
X423726Y245917D01*
X423639Y245972D01*
X423619Y245976D01*
X423602Y245986D01*
X423500Y246005D01*
X423400Y246029D01*
X423380Y246027D01*
X423360Y246031D01*
X423258Y246017D01*
X423155Y246007D01*
X423136Y245999D01*
X423117Y245997D01*
X422963Y245929D01*
X411928Y239558D01*
X411647Y240386D01*
X411439Y241964D01*
X411543Y243553D01*
X411625Y243858D01*
X411629Y243904D01*
X411643Y243948D01*
X411641Y244026D01*
X411649Y244103D01*
X411639Y244148D01*
X411638Y244194D01*
X411612Y244267D01*
X411594Y244343D01*
X411570Y244382D01*
X411555Y244425D01*
X411507Y244486D01*
X411466Y244552D01*
X411431Y244582D01*
X411402Y244618D01*
X411337Y244660D01*
X411277Y244710D01*
X411234Y244727D01*
X411196Y244752D01*
X411121Y244771D01*
X411048Y244800D01*
X411002Y244802D01*
X410958Y244813D01*
X410821Y244811D01*
X410802Y244811D01*
X410798Y244810D01*
X410790Y244810D01*
X405536Y244118D01*
X397941Y246153D01*
X391703Y250940D01*
X387772Y257749D01*
X386745Y265545D01*
X388781Y273140D01*
X393567Y279378D01*
X409468Y288558D01*
X409480Y288568D01*
X409494Y288574D01*
X409625Y288679D01*
X433080Y312134D01*
X433092Y312150D01*
X433107Y312163D01*
X433164Y312250D01*
X433224Y312334D01*
X433230Y312353D01*
X433240Y312370D01*
X433266Y312470D01*
X433296Y312569D01*
X433296Y312589D01*
X433301Y312608D01*
X433293Y312711D01*
X433290Y312815D01*
X433283Y312834D01*
X433281Y312854D01*
X433241Y312948D01*
X433205Y313046D01*
X433193Y313062D01*
X433185Y313080D01*
X433080Y313211D01*
X278514Y467777D01*
X278498Y467789D01*
X278485Y467805D01*
X278398Y467861D01*
X278314Y467921D01*
X278295Y467927D01*
X278278Y467938D01*
X278178Y467963D01*
X278079Y467993D01*
X278059Y467993D01*
X278040Y467998D01*
X277937Y467990D01*
X277833Y467987D01*
X277814Y467980D01*
X277794Y467978D01*
X277700Y467938D01*
X277602Y467902D01*
X277586Y467890D01*
X277568Y467882D01*
X277437Y467777D01*
X248146Y438486D01*
X248133Y438468D01*
X248116Y438454D01*
X248061Y438368D01*
X248002Y438286D01*
X247996Y438265D01*
X247984Y438247D01*
X247960Y438148D01*
X247930Y438051D01*
X247930Y438029D01*
X247925Y438008D01*
X247934Y437907D01*
X247936Y437805D01*
X247944Y437784D01*
X247946Y437763D01*
X247986Y437670D01*
X248021Y437574D01*
X248035Y437557D01*
X248043Y437537D01*
X248111Y437462D01*
X248174Y437382D01*
X248193Y437370D01*
X248208Y437354D01*
X248296Y437304D01*
X248381Y437249D01*
X248403Y437244D01*
X248422Y437233D01*
X248585Y437193D01*
X249614Y437057D01*
X250442Y436776D01*
X244071Y425741D01*
X244064Y425722D01*
X244052Y425706D01*
X244020Y425608D01*
X243984Y425511D01*
X243983Y425491D01*
X243977Y425472D01*
X243978Y425368D01*
X243975Y425265D01*
X243980Y425246D01*
X243981Y425226D01*
X244015Y425129D01*
X244044Y425029D01*
X244056Y425013D01*
X244063Y424994D01*
X244126Y424912D01*
X244186Y424828D01*
X244202Y424816D01*
X244214Y424801D01*
X244142Y424828D01*
X244122Y424829D01*
X244103Y424835D01*
X244000Y424833D01*
X243897Y424837D01*
X243877Y424831D01*
X243857Y424831D01*
X243760Y424797D01*
X243661Y424767D01*
X243644Y424756D01*
X243626Y424749D01*
X243544Y424685D01*
X243459Y424626D01*
X243448Y424610D01*
X243432Y424598D01*
X243333Y424462D01*
X236961Y413427D01*
X236304Y414004D01*
X235335Y415266D01*
X234631Y416694D01*
X234549Y417000D01*
X234530Y417041D01*
X234520Y417086D01*
X234480Y417153D01*
X234448Y417224D01*
X234416Y417257D01*
X234393Y417297D01*
X234333Y417347D01*
X234280Y417404D01*
X234240Y417426D01*
X234205Y417455D01*
X234132Y417484D01*
X234064Y417521D01*
X234019Y417529D01*
X233976Y417546D01*
X233899Y417550D01*
X233822Y417564D01*
X233776Y417557D01*
X233730Y417559D01*
X233655Y417538D01*
X233579Y417527D01*
X233538Y417506D01*
X233494Y417493D01*
X233376Y417422D01*
X233360Y417414D01*
X233356Y417410D01*
X233350Y417406D01*
X229146Y414180D01*
X221551Y412145D01*
X213755Y413172D01*
X206946Y417103D01*
X202159Y423341D01*
X200124Y430936D01*
X201150Y438732D01*
X210622Y455137D01*
X216860Y459924D01*
X223910Y461813D01*
X224015Y461860D01*
X224121Y461905D01*
X224129Y461911D01*
X224135Y461914D01*
X224151Y461929D01*
X224252Y462010D01*
X253728Y491486D01*
X253740Y491502D01*
X253755Y491515D01*
X253812Y491602D01*
X253872Y491686D01*
X253878Y491705D01*
X253888Y491722D01*
X253914Y491822D01*
X253944Y491921D01*
X253944Y491941D01*
X253949Y491960D01*
X253940Y492063D01*
X253938Y492167D01*
X253931Y492186D01*
X253929Y492206D01*
X253889Y492301D01*
X253853Y492398D01*
X253841Y492414D01*
X253833Y492432D01*
X253728Y492563D01*
X253279Y493012D01*
X253205Y493066D01*
X253135Y493125D01*
X253105Y493137D01*
X253079Y493156D01*
X252992Y493183D01*
X252907Y493217D01*
X252866Y493221D01*
X252844Y493228D01*
X252812Y493227D01*
X252740Y493235D01*
X45926Y493235D01*
X45906Y493232D01*
X45887Y493234D01*
X45785Y493212D01*
X45683Y493196D01*
X45666Y493186D01*
X45646Y493182D01*
X45557Y493129D01*
X45466Y493080D01*
X45452Y493066D01*
X45435Y493056D01*
X45368Y492977D01*
X45296Y492902D01*
X45288Y492884D01*
X45275Y492869D01*
X45236Y492773D01*
X45193Y492679D01*
X45191Y492659D01*
X45183Y492641D01*
X45165Y492474D01*
X45165Y480529D01*
X42156Y473264D01*
X36596Y467704D01*
X29331Y464695D01*
X21469Y464695D01*
X14204Y467704D01*
X8644Y473264D01*
X6616Y478160D01*
X6592Y478199D01*
X6576Y478242D01*
X6528Y478303D01*
X6487Y478369D01*
X6451Y478398D01*
X6423Y478434D01*
X6357Y478476D01*
X6297Y478526D01*
X6254Y478542D01*
X6216Y478567D01*
X6140Y478586D01*
X6068Y478614D01*
X6022Y478616D01*
X5977Y478627D01*
X5900Y478621D01*
X5822Y478624D01*
X5778Y478612D01*
X5732Y478608D01*
X5660Y478578D01*
X5586Y478556D01*
X5548Y478530D01*
X5506Y478512D01*
X5399Y478426D01*
X5384Y478416D01*
X5381Y478412D01*
X5375Y478407D01*
X5151Y478183D01*
X3828Y477299D01*
X2357Y476690D01*
X1499Y476519D01*
X1499Y489262D01*
X1496Y489281D01*
X1498Y489301D01*
X1476Y489403D01*
X1460Y489505D01*
X1450Y489522D01*
X1446Y489542D01*
X1393Y489631D01*
X1344Y489722D01*
X1330Y489736D01*
X1320Y489753D01*
X1241Y489820D01*
X1166Y489891D01*
X1148Y489900D01*
X1133Y489913D01*
X1037Y489951D01*
X943Y489995D01*
X923Y489997D01*
X905Y490005D01*
X738Y490023D01*
X-738Y490023D01*
X-758Y490020D01*
X-777Y490022D01*
X-879Y490000D01*
X-981Y489983D01*
X-998Y489974D01*
X-1018Y489970D01*
X-1107Y489917D01*
X-1198Y489868D01*
X-1212Y489854D01*
X-1229Y489844D01*
X-1296Y489765D01*
X-1368Y489690D01*
X-1376Y489672D01*
X-1389Y489657D01*
X-1428Y489560D01*
X-1471Y489467D01*
X-1473Y489447D01*
X-1481Y489429D01*
X-1499Y489262D01*
X-1499Y476519D01*
X-2357Y476690D01*
X-3828Y477299D01*
X-5151Y478183D01*
X-5375Y478407D01*
X-5412Y478434D01*
X-5443Y478468D01*
X-5511Y478505D01*
X-5574Y478550D01*
X-5618Y478564D01*
X-5659Y478586D01*
X-5735Y478600D01*
X-5810Y478623D01*
X-5855Y478622D01*
X-5901Y478630D01*
X-5978Y478618D01*
X-6055Y478616D01*
X-6099Y478601D01*
X-6144Y478594D01*
X-6213Y478559D01*
X-6286Y478532D01*
X-6322Y478503D01*
X-6363Y478483D01*
X-6418Y478427D01*
X-6479Y478378D01*
X-6503Y478340D01*
X-6536Y478307D01*
X-6602Y478187D01*
X-6612Y478171D01*
X-6613Y478167D01*
X-6616Y478160D01*
X-8644Y473264D01*
X-14204Y467704D01*
X-21469Y464695D01*
X-29331Y464695D01*
X-36596Y467704D01*
X-42156Y473264D01*
X-45165Y480529D01*
X-45165Y492474D01*
X-45168Y492494D01*
X-45166Y492513D01*
X-45188Y492615D01*
X-45204Y492717D01*
X-45214Y492734D01*
X-45218Y492754D01*
X-45271Y492843D01*
X-45320Y492934D01*
X-45334Y492948D01*
X-45344Y492965D01*
X-45423Y493032D01*
X-45498Y493104D01*
X-45516Y493112D01*
X-45531Y493125D01*
X-45627Y493164D01*
X-45721Y493207D01*
X-45741Y493209D01*
X-45759Y493217D01*
X-45926Y493235D01*
X-242740Y493235D01*
X-242831Y493221D01*
X-242921Y493213D01*
X-242951Y493201D01*
X-242983Y493196D01*
X-243064Y493153D01*
X-243148Y493117D01*
X-243180Y493091D01*
X-243201Y493080D01*
X-243223Y493057D01*
X-243279Y493012D01*
X-283425Y452866D01*
X-283437Y452850D01*
X-283453Y452837D01*
X-283509Y452750D01*
X-283569Y452666D01*
X-283575Y452647D01*
X-283586Y452630D01*
X-283611Y452530D01*
X-283641Y452431D01*
X-283641Y452411D01*
X-283646Y452392D01*
X-283638Y452289D01*
X-283635Y452185D01*
X-283628Y452166D01*
X-283626Y452146D01*
X-283586Y452052D01*
X-283550Y451954D01*
X-283538Y451938D01*
X-283530Y451920D01*
X-283425Y451789D01*
X-268246Y436610D01*
X-268153Y436543D01*
X-268061Y436474D01*
X-268051Y436470D01*
X-268046Y436466D01*
X-268025Y436460D01*
X-267905Y436413D01*
X-260854Y434523D01*
X-256650Y431298D01*
X-256609Y431276D01*
X-256574Y431246D01*
X-256502Y431218D01*
X-256433Y431181D01*
X-256388Y431174D01*
X-256345Y431157D01*
X-256268Y431153D01*
X-256191Y431140D01*
X-256145Y431147D01*
X-256099Y431145D01*
X-256025Y431167D01*
X-255948Y431179D01*
X-255907Y431200D01*
X-255863Y431212D01*
X-255799Y431257D01*
X-255730Y431293D01*
X-255698Y431326D01*
X-255660Y431352D01*
X-255613Y431414D01*
X-255559Y431470D01*
X-255540Y431512D01*
X-255512Y431548D01*
X-255463Y431676D01*
X-255455Y431692D01*
X-255454Y431697D01*
X-255451Y431704D01*
X-255369Y432010D01*
X-254665Y433438D01*
X-253696Y434700D01*
X-253039Y435277D01*
X-246667Y424242D01*
X-246655Y424226D01*
X-246647Y424208D01*
X-246577Y424131D01*
X-246512Y424051D01*
X-246495Y424041D01*
X-246481Y424026D01*
X-246391Y423976D01*
X-246303Y423921D01*
X-246284Y423916D01*
X-246267Y423906D01*
X-246165Y423887D01*
X-246064Y423863D01*
X-246044Y423865D01*
X-246025Y423861D01*
X-245922Y423876D01*
X-245819Y423885D01*
X-245801Y423893D01*
X-245782Y423896D01*
X-245841Y423847D01*
X-245852Y423830D01*
X-245866Y423817D01*
X-245917Y423727D01*
X-245972Y423639D01*
X-245976Y423619D01*
X-245986Y423602D01*
X-246005Y423501D01*
X-246029Y423400D01*
X-246027Y423380D01*
X-246031Y423360D01*
X-246017Y423258D01*
X-246007Y423155D01*
X-245999Y423136D01*
X-245997Y423117D01*
X-245929Y422963D01*
X-239558Y411928D01*
X-240386Y411647D01*
X-241964Y411439D01*
X-243553Y411543D01*
X-243858Y411625D01*
X-243904Y411629D01*
X-243948Y411643D01*
X-244026Y411641D01*
X-244103Y411649D01*
X-244148Y411639D01*
X-244194Y411638D01*
X-244267Y411612D01*
X-244343Y411594D01*
X-244382Y411570D01*
X-244425Y411555D01*
X-244486Y411507D01*
X-244552Y411466D01*
X-244582Y411431D01*
X-244618Y411402D01*
X-244660Y411337D01*
X-244710Y411277D01*
X-244727Y411234D01*
X-244752Y411196D01*
X-244771Y411121D01*
X-244800Y411048D01*
X-244802Y411002D01*
X-244813Y410958D01*
X-244811Y410821D01*
X-244811Y410802D01*
X-244810Y410798D01*
X-244810Y410790D01*
X-244118Y405536D01*
X-246153Y397941D01*
X-250940Y391703D01*
X-257749Y387772D01*
X-265545Y386745D01*
X-273140Y388781D01*
X-279378Y393567D01*
X-288558Y409468D01*
X-288568Y409480D01*
X-288574Y409494D01*
X-288679Y409625D01*
X-307134Y428080D01*
X-307150Y428092D01*
X-307163Y428107D01*
X-307238Y428156D01*
X-307255Y428170D01*
X-307265Y428175D01*
X-307334Y428224D01*
X-307353Y428230D01*
X-307370Y428240D01*
X-307470Y428266D01*
X-307569Y428296D01*
X-307589Y428296D01*
X-307608Y428301D01*
X-307711Y428293D01*
X-307815Y428290D01*
X-307834Y428283D01*
X-307854Y428281D01*
X-307948Y428241D01*
X-308046Y428205D01*
X-308062Y428193D01*
X-308080Y428185D01*
X-308151Y428128D01*
X-308155Y428126D01*
X-308160Y428121D01*
X-308211Y428080D01*
X-462777Y273514D01*
X-462789Y273498D01*
X-462805Y273485D01*
X-462834Y273440D01*
X-462858Y273414D01*
X-462875Y273378D01*
X-462921Y273314D01*
X-462927Y273295D01*
X-462938Y273278D01*
X-462957Y273201D01*
X-462962Y273191D01*
X-462963Y273176D01*
X-462993Y273079D01*
X-462993Y273059D01*
X-462998Y273040D01*
X-462990Y272937D01*
X-462987Y272833D01*
X-462980Y272814D01*
X-462978Y272794D01*
X-462938Y272700D01*
X-462902Y272602D01*
X-462890Y272586D01*
X-462882Y272568D01*
X-462777Y272437D01*
X-438486Y248146D01*
X-438468Y248133D01*
X-438454Y248116D01*
X-438369Y248061D01*
X-438286Y248002D01*
X-438265Y247996D01*
X-438247Y247984D01*
X-438148Y247960D01*
X-438051Y247930D01*
X-438029Y247930D01*
X-438008Y247925D01*
X-437907Y247934D01*
X-437805Y247936D01*
X-437785Y247944D01*
X-437763Y247946D01*
X-437670Y247986D01*
X-437574Y248021D01*
X-437557Y248035D01*
X-437537Y248043D01*
X-437462Y248111D01*
X-437382Y248174D01*
X-437370Y248193D01*
X-437354Y248208D01*
X-437304Y248296D01*
X-437249Y248381D01*
X-437244Y248403D01*
X-437233Y248422D01*
X-437193Y248585D01*
X-437057Y249614D01*
X-436776Y250442D01*
X-425741Y244071D01*
X-425722Y244064D01*
X-425706Y244052D01*
X-425608Y244020D01*
X-425511Y243984D01*
X-425491Y243983D01*
X-425472Y243977D01*
X-425368Y243978D01*
X-425265Y243975D01*
X-425246Y243980D01*
X-425226Y243981D01*
X-425129Y244015D01*
X-425029Y244044D01*
X-425013Y244056D01*
X-424994Y244063D01*
X-424912Y244126D01*
X-424828Y244186D01*
X-424816Y244202D01*
X-424801Y244214D01*
X-424828Y244142D01*
X-424829Y244122D01*
X-424835Y244103D01*
X-424833Y244000D01*
X-424837Y243896D01*
X-424831Y243877D01*
X-424831Y243857D01*
X-424797Y243760D01*
X-424767Y243661D01*
X-424756Y243644D01*
X-424749Y243626D01*
X-424685Y243544D01*
X-424626Y243459D01*
X-424610Y243448D01*
X-424597Y243432D01*
X-424462Y243333D01*
X-413427Y236961D01*
X-414004Y236304D01*
X-415266Y235335D01*
X-416694Y234631D01*
X-417000Y234549D01*
X-417041Y234530D01*
X-417086Y234520D01*
X-417153Y234480D01*
X-417224Y234448D01*
X-417257Y234416D01*
X-417297Y234393D01*
X-417347Y234333D01*
X-417404Y234280D01*
X-417426Y234240D01*
X-417455Y234205D01*
X-417484Y234132D01*
X-417521Y234064D01*
X-417529Y234019D01*
X-417546Y233976D01*
X-417550Y233899D01*
X-417564Y233822D01*
X-417557Y233776D01*
X-417559Y233731D01*
X-417538Y233656D01*
X-417527Y233579D01*
X-417506Y233538D01*
X-417493Y233494D01*
X-417422Y233377D01*
X-417414Y233360D01*
X-417410Y233356D01*
X-417406Y233350D01*
X-414181Y229146D01*
X-412145Y221551D01*
X-413172Y213755D01*
X-417103Y206946D01*
X-423341Y202159D01*
X-430936Y200124D01*
X-438732Y201150D01*
X-455137Y210622D01*
X-459923Y216860D01*
X-461813Y223910D01*
X-461860Y224016D01*
X-461905Y224121D01*
X-461911Y224129D01*
X-461914Y224135D01*
X-461929Y224151D01*
X-462010Y224252D01*
X-486486Y248728D01*
X-486502Y248740D01*
X-486515Y248755D01*
X-486602Y248812D01*
X-486686Y248872D01*
X-486705Y248878D01*
X-486722Y248888D01*
X-486822Y248914D01*
X-486921Y248944D01*
X-486941Y248944D01*
X-486960Y248949D01*
X-487063Y248940D01*
X-487167Y248938D01*
X-487186Y248931D01*
X-487206Y248929D01*
X-487300Y248889D01*
X-487398Y248853D01*
X-487414Y248841D01*
X-487432Y248833D01*
X-487563Y248728D01*
X-493012Y243279D01*
X-493065Y243205D01*
X-493125Y243135D01*
X-493137Y243105D01*
X-493156Y243079D01*
X-493183Y242992D01*
X-493217Y242907D01*
X-493221Y242866D01*
X-493228Y242844D01*
X-493227Y242812D01*
X-493235Y242740D01*
X-493235Y45926D01*
X-493232Y45906D01*
X-493234Y45887D01*
X-493212Y45785D01*
X-493196Y45683D01*
X-493186Y45666D01*
X-493182Y45646D01*
X-493129Y45557D01*
X-493080Y45466D01*
X-493066Y45452D01*
X-493056Y45435D01*
X-492977Y45368D01*
X-492902Y45296D01*
X-492884Y45288D01*
X-492869Y45275D01*
X-492773Y45236D01*
X-492679Y45193D01*
X-492659Y45191D01*
X-492641Y45183D01*
X-492474Y45165D01*
X-480529Y45165D01*
X-473264Y42156D01*
X-467704Y36596D01*
X-464695Y29331D01*
X-464695Y21469D01*
X-467704Y14204D01*
X-473264Y8644D01*
X-478160Y6616D01*
X-478199Y6592D01*
X-478242Y6576D01*
X-478303Y6528D01*
X-478369Y6487D01*
X-478398Y6451D01*
X-478434Y6423D01*
X-478476Y6357D01*
X-478526Y6297D01*
X-478542Y6254D01*
X-478567Y6216D01*
X-478586Y6140D01*
X-478614Y6068D01*
X-478616Y6022D01*
X-478627Y5977D01*
X-478621Y5900D01*
X-478624Y5822D01*
X-478612Y5778D01*
X-478608Y5732D01*
X-478578Y5660D01*
X-478556Y5586D01*
X-478530Y5548D01*
X-478512Y5506D01*
X-478426Y5399D01*
X-478416Y5384D01*
X-478412Y5381D01*
X-478407Y5375D01*
X-478183Y5151D01*
X-477299Y3828D01*
X-476690Y2357D01*
X-476519Y1499D01*
X-489262Y1499D01*
X-489281Y1496D01*
X-489301Y1498D01*
X-489403Y1476D01*
X-489505Y1460D01*
X-489522Y1450D01*
X-489542Y1446D01*
X-489631Y1393D01*
X-489722Y1344D01*
X-489736Y1330D01*
X-489753Y1320D01*
X-489820Y1241D01*
X-489891Y1166D01*
X-489900Y1148D01*
X-489913Y1133D01*
X-489951Y1037D01*
X-489995Y943D01*
X-489997Y923D01*
X-490005Y905D01*
X-490023Y738D01*
X-490023Y-738D01*
X-490020Y-758D01*
X-490022Y-777D01*
X-490000Y-879D01*
X-489983Y-981D01*
X-489974Y-998D01*
X-489970Y-1018D01*
X-489917Y-1107D01*
X-489868Y-1198D01*
X-489854Y-1212D01*
X-489844Y-1229D01*
X-489765Y-1296D01*
X-489690Y-1368D01*
X-489672Y-1376D01*
X-489657Y-1389D01*
X-489560Y-1428D01*
X-489467Y-1471D01*
X-489447Y-1473D01*
X-489429Y-1481D01*
X-489262Y-1499D01*
X-476519Y-1499D01*
X-476690Y-2357D01*
X-477299Y-3828D01*
X-478183Y-5151D01*
X-478407Y-5375D01*
X-478434Y-5412D01*
X-478467Y-5443D01*
X-478505Y-5512D01*
X-478550Y-5575D01*
X-478564Y-5618D01*
X-478586Y-5659D01*
X-478600Y-5735D01*
X-478623Y-5810D01*
X-478622Y-5855D01*
X-478630Y-5901D01*
X-478618Y-5978D01*
X-478616Y-6056D01*
X-478601Y-6099D01*
X-478594Y-6144D01*
X-478559Y-6213D01*
X-478532Y-6287D01*
X-478503Y-6322D01*
X-478482Y-6363D01*
X-478427Y-6418D01*
X-478378Y-6479D01*
X-478340Y-6503D01*
X-478307Y-6536D01*
X-478187Y-6601D01*
X-478171Y-6612D01*
X-478167Y-6613D01*
X-478160Y-6616D01*
X-473264Y-8644D01*
X-467704Y-14204D01*
X-464695Y-21469D01*
X-464695Y-29331D01*
X-467704Y-36596D01*
X-473264Y-42156D01*
X-480529Y-45165D01*
X-487251Y-45165D01*
X-487316Y-45175D01*
X-487381Y-45176D01*
X-487461Y-45199D01*
X-487494Y-45204D01*
X-487511Y-45214D01*
X-487542Y-45223D01*
X-491265Y-46765D01*
X-492474Y-46765D01*
X-492494Y-46768D01*
X-492513Y-46766D01*
X-492615Y-46788D01*
X-492717Y-46804D01*
X-492734Y-46814D01*
X-492754Y-46818D01*
X-492843Y-46871D01*
X-492934Y-46920D01*
X-492948Y-46934D01*
X-492965Y-46944D01*
X-493032Y-47023D01*
X-493104Y-47098D01*
X-493112Y-47116D01*
X-493125Y-47131D01*
X-493164Y-47227D01*
X-493207Y-47321D01*
X-493209Y-47341D01*
X-493217Y-47359D01*
X-493235Y-47526D01*
X-493235Y-202740D01*
X-493221Y-202831D01*
X-493213Y-202921D01*
X-493201Y-202951D01*
X-493196Y-202983D01*
X-493153Y-203064D01*
X-493117Y-203148D01*
X-493091Y-203180D01*
X-493080Y-203201D01*
X-493057Y-203223D01*
X-493012Y-203279D01*
X-460775Y-235516D01*
X-460755Y-235530D01*
X-460740Y-235549D01*
X-460656Y-235602D01*
X-460575Y-235660D01*
X-460552Y-235667D01*
X-460532Y-235680D01*
X-460435Y-235703D01*
X-460340Y-235732D01*
X-460316Y-235731D01*
X-460293Y-235737D01*
X-460194Y-235728D01*
X-460094Y-235726D01*
X-460072Y-235717D01*
X-460048Y-235715D01*
X-459957Y-235675D01*
X-459863Y-235641D01*
X-459844Y-235626D01*
X-459822Y-235617D01*
X-459749Y-235550D01*
X-459671Y-235488D01*
X-459658Y-235467D01*
X-459640Y-235451D01*
X-459592Y-235364D01*
X-459538Y-235281D01*
X-459532Y-235257D01*
X-459521Y-235236D01*
X-459502Y-235139D01*
X-459478Y-235042D01*
X-459480Y-235018D01*
X-459476Y-234994D01*
X-459489Y-234896D01*
X-459497Y-234797D01*
X-459507Y-234775D01*
X-459510Y-234751D01*
X-459577Y-234597D01*
X-460932Y-232251D01*
X-461959Y-224455D01*
X-459924Y-216860D01*
X-455137Y-210622D01*
X-438732Y-201150D01*
X-430936Y-200124D01*
X-423341Y-202159D01*
X-417103Y-206946D01*
X-413172Y-213755D01*
X-412145Y-221551D01*
X-414180Y-229146D01*
X-417406Y-233350D01*
X-417428Y-233390D01*
X-417458Y-233426D01*
X-417486Y-233498D01*
X-417523Y-233567D01*
X-417530Y-233612D01*
X-417547Y-233655D01*
X-417551Y-233732D01*
X-417564Y-233809D01*
X-417557Y-233855D01*
X-417559Y-233900D01*
X-417537Y-233975D01*
X-417525Y-234052D01*
X-417504Y-234093D01*
X-417492Y-234137D01*
X-417447Y-234201D01*
X-417411Y-234270D01*
X-417378Y-234302D01*
X-417352Y-234340D01*
X-417290Y-234387D01*
X-417234Y-234441D01*
X-417192Y-234460D01*
X-417156Y-234488D01*
X-417028Y-234537D01*
X-417011Y-234545D01*
X-417007Y-234546D01*
X-417000Y-234549D01*
X-416694Y-234631D01*
X-415266Y-235335D01*
X-414004Y-236304D01*
X-413427Y-236961D01*
X-424462Y-243333D01*
X-424478Y-243345D01*
X-424496Y-243353D01*
X-424573Y-243423D01*
X-424653Y-243488D01*
X-424663Y-243505D01*
X-424678Y-243519D01*
X-424728Y-243609D01*
X-424783Y-243697D01*
X-424788Y-243716D01*
X-424798Y-243733D01*
X-424817Y-243835D01*
X-424841Y-243936D01*
X-424839Y-243956D01*
X-424843Y-243975D01*
X-424828Y-244078D01*
X-424819Y-244181D01*
X-424811Y-244199D01*
X-424808Y-244218D01*
X-424857Y-244159D01*
X-424874Y-244148D01*
X-424887Y-244134D01*
X-424978Y-244083D01*
X-425065Y-244028D01*
X-425085Y-244024D01*
X-425102Y-244014D01*
X-425204Y-243995D01*
X-425304Y-243971D01*
X-425324Y-243973D01*
X-425344Y-243969D01*
X-425446Y-243983D01*
X-425549Y-243993D01*
X-425568Y-244001D01*
X-425587Y-244003D01*
X-425741Y-244071D01*
X-436776Y-250442D01*
X-437057Y-249614D01*
X-437265Y-248036D01*
X-437161Y-246447D01*
X-437079Y-246142D01*
X-437075Y-246096D01*
X-437061Y-246052D01*
X-437063Y-245975D01*
X-437055Y-245897D01*
X-437065Y-245852D01*
X-437066Y-245806D01*
X-437092Y-245733D01*
X-437110Y-245657D01*
X-437134Y-245618D01*
X-437149Y-245575D01*
X-437197Y-245514D01*
X-437238Y-245448D01*
X-437273Y-245418D01*
X-437302Y-245382D01*
X-437367Y-245340D01*
X-437427Y-245290D01*
X-437469Y-245273D01*
X-437508Y-245248D01*
X-437584Y-245229D01*
X-437656Y-245200D01*
X-437702Y-245198D01*
X-437746Y-245187D01*
X-437883Y-245189D01*
X-437902Y-245189D01*
X-437906Y-245190D01*
X-437914Y-245190D01*
X-443168Y-245882D01*
X-450316Y-243966D01*
X-450363Y-243962D01*
X-450409Y-243948D01*
X-450485Y-243950D01*
X-450560Y-243942D01*
X-450607Y-243953D01*
X-450655Y-243954D01*
X-450726Y-243980D01*
X-450800Y-243997D01*
X-450841Y-244022D01*
X-450886Y-244038D01*
X-450945Y-244086D01*
X-451010Y-244125D01*
X-451041Y-244162D01*
X-451078Y-244192D01*
X-451119Y-244256D01*
X-451168Y-244314D01*
X-451185Y-244359D01*
X-451211Y-244399D01*
X-451230Y-244473D01*
X-451257Y-244543D01*
X-451260Y-244591D01*
X-451271Y-244638D01*
X-451265Y-244713D01*
X-451269Y-244789D01*
X-451256Y-244835D01*
X-451252Y-244883D01*
X-451223Y-244952D01*
X-451202Y-245025D01*
X-451175Y-245065D01*
X-451156Y-245109D01*
X-451075Y-245210D01*
X-451063Y-245228D01*
X-451057Y-245232D01*
X-451051Y-245240D01*
X-435534Y-260757D01*
X-435477Y-260798D01*
X-435427Y-260846D01*
X-435378Y-260869D01*
X-435334Y-260901D01*
X-435268Y-260921D01*
X-435205Y-260951D01*
X-435151Y-260957D01*
X-435099Y-260973D01*
X-435030Y-260971D01*
X-434960Y-260979D01*
X-434907Y-260968D01*
X-434853Y-260967D01*
X-434788Y-260943D01*
X-434720Y-260928D01*
X-434673Y-260901D01*
X-434622Y-260882D01*
X-434568Y-260839D01*
X-434508Y-260803D01*
X-434456Y-260749D01*
X-434430Y-260729D01*
X-434418Y-260710D01*
X-434392Y-260682D01*
X-431298Y-256650D01*
X-431276Y-256610D01*
X-431246Y-256574D01*
X-431218Y-256502D01*
X-431181Y-256433D01*
X-431174Y-256388D01*
X-431157Y-256345D01*
X-431153Y-256267D01*
X-431140Y-256191D01*
X-431147Y-256145D01*
X-431145Y-256099D01*
X-431167Y-256025D01*
X-431179Y-255948D01*
X-431200Y-255907D01*
X-431213Y-255863D01*
X-431257Y-255799D01*
X-431293Y-255730D01*
X-431326Y-255698D01*
X-431352Y-255660D01*
X-431414Y-255613D01*
X-431470Y-255559D01*
X-431512Y-255540D01*
X-431548Y-255512D01*
X-431675Y-255463D01*
X-431693Y-255455D01*
X-431698Y-255454D01*
X-431705Y-255451D01*
X-432010Y-255369D01*
X-433438Y-254665D01*
X-434700Y-253696D01*
X-435277Y-253039D01*
X-424242Y-246667D01*
X-424226Y-246655D01*
X-424208Y-246647D01*
X-424131Y-246577D01*
X-424051Y-246512D01*
X-424041Y-246495D01*
X-424026Y-246481D01*
X-423976Y-246391D01*
X-423921Y-246303D01*
X-423916Y-246284D01*
X-423906Y-246267D01*
X-423887Y-246165D01*
X-423863Y-246064D01*
X-423865Y-246044D01*
X-423861Y-246025D01*
X-423876Y-245922D01*
X-423885Y-245819D01*
X-423893Y-245801D01*
X-423896Y-245782D01*
X-423847Y-245841D01*
X-423830Y-245852D01*
X-423817Y-245866D01*
X-423726Y-245917D01*
X-423639Y-245972D01*
X-423619Y-245976D01*
X-423602Y-245986D01*
X-423500Y-246005D01*
X-423400Y-246029D01*
X-423380Y-246027D01*
X-423360Y-246031D01*
X-423258Y-246017D01*
X-423155Y-246007D01*
X-423136Y-245999D01*
X-423117Y-245997D01*
X-422963Y-245929D01*
X-411928Y-239558D01*
X-411647Y-240386D01*
X-411439Y-241964D01*
X-411543Y-243553D01*
X-411625Y-243858D01*
X-411629Y-243904D01*
X-411643Y-243948D01*
X-411641Y-244025D01*
X-411649Y-244103D01*
X-411639Y-244148D01*
X-411638Y-244194D01*
X-411612Y-244267D01*
X-411594Y-244343D01*
X-411570Y-244382D01*
X-411555Y-244425D01*
X-411507Y-244486D01*
X-411466Y-244552D01*
X-411431Y-244582D01*
X-411402Y-244618D01*
X-411337Y-244660D01*
X-411277Y-244710D01*
X-411234Y-244727D01*
X-411196Y-244752D01*
X-411121Y-244771D01*
X-411048Y-244800D01*
X-411002Y-244802D01*
X-410958Y-244813D01*
X-410821Y-244811D01*
X-410802Y-244811D01*
X-410798Y-244810D01*
X-410790Y-244810D01*
X-405536Y-244118D01*
X-397941Y-246153D01*
X-391703Y-250940D01*
X-387772Y-257749D01*
X-386745Y-265545D01*
X-388780Y-273140D01*
X-393567Y-279378D01*
X-407509Y-287427D01*
X-407599Y-287502D01*
X-407693Y-287577D01*
X-407696Y-287580D01*
X-407699Y-287583D01*
X-407762Y-287683D01*
X-407826Y-287784D01*
X-407828Y-287788D01*
X-407830Y-287791D01*
X-407858Y-287907D01*
X-407887Y-288022D01*
X-407886Y-288026D01*
X-407887Y-288031D01*
X-407877Y-288150D01*
X-407867Y-288267D01*
X-407866Y-288271D01*
X-407865Y-288276D01*
X-407817Y-288386D01*
X-407771Y-288494D01*
X-407768Y-288498D01*
X-407767Y-288501D01*
X-407757Y-288511D01*
X-407666Y-288625D01*
X-288625Y-407666D01*
X-288529Y-407735D01*
X-288432Y-407806D01*
X-288428Y-407807D01*
X-288425Y-407810D01*
X-288312Y-407845D01*
X-288198Y-407881D01*
X-288194Y-407881D01*
X-288190Y-407882D01*
X-288071Y-407879D01*
X-287952Y-407877D01*
X-287948Y-407876D01*
X-287944Y-407876D01*
X-287831Y-407835D01*
X-287720Y-407795D01*
X-287717Y-407793D01*
X-287713Y-407791D01*
X-287620Y-407717D01*
X-287527Y-407644D01*
X-287524Y-407640D01*
X-287521Y-407638D01*
X-287514Y-407626D01*
X-287427Y-407509D01*
X-279378Y-393567D01*
X-273140Y-388780D01*
X-265545Y-386745D01*
X-257749Y-387772D01*
X-250940Y-391703D01*
X-246153Y-397941D01*
X-244118Y-405536D01*
X-244810Y-410790D01*
X-244808Y-410836D01*
X-244816Y-410881D01*
X-244805Y-410958D01*
X-244802Y-411036D01*
X-244786Y-411079D01*
X-244779Y-411124D01*
X-244744Y-411193D01*
X-244716Y-411266D01*
X-244688Y-411302D01*
X-244667Y-411343D01*
X-244611Y-411397D01*
X-244562Y-411458D01*
X-244523Y-411482D01*
X-244490Y-411514D01*
X-244420Y-411548D01*
X-244354Y-411590D01*
X-244310Y-411600D01*
X-244268Y-411620D01*
X-244191Y-411630D01*
X-244115Y-411648D01*
X-244069Y-411644D01*
X-244024Y-411650D01*
X-243889Y-411629D01*
X-243870Y-411628D01*
X-243866Y-411626D01*
X-243858Y-411625D01*
X-243553Y-411543D01*
X-241964Y-411439D01*
X-240386Y-411647D01*
X-239558Y-411928D01*
X-245929Y-422963D01*
X-245936Y-422982D01*
X-245948Y-422998D01*
X-245980Y-423096D01*
X-246016Y-423193D01*
X-246017Y-423213D01*
X-246023Y-423232D01*
X-246022Y-423336D01*
X-246025Y-423439D01*
X-246020Y-423458D01*
X-246019Y-423478D01*
X-245985Y-423575D01*
X-245956Y-423675D01*
X-245944Y-423691D01*
X-245937Y-423710D01*
X-245874Y-423791D01*
X-245814Y-423876D01*
X-245798Y-423888D01*
X-245786Y-423903D01*
X-245858Y-423876D01*
X-245878Y-423875D01*
X-245897Y-423869D01*
X-246000Y-423871D01*
X-246103Y-423867D01*
X-246123Y-423873D01*
X-246142Y-423873D01*
X-246240Y-423907D01*
X-246339Y-423937D01*
X-246356Y-423948D01*
X-246374Y-423955D01*
X-246456Y-424019D01*
X-246541Y-424078D01*
X-246552Y-424094D01*
X-246568Y-424107D01*
X-246667Y-424242D01*
X-253039Y-435277D01*
X-253696Y-434700D01*
X-254665Y-433438D01*
X-255369Y-432010D01*
X-255451Y-431705D01*
X-255466Y-431671D01*
X-255471Y-431652D01*
X-255474Y-431646D01*
X-255480Y-431618D01*
X-255520Y-431551D01*
X-255552Y-431480D01*
X-255584Y-431447D01*
X-255607Y-431407D01*
X-255667Y-431357D01*
X-255720Y-431300D01*
X-255760Y-431278D01*
X-255795Y-431249D01*
X-255868Y-431220D01*
X-255936Y-431183D01*
X-255981Y-431175D01*
X-256024Y-431158D01*
X-256101Y-431154D01*
X-256178Y-431140D01*
X-256224Y-431147D01*
X-256269Y-431145D01*
X-256344Y-431166D01*
X-256421Y-431177D01*
X-256462Y-431198D01*
X-256506Y-431211D01*
X-256623Y-431282D01*
X-256640Y-431290D01*
X-256644Y-431294D01*
X-256650Y-431298D01*
X-260682Y-434392D01*
X-260730Y-434442D01*
X-260784Y-434486D01*
X-260814Y-434532D01*
X-260851Y-434571D01*
X-260880Y-434634D01*
X-260917Y-434693D01*
X-260931Y-434745D01*
X-260953Y-434795D01*
X-260960Y-434864D01*
X-260977Y-434931D01*
X-260973Y-434985D01*
X-260979Y-435039D01*
X-260964Y-435107D01*
X-260958Y-435177D01*
X-260937Y-435226D01*
X-260925Y-435279D01*
X-260889Y-435339D01*
X-260862Y-435403D01*
X-260815Y-435462D01*
X-260798Y-435490D01*
X-260781Y-435504D01*
X-260757Y-435534D01*
X-245240Y-451051D01*
X-245201Y-451079D01*
X-245168Y-451114D01*
X-245102Y-451150D01*
X-245040Y-451195D01*
X-244995Y-451209D01*
X-244952Y-451232D01*
X-244878Y-451245D01*
X-244805Y-451267D01*
X-244757Y-451266D01*
X-244710Y-451274D01*
X-244635Y-451263D01*
X-244559Y-451261D01*
X-244514Y-451244D01*
X-244467Y-451237D01*
X-244400Y-451202D01*
X-244328Y-451176D01*
X-244291Y-451146D01*
X-244248Y-451124D01*
X-244196Y-451070D01*
X-244136Y-451022D01*
X-244110Y-450982D01*
X-244077Y-450948D01*
X-244044Y-450879D01*
X-244003Y-450816D01*
X-243992Y-450769D01*
X-243971Y-450726D01*
X-243962Y-450650D01*
X-243943Y-450577D01*
X-243947Y-450529D01*
X-243941Y-450482D01*
X-243961Y-450354D01*
X-243962Y-450332D01*
X-243965Y-450326D01*
X-243966Y-450316D01*
X-245882Y-443168D01*
X-245190Y-437914D01*
X-245191Y-437868D01*
X-245184Y-437823D01*
X-245195Y-437746D01*
X-245198Y-437668D01*
X-245214Y-437625D01*
X-245221Y-437580D01*
X-245256Y-437510D01*
X-245283Y-437438D01*
X-245312Y-437402D01*
X-245333Y-437361D01*
X-245389Y-437307D01*
X-245438Y-437246D01*
X-245477Y-437222D01*
X-245510Y-437190D01*
X-245580Y-437156D01*
X-245646Y-437114D01*
X-245690Y-437104D01*
X-245732Y-437084D01*
X-245809Y-437074D01*
X-245885Y-437056D01*
X-245931Y-437060D01*
X-245976Y-437054D01*
X-246111Y-437075D01*
X-246130Y-437076D01*
X-246134Y-437078D01*
X-246142Y-437079D01*
X-246447Y-437161D01*
X-248036Y-437265D01*
X-249614Y-437057D01*
X-250442Y-436776D01*
X-244071Y-425741D01*
X-244064Y-425722D01*
X-244052Y-425706D01*
X-244020Y-425608D01*
X-243984Y-425511D01*
X-243983Y-425491D01*
X-243977Y-425472D01*
X-243978Y-425368D01*
X-243975Y-425265D01*
X-243980Y-425246D01*
X-243981Y-425226D01*
X-244015Y-425129D01*
X-244044Y-425029D01*
X-244056Y-425013D01*
X-244063Y-424994D01*
X-244126Y-424912D01*
X-244186Y-424828D01*
X-244202Y-424816D01*
X-244214Y-424801D01*
X-244142Y-424828D01*
X-244122Y-424829D01*
X-244103Y-424835D01*
X-244000Y-424833D01*
X-243897Y-424837D01*
X-243877Y-424831D01*
X-243857Y-424831D01*
X-243760Y-424797D01*
X-243661Y-424767D01*
X-243644Y-424756D01*
X-243626Y-424749D01*
X-243544Y-424685D01*
X-243459Y-424626D01*
X-243448Y-424610D01*
X-243432Y-424598D01*
X-243333Y-424462D01*
X-236961Y-413427D01*
X-236304Y-414004D01*
X-235335Y-415266D01*
X-234631Y-416694D01*
X-234549Y-417000D01*
X-234530Y-417041D01*
X-234520Y-417086D01*
X-234480Y-417153D01*
X-234448Y-417224D01*
X-234416Y-417257D01*
X-234393Y-417297D01*
X-234333Y-417347D01*
X-234280Y-417404D01*
X-234240Y-417426D01*
X-234205Y-417455D01*
X-234132Y-417484D01*
X-234064Y-417521D01*
X-234019Y-417529D01*
X-233976Y-417546D01*
X-233899Y-417550D01*
X-233822Y-417564D01*
X-233776Y-417557D01*
X-233730Y-417559D01*
X-233655Y-417538D01*
X-233579Y-417527D01*
X-233538Y-417506D01*
X-233494Y-417493D01*
X-233376Y-417422D01*
X-233360Y-417414D01*
X-233356Y-417410D01*
X-233350Y-417406D01*
X-229146Y-414180D01*
X-221551Y-412145D01*
X-213755Y-413172D01*
X-206946Y-417103D01*
X-204731Y-419989D01*
X-204718Y-420002D01*
X-204709Y-420017D01*
X-204629Y-420086D01*
X-204552Y-420158D01*
X-204536Y-420165D01*
X-204522Y-420177D01*
X-204424Y-420216D01*
X-204328Y-420260D01*
X-204311Y-420262D01*
X-204294Y-420269D01*
X-204127Y-420287D01*
X-177526Y-420287D01*
X-177506Y-420284D01*
X-177487Y-420286D01*
X-177385Y-420264D01*
X-177283Y-420248D01*
X-177266Y-420238D01*
X-177246Y-420234D01*
X-177157Y-420181D01*
X-177066Y-420132D01*
X-177052Y-420118D01*
X-177035Y-420108D01*
X-176968Y-420029D01*
X-176896Y-419954D01*
X-176888Y-419936D01*
X-176875Y-419921D01*
X-176836Y-419825D01*
X-176793Y-419731D01*
X-176791Y-419711D01*
X-176783Y-419693D01*
X-176765Y-419526D01*
X-176765Y-356665D01*
X-174212Y-350504D01*
X-169496Y-345788D01*
X-163335Y-343235D01*
X-145707Y-343235D01*
X-145617Y-343221D01*
X-145526Y-343213D01*
X-145496Y-343201D01*
X-145464Y-343196D01*
X-145383Y-343153D01*
X-145300Y-343117D01*
X-145267Y-343091D01*
X-145247Y-343080D01*
X-145225Y-343057D01*
X-145169Y-343012D01*
X-141328Y-339171D01*
X-124072Y-339171D01*
X-112276Y-350967D01*
X-112260Y-350979D01*
X-112248Y-350994D01*
X-112161Y-351051D01*
X-112077Y-351111D01*
X-112058Y-351117D01*
X-112041Y-351127D01*
X-111940Y-351153D01*
X-111842Y-351183D01*
X-111822Y-351183D01*
X-111802Y-351188D01*
X-111699Y-351180D01*
X-111596Y-351177D01*
X-111577Y-351170D01*
X-111557Y-351168D01*
X-111462Y-351128D01*
X-111365Y-351092D01*
X-111349Y-351080D01*
X-111331Y-351072D01*
X-111200Y-350967D01*
X-111088Y-350855D01*
X-108823Y-350855D01*
X-108823Y-359238D01*
X-108820Y-359258D01*
X-108822Y-359277D01*
X-108800Y-359379D01*
X-108783Y-359481D01*
X-108774Y-359498D01*
X-108770Y-359518D01*
X-108717Y-359607D01*
X-108668Y-359698D01*
X-108654Y-359712D01*
X-108644Y-359729D01*
X-108565Y-359796D01*
X-108490Y-359867D01*
X-108472Y-359876D01*
X-108457Y-359889D01*
X-108361Y-359927D01*
X-108267Y-359971D01*
X-108247Y-359973D01*
X-108229Y-359981D01*
X-108062Y-359999D01*
X-107299Y-359999D01*
X-107299Y-360001D01*
X-108062Y-360001D01*
X-108082Y-360004D01*
X-108101Y-360002D01*
X-108203Y-360024D01*
X-108305Y-360041D01*
X-108322Y-360050D01*
X-108342Y-360054D01*
X-108431Y-360107D01*
X-108522Y-360156D01*
X-108536Y-360170D01*
X-108553Y-360180D01*
X-108620Y-360259D01*
X-108691Y-360334D01*
X-108700Y-360352D01*
X-108713Y-360367D01*
X-108752Y-360463D01*
X-108795Y-360557D01*
X-108797Y-360577D01*
X-108805Y-360595D01*
X-108823Y-360762D01*
X-108823Y-369145D01*
X-111088Y-369145D01*
X-111200Y-369033D01*
X-111216Y-369021D01*
X-111229Y-369006D01*
X-111316Y-368949D01*
X-111400Y-368889D01*
X-111419Y-368883D01*
X-111435Y-368873D01*
X-111536Y-368847D01*
X-111635Y-368817D01*
X-111655Y-368817D01*
X-111674Y-368812D01*
X-111777Y-368820D01*
X-111881Y-368823D01*
X-111899Y-368830D01*
X-111919Y-368832D01*
X-112014Y-368872D01*
X-112112Y-368908D01*
X-112127Y-368920D01*
X-112145Y-368928D01*
X-112276Y-369033D01*
X-124072Y-380829D01*
X-141328Y-380829D01*
X-141936Y-380221D01*
X-141994Y-380179D01*
X-142046Y-380129D01*
X-142093Y-380107D01*
X-142135Y-380077D01*
X-142204Y-380056D01*
X-142269Y-380026D01*
X-142321Y-380020D01*
X-142371Y-380005D01*
X-142442Y-380006D01*
X-142513Y-379999D01*
X-142564Y-380010D01*
X-142616Y-380011D01*
X-142684Y-380036D01*
X-142754Y-380051D01*
X-142799Y-380078D01*
X-142847Y-380095D01*
X-142903Y-380140D01*
X-142965Y-380177D01*
X-142999Y-380217D01*
X-143039Y-380249D01*
X-143078Y-380309D01*
X-143125Y-380364D01*
X-143144Y-380412D01*
X-143172Y-380456D01*
X-143190Y-380526D01*
X-143217Y-380592D01*
X-143225Y-380663D01*
X-143233Y-380695D01*
X-143231Y-380718D01*
X-143235Y-380759D01*
X-143235Y-419241D01*
X-143224Y-419312D01*
X-143222Y-419384D01*
X-143204Y-419433D01*
X-143196Y-419484D01*
X-143162Y-419547D01*
X-143137Y-419615D01*
X-143105Y-419655D01*
X-143080Y-419701D01*
X-143028Y-419751D01*
X-142984Y-419807D01*
X-142940Y-419835D01*
X-142902Y-419871D01*
X-142837Y-419901D01*
X-142777Y-419940D01*
X-142726Y-419952D01*
X-142679Y-419974D01*
X-142608Y-419982D01*
X-142538Y-420000D01*
X-142486Y-419996D01*
X-142435Y-420001D01*
X-142364Y-419986D01*
X-142293Y-419981D01*
X-142245Y-419960D01*
X-142194Y-419949D01*
X-142133Y-419912D01*
X-142067Y-419884D01*
X-142011Y-419839D01*
X-141983Y-419823D01*
X-141968Y-419805D01*
X-141936Y-419779D01*
X-141328Y-419171D01*
X-124072Y-419171D01*
X-112276Y-430967D01*
X-112260Y-430979D01*
X-112248Y-430994D01*
X-112174Y-431042D01*
X-112153Y-431060D01*
X-112141Y-431065D01*
X-112077Y-431111D01*
X-112058Y-431117D01*
X-112041Y-431127D01*
X-111940Y-431153D01*
X-111842Y-431183D01*
X-111822Y-431183D01*
X-111802Y-431188D01*
X-111699Y-431180D01*
X-111596Y-431177D01*
X-111577Y-431170D01*
X-111557Y-431168D01*
X-111462Y-431128D01*
X-111365Y-431092D01*
X-111349Y-431080D01*
X-111331Y-431072D01*
X-111264Y-431019D01*
X-111258Y-431016D01*
X-111252Y-431009D01*
X-111200Y-430967D01*
X-111088Y-430855D01*
X-108823Y-430855D01*
X-108823Y-439238D01*
X-108820Y-439258D01*
X-108822Y-439277D01*
X-108800Y-439379D01*
X-108783Y-439481D01*
X-108774Y-439498D01*
X-108770Y-439518D01*
X-108717Y-439607D01*
X-108668Y-439698D01*
X-108654Y-439712D01*
X-108644Y-439729D01*
X-108565Y-439796D01*
X-108490Y-439867D01*
X-108472Y-439876D01*
X-108457Y-439889D01*
X-108361Y-439927D01*
X-108267Y-439971D01*
X-108247Y-439973D01*
X-108229Y-439981D01*
X-108062Y-439999D01*
X-107299Y-439999D01*
X-107299Y-440001D01*
X-108062Y-440001D01*
X-108082Y-440004D01*
X-108101Y-440002D01*
X-108203Y-440024D01*
X-108305Y-440041D01*
X-108322Y-440050D01*
X-108342Y-440054D01*
X-108431Y-440107D01*
X-108522Y-440156D01*
X-108536Y-440170D01*
X-108553Y-440180D01*
X-108620Y-440259D01*
X-108691Y-440334D01*
X-108700Y-440352D01*
X-108713Y-440367D01*
X-108752Y-440463D01*
X-108795Y-440557D01*
X-108797Y-440577D01*
X-108805Y-440595D01*
X-108823Y-440762D01*
X-108823Y-449145D01*
X-111088Y-449145D01*
X-111200Y-449033D01*
X-111216Y-449021D01*
X-111229Y-449006D01*
X-111316Y-448949D01*
X-111400Y-448889D01*
X-111419Y-448883D01*
X-111435Y-448873D01*
X-111536Y-448847D01*
X-111635Y-448817D01*
X-111655Y-448817D01*
X-111674Y-448812D01*
X-111777Y-448820D01*
X-111881Y-448823D01*
X-111899Y-448830D01*
X-111919Y-448832D01*
X-112014Y-448872D01*
X-112112Y-448908D01*
X-112127Y-448920D01*
X-112145Y-448928D01*
X-112276Y-449033D01*
X-124072Y-460829D01*
X-141328Y-460829D01*
X-141936Y-460221D01*
X-141994Y-460179D01*
X-142046Y-460129D01*
X-142093Y-460107D01*
X-142135Y-460077D01*
X-142204Y-460056D01*
X-142269Y-460026D01*
X-142321Y-460020D01*
X-142371Y-460005D01*
X-142442Y-460006D01*
X-142513Y-459999D01*
X-142564Y-460010D01*
X-142616Y-460011D01*
X-142684Y-460036D01*
X-142754Y-460051D01*
X-142799Y-460078D01*
X-142847Y-460095D01*
X-142903Y-460140D01*
X-142965Y-460177D01*
X-142999Y-460217D01*
X-143039Y-460249D01*
X-143078Y-460309D01*
X-143125Y-460364D01*
X-143144Y-460412D01*
X-143172Y-460456D01*
X-143190Y-460526D01*
X-143217Y-460592D01*
X-143225Y-460663D01*
X-143233Y-460695D01*
X-143231Y-460718D01*
X-143235Y-460759D01*
X-143235Y-576838D01*
X-143228Y-576884D01*
X-143230Y-576930D01*
X-143208Y-577004D01*
X-143196Y-577081D01*
X-143174Y-577122D01*
X-143161Y-577166D01*
X-143117Y-577230D01*
X-143080Y-577299D01*
X-143047Y-577330D01*
X-143021Y-577368D01*
X-142958Y-577414D01*
X-142902Y-577468D01*
X-142860Y-577487D01*
X-142824Y-577515D01*
X-142750Y-577539D01*
X-142679Y-577572D01*
X-142633Y-577577D01*
X-142590Y-577591D01*
X-142512Y-577590D01*
X-142435Y-577599D01*
X-142390Y-577589D01*
X-142344Y-577588D01*
X-142212Y-577550D01*
X-142194Y-577546D01*
X-142190Y-577544D01*
X-142183Y-577542D01*
X-140598Y-576885D01*
X-131402Y-576885D01*
X-122907Y-580404D01*
X-116404Y-586907D01*
X-114097Y-592478D01*
X-114041Y-592567D01*
X-113990Y-592659D01*
X-113976Y-592672D01*
X-113967Y-592687D01*
X-113886Y-592754D01*
X-113808Y-592825D01*
X-113791Y-592832D01*
X-113777Y-592844D01*
X-113679Y-592882D01*
X-113583Y-592924D01*
X-113565Y-592925D01*
X-113548Y-592932D01*
X-113443Y-592936D01*
X-113338Y-592946D01*
X-113320Y-592942D01*
X-113302Y-592942D01*
X-113201Y-592913D01*
X-113099Y-592888D01*
X-113083Y-592879D01*
X-113066Y-592874D01*
X-112980Y-592814D01*
X-112890Y-592758D01*
X-112875Y-592741D01*
X-112864Y-592734D01*
X-112845Y-592708D01*
X-112777Y-592634D01*
X-112719Y-592553D01*
X-111447Y-591281D01*
X-109991Y-590224D01*
X-108388Y-589407D01*
X-106677Y-588851D01*
X-105523Y-588668D01*
X-105523Y-599238D01*
X-105520Y-599258D01*
X-105522Y-599277D01*
X-105500Y-599379D01*
X-105483Y-599481D01*
X-105474Y-599498D01*
X-105470Y-599518D01*
X-105417Y-599607D01*
X-105368Y-599698D01*
X-105354Y-599712D01*
X-105344Y-599729D01*
X-105265Y-599796D01*
X-105190Y-599867D01*
X-105172Y-599876D01*
X-105157Y-599889D01*
X-105061Y-599927D01*
X-104967Y-599971D01*
X-104947Y-599973D01*
X-104929Y-599981D01*
X-104762Y-599999D01*
X-103999Y-599999D01*
X-103999Y-600001D01*
X-104762Y-600001D01*
X-104782Y-600004D01*
X-104801Y-600002D01*
X-104903Y-600024D01*
X-105005Y-600041D01*
X-105022Y-600050D01*
X-105042Y-600054D01*
X-105131Y-600107D01*
X-105222Y-600156D01*
X-105236Y-600170D01*
X-105253Y-600180D01*
X-105320Y-600259D01*
X-105391Y-600334D01*
X-105400Y-600352D01*
X-105413Y-600367D01*
X-105452Y-600463D01*
X-105495Y-600557D01*
X-105497Y-600577D01*
X-105505Y-600595D01*
X-105523Y-600762D01*
X-105523Y-611332D01*
X-106677Y-611149D01*
X-108388Y-610593D01*
X-109991Y-609776D01*
X-111447Y-608719D01*
X-112719Y-607447D01*
X-112777Y-607366D01*
X-112852Y-607292D01*
X-112923Y-607215D01*
X-112939Y-607206D01*
X-112952Y-607193D01*
X-113046Y-607147D01*
X-113139Y-607096D01*
X-113157Y-607093D01*
X-113173Y-607085D01*
X-113277Y-607071D01*
X-113381Y-607052D01*
X-113399Y-607055D01*
X-113417Y-607053D01*
X-113520Y-607073D01*
X-113624Y-607088D01*
X-113640Y-607096D01*
X-113658Y-607100D01*
X-113749Y-607152D01*
X-113843Y-607200D01*
X-113856Y-607213D01*
X-113872Y-607222D01*
X-113942Y-607300D01*
X-114016Y-607375D01*
X-114026Y-607395D01*
X-114036Y-607405D01*
X-114048Y-607434D01*
X-114097Y-607522D01*
X-116404Y-613093D01*
X-122907Y-619596D01*
X-128157Y-621771D01*
X-128240Y-621822D01*
X-128326Y-621868D01*
X-128344Y-621887D01*
X-128367Y-621900D01*
X-128429Y-621975D01*
X-128496Y-622046D01*
X-128507Y-622070D01*
X-128523Y-622090D01*
X-128558Y-622181D01*
X-128599Y-622269D01*
X-128602Y-622295D01*
X-128612Y-622319D01*
X-128616Y-622417D01*
X-128626Y-622513D01*
X-128621Y-622539D01*
X-128622Y-622565D01*
X-128595Y-622659D01*
X-128574Y-622754D01*
X-128561Y-622776D01*
X-128553Y-622801D01*
X-128498Y-622881D01*
X-128448Y-622965D01*
X-128428Y-622982D01*
X-128413Y-623003D01*
X-128335Y-623062D01*
X-128261Y-623125D01*
X-128237Y-623135D01*
X-128216Y-623150D01*
X-128123Y-623180D01*
X-128033Y-623217D01*
X-128000Y-623220D01*
X-127982Y-623226D01*
X-127949Y-623226D01*
X-127866Y-623235D01*
X-45513Y-623235D01*
X-45454Y-623226D01*
X-45394Y-623226D01*
X-45334Y-623206D01*
X-45271Y-623196D01*
X-45218Y-623168D01*
X-45161Y-623149D01*
X-45110Y-623110D01*
X-45053Y-623080D01*
X-45012Y-623037D01*
X-44964Y-623001D01*
X-44928Y-622948D01*
X-44884Y-622902D01*
X-44859Y-622848D01*
X-44825Y-622799D01*
X-44807Y-622737D01*
X-44780Y-622679D01*
X-44774Y-622620D01*
X-44757Y-622562D01*
X-44760Y-622498D01*
X-44753Y-622435D01*
X-44766Y-622376D01*
X-44769Y-622316D01*
X-44792Y-622257D01*
X-44805Y-622194D01*
X-44836Y-622143D01*
X-44858Y-622087D01*
X-44915Y-622011D01*
X-44931Y-621983D01*
X-44943Y-621973D01*
X-44958Y-621953D01*
X-50143Y-616431D01*
X-57628Y-602817D01*
X-61492Y-587768D01*
X-61492Y-572232D01*
X-57628Y-557183D01*
X-50143Y-543569D01*
X-39508Y-532243D01*
X-26390Y-523918D01*
X-11614Y-519117D01*
X3892Y-518142D01*
X19153Y-521053D01*
X33211Y-527668D01*
X45182Y-537571D01*
X54314Y-550141D01*
X60033Y-564586D01*
X61981Y-580000D01*
X60033Y-595414D01*
X54314Y-609859D01*
X45182Y-622429D01*
X33211Y-632332D01*
X19153Y-638947D01*
X6711Y-641321D01*
X6579Y-641369D01*
X6480Y-641405D01*
X6305Y-641546D01*
X6288Y-641559D01*
X6177Y-641731D01*
X6155Y-641766D01*
X6101Y-641983D01*
X6095Y-642004D01*
X6109Y-642184D01*
X6114Y-642249D01*
X6114Y-642250D01*
X6211Y-642476D01*
X6316Y-642607D01*
X6721Y-643012D01*
X6795Y-643066D01*
X6865Y-643125D01*
X6895Y-643137D01*
X6921Y-643156D01*
X7008Y-643183D01*
X7093Y-643217D01*
X7134Y-643221D01*
X7156Y-643228D01*
X7188Y-643227D01*
X7260Y-643235D01*
X73964Y-643235D01*
X73988Y-643231D01*
X74031Y-643232D01*
X105566Y-640473D01*
X105622Y-640459D01*
X105680Y-640454D01*
X105741Y-640429D01*
X105804Y-640413D01*
X105853Y-640381D01*
X105907Y-640358D01*
X105984Y-640296D01*
X106011Y-640279D01*
X106020Y-640268D01*
X106038Y-640253D01*
X128453Y-617838D01*
X128464Y-617822D01*
X128480Y-617810D01*
X128536Y-617722D01*
X128596Y-617639D01*
X128602Y-617620D01*
X128613Y-617603D01*
X128638Y-617502D01*
X128669Y-617403D01*
X128668Y-617384D01*
X128673Y-617364D01*
X128665Y-617261D01*
X128662Y-617158D01*
X128655Y-617139D01*
X128654Y-617119D01*
X128613Y-617024D01*
X128578Y-616927D01*
X128565Y-616911D01*
X128558Y-616893D01*
X128453Y-616762D01*
X27219Y-515528D01*
X27145Y-515475D01*
X27075Y-515415D01*
X27045Y-515403D01*
X27019Y-515384D01*
X26932Y-515357D01*
X26847Y-515323D01*
X26806Y-515319D01*
X26784Y-515312D01*
X26752Y-515313D01*
X26681Y-515305D01*
X21469Y-515305D01*
X14204Y-512296D01*
X8644Y-506736D01*
X6616Y-501840D01*
X6592Y-501801D01*
X6576Y-501758D01*
X6528Y-501697D01*
X6487Y-501631D01*
X6451Y-501602D01*
X6423Y-501566D01*
X6357Y-501524D01*
X6297Y-501474D01*
X6254Y-501458D01*
X6216Y-501433D01*
X6140Y-501414D01*
X6068Y-501386D01*
X6022Y-501384D01*
X5977Y-501373D01*
X5900Y-501379D01*
X5822Y-501376D01*
X5778Y-501388D01*
X5732Y-501392D01*
X5660Y-501422D01*
X5586Y-501444D01*
X5548Y-501470D01*
X5506Y-501488D01*
X5399Y-501574D01*
X5384Y-501584D01*
X5381Y-501588D01*
X5375Y-501593D01*
X5151Y-501817D01*
X3828Y-502701D01*
X2357Y-503310D01*
X1499Y-503481D01*
X1499Y-490738D01*
X1496Y-490719D01*
X1498Y-490699D01*
X1476Y-490597D01*
X1460Y-490495D01*
X1450Y-490478D01*
X1446Y-490458D01*
X1393Y-490369D01*
X1344Y-490278D01*
X1330Y-490264D01*
X1320Y-490247D01*
X1241Y-490180D01*
X1166Y-490109D01*
X1148Y-490100D01*
X1133Y-490087D01*
X1037Y-490049D01*
X943Y-490005D01*
X923Y-490003D01*
X905Y-489996D01*
X981Y-489983D01*
X998Y-489974D01*
X1018Y-489970D01*
X1107Y-489917D01*
X1198Y-489868D01*
X1212Y-489854D01*
X1229Y-489844D01*
X1296Y-489765D01*
X1368Y-489690D01*
X1376Y-489672D01*
X1389Y-489657D01*
X1428Y-489560D01*
X1471Y-489467D01*
X1473Y-489447D01*
X1481Y-489429D01*
X1499Y-489262D01*
X1499Y-476519D01*
X2357Y-476690D01*
X3828Y-477299D01*
X5151Y-478183D01*
X5375Y-478407D01*
X5412Y-478434D01*
X5443Y-478468D01*
X5511Y-478505D01*
X5574Y-478550D01*
X5618Y-478564D01*
X5659Y-478586D01*
X5735Y-478600D01*
X5810Y-478623D01*
X5855Y-478622D01*
X5901Y-478630D01*
X5978Y-478618D01*
X6055Y-478616D01*
X6099Y-478601D01*
X6144Y-478594D01*
X6213Y-478559D01*
X6286Y-478532D01*
X6322Y-478503D01*
X6363Y-478483D01*
X6418Y-478427D01*
X6479Y-478378D01*
X6503Y-478340D01*
X6536Y-478307D01*
X6602Y-478187D01*
X6612Y-478171D01*
X6613Y-478167D01*
X6616Y-478160D01*
X8644Y-473264D01*
X14204Y-467704D01*
X21469Y-464695D01*
X29331Y-464695D01*
X36596Y-467704D01*
X42156Y-473264D01*
X45165Y-480529D01*
X45165Y-485741D01*
X45179Y-485831D01*
X45187Y-485922D01*
X45199Y-485951D01*
X45204Y-485983D01*
X45247Y-486064D01*
X45283Y-486148D01*
X45309Y-486180D01*
X45320Y-486201D01*
X45343Y-486223D01*
X45388Y-486279D01*
X152162Y-593053D01*
X152178Y-593064D01*
X152190Y-593080D01*
X152278Y-593136D01*
X152361Y-593196D01*
X152380Y-593202D01*
X152397Y-593213D01*
X152498Y-593238D01*
X152597Y-593269D01*
X152616Y-593268D01*
X152636Y-593273D01*
X152739Y-593265D01*
X152842Y-593262D01*
X152861Y-593255D01*
X152881Y-593254D01*
X152976Y-593213D01*
X153073Y-593178D01*
X153089Y-593165D01*
X153107Y-593158D01*
X153238Y-593053D01*
X273012Y-473279D01*
X273065Y-473205D01*
X273125Y-473135D01*
X273137Y-473105D01*
X273156Y-473079D01*
X273183Y-472992D01*
X273217Y-472907D01*
X273221Y-472866D01*
X273228Y-472844D01*
X273227Y-472812D01*
X273235Y-472740D01*
X273235Y-441914D01*
X273221Y-441824D01*
X273213Y-441733D01*
X273201Y-441704D01*
X273196Y-441672D01*
X273153Y-441591D01*
X273117Y-441507D01*
X273091Y-441475D01*
X273080Y-441454D01*
X273057Y-441432D01*
X273012Y-441376D01*
X268246Y-436610D01*
X268153Y-436543D01*
X268061Y-436474D01*
X268051Y-436470D01*
X268046Y-436466D01*
X268025Y-436460D01*
X267905Y-436413D01*
X260854Y-434524D01*
X256650Y-431298D01*
X256624Y-431284D01*
X256621Y-431281D01*
X256612Y-431277D01*
X256610Y-431276D01*
X256574Y-431246D01*
X256502Y-431218D01*
X256433Y-431181D01*
X256388Y-431174D01*
X256345Y-431157D01*
X256268Y-431153D01*
X256191Y-431140D01*
X256145Y-431147D01*
X256100Y-431145D01*
X256025Y-431167D01*
X255948Y-431179D01*
X255907Y-431200D01*
X255863Y-431213D01*
X255799Y-431257D01*
X255730Y-431293D01*
X255698Y-431326D01*
X255660Y-431352D01*
X255613Y-431414D01*
X255559Y-431470D01*
X255540Y-431512D01*
X255512Y-431548D01*
X255463Y-431676D01*
X255455Y-431693D01*
X255454Y-431698D01*
X255451Y-431705D01*
X255369Y-432010D01*
X254665Y-433438D01*
X253696Y-434700D01*
X253039Y-435277D01*
X246667Y-424242D01*
X246655Y-424226D01*
X246647Y-424208D01*
X246577Y-424131D01*
X246512Y-424051D01*
X246495Y-424041D01*
X246481Y-424026D01*
X246391Y-423976D01*
X246303Y-423921D01*
X246284Y-423916D01*
X246267Y-423906D01*
X246165Y-423887D01*
X246064Y-423863D01*
X246044Y-423865D01*
X246025Y-423861D01*
X245922Y-423876D01*
X245819Y-423885D01*
X245801Y-423893D01*
X245782Y-423896D01*
X245841Y-423847D01*
X245852Y-423830D01*
X245866Y-423817D01*
X245917Y-423727D01*
X245972Y-423639D01*
X245976Y-423619D01*
X245986Y-423602D01*
X246005Y-423501D01*
X246029Y-423400D01*
X246027Y-423380D01*
X246031Y-423360D01*
X246017Y-423258D01*
X246007Y-423155D01*
X245999Y-423136D01*
X245997Y-423117D01*
X245929Y-422963D01*
X239558Y-411928D01*
X240386Y-411647D01*
X241964Y-411439D01*
X243553Y-411543D01*
X243858Y-411625D01*
X243904Y-411629D01*
X243948Y-411643D01*
X244025Y-411641D01*
X244103Y-411649D01*
X244148Y-411639D01*
X244194Y-411638D01*
X244267Y-411612D01*
X244343Y-411594D01*
X244382Y-411570D01*
X244425Y-411555D01*
X244486Y-411507D01*
X244552Y-411466D01*
X244582Y-411431D01*
X244618Y-411402D01*
X244660Y-411337D01*
X244710Y-411277D01*
X244727Y-411234D01*
X244752Y-411196D01*
X244771Y-411121D01*
X244800Y-411048D01*
X244802Y-411002D01*
X244813Y-410958D01*
X244811Y-410821D01*
X244811Y-410802D01*
X244810Y-410798D01*
X244810Y-410790D01*
X244118Y-405536D01*
X246153Y-397941D01*
X250940Y-391703D01*
X257749Y-387772D01*
X265545Y-386745D01*
X273140Y-388780D01*
X279378Y-393567D01*
X288558Y-409468D01*
X288568Y-409480D01*
X288574Y-409494D01*
X288631Y-409564D01*
X288643Y-409585D01*
X288656Y-409596D01*
X288679Y-409625D01*
X304212Y-425158D01*
X306765Y-431320D01*
X306765Y-483335D01*
X304212Y-489496D01*
X299389Y-494320D01*
X164320Y-629389D01*
X164319Y-629389D01*
X146882Y-646827D01*
X146857Y-646861D01*
X146826Y-646889D01*
X146786Y-646961D01*
X146738Y-647027D01*
X146726Y-647067D01*
X146705Y-647104D01*
X146690Y-647184D01*
X146666Y-647262D01*
X146667Y-647304D01*
X146659Y-647345D01*
X146670Y-647426D01*
X146672Y-647508D01*
X146687Y-647547D01*
X146692Y-647589D01*
X146729Y-647662D01*
X146757Y-647739D01*
X146783Y-647772D01*
X146802Y-647809D01*
X146859Y-647867D01*
X146910Y-647931D01*
X146946Y-647954D01*
X146975Y-647983D01*
X147049Y-648020D01*
X147117Y-648064D01*
X147158Y-648074D01*
X147196Y-648093D01*
X147277Y-648104D01*
X147356Y-648124D01*
X147398Y-648121D01*
X147439Y-648126D01*
X147593Y-648105D01*
G37*
%LPC*%
G36*
X443505Y-367710D02*
X443505Y-367710D01*
X437098Y-361839D01*
X433425Y-353963D01*
X433046Y-345281D01*
X436018Y-337114D01*
X441915Y-330679D01*
X441964Y-330603D01*
X442021Y-330531D01*
X442032Y-330501D01*
X442049Y-330474D01*
X442072Y-330386D01*
X442103Y-330299D01*
X442105Y-330258D01*
X442111Y-330236D01*
X442109Y-330204D01*
X442114Y-330132D01*
X441733Y-321412D01*
X444705Y-313246D01*
X450602Y-306811D01*
X450630Y-306768D01*
X450644Y-306753D01*
X450654Y-306732D01*
X450708Y-306663D01*
X450719Y-306633D01*
X450737Y-306605D01*
X450760Y-306517D01*
X450790Y-306431D01*
X450793Y-306390D01*
X450799Y-306367D01*
X450796Y-306335D01*
X450801Y-306264D01*
X450420Y-297544D01*
X453393Y-289378D01*
X459289Y-282943D01*
X459339Y-282867D01*
X459395Y-282795D01*
X459406Y-282764D01*
X459424Y-282737D01*
X459447Y-282649D01*
X459477Y-282563D01*
X459480Y-282522D01*
X459486Y-282499D01*
X459484Y-282467D01*
X459489Y-282396D01*
X459108Y-273676D01*
X462080Y-265510D01*
X467977Y-259075D01*
X468026Y-258999D01*
X468083Y-258927D01*
X468094Y-258896D01*
X468111Y-258869D01*
X468134Y-258781D01*
X468165Y-258695D01*
X468167Y-258654D01*
X468173Y-258631D01*
X468171Y-258599D01*
X468176Y-258527D01*
X467795Y-249808D01*
X470767Y-241642D01*
X476664Y-235207D01*
X476714Y-235131D01*
X476770Y-235059D01*
X476781Y-235028D01*
X476799Y-235001D01*
X476822Y-234913D01*
X476852Y-234827D01*
X476855Y-234785D01*
X476861Y-234763D01*
X476858Y-234731D01*
X476863Y-234659D01*
X476482Y-225940D01*
X479455Y-217773D01*
X485351Y-211339D01*
X485401Y-211262D01*
X485457Y-211190D01*
X485468Y-211160D01*
X485486Y-211133D01*
X485509Y-211045D01*
X485539Y-210958D01*
X485542Y-210917D01*
X485548Y-210895D01*
X485546Y-210863D01*
X485550Y-210791D01*
X485170Y-202071D01*
X488142Y-193905D01*
X494038Y-187470D01*
X494088Y-187394D01*
X494145Y-187322D01*
X494155Y-187292D01*
X494173Y-187265D01*
X494196Y-187176D01*
X494227Y-187090D01*
X494229Y-187049D01*
X494235Y-187027D01*
X494233Y-186995D01*
X494238Y-186923D01*
X493857Y-178203D01*
X496829Y-170037D01*
X502726Y-163602D01*
X502776Y-163526D01*
X502832Y-163454D01*
X502843Y-163423D01*
X502860Y-163396D01*
X502883Y-163308D01*
X502914Y-163222D01*
X502917Y-163181D01*
X502922Y-163158D01*
X502920Y-163126D01*
X502925Y-163055D01*
X502544Y-154335D01*
X505517Y-146169D01*
X511413Y-139734D01*
X511463Y-139658D01*
X511519Y-139586D01*
X511530Y-139555D01*
X511548Y-139528D01*
X511571Y-139440D01*
X511601Y-139354D01*
X511604Y-139313D01*
X511610Y-139290D01*
X511608Y-139258D01*
X511612Y-139186D01*
X511232Y-130467D01*
X514204Y-122301D01*
X520100Y-115866D01*
X520150Y-115790D01*
X520207Y-115718D01*
X520217Y-115687D01*
X520235Y-115660D01*
X520258Y-115572D01*
X520288Y-115486D01*
X520291Y-115444D01*
X520297Y-115422D01*
X520295Y-115390D01*
X520300Y-115318D01*
X519919Y-106599D01*
X522891Y-98432D01*
X528788Y-91998D01*
X528838Y-91921D01*
X528894Y-91849D01*
X528905Y-91819D01*
X528922Y-91792D01*
X528945Y-91704D01*
X528976Y-91617D01*
X528979Y-91576D01*
X528984Y-91554D01*
X528982Y-91522D01*
X528987Y-91450D01*
X528606Y-82731D01*
X531579Y-74564D01*
X537450Y-68157D01*
X545326Y-64484D01*
X554008Y-64105D01*
X576495Y-72290D01*
X582902Y-78161D01*
X586575Y-86037D01*
X586954Y-94719D01*
X583982Y-102886D01*
X578085Y-109320D01*
X578035Y-109397D01*
X577979Y-109469D01*
X577968Y-109499D01*
X577951Y-109526D01*
X577928Y-109614D01*
X577897Y-109701D01*
X577895Y-109742D01*
X577889Y-109764D01*
X577891Y-109796D01*
X577886Y-109868D01*
X578267Y-118588D01*
X575294Y-126754D01*
X569398Y-133189D01*
X569348Y-133265D01*
X569292Y-133337D01*
X569281Y-133367D01*
X569263Y-133394D01*
X569240Y-133483D01*
X569210Y-133569D01*
X569207Y-133610D01*
X569201Y-133632D01*
X569204Y-133664D01*
X569199Y-133736D01*
X569579Y-142456D01*
X566607Y-150622D01*
X560711Y-157057D01*
X560661Y-157133D01*
X560605Y-157205D01*
X560594Y-157236D01*
X560576Y-157263D01*
X560553Y-157351D01*
X560523Y-157437D01*
X560520Y-157478D01*
X560514Y-157501D01*
X560516Y-157533D01*
X560511Y-157604D01*
X560892Y-166324D01*
X557920Y-174490D01*
X552023Y-180925D01*
X551974Y-181001D01*
X551917Y-181073D01*
X551906Y-181104D01*
X551889Y-181131D01*
X551866Y-181219D01*
X551835Y-181305D01*
X551833Y-181346D01*
X551827Y-181369D01*
X551829Y-181401D01*
X551824Y-181473D01*
X552205Y-190192D01*
X549233Y-198358D01*
X543336Y-204793D01*
X543286Y-204869D01*
X543230Y-204941D01*
X543219Y-204972D01*
X543201Y-204999D01*
X543178Y-205087D01*
X543148Y-205173D01*
X543145Y-205215D01*
X543139Y-205237D01*
X543142Y-205269D01*
X543137Y-205341D01*
X543518Y-214060D01*
X540545Y-222227D01*
X534649Y-228661D01*
X534599Y-228738D01*
X534543Y-228810D01*
X534532Y-228840D01*
X534514Y-228867D01*
X534491Y-228955D01*
X534461Y-229042D01*
X534458Y-229083D01*
X534452Y-229105D01*
X534454Y-229137D01*
X534450Y-229209D01*
X534830Y-237929D01*
X531858Y-246095D01*
X525962Y-252530D01*
X525932Y-252575D01*
X525899Y-252610D01*
X525884Y-252641D01*
X525855Y-252678D01*
X525845Y-252708D01*
X525827Y-252735D01*
X525809Y-252802D01*
X525795Y-252833D01*
X525793Y-252855D01*
X525773Y-252910D01*
X525771Y-252951D01*
X525765Y-252973D01*
X525767Y-253005D01*
X525762Y-253077D01*
X526143Y-261797D01*
X523171Y-269963D01*
X517274Y-276398D01*
X517224Y-276474D01*
X517168Y-276546D01*
X517157Y-276577D01*
X517140Y-276604D01*
X517117Y-276692D01*
X517086Y-276778D01*
X517083Y-276819D01*
X517077Y-276842D01*
X517080Y-276874D01*
X517075Y-276945D01*
X517456Y-285665D01*
X514483Y-293831D01*
X508587Y-300266D01*
X508537Y-300342D01*
X508481Y-300414D01*
X508470Y-300445D01*
X508452Y-300472D01*
X508429Y-300560D01*
X508399Y-300646D01*
X508396Y-300687D01*
X508390Y-300710D01*
X508392Y-300742D01*
X508388Y-300814D01*
X508768Y-309533D01*
X505796Y-317699D01*
X499900Y-324134D01*
X499850Y-324210D01*
X499793Y-324282D01*
X499783Y-324313D01*
X499765Y-324340D01*
X499742Y-324428D01*
X499711Y-324514D01*
X499709Y-324555D01*
X499703Y-324578D01*
X499705Y-324610D01*
X499700Y-324682D01*
X500081Y-333401D01*
X497109Y-341568D01*
X491212Y-348002D01*
X491162Y-348079D01*
X491106Y-348151D01*
X491095Y-348181D01*
X491078Y-348208D01*
X491055Y-348296D01*
X491024Y-348383D01*
X491021Y-348424D01*
X491016Y-348446D01*
X491018Y-348478D01*
X491013Y-348550D01*
X491394Y-357269D01*
X488421Y-365436D01*
X482550Y-371843D01*
X474674Y-375516D01*
X465992Y-375895D01*
X443505Y-367710D01*
G37*
%LPD*%
%LPC*%
G36*
X216860Y-459924D02*
X216860Y-459924D01*
X210622Y-455137D01*
X201150Y-438732D01*
X200124Y-430936D01*
X202159Y-423341D01*
X206946Y-417103D01*
X213755Y-413172D01*
X221551Y-412145D01*
X229146Y-414180D01*
X233350Y-417406D01*
X233390Y-417428D01*
X233426Y-417458D01*
X233498Y-417486D01*
X233567Y-417523D01*
X233612Y-417530D01*
X233655Y-417547D01*
X233732Y-417551D01*
X233809Y-417564D01*
X233855Y-417557D01*
X233900Y-417559D01*
X233975Y-417537D01*
X234052Y-417525D01*
X234093Y-417504D01*
X234137Y-417492D01*
X234201Y-417447D01*
X234270Y-417411D01*
X234302Y-417378D01*
X234340Y-417352D01*
X234387Y-417290D01*
X234441Y-417234D01*
X234460Y-417192D01*
X234488Y-417156D01*
X234537Y-417028D01*
X234545Y-417011D01*
X234546Y-417007D01*
X234549Y-417000D01*
X234631Y-416694D01*
X235335Y-415266D01*
X236304Y-414004D01*
X236961Y-413427D01*
X243333Y-424462D01*
X243345Y-424478D01*
X243353Y-424496D01*
X243423Y-424573D01*
X243488Y-424653D01*
X243505Y-424663D01*
X243519Y-424678D01*
X243609Y-424729D01*
X243697Y-424783D01*
X243716Y-424788D01*
X243733Y-424798D01*
X243835Y-424817D01*
X243936Y-424841D01*
X243956Y-424839D01*
X243975Y-424843D01*
X244078Y-424828D01*
X244181Y-424819D01*
X244199Y-424811D01*
X244218Y-424808D01*
X244159Y-424857D01*
X244148Y-424874D01*
X244134Y-424887D01*
X244083Y-424978D01*
X244028Y-425065D01*
X244024Y-425085D01*
X244014Y-425102D01*
X243995Y-425204D01*
X243971Y-425304D01*
X243973Y-425324D01*
X243969Y-425344D01*
X243983Y-425446D01*
X243993Y-425549D01*
X244001Y-425568D01*
X244003Y-425587D01*
X244071Y-425741D01*
X250442Y-436776D01*
X249614Y-437057D01*
X248036Y-437265D01*
X246447Y-437161D01*
X246142Y-437079D01*
X246096Y-437075D01*
X246052Y-437061D01*
X245975Y-437063D01*
X245897Y-437055D01*
X245852Y-437065D01*
X245806Y-437066D01*
X245733Y-437092D01*
X245657Y-437110D01*
X245618Y-437134D01*
X245575Y-437149D01*
X245514Y-437197D01*
X245448Y-437238D01*
X245418Y-437273D01*
X245382Y-437302D01*
X245340Y-437367D01*
X245290Y-437427D01*
X245273Y-437469D01*
X245248Y-437508D01*
X245229Y-437584D01*
X245200Y-437656D01*
X245198Y-437702D01*
X245187Y-437746D01*
X245189Y-437883D01*
X245189Y-437902D01*
X245190Y-437906D01*
X245190Y-437914D01*
X245882Y-443168D01*
X243847Y-450763D01*
X239060Y-457001D01*
X232251Y-460932D01*
X224455Y-461959D01*
X216860Y-459924D01*
G37*
%LPD*%
%LPC*%
G36*
X257749Y387772D02*
X257749Y387772D01*
X250940Y391703D01*
X246153Y397941D01*
X244118Y405536D01*
X244810Y410790D01*
X244808Y410836D01*
X244816Y410881D01*
X244805Y410958D01*
X244802Y411036D01*
X244786Y411079D01*
X244779Y411124D01*
X244744Y411193D01*
X244716Y411266D01*
X244688Y411302D01*
X244667Y411343D01*
X244611Y411397D01*
X244562Y411458D01*
X244523Y411482D01*
X244490Y411514D01*
X244420Y411548D01*
X244354Y411590D01*
X244310Y411600D01*
X244268Y411620D01*
X244191Y411630D01*
X244115Y411648D01*
X244069Y411644D01*
X244024Y411650D01*
X243889Y411629D01*
X243870Y411628D01*
X243866Y411626D01*
X243858Y411625D01*
X243553Y411543D01*
X241964Y411439D01*
X240386Y411647D01*
X239558Y411928D01*
X245929Y422963D01*
X245936Y422982D01*
X245948Y422998D01*
X245980Y423096D01*
X246016Y423193D01*
X246017Y423213D01*
X246023Y423232D01*
X246022Y423336D01*
X246025Y423439D01*
X246020Y423458D01*
X246019Y423478D01*
X245985Y423575D01*
X245956Y423675D01*
X245944Y423691D01*
X245937Y423710D01*
X245874Y423791D01*
X245814Y423876D01*
X245798Y423888D01*
X245786Y423903D01*
X245858Y423876D01*
X245878Y423875D01*
X245897Y423869D01*
X246000Y423871D01*
X246103Y423867D01*
X246123Y423873D01*
X246142Y423873D01*
X246240Y423907D01*
X246339Y423937D01*
X246356Y423948D01*
X246374Y423955D01*
X246456Y424019D01*
X246541Y424078D01*
X246552Y424094D01*
X246568Y424107D01*
X246667Y424242D01*
X253039Y435277D01*
X253696Y434700D01*
X254665Y433438D01*
X255369Y432010D01*
X255451Y431705D01*
X255470Y431663D01*
X255480Y431618D01*
X255520Y431551D01*
X255552Y431480D01*
X255584Y431447D01*
X255607Y431407D01*
X255667Y431357D01*
X255720Y431300D01*
X255760Y431278D01*
X255795Y431249D01*
X255868Y431220D01*
X255936Y431183D01*
X255981Y431175D01*
X256024Y431158D01*
X256101Y431154D01*
X256178Y431140D01*
X256224Y431147D01*
X256269Y431145D01*
X256344Y431166D01*
X256421Y431177D01*
X256462Y431198D01*
X256506Y431211D01*
X256623Y431282D01*
X256640Y431290D01*
X256644Y431294D01*
X256650Y431298D01*
X260854Y434524D01*
X268449Y436559D01*
X276245Y435532D01*
X283054Y431601D01*
X287841Y425363D01*
X289876Y417768D01*
X288849Y409972D01*
X279378Y393567D01*
X273140Y388780D01*
X265545Y386745D01*
X257749Y387772D01*
G37*
%LPD*%
%LPC*%
G36*
X409972Y-288849D02*
X409972Y-288849D01*
X393567Y-279378D01*
X388780Y-273140D01*
X386745Y-265545D01*
X387772Y-257749D01*
X391703Y-250940D01*
X397941Y-246153D01*
X405536Y-244118D01*
X410790Y-244810D01*
X410836Y-244808D01*
X410881Y-244816D01*
X410958Y-244805D01*
X411036Y-244802D01*
X411079Y-244786D01*
X411124Y-244779D01*
X411193Y-244744D01*
X411266Y-244716D01*
X411302Y-244688D01*
X411343Y-244667D01*
X411397Y-244611D01*
X411458Y-244562D01*
X411482Y-244523D01*
X411514Y-244490D01*
X411548Y-244420D01*
X411590Y-244354D01*
X411600Y-244310D01*
X411620Y-244268D01*
X411630Y-244191D01*
X411648Y-244115D01*
X411644Y-244069D01*
X411650Y-244024D01*
X411629Y-243889D01*
X411628Y-243870D01*
X411626Y-243866D01*
X411625Y-243858D01*
X411543Y-243553D01*
X411439Y-241964D01*
X411647Y-240386D01*
X411928Y-239558D01*
X422963Y-245929D01*
X422982Y-245936D01*
X422998Y-245948D01*
X423096Y-245980D01*
X423193Y-246016D01*
X423213Y-246017D01*
X423232Y-246023D01*
X423335Y-246022D01*
X423439Y-246025D01*
X423458Y-246020D01*
X423478Y-246019D01*
X423575Y-245985D01*
X423675Y-245956D01*
X423691Y-245944D01*
X423710Y-245937D01*
X423791Y-245874D01*
X423876Y-245814D01*
X423888Y-245798D01*
X423903Y-245786D01*
X423876Y-245858D01*
X423875Y-245878D01*
X423869Y-245897D01*
X423871Y-246000D01*
X423867Y-246103D01*
X423873Y-246123D01*
X423873Y-246142D01*
X423907Y-246240D01*
X423937Y-246339D01*
X423948Y-246356D01*
X423955Y-246374D01*
X424019Y-246456D01*
X424078Y-246541D01*
X424094Y-246552D01*
X424107Y-246568D01*
X424242Y-246667D01*
X435277Y-253039D01*
X434700Y-253696D01*
X433438Y-254665D01*
X432010Y-255369D01*
X431704Y-255451D01*
X431663Y-255470D01*
X431618Y-255480D01*
X431551Y-255520D01*
X431480Y-255552D01*
X431447Y-255584D01*
X431407Y-255607D01*
X431357Y-255667D01*
X431300Y-255720D01*
X431278Y-255760D01*
X431249Y-255795D01*
X431220Y-255868D01*
X431183Y-255936D01*
X431175Y-255981D01*
X431158Y-256024D01*
X431154Y-256101D01*
X431140Y-256178D01*
X431147Y-256224D01*
X431145Y-256270D01*
X431166Y-256345D01*
X431177Y-256421D01*
X431198Y-256462D01*
X431211Y-256506D01*
X431282Y-256624D01*
X431290Y-256640D01*
X431294Y-256644D01*
X431298Y-256650D01*
X434524Y-260854D01*
X436559Y-268449D01*
X435532Y-276245D01*
X431601Y-283054D01*
X425363Y-287841D01*
X417768Y-289876D01*
X409972Y-288849D01*
G37*
%LPD*%
%LPC*%
G36*
X-29331Y-515305D02*
X-29331Y-515305D01*
X-36596Y-512296D01*
X-42156Y-506736D01*
X-45165Y-499471D01*
X-45165Y-480529D01*
X-42156Y-473264D01*
X-36596Y-467704D01*
X-29331Y-464695D01*
X-21469Y-464695D01*
X-14204Y-467704D01*
X-8644Y-473264D01*
X-6616Y-478160D01*
X-6592Y-478199D01*
X-6576Y-478242D01*
X-6528Y-478303D01*
X-6487Y-478369D01*
X-6451Y-478398D01*
X-6423Y-478434D01*
X-6357Y-478476D01*
X-6297Y-478526D01*
X-6254Y-478542D01*
X-6216Y-478567D01*
X-6140Y-478586D01*
X-6068Y-478614D01*
X-6022Y-478616D01*
X-5977Y-478627D01*
X-5900Y-478621D01*
X-5822Y-478624D01*
X-5778Y-478612D01*
X-5732Y-478608D01*
X-5660Y-478578D01*
X-5586Y-478556D01*
X-5548Y-478530D01*
X-5506Y-478512D01*
X-5399Y-478426D01*
X-5384Y-478416D01*
X-5381Y-478412D01*
X-5375Y-478407D01*
X-5151Y-478183D01*
X-3828Y-477299D01*
X-2357Y-476690D01*
X-1499Y-476519D01*
X-1499Y-489262D01*
X-1496Y-489281D01*
X-1498Y-489301D01*
X-1476Y-489403D01*
X-1460Y-489505D01*
X-1450Y-489522D01*
X-1446Y-489542D01*
X-1393Y-489631D01*
X-1344Y-489722D01*
X-1330Y-489736D01*
X-1320Y-489753D01*
X-1241Y-489820D01*
X-1166Y-489891D01*
X-1148Y-489900D01*
X-1133Y-489913D01*
X-1037Y-489951D01*
X-943Y-489995D01*
X-923Y-489997D01*
X-905Y-490004D01*
X-981Y-490017D01*
X-998Y-490026D01*
X-1018Y-490030D01*
X-1107Y-490083D01*
X-1198Y-490132D01*
X-1212Y-490146D01*
X-1229Y-490156D01*
X-1296Y-490235D01*
X-1368Y-490310D01*
X-1376Y-490328D01*
X-1389Y-490343D01*
X-1428Y-490440D01*
X-1471Y-490533D01*
X-1473Y-490553D01*
X-1481Y-490571D01*
X-1499Y-490738D01*
X-1499Y-503481D01*
X-2357Y-503310D01*
X-3828Y-502701D01*
X-5151Y-501817D01*
X-5375Y-501593D01*
X-5412Y-501566D01*
X-5443Y-501532D01*
X-5511Y-501495D01*
X-5574Y-501450D01*
X-5618Y-501436D01*
X-5659Y-501414D01*
X-5735Y-501400D01*
X-5810Y-501377D01*
X-5855Y-501378D01*
X-5901Y-501370D01*
X-5978Y-501382D01*
X-6055Y-501384D01*
X-6099Y-501399D01*
X-6144Y-501406D01*
X-6213Y-501441D01*
X-6286Y-501468D01*
X-6322Y-501497D01*
X-6363Y-501517D01*
X-6418Y-501573D01*
X-6479Y-501622D01*
X-6503Y-501660D01*
X-6536Y-501693D01*
X-6602Y-501813D01*
X-6612Y-501829D01*
X-6613Y-501833D01*
X-6616Y-501840D01*
X-8644Y-506736D01*
X-14204Y-512296D01*
X-21469Y-515305D01*
X-29331Y-515305D01*
G37*
%LPD*%
%LPC*%
G36*
X423341Y202159D02*
X423341Y202159D01*
X417103Y206946D01*
X413172Y213755D01*
X412145Y221551D01*
X414181Y229146D01*
X417406Y233350D01*
X417428Y233391D01*
X417458Y233426D01*
X417486Y233498D01*
X417523Y233567D01*
X417530Y233612D01*
X417547Y233655D01*
X417551Y233732D01*
X417564Y233809D01*
X417557Y233855D01*
X417559Y233901D01*
X417537Y233975D01*
X417525Y234052D01*
X417504Y234093D01*
X417492Y234137D01*
X417447Y234201D01*
X417411Y234270D01*
X417378Y234302D01*
X417352Y234340D01*
X417290Y234387D01*
X417234Y234441D01*
X417192Y234460D01*
X417156Y234488D01*
X417028Y234537D01*
X417012Y234545D01*
X417007Y234546D01*
X417000Y234549D01*
X416694Y234631D01*
X415266Y235335D01*
X414004Y236304D01*
X413427Y236961D01*
X424462Y243333D01*
X424478Y243345D01*
X424496Y243353D01*
X424573Y243423D01*
X424653Y243488D01*
X424663Y243505D01*
X424678Y243519D01*
X424728Y243609D01*
X424783Y243697D01*
X424788Y243716D01*
X424798Y243733D01*
X424817Y243835D01*
X424841Y243936D01*
X424839Y243956D01*
X424843Y243975D01*
X424828Y244078D01*
X424819Y244181D01*
X424811Y244199D01*
X424808Y244218D01*
X424857Y244159D01*
X424874Y244148D01*
X424887Y244134D01*
X424978Y244083D01*
X425065Y244028D01*
X425085Y244024D01*
X425102Y244014D01*
X425204Y243995D01*
X425304Y243971D01*
X425324Y243973D01*
X425344Y243969D01*
X425446Y243983D01*
X425549Y243993D01*
X425568Y244001D01*
X425587Y244003D01*
X425741Y244071D01*
X436776Y250442D01*
X437057Y249614D01*
X437265Y248036D01*
X437161Y246447D01*
X437079Y246142D01*
X437075Y246096D01*
X437061Y246052D01*
X437063Y245974D01*
X437055Y245897D01*
X437065Y245852D01*
X437066Y245806D01*
X437092Y245733D01*
X437110Y245657D01*
X437134Y245618D01*
X437149Y245575D01*
X437197Y245514D01*
X437238Y245448D01*
X437273Y245418D01*
X437302Y245382D01*
X437367Y245340D01*
X437427Y245290D01*
X437470Y245273D01*
X437508Y245248D01*
X437583Y245229D01*
X437656Y245200D01*
X437702Y245198D01*
X437746Y245187D01*
X437883Y245189D01*
X437902Y245189D01*
X437906Y245190D01*
X437914Y245190D01*
X443168Y245882D01*
X450763Y243847D01*
X457001Y239060D01*
X460932Y232251D01*
X461959Y224455D01*
X459923Y216860D01*
X455137Y210622D01*
X438732Y201150D01*
X430936Y200124D01*
X423341Y202159D01*
G37*
%LPD*%
%LPC*%
G36*
X-229146Y414181D02*
X-229146Y414181D01*
X-233350Y417406D01*
X-233391Y417428D01*
X-233426Y417458D01*
X-233498Y417486D01*
X-233567Y417523D01*
X-233612Y417530D01*
X-233655Y417547D01*
X-233732Y417551D01*
X-233809Y417564D01*
X-233855Y417557D01*
X-233901Y417559D01*
X-233975Y417537D01*
X-234052Y417525D01*
X-234093Y417504D01*
X-234137Y417492D01*
X-234201Y417447D01*
X-234270Y417411D01*
X-234302Y417378D01*
X-234340Y417352D01*
X-234387Y417290D01*
X-234441Y417234D01*
X-234460Y417192D01*
X-234488Y417156D01*
X-234537Y417028D01*
X-234545Y417012D01*
X-234546Y417007D01*
X-234549Y417000D01*
X-234631Y416694D01*
X-235335Y415266D01*
X-236304Y414004D01*
X-236961Y413427D01*
X-243333Y424462D01*
X-243345Y424478D01*
X-243353Y424496D01*
X-243423Y424573D01*
X-243488Y424653D01*
X-243505Y424663D01*
X-243519Y424678D01*
X-243609Y424729D01*
X-243697Y424783D01*
X-243716Y424788D01*
X-243733Y424798D01*
X-243835Y424817D01*
X-243936Y424841D01*
X-243956Y424839D01*
X-243975Y424843D01*
X-244078Y424828D01*
X-244181Y424819D01*
X-244199Y424811D01*
X-244218Y424808D01*
X-244159Y424857D01*
X-244148Y424874D01*
X-244134Y424887D01*
X-244083Y424978D01*
X-244028Y425065D01*
X-244024Y425085D01*
X-244014Y425102D01*
X-243995Y425204D01*
X-243971Y425304D01*
X-243973Y425324D01*
X-243969Y425344D01*
X-243983Y425446D01*
X-243993Y425549D01*
X-244001Y425568D01*
X-244003Y425587D01*
X-244071Y425741D01*
X-250442Y436776D01*
X-249614Y437057D01*
X-248036Y437265D01*
X-246447Y437161D01*
X-246142Y437079D01*
X-246096Y437075D01*
X-246052Y437061D01*
X-245974Y437063D01*
X-245897Y437055D01*
X-245852Y437065D01*
X-245806Y437066D01*
X-245733Y437092D01*
X-245657Y437110D01*
X-245618Y437134D01*
X-245575Y437149D01*
X-245514Y437197D01*
X-245448Y437238D01*
X-245418Y437273D01*
X-245382Y437302D01*
X-245340Y437367D01*
X-245290Y437427D01*
X-245273Y437470D01*
X-245248Y437508D01*
X-245229Y437584D01*
X-245200Y437656D01*
X-245198Y437702D01*
X-245187Y437746D01*
X-245189Y437883D01*
X-245189Y437902D01*
X-245190Y437906D01*
X-245190Y437914D01*
X-245882Y443168D01*
X-243847Y450763D01*
X-239060Y457001D01*
X-232251Y460932D01*
X-224455Y461959D01*
X-216860Y459923D01*
X-210622Y455137D01*
X-201150Y438732D01*
X-200124Y430936D01*
X-202159Y423341D01*
X-206946Y417103D01*
X-213755Y413172D01*
X-221551Y412145D01*
X-229146Y414181D01*
G37*
%LPD*%
%LPC*%
G36*
X-422963Y245929D02*
X-422963Y245929D01*
X-422982Y245936D01*
X-422998Y245948D01*
X-423097Y245980D01*
X-423193Y246016D01*
X-423213Y246017D01*
X-423232Y246023D01*
X-423336Y246022D01*
X-423439Y246025D01*
X-423458Y246020D01*
X-423478Y246019D01*
X-423575Y245985D01*
X-423675Y245956D01*
X-423691Y245944D01*
X-423710Y245937D01*
X-423791Y245874D01*
X-423876Y245814D01*
X-423888Y245798D01*
X-423903Y245786D01*
X-423876Y245858D01*
X-423875Y245878D01*
X-423869Y245897D01*
X-423871Y246000D01*
X-423867Y246103D01*
X-423873Y246123D01*
X-423873Y246142D01*
X-423907Y246240D01*
X-423937Y246339D01*
X-423948Y246356D01*
X-423955Y246374D01*
X-424019Y246456D01*
X-424078Y246541D01*
X-424094Y246552D01*
X-424107Y246568D01*
X-424242Y246667D01*
X-435277Y253039D01*
X-434700Y253696D01*
X-433438Y254665D01*
X-432010Y255369D01*
X-431704Y255451D01*
X-431663Y255470D01*
X-431618Y255480D01*
X-431551Y255520D01*
X-431480Y255552D01*
X-431447Y255584D01*
X-431407Y255607D01*
X-431357Y255667D01*
X-431300Y255720D01*
X-431278Y255760D01*
X-431249Y255795D01*
X-431220Y255868D01*
X-431183Y255936D01*
X-431175Y255981D01*
X-431158Y256024D01*
X-431154Y256101D01*
X-431140Y256178D01*
X-431147Y256224D01*
X-431145Y256269D01*
X-431166Y256344D01*
X-431177Y256421D01*
X-431198Y256462D01*
X-431211Y256506D01*
X-431282Y256623D01*
X-431290Y256640D01*
X-431294Y256644D01*
X-431298Y256650D01*
X-434523Y260854D01*
X-436559Y268449D01*
X-435532Y276245D01*
X-431601Y283054D01*
X-425363Y287841D01*
X-417768Y289876D01*
X-409972Y288849D01*
X-393567Y279378D01*
X-388781Y273140D01*
X-386745Y265545D01*
X-387772Y257749D01*
X-391703Y250940D01*
X-397941Y246153D01*
X-405536Y244118D01*
X-410790Y244810D01*
X-410836Y244809D01*
X-410881Y244816D01*
X-410958Y244805D01*
X-411036Y244802D01*
X-411079Y244786D01*
X-411124Y244779D01*
X-411194Y244744D01*
X-411266Y244717D01*
X-411302Y244688D01*
X-411343Y244667D01*
X-411397Y244611D01*
X-411458Y244562D01*
X-411482Y244523D01*
X-411514Y244490D01*
X-411548Y244420D01*
X-411590Y244354D01*
X-411600Y244310D01*
X-411620Y244268D01*
X-411630Y244191D01*
X-411648Y244115D01*
X-411644Y244070D01*
X-411650Y244024D01*
X-411629Y243889D01*
X-411628Y243870D01*
X-411626Y243866D01*
X-411625Y243858D01*
X-411543Y243553D01*
X-411439Y241964D01*
X-411647Y240386D01*
X-411928Y239558D01*
X-422963Y245929D01*
G37*
%LPD*%
%LPC*%
G36*
X-102477Y-601523D02*
X-102477Y-601523D01*
X-92668Y-601523D01*
X-92851Y-602677D01*
X-93407Y-604388D01*
X-94224Y-605991D01*
X-95281Y-607447D01*
X-96553Y-608719D01*
X-98009Y-609776D01*
X-99612Y-610593D01*
X-101323Y-611149D01*
X-102477Y-611332D01*
X-102477Y-601523D01*
G37*
%LPD*%
%LPC*%
G36*
X-102477Y-598477D02*
X-102477Y-598477D01*
X-102477Y-588668D01*
X-101323Y-588851D01*
X-99612Y-589407D01*
X-98009Y-590224D01*
X-96553Y-591281D01*
X-95281Y-592553D01*
X-94224Y-594009D01*
X-93407Y-595612D01*
X-92851Y-597323D01*
X-92668Y-598477D01*
X-102477Y-598477D01*
G37*
%LPD*%
%LPC*%
G36*
X-105777Y-449145D02*
X-105777Y-449145D01*
X-105777Y-441523D01*
X-98155Y-441523D01*
X-98155Y-443788D01*
X-103512Y-449145D01*
X-105777Y-449145D01*
G37*
%LPD*%
%LPC*%
G36*
X-105777Y-369145D02*
X-105777Y-369145D01*
X-105777Y-361523D01*
X-98155Y-361523D01*
X-98155Y-363788D01*
X-103512Y-369145D01*
X-105777Y-369145D01*
G37*
%LPD*%
%LPC*%
G36*
X-105777Y-438477D02*
X-105777Y-438477D01*
X-105777Y-430855D01*
X-103512Y-430855D01*
X-98155Y-436212D01*
X-98155Y-438477D01*
X-105777Y-438477D01*
G37*
%LPD*%
%LPC*%
G36*
X-105777Y-358477D02*
X-105777Y-358477D01*
X-105777Y-350855D01*
X-103512Y-350855D01*
X-98155Y-356212D01*
X-98155Y-358477D01*
X-105777Y-358477D01*
G37*
%LPD*%
D10*
X-132700Y-440000D03*
X-107300Y-440000D03*
X-132700Y-360000D03*
X-107300Y-360000D03*
D11*
X550620Y-86119D02*
X564941Y-91331D01*
X556253Y-115199D02*
X541932Y-109987D01*
X533245Y-133855D02*
X547566Y-139068D01*
X538879Y-162936D02*
X524558Y-157723D01*
X515871Y-181592D02*
X530191Y-186804D01*
X521504Y-210672D02*
X507183Y-205460D01*
X498496Y-229328D02*
X512817Y-234540D01*
X504129Y-258408D02*
X489809Y-253196D01*
X481121Y-277064D02*
X495442Y-282277D01*
X486755Y-306145D02*
X472434Y-300932D01*
X463747Y-324801D02*
X478068Y-330013D01*
X469380Y-353881D02*
X455059Y-348669D01*
D12*
X484460Y25400D02*
X495540Y25400D01*
X495540Y0D02*
X484460Y0D01*
X484460Y-25400D02*
X495540Y-25400D01*
X406854Y264227D02*
X416450Y269767D01*
X429150Y247770D02*
X419554Y242230D01*
X432254Y220233D02*
X441850Y225773D01*
X220233Y432254D02*
X225773Y441850D01*
X247770Y429150D02*
X242230Y419554D01*
X264227Y406854D02*
X269767Y416450D01*
X-25400Y484460D02*
X-25400Y495540D01*
X0Y495540D02*
X0Y484460D01*
X25400Y484460D02*
X25400Y495540D01*
X-264227Y406854D02*
X-269767Y416450D01*
X-247770Y429150D02*
X-242230Y419554D01*
X-220233Y432254D02*
X-225773Y441850D01*
X-432254Y220233D02*
X-441850Y225773D01*
X-429150Y247770D02*
X-419554Y242230D01*
X-406854Y264227D02*
X-416450Y269767D01*
X-484460Y-25400D02*
X-495540Y-25400D01*
X-495540Y0D02*
X-484460Y0D01*
X-484460Y25400D02*
X-495540Y25400D01*
X-406854Y-264227D02*
X-416450Y-269767D01*
X-429150Y-247770D02*
X-419554Y-242230D01*
X-432254Y-220233D02*
X-441850Y-225773D01*
X-220233Y-432254D02*
X-225773Y-441850D01*
X-247770Y-429150D02*
X-242230Y-419554D01*
X-264227Y-406854D02*
X-269767Y-416450D01*
X25400Y-484460D02*
X25400Y-495540D01*
X0Y-495540D02*
X0Y-484460D01*
X-25400Y-484460D02*
X-25400Y-495540D01*
X264227Y-406854D02*
X269767Y-416450D01*
X247770Y-429150D02*
X242230Y-419554D01*
X220233Y-432254D02*
X225773Y-441850D01*
X432254Y-220233D02*
X441850Y-225773D01*
X429150Y-247770D02*
X419554Y-242230D01*
X406854Y-264227D02*
X416450Y-269767D01*
D13*
X-104000Y-600000D03*
X-136000Y-600000D03*
D14*
X437052Y-223003D02*
X437052Y-122948D01*
X510000Y-50000D01*
X520000Y250000D02*
X455000Y315000D01*
X275000Y495000D01*
X260000Y510000D01*
X-30000Y510000D01*
X-250000Y510000D01*
X-310000Y450000D01*
X-490000Y270000D01*
X-510000Y250000D01*
X520000Y250000D02*
X520000Y30000D01*
X-510000Y-30000D02*
X-510000Y250000D01*
X-510000Y-30000D02*
X-510000Y-210000D01*
X-240000Y-480000D02*
X-180000Y-480000D01*
X-430000Y-290000D02*
X-510000Y-210000D01*
X-430000Y-290000D02*
X-240000Y-480000D01*
X-223003Y-437052D02*
X-180000Y-437052D01*
X-411652Y-266997D02*
X-430000Y-285345D01*
X-430000Y-290000D01*
X-494600Y-30000D02*
X-490000Y-25400D01*
X-494600Y-30000D02*
X-510000Y-30000D01*
X-437052Y223003D02*
X-484049Y270000D01*
X-490000Y270000D01*
X-305345Y450000D02*
X-266997Y411652D01*
X-305345Y450000D02*
X-310000Y450000D01*
X-25400Y490000D02*
X-25400Y505400D01*
X-30000Y510000D01*
X223003Y437052D02*
X275000Y489049D01*
X275000Y495000D01*
X455000Y310345D02*
X411652Y266997D01*
X455000Y310345D02*
X455000Y315000D01*
X490000Y25400D02*
X510000Y25400D01*
X515400Y25400D01*
X520000Y30000D01*
X290000Y-480000D02*
X150000Y-620000D01*
X290000Y-434655D02*
X266997Y-411652D01*
X290000Y-434655D02*
X290000Y-480000D01*
X150000Y-614600D02*
X25400Y-490000D01*
X150000Y-614600D02*
X150000Y-620000D01*
X-132700Y-360000D02*
X-160000Y-360000D01*
X-160000Y-440000D01*
X-160000Y-600000D01*
X-180000Y-480000D02*
X-180000Y-437052D01*
X-162948Y-437052D01*
X-160000Y-440000D01*
X-132700Y-440000D01*
X-160000Y-600000D02*
X-160000Y-640000D01*
X-160000Y-600000D02*
X-136000Y-600000D01*
X510000Y-50000D02*
X510000Y25400D01*
X-20000Y-640000D02*
X0Y-660000D01*
X74730Y-660000D01*
X113382Y-656618D01*
X-20000Y-640000D02*
X-160000Y-640000D01*
X113382Y-656618D02*
X150000Y-620000D01*
M02*
