G04 EAGLE Gerber RS-274X export*
G75*
%MOMM*%
%FSLAX34Y34*%
%LPD*%
%INBoard Outline*%
%IPPOS*%
%AMOC8*
5,1,8,0,0,1.08239X$1,22.5*%
G01*
%ADD10C,0.152400*%
%ADD11C,0.254000*%


D10*
X533000Y0D02*
X533014Y1153D01*
X533057Y2306D01*
X533127Y3458D01*
X533226Y4607D01*
X533353Y5753D01*
X533509Y6896D01*
X533692Y8035D01*
X533903Y9169D01*
X534142Y10298D01*
X534409Y11420D01*
X534703Y12535D01*
X535024Y13643D01*
X535372Y14743D01*
X535747Y15834D01*
X536149Y16915D01*
X536578Y17986D01*
X537032Y19046D01*
X537513Y20095D01*
X538018Y21132D01*
X538550Y22156D01*
X539106Y23166D01*
X539687Y24163D01*
X540292Y25145D01*
X540921Y26112D01*
X541574Y27063D01*
X542249Y27998D01*
X542948Y28916D01*
X543669Y29816D01*
X544411Y30699D01*
X545175Y31563D01*
X545960Y32408D01*
X546766Y33234D01*
X547592Y34040D01*
X548437Y34825D01*
X549301Y35589D01*
X550184Y36331D01*
X551084Y37052D01*
X552002Y37751D01*
X552937Y38426D01*
X553888Y39079D01*
X554855Y39708D01*
X555837Y40313D01*
X556834Y40894D01*
X557844Y41450D01*
X558868Y41982D01*
X559905Y42487D01*
X560954Y42968D01*
X562014Y43422D01*
X563085Y43851D01*
X564166Y44253D01*
X565257Y44628D01*
X566357Y44976D01*
X567465Y45297D01*
X568580Y45591D01*
X569702Y45858D01*
X570831Y46097D01*
X571965Y46308D01*
X573104Y46491D01*
X574247Y46647D01*
X575393Y46774D01*
X576542Y46873D01*
X577694Y46943D01*
X578847Y46986D01*
X580000Y47000D01*
X581153Y46986D01*
X582306Y46943D01*
X583458Y46873D01*
X584607Y46774D01*
X585753Y46647D01*
X586896Y46491D01*
X588035Y46308D01*
X589169Y46097D01*
X590298Y45858D01*
X591420Y45591D01*
X592535Y45297D01*
X593643Y44976D01*
X594743Y44628D01*
X595834Y44253D01*
X596915Y43851D01*
X597986Y43422D01*
X599046Y42968D01*
X600095Y42487D01*
X601132Y41982D01*
X602156Y41450D01*
X603166Y40894D01*
X604163Y40313D01*
X605145Y39708D01*
X606112Y39079D01*
X607063Y38426D01*
X607998Y37751D01*
X608916Y37052D01*
X609816Y36331D01*
X610699Y35589D01*
X611563Y34825D01*
X612408Y34040D01*
X613234Y33234D01*
X614040Y32408D01*
X614825Y31563D01*
X615589Y30699D01*
X616331Y29816D01*
X617052Y28916D01*
X617751Y27998D01*
X618426Y27063D01*
X619079Y26112D01*
X619708Y25145D01*
X620313Y24163D01*
X620894Y23166D01*
X621450Y22156D01*
X621982Y21132D01*
X622487Y20095D01*
X622968Y19046D01*
X623422Y17986D01*
X623851Y16915D01*
X624253Y15834D01*
X624628Y14743D01*
X624976Y13643D01*
X625297Y12535D01*
X625591Y11420D01*
X625858Y10298D01*
X626097Y9169D01*
X626308Y8035D01*
X626491Y6896D01*
X626647Y5753D01*
X626774Y4607D01*
X626873Y3458D01*
X626943Y2306D01*
X626986Y1153D01*
X627000Y0D01*
X626986Y-1153D01*
X626943Y-2306D01*
X626873Y-3458D01*
X626774Y-4607D01*
X626647Y-5753D01*
X626491Y-6896D01*
X626308Y-8035D01*
X626097Y-9169D01*
X625858Y-10298D01*
X625591Y-11420D01*
X625297Y-12535D01*
X624976Y-13643D01*
X624628Y-14743D01*
X624253Y-15834D01*
X623851Y-16915D01*
X623422Y-17986D01*
X622968Y-19046D01*
X622487Y-20095D01*
X621982Y-21132D01*
X621450Y-22156D01*
X620894Y-23166D01*
X620313Y-24163D01*
X619708Y-25145D01*
X619079Y-26112D01*
X618426Y-27063D01*
X617751Y-27998D01*
X617052Y-28916D01*
X616331Y-29816D01*
X615589Y-30699D01*
X614825Y-31563D01*
X614040Y-32408D01*
X613234Y-33234D01*
X612408Y-34040D01*
X611563Y-34825D01*
X610699Y-35589D01*
X609816Y-36331D01*
X608916Y-37052D01*
X607998Y-37751D01*
X607063Y-38426D01*
X606112Y-39079D01*
X605145Y-39708D01*
X604163Y-40313D01*
X603166Y-40894D01*
X602156Y-41450D01*
X601132Y-41982D01*
X600095Y-42487D01*
X599046Y-42968D01*
X597986Y-43422D01*
X596915Y-43851D01*
X595834Y-44253D01*
X594743Y-44628D01*
X593643Y-44976D01*
X592535Y-45297D01*
X591420Y-45591D01*
X590298Y-45858D01*
X589169Y-46097D01*
X588035Y-46308D01*
X586896Y-46491D01*
X585753Y-46647D01*
X584607Y-46774D01*
X583458Y-46873D01*
X582306Y-46943D01*
X581153Y-46986D01*
X580000Y-47000D01*
X578847Y-46986D01*
X577694Y-46943D01*
X576542Y-46873D01*
X575393Y-46774D01*
X574247Y-46647D01*
X573104Y-46491D01*
X571965Y-46308D01*
X570831Y-46097D01*
X569702Y-45858D01*
X568580Y-45591D01*
X567465Y-45297D01*
X566357Y-44976D01*
X565257Y-44628D01*
X564166Y-44253D01*
X563085Y-43851D01*
X562014Y-43422D01*
X560954Y-42968D01*
X559905Y-42487D01*
X558868Y-41982D01*
X557844Y-41450D01*
X556834Y-40894D01*
X555837Y-40313D01*
X554855Y-39708D01*
X553888Y-39079D01*
X552937Y-38426D01*
X552002Y-37751D01*
X551084Y-37052D01*
X550184Y-36331D01*
X549301Y-35589D01*
X548437Y-34825D01*
X547592Y-34040D01*
X546766Y-33234D01*
X545960Y-32408D01*
X545175Y-31563D01*
X544411Y-30699D01*
X543669Y-29816D01*
X542948Y-28916D01*
X542249Y-27998D01*
X541574Y-27063D01*
X540921Y-26112D01*
X540292Y-25145D01*
X539687Y-24163D01*
X539106Y-23166D01*
X538550Y-22156D01*
X538018Y-21132D01*
X537513Y-20095D01*
X537032Y-19046D01*
X536578Y-17986D01*
X536149Y-16915D01*
X535747Y-15834D01*
X535372Y-14743D01*
X535024Y-13643D01*
X534703Y-12535D01*
X534409Y-11420D01*
X534142Y-10298D01*
X533903Y-9169D01*
X533692Y-8035D01*
X533509Y-6896D01*
X533353Y-5753D01*
X533226Y-4607D01*
X533127Y-3458D01*
X533057Y-2306D01*
X533014Y-1153D01*
X533000Y0D01*
X-47000Y580000D02*
X-46986Y581153D01*
X-46943Y582306D01*
X-46873Y583458D01*
X-46774Y584607D01*
X-46647Y585753D01*
X-46491Y586896D01*
X-46308Y588035D01*
X-46097Y589169D01*
X-45858Y590298D01*
X-45591Y591420D01*
X-45297Y592535D01*
X-44976Y593643D01*
X-44628Y594743D01*
X-44253Y595834D01*
X-43851Y596915D01*
X-43422Y597986D01*
X-42968Y599046D01*
X-42487Y600095D01*
X-41982Y601132D01*
X-41450Y602156D01*
X-40894Y603166D01*
X-40313Y604163D01*
X-39708Y605145D01*
X-39079Y606112D01*
X-38426Y607063D01*
X-37751Y607998D01*
X-37052Y608916D01*
X-36331Y609816D01*
X-35589Y610699D01*
X-34825Y611563D01*
X-34040Y612408D01*
X-33234Y613234D01*
X-32408Y614040D01*
X-31563Y614825D01*
X-30699Y615589D01*
X-29816Y616331D01*
X-28916Y617052D01*
X-27998Y617751D01*
X-27063Y618426D01*
X-26112Y619079D01*
X-25145Y619708D01*
X-24163Y620313D01*
X-23166Y620894D01*
X-22156Y621450D01*
X-21132Y621982D01*
X-20095Y622487D01*
X-19046Y622968D01*
X-17986Y623422D01*
X-16915Y623851D01*
X-15834Y624253D01*
X-14743Y624628D01*
X-13643Y624976D01*
X-12535Y625297D01*
X-11420Y625591D01*
X-10298Y625858D01*
X-9169Y626097D01*
X-8035Y626308D01*
X-6896Y626491D01*
X-5753Y626647D01*
X-4607Y626774D01*
X-3458Y626873D01*
X-2306Y626943D01*
X-1153Y626986D01*
X0Y627000D01*
X1153Y626986D01*
X2306Y626943D01*
X3458Y626873D01*
X4607Y626774D01*
X5753Y626647D01*
X6896Y626491D01*
X8035Y626308D01*
X9169Y626097D01*
X10298Y625858D01*
X11420Y625591D01*
X12535Y625297D01*
X13643Y624976D01*
X14743Y624628D01*
X15834Y624253D01*
X16915Y623851D01*
X17986Y623422D01*
X19046Y622968D01*
X20095Y622487D01*
X21132Y621982D01*
X22156Y621450D01*
X23166Y620894D01*
X24163Y620313D01*
X25145Y619708D01*
X26112Y619079D01*
X27063Y618426D01*
X27998Y617751D01*
X28916Y617052D01*
X29816Y616331D01*
X30699Y615589D01*
X31563Y614825D01*
X32408Y614040D01*
X33234Y613234D01*
X34040Y612408D01*
X34825Y611563D01*
X35589Y610699D01*
X36331Y609816D01*
X37052Y608916D01*
X37751Y607998D01*
X38426Y607063D01*
X39079Y606112D01*
X39708Y605145D01*
X40313Y604163D01*
X40894Y603166D01*
X41450Y602156D01*
X41982Y601132D01*
X42487Y600095D01*
X42968Y599046D01*
X43422Y597986D01*
X43851Y596915D01*
X44253Y595834D01*
X44628Y594743D01*
X44976Y593643D01*
X45297Y592535D01*
X45591Y591420D01*
X45858Y590298D01*
X46097Y589169D01*
X46308Y588035D01*
X46491Y586896D01*
X46647Y585753D01*
X46774Y584607D01*
X46873Y583458D01*
X46943Y582306D01*
X46986Y581153D01*
X47000Y580000D01*
X46986Y578847D01*
X46943Y577694D01*
X46873Y576542D01*
X46774Y575393D01*
X46647Y574247D01*
X46491Y573104D01*
X46308Y571965D01*
X46097Y570831D01*
X45858Y569702D01*
X45591Y568580D01*
X45297Y567465D01*
X44976Y566357D01*
X44628Y565257D01*
X44253Y564166D01*
X43851Y563085D01*
X43422Y562014D01*
X42968Y560954D01*
X42487Y559905D01*
X41982Y558868D01*
X41450Y557844D01*
X40894Y556834D01*
X40313Y555837D01*
X39708Y554855D01*
X39079Y553888D01*
X38426Y552937D01*
X37751Y552002D01*
X37052Y551084D01*
X36331Y550184D01*
X35589Y549301D01*
X34825Y548437D01*
X34040Y547592D01*
X33234Y546766D01*
X32408Y545960D01*
X31563Y545175D01*
X30699Y544411D01*
X29816Y543669D01*
X28916Y542948D01*
X27998Y542249D01*
X27063Y541574D01*
X26112Y540921D01*
X25145Y540292D01*
X24163Y539687D01*
X23166Y539106D01*
X22156Y538550D01*
X21132Y538018D01*
X20095Y537513D01*
X19046Y537032D01*
X17986Y536578D01*
X16915Y536149D01*
X15834Y535747D01*
X14743Y535372D01*
X13643Y535024D01*
X12535Y534703D01*
X11420Y534409D01*
X10298Y534142D01*
X9169Y533903D01*
X8035Y533692D01*
X6896Y533509D01*
X5753Y533353D01*
X4607Y533226D01*
X3458Y533127D01*
X2306Y533057D01*
X1153Y533014D01*
X0Y533000D01*
X-1153Y533014D01*
X-2306Y533057D01*
X-3458Y533127D01*
X-4607Y533226D01*
X-5753Y533353D01*
X-6896Y533509D01*
X-8035Y533692D01*
X-9169Y533903D01*
X-10298Y534142D01*
X-11420Y534409D01*
X-12535Y534703D01*
X-13643Y535024D01*
X-14743Y535372D01*
X-15834Y535747D01*
X-16915Y536149D01*
X-17986Y536578D01*
X-19046Y537032D01*
X-20095Y537513D01*
X-21132Y538018D01*
X-22156Y538550D01*
X-23166Y539106D01*
X-24163Y539687D01*
X-25145Y540292D01*
X-26112Y540921D01*
X-27063Y541574D01*
X-27998Y542249D01*
X-28916Y542948D01*
X-29816Y543669D01*
X-30699Y544411D01*
X-31563Y545175D01*
X-32408Y545960D01*
X-33234Y546766D01*
X-34040Y547592D01*
X-34825Y548437D01*
X-35589Y549301D01*
X-36331Y550184D01*
X-37052Y551084D01*
X-37751Y552002D01*
X-38426Y552937D01*
X-39079Y553888D01*
X-39708Y554855D01*
X-40313Y555837D01*
X-40894Y556834D01*
X-41450Y557844D01*
X-41982Y558868D01*
X-42487Y559905D01*
X-42968Y560954D01*
X-43422Y562014D01*
X-43851Y563085D01*
X-44253Y564166D01*
X-44628Y565257D01*
X-44976Y566357D01*
X-45297Y567465D01*
X-45591Y568580D01*
X-45858Y569702D01*
X-46097Y570831D01*
X-46308Y571965D01*
X-46491Y573104D01*
X-46647Y574247D01*
X-46774Y575393D01*
X-46873Y576542D01*
X-46943Y577694D01*
X-46986Y578847D01*
X-47000Y580000D01*
X-627000Y0D02*
X-626986Y1153D01*
X-626943Y2306D01*
X-626873Y3458D01*
X-626774Y4607D01*
X-626647Y5753D01*
X-626491Y6896D01*
X-626308Y8035D01*
X-626097Y9169D01*
X-625858Y10298D01*
X-625591Y11420D01*
X-625297Y12535D01*
X-624976Y13643D01*
X-624628Y14743D01*
X-624253Y15834D01*
X-623851Y16915D01*
X-623422Y17986D01*
X-622968Y19046D01*
X-622487Y20095D01*
X-621982Y21132D01*
X-621450Y22156D01*
X-620894Y23166D01*
X-620313Y24163D01*
X-619708Y25145D01*
X-619079Y26112D01*
X-618426Y27063D01*
X-617751Y27998D01*
X-617052Y28916D01*
X-616331Y29816D01*
X-615589Y30699D01*
X-614825Y31563D01*
X-614040Y32408D01*
X-613234Y33234D01*
X-612408Y34040D01*
X-611563Y34825D01*
X-610699Y35589D01*
X-609816Y36331D01*
X-608916Y37052D01*
X-607998Y37751D01*
X-607063Y38426D01*
X-606112Y39079D01*
X-605145Y39708D01*
X-604163Y40313D01*
X-603166Y40894D01*
X-602156Y41450D01*
X-601132Y41982D01*
X-600095Y42487D01*
X-599046Y42968D01*
X-597986Y43422D01*
X-596915Y43851D01*
X-595834Y44253D01*
X-594743Y44628D01*
X-593643Y44976D01*
X-592535Y45297D01*
X-591420Y45591D01*
X-590298Y45858D01*
X-589169Y46097D01*
X-588035Y46308D01*
X-586896Y46491D01*
X-585753Y46647D01*
X-584607Y46774D01*
X-583458Y46873D01*
X-582306Y46943D01*
X-581153Y46986D01*
X-580000Y47000D01*
X-578847Y46986D01*
X-577694Y46943D01*
X-576542Y46873D01*
X-575393Y46774D01*
X-574247Y46647D01*
X-573104Y46491D01*
X-571965Y46308D01*
X-570831Y46097D01*
X-569702Y45858D01*
X-568580Y45591D01*
X-567465Y45297D01*
X-566357Y44976D01*
X-565257Y44628D01*
X-564166Y44253D01*
X-563085Y43851D01*
X-562014Y43422D01*
X-560954Y42968D01*
X-559905Y42487D01*
X-558868Y41982D01*
X-557844Y41450D01*
X-556834Y40894D01*
X-555837Y40313D01*
X-554855Y39708D01*
X-553888Y39079D01*
X-552937Y38426D01*
X-552002Y37751D01*
X-551084Y37052D01*
X-550184Y36331D01*
X-549301Y35589D01*
X-548437Y34825D01*
X-547592Y34040D01*
X-546766Y33234D01*
X-545960Y32408D01*
X-545175Y31563D01*
X-544411Y30699D01*
X-543669Y29816D01*
X-542948Y28916D01*
X-542249Y27998D01*
X-541574Y27063D01*
X-540921Y26112D01*
X-540292Y25145D01*
X-539687Y24163D01*
X-539106Y23166D01*
X-538550Y22156D01*
X-538018Y21132D01*
X-537513Y20095D01*
X-537032Y19046D01*
X-536578Y17986D01*
X-536149Y16915D01*
X-535747Y15834D01*
X-535372Y14743D01*
X-535024Y13643D01*
X-534703Y12535D01*
X-534409Y11420D01*
X-534142Y10298D01*
X-533903Y9169D01*
X-533692Y8035D01*
X-533509Y6896D01*
X-533353Y5753D01*
X-533226Y4607D01*
X-533127Y3458D01*
X-533057Y2306D01*
X-533014Y1153D01*
X-533000Y0D01*
X-533014Y-1153D01*
X-533057Y-2306D01*
X-533127Y-3458D01*
X-533226Y-4607D01*
X-533353Y-5753D01*
X-533509Y-6896D01*
X-533692Y-8035D01*
X-533903Y-9169D01*
X-534142Y-10298D01*
X-534409Y-11420D01*
X-534703Y-12535D01*
X-535024Y-13643D01*
X-535372Y-14743D01*
X-535747Y-15834D01*
X-536149Y-16915D01*
X-536578Y-17986D01*
X-537032Y-19046D01*
X-537513Y-20095D01*
X-538018Y-21132D01*
X-538550Y-22156D01*
X-539106Y-23166D01*
X-539687Y-24163D01*
X-540292Y-25145D01*
X-540921Y-26112D01*
X-541574Y-27063D01*
X-542249Y-27998D01*
X-542948Y-28916D01*
X-543669Y-29816D01*
X-544411Y-30699D01*
X-545175Y-31563D01*
X-545960Y-32408D01*
X-546766Y-33234D01*
X-547592Y-34040D01*
X-548437Y-34825D01*
X-549301Y-35589D01*
X-550184Y-36331D01*
X-551084Y-37052D01*
X-552002Y-37751D01*
X-552937Y-38426D01*
X-553888Y-39079D01*
X-554855Y-39708D01*
X-555837Y-40313D01*
X-556834Y-40894D01*
X-557844Y-41450D01*
X-558868Y-41982D01*
X-559905Y-42487D01*
X-560954Y-42968D01*
X-562014Y-43422D01*
X-563085Y-43851D01*
X-564166Y-44253D01*
X-565257Y-44628D01*
X-566357Y-44976D01*
X-567465Y-45297D01*
X-568580Y-45591D01*
X-569702Y-45858D01*
X-570831Y-46097D01*
X-571965Y-46308D01*
X-573104Y-46491D01*
X-574247Y-46647D01*
X-575393Y-46774D01*
X-576542Y-46873D01*
X-577694Y-46943D01*
X-578847Y-46986D01*
X-580000Y-47000D01*
X-581153Y-46986D01*
X-582306Y-46943D01*
X-583458Y-46873D01*
X-584607Y-46774D01*
X-585753Y-46647D01*
X-586896Y-46491D01*
X-588035Y-46308D01*
X-589169Y-46097D01*
X-590298Y-45858D01*
X-591420Y-45591D01*
X-592535Y-45297D01*
X-593643Y-44976D01*
X-594743Y-44628D01*
X-595834Y-44253D01*
X-596915Y-43851D01*
X-597986Y-43422D01*
X-599046Y-42968D01*
X-600095Y-42487D01*
X-601132Y-41982D01*
X-602156Y-41450D01*
X-603166Y-40894D01*
X-604163Y-40313D01*
X-605145Y-39708D01*
X-606112Y-39079D01*
X-607063Y-38426D01*
X-607998Y-37751D01*
X-608916Y-37052D01*
X-609816Y-36331D01*
X-610699Y-35589D01*
X-611563Y-34825D01*
X-612408Y-34040D01*
X-613234Y-33234D01*
X-614040Y-32408D01*
X-614825Y-31563D01*
X-615589Y-30699D01*
X-616331Y-29816D01*
X-617052Y-28916D01*
X-617751Y-27998D01*
X-618426Y-27063D01*
X-619079Y-26112D01*
X-619708Y-25145D01*
X-620313Y-24163D01*
X-620894Y-23166D01*
X-621450Y-22156D01*
X-621982Y-21132D01*
X-622487Y-20095D01*
X-622968Y-19046D01*
X-623422Y-17986D01*
X-623851Y-16915D01*
X-624253Y-15834D01*
X-624628Y-14743D01*
X-624976Y-13643D01*
X-625297Y-12535D01*
X-625591Y-11420D01*
X-625858Y-10298D01*
X-626097Y-9169D01*
X-626308Y-8035D01*
X-626491Y-6896D01*
X-626647Y-5753D01*
X-626774Y-4607D01*
X-626873Y-3458D01*
X-626943Y-2306D01*
X-626986Y-1153D01*
X-627000Y0D01*
X-47000Y-580000D02*
X-46986Y-578847D01*
X-46943Y-577694D01*
X-46873Y-576542D01*
X-46774Y-575393D01*
X-46647Y-574247D01*
X-46491Y-573104D01*
X-46308Y-571965D01*
X-46097Y-570831D01*
X-45858Y-569702D01*
X-45591Y-568580D01*
X-45297Y-567465D01*
X-44976Y-566357D01*
X-44628Y-565257D01*
X-44253Y-564166D01*
X-43851Y-563085D01*
X-43422Y-562014D01*
X-42968Y-560954D01*
X-42487Y-559905D01*
X-41982Y-558868D01*
X-41450Y-557844D01*
X-40894Y-556834D01*
X-40313Y-555837D01*
X-39708Y-554855D01*
X-39079Y-553888D01*
X-38426Y-552937D01*
X-37751Y-552002D01*
X-37052Y-551084D01*
X-36331Y-550184D01*
X-35589Y-549301D01*
X-34825Y-548437D01*
X-34040Y-547592D01*
X-33234Y-546766D01*
X-32408Y-545960D01*
X-31563Y-545175D01*
X-30699Y-544411D01*
X-29816Y-543669D01*
X-28916Y-542948D01*
X-27998Y-542249D01*
X-27063Y-541574D01*
X-26112Y-540921D01*
X-25145Y-540292D01*
X-24163Y-539687D01*
X-23166Y-539106D01*
X-22156Y-538550D01*
X-21132Y-538018D01*
X-20095Y-537513D01*
X-19046Y-537032D01*
X-17986Y-536578D01*
X-16915Y-536149D01*
X-15834Y-535747D01*
X-14743Y-535372D01*
X-13643Y-535024D01*
X-12535Y-534703D01*
X-11420Y-534409D01*
X-10298Y-534142D01*
X-9169Y-533903D01*
X-8035Y-533692D01*
X-6896Y-533509D01*
X-5753Y-533353D01*
X-4607Y-533226D01*
X-3458Y-533127D01*
X-2306Y-533057D01*
X-1153Y-533014D01*
X0Y-533000D01*
X1153Y-533014D01*
X2306Y-533057D01*
X3458Y-533127D01*
X4607Y-533226D01*
X5753Y-533353D01*
X6896Y-533509D01*
X8035Y-533692D01*
X9169Y-533903D01*
X10298Y-534142D01*
X11420Y-534409D01*
X12535Y-534703D01*
X13643Y-535024D01*
X14743Y-535372D01*
X15834Y-535747D01*
X16915Y-536149D01*
X17986Y-536578D01*
X19046Y-537032D01*
X20095Y-537513D01*
X21132Y-538018D01*
X22156Y-538550D01*
X23166Y-539106D01*
X24163Y-539687D01*
X25145Y-540292D01*
X26112Y-540921D01*
X27063Y-541574D01*
X27998Y-542249D01*
X28916Y-542948D01*
X29816Y-543669D01*
X30699Y-544411D01*
X31563Y-545175D01*
X32408Y-545960D01*
X33234Y-546766D01*
X34040Y-547592D01*
X34825Y-548437D01*
X35589Y-549301D01*
X36331Y-550184D01*
X37052Y-551084D01*
X37751Y-552002D01*
X38426Y-552937D01*
X39079Y-553888D01*
X39708Y-554855D01*
X40313Y-555837D01*
X40894Y-556834D01*
X41450Y-557844D01*
X41982Y-558868D01*
X42487Y-559905D01*
X42968Y-560954D01*
X43422Y-562014D01*
X43851Y-563085D01*
X44253Y-564166D01*
X44628Y-565257D01*
X44976Y-566357D01*
X45297Y-567465D01*
X45591Y-568580D01*
X45858Y-569702D01*
X46097Y-570831D01*
X46308Y-571965D01*
X46491Y-573104D01*
X46647Y-574247D01*
X46774Y-575393D01*
X46873Y-576542D01*
X46943Y-577694D01*
X46986Y-578847D01*
X47000Y-580000D01*
X46986Y-581153D01*
X46943Y-582306D01*
X46873Y-583458D01*
X46774Y-584607D01*
X46647Y-585753D01*
X46491Y-586896D01*
X46308Y-588035D01*
X46097Y-589169D01*
X45858Y-590298D01*
X45591Y-591420D01*
X45297Y-592535D01*
X44976Y-593643D01*
X44628Y-594743D01*
X44253Y-595834D01*
X43851Y-596915D01*
X43422Y-597986D01*
X42968Y-599046D01*
X42487Y-600095D01*
X41982Y-601132D01*
X41450Y-602156D01*
X40894Y-603166D01*
X40313Y-604163D01*
X39708Y-605145D01*
X39079Y-606112D01*
X38426Y-607063D01*
X37751Y-607998D01*
X37052Y-608916D01*
X36331Y-609816D01*
X35589Y-610699D01*
X34825Y-611563D01*
X34040Y-612408D01*
X33234Y-613234D01*
X32408Y-614040D01*
X31563Y-614825D01*
X30699Y-615589D01*
X29816Y-616331D01*
X28916Y-617052D01*
X27998Y-617751D01*
X27063Y-618426D01*
X26112Y-619079D01*
X25145Y-619708D01*
X24163Y-620313D01*
X23166Y-620894D01*
X22156Y-621450D01*
X21132Y-621982D01*
X20095Y-622487D01*
X19046Y-622968D01*
X17986Y-623422D01*
X16915Y-623851D01*
X15834Y-624253D01*
X14743Y-624628D01*
X13643Y-624976D01*
X12535Y-625297D01*
X11420Y-625591D01*
X10298Y-625858D01*
X9169Y-626097D01*
X8035Y-626308D01*
X6896Y-626491D01*
X5753Y-626647D01*
X4607Y-626774D01*
X3458Y-626873D01*
X2306Y-626943D01*
X1153Y-626986D01*
X0Y-627000D01*
X-1153Y-626986D01*
X-2306Y-626943D01*
X-3458Y-626873D01*
X-4607Y-626774D01*
X-5753Y-626647D01*
X-6896Y-626491D01*
X-8035Y-626308D01*
X-9169Y-626097D01*
X-10298Y-625858D01*
X-11420Y-625591D01*
X-12535Y-625297D01*
X-13643Y-624976D01*
X-14743Y-624628D01*
X-15834Y-624253D01*
X-16915Y-623851D01*
X-17986Y-623422D01*
X-19046Y-622968D01*
X-20095Y-622487D01*
X-21132Y-621982D01*
X-22156Y-621450D01*
X-23166Y-620894D01*
X-24163Y-620313D01*
X-25145Y-619708D01*
X-26112Y-619079D01*
X-27063Y-618426D01*
X-27998Y-617751D01*
X-28916Y-617052D01*
X-29816Y-616331D01*
X-30699Y-615589D01*
X-31563Y-614825D01*
X-32408Y-614040D01*
X-33234Y-613234D01*
X-34040Y-612408D01*
X-34825Y-611563D01*
X-35589Y-610699D01*
X-36331Y-609816D01*
X-37052Y-608916D01*
X-37751Y-607998D01*
X-38426Y-607063D01*
X-39079Y-606112D01*
X-39708Y-605145D01*
X-40313Y-604163D01*
X-40894Y-603166D01*
X-41450Y-602156D01*
X-41982Y-601132D01*
X-42487Y-600095D01*
X-42968Y-599046D01*
X-43422Y-597986D01*
X-43851Y-596915D01*
X-44253Y-595834D01*
X-44628Y-594743D01*
X-44976Y-593643D01*
X-45297Y-592535D01*
X-45591Y-591420D01*
X-45858Y-590298D01*
X-46097Y-589169D01*
X-46308Y-588035D01*
X-46491Y-586896D01*
X-46647Y-585753D01*
X-46774Y-584607D01*
X-46873Y-583458D01*
X-46943Y-582306D01*
X-46986Y-581153D01*
X-47000Y-580000D01*
X-680000Y0D02*
X-679795Y16688D01*
X-679181Y33366D01*
X-678158Y50024D01*
X-676726Y66652D01*
X-674886Y83239D01*
X-672640Y99777D01*
X-669989Y116254D01*
X-666934Y132661D01*
X-663477Y148989D01*
X-659621Y165227D01*
X-655368Y181365D01*
X-650719Y197394D01*
X-645679Y213304D01*
X-640250Y229085D01*
X-634435Y244729D01*
X-628238Y260225D01*
X-621663Y275564D01*
X-614713Y290737D01*
X-607393Y305736D01*
X-599706Y320550D01*
X-591659Y335171D01*
X-583255Y349590D01*
X-574500Y363798D01*
X-565399Y377788D01*
X-555958Y391550D01*
X-546181Y405076D01*
X-536076Y418357D01*
X-525647Y431387D01*
X-514902Y444158D01*
X-503847Y456660D01*
X-492488Y468888D01*
X-480833Y480833D01*
X-468888Y492488D01*
X-456660Y503847D01*
X-444158Y514902D01*
X-431387Y525647D01*
X-418357Y536076D01*
X-405076Y546181D01*
X-391550Y555958D01*
X-377788Y565399D01*
X-363798Y574500D01*
X-349590Y583255D01*
X-335171Y591659D01*
X-320550Y599706D01*
X-305736Y607393D01*
X-290737Y614713D01*
X-275564Y621663D01*
X-260225Y628238D01*
X-244729Y634435D01*
X-229085Y640250D01*
X-213304Y645679D01*
X-197394Y650719D01*
X-181365Y655368D01*
X-165227Y659621D01*
X-148989Y663477D01*
X-132661Y666934D01*
X-116254Y669989D01*
X-99777Y672640D01*
X-83239Y674886D01*
X-66652Y676726D01*
X-50024Y678158D01*
X-33366Y679181D01*
X-16688Y679795D01*
X0Y680000D01*
X16688Y679795D01*
X33366Y679181D01*
X50024Y678158D01*
X66652Y676726D01*
X83239Y674886D01*
X99777Y672640D01*
X116254Y669989D01*
X132661Y666934D01*
X148989Y663477D01*
X165227Y659621D01*
X181365Y655368D01*
X197394Y650719D01*
X213304Y645679D01*
X229085Y640250D01*
X244729Y634435D01*
X260225Y628238D01*
X275564Y621663D01*
X290737Y614713D01*
X305736Y607393D01*
X320550Y599706D01*
X335171Y591659D01*
X349590Y583255D01*
X363798Y574500D01*
X377788Y565399D01*
X391550Y555958D01*
X405076Y546181D01*
X418357Y536076D01*
X431387Y525647D01*
X444158Y514902D01*
X456660Y503847D01*
X468888Y492488D01*
X480833Y480833D01*
X492488Y468888D01*
X503847Y456660D01*
X514902Y444158D01*
X525647Y431387D01*
X536076Y418357D01*
X546181Y405076D01*
X555958Y391550D01*
X565399Y377788D01*
X574500Y363798D01*
X583255Y349590D01*
X591659Y335171D01*
X599706Y320550D01*
X607393Y305736D01*
X614713Y290737D01*
X621663Y275564D01*
X628238Y260225D01*
X634435Y244729D01*
X640250Y229085D01*
X645679Y213304D01*
X650719Y197394D01*
X655368Y181365D01*
X659621Y165227D01*
X663477Y148989D01*
X666934Y132661D01*
X669989Y116254D01*
X672640Y99777D01*
X674886Y83239D01*
X676726Y66652D01*
X678158Y50024D01*
X679181Y33366D01*
X679795Y16688D01*
X680000Y0D01*
X679795Y-16688D01*
X679181Y-33366D01*
X678158Y-50024D01*
X676726Y-66652D01*
X674886Y-83239D01*
X672640Y-99777D01*
X669989Y-116254D01*
X666934Y-132661D01*
X663477Y-148989D01*
X659621Y-165227D01*
X655368Y-181365D01*
X650719Y-197394D01*
X645679Y-213304D01*
X640250Y-229085D01*
X634435Y-244729D01*
X628238Y-260225D01*
X621663Y-275564D01*
X614713Y-290737D01*
X607393Y-305736D01*
X599706Y-320550D01*
X591659Y-335171D01*
X583255Y-349590D01*
X574500Y-363798D01*
X565399Y-377788D01*
X555958Y-391550D01*
X546181Y-405076D01*
X536076Y-418357D01*
X525647Y-431387D01*
X514902Y-444158D01*
X503847Y-456660D01*
X492488Y-468888D01*
X480833Y-480833D01*
X468888Y-492488D01*
X456660Y-503847D01*
X444158Y-514902D01*
X431387Y-525647D01*
X418357Y-536076D01*
X405076Y-546181D01*
X391550Y-555958D01*
X377788Y-565399D01*
X363798Y-574500D01*
X349590Y-583255D01*
X335171Y-591659D01*
X320550Y-599706D01*
X305736Y-607393D01*
X290737Y-614713D01*
X275564Y-621663D01*
X260225Y-628238D01*
X244729Y-634435D01*
X229085Y-640250D01*
X213304Y-645679D01*
X197394Y-650719D01*
X181365Y-655368D01*
X165227Y-659621D01*
X148989Y-663477D01*
X132661Y-666934D01*
X116254Y-669989D01*
X99777Y-672640D01*
X83239Y-674886D01*
X66652Y-676726D01*
X50024Y-678158D01*
X33366Y-679181D01*
X16688Y-679795D01*
X0Y-680000D01*
X-16688Y-679795D01*
X-33366Y-679181D01*
X-50024Y-678158D01*
X-66652Y-676726D01*
X-83239Y-674886D01*
X-99777Y-672640D01*
X-116254Y-669989D01*
X-132661Y-666934D01*
X-148989Y-663477D01*
X-165227Y-659621D01*
X-181365Y-655368D01*
X-197394Y-650719D01*
X-213304Y-645679D01*
X-229085Y-640250D01*
X-244729Y-634435D01*
X-260225Y-628238D01*
X-275564Y-621663D01*
X-290737Y-614713D01*
X-305736Y-607393D01*
X-320550Y-599706D01*
X-335171Y-591659D01*
X-349590Y-583255D01*
X-363798Y-574500D01*
X-377788Y-565399D01*
X-391550Y-555958D01*
X-405076Y-546181D01*
X-418357Y-536076D01*
X-431387Y-525647D01*
X-444158Y-514902D01*
X-456660Y-503847D01*
X-468888Y-492488D01*
X-480833Y-480833D01*
X-492488Y-468888D01*
X-503847Y-456660D01*
X-514902Y-444158D01*
X-525647Y-431387D01*
X-536076Y-418357D01*
X-546181Y-405076D01*
X-555958Y-391550D01*
X-565399Y-377788D01*
X-574500Y-363798D01*
X-583255Y-349590D01*
X-591659Y-335171D01*
X-599706Y-320550D01*
X-607393Y-305736D01*
X-614713Y-290737D01*
X-621663Y-275564D01*
X-628238Y-260225D01*
X-634435Y-244729D01*
X-640250Y-229085D01*
X-645679Y-213304D01*
X-650719Y-197394D01*
X-655368Y-181365D01*
X-659621Y-165227D01*
X-663477Y-148989D01*
X-666934Y-132661D01*
X-669989Y-116254D01*
X-672640Y-99777D01*
X-674886Y-83239D01*
X-676726Y-66652D01*
X-678158Y-50024D01*
X-679181Y-33366D01*
X-679795Y-16688D01*
X-680000Y0D01*
D11*
X680000Y-8345D02*
X680000Y8345D01*
X679590Y25031D01*
X678771Y41701D01*
X677544Y58347D01*
X675908Y74957D01*
X673865Y91522D01*
X671416Y108032D01*
X668562Y124477D01*
X665306Y140846D01*
X661649Y157131D01*
X657594Y173322D01*
X653142Y189408D01*
X648297Y205380D01*
X643061Y221228D01*
X637439Y236943D01*
X631432Y252515D01*
X625044Y267935D01*
X618281Y283193D01*
X611145Y298282D01*
X603640Y313190D01*
X595773Y327910D01*
X587546Y342432D01*
X578965Y356748D01*
X570036Y370849D01*
X560763Y384727D01*
X551152Y398373D01*
X541210Y411779D01*
X530941Y424936D01*
X520353Y437838D01*
X509451Y450477D01*
X498242Y462844D01*
X486734Y474932D01*
X474932Y486734D01*
X462844Y498242D01*
X450477Y509451D01*
X437838Y520353D01*
X424936Y530941D01*
X411779Y541210D01*
X398373Y551152D01*
X384727Y560763D01*
X370849Y570036D01*
X356748Y578965D01*
X342432Y587546D01*
X327910Y595773D01*
X313190Y603640D01*
X298282Y611145D01*
X283193Y618281D01*
X267935Y625044D01*
X252515Y631432D01*
X236943Y637439D01*
X221228Y643061D01*
X205380Y648297D01*
X189408Y653142D01*
X173322Y657594D01*
X157131Y661649D01*
X140846Y665306D01*
X124477Y668562D01*
X108032Y671416D01*
X91522Y673865D01*
X74957Y675908D01*
X58347Y677544D01*
X41701Y678771D01*
X25031Y679590D01*
X8345Y680000D01*
X-8345Y680000D01*
X-25031Y679590D01*
X-41701Y678771D01*
X-58347Y677544D01*
X-74957Y675908D01*
X-91522Y673865D01*
X-108032Y671416D01*
X-124477Y668562D01*
X-140846Y665306D01*
X-157131Y661649D01*
X-173322Y657594D01*
X-189408Y653142D01*
X-205380Y648297D01*
X-221228Y643061D01*
X-236943Y637439D01*
X-252515Y631432D01*
X-267935Y625044D01*
X-283193Y618281D01*
X-298282Y611145D01*
X-313190Y603640D01*
X-327910Y595773D01*
X-342432Y587546D01*
X-356748Y578965D01*
X-370849Y570036D01*
X-384727Y560763D01*
X-398373Y551152D01*
X-411779Y541210D01*
X-424936Y530941D01*
X-437838Y520353D01*
X-450477Y509451D01*
X-462844Y498242D01*
X-474932Y486734D01*
X-486734Y474932D01*
X-498242Y462844D01*
X-509451Y450477D01*
X-520353Y437838D01*
X-530941Y424936D01*
X-541210Y411779D01*
X-551152Y398373D01*
X-560763Y384727D01*
X-570036Y370849D01*
X-578965Y356748D01*
X-587546Y342432D01*
X-595773Y327910D01*
X-603640Y313190D01*
X-611145Y298282D01*
X-618281Y283193D01*
X-625044Y267935D01*
X-631432Y252515D01*
X-637439Y236943D01*
X-643061Y221228D01*
X-648297Y205380D01*
X-653142Y189408D01*
X-657594Y173322D01*
X-661649Y157131D01*
X-665306Y140846D01*
X-668562Y124477D01*
X-671416Y108032D01*
X-673865Y91522D01*
X-675908Y74957D01*
X-677544Y58347D01*
X-678771Y41701D01*
X-679590Y25031D01*
X-680000Y8345D01*
X-680000Y-8345D01*
X-679590Y-25031D01*
X-678771Y-41701D01*
X-677544Y-58347D01*
X-675908Y-74957D01*
X-673865Y-91522D01*
X-671416Y-108032D01*
X-668562Y-124477D01*
X-665306Y-140846D01*
X-661649Y-157131D01*
X-657594Y-173322D01*
X-653142Y-189408D01*
X-648297Y-205380D01*
X-643061Y-221228D01*
X-637439Y-236943D01*
X-631432Y-252515D01*
X-625044Y-267935D01*
X-618281Y-283193D01*
X-611145Y-298282D01*
X-603640Y-313190D01*
X-595773Y-327910D01*
X-587546Y-342432D01*
X-578965Y-356748D01*
X-570036Y-370849D01*
X-560763Y-384727D01*
X-551152Y-398373D01*
X-541210Y-411779D01*
X-530941Y-424936D01*
X-520353Y-437838D01*
X-509451Y-450477D01*
X-498242Y-462844D01*
X-486734Y-474932D01*
X-474932Y-486734D01*
X-462844Y-498242D01*
X-450477Y-509451D01*
X-437838Y-520353D01*
X-424936Y-530941D01*
X-411779Y-541210D01*
X-398373Y-551152D01*
X-384727Y-560763D01*
X-370849Y-570036D01*
X-356748Y-578965D01*
X-342432Y-587546D01*
X-327910Y-595773D01*
X-313190Y-603640D01*
X-298282Y-611145D01*
X-283193Y-618281D01*
X-267935Y-625044D01*
X-252515Y-631432D01*
X-236943Y-637439D01*
X-221228Y-643061D01*
X-205380Y-648297D01*
X-189408Y-653142D01*
X-173322Y-657594D01*
X-157131Y-661649D01*
X-140846Y-665306D01*
X-124477Y-668562D01*
X-108032Y-671416D01*
X-91522Y-673865D01*
X-74957Y-675908D01*
X-58347Y-677544D01*
X-41701Y-678771D01*
X-25031Y-679590D01*
X-8345Y-680000D01*
X8345Y-680000D01*
X25031Y-679590D01*
X41701Y-678771D01*
X58347Y-677544D01*
X74957Y-675908D01*
X91522Y-673865D01*
X108032Y-671416D01*
X124477Y-668562D01*
X140846Y-665306D01*
X157131Y-661649D01*
X173322Y-657594D01*
X189408Y-653142D01*
X205380Y-648297D01*
X221228Y-643061D01*
X236943Y-637439D01*
X252515Y-631432D01*
X267935Y-625044D01*
X283193Y-618281D01*
X298282Y-611145D01*
X313190Y-603640D01*
X327910Y-595773D01*
X342432Y-587546D01*
X356748Y-578965D01*
X370849Y-570036D01*
X384727Y-560763D01*
X398373Y-551152D01*
X411779Y-541210D01*
X424936Y-530941D01*
X437838Y-520353D01*
X450477Y-509451D01*
X462844Y-498242D01*
X474932Y-486734D01*
X486734Y-474932D01*
X498242Y-462844D01*
X509451Y-450477D01*
X520353Y-437838D01*
X530941Y-424936D01*
X541210Y-411779D01*
X551152Y-398373D01*
X560763Y-384727D01*
X570036Y-370849D01*
X578965Y-356748D01*
X587546Y-342432D01*
X595773Y-327910D01*
X603640Y-313190D01*
X611145Y-298282D01*
X618281Y-283193D01*
X625044Y-267935D01*
X631432Y-252515D01*
X637439Y-236943D01*
X643061Y-221228D01*
X648297Y-205380D01*
X653142Y-189408D01*
X657594Y-173322D01*
X661649Y-157131D01*
X665306Y-140846D01*
X668562Y-124477D01*
X671416Y-108032D01*
X673865Y-91522D01*
X675908Y-74957D01*
X677544Y-58347D01*
X678771Y-41701D01*
X679590Y-25031D01*
X680000Y-8345D01*
X627000Y-923D02*
X627000Y923D01*
X626928Y2767D01*
X626783Y4608D01*
X626566Y6441D01*
X626277Y8264D01*
X625917Y10074D01*
X625486Y11869D01*
X624985Y13646D01*
X624414Y15402D01*
X623776Y17133D01*
X623069Y18839D01*
X622296Y20515D01*
X621458Y22160D01*
X620556Y23770D01*
X619592Y25344D01*
X618566Y26879D01*
X617481Y28373D01*
X616339Y29822D01*
X615140Y31226D01*
X613887Y32581D01*
X612581Y33887D01*
X611226Y35140D01*
X609822Y36339D01*
X608373Y37481D01*
X606879Y38566D01*
X605344Y39592D01*
X603770Y40556D01*
X602160Y41458D01*
X600515Y42296D01*
X598839Y43069D01*
X597133Y43776D01*
X595402Y44414D01*
X593646Y44985D01*
X591869Y45486D01*
X590074Y45917D01*
X588264Y46277D01*
X586441Y46566D01*
X584608Y46783D01*
X582767Y46928D01*
X580923Y47000D01*
X579077Y47000D01*
X577233Y46928D01*
X575392Y46783D01*
X573559Y46566D01*
X571736Y46277D01*
X569926Y45917D01*
X568131Y45486D01*
X566354Y44985D01*
X564598Y44414D01*
X562867Y43776D01*
X561161Y43069D01*
X559485Y42296D01*
X557840Y41458D01*
X556230Y40556D01*
X554656Y39592D01*
X553121Y38566D01*
X551627Y37481D01*
X550178Y36339D01*
X548774Y35140D01*
X547419Y33887D01*
X546113Y32581D01*
X544860Y31226D01*
X543662Y29822D01*
X542519Y28373D01*
X541434Y26879D01*
X540408Y25344D01*
X539444Y23770D01*
X538542Y22160D01*
X537704Y20515D01*
X536931Y18839D01*
X536224Y17133D01*
X535586Y15402D01*
X535015Y13646D01*
X534514Y11869D01*
X534083Y10074D01*
X533723Y8264D01*
X533434Y6441D01*
X533217Y4608D01*
X533072Y2767D01*
X533000Y923D01*
X533000Y-923D01*
X533072Y-2767D01*
X533217Y-4608D01*
X533434Y-6441D01*
X533723Y-8264D01*
X534083Y-10074D01*
X534514Y-11869D01*
X535015Y-13646D01*
X535586Y-15402D01*
X536224Y-17133D01*
X536931Y-18839D01*
X537704Y-20515D01*
X538542Y-22160D01*
X539444Y-23770D01*
X540408Y-25344D01*
X541434Y-26879D01*
X542519Y-28373D01*
X543662Y-29822D01*
X544860Y-31226D01*
X546113Y-32581D01*
X547419Y-33887D01*
X548774Y-35140D01*
X550178Y-36339D01*
X551627Y-37481D01*
X553121Y-38566D01*
X554656Y-39592D01*
X556230Y-40556D01*
X557840Y-41458D01*
X559485Y-42296D01*
X561161Y-43069D01*
X562867Y-43776D01*
X564598Y-44414D01*
X566354Y-44985D01*
X568131Y-45486D01*
X569926Y-45917D01*
X571736Y-46277D01*
X573559Y-46566D01*
X575392Y-46783D01*
X577233Y-46928D01*
X579077Y-47000D01*
X580923Y-47000D01*
X582767Y-46928D01*
X584608Y-46783D01*
X586441Y-46566D01*
X588264Y-46277D01*
X590074Y-45917D01*
X591869Y-45486D01*
X593646Y-44985D01*
X595402Y-44414D01*
X597133Y-43776D01*
X598839Y-43069D01*
X600515Y-42296D01*
X602160Y-41458D01*
X603770Y-40556D01*
X605344Y-39592D01*
X606879Y-38566D01*
X608373Y-37481D01*
X609822Y-36339D01*
X611226Y-35140D01*
X612581Y-33887D01*
X613887Y-32581D01*
X615140Y-31226D01*
X616339Y-29822D01*
X617481Y-28373D01*
X618566Y-26879D01*
X619592Y-25344D01*
X620556Y-23770D01*
X621458Y-22160D01*
X622296Y-20515D01*
X623069Y-18839D01*
X623776Y-17133D01*
X624414Y-15402D01*
X624985Y-13646D01*
X625486Y-11869D01*
X625917Y-10074D01*
X626277Y-8264D01*
X626566Y-6441D01*
X626783Y-4608D01*
X626928Y-2767D01*
X627000Y-923D01*
X47000Y579077D02*
X47000Y580923D01*
X46928Y582767D01*
X46783Y584608D01*
X46566Y586441D01*
X46277Y588264D01*
X45917Y590074D01*
X45486Y591869D01*
X44985Y593646D01*
X44414Y595402D01*
X43776Y597133D01*
X43069Y598839D01*
X42296Y600515D01*
X41458Y602160D01*
X40556Y603770D01*
X39592Y605344D01*
X38566Y606879D01*
X37481Y608373D01*
X36339Y609822D01*
X35140Y611226D01*
X33887Y612581D01*
X32581Y613887D01*
X31226Y615140D01*
X29822Y616339D01*
X28373Y617481D01*
X26879Y618566D01*
X25344Y619592D01*
X23770Y620556D01*
X22160Y621458D01*
X20515Y622296D01*
X18839Y623069D01*
X17133Y623776D01*
X15402Y624414D01*
X13646Y624985D01*
X11869Y625486D01*
X10074Y625917D01*
X8264Y626277D01*
X6441Y626566D01*
X4608Y626783D01*
X2767Y626928D01*
X923Y627000D01*
X-923Y627000D01*
X-2767Y626928D01*
X-4608Y626783D01*
X-6441Y626566D01*
X-8264Y626277D01*
X-10074Y625917D01*
X-11869Y625486D01*
X-13646Y624985D01*
X-15402Y624414D01*
X-17133Y623776D01*
X-18839Y623069D01*
X-20515Y622296D01*
X-22160Y621458D01*
X-23770Y620556D01*
X-25344Y619592D01*
X-26879Y618566D01*
X-28373Y617481D01*
X-29822Y616339D01*
X-31226Y615140D01*
X-32581Y613887D01*
X-33887Y612581D01*
X-35140Y611226D01*
X-36339Y609822D01*
X-37481Y608373D01*
X-38566Y606879D01*
X-39592Y605344D01*
X-40556Y603770D01*
X-41458Y602160D01*
X-42296Y600515D01*
X-43069Y598839D01*
X-43776Y597133D01*
X-44414Y595402D01*
X-44985Y593646D01*
X-45486Y591869D01*
X-45917Y590074D01*
X-46277Y588264D01*
X-46566Y586441D01*
X-46783Y584608D01*
X-46928Y582767D01*
X-47000Y580923D01*
X-47000Y579077D01*
X-46928Y577233D01*
X-46783Y575392D01*
X-46566Y573559D01*
X-46277Y571736D01*
X-45917Y569926D01*
X-45486Y568131D01*
X-44985Y566354D01*
X-44414Y564598D01*
X-43776Y562867D01*
X-43069Y561161D01*
X-42296Y559485D01*
X-41458Y557840D01*
X-40556Y556230D01*
X-39592Y554656D01*
X-38566Y553121D01*
X-37481Y551627D01*
X-36339Y550178D01*
X-35140Y548774D01*
X-33887Y547419D01*
X-32581Y546113D01*
X-31226Y544860D01*
X-29822Y543662D01*
X-28373Y542519D01*
X-26879Y541434D01*
X-25344Y540408D01*
X-23770Y539444D01*
X-22160Y538542D01*
X-20515Y537704D01*
X-18839Y536931D01*
X-17133Y536224D01*
X-15402Y535586D01*
X-13646Y535015D01*
X-11869Y534514D01*
X-10074Y534083D01*
X-8264Y533723D01*
X-6441Y533434D01*
X-4608Y533217D01*
X-2767Y533072D01*
X-923Y533000D01*
X923Y533000D01*
X2767Y533072D01*
X4608Y533217D01*
X6441Y533434D01*
X8264Y533723D01*
X10074Y534083D01*
X11869Y534514D01*
X13646Y535015D01*
X15402Y535586D01*
X17133Y536224D01*
X18839Y536931D01*
X20515Y537704D01*
X22160Y538542D01*
X23770Y539444D01*
X25344Y540408D01*
X26879Y541434D01*
X28373Y542519D01*
X29822Y543662D01*
X31226Y544860D01*
X32581Y546113D01*
X33887Y547419D01*
X35140Y548774D01*
X36339Y550178D01*
X37481Y551627D01*
X38566Y553121D01*
X39592Y554656D01*
X40556Y556230D01*
X41458Y557840D01*
X42296Y559485D01*
X43069Y561161D01*
X43776Y562867D01*
X44414Y564598D01*
X44985Y566354D01*
X45486Y568131D01*
X45917Y569926D01*
X46277Y571736D01*
X46566Y573559D01*
X46783Y575392D01*
X46928Y577233D01*
X47000Y579077D01*
X-533000Y-923D02*
X-533000Y923D01*
X-533072Y2767D01*
X-533217Y4608D01*
X-533434Y6441D01*
X-533723Y8264D01*
X-534083Y10074D01*
X-534514Y11869D01*
X-535015Y13646D01*
X-535586Y15402D01*
X-536224Y17133D01*
X-536931Y18839D01*
X-537704Y20515D01*
X-538542Y22160D01*
X-539444Y23770D01*
X-540408Y25344D01*
X-541434Y26879D01*
X-542519Y28373D01*
X-543662Y29822D01*
X-544860Y31226D01*
X-546113Y32581D01*
X-547419Y33887D01*
X-548774Y35140D01*
X-550178Y36339D01*
X-551627Y37481D01*
X-553121Y38566D01*
X-554656Y39592D01*
X-556230Y40556D01*
X-557840Y41458D01*
X-559485Y42296D01*
X-561161Y43069D01*
X-562867Y43776D01*
X-564598Y44414D01*
X-566354Y44985D01*
X-568131Y45486D01*
X-569926Y45917D01*
X-571736Y46277D01*
X-573559Y46566D01*
X-575392Y46783D01*
X-577233Y46928D01*
X-579077Y47000D01*
X-580923Y47000D01*
X-582767Y46928D01*
X-584608Y46783D01*
X-586441Y46566D01*
X-588264Y46277D01*
X-590074Y45917D01*
X-591869Y45486D01*
X-593646Y44985D01*
X-595402Y44414D01*
X-597133Y43776D01*
X-598839Y43069D01*
X-600515Y42296D01*
X-602160Y41458D01*
X-603770Y40556D01*
X-605344Y39592D01*
X-606879Y38566D01*
X-608373Y37481D01*
X-609822Y36339D01*
X-611226Y35140D01*
X-612581Y33887D01*
X-613887Y32581D01*
X-615140Y31226D01*
X-616339Y29822D01*
X-617481Y28373D01*
X-618566Y26879D01*
X-619592Y25344D01*
X-620556Y23770D01*
X-621458Y22160D01*
X-622296Y20515D01*
X-623069Y18839D01*
X-623776Y17133D01*
X-624414Y15402D01*
X-624985Y13646D01*
X-625486Y11869D01*
X-625917Y10074D01*
X-626277Y8264D01*
X-626566Y6441D01*
X-626783Y4608D01*
X-626928Y2767D01*
X-627000Y923D01*
X-627000Y-923D01*
X-626928Y-2767D01*
X-626783Y-4608D01*
X-626566Y-6441D01*
X-626277Y-8264D01*
X-625917Y-10074D01*
X-625486Y-11869D01*
X-624985Y-13646D01*
X-624414Y-15402D01*
X-623776Y-17133D01*
X-623069Y-18839D01*
X-622296Y-20515D01*
X-621458Y-22160D01*
X-620556Y-23770D01*
X-619592Y-25344D01*
X-618566Y-26879D01*
X-617481Y-28373D01*
X-616339Y-29822D01*
X-615140Y-31226D01*
X-613887Y-32581D01*
X-612581Y-33887D01*
X-611226Y-35140D01*
X-609822Y-36339D01*
X-608373Y-37481D01*
X-606879Y-38566D01*
X-605344Y-39592D01*
X-603770Y-40556D01*
X-602160Y-41458D01*
X-600515Y-42296D01*
X-598839Y-43069D01*
X-597133Y-43776D01*
X-595402Y-44414D01*
X-593646Y-44985D01*
X-591869Y-45486D01*
X-590074Y-45917D01*
X-588264Y-46277D01*
X-586441Y-46566D01*
X-584608Y-46783D01*
X-582767Y-46928D01*
X-580923Y-47000D01*
X-579077Y-47000D01*
X-577233Y-46928D01*
X-575392Y-46783D01*
X-573559Y-46566D01*
X-571736Y-46277D01*
X-569926Y-45917D01*
X-568131Y-45486D01*
X-566354Y-44985D01*
X-564598Y-44414D01*
X-562867Y-43776D01*
X-561161Y-43069D01*
X-559485Y-42296D01*
X-557840Y-41458D01*
X-556230Y-40556D01*
X-554656Y-39592D01*
X-553121Y-38566D01*
X-551627Y-37481D01*
X-550178Y-36339D01*
X-548774Y-35140D01*
X-547419Y-33887D01*
X-546113Y-32581D01*
X-544860Y-31226D01*
X-543662Y-29822D01*
X-542519Y-28373D01*
X-541434Y-26879D01*
X-540408Y-25344D01*
X-539444Y-23770D01*
X-538542Y-22160D01*
X-537704Y-20515D01*
X-536931Y-18839D01*
X-536224Y-17133D01*
X-535586Y-15402D01*
X-535015Y-13646D01*
X-534514Y-11869D01*
X-534083Y-10074D01*
X-533723Y-8264D01*
X-533434Y-6441D01*
X-533217Y-4608D01*
X-533072Y-2767D01*
X-533000Y-923D01*
X47000Y-580923D02*
X47000Y-579077D01*
X46928Y-577233D01*
X46783Y-575392D01*
X46566Y-573559D01*
X46277Y-571736D01*
X45917Y-569926D01*
X45486Y-568131D01*
X44985Y-566354D01*
X44414Y-564598D01*
X43776Y-562867D01*
X43069Y-561161D01*
X42296Y-559485D01*
X41458Y-557840D01*
X40556Y-556230D01*
X39592Y-554656D01*
X38566Y-553121D01*
X37481Y-551627D01*
X36339Y-550178D01*
X35140Y-548774D01*
X33887Y-547419D01*
X32581Y-546113D01*
X31226Y-544860D01*
X29822Y-543662D01*
X28373Y-542519D01*
X26879Y-541434D01*
X25344Y-540408D01*
X23770Y-539444D01*
X22160Y-538542D01*
X20515Y-537704D01*
X18839Y-536931D01*
X17133Y-536224D01*
X15402Y-535586D01*
X13646Y-535015D01*
X11869Y-534514D01*
X10074Y-534083D01*
X8264Y-533723D01*
X6441Y-533434D01*
X4608Y-533217D01*
X2767Y-533072D01*
X923Y-533000D01*
X-923Y-533000D01*
X-2767Y-533072D01*
X-4608Y-533217D01*
X-6441Y-533434D01*
X-8264Y-533723D01*
X-10074Y-534083D01*
X-11869Y-534514D01*
X-13646Y-535015D01*
X-15402Y-535586D01*
X-17133Y-536224D01*
X-18839Y-536931D01*
X-20515Y-537704D01*
X-22160Y-538542D01*
X-23770Y-539444D01*
X-25344Y-540408D01*
X-26879Y-541434D01*
X-28373Y-542519D01*
X-29822Y-543662D01*
X-31226Y-544860D01*
X-32581Y-546113D01*
X-33887Y-547419D01*
X-35140Y-548774D01*
X-36339Y-550178D01*
X-37481Y-551627D01*
X-38566Y-553121D01*
X-39592Y-554656D01*
X-40556Y-556230D01*
X-41458Y-557840D01*
X-42296Y-559485D01*
X-43069Y-561161D01*
X-43776Y-562867D01*
X-44414Y-564598D01*
X-44985Y-566354D01*
X-45486Y-568131D01*
X-45917Y-569926D01*
X-46277Y-571736D01*
X-46566Y-573559D01*
X-46783Y-575392D01*
X-46928Y-577233D01*
X-47000Y-579077D01*
X-47000Y-580923D01*
X-46928Y-582767D01*
X-46783Y-584608D01*
X-46566Y-586441D01*
X-46277Y-588264D01*
X-45917Y-590074D01*
X-45486Y-591869D01*
X-44985Y-593646D01*
X-44414Y-595402D01*
X-43776Y-597133D01*
X-43069Y-598839D01*
X-42296Y-600515D01*
X-41458Y-602160D01*
X-40556Y-603770D01*
X-39592Y-605344D01*
X-38566Y-606879D01*
X-37481Y-608373D01*
X-36339Y-609822D01*
X-35140Y-611226D01*
X-33887Y-612581D01*
X-32581Y-613887D01*
X-31226Y-615140D01*
X-29822Y-616339D01*
X-28373Y-617481D01*
X-26879Y-618566D01*
X-25344Y-619592D01*
X-23770Y-620556D01*
X-22160Y-621458D01*
X-20515Y-622296D01*
X-18839Y-623069D01*
X-17133Y-623776D01*
X-15402Y-624414D01*
X-13646Y-624985D01*
X-11869Y-625486D01*
X-10074Y-625917D01*
X-8264Y-626277D01*
X-6441Y-626566D01*
X-4608Y-626783D01*
X-2767Y-626928D01*
X-923Y-627000D01*
X923Y-627000D01*
X2767Y-626928D01*
X4608Y-626783D01*
X6441Y-626566D01*
X8264Y-626277D01*
X10074Y-625917D01*
X11869Y-625486D01*
X13646Y-624985D01*
X15402Y-624414D01*
X17133Y-623776D01*
X18839Y-623069D01*
X20515Y-622296D01*
X22160Y-621458D01*
X23770Y-620556D01*
X25344Y-619592D01*
X26879Y-618566D01*
X28373Y-617481D01*
X29822Y-616339D01*
X31226Y-615140D01*
X32581Y-613887D01*
X33887Y-612581D01*
X35140Y-611226D01*
X36339Y-609822D01*
X37481Y-608373D01*
X38566Y-606879D01*
X39592Y-605344D01*
X40556Y-603770D01*
X41458Y-602160D01*
X42296Y-600515D01*
X43069Y-598839D01*
X43776Y-597133D01*
X44414Y-595402D01*
X44985Y-593646D01*
X45486Y-591869D01*
X45917Y-590074D01*
X46277Y-588264D01*
X46566Y-586441D01*
X46783Y-584608D01*
X46928Y-582767D01*
X47000Y-580923D01*
M02*
