  0
SECTION
  2
HEADER
  9
$INSBASE
 10
0.0000
 20
0.0000
  9
$EXTMIN
 10
-57.818376618407356
 20
-57.818376618407356
  9
$EXTMAX
 10
57.818376618407356
 20
57.818376618407356
  9
$LIMMIN
 10
-57.818376618407356
 20
-57.818376618407356
  9
$LIMMAX
 10
57.818376618407356
 20
57.818376618407356
  9
$TEXTSTYLE
  7
STANDARD
  9
$CLAYER
  8
default
  0
ENDSEC
  0
SECTION
  2
TABLES
  0
TABLE
  2
LTYPE
 70
4948253
  0
LTYPE
  2
CONTINUOUS
 70
    64
  3
Solid line
 72
    65
 73
     0
 40
0.0
  0
ENDTAB
  0
TABLE
  2
LAYER
 70
     5
  0
LAYER
  2
default
 70
    64
 62
     7
  6
CONTINUOUS
  0
ENDTAB
  0
TABLE
  2
STYLE
 70
     1
  0
STYLE
  2
STANDARD
 70
     0
 40
0.0
 41
1.0
 50
0.0
 71
     0
 42
0.2
  3
txt
  4

  0
ENDTAB
  0
TABLE
  2
VIEW
 70
     0
  0
ENDTAB
  0
ENDSEC
  0
SECTION
  2
BLOCKS
  0
ENDSEC
  0
SECTION
  2
ENTITIES
  0
LINE
  8
default
 10
-54
 20
-54
 30
0.0
 11
-54
 21
54
 31
0.0
  0
LINE
  8
default
 10
-54
 20
54
 30
0.0
 11
54
 21
54
 31
0.0
  0
LINE
  8
default
 10
54
 20
54
 30
0.0
 11
54
 21
-54
 31
0.0
  0
LINE
  8
default
 10
54
 20
-54
 30
0.0
 11
-54
 21
-54
 31
0.0
  0
LINE
  8
default
 10
7.4166756410894337
 20
14.263022365193773
 30
0.0
 11
6.4276619462672731
 21
12.133037064811974
 31
0.0
  0
LINE
  8
default
 10
2.927675041217598
 20
13.528555519947215
 30
0.0
 11
1.8992176782828674
 21
15.255035846721704
 31
0.0
  0
LINE
  8
default
 10
0
 20
14.123679540626389
 30
0.0
 11
1.0284573629347309
 21
12.3971992138519
 31
0.0
  0
LINE
  8
default
 10
3.6856923784814555
 20
16.319231615780033
 30
0.0
 11
1.8992176782828674
 21
15.255035846721704
 31
0.0
  0
LINE
  8
default
 10
1.8992176782828674
 20
15.255035846721704
 30
0.0
 11
0
 21
14.123679540626389
 31
0.0
  0
LINE
  8
default
 10
3.6856923784814555
 20
13.980103388550887
 30
0.0
 11
2.927675041217598
 21
13.528555519947215
 31
0.0
  0
LINE
  8
default
 10
2.927675041217598
 20
13.528555519947215
 30
0.0
 11
1.0284573629347309
 21
12.3971992138519
 31
0.0
  0
LINE
  8
default
 10
1.0284573629347309
 20
12.3971992138519
 30
0.0
 11
0
 21
11.784551313397243
 31
0.0
  0
LINE
  8
default
 10
-7.4166756410894337
 20
14.263022365193773
 30
0.0
 11
-6.4276619462672731
 21
12.133037064811974
 31
0.0
  0
LINE
  8
default
 10
-2.927675041217598
 20
13.528555519947215
 30
0.0
 11
-1.8992176782828674
 21
15.255035846721704
 31
0.0
  0
LINE
  8
default
 10
0
 20
14.123679540626389
 30
0.0
 11
-1.0284573629347309
 21
12.3971992138519
 31
0.0
  0
LINE
  8
default
 10
-3.6856923784814555
 20
16.319231615780033
 30
0.0
 11
-1.8992176782828674
 21
15.255035846721704
 31
0.0
  0
LINE
  8
default
 10
-1.8992176782828674
 20
15.255035846721704
 30
0.0
 11
0
 21
14.123679540626389
 31
0.0
  0
LINE
  8
default
 10
-3.6856923784814555
 20
13.980103388550887
 30
0.0
 11
-2.927675041217598
 21
13.528555519947215
 31
0.0
  0
LINE
  8
default
 10
-2.927675041217598
 20
13.528555519947215
 30
0.0
 11
-1.0284573629347309
 21
12.3971992138519
 31
0.0
  0
LINE
  8
default
 10
-1.0284573629347309
 20
12.3971992138519
 30
0.0
 11
0
 21
11.784551313397243
 31
0.0
  0
LINE
  8
default
 10
-8.6438018824586997
 20
13.554540699409575
 30
0.0
 11
-7.2936873500517123
 21
11.633037064811974
 31
0.0
  0
LINE
  8
default
 10
-10.252235236173684
 20
9.2997187196937023
 30
0.0
 11
-12.261639739761815
 21
9.2722886800703179
 31
0.0
  0
LINE
  8
default
 10
-12.231465277092983
 20
7.0618397703131963
 30
0.0
 11
-10.222060773504852
 21
7.0892698099365816
 31
0.0
  0
LINE
  8
default
 10
-12.290022960266953
 20
11.351519038189648
 30
0.0
 11
-12.261639739761815
 21
9.2722886800703179
 31
0.0
  0
LINE
  8
default
 10
-12.261639739761815
 20
9.2722886800703179
 30
0.0
 11
-12.231465277092983
 21
7.0618397703131963
 31
0.0
  0
LINE
  8
default
 10
-10.264278492777253
 20
10.181954924575075
 30
0.0
 11
-10.252235236173684
 21
9.2997187196937023
 31
0.0
  0
LINE
  8
default
 10
-10.252235236173684
 20
9.2997187196937023
 30
0.0
 11
-10.222060773504852
 21
7.0892698099365816
 31
0.0
  0
LINE
  8
default
 10
-10.222060773504852
 20
7.0892698099365816
 30
0.0
 11
-10.205720809603283
 21
5.8922756566986223
 31
0.0
  0
LINE
  8
default
 10
-16.060477523548133
 20
0.70848166578420191
 30
0.0
 11
-13.721349296318987
 21
0.50000000000000355
 31
0.0
  0
LINE
  8
default
 10
-13.179910277391281
 20
4.2288368002535162
 30
0.0
 11
-14.160857418044682
 21
5.9827471666513894
 31
0.0
  0
LINE
  8
default
 10
-12.231465277092983
 20
7.0618397703131963
 30
0.0
 11
-11.250518136439583
 21
5.3079294039153222
 31
0.0
  0
LINE
  8
default
 10
-15.975715338748408
 20
4.9677125775903885
 30
0.0
 11
-14.160857418044682
 21
5.9827471666513894
 31
0.0
  0
LINE
  8
default
 10
-14.160857418044682
 20
5.9827471666513894
 30
0.0
 11
-12.231465277092983
 21
7.0618397703131963
 31
0.0
  0
LINE
  8
default
 10
-13.949970871258708
 20
3.798148463975815
 30
0.0
 11
-13.179910277391281
 21
4.2288368002535162
 31
0.0
  0
LINE
  8
default
 10
-13.179910277391281
 20
4.2288368002535162
 30
0.0
 11
-11.250518136439583
 21
5.3079294039153222
 31
0.0
  0
LINE
  8
default
 10
-11.250518136439583
 20
5.3079294039153222
 30
0.0
 11
-10.205720809603283
 21
5.8922756566986223
 31
0.0
  0
LINE
  8
default
 10
-16.060477523548133
 20
-0.70848166578419569
 30
0.0
 11
-13.721349296318987
 21
-0.49999999999999822
 31
0.0
  0
LINE
  8
default
 10
-13.179910277391283
 20
-4.2288368002535108
 30
0.0
 11
-14.160857418044683
 21
-5.9827471666513841
 31
0.0
  0
LINE
  8
default
 10
-12.231465277092985
 20
-7.061839770313191
 30
0.0
 11
-11.250518136439583
 21
-5.3079294039153178
 31
0.0
  0
LINE
  8
default
 10
-15.975715338748408
 20
-4.9677125775903823
 30
0.0
 11
-14.160857418044683
 21
-5.9827471666513841
 31
0.0
  0
LINE
  8
default
 10
-14.160857418044683
 20
-5.9827471666513841
 30
0.0
 11
-12.231465277092985
 21
-7.061839770313191
 31
0.0
  0
LINE
  8
default
 10
-13.94997087125871
 20
-3.7981484639758101
 30
0.0
 11
-13.179910277391283
 21
-4.2288368002535108
 31
0.0
  0
LINE
  8
default
 10
-13.179910277391283
 20
-4.2288368002535108
 30
0.0
 11
-11.250518136439583
 21
-5.3079294039153178
 31
0.0
  0
LINE
  8
default
 10
-11.250518136439583
 20
-5.3079294039153178
 30
0.0
 11
-10.205720809603285
 21
-5.8922756566986187
 31
0.0
  0
LINE
  8
default
 10
-8.6438018824587033
 20
-13.554540699409571
 30
0.0
 11
-7.2936873500517159
 21
-11.633037064811971
 31
0.0
  0
LINE
  8
default
 10
-10.252235236173686
 20
-9.2997187196936988
 30
0.0
 11
-12.261639739761817
 21
-9.2722886800703126
 31
0.0
  0
LINE
  8
default
 10
-12.231465277092985
 20
-7.061839770313191
 30
0.0
 11
-10.222060773504852
 21
-7.0892698099365772
 31
0.0
  0
LINE
  8
default
 10
-12.290022960266956
 20
-11.351519038189643
 30
0.0
 11
-12.261639739761817
 21
-9.2722886800703126
 31
0.0
  0
LINE
  8
default
 10
-12.261639739761817
 20
-9.2722886800703126
 30
0.0
 11
-12.231465277092985
 21
-7.061839770313191
 31
0.0
  0
LINE
  8
default
 10
-10.264278492777255
 20
-10.181954924575072
 30
0.0
 11
-10.252235236173686
 21
-9.2997187196936988
 31
0.0
  0
LINE
  8
default
 10
-10.252235236173686
 20
-9.2997187196936988
 30
0.0
 11
-10.222060773504852
 21
-7.0892698099365772
 31
0.0
  0
LINE
  8
default
 10
-10.222060773504852
 20
-7.0892698099365772
 30
0.0
 11
-10.205720809603285
 21
-5.8922756566986187
 31
0.0
  0
LINE
  8
default
 10
-7.4166756410894354
 20
-14.263022365193772
 30
0.0
 11
-6.4276619462672748
 21
-12.133037064811974
 31
0.0
  0
LINE
  8
default
 10
-2.9276750412175998
 20
-13.528555519947215
 30
0.0
 11
-1.8992176782828691
 21
-15.255035846721704
 31
0.0
  0
LINE
  8
default
 10
-1.7296518941611066e-015
 20
-14.123679540626389
 30
0.0
 11
-1.0284573629347324
 21
-12.3971992138519
 31
0.0
  0
LINE
  8
default
 10
-3.6856923784814577
 20
-16.319231615780033
 30
0.0
 11
-1.8992176782828691
 21
-15.255035846721704
 31
0.0
  0
LINE
  8
default
 10
-1.8992176782828691
 20
-15.255035846721704
 30
0.0
 11
-1.7296518941611066e-015
 21
-14.123679540626389
 31
0.0
  0
LINE
  8
default
 10
-3.6856923784814573
 20
-13.980103388550887
 30
0.0
 11
-2.9276750412175998
 21
-13.528555519947215
 31
0.0
  0
LINE
  8
default
 10
-2.9276750412175998
 20
-13.528555519947215
 30
0.0
 11
-1.0284573629347324
 21
-12.3971992138519
 31
0.0
  0
LINE
  8
default
 10
-1.0284573629347324
 20
-12.3971992138519
 30
0.0
 11
-1.4431913045339671e-015
 21
-11.784551313397243
 31
0.0
  0
LINE
  8
default
 10
7.4166756410894319
 20
-14.263022365193775
 30
0.0
 11
6.4276619462672713
 21
-12.133037064811974
 31
0.0
  0
LINE
  8
default
 10
2.9276750412175963
 20
-13.528555519947215
 30
0.0
 11
1.8992176782828656
 21
-15.255035846721704
 31
0.0
  0
LINE
  8
default
 10
-1.7296518941611066e-015
 20
-14.123679540626389
 30
0.0
 11
1.0284573629347293
 21
-12.3971992138519
 31
0.0
  0
LINE
  8
default
 10
3.6856923784814533
 20
-16.319231615780033
 30
0.0
 11
1.8992176782828656
 21
-15.255035846721704
 31
0.0
  0
LINE
  8
default
 10
1.8992176782828656
 20
-15.255035846721704
 30
0.0
 11
-1.7296518941611066e-015
 21
-14.123679540626389
 31
0.0
  0
LINE
  8
default
 10
3.6856923784814537
 20
-13.980103388550887
 30
0.0
 11
2.9276750412175963
 21
-13.528555519947215
 31
0.0
  0
LINE
  8
default
 10
2.9276750412175963
 20
-13.528555519947215
 30
0.0
 11
1.0284573629347293
 21
-12.3971992138519
 31
0.0
  0
LINE
  8
default
 10
1.0284573629347293
 20
-12.3971992138519
 30
0.0
 11
-1.4431913045339671e-015
 21
-11.784551313397243
 31
0.0
  0
LINE
  8
default
 10
8.6438018824586926
 20
-13.554540699409579
 30
0.0
 11
7.293687350051707
 21
-11.633037064811976
 31
0.0
  0
LINE
  8
default
 10
10.252235236173679
 20
-9.2997187196937059
 30
0.0
 11
12.26163973976181
 21
-9.2722886800703233
 31
0.0
  0
LINE
  8
default
 10
12.23146527709298
 20
-7.0618397703132008
 30
0.0
 11
10.222060773504849
 21
-7.0892698099365843
 31
0.0
  0
LINE
  8
default
 10
12.290022960266947
 20
-11.351519038189654
 30
0.0
 11
12.26163973976181
 21
-9.2722886800703233
 31
0.0
  0
LINE
  8
default
 10
12.26163973976181
 20
-9.2722886800703233
 30
0.0
 11
12.23146527709298
 21
-7.0618397703132008
 31
0.0
  0
LINE
  8
default
 10
10.264278492777247
 20
-10.181954924575079
 30
0.0
 11
10.252235236173679
 21
-9.2997187196937059
 31
0.0
  0
LINE
  8
default
 10
10.252235236173679
 20
-9.2997187196937059
 30
0.0
 11
10.222060773504849
 21
-7.0892698099365843
 31
0.0
  0
LINE
  8
default
 10
10.222060773504849
 20
-7.0892698099365843
 30
0.0
 11
10.205720809603282
 21
-5.8922756566986267
 31
0.0
  0
LINE
  8
default
 10
16.060477523548133
 20
-0.70848166578420813
 30
0.0
 11
13.721349296318985
 21
-0.50000000000000799
 31
0.0
  0
LINE
  8
default
 10
13.179910277391279
 20
-4.2288368002535215
 30
0.0
 11
14.16085741804468
 21
-5.9827471666513947
 31
0.0
  0
LINE
  8
default
 10
12.23146527709298
 20
-7.0618397703132008
 30
0.0
 11
11.250518136439579
 21
-5.3079294039153266
 31
0.0
  0
LINE
  8
default
 10
15.975715338748406
 20
-4.9677125775903939
 30
0.0
 11
14.16085741804468
 21
-5.9827471666513947
 31
0.0
  0
LINE
  8
default
 10
14.16085741804468
 20
-5.9827471666513947
 30
0.0
 11
12.23146527709298
 21
-7.0618397703132008
 31
0.0
  0
LINE
  8
default
 10
13.949970871258706
 20
-3.7981484639758203
 30
0.0
 11
13.179910277391279
 21
-4.2288368002535215
 31
0.0
  0
LINE
  8
default
 10
13.179910277391279
 20
-4.2288368002535215
 30
0.0
 11
11.250518136439579
 21
-5.3079294039153266
 31
0.0
  0
LINE
  8
default
 10
11.250518136439579
 20
-5.3079294039153266
 30
0.0
 11
10.205720809603282
 21
-5.8922756566986267
 31
0.0
  0
LINE
  8
default
 10
16.060477523548133
 20
0.70848166578420191
 30
0.0
 11
13.721349296318987
 21
0.50000000000000355
 31
0.0
  0
LINE
  8
default
 10
13.179910277391281
 20
4.2288368002535162
 30
0.0
 11
14.160857418044682
 21
5.9827471666513894
 31
0.0
  0
LINE
  8
default
 10
12.231465277092983
 20
7.0618397703131963
 30
0.0
 11
11.250518136439583
 21
5.3079294039153222
 31
0.0
  0
LINE
  8
default
 10
15.975715338748408
 20
4.9677125775903885
 30
0.0
 11
14.160857418044682
 21
5.9827471666513894
 31
0.0
  0
LINE
  8
default
 10
14.160857418044682
 20
5.9827471666513894
 30
0.0
 11
12.231465277092983
 21
7.0618397703131963
 31
0.0
  0
LINE
  8
default
 10
13.949970871258708
 20
3.798148463975815
 30
0.0
 11
13.179910277391281
 21
4.2288368002535162
 31
0.0
  0
LINE
  8
default
 10
13.179910277391281
 20
4.2288368002535162
 30
0.0
 11
11.250518136439583
 21
5.3079294039153222
 31
0.0
  0
LINE
  8
default
 10
11.250518136439583
 20
5.3079294039153222
 30
0.0
 11
10.205720809603283
 21
5.8922756566986223
 31
0.0
  0
LINE
  8
default
 10
8.6438018824586997
 20
13.554540699409575
 30
0.0
 11
7.2936873500517123
 21
11.633037064811974
 31
0.0
  0
LINE
  8
default
 10
10.252235236173684
 20
9.2997187196937023
 30
0.0
 11
12.261639739761815
 21
9.2722886800703179
 31
0.0
  0
LINE
  8
default
 10
12.231465277092983
 20
7.0618397703131963
 30
0.0
 11
10.222060773504852
 21
7.0892698099365816
 31
0.0
  0
LINE
  8
default
 10
12.290022960266953
 20
11.351519038189648
 30
0.0
 11
12.261639739761815
 21
9.2722886800703179
 31
0.0
  0
LINE
  8
default
 10
12.261639739761815
 20
9.2722886800703179
 30
0.0
 11
12.231465277092983
 21
7.0618397703131963
 31
0.0
  0
LINE
  8
default
 10
10.264278492777253
 20
10.181954924575075
 30
0.0
 11
10.252235236173684
 21
9.2997187196937023
 31
0.0
  0
LINE
  8
default
 10
10.252235236173684
 20
9.2997187196937023
 30
0.0
 11
10.222060773504852
 21
7.0892698099365816
 31
0.0
  0
LINE
  8
default
 10
10.222060773504852
 20
7.0892698099365816
 30
0.0
 11
10.205720809603283
 21
5.8922756566986223
 31
0.0
  0
ARC
  8
default
 10
0
 20
-4.4408920985006262e-016
 30
0
 40
9
 50
2.8271597168564595e-015
 51
59.999999999999993
  0
ARC
  8
default
 10
0
 20
-8.8817841970012523e-016
 30
0
 40
9
 50
59.999999999999993
 51
119.99999999999999
  0
ARC
  8
default
 10
-8.8817841970012523e-016
 20
0
 30
0
 40
9
 50
119.99999999999999
 51
180
  0
ARC
  8
default
 10
0
 20
4.4408920985006262e-016
 30
0
 40
9
 50
180
 51
240
  0
ARC
  8
default
 10
0
 20
8.8817841970012523e-016
 30
0
 40
9
 50
240
 51
300
  0
ARC
  8
default
 10
8.8817841970012523e-016
 20
0
 30
0
 40
9
 50
300
 51
0
  0
ARC
  8
default
 10
1.5784343947820338
 20
15.573090834684228
 30
0
 40
2.8950549624013391
 50
36.488382062741124
 51
123.03952254390482
  0
ARC
  8
default
 10
9.9631995235865851
 20
22.907421972560307
 30
0
 40
8.2578934284949757
 50
222.81895809267368
 51
260.00709728023725
  0
ARC
  8
default
 10
8.607181402877103
 20
20.836221742369631
 30
0
 40
6.6801387725821044
 50
222.5460128706745
 51
259.73415205823801
  0
ARC
  8
default
 10
7.8018403156887128
 20
17.131764348437763
 30
0
 40
5.1841721274520411
 50
217.44063550582896
 51
254.62877469339247
  0
ARC
  8
default
 10
-1.5784343947820341
 20
15.573090834684228
 30
0
 40
2.8950549624013391
 50
56.96047745609517
 51
143.51161793725888
  0
ARC
  8
default
 10
-9.9631995235865851
 20
22.907421972560307
 30
0
 40
8.2578934284949757
 50
279.99290271976275
 51
317.18104190732629
  0
ARC
  8
default
 10
-8.607181402877103
 20
20.836221742369631
 30
0
 40
6.6801387725821044
 50
280.26584794176199
 51
317.45398712932547
  0
ARC
  8
default
 10
-7.8018403156887128
 20
17.131764348437763
 30
0
 40
5.1841721274520411
 50
285.37122530660753
 51
322.55936449417101
  0
ARC
  8
default
 10
-12.697475080888132
 20
9.1535097014304725
 30
0
 40
2.8950549624013395
 50
96.488382062741096
 51
183.03952254390481
  0
ARC
  8
default
 10
-14.856809601653769
 20
20.082094876679161
 30
0
 40
8.2578934284949792
 50
282.81895809267371
 51
320.00709728023719
  0
ARC
  8
default
 10
-13.741106646339208
 20
17.87214862105737
 30
0
 40
6.6801387725821044
 50
282.54601287067453
 51
319.73415205823807
  0
ARC
  8
default
 10
-10.935622979551306
 20
15.322474083874914
 30
0
 40
5.184172127452042
 50
277.44063550582894
 51
314.62877469339247
  0
ARC
  8
default
 10
-14.275909475670165
 20
6.4195811332537582
 30
0
 40
2.89505496240134
 50
116.96047745609518
 51
203.51161793725885
  0
ARC
  8
default
 10
-24.820009125240354
 20
2.825327095881156
 30
0
 40
8.2578934284949757
 50
339.99290271976275
 51
17.1810419073263
  0
ARC
  8
default
 10
-22.348288049216311
 20
2.9640731213122651
 30
0
 40
6.6801387725821044
 50
340.26584794176193
 51
17.453987129325476
  0
ARC
  8
default
 10
-18.737463295240019
 20
1.809290264562855
 30
0
 40
5.1841721274520394
 50
345.37122530660747
 51
22.559364494171014
  0
ARC
  8
default
 10
-14.275909475670167
 20
-6.4195811332537538
 30
0
 40
2.8950549624013395
 50
156.48838206274112
 51
243.03952254390481
  0
ARC
  8
default
 10
-24.820009125240361
 20
-2.8253270958811494
 30
0
 40
8.2578934284949828
 50
342.81895809267371
 51
20.007097280237229
  0
ARC
  8
default
 10
-22.348288049216311
 20
-2.9640731213122589
 30
0
 40
6.6801387725821044
 50
342.54601287067453
 51
19.734152058238049
  0
ARC
  8
default
 10
-18.737463295240019
 20
-1.8092902645628473
 30
0
 40
5.1841721274520411
 50
337.44063550582894
 51
14.628774693392481
  0
ARC
  8
default
 10
-12.697475080888132
 20
-9.1535097014304689
 30
0
 40
2.8950549624013395
 50
176.96047745609516
 51
263.51161793725885
  0
ARC
  8
default
 10
-14.856809601653774
 20
-20.08209487667915
 30
0
 40
8.2578934284949739
 50
39.992902719762768
 51
77.181041907326275
  0
ARC
  8
default
 10
-13.741106646339215
 20
-17.872148621057367
 30
0
 40
6.6801387725821044
 50
40.26584794176194
 51
77.453987129325455
  0
ARC
  8
default
 10
-10.935622979551308
 20
-15.322474083874907
 30
0
 40
5.1841721274520394
 50
45.371225306607506
 51
82.559364494171021
  0
ARC
  8
default
 10
-1.5784343947820361
 20
-15.573090834684228
 30
0
 40
2.8950549624013391
 50
216.48838206274112
 51
303.03952254390481
  0
ARC
  8
default
 10
-9.9631995235865993
 20
-22.907421972560314
 30
0
 40
8.2578934284949881
 50
42.818958092673682
 51
80.007097280237204
  0
ARC
  8
default
 10
-8.6071814028771083
 20
-20.836221742369631
 30
0
 40
6.6801387725821062
 50
42.546012870674488
 51
79.73415205823801
  0
ARC
  8
default
 10
-7.8018403156887146
 20
-17.131764348437763
 30
0
 40
5.1841721274520411
 50
37.440635505828979
 51
74.628774693392486
  0
ARC
  8
default
 10
1.5784343947820318
 20
-15.573090834684228
 30
0
 40
2.8950549624013391
 50
236.96047745609516
 51
323.51161793725885
  0
ARC
  8
default
 10
9.9631995235865816
 20
-22.907421972560314
 30
0
 40
8.2578934284949757
 50
99.992902719762753
 51
137.18104190732626
  0
ARC
  8
default
 10
8.6071814028770977
 20
-20.836221742369634
 30
0
 40
6.6801387725821035
 50
100.26584794176193
 51
137.45398712932544
  0
ARC
  8
default
 10
7.8018403156887111
 20
-17.131764348437763
 30
0
 40
5.1841721274520411
 50
105.37122530660753
 51
142.55936449417104
  0
ARC
  8
default
 10
12.697475080888127
 20
-9.153509701430476
 30
0
 40
2.8950549624013391
 50
276.4883820627411
 51
3.0395225439047855
  0
ARC
  8
default
 10
14.856809601653763
 20
-20.082094876679157
 30
0
 40
8.2578934284949739
 50
102.81895809267371
 51
140.00709728023722
  0
ARC
  8
default
 10
13.741106646339201
 20
-17.872148621057377
 30
0
 40
6.6801387725821044
 50
102.54601287067452
 51
139.73415205823804
  0
ARC
  8
default
 10
10.935622979551297
 20
-15.322474083874916
 30
0
 40
5.1841721274520403
 50
97.440635505828922
 51
134.62877469339247
  0
ARC
  8
default
 10
14.275909475670163
 20
-6.4195811332537644
 30
0
 40
2.8950549624013386
 50
296.96047745609513
 51
23.511617937258855
  0
ARC
  8
default
 10
24.820009125240354
 20
-2.825327095881168
 30
0
 40
8.2578934284949774
 50
159.99290271976275
 51
197.18104190732626
  0
ARC
  8
default
 10
22.348288049216311
 20
-2.9640731213122735
 30
0
 40
6.6801387725821035
 50
160.26584794176193
 51
197.45398712932544
  0
ARC
  8
default
 10
18.737463295240019
 20
-1.8092902645628599
 30
0
 40
5.1841721274520411
 50
165.37122530660753
 51
202.55936449417101
  0
ARC
  8
default
 10
14.275909475670165
 20
6.4195811332537582
 30
0
 40
2.89505496240134
 50
336.48838206274115
 51
63.039522543904837
  0
ARC
  8
default
 10
24.820009125240379
 20
2.8253270958811489
 30
0
 40
8.2578934284950005
 50
162.81895809267371
 51
200.00709728023722
  0
ARC
  8
default
 10
22.348288049216311
 20
2.9640731213122651
 30
0
 40
6.6801387725821044
 50
162.54601287067453
 51
199.73415205823804
  0
ARC
  8
default
 10
18.737463295240019
 20
1.809290264562855
 30
0
 40
5.1841721274520394
 50
157.44063550582899
 51
194.62877469339253
  0
ARC
  8
default
 10
12.697475080888132
 20
9.1535097014304743
 30
0
 40
2.8950549624013395
 50
356.96047745609513
 51
83.511617937258904
  0
ARC
  8
default
 10
14.856809601653769
 20
20.082094876679161
 30
0
 40
8.2578934284949792
 50
219.99290271976278
 51
257.18104190732629
  0
ARC
  8
default
 10
13.741106646339208
 20
17.87214862105737
 30
0
 40
6.6801387725821044
 50
220.26584794176196
 51
257.45398712932547
  0
ARC
  8
default
 10
10.935622979551306
 20
15.322474083874914
 30
0
 40
5.184172127452042
 50
225.37122530660753
 51
262.55936449417106
  0
ARC
  8
default
 10
0
 20
0
 30
0
 40
20.5
 50
0
 51
180
  0
ARC
  8
default
 10
0
 20
0
 30
0
 40
20.5
 50
180
 51
0
  0
ARC
  8
default
 10
0
 20
0
 30
0
 40
23.5
 50
0
 51
180
  0
ARC
  8
default
 10
0
 20
0
 30
0
 40
23.5
 50
180
 51
0
  0
ENDSEC
  0
EOF
