  0
SECTION
  2
HEADER
  9
$INSBASE
 10
0.0000
 20
0.0000
  9
$EXTMIN
 10
-57.818376618407356
 20
-57.818376618407356
  9
$EXTMAX
 10
57.818376618407356
 20
57.818376618407356
  9
$LIMMIN
 10
-57.818376618407356
 20
-57.818376618407356
  9
$LIMMAX
 10
57.818376618407356
 20
57.818376618407356
  9
$TEXTSTYLE
  7
STANDARD
  9
$CLAYER
  8
default
  0
ENDSEC
  0
SECTION
  2
TABLES
  0
TABLE
  2
LTYPE
 70
4948253
  0
LTYPE
  2
CONTINUOUS
 70
    64
  3
Solid line
 72
    65
 73
     0
 40
0.0
  0
ENDTAB
  0
TABLE
  2
LAYER
 70
     5
  0
LAYER
  2
default
 70
    64
 62
     7
  6
CONTINUOUS
  0
ENDTAB
  0
TABLE
  2
STYLE
 70
     1
  0
STYLE
  2
STANDARD
 70
     0
 40
0.0
 41
1.0
 50
0.0
 71
     0
 42
0.2
  3
txt
  4

  0
ENDTAB
  0
TABLE
  2
VIEW
 70
     0
  0
ENDTAB
  0
ENDSEC
  0
SECTION
  2
BLOCKS
  0
ENDSEC
  0
SECTION
  2
ENTITIES
  0
LINE
  8
default
 10
-54
 20
-54
 30
0.0
 11
-54
 21
54
 31
0.0
  0
LINE
  8
default
 10
-54
 20
54
 30
0.0
 11
54
 21
54
 31
0.0
  0
LINE
  8
default
 10
54
 20
54
 30
0.0
 11
54
 21
-54
 31
0.0
  0
LINE
  8
default
 10
54
 20
-54
 30
0.0
 11
-54
 21
-54
 31
0.0
  0
LINE
  8
default
 10
7.2335296866498844
 20
14.326077972124867
 30
0.0
 11
6.1395682023793592
 21
11.634044063055372
 31
0.0
  0
LINE
  8
default
 10
4.8512865850617102
 20
14.045122332377787
 30
0.0
 11
4.5396199864304094
 21
14.045122332377787
 31
0.0
  0
LINE
  8
default
 10
4.5396199864304094
 20
14.045122332377787
 30
0.0
 11
0
 21
14.045122332377787
 31
0.0
  0
LINE
  8
default
 10
4.8512865850617102
 20
11.166771837139216
 30
0.0
 11
4.5396199864304094
 21
11.166771837139216
 31
0.0
  0
LINE
  8
default
 10
4.5396199864304094
 20
11.166771837139216
 30
0.0
 11
0
 21
11.166771837139216
 31
0.0
  0
LINE
  8
default
 10
4.5396199864304094
 20
11.166771837139216
 30
0.0
 11
4.5396199864304094
 21
14.045122332377787
 31
0.0
  0
LINE
  8
default
 10
-7.2335296866498844
 20
14.326077972124867
 30
0.0
 11
-6.1395682023793592
 21
11.634044063055372
 31
0.0
  0
LINE
  8
default
 10
-4.8512865850617102
 20
14.045122332377787
 30
0.0
 11
-4.5396199864304094
 21
14.045122332377787
 31
0.0
  0
LINE
  8
default
 10
-4.5396199864304094
 20
14.045122332377787
 30
0.0
 11
0
 21
14.045122332377787
 31
0.0
  0
LINE
  8
default
 10
-4.8512865850617102
 20
11.166771837139216
 30
0.0
 11
-4.5396199864304094
 21
11.166771837139216
 31
0.0
  0
LINE
  8
default
 10
-4.5396199864304094
 20
11.166771837139216
 30
0.0
 11
0
 21
11.166771837139216
 31
0.0
  0
LINE
  8
default
 10
-4.5396199864304094
 20
11.166771837139216
 30
0.0
 11
-4.5396199864304094
 21
14.045122332377787
 31
0.0
  0
LINE
  8
default
 10
-8.789982617131848
 20
13.427459453730126
 30
0.0
 11
-7.0055936061637976
 21
11.13404406305537
 31
0.0
  0
LINE
  8
default
 10
-9.7377894465684527
 20
11.223898589890993
 30
0.0
 11
-9.8936227458841035
 21
10.953987397965198
 31
0.0
  0
LINE
  8
default
 10
-9.8936227458841035
 20
10.953987397965198
 30
0.0
 11
-12.163432739099308
 21
7.0225611661888951
 31
0.0
  0
LINE
  8
default
 10
-7.2450647966963313
 20
9.7847233422717075
 30
0.0
 11
-7.4008980960119821
 21
9.5148121503459109
 31
0.0
  0
LINE
  8
default
 10
-7.4008980960119821
 20
9.5148121503459109
 30
0.0
 11
-9.6707080892271868
 21
5.5833859185696086
 31
0.0
  0
LINE
  8
default
 10
-7.4008980960119821
 20
9.5148121503459109
 30
0.0
 11
-9.8936227458841035
 21
10.953987397965198
 31
0.0
  0
LINE
  8
default
 10
-16.023512303781732
 20
0.89861851839474571
 30
0.0
 11
-13.145161808543159
 21
0.50000000000000266
 31
0.0
  0
LINE
  8
default
 10
-14.589076031630164
 20
2.8212237424867972
 30
0.0
 11
-14.433242732314513
 21
3.091134934412592
 31
0.0
  0
LINE
  8
default
 10
-14.433242732314513
 20
3.091134934412592
 30
0.0
 11
-12.163432739099308
 21
7.0225611661888951
 31
0.0
  0
LINE
  8
default
 10
-12.096351381758042
 20
1.3820484948675107
 30
0.0
 11
-11.940518082442392
 21
1.6519596867933055
 31
0.0
  0
LINE
  8
default
 10
-11.940518082442392
 20
1.6519596867933055
 30
0.0
 11
-9.6707080892271868
 21
5.5833859185696086
 31
0.0
  0
LINE
  8
default
 10
-11.940518082442392
 20
1.6519596867933055
 30
0.0
 11
-14.433242732314513
 21
3.091134934412592
 31
0.0
  0
LINE
  8
default
 10
-16.023512303781732
 20
-0.8986185183947395
 30
0.0
 11
-13.145161808543158
 21
-0.49999999999999822
 31
0.0
  0
LINE
  8
default
 10
-14.589076031630164
 20
-2.8212237424867919
 30
0.0
 11
-14.433242732314515
 21
-3.0911349344125862
 31
0.0
  0
LINE
  8
default
 10
-14.433242732314515
 20
-3.0911349344125862
 30
0.0
 11
-12.16343273909931
 21
-7.0225611661888898
 31
0.0
  0
LINE
  8
default
 10
-12.096351381758041
 20
-1.3820484948675071
 30
0.0
 11
-11.940518082442392
 21
-1.6519596867933015
 31
0.0
  0
LINE
  8
default
 10
-11.940518082442392
 20
-1.6519596867933015
 30
0.0
 11
-9.6707080892271868
 21
-5.5833859185696051
 31
0.0
  0
LINE
  8
default
 10
-11.940518082442392
 20
-1.6519596867933015
 30
0.0
 11
-14.433242732314515
 21
-3.0911349344125862
 31
0.0
  0
LINE
  8
default
 10
-8.7899826171318516
 20
-13.427459453730121
 30
0.0
 11
-7.005593606163802
 21
-11.134044063055368
 31
0.0
  0
LINE
  8
default
 10
-9.7377894465684562
 20
-11.223898589890988
 30
0.0
 11
-9.8936227458841053
 21
-10.953987397965193
 31
0.0
  0
LINE
  8
default
 10
-9.8936227458841053
 20
-10.953987397965193
 30
0.0
 11
-12.16343273909931
 21
-7.0225611661888898
 31
0.0
  0
LINE
  8
default
 10
-7.2450647966963331
 20
-9.7847233422717039
 30
0.0
 11
-7.400898096011983
 21
-9.5148121503459091
 31
0.0
  0
LINE
  8
default
 10
-7.400898096011983
 20
-9.5148121503459091
 30
0.0
 11
-9.6707080892271868
 21
-5.5833859185696051
 31
0.0
  0
LINE
  8
default
 10
-7.400898096011983
 20
-9.5148121503459091
 30
0.0
 11
-9.8936227458841053
 21
-10.953987397965193
 31
0.0
  0
LINE
  8
default
 10
-7.2335296866498862
 20
-14.326077972124867
 30
0.0
 11
-6.139568202379361
 21
-11.634044063055372
 31
0.0
  0
LINE
  8
default
 10
-4.851286585061712
 20
-14.045122332377787
 30
0.0
 11
-4.5396199864304112
 21
-14.045122332377787
 31
0.0
  0
LINE
  8
default
 10
-4.5396199864304112
 20
-14.045122332377787
 30
0.0
 11
-1.7200314107979464e-015
 21
-14.045122332377787
 31
0.0
  0
LINE
  8
default
 10
-4.851286585061712
 20
-11.166771837139216
 30
0.0
 11
-4.5396199864304112
 21
-11.166771837139216
 31
0.0
  0
LINE
  8
default
 10
-4.5396199864304112
 20
-11.166771837139216
 30
0.0
 11
-1.367535138716135e-015
 21
-11.166771837139216
 31
0.0
  0
LINE
  8
default
 10
-4.5396199864304112
 20
-11.166771837139216
 30
0.0
 11
-4.5396199864304112
 21
-14.045122332377787
 31
0.0
  0
LINE
  8
default
 10
7.2335296866498826
 20
-14.326077972124867
 30
0.0
 11
6.1395682023793574
 21
-11.634044063055372
 31
0.0
  0
LINE
  8
default
 10
4.8512865850617084
 20
-14.045122332377787
 30
0.0
 11
4.5396199864304076
 21
-14.045122332377787
 31
0.0
  0
LINE
  8
default
 10
4.5396199864304076
 20
-14.045122332377787
 30
0.0
 11
-1.7200314107979464e-015
 21
-14.045122332377787
 31
0.0
  0
LINE
  8
default
 10
4.8512865850617084
 20
-11.166771837139216
 30
0.0
 11
4.5396199864304076
 21
-11.166771837139216
 31
0.0
  0
LINE
  8
default
 10
4.5396199864304076
 20
-11.166771837139216
 30
0.0
 11
-1.367535138716135e-015
 21
-11.166771837139216
 31
0.0
  0
LINE
  8
default
 10
4.5396199864304076
 20
-11.166771837139216
 30
0.0
 11
4.5396199864304076
 21
-14.045122332377787
 31
0.0
  0
LINE
  8
default
 10
8.7899826171318409
 20
-13.427459453730128
 30
0.0
 11
7.005593606163794
 21
-11.134044063055374
 31
0.0
  0
LINE
  8
default
 10
9.7377894465684491
 20
-11.223898589890997
 30
0.0
 11
9.8936227458841
 21
-10.953987397965202
 31
0.0
  0
LINE
  8
default
 10
9.8936227458841
 20
-10.953987397965202
 30
0.0
 11
12.163432739099306
 21
-7.0225611661888996
 31
0.0
  0
LINE
  8
default
 10
7.245064796696326
 20
-9.784723342271711
 30
0.0
 11
7.4008980960119768
 21
-9.5148121503459144
 31
0.0
  0
LINE
  8
default
 10
7.4008980960119768
 20
-9.5148121503459144
 30
0.0
 11
9.6707080892271833
 21
-5.5833859185696131
 31
0.0
  0
LINE
  8
default
 10
7.4008980960119768
 20
-9.5148121503459144
 30
0.0
 11
9.8936227458841
 21
-10.953987397965202
 31
0.0
  0
LINE
  8
default
 10
16.023512303781732
 20
-0.89861851839475193
 30
0.0
 11
13.145161808543159
 21
-0.50000000000000799
 31
0.0
  0
LINE
  8
default
 10
14.589076031630164
 20
-2.8212237424868025
 30
0.0
 11
14.433242732314513
 21
-3.0911349344125978
 31
0.0
  0
LINE
  8
default
 10
14.433242732314513
 20
-3.0911349344125978
 30
0.0
 11
12.163432739099306
 21
-7.0225611661888996
 31
0.0
  0
LINE
  8
default
 10
12.096351381758041
 20
-1.382048494867516
 30
0.0
 11
11.94051808244239
 21
-1.6519596867933113
 31
0.0
  0
LINE
  8
default
 10
11.94051808244239
 20
-1.6519596867933113
 30
0.0
 11
9.6707080892271833
 21
-5.5833859185696131
 31
0.0
  0
LINE
  8
default
 10
11.94051808244239
 20
-1.6519596867933113
 30
0.0
 11
14.433242732314513
 21
-3.0911349344125978
 31
0.0
  0
LINE
  8
default
 10
16.023512303781732
 20
0.89861851839474571
 30
0.0
 11
13.145161808543159
 21
0.50000000000000266
 31
0.0
  0
LINE
  8
default
 10
14.589076031630164
 20
2.8212237424867972
 30
0.0
 11
14.433242732314513
 21
3.091134934412592
 31
0.0
  0
LINE
  8
default
 10
14.433242732314513
 20
3.091134934412592
 30
0.0
 11
12.163432739099308
 21
7.0225611661888951
 31
0.0
  0
LINE
  8
default
 10
12.096351381758042
 20
1.3820484948675107
 30
0.0
 11
11.940518082442392
 21
1.6519596867933055
 31
0.0
  0
LINE
  8
default
 10
11.940518082442392
 20
1.6519596867933055
 30
0.0
 11
9.6707080892271868
 21
5.5833859185696086
 31
0.0
  0
LINE
  8
default
 10
11.940518082442392
 20
1.6519596867933055
 30
0.0
 11
14.433242732314513
 21
3.091134934412592
 31
0.0
  0
LINE
  8
default
 10
8.789982617131848
 20
13.427459453730126
 30
0.0
 11
7.0055936061637976
 21
11.13404406305537
 31
0.0
  0
LINE
  8
default
 10
9.7377894465684527
 20
11.223898589890993
 30
0.0
 11
9.8936227458841035
 21
10.953987397965198
 31
0.0
  0
LINE
  8
default
 10
9.8936227458841035
 20
10.953987397965198
 30
0.0
 11
12.163432739099308
 21
7.0225611661888951
 31
0.0
  0
LINE
  8
default
 10
7.2450647966963313
 20
9.7847233422717075
 30
0.0
 11
7.4008980960119821
 21
9.5148121503459109
 31
0.0
  0
LINE
  8
default
 10
7.4008980960119821
 20
9.5148121503459109
 30
0.0
 11
9.6707080892271868
 21
5.5833859185696086
 31
0.0
  0
LINE
  8
default
 10
7.4008980960119821
 20
9.5148121503459109
 30
0.0
 11
9.8936227458841035
 21
10.953987397965198
 31
0.0
  0
ARC
  8
default
 10
0
 20
-4.4408920985006262e-016
 30
0
 40
9
 50
2.8271597168564595e-015
 51
59.999999999999993
  0
ARC
  8
default
 10
0
 20
-8.8817841970012523e-016
 30
0
 40
9
 50
59.999999999999993
 51
119.99999999999999
  0
ARC
  8
default
 10
-8.8817841970012523e-016
 20
0
 30
0
 40
9
 50
119.99999999999999
 51
180
  0
ARC
  8
default
 10
0
 20
4.4408920985006262e-016
 30
0
 40
9
 50
180
 51
240
  0
ARC
  8
default
 10
0
 20
8.8817841970012523e-016
 30
0
 40
9
 50
240
 51
300
  0
ARC
  8
default
 10
8.8817841970012523e-016
 20
0
 30
0
 40
9
 50
300
 51
0
  0
ARC
  8
default
 10
-77.152174114312146
 20
-120.68934689368965
 30
0
 40
158.7047350029712
 50
58.750773413024497
 51
60.91303633047734
  0
ARC
  8
default
 10
6.103857065020315
 20
4.8873849566803518
 30
0
 40
10.145297813479234
 50
76.270319991719703
 51
95.237404274291322
  0
ARC
  8
default
 10
6.8833543225810416
 20
7.05515687680571
 30
0
 40
7.2793486219549806
 50
87.242704283215659
 51
106.20978856578728
  0
ARC
  8
default
 10
6.8940495993489641
 20
7.5443703404348819
 30
0
 40
4.1586864916540351
 50
100.45265675309534
 51
119.41974103566697
  0
ARC
  8
default
 10
77.152174114312146
 20
-120.68934689368965
 30
0
 40
158.7047350029712
 50
119.08696366952266
 51
121.24922658697551
  0
ARC
  8
default
 10
-6.103857065020315
 20
4.88738495668035
 30
0
 40
10.145297813479234
 50
84.762595725708678
 51
103.7296800082803
  0
ARC
  8
default
 10
-6.8833543225810416
 20
7.05515687680571
 30
0
 40
7.2793486219549806
 50
73.790211434212736
 51
92.757295716784341
  0
ARC
  8
default
 10
-6.8940495993489641
 20
7.5443703404348819
 30
0
 40
4.1586864916540351
 50
60.580258964333041
 51
79.54734324690466
  0
ARC
  8
default
 10
65.943953318931662
 20
-127.16041618703933
 30
0
 40
158.70473500297123
 50
118.75077341302449
 51
120.91303633047734
  0
ARC
  8
default
 10
-1.1806709980489281
 20
7.7297877577168874
 30
0
 40
10.145297813479239
 50
136.2703199917197
 51
155.23740427429129
  0
ARC
  8
default
 10
-2.6682679217077014
 20
9.4887381450074688
 30
0
 40
7.2793486219549814
 50
147.24270428321569
 51
166.20978856578731
  0
ARC
  8
default
 10
-3.0865915706999836
 20
9.7426072582035701
 30
0
 40
4.1586864916540289
 50
160.45265675309525
 51
179.41974103566687
  0
ARC
  8
default
 10
143.09612743324379
 20
6.4710692933496183
 30
0
 40
158.70473500297118
 50
179.08696366952265
 51
181.24922658697548
  0
ARC
  8
default
 10
-7.2845280630692493
 20
-2.8424028010365348
 30
0
 40
10.145297813479232
 50
144.76259572570871
 51
163.72968000828033
  0
ARC
  8
default
 10
-9.551622244288744
 20
-2.4335812682017535
 30
0
 40
7.2793486219549832
 50
133.79021143421272
 51
152.75729571678434
  0
ARC
  8
default
 10
-9.9806411700489441
 20
-2.1982369177686909
 30
0
 40
4.1586864916540334
 50
120.58025896433304
 51
139.54734324690469
  0
ARC
  8
default
 10
143.09612743324382
 20
-6.4710692933496592
 30
0
 40
158.7047350029712
 50
178.75077341302452
 51
180.91303633047733
  0
ARC
  8
default
 10
-7.2845280630692422
 20
2.8424028010365419
 30
0
 40
10.145297813479239
 50
196.27031999171965
 51
215.23740427429126
  0
ARC
  8
default
 10
-9.5516222442887422
 20
2.4335812682017588
 30
0
 40
7.2793486219549832
 50
207.24270428321566
 51
226.20978856578728
  0
ARC
  8
default
 10
-9.9806411700489406
 20
2.1982369177686945
 30
0
 40
4.1586864916540351
 50
220.45265675309531
 51
239.41974103566693
  0
ARC
  8
default
 10
65.943953318931662
 20
127.16041618703926
 30
0
 40
158.70473500297115
 50
239.08696366952265
 51
241.24922658697551
  0
ARC
  8
default
 10
-1.1806709980489334
 20
-7.7297877577168927
 30
0
 40
10.145297813479234
 50
204.76259572570865
 51
223.72968000828027
  0
ARC
  8
default
 10
-2.668267921707705
 20
-9.4887381450074635
 30
0
 40
7.2793486219549814
 50
193.79021143421269
 51
212.75729571678431
  0
ARC
  8
default
 10
-3.0865915706999818
 20
-9.7426072582035754
 30
0
 40
4.1586864916540334
 50
180.58025896433301
 51
199.54734324690463
  0
ARC
  8
default
 10
77.152174114312146
 20
120.68934689368965
 30
0
 40
158.7047350029712
 50
238.75077341302449
 51
240.91303633047733
  0
ARC
  8
default
 10
-6.1038570650203035
 20
-4.8873849566803322
 30
0
 40
10.14529781347925
 50
256.27031999171959
 51
275.23740427429124
  0
ARC
  8
default
 10
-6.8833543225810434
 20
-7.05515687680571
 30
0
 40
7.2793486219549806
 50
267.24270428321563
 51
286.20978856578728
  0
ARC
  8
default
 10
-6.8940495993489659
 20
-7.5443703404348819
 30
0
 40
4.1586864916540351
 50
280.45265675309531
 51
299.41974103566696
  0
ARC
  8
default
 10
-77.152174114312146
 20
120.68934689368965
 30
0
 40
158.7047350029712
 50
299.08696366952267
 51
301.24922658697551
  0
ARC
  8
default
 10
6.1038570650203186
 20
-4.8873849566803536
 30
0
 40
10.14529781347923
 50
264.76259572570865
 51
283.7296800082803
  0
ARC
  8
default
 10
6.8833543225810399
 20
-7.05515687680571
 30
0
 40
7.2793486219549806
 50
253.79021143421272
 51
272.75729571678437
  0
ARC
  8
default
 10
6.8940495993489623
 20
-7.5443703404348819
 30
0
 40
4.1586864916540351
 50
240.58025896433304
 51
259.54734324690469
  0
ARC
  8
default
 10
-65.943953318931619
 20
127.16041618703933
 30
0
 40
158.70473500297118
 50
298.75077341302449
 51
300.91303633047733
  0
ARC
  8
default
 10
1.1806709980489325
 20
-7.7297877577168954
 30
0
 40
10.145297813479232
 50
316.2703199917197
 51
335.23740427429129
  0
ARC
  8
default
 10
2.6682679217077006
 20
-9.4887381450074617
 30
0
 40
7.2793486219549806
 50
327.24270428321563
 51
346.20978856578722
  0
ARC
  8
default
 10
3.0865915706999791
 20
-9.7426072582035772
 30
0
 40
4.158686491654028
 50
340.45265675309531
 51
359.4197410356669
  0
ARC
  8
default
 10
-143.09612743324379
 20
-6.4710692933496237
 30
0
 40
158.70473500297118
 50
359.08696366952262
 51
1.2492265869754862
  0
ARC
  8
default
 10
7.284528063069251
 20
2.8424028010365392
 30
0
 40
10.145297813479234
 50
324.76259572570865
 51
343.72968000828024
  0
ARC
  8
default
 10
9.5516222442887475
 20
2.4335812682017464
 30
0
 40
7.2793486219549788
 50
313.79021143421272
 51
332.75729571678431
  0
ARC
  8
default
 10
9.9806411700489441
 20
2.1982369177686909
 30
0
 40
4.1586864916540378
 50
300.58025896433298
 51
319.54734324690457
  0
ARC
  8
default
 10
-143.09612743324379
 20
6.4710692933496183
 30
0
 40
158.70473500297118
 50
358.75077341302449
 51
0.91303633047735833
  0
ARC
  8
default
 10
7.2845280630692049
 20
-2.8424028010365419
 30
0
 40
10.145297813479273
 50
16.270319991719568
 51
35.237404274291187
  0
ARC
  8
default
 10
9.551622244288744
 20
-2.433581268201753
 30
0
 40
7.2793486219549832
 50
27.242704283215673
 51
46.209788565787278
  0
ARC
  8
default
 10
9.9806411700489441
 20
-2.1982369177686909
 30
0
 40
4.1586864916540334
 50
40.45265675309534
 51
59.419741035666959
  0
ARC
  8
default
 10
-65.943953318931662
 20
-127.16041618703932
 30
0
 40
158.70473500297123
 50
59.086963669522667
 51
61.24922658697551
  0
ARC
  8
default
 10
1.1806709980489281
 20
7.7297877577168874
 30
0
 40
10.145297813479239
 50
24.762595725708699
 51
43.729680008280319
  0
ARC
  8
default
 10
2.6682679217077014
 20
9.4887381450074688
 30
0
 40
7.2793486219549814
 50
13.790211434212694
 51
32.757295716784313
  0
ARC
  8
default
 10
3.0865915706999836
 20
9.7426072582035701
 30
0
 40
4.1586864916540289
 50
0.58025896433313107
 51
19.547343246904745
  0
ARC
  8
default
 10
0
 20
0
 30
0
 40
20.5
 50
0
 51
180
  0
ARC
  8
default
 10
0
 20
0
 30
0
 40
20.5
 50
180
 51
0
  0
ARC
  8
default
 10
0
 20
0
 30
0
 40
23.5
 50
0
 51
180
  0
ARC
  8
default
 10
0
 20
0
 30
0
 40
23.5
 50
180
 51
0
  0
ENDSEC
  0
EOF
