  0
SECTION
  2
HEADER
  9
$INSBASE
 10
0.0000
 20
0.0000
  9
$EXTMIN
 10
-57.818376618407356
 20
-57.818376618407356
  9
$EXTMAX
 10
57.818376618407356
 20
57.818376618407356
  9
$LIMMIN
 10
-57.818376618407356
 20
-57.818376618407356
  9
$LIMMAX
 10
57.818376618407356
 20
57.818376618407356
  9
$TEXTSTYLE
  7
STANDARD
  9
$CLAYER
  8
default
  0
ENDSEC
  0
SECTION
  2
TABLES
  0
TABLE
  2
LTYPE
 70
4948253
  0
LTYPE
  2
CONTINUOUS
 70
    64
  3
Solid line
 72
    65
 73
     0
 40
0.0
  0
ENDTAB
  0
TABLE
  2
LAYER
 70
     5
  0
LAYER
  2
default
 70
    64
 62
     7
  6
CONTINUOUS
  0
ENDTAB
  0
TABLE
  2
STYLE
 70
     1
  0
STYLE
  2
STANDARD
 70
     0
 40
0.0
 41
1.0
 50
0.0
 71
     0
 42
0.2
  3
txt
  4

  0
ENDTAB
  0
TABLE
  2
VIEW
 70
     0
  0
ENDTAB
  0
ENDSEC
  0
SECTION
  2
BLOCKS
  0
ENDSEC
  0
SECTION
  2
ENTITIES
  0
LINE
  8
default
 10
-54
 20
-54
 30
0.0
 11
-54
 21
54
 31
0.0
  0
LINE
  8
default
 10
-54
 20
54
 30
0.0
 11
54
 21
54
 31
0.0
  0
LINE
  8
default
 10
54
 20
54
 30
0.0
 11
54
 21
-54
 31
0.0
  0
LINE
  8
default
 10
54
 20
-54
 30
0.0
 11
-54
 21
-54
 31
0.0
  0
LINE
  8
default
 10
6.9982922524262596
 20
13.793560141134407
 30
0.0
 11
5.8073340558503572
 21
11.058597641257858
 31
0.0
  0
LINE
  8
default
 10
4.7496385900693223
 20
14.231059859103381
 30
0.0
 11
4.4440065174381234
 21
14.231059859103381
 31
0.0
  0
LINE
  8
default
 10
4.4440065174381234
 20
14.231059859103381
 30
0.0
 11
0
 21
14.231059859103381
 31
0.0
  0
LINE
  8
default
 10
4.7496385900693223
 20
11.267033757524544
 30
0.0
 11
4.4440065174381234
 21
11.267033757524544
 31
0.0
  0
LINE
  8
default
 10
4.4440065174381234
 20
11.267033757524544
 30
0.0
 11
0
 21
11.267033757524544
 31
0.0
  0
LINE
  8
default
 10
4.4440065174381234
 20
11.267033757524544
 30
0.0
 11
4.4440065174381234
 21
14.231059859103381
 31
0.0
  0
LINE
  8
default
 10
-6.9982922524262596
 20
13.793560141134407
 30
0.0
 11
-5.8073340558503572
 21
11.058597641257858
 31
0.0
  0
LINE
  8
default
 10
-4.7496385900693223
 20
14.231059859103381
 30
0.0
 11
-4.4440065174381234
 21
14.231059859103381
 31
0.0
  0
LINE
  8
default
 10
-4.4440065174381234
 20
14.231059859103381
 30
0.0
 11
0
 21
14.231059859103381
 31
0.0
  0
LINE
  8
default
 10
-4.7496385900693223
 20
11.267033757524544
 30
0.0
 11
-4.4440065174381234
 21
11.267033757524544
 31
0.0
  0
LINE
  8
default
 10
-4.4440065174381234
 20
11.267033757524544
 30
0.0
 11
0
 21
11.267033757524544
 31
0.0
  0
LINE
  8
default
 10
-4.4440065174381234
 20
11.267033757524544
 30
0.0
 11
-4.4440065174381234
 21
14.231059859103381
 31
0.0
  0
LINE
  8
default
 10
-8.4464273646377315
 20
12.957478944276165
 30
0.0
 11
-6.6733594596347974
 21
10.558597641257858
 31
0.0
  0
LINE
  8
default
 10
-9.949640065725859
 20
11.228837607346629
 30
0.0
 11
-10.102456102041458
 21
10.964152468236719
 31
0.0
  0
LINE
  8
default
 10
-10.102456102041458
 20
10.964152468236719
 30
0.0
 11
-12.324459360760521
 21
7.1155299295516921
 31
0.0
  0
LINE
  8
default
 10
-7.3827181642784314
 20
9.7468245565572094
 30
0.0
 11
-7.5355342005940313
 21
9.4821394174472999
 31
0.0
  0
LINE
  8
default
 10
-7.5355342005940313
 20
9.4821394174472999
 30
0.0
 11
-9.7575374593130935
 21
5.6335168787622729
 31
0.0
  0
LINE
  8
default
 10
-7.5355342005940313
 20
9.4821394174472999
 30
0.0
 11
-10.102456102041458
 21
10.964152468236719
 31
0.0
  0
LINE
  8
default
 10
-15.444719617063992
 20
0.83608119685824533
 30
0.0
 11
-12.480693515485155
 21
0.50000000000000266
 31
0.0
  0
LINE
  8
default
 10
-14.699278655795183
 20
3.0022222517567556
 30
0.0
 11
-14.546462619479584
 21
3.2669073908666646
 31
0.0
  0
LINE
  8
default
 10
-14.546462619479584
 20
3.2669073908666646
 30
0.0
 11
-12.324459360760521
 21
7.1155299295516921
 31
0.0
  0
LINE
  8
default
 10
-12.132356754347756
 20
1.5202092009673365
 30
0.0
 11
-11.979540718032155
 21
1.7848943400772455
 31
0.0
  0
LINE
  8
default
 10
-11.979540718032155
 20
1.7848943400772455
 30
0.0
 11
-9.7575374593130935
 21
5.6335168787622729
 31
0.0
  0
LINE
  8
default
 10
-11.979540718032155
 20
1.7848943400772455
 30
0.0
 11
-14.546462619479584
 21
3.2669073908666646
 31
0.0
  0
LINE
  8
default
 10
-15.444719617063992
 20
-0.83608119685824001
 30
0.0
 11
-12.480693515485155
 21
-0.49999999999999911
 31
0.0
  0
LINE
  8
default
 10
-14.699278655795183
 20
-3.0022222517567494
 30
0.0
 11
-14.546462619479584
 21
-3.2669073908666588
 31
0.0
  0
LINE
  8
default
 10
-14.546462619479584
 20
-3.2669073908666588
 30
0.0
 11
-12.324459360760523
 21
-7.1155299295516867
 31
0.0
  0
LINE
  8
default
 10
-12.132356754347756
 20
-1.520209200967332
 30
0.0
 11
-11.979540718032156
 21
-1.7848943400772415
 31
0.0
  0
LINE
  8
default
 10
-11.979540718032156
 20
-1.7848943400772415
 30
0.0
 11
-9.7575374593130952
 21
-5.6335168787622694
 31
0.0
  0
LINE
  8
default
 10
-11.979540718032156
 20
-1.7848943400772415
 30
0.0
 11
-14.546462619479584
 21
-3.2669073908666588
 31
0.0
  0
LINE
  8
default
 10
-8.446427364637735
 20
-12.957478944276161
 30
0.0
 11
-6.6733594596348009
 21
-10.558597641257855
 31
0.0
  0
LINE
  8
default
 10
-9.9496400657258626
 20
-11.228837607346623
 30
0.0
 11
-10.102456102041462
 21
-10.964152468236716
 31
0.0
  0
LINE
  8
default
 10
-10.102456102041462
 20
-10.964152468236716
 30
0.0
 11
-12.324459360760523
 21
-7.1155299295516867
 31
0.0
  0
LINE
  8
default
 10
-7.382718164278435
 20
-9.7468245565572076
 30
0.0
 11
-7.535534200594034
 21
-9.4821394174472964
 31
0.0
  0
LINE
  8
default
 10
-7.535534200594034
 20
-9.4821394174472964
 30
0.0
 11
-9.7575374593130952
 21
-5.6335168787622694
 31
0.0
  0
LINE
  8
default
 10
-7.535534200594034
 20
-9.4821394174472964
 30
0.0
 11
-10.102456102041462
 21
-10.964152468236716
 31
0.0
  0
LINE
  8
default
 10
-6.9982922524262614
 20
-13.793560141134407
 30
0.0
 11
-5.807334055850359
 21
-11.058597641257858
 31
0.0
  0
LINE
  8
default
 10
-4.7496385900693241
 20
-14.231059859103381
 30
0.0
 11
-4.4440065174381251
 21
-14.231059859103381
 31
0.0
  0
LINE
  8
default
 10
-4.4440065174381251
 20
-14.231059859103381
 30
0.0
 11
-1.7428021904925338e-015
 21
-14.231059859103381
 31
0.0
  0
LINE
  8
default
 10
-4.7496385900693241
 20
-11.267033757524544
 30
0.0
 11
-4.4440065174381251
 21
-11.267033757524544
 31
0.0
  0
LINE
  8
default
 10
-4.4440065174381251
 20
-11.267033757524544
 30
0.0
 11
-1.379813682703761e-015
 21
-11.267033757524544
 31
0.0
  0
LINE
  8
default
 10
-4.4440065174381251
 20
-11.267033757524544
 30
0.0
 11
-4.4440065174381251
 21
-14.231059859103381
 31
0.0
  0
LINE
  8
default
 10
6.9982922524262579
 20
-13.793560141134407
 30
0.0
 11
5.8073340558503554
 21
-11.058597641257858
 31
0.0
  0
LINE
  8
default
 10
4.7496385900693205
 20
-14.231059859103381
 30
0.0
 11
4.4440065174381216
 21
-14.231059859103381
 31
0.0
  0
LINE
  8
default
 10
4.4440065174381216
 20
-14.231059859103381
 30
0.0
 11
-1.7428021904925338e-015
 21
-14.231059859103381
 31
0.0
  0
LINE
  8
default
 10
4.7496385900693205
 20
-11.267033757524544
 30
0.0
 11
4.4440065174381216
 21
-11.267033757524544
 31
0.0
  0
LINE
  8
default
 10
4.4440065174381216
 20
-11.267033757524544
 30
0.0
 11
-1.379813682703761e-015
 21
-11.267033757524544
 31
0.0
  0
LINE
  8
default
 10
4.4440065174381216
 20
-11.267033757524544
 30
0.0
 11
4.4440065174381216
 21
-14.231059859103381
 31
0.0
  0
LINE
  8
default
 10
8.4464273646377279
 20
-12.957478944276168
 30
0.0
 11
6.6733594596347938
 21
-10.55859764125786
 31
0.0
  0
LINE
  8
default
 10
9.9496400657258537
 20
-11.228837607346632
 30
0.0
 11
10.102456102041454
 21
-10.964152468236723
 31
0.0
  0
LINE
  8
default
 10
10.102456102041454
 20
-10.964152468236723
 30
0.0
 11
12.324459360760518
 21
-7.1155299295516965
 31
0.0
  0
LINE
  8
default
 10
7.3827181642784279
 20
-9.7468245565572129
 30
0.0
 11
7.5355342005940287
 21
-9.4821394174473035
 31
0.0
  0
LINE
  8
default
 10
7.5355342005940287
 20
-9.4821394174473035
 30
0.0
 11
9.7575374593130917
 21
-5.6335168787622774
 31
0.0
  0
LINE
  8
default
 10
7.5355342005940287
 20
-9.4821394174473035
 30
0.0
 11
10.102456102041454
 21
-10.964152468236723
 31
0.0
  0
LINE
  8
default
 10
15.444719617063992
 20
-0.83608119685825155
 30
0.0
 11
12.480693515485155
 21
-0.50000000000000888
 31
0.0
  0
LINE
  8
default
 10
14.699278655795181
 20
-3.0022222517567609
 30
0.0
 11
14.546462619479581
 21
-3.2669073908666699
 31
0.0
  0
LINE
  8
default
 10
14.546462619479581
 20
-3.2669073908666699
 30
0.0
 11
12.324459360760518
 21
-7.1155299295516965
 31
0.0
  0
LINE
  8
default
 10
12.132356754347756
 20
-1.5202092009673418
 30
0.0
 11
11.979540718032155
 21
-1.7848943400772508
 31
0.0
  0
LINE
  8
default
 10
11.979540718032155
 20
-1.7848943400772508
 30
0.0
 11
9.7575374593130917
 21
-5.6335168787622774
 31
0.0
  0
LINE
  8
default
 10
11.979540718032155
 20
-1.7848943400772508
 30
0.0
 11
14.546462619479581
 21
-3.2669073908666699
 31
0.0
  0
LINE
  8
default
 10
15.444719617063992
 20
0.83608119685824533
 30
0.0
 11
12.480693515485155
 21
0.50000000000000266
 31
0.0
  0
LINE
  8
default
 10
14.699278655795183
 20
3.0022222517567556
 30
0.0
 11
14.546462619479584
 21
3.2669073908666646
 31
0.0
  0
LINE
  8
default
 10
14.546462619479584
 20
3.2669073908666646
 30
0.0
 11
12.324459360760521
 21
7.1155299295516921
 31
0.0
  0
LINE
  8
default
 10
12.132356754347756
 20
1.5202092009673365
 30
0.0
 11
11.979540718032155
 21
1.7848943400772455
 31
0.0
  0
LINE
  8
default
 10
11.979540718032155
 20
1.7848943400772455
 30
0.0
 11
9.7575374593130935
 21
5.6335168787622729
 31
0.0
  0
LINE
  8
default
 10
11.979540718032155
 20
1.7848943400772455
 30
0.0
 11
14.546462619479584
 21
3.2669073908666646
 31
0.0
  0
LINE
  8
default
 10
8.4464273646377315
 20
12.957478944276165
 30
0.0
 11
6.6733594596347974
 21
10.558597641257858
 31
0.0
  0
LINE
  8
default
 10
9.949640065725859
 20
11.228837607346629
 30
0.0
 11
10.102456102041458
 21
10.964152468236719
 31
0.0
  0
LINE
  8
default
 10
10.102456102041458
 20
10.964152468236719
 30
0.0
 11
12.324459360760521
 21
7.1155299295516921
 31
0.0
  0
LINE
  8
default
 10
7.3827181642784314
 20
9.7468245565572094
 30
0.0
 11
7.5355342005940313
 21
9.4821394174472999
 31
0.0
  0
LINE
  8
default
 10
7.5355342005940313
 20
9.4821394174472999
 30
0.0
 11
9.7575374593130935
 21
5.6335168787622729
 31
0.0
  0
LINE
  8
default
 10
7.5355342005940313
 20
9.4821394174472999
 30
0.0
 11
10.102456102041458
 21
10.964152468236719
 31
0.0
  0
ARC
  8
default
 10
0
 20
-4.4408920985006262e-016
 30
0
 40
9
 50
2.8271597168564595e-015
 51
59.999999999999993
  0
ARC
  8
default
 10
0
 20
-8.8817841970012523e-016
 30
0
 40
9
 50
59.999999999999993
 51
119.99999999999999
  0
ARC
  8
default
 10
-8.8817841970012523e-016
 20
0
 30
0
 40
9
 50
119.99999999999999
 51
180
  0
ARC
  8
default
 10
0
 20
4.4408920985006262e-016
 30
0
 40
9
 50
180
 51
240
  0
ARC
  8
default
 10
0
 20
8.8817841970012523e-016
 30
0
 40
9
 50
240
 51
300
  0
ARC
  8
default
 10
8.8817841970012523e-016
 20
0
 30
0
 40
9
 50
300
 51
0
  0
ARC
  8
default
 10
-50.367690725493723
 20
-78.435563750744706
 30
0
 40
108.79670135138717
 50
59.36824840436276
 51
62.422216760717021
  0
ARC
  8
default
 10
8.4766067270283205
 20
20.875348607718522
 30
0
 40
6.6386740024870559
 50
239.08842851454776
 51
267.80515826469116
  0
ARC
  8
default
 10
6.7285173777960399
 20
18.404521715562282
 30
0
 40
4.6188467309310166
 50
244.63167398217439
 51
273.34840373231782
  0
ARC
  8
default
 10
5.6856168504900229
 20
13.228772984829938
 30
0
 40
2.1735860001225911
 50
244.49341795656653
 51
273.2101477067099
  0
ARC
  8
default
 10
50.36769072549373
 20
-78.435563750744706
 30
0
 40
108.79670135138717
 50
117.57778323928301
 51
120.63175159563727
  0
ARC
  8
default
 10
-8.4766067270283205
 20
20.875348607718522
 30
0
 40
6.6386740024870559
 50
272.19484173530884
 51
300.91157148545221
  0
ARC
  8
default
 10
-6.728517377796039
 20
18.404521715562282
 30
0
 40
4.6188467309310166
 50
266.65159626768218
 51
295.36832601782561
  0
ARC
  8
default
 10
-5.6856168504900229
 20
13.228772984829938
 30
0
 40
2.1735860001225911
 50
266.7898522932901
 51
295.50658204343347
  0
ARC
  8
default
 10
42.743345405551906
 20
-82.837481573607789
 30
0
 40
108.79670135138717
 50
119.36824840436277
 51
122.42221676071702
  0
ARC
  8
default
 10
-13.840278843626191
 20
17.778631067355857
 30
0
 40
6.6386740024870594
 50
299.08842851454773
 51
327.80515826469116
  0
ARC
  8
default
 10
-12.574524661281274
 20
15.02932783675757
 30
0
 40
4.6188467309310175
 50
304.63167398217439
 51
333.34840373231776
  0
ARC
  8
default
 10
-8.61364504051501
 20
11.538275121124199
 30
0
 40
2.173586000122592
 50
304.49341795656659
 51
333.21014770670996
  0
ARC
  8
default
 10
93.111036131045623
 20
4.401917822863056
 30
0
 40
108.79670135138718
 50
177.57778323928298
 51
180.63175159563724
  0
ARC
  8
default
 10
-22.316885570654513
 20
3.0967175403626745
 30
0
 40
6.6386740024870567
 50
332.19484173530884
 51
0.91157148545223099
  0
ARC
  8
default
 10
-19.303042039077312
 20
3.3751938788047133
 30
0
 40
4.6188467309310157
 50
326.65159626768224
 51
355.36832601782561
  0
ARC
  8
default
 10
-14.299261891005031
 20
1.6904978637057384
 30
0
 40
2.1735860001225906
 50
326.7898522932901
 51
355.50658204343353
  0
ARC
  8
default
 10
93.111036131045637
 20
-4.4019178228630835
 30
0
 40
108.7967013513872
 50
179.36824840436276
 51
182.42221676071696
  0
ARC
  8
default
 10
-22.316885570654517
 20
-3.0967175403626683
 30
0
 40
6.6386740024870585
 50
359.08842851454779
 51
27.805158264691165
  0
ARC
  8
default
 10
-19.303042039077312
 20
-3.3751938788047076
 30
0
 40
4.6188467309310139
 50
4.631673982174374
 51
33.348403732317777
  0
ARC
  8
default
 10
-14.299261891005031
 20
-1.6904978637057346
 30
0
 40
2.1735860001225893
 50
4.4934179565664998
 51
33.21014770670989
  0
ARC
  8
default
 10
42.743345405551906
 20
82.837481573607747
 30
0
 40
108.79670135138716
 50
237.57778323928298
 51
240.63175159563724
  0
ARC
  8
default
 10
-13.840278843626194
 20
-17.778631067355846
 30
0
 40
6.6386740024870559
 50
32.194841735308835
 51
60.911571485452235
  0
ARC
  8
default
 10
-12.574524661281281
 20
-15.029327836757567
 30
0
 40
4.6188467309310184
 50
26.651596267682198
 51
55.368326017825588
  0
ARC
  8
default
 10
-8.61364504051501
 20
-11.538275121124197
 30
0
 40
2.1735860001225897
 50
26.789852293290103
 51
55.506582043433497
  0
ARC
  8
default
 10
50.367690725493723
 20
78.435563750744706
 30
0
 40
108.79670135138717
 50
239.36824840436276
 51
242.42221676071702
  0
ARC
  8
default
 10
-8.4766067270283347
 20
-20.875348607718529
 30
0
 40
6.6386740024870665
 50
59.088428514547694
 51
87.805158264691087
  0
ARC
  8
default
 10
-6.7285173777960416
 20
-18.404521715562282
 30
0
 40
4.6188467309310166
 50
64.631673982174391
 51
93.348403732317777
  0
ARC
  8
default
 10
-5.6856168504900246
 20
-13.228772984829938
 30
0
 40
2.1735860001225911
 50
64.493417956566518
 51
93.210147706709904
  0
ARC
  8
default
 10
-50.36769072549373
 20
78.435563750744706
 30
0
 40
108.79670135138717
 50
297.57778323928301
 51
300.63175159563724
  0
ARC
  8
default
 10
8.4766067270283152
 20
-20.875348607718525
 30
0
 40
6.638674002487055
 50
92.194841735308799
 51
120.91157148545223
  0
ARC
  8
default
 10
6.7285173777960372
 20
-18.404521715562282
 30
0
 40
4.6188467309310166
 50
86.651596267682208
 51
115.36832601782559
  0
ARC
  8
default
 10
5.6856168504900211
 20
-13.228772984829938
 30
0
 40
2.1735860001225911
 50
86.789852293290096
 51
115.50658204343348
  0
ARC
  8
default
 10
-42.743345405551906
 20
82.837481573607789
 30
0
 40
108.7967013513872
 50
299.36824840436276
 51
302.42221676071699
  0
ARC
  8
default
 10
13.84027884362618
 20
-17.778631067355853
 30
0
 40
6.6386740024870488
 50
119.08842851454773
 51
147.80515826469113
  0
ARC
  8
default
 10
12.574524661281268
 20
-15.02932783675757
 30
0
 40
4.6188467309310139
 50
124.63167398217442
 51
153.34840373231782
  0
ARC
  8
default
 10
8.6136450405150029
 20
-11.538275121124203
 30
0
 40
2.1735860001225897
 50
124.49341795656652
 51
153.21014770670988
  0
ARC
  8
default
 10
-93.111036131045608
 20
-4.4019178228630285
 30
0
 40
108.79670135138717
 50
357.57778323928295
 51
0.63175159563721617
  0
ARC
  8
default
 10
22.316885570654513
 20
-3.0967175403626777
 30
0
 40
6.6386740024870559
 50
152.19484173530887
 51
180.91157148545227
  0
ARC
  8
default
 10
19.303042039077312
 20
-3.3751938788047227
 30
0
 40
4.6188467309310157
 50
146.65159626768218
 51
175.36832601782558
  0
ARC
  8
default
 10
14.299261891005031
 20
-1.6904978637057444
 30
0
 40
2.1735860001225893
 50
146.78985229329012
 51
175.50658204343353
  0
ARC
  8
default
 10
-93.111036131045623
 20
4.401917822863056
 30
0
 40
108.79670135138718
 50
359.36824840436276
 51
2.422216760717026
  0
ARC
  8
default
 10
22.316885570654538
 20
3.0967175403626612
 30
0
 40
6.6386740024870816
 50
179.08842851454764
 51
207.80515826469104
  0
ARC
  8
default
 10
19.303042039077312
 20
3.3751938788047133
 30
0
 40
4.6188467309310157
 50
184.63167398217436
 51
213.34840373231776
  0
ARC
  8
default
 10
14.299261891005031
 20
1.6904978637057384
 30
0
 40
2.1735860001225906
 50
184.49341795656647
 51
213.21014770670988
  0
ARC
  8
default
 10
-42.743345405551899
 20
-82.837481573607789
 30
0
 40
108.79670135138717
 50
57.577783239283001
 51
60.631751595637255
  0
ARC
  8
default
 10
13.840278843626191
 20
17.778631067355857
 30
0
 40
6.6386740024870594
 50
212.19484173530887
 51
240.91157148545227
  0
ARC
  8
default
 10
12.574524661281274
 20
15.02932783675757
 30
0
 40
4.6188467309310175
 50
206.65159626768224
 51
235.36832601782561
  0
ARC
  8
default
 10
8.61364504051501
 20
11.538275121124199
 30
0
 40
2.173586000122592
 50
206.78985229329001
 51
235.50658204343341
  0
ENDSEC
  0
EOF
