  0
SECTION
  2
HEADER
  9
$INSBASE
 10
0.0000
 20
0.0000
  9
$EXTMIN
 10
-57.818376618407356
 20
-57.818376618407356
  9
$EXTMAX
 10
57.818376618407356
 20
57.818376618407356
  9
$LIMMIN
 10
-57.818376618407356
 20
-57.818376618407356
  9
$LIMMAX
 10
57.818376618407356
 20
57.818376618407356
  9
$TEXTSTYLE
  7
STANDARD
  9
$CLAYER
  8
default
  0
ENDSEC
  0
SECTION
  2
TABLES
  0
TABLE
  2
LTYPE
 70
4948253
  0
LTYPE
  2
CONTINUOUS
 70
    64
  3
Solid line
 72
    65
 73
     0
 40
0.0
  0
ENDTAB
  0
TABLE
  2
LAYER
 70
     5
  0
LAYER
  2
default
 70
    64
 62
     7
  6
CONTINUOUS
  0
ENDTAB
  0
TABLE
  2
STYLE
 70
     1
  0
STYLE
  2
STANDARD
 70
     0
 40
0.0
 41
1.0
 50
0.0
 71
     0
 42
0.2
  3
txt
  4

  0
ENDTAB
  0
TABLE
  2
VIEW
 70
     0
  0
ENDTAB
  0
ENDSEC
  0
SECTION
  2
BLOCKS
  0
ENDSEC
  0
SECTION
  2
ENTITIES
  0
LINE
  8
default
 10
-54
 20
-54
 30
0.0
 11
-54
 21
54
 31
0.0
  0
LINE
  8
default
 10
-54
 20
54
 30
0.0
 11
54
 21
54
 31
0.0
  0
LINE
  8
default
 10
54
 20
54
 30
0.0
 11
54
 21
-54
 31
0.0
  0
LINE
  8
default
 10
54
 20
-54
 30
0.0
 11
-54
 21
-54
 31
0.0
  0
LINE
  8
default
 10
7.0392786988615219
 20
13.348417247465278
 30
0.0
 11
6.4068712085282167
 21
12.09702645072109
 31
0.0
  0
LINE
  8
default
 10
4.6423986339028209
 20
13.137120399344376
 30
0.0
 11
4.3400905758618418
 21
13.137120399344376
 31
0.0
  0
LINE
  8
default
 10
4.3400905758618418
 20
13.137120399344376
 30
0.0
 11
0
 21
13.137120399344376
 31
0.0
  0
LINE
  8
default
 10
4.6423986339028209
 20
11.737180434135208
 30
0.0
 11
4.3400905758618418
 21
11.737180434135208
 31
0.0
  0
LINE
  8
default
 10
4.3400905758618418
 20
11.737180434135208
 30
0.0
 11
0
 21
11.737180434135208
 31
0.0
  0
LINE
  8
default
 10
4.3400905758618418
 20
11.737180434135208
 30
0.0
 11
4.3400905758618418
 21
13.137120399344376
 31
0.0
  0
LINE
  8
default
 10
-7.0392786988615219
 20
13.348417247465278
 30
0.0
 11
-6.4068712085282167
 21
12.09702645072109
 31
0.0
  0
LINE
  8
default
 10
-4.6423986339028209
 20
13.137120399344376
 30
0.0
 11
-4.3400905758618418
 21
13.137120399344376
 31
0.0
  0
LINE
  8
default
 10
-4.3400905758618418
 20
13.137120399344376
 30
0.0
 11
0
 21
13.137120399344376
 31
0.0
  0
LINE
  8
default
 10
-4.6423986339028209
 20
11.737180434135208
 30
0.0
 11
-4.3400905758618418
 21
11.737180434135208
 31
0.0
  0
LINE
  8
default
 10
-4.3400905758618418
 20
11.737180434135208
 30
0.0
 11
0
 21
11.737180434135208
 31
0.0
  0
LINE
  8
default
 10
-4.3400905758618418
 20
11.737180434135208
 30
0.0
 11
-4.3400905758618418
 21
13.137120399344376
 31
0.0
  0
LINE
  8
default
 10
-8.0404290871885209
 20
12.770402801265387
 30
0.0
 11
-7.2728966123126568
 21
11.59702645072109
 31
0.0
  0
LINE
  8
default
 10
-9.0558806814555872
 20
10.588995351126206
 30
0.0
 11
-9.2070347104760764
 21
10.327188893093979
 31
0.0
  0
LINE
  8
default
 10
-9.2070347104760764
 20
10.327188893093979
 30
0.0
 11
-11.377079998406998
 21
6.5685601996721896
 31
0.0
  0
LINE
  8
default
 10
-7.8434971078113449
 20
9.8890253685216223
 30
0.0
 11
-7.994651136831834
 21
9.6272189104893933
 31
0.0
  0
LINE
  8
default
 10
-7.994651136831834
 20
9.6272189104893933
 30
0.0
 11
-10.164696424762756
 21
5.868590217067605
 31
0.0
  0
LINE
  8
default
 10
-7.994651136831834
 20
9.6272189104893933
 30
0.0
 11
-9.2070347104760764
 21
10.327188893093979
 31
0.0
  0
LINE
  8
default
 10
-15.079707786050044
 20
0.57801444619989351
 30
0.0
 11
-13.679767820840876
 21
0.50000000000000355
 31
0.0
  0
LINE
  8
default
 10
-13.698279315358409
 20
2.5481250482181732
 30
0.0
 11
-13.54712528633792
 21
2.8099315062504013
 31
0.0
  0
LINE
  8
default
 10
-13.54712528633792
 20
2.8099315062504013
 30
0.0
 11
-11.377079998406998
 21
6.5685601996721896
 31
0.0
  0
LINE
  8
default
 10
-12.485895741714167
 20
1.8481550656135886
 30
0.0
 11
-12.334741712693678
 21
2.1099615236458167
 31
0.0
  0
LINE
  8
default
 10
-12.334741712693678
 20
2.1099615236458167
 30
0.0
 11
-10.164696424762756
 21
5.868590217067605
 31
0.0
  0
LINE
  8
default
 10
-12.334741712693678
 20
2.1099615236458167
 30
0.0
 11
-13.54712528633792
 21
2.8099315062504013
 31
0.0
  0
LINE
  8
default
 10
-15.079707786050044
 20
-0.57801444619988818
 30
0.0
 11
-13.679767820840876
 21
-0.49999999999999911
 31
0.0
  0
LINE
  8
default
 10
-13.698279315358409
 20
-2.5481250482181679
 30
0.0
 11
-13.54712528633792
 21
-2.8099315062503964
 31
0.0
  0
LINE
  8
default
 10
-13.54712528633792
 20
-2.8099315062503964
 30
0.0
 11
-11.377079998407
 21
-6.5685601996721852
 31
0.0
  0
LINE
  8
default
 10
-12.485895741714167
 20
-1.8481550656135841
 30
0.0
 11
-12.334741712693678
 21
-2.1099615236458127
 31
0.0
  0
LINE
  8
default
 10
-12.334741712693678
 20
-2.1099615236458127
 30
0.0
 11
-10.164696424762758
 21
-5.8685902170676014
 31
0.0
  0
LINE
  8
default
 10
-12.334741712693678
 20
-2.1099615236458127
 30
0.0
 11
-13.54712528633792
 21
-2.8099315062503964
 31
0.0
  0
LINE
  8
default
 10
-8.0404290871885244
 20
-12.770402801265384
 30
0.0
 11
-7.2728966123126613
 21
-11.597026450721085
 31
0.0
  0
LINE
  8
default
 10
-9.0558806814555908
 20
-10.588995351126202
 30
0.0
 11
-9.2070347104760799
 21
-10.327188893093973
 31
0.0
  0
LINE
  8
default
 10
-9.2070347104760799
 20
-10.327188893093973
 30
0.0
 11
-11.377079998407
 21
-6.5685601996721852
 31
0.0
  0
LINE
  8
default
 10
-7.8434971078113485
 20
-9.8890253685216187
 30
0.0
 11
-7.9946511368318376
 21
-9.6272189104893897
 31
0.0
  0
LINE
  8
default
 10
-7.9946511368318376
 20
-9.6272189104893897
 30
0.0
 11
-10.164696424762758
 21
-5.8685902170676014
 31
0.0
  0
LINE
  8
default
 10
-7.9946511368318376
 20
-9.6272189104893897
 30
0.0
 11
-9.2070347104760799
 21
-10.327188893093973
 31
0.0
  0
LINE
  8
default
 10
-7.0392786988615237
 20
-13.348417247465278
 30
0.0
 11
-6.4068712085282185
 21
-12.09702645072109
 31
0.0
  0
LINE
  8
default
 10
-4.6423986339028227
 20
-13.137120399344376
 30
0.0
 11
-4.3400905758618435
 21
-13.137120399344376
 31
0.0
  0
LINE
  8
default
 10
-4.3400905758618435
 20
-13.137120399344376
 30
0.0
 11
-1.6088332447070488e-015
 21
-13.137120399344376
 31
0.0
  0
LINE
  8
default
 10
-4.6423986339028227
 20
-11.737180434135208
 30
0.0
 11
-4.3400905758618435
 21
-11.737180434135208
 31
0.0
  0
LINE
  8
default
 10
-4.3400905758618435
 20
-11.737180434135208
 30
0.0
 11
-1.4373900449678625e-015
 21
-11.737180434135208
 31
0.0
  0
LINE
  8
default
 10
-4.3400905758618435
 20
-11.737180434135208
 30
0.0
 11
-4.3400905758618435
 21
-13.137120399344376
 31
0.0
  0
LINE
  8
default
 10
7.0392786988615201
 20
-13.348417247465278
 30
0.0
 11
6.4068712085282149
 21
-12.09702645072109
 31
0.0
  0
LINE
  8
default
 10
4.6423986339028191
 20
-13.137120399344376
 30
0.0
 11
4.34009057586184
 21
-13.137120399344376
 31
0.0
  0
LINE
  8
default
 10
4.34009057586184
 20
-13.137120399344376
 30
0.0
 11
-1.6088332447070488e-015
 21
-13.137120399344376
 31
0.0
  0
LINE
  8
default
 10
4.6423986339028191
 20
-11.737180434135208
 30
0.0
 11
4.34009057586184
 21
-11.737180434135208
 31
0.0
  0
LINE
  8
default
 10
4.34009057586184
 20
-11.737180434135208
 30
0.0
 11
-1.4373900449678625e-015
 21
-11.737180434135208
 31
0.0
  0
LINE
  8
default
 10
4.34009057586184
 20
-11.737180434135208
 30
0.0
 11
4.34009057586184
 21
-13.137120399344376
 31
0.0
  0
LINE
  8
default
 10
8.0404290871885138
 20
-12.770402801265391
 30
0.0
 11
7.2728966123126515
 21
-11.597026450721092
 31
0.0
  0
LINE
  8
default
 10
9.0558806814555819
 20
-10.58899535112621
 30
0.0
 11
9.2070347104760728
 21
-10.327188893093982
 31
0.0
  0
LINE
  8
default
 10
9.2070347104760728
 20
-10.327188893093982
 30
0.0
 11
11.377079998406995
 21
-6.5685601996721941
 31
0.0
  0
LINE
  8
default
 10
7.8434971078113414
 20
-9.8890253685216258
 30
0.0
 11
7.9946511368318314
 21
-9.6272189104893968
 31
0.0
  0
LINE
  8
default
 10
7.9946511368318314
 20
-9.6272189104893968
 30
0.0
 11
10.164696424762754
 21
-5.8685902170676094
 31
0.0
  0
LINE
  8
default
 10
7.9946511368318314
 20
-9.6272189104893968
 30
0.0
 11
9.2070347104760728
 21
-10.327188893093982
 31
0.0
  0
LINE
  8
default
 10
15.079707786050044
 20
-0.57801444619989972
 30
0.0
 11
13.679767820840874
 21
-0.50000000000000888
 31
0.0
  0
LINE
  8
default
 10
13.698279315358407
 20
-2.5481250482181785
 30
0.0
 11
13.547125286337916
 21
-2.8099315062504067
 31
0.0
  0
LINE
  8
default
 10
13.547125286337916
 20
-2.8099315062504067
 30
0.0
 11
11.377079998406995
 21
-6.5685601996721941
 31
0.0
  0
LINE
  8
default
 10
12.485895741714167
 20
-1.8481550656135939
 30
0.0
 11
12.334741712693678
 21
-2.109961523645822
 31
0.0
  0
LINE
  8
default
 10
12.334741712693678
 20
-2.109961523645822
 30
0.0
 11
10.164696424762754
 21
-5.8685902170676094
 31
0.0
  0
LINE
  8
default
 10
12.334741712693678
 20
-2.109961523645822
 30
0.0
 11
13.547125286337916
 21
-2.8099315062504067
 31
0.0
  0
LINE
  8
default
 10
15.079707786050044
 20
0.57801444619989351
 30
0.0
 11
13.679767820840876
 21
0.50000000000000355
 31
0.0
  0
LINE
  8
default
 10
13.698279315358409
 20
2.5481250482181732
 30
0.0
 11
13.54712528633792
 21
2.8099315062504013
 31
0.0
  0
LINE
  8
default
 10
13.54712528633792
 20
2.8099315062504013
 30
0.0
 11
11.377079998406998
 21
6.5685601996721896
 31
0.0
  0
LINE
  8
default
 10
12.485895741714167
 20
1.8481550656135886
 30
0.0
 11
12.334741712693678
 21
2.1099615236458167
 31
0.0
  0
LINE
  8
default
 10
12.334741712693678
 20
2.1099615236458167
 30
0.0
 11
10.164696424762756
 21
5.868590217067605
 31
0.0
  0
LINE
  8
default
 10
12.334741712693678
 20
2.1099615236458167
 30
0.0
 11
13.54712528633792
 21
2.8099315062504013
 31
0.0
  0
LINE
  8
default
 10
8.0404290871885209
 20
12.770402801265387
 30
0.0
 11
7.2728966123126568
 21
11.59702645072109
 31
0.0
  0
LINE
  8
default
 10
9.0558806814555872
 20
10.588995351126206
 30
0.0
 11
9.2070347104760764
 21
10.327188893093979
 31
0.0
  0
LINE
  8
default
 10
9.2070347104760764
 20
10.327188893093979
 30
0.0
 11
11.377079998406998
 21
6.5685601996721896
 31
0.0
  0
LINE
  8
default
 10
7.8434971078113449
 20
9.8890253685216223
 30
0.0
 11
7.994651136831834
 21
9.6272189104893933
 31
0.0
  0
LINE
  8
default
 10
7.994651136831834
 20
9.6272189104893933
 30
0.0
 11
10.164696424762756
 21
5.868590217067605
 31
0.0
  0
LINE
  8
default
 10
7.994651136831834
 20
9.6272189104893933
 30
0.0
 11
9.2070347104760764
 21
10.327188893093979
 31
0.0
  0
ARC
  8
default
 10
0
 20
-4.4408920985006262e-016
 30
0
 40
9
 50
2.8271597168564595e-015
 51
59.999999999999993
  0
ARC
  8
default
 10
0
 20
-8.8817841970012523e-016
 30
0
 40
9
 50
59.999999999999993
 51
119.99999999999999
  0
ARC
  8
default
 10
-8.8817841970012523e-016
 20
0
 30
0
 40
9
 50
119.99999999999999
 51
180
  0
ARC
  8
default
 10
0
 20
4.4408920985006262e-016
 30
0
 40
9
 50
180
 51
240
  0
ARC
  8
default
 10
0
 20
8.8817841970012523e-016
 30
0
 40
9
 50
240
 51
300
  0
ARC
  8
default
 10
8.8817841970012523e-016
 20
0
 30
0
 40
9
 50
300
 51
0
  0
ARC
  8
default
 10
-0.51378602926800276
 20
12.230157253229393
 30
0
 40
5.7926730795317951
 50
18.622924411990969
 51
84.911415589766335
  0
ARC
  8
default
 10
6.8949993480879526
 20
21.681531974833476
 30
0
 40
7.840135558173845
 50
255.82887489301172
 51
278.39662993521529
  0
ARC
  8
default
 10
5.3113445797438477
 20
19.249170868979707
 30
0
 40
6.1485485784717202
 50
263.75400583816861
 51
286.32176088037215
  0
ARC
  8
default
 10
4.6228877367352403
 20
16.338739650484875
 30
0
 40
4.601600579872275
 50
270.242936211516
 51
292.81069125371954
  0
ARC
  8
default
 10
0.51378602926800321
 20
12.230157253229393
 30
0
 40
5.7926730795317951
 50
95.088584410233679
 51
161.37707558800903
  0
ARC
  8
default
 10
-6.8949993480879526
 20
21.681531974833476
 30
0
 40
7.840135558173845
 50
261.60337006478471
 51
284.17112510698826
  0
ARC
  8
default
 10
-5.3113445797438477
 20
19.249170868979707
 30
0
 40
6.1485485784717202
 50
253.67823911962785
 51
276.24599416183139
  0
ARC
  8
default
 10
-4.6228877367352403
 20
16.338739650484875
 30
0
 40
4.601600579872275
 50
247.18930874628043
 51
269.757063788484
  0
ARC
  8
default
 10
-10.848519888209168
 20
5.670126873159071
 30
0
 40
5.7926730795317942
 50
78.622924411990951
 51
144.91141558976631
  0
ARC
  8
default
 10
-15.329257809126402
 20
16.812010581938054
 30
0
 40
7.8401355581738503
 50
315.82887489301169
 51
338.39662993521529
  0
ARC
  8
default
 10
-14.01459868445188
 20
14.224344768800808
 30
0
 40
6.1485485784717184
 50
323.75400583816861
 51
346.32176088037215
  0
ARC
  8
default
 10
-11.838319734772362
 20
12.172908044098708
 30
0
 40
4.6016005798722768
 50
330.24293621151594
 51
352.81069125371954
  0
ARC
  8
default
 10
-10.334733858941163
 20
6.5600303800703248
 30
0
 40
5.7926730795317942
 50
155.08858441023369
 51
221.37707558800901
  0
ARC
  8
default
 10
-22.224257157214353
 20
4.8695213928954333
 30
0
 40
7.8401355581738468
 50
321.60337006478471
 51
344.17112510698826
  0
ARC
  8
default
 10
-19.325943264195729
 20
5.0248261001789016
 30
0
 40
6.1485485784717229
 50
313.67823911962785
 51
336.24599416183139
  0
ARC
  8
default
 10
-16.461207471507603
 20
4.1658316063861758
 30
0
 40
4.6016005798722759
 50
307.1893087462804
 51
329.757063788484
  0
ARC
  8
default
 10
-10.334733858941163
 20
-6.5600303800703195
 30
0
 40
5.7926730795317951
 50
138.62292441199099
 51
204.91141558976631
  0
ARC
  8
default
 10
-22.22425715721436
 20
-4.8695213928954217
 30
0
 40
7.8401355581738503
 50
15.828874893011697
 51
38.396629935215259
  0
ARC
  8
default
 10
-19.325943264195729
 20
-5.0248261001788954
 30
0
 40
6.1485485784717229
 50
23.754005838168588
 51
46.321760880372153
  0
ARC
  8
default
 10
-16.461207471507603
 20
-4.1658316063861722
 30
0
 40
4.6016005798722759
 50
30.242936211516028
 51
52.81069125371959
  0
ARC
  8
default
 10
-10.848519888209168
 20
-5.6701268731590666
 30
0
 40
5.7926730795317951
 50
215.08858441023366
 51
281.37707558800901
  0
ARC
  8
default
 10
-15.329257809126405
 20
-16.81201058193804
 30
0
 40
7.8401355581738459
 50
21.60337006478467
 51
44.171125106988235
  0
ARC
  8
default
 10
-14.014598684451883
 20
-14.224344768800805
 30
0
 40
6.1485485784717184
 50
13.67823911962784
 51
36.245994161831405
  0
ARC
  8
default
 10
-11.838319734772362
 20
-12.172908044098701
 30
0
 40
4.6016005798722723
 50
7.1893087462804539
 51
29.757063788484018
  0
ARC
  8
default
 10
0.51378602926800099
 20
-12.230157253229393
 30
0
 40
5.7926730795317951
 50
198.62292441199097
 51
264.91141558976631
  0
ARC
  8
default
 10
-6.894999348087965
 20
-21.681531974833483
 30
0
 40
7.8401355581738539
 50
75.828874893011658
 51
98.39662993521523
  0
ARC
  8
default
 10
-5.3113445797438494
 20
-19.249170868979707
 30
0
 40
6.1485485784717202
 50
83.754005838168581
 51
106.32176088037215
  0
ARC
  8
default
 10
-4.6228877367352421
 20
-16.338739650484875
 30
0
 40
4.601600579872275
 50
90.242936211515996
 51
112.81069125371957
  0
ARC
  8
default
 10
-0.51378602926800543
 20
-12.230157253229393
 30
0
 40
5.7926730795317951
 50
275.08858441023369
 51
341.37707558800901
  0
ARC
  8
default
 10
6.8949993480879463
 20
-21.681531974833476
 30
0
 40
7.840135558173845
 50
81.603370064784684
 51
104.17112510698826
  0
ARC
  8
default
 10
5.3113445797438459
 20
-19.249170868979707
 30
0
 40
6.1485485784717202
 50
73.678239119627861
 51
96.245994161831419
  0
ARC
  8
default
 10
4.6228877367352386
 20
-16.338739650484875
 30
0
 40
4.601600579872275
 50
67.189308746280446
 51
89.757063788484004
  0
ARC
  8
default
 10
10.848519888209164
 20
-5.6701268731590755
 30
0
 40
5.7926730795317942
 50
258.62292441199094
 51
324.91141558976631
  0
ARC
  8
default
 10
15.329257809126393
 20
-16.812010581938054
 30
0
 40
7.8401355581738432
 50
135.82887489301169
 51
158.39662993521526
  0
ARC
  8
default
 10
14.014598684451872
 20
-14.224344768800817
 30
0
 40
6.148548578471722
 50
143.75400583816855
 51
166.32176088037212
  0
ARC
  8
default
 10
11.838319734772353
 20
-12.172908044098715
 30
0
 40
4.6016005798722732
 50
150.24293621151591
 51
172.81069125371948
  0
ARC
  8
default
 10
10.33473385894116
 20
-6.5600303800703275
 30
0
 40
5.7926730795317942
 50
335.08858441023364
 51
41.377075588008999
  0
ARC
  8
default
 10
22.22425715721435
 20
-4.8695213928954395
 30
0
 40
7.840135558173845
 50
141.60337006478468
 51
164.17112510698826
  0
ARC
  8
default
 10
19.325943264195725
 20
-5.0248261001789114
 30
0
 40
6.1485485784717229
 50
133.67823911962782
 51
156.24599416183136
  0
ARC
  8
default
 10
16.461207471507603
 20
-4.1658316063861767
 30
0
 40
4.6016005798722732
 50
127.18930874628047
 51
149.75706378848403
  0
ARC
  8
default
 10
10.334733858941163
 20
6.5600303800703248
 30
0
 40
5.7926730795317942
 50
318.62292441199094
 51
24.911415589766325
  0
ARC
  8
default
 10
22.224257157214389
 20
4.8695213928954253
 30
0
 40
7.8401355581738796
 50
195.82887489301163
 51
218.3966299352152
  0
ARC
  8
default
 10
19.325943264195729
 20
5.0248261001789007
 30
0
 40
6.1485485784717229
 50
203.75400583816858
 51
226.32176088037215
  0
ARC
  8
default
 10
16.461207471507603
 20
4.1658316063861758
 30
0
 40
4.6016005798722759
 50
210.242936211516
 51
232.81069125371957
  0
ARC
  8
default
 10
10.848519888209168
 20
5.670126873159071
 30
0
 40
5.7926730795317942
 50
35.088584410233693
 51
101.37707558800905
  0
ARC
  8
default
 10
15.329257809126402
 20
16.812010581938054
 30
0
 40
7.8401355581738503
 50
201.60337006478474
 51
224.17112510698831
  0
ARC
  8
default
 10
14.01459868445188
 20
14.224344768800808
 30
0
 40
6.1485485784717184
 50
193.67823911962782
 51
216.24599416183139
  0
ARC
  8
default
 10
11.838319734772362
 20
12.172908044098708
 30
0
 40
4.6016005798722768
 50
187.18930874628046
 51
209.75706378848403
  0
ENDSEC
  0
EOF
