  0
SECTION
  2
HEADER
  9
$INSBASE
 10
0.0000
 20
0.0000
  9
$EXTMIN
 10
-57.818376618407356
 20
-57.818376618407356
  9
$EXTMAX
 10
57.818376618407356
 20
57.818376618407356
  9
$LIMMIN
 10
-57.818376618407356
 20
-57.818376618407356
  9
$LIMMAX
 10
57.818376618407356
 20
57.818376618407356
  9
$TEXTSTYLE
  7
STANDARD
  9
$CLAYER
  8
default
  0
ENDSEC
  0
SECTION
  2
TABLES
  0
TABLE
  2
LTYPE
 70
4948253
  0
LTYPE
  2
CONTINUOUS
 70
    64
  3
Solid line
 72
    65
 73
     0
 40
0.0
  0
ENDTAB
  0
TABLE
  2
LAYER
 70
     5
  0
LAYER
  2
default
 70
    64
 62
     7
  6
CONTINUOUS
  0
ENDTAB
  0
TABLE
  2
STYLE
 70
     1
  0
STYLE
  2
STANDARD
 70
     0
 40
0.0
 41
1.0
 50
0.0
 71
     0
 42
0.2
  3
txt
  4

  0
ENDTAB
  0
TABLE
  2
VIEW
 70
     0
  0
ENDTAB
  0
ENDSEC
  0
SECTION
  2
BLOCKS
  0
ENDSEC
  0
SECTION
  2
ENTITIES
  0
LINE
  8
default
 10
-54
 20
-54
 30
0.0
 11
-54
 21
54
 31
0.0
  0
LINE
  8
default
 10
-54
 20
54
 30
0.0
 11
54
 21
54
 31
0.0
  0
LINE
  8
default
 10
54
 20
54
 30
0.0
 11
54
 21
-54
 31
0.0
  0
LINE
  8
default
 10
54
 20
-54
 30
0.0
 11
-54
 21
-54
 31
0.0
  0
LINE
  8
default
 10
7.4927122404265161
 20
14.204440047051731
 30
0.0
 11
6.5450943334574303
 21
12.336435925879428
 31
0.0
  0
LINE
  8
default
 10
4.96430871592786
 20
14.25874800386714
 30
0.0
 11
4.6554002701115031
 21
14.25874800386714
 31
0.0
  0
LINE
  8
default
 10
4.6554002701115031
 20
14.25874800386714
 30
0.0
 11
0
 21
14.25874800386714
 31
0.0
  0
LINE
  8
default
 10
4.96430871592786
 20
12.167200027073358
 30
0.0
 11
4.6554002701115031
 21
12.167200027073358
 31
0.0
  0
LINE
  8
default
 10
4.6554002701115031
 20
12.167200027073358
 30
0.0
 11
0
 21
12.167200027073358
 31
0.0
  0
LINE
  8
default
 10
4.6554002701115031
 20
12.167200027073358
 30
0.0
 11
4.6554002701115031
 21
14.25874800386714
 31
0.0
  0
LINE
  8
default
 10
-7.4927122404265161
 20
14.204440047051731
 30
0.0
 11
-6.5450943334574303
 21
12.336435925879428
 31
0.0
  0
LINE
  8
default
 10
-4.96430871592786
 20
14.25874800386714
 30
0.0
 11
-4.6554002701115031
 21
14.25874800386714
 31
0.0
  0
LINE
  8
default
 10
-4.6554002701115031
 20
14.25874800386714
 30
0.0
 11
0
 21
14.25874800386714
 31
0.0
  0
LINE
  8
default
 10
-4.96430871592786
 20
12.167200027073358
 30
0.0
 11
-4.6554002701115031
 21
12.167200027073358
 31
0.0
  0
LINE
  8
default
 10
-4.6554002701115031
 20
12.167200027073358
 30
0.0
 11
0
 21
12.167200027073358
 31
0.0
  0
LINE
  8
default
 10
-4.6554002701115031
 20
12.167200027073358
 30
0.0
 11
-4.6554002701115031
 21
14.25874800386714
 31
0.0
  0
LINE
  8
default
 10
-8.5550498070665668
 20
13.591099166981847
 30
0.0
 11
-7.4111197372418705
 21
11.836435925879428
 31
0.0
  0
LINE
  8
default
 10
-9.8662836395456672
 20
11.428591462155605
 30
0.0
 11
-10.020737862453846
 21
11.161068900635071
 31
0.0
  0
LINE
  8
default
 10
-10.020737862453846
 20
11.161068900635071
 30
0.0
 11
-12.348437997509597
 21
7.1293740019335718
 31
0.0
  0
LINE
  8
default
 10
-8.0549499584083062
 20
10.382817473758713
 30
0.0
 11
-8.2094041813164846
 21
10.115294912238181
 31
0.0
  0
LINE
  8
default
 10
-8.2094041813164846
 20
10.115294912238181
 30
0.0
 11
-10.537104316372236
 21
6.0836000135366808
 31
0.0
  0
LINE
  8
default
 10
-8.2094041813164846
 20
10.115294912238181
 30
0.0
 11
-10.020737862453846
 21
11.161068900635071
 31
0.0
  0
LINE
  8
default
 10
-16.047762047493084
 20
0.61334088006988807
 30
0.0
 11
-13.956214070699302
 21
0.50000000000000355
 31
0.0
  0
LINE
  8
default
 10
-14.830592355473527
 20
2.8301565417115393
 30
0.0
 11
-14.676138132565349
 21
3.097679103232073
 31
0.0
  0
LINE
  8
default
 10
-14.676138132565349
 20
3.097679103232073
 30
0.0
 11
-12.348437997509597
 21
7.1293740019335718
 31
0.0
  0
LINE
  8
default
 10
-13.019258674336166
 20
1.7843825533146482
 30
0.0
 11
-12.864804451427988
 21
2.0519051148351819
 31
0.0
  0
LINE
  8
default
 10
-12.864804451427988
 20
2.0519051148351819
 30
0.0
 11
-10.537104316372236
 21
6.0836000135366808
 31
0.0
  0
LINE
  8
default
 10
-12.864804451427988
 20
2.0519051148351819
 30
0.0
 11
-14.676138132565349
 21
3.097679103232073
 31
0.0
  0
LINE
  8
default
 10
-16.047762047493084
 20
-0.61334088006988186
 30
0.0
 11
-13.956214070699302
 21
-0.49999999999999822
 31
0.0
  0
LINE
  8
default
 10
-14.830592355473527
 20
-2.8301565417115331
 30
0.0
 11
-14.676138132565349
 21
-3.0976791032320667
 31
0.0
  0
LINE
  8
default
 10
-14.676138132565349
 20
-3.0976791032320667
 30
0.0
 11
-12.348437997509599
 21
-7.1293740019335665
 31
0.0
  0
LINE
  8
default
 10
-13.019258674336168
 20
-1.7843825533146429
 30
0.0
 11
-12.86480445142799
 21
-2.0519051148351766
 31
0.0
  0
LINE
  8
default
 10
-12.86480445142799
 20
-2.0519051148351766
 30
0.0
 11
-10.537104316372238
 21
-6.0836000135366763
 31
0.0
  0
LINE
  8
default
 10
-12.86480445142799
 20
-2.0519051148351766
 30
0.0
 11
-14.676138132565349
 21
-3.0976791032320667
 31
0.0
  0
LINE
  8
default
 10
-8.5550498070665704
 20
-13.591099166981842
 30
0.0
 11
-7.411119737241874
 21
-11.836435925879425
 31
0.0
  0
LINE
  8
default
 10
-9.8662836395456708
 20
-11.4285914621556
 30
0.0
 11
-10.020737862453849
 21
-11.161068900635065
 31
0.0
  0
LINE
  8
default
 10
-10.020737862453849
 20
-11.161068900635065
 30
0.0
 11
-12.348437997509599
 21
-7.1293740019335665
 31
0.0
  0
LINE
  8
default
 10
-8.054949958408308
 20
-10.38281747375871
 30
0.0
 11
-8.2094041813164864
 21
-10.115294912238177
 31
0.0
  0
LINE
  8
default
 10
-8.2094041813164864
 20
-10.115294912238177
 30
0.0
 11
-10.537104316372238
 21
-6.0836000135366763
 31
0.0
  0
LINE
  8
default
 10
-8.2094041813164864
 20
-10.115294912238177
 30
0.0
 11
-10.020737862453849
 21
-11.161068900635065
 31
0.0
  0
LINE
  8
default
 10
-7.4927122404265178
 20
-14.20444004705173
 30
0.0
 11
-6.5450943334574321
 21
-12.336435925879428
 31
0.0
  0
LINE
  8
default
 10
-4.9643087159278618
 20
-14.25874800386714
 30
0.0
 11
-4.6554002701115049
 21
-14.25874800386714
 31
0.0
  0
LINE
  8
default
 10
-4.6554002701115049
 20
-14.25874800386714
 30
0.0
 11
-1.7461930102784605e-015
 21
-14.25874800386714
 31
0.0
  0
LINE
  8
default
 10
-4.9643087159278618
 20
-12.167200027073358
 30
0.0
 11
-4.6554002701115049
 21
-12.167200027073358
 31
0.0
  0
LINE
  8
default
 10
-4.6554002701115049
 20
-12.167200027073358
 30
0.0
 11
-1.4900522567740977e-015
 21
-12.167200027073358
 31
0.0
  0
LINE
  8
default
 10
-4.6554002701115049
 20
-12.167200027073358
 30
0.0
 11
-4.6554002701115049
 21
-14.25874800386714
 31
0.0
  0
LINE
  8
default
 10
7.4927122404265143
 20
-14.204440047051733
 30
0.0
 11
6.5450943334574285
 21
-12.336435925879428
 31
0.0
  0
LINE
  8
default
 10
4.9643087159278583
 20
-14.25874800386714
 30
0.0
 11
4.6554002701115014
 21
-14.25874800386714
 31
0.0
  0
LINE
  8
default
 10
4.6554002701115014
 20
-14.25874800386714
 30
0.0
 11
-1.7461930102784605e-015
 21
-14.25874800386714
 31
0.0
  0
LINE
  8
default
 10
4.9643087159278583
 20
-12.167200027073358
 30
0.0
 11
4.6554002701115014
 21
-12.167200027073358
 31
0.0
  0
LINE
  8
default
 10
4.6554002701115014
 20
-12.167200027073358
 30
0.0
 11
-1.4900522567740977e-015
 21
-12.167200027073358
 31
0.0
  0
LINE
  8
default
 10
4.6554002701115014
 20
-12.167200027073358
 30
0.0
 11
4.6554002701115014
 21
-14.25874800386714
 31
0.0
  0
LINE
  8
default
 10
8.5550498070665597
 20
-13.591099166981849
 30
0.0
 11
7.411119737241866
 21
-11.83643592587943
 31
0.0
  0
LINE
  8
default
 10
9.8662836395456637
 20
-11.428591462155609
 30
0.0
 11
10.020737862453842
 21
-11.161068900635074
 31
0.0
  0
LINE
  8
default
 10
10.020737862453842
 20
-11.161068900635074
 30
0.0
 11
12.348437997509595
 21
-7.1293740019335763
 31
0.0
  0
LINE
  8
default
 10
8.0549499584083026
 20
-10.382817473758717
 30
0.0
 11
8.2094041813164811
 21
-10.115294912238182
 31
0.0
  0
LINE
  8
default
 10
8.2094041813164811
 20
-10.115294912238182
 30
0.0
 11
10.537104316372234
 21
-6.0836000135366843
 31
0.0
  0
LINE
  8
default
 10
8.2094041813164811
 20
-10.115294912238182
 30
0.0
 11
10.020737862453842
 21
-11.161068900635074
 31
0.0
  0
LINE
  8
default
 10
16.047762047493084
 20
-0.61334088006989429
 30
0.0
 11
13.956214070699303
 21
-0.50000000000000888
 31
0.0
  0
LINE
  8
default
 10
14.830592355473527
 20
-2.8301565417115446
 30
0.0
 11
14.676138132565349
 21
-3.0976791032320783
 31
0.0
  0
LINE
  8
default
 10
14.676138132565349
 20
-3.0976791032320783
 30
0.0
 11
12.348437997509595
 21
-7.1293740019335763
 31
0.0
  0
LINE
  8
default
 10
13.019258674336166
 20
-1.7843825533146527
 30
0.0
 11
12.864804451427988
 21
-2.0519051148351863
 31
0.0
  0
LINE
  8
default
 10
12.864804451427988
 20
-2.0519051148351863
 30
0.0
 11
10.537104316372234
 21
-6.0836000135366843
 31
0.0
  0
LINE
  8
default
 10
12.864804451427988
 20
-2.0519051148351863
 30
0.0
 11
14.676138132565349
 21
-3.0976791032320783
 31
0.0
  0
LINE
  8
default
 10
16.047762047493084
 20
0.61334088006988807
 30
0.0
 11
13.956214070699302
 21
0.50000000000000355
 31
0.0
  0
LINE
  8
default
 10
14.830592355473527
 20
2.8301565417115393
 30
0.0
 11
14.676138132565349
 21
3.097679103232073
 31
0.0
  0
LINE
  8
default
 10
14.676138132565349
 20
3.097679103232073
 30
0.0
 11
12.348437997509597
 21
7.1293740019335718
 31
0.0
  0
LINE
  8
default
 10
13.019258674336166
 20
1.7843825533146482
 30
0.0
 11
12.864804451427988
 21
2.0519051148351819
 31
0.0
  0
LINE
  8
default
 10
12.864804451427988
 20
2.0519051148351819
 30
0.0
 11
10.537104316372236
 21
6.0836000135366808
 31
0.0
  0
LINE
  8
default
 10
12.864804451427988
 20
2.0519051148351819
 30
0.0
 11
14.676138132565349
 21
3.097679103232073
 31
0.0
  0
LINE
  8
default
 10
8.5550498070665668
 20
13.591099166981847
 30
0.0
 11
7.4111197372418705
 21
11.836435925879428
 31
0.0
  0
LINE
  8
default
 10
9.8662836395456672
 20
11.428591462155605
 30
0.0
 11
10.020737862453846
 21
11.161068900635071
 31
0.0
  0
LINE
  8
default
 10
10.020737862453846
 20
11.161068900635071
 30
0.0
 11
12.348437997509597
 21
7.1293740019335718
 31
0.0
  0
LINE
  8
default
 10
8.0549499584083062
 20
10.382817473758713
 30
0.0
 11
8.2094041813164846
 21
10.115294912238181
 31
0.0
  0
LINE
  8
default
 10
8.2094041813164846
 20
10.115294912238181
 30
0.0
 11
10.537104316372236
 21
6.0836000135366808
 31
0.0
  0
LINE
  8
default
 10
8.2094041813164846
 20
10.115294912238181
 30
0.0
 11
10.020737862453846
 21
11.161068900635071
 31
0.0
  0
ARC
  8
default
 10
0
 20
-4.4408920985006262e-016
 30
0
 40
9
 50
2.8271597168564595e-015
 51
59.999999999999993
  0
ARC
  8
default
 10
0
 20
-8.8817841970012523e-016
 30
0
 40
9
 50
59.999999999999993
 51
119.99999999999999
  0
ARC
  8
default
 10
-8.8817841970012523e-016
 20
0
 30
0
 40
9
 50
119.99999999999999
 51
180
  0
ARC
  8
default
 10
0
 20
4.4408920985006262e-016
 30
0
 40
9
 50
180
 51
240
  0
ARC
  8
default
 10
0
 20
8.8817841970012523e-016
 30
0
 40
9
 50
240
 51
300
  0
ARC
  8
default
 10
8.8817841970012523e-016
 20
0
 30
0
 40
9
 50
300
 51
0
  0
ARC
  8
default
 10
0.66724169231560193
 20
12.855676955736065
 30
0
 40
5.1874146797522496
 50
26.906240509794152
 51
97.390260265617258
  0
ARC
  8
default
 10
7.5489552428521289
 20
19.693085268178869
 30
0
 40
5.0247768825820218
 50
243.32402000257292
 51
281.18769626227726
  0
ARC
  8
default
 10
6.3076771817969099
 20
17.917340722493179
 30
0
 40
3.8974272944950283
 50
249.8376864721414
 51
287.70136273184573
  0
ARC
  8
default
 10
5.5080001382247978
 20
14.556187240351447
 30
0
 40
2.4500735229550723
 50
257.17886406964982
 51
295.04254032935415
  0
ARC
  8
default
 10
-0.66724169231560171
 20
12.855676955736065
 30
0
 40
5.1874146797522496
 50
82.609739734382742
 51
153.09375949020585
  0
ARC
  8
default
 10
-7.5489552428521289
 20
19.693085268178869
 30
0
 40
5.0247768825820218
 50
258.81230373772274
 51
296.67597999742708
  0
ARC
  8
default
 10
-6.3076771817969099
 20
17.917340722493179
 30
0
 40
3.8974272944950283
 50
252.29863726815421
 51
290.1623135278586
  0
ARC
  8
default
 10
-5.5080001382247978
 20
14.556187240351447
 30
0
 40
2.4500735229550723
 50
244.95745967064582
 51
282.82113593035018
  0
ARC
  8
default
 10
-10.799721980355827
 20
7.0056867338774653
 30
0
 40
5.1874146797522513
 50
86.906240509794131
 51
157.39026026561726
  0
ARC
  8
default
 10
-13.280234499709916
 20
16.384129646431106
 30
0
 40
5.0247768825820209
 50
303.32402000257287
 51
341.18769626227726
  0
ARC
  8
default
 10
-12.363033643042064
 20
14.42127903955415
 30
0
 40
3.8974272944950274
 50
309.8376864721414
 51
347.70136273184579
  0
ARC
  8
default
 10
-9.8520278632748557
 20
12.048161663926599
 30
0
 40
2.4500735229550727
 50
317.17886406964982
 51
355.04254032935415
  0
ARC
  8
default
 10
-11.466963672671429
 20
5.8499902218586026
 30
0
 40
5.1874146797522496
 50
142.60973973438274
 51
213.09375949020583
  0
ARC
  8
default
 10
-20.82918974256205
 20
3.3089556217477654
 30
0
 40
5.0247768825820209
 50
318.81230373772274
 51
356.67597999742708
  0
ARC
  8
default
 10
-18.670710824838977
 20
3.4960616829390343
 30
0
 40
3.8974272944950288
 50
312.29863726815421
 51
350.1623135278586
  0
ARC
  8
default
 10
-15.360028001499654
 20
2.5080255764248527
 30
0
 40
2.4500735229550732
 50
304.95745967064579
 51
342.82113593035018
  0
ARC
  8
default
 10
-11.466963672671431
 20
-5.8499902218585982
 30
0
 40
5.1874146797522496
 50
146.90624050979415
 51
217.39026026561726
  0
ARC
  8
default
 10
-20.82918974256205
 20
-3.3089556217477591
 30
0
 40
5.0247768825820245
 50
3.324020002572893
 51
41.187696262277264
  0
ARC
  8
default
 10
-18.670710824838977
 20
-3.4960616829390281
 30
0
 40
3.8974272944950288
 50
9.8376864721414172
 51
47.701362731845776
  0
ARC
  8
default
 10
-15.360028001499655
 20
-2.5080255764248447
 30
0
 40
2.4500735229550719
 50
17.178864069649773
 51
55.042540329354139
  0
ARC
  8
default
 10
-10.79972198035583
 20
-7.0056867338774618
 30
0
 40
5.1874146797522478
 50
202.60973973438271
 51
273.09375949020585
  0
ARC
  8
default
 10
-13.280234499709923
 20
-16.384129646431099
 30
0
 40
5.0247768825820218
 50
18.812303737722711
 51
56.675979997427071
  0
ARC
  8
default
 10
-12.363033643042067
 20
-14.421279039554145
 30
0
 40
3.8974272944950274
 50
12.298637268154232
 51
50.162313527858601
  0
ARC
  8
default
 10
-9.8520278632748592
 20
-12.048161663926594
 30
0
 40
2.4500735229550714
 50
4.957459670645779
 51
42.821135930350131
  0
ARC
  8
default
 10
-0.66724169231560371
 20
-12.855676955736065
 30
0
 40
5.1874146797522496
 50
206.90624050979415
 51
277.39026026561726
  0
ARC
  8
default
 10
-7.5489552428521405
 20
-19.693085268178869
 30
0
 40
5.0247768825820271
 50
63.324020002572816
 51
101.18769626227719
  0
ARC
  8
default
 10
-6.3076771817969135
 20
-17.917340722493179
 30
0
 40
3.8974272944950283
 50
69.837686472141385
 51
107.70136273184575
  0
ARC
  8
default
 10
-5.5080001382247996
 20
-14.556187240351447
 30
0
 40
2.4500735229550723
 50
77.178864069649805
 51
115.04254032935418
  0
ARC
  8
default
 10
0.66724169231559949
 20
-12.855676955736065
 30
0
 40
5.1874146797522496
 50
262.60973973438274
 51
333.09375949020585
  0
ARC
  8
default
 10
7.5489552428521254
 20
-19.693085268178869
 30
0
 40
5.0247768825820218
 50
78.812303737722715
 51
116.67597999742708
  0
ARC
  8
default
 10
6.3076771817969046
 20
-17.917340722493179
 30
0
 40
3.8974272944950283
 50
72.298637268154167
 51
110.16231352785856
  0
ARC
  8
default
 10
5.5080001382247961
 20
-14.556187240351447
 30
0
 40
2.4500735229550723
 50
64.957459670645832
 51
102.8211359303502
  0
ARC
  8
default
 10
10.799721980355823
 20
-7.0056867338774707
 30
0
 40
5.1874146797522505
 50
266.90624050979415
 51
337.39026026561726
  0
ARC
  8
default
 10
13.280234499709909
 20
-16.384129646431106
 30
0
 40
5.0247768825820174
 50
123.32402000257289
 51
161.18769626227726
  0
ARC
  8
default
 10
12.363033643042057
 20
-14.421279039554157
 30
0
 40
3.8974272944950283
 50
129.83768647214131
 51
167.70136273184571
  0
ARC
  8
default
 10
9.8520278632748486
 20
-12.048161663926603
 30
0
 40
2.4500735229550705
 50
137.17886406964976
 51
175.04254032935415
  0
ARC
  8
default
 10
11.466963672671429
 20
-5.8499902218586088
 30
0
 40
5.1874146797522478
 50
322.60973973438274
 51
33.093759490205855
  0
ARC
  8
default
 10
20.829189742562047
 20
-3.308955621747772
 30
0
 40
5.0247768825820227
 50
138.81230373772274
 51
176.67597999742713
  0
ARC
  8
default
 10
18.670710824838974
 20
-3.4960616829390405
 30
0
 40
3.8974272944950283
 50
132.29863726815418
 51
170.16231352785857
  0
ARC
  8
default
 10
15.360028001499654
 20
-2.5080255764248602
 30
0
 40
2.4500735229550741
 50
124.95745967064575
 51
162.82113593035012
  0
ARC
  8
default
 10
11.466963672671429
 20
5.8499902218586026
 30
0
 40
5.1874146797522496
 50
326.90624050979415
 51
37.390260265617272
  0
ARC
  8
default
 10
20.829189742562065
 20
3.3089556217477529
 30
0
 40
5.0247768825820378
 50
183.32402000257272
 51
221.18769626227711
  0
ARC
  8
default
 10
18.670710824838977
 20
3.4960616829390343
 30
0
 40
3.8974272944950288
 50
189.8376864721414
 51
227.70136273184576
  0
ARC
  8
default
 10
15.360028001499654
 20
2.5080255764248527
 30
0
 40
2.4500735229550732
 50
197.17886406964982
 51
235.04254032935421
  0
ARC
  8
default
 10
10.799721980355827
 20
7.0056867338774653
 30
0
 40
5.1874146797522513
 50
22.609739734382746
 51
93.093759490205869
  0
ARC
  8
default
 10
13.280234499709916
 20
16.384129646431106
 30
0
 40
5.0247768825820209
 50
198.81230373772274
 51
236.67597999742708
  0
ARC
  8
default
 10
12.363033643042064
 20
14.42127903955415
 30
0
 40
3.8974272944950274
 50
192.29863726815424
 51
230.1623135278586
  0
ARC
  8
default
 10
9.8520278632748557
 20
12.048161663926599
 30
0
 40
2.4500735229550727
 50
184.95745967064582
 51
222.82113593035018
  0
ARC
  8
default
 10
0
 20
0
 30
0
 40
20.5
 50
0
 51
180
  0
ARC
  8
default
 10
0
 20
0
 30
0
 40
20.5
 50
180
 51
0
  0
ARC
  8
default
 10
0
 20
0
 30
0
 40
23.5
 50
0
 51
180
  0
ARC
  8
default
 10
0
 20
0
 30
0
 40
23.5
 50
180
 51
0
  0
ENDSEC
  0
EOF
