  0
SECTION
  2
HEADER
  9
$INSBASE
 10
0.0000
 20
0.0000
  9
$EXTMIN
 10
-57.818376618407356
 20
-57.818376618407356
  9
$EXTMAX
 10
57.818376618407356
 20
57.818376618407356
  9
$LIMMIN
 10
-57.818376618407356
 20
-57.818376618407356
  9
$LIMMAX
 10
57.818376618407356
 20
57.818376618407356
  9
$TEXTSTYLE
  7
STANDARD
  9
$CLAYER
  8
default
  0
ENDSEC
  0
SECTION
  2
TABLES
  0
TABLE
  2
LTYPE
 70
4948253
  0
LTYPE
  2
CONTINUOUS
 70
    64
  3
Solid line
 72
    65
 73
     0
 40
0.0
  0
ENDTAB
  0
TABLE
  2
LAYER
 70
     5
  0
LAYER
  2
default
 70
    64
 62
     7
  6
CONTINUOUS
  0
ENDTAB
  0
TABLE
  2
STYLE
 70
     1
  0
STYLE
  2
STANDARD
 70
     0
 40
0.0
 41
1.0
 50
0.0
 71
     0
 42
0.2
  3
txt
  4

  0
ENDTAB
  0
TABLE
  2
VIEW
 70
     0
  0
ENDTAB
  0
ENDSEC
  0
SECTION
  2
BLOCKS
  0
ENDSEC
  0
SECTION
  2
ENTITIES
  0
LINE
  8
default
 10
-54
 20
-54
 30
0.0
 11
-54
 21
54
 31
0.0
  0
LINE
  8
default
 10
-54
 20
54
 30
0.0
 11
54
 21
54
 31
0.0
  0
LINE
  8
default
 10
54
 20
54
 30
0.0
 11
54
 21
-54
 31
0.0
  0
LINE
  8
default
 10
54
 20
-54
 30
0.0
 11
-54
 21
-54
 31
0.0
  0
LINE
  8
default
 10
7.2776267346318937
 20
14.378075919047168
 30
0.0
 11
6.6509074305064981
 21
12.519709586074629
 31
0.0
  0
LINE
  8
default
 10
4.9875492529672529
 20
14.810654718857402
 30
0.0
 11
4.2117796133192531
 21
14.810654718857402
 31
0.0
  0
LINE
  8
default
 10
4.2117796133192531
 20
14.810654718857402
 30
0.0
 11
0
 21
14.810654718857402
 31
0.0
  0
LINE
  8
default
 10
4.9875492529672529
 20
12.887902612902755
 30
0.0
 11
4.2117796133192531
 21
12.887902612902755
 31
0.0
  0
LINE
  8
default
 10
4.2117796133192531
 20
12.887902612902755
 30
0.0
 11
0
 21
12.887902612902755
 31
0.0
  0
LINE
  8
default
 10
4.2117796133192531
 20
12.887902612902755
 30
0.0
 11
4.2117796133192531
 21
14.810654718857402
 31
0.0
  0
LINE
  8
default
 10
-7.2776267346318937
 20
14.378075919047168
 30
0.0
 11
-6.6509074305064981
 21
12.519709586074629
 31
0.0
  0
LINE
  8
default
 10
-4.9875492529672529
 20
14.810654718857402
 30
0.0
 11
-4.2117796133192531
 21
14.810654718857402
 31
0.0
  0
LINE
  8
default
 10
-4.2117796133192531
 20
14.810654718857402
 30
0.0
 11
0
 21
14.810654718857402
 31
0.0
  0
LINE
  8
default
 10
-4.9875492529672529
 20
12.887902612902755
 30
0.0
 11
-4.2117796133192531
 21
12.887902612902755
 31
0.0
  0
LINE
  8
default
 10
-4.2117796133192531
 20
12.887902612902755
 30
0.0
 11
0
 21
12.887902612902755
 31
0.0
  0
LINE
  8
default
 10
-4.2117796133192531
 20
12.887902612902755
 30
0.0
 11
-4.2117796133192531
 21
14.810654718857402
 31
0.0
  0
LINE
  8
default
 10
-8.8129656361201896
 20
13.491647590975596
 30
0.0
 11
-7.5169328342909374
 21
12.019709586074629
 31
0.0
  0
LINE
  8
default
 10
-10.332628606726754
 20
11.724671715124444
 30
0.0
 11
-10.720513426550754
 21
11.052835499704575
 31
0.0
  0
LINE
  8
default
 10
-10.720513426550754
 20
11.052835499704575
 30
0.0
 11
-12.826403233210382
 21
7.4053273594287026
 31
0.0
  0
LINE
  8
default
 10
-8.667476437790004
 20
10.763295662147119
 30
0.0
 11
-9.0553612576140026
 21
10.091459446727253
 31
0.0
  0
LINE
  8
default
 10
-9.0553612576140026
 20
10.091459446727253
 30
0.0
 11
-11.16125106427363
 21
6.4439513064513791
 31
0.0
  0
LINE
  8
default
 10
-9.0553612576140026
 20
10.091459446727253
 30
0.0
 11
-10.720513426550754
 21
11.052835499704575
 31
0.0
  0
LINE
  8
default
 10
-16.090592370752084
 20
0.88642832807157479
 30
0.0
 11
-14.167840264797437
 21
0.50000000000000355
 31
0.0
  0
LINE
  8
default
 10
-15.320177859694009
 20
3.0859830037329621
 30
0.0
 11
-14.932293039870009
 21
3.7578192191528297
 31
0.0
  0
LINE
  8
default
 10
-14.932293039870009
 20
3.7578192191528297
 30
0.0
 11
-12.826403233210382
 21
7.4053273594287026
 31
0.0
  0
LINE
  8
default
 10
-13.655025690757256
 20
2.1246069507556387
 30
0.0
 11
-13.267140870933257
 21
2.7964431661755063
 31
0.0
  0
LINE
  8
default
 10
-13.267140870933257
 20
2.7964431661755063
 30
0.0
 11
-11.16125106427363
 21
6.4439513064513791
 31
0.0
  0
LINE
  8
default
 10
-13.267140870933257
 20
2.7964431661755063
 30
0.0
 11
-14.932293039870009
 21
3.7578192191528297
 31
0.0
  0
LINE
  8
default
 10
-16.090592370752084
 20
-0.88642832807156857
 30
0.0
 11
-14.167840264797437
 21
-0.49999999999999822
 31
0.0
  0
LINE
  8
default
 10
-15.320177859694009
 20
-3.0859830037329568
 30
0.0
 11
-14.932293039870009
 21
-3.7578192191528239
 31
0.0
  0
LINE
  8
default
 10
-14.932293039870009
 20
-3.7578192191528239
 30
0.0
 11
-12.826403233210383
 21
-7.4053273594286972
 31
0.0
  0
LINE
  8
default
 10
-13.655025690757256
 20
-2.1246069507556342
 30
0.0
 11
-13.267140870933256
 21
-2.7964431661755014
 31
0.0
  0
LINE
  8
default
 10
-13.267140870933256
 20
-2.7964431661755014
 30
0.0
 11
-11.16125106427363
 21
-6.4439513064513747
 31
0.0
  0
LINE
  8
default
 10
-13.267140870933256
 20
-2.7964431661755014
 30
0.0
 11
-14.932293039870009
 21
-3.7578192191528239
 31
0.0
  0
LINE
  8
default
 10
-8.8129656361201931
 20
-13.491647590975592
 30
0.0
 11
-7.5169328342909409
 21
-12.019709586074626
 31
0.0
  0
LINE
  8
default
 10
-10.332628606726757
 20
-11.724671715124437
 30
0.0
 11
-10.720513426550758
 21
-11.052835499704571
 31
0.0
  0
LINE
  8
default
 10
-10.720513426550758
 20
-11.052835499704571
 30
0.0
 11
-12.826403233210383
 21
-7.4053273594286972
 31
0.0
  0
LINE
  8
default
 10
-8.667476437790004
 20
-10.763295662147115
 30
0.0
 11
-9.0553612576140043
 21
-10.091459446727248
 31
0.0
  0
LINE
  8
default
 10
-9.0553612576140043
 20
-10.091459446727248
 30
0.0
 11
-11.16125106427363
 21
-6.4439513064513747
 31
0.0
  0
LINE
  8
default
 10
-9.0553612576140043
 20
-10.091459446727248
 30
0.0
 11
-10.720513426550758
 21
-11.052835499704571
 31
0.0
  0
LINE
  8
default
 10
-7.2776267346318955
 20
-14.378075919047166
 30
0.0
 11
-6.6509074305064999
 21
-12.519709586074629
 31
0.0
  0
LINE
  8
default
 10
-4.9875492529672547
 20
-14.810654718857402
 30
0.0
 11
-4.2117796133192549
 21
-14.810654718857402
 31
0.0
  0
LINE
  8
default
 10
-4.2117796133192549
 20
-14.810654718857402
 30
0.0
 11
-1.8137820894725361e-015
 21
-14.810654718857402
 31
0.0
  0
LINE
  8
default
 10
-4.9875492529672547
 20
-12.887902612902755
 30
0.0
 11
-4.2117796133192549
 21
-12.887902612902755
 31
0.0
  0
LINE
  8
default
 10
-4.2117796133192549
 20
-12.887902612902755
 30
0.0
 11
-1.5783128682614169e-015
 21
-12.887902612902755
 31
0.0
  0
LINE
  8
default
 10
-4.2117796133192549
 20
-12.887902612902755
 30
0.0
 11
-4.2117796133192549
 21
-14.810654718857402
 31
0.0
  0
LINE
  8
default
 10
7.2776267346318919
 20
-14.37807591904717
 30
0.0
 11
6.6509074305064964
 21
-12.519709586074629
 31
0.0
  0
LINE
  8
default
 10
4.9875492529672512
 20
-14.810654718857402
 30
0.0
 11
4.2117796133192513
 21
-14.810654718857402
 31
0.0
  0
LINE
  8
default
 10
4.2117796133192513
 20
-14.810654718857402
 30
0.0
 11
-1.8137820894725361e-015
 21
-14.810654718857402
 31
0.0
  0
LINE
  8
default
 10
4.9875492529672512
 20
-12.887902612902755
 30
0.0
 11
4.2117796133192513
 21
-12.887902612902755
 31
0.0
  0
LINE
  8
default
 10
4.2117796133192513
 20
-12.887902612902755
 30
0.0
 11
-1.5783128682614169e-015
 21
-12.887902612902755
 31
0.0
  0
LINE
  8
default
 10
4.2117796133192513
 20
-12.887902612902755
 30
0.0
 11
4.2117796133192513
 21
-14.810654718857402
 31
0.0
  0
LINE
  8
default
 10
8.8129656361201825
 20
-13.4916475909756
 30
0.0
 11
7.5169328342909338
 21
-12.019709586074631
 31
0.0
  0
LINE
  8
default
 10
10.33262860672675
 20
-11.724671715124448
 30
0.0
 11
10.720513426550749
 21
-11.052835499704578
 31
0.0
  0
LINE
  8
default
 10
10.720513426550749
 20
-11.052835499704578
 30
0.0
 11
12.826403233210378
 21
-7.405327359428707
 31
0.0
  0
LINE
  8
default
 10
8.6674764377899969
 20
-10.763295662147122
 30
0.0
 11
9.055361257613999
 21
-10.091459446727255
 31
0.0
  0
LINE
  8
default
 10
9.055361257613999
 20
-10.091459446727255
 30
0.0
 11
11.161251064273626
 21
-6.4439513064513827
 31
0.0
  0
LINE
  8
default
 10
9.055361257613999
 20
-10.091459446727255
 30
0.0
 11
10.720513426550749
 21
-11.052835499704578
 31
0.0
  0
LINE
  8
default
 10
16.090592370752084
 20
-0.88642832807158101
 30
0.0
 11
14.167840264797437
 21
-0.50000000000000888
 31
0.0
  0
LINE
  8
default
 10
15.320177859694006
 20
-3.0859830037329674
 30
0.0
 11
14.932293039870007
 21
-3.757819219152835
 31
0.0
  0
LINE
  8
default
 10
14.932293039870007
 20
-3.757819219152835
 30
0.0
 11
12.826403233210378
 21
-7.405327359428707
 31
0.0
  0
LINE
  8
default
 10
13.655025690757256
 20
-2.1246069507556431
 30
0.0
 11
13.267140870933254
 21
-2.7964431661755107
 31
0.0
  0
LINE
  8
default
 10
13.267140870933254
 20
-2.7964431661755107
 30
0.0
 11
11.161251064273626
 21
-6.4439513064513827
 31
0.0
  0
LINE
  8
default
 10
13.267140870933254
 20
-2.7964431661755107
 30
0.0
 11
14.932293039870007
 21
-3.757819219152835
 31
0.0
  0
LINE
  8
default
 10
16.090592370752084
 20
0.88642832807157479
 30
0.0
 11
14.167840264797437
 21
0.50000000000000355
 31
0.0
  0
LINE
  8
default
 10
15.320177859694009
 20
3.0859830037329621
 30
0.0
 11
14.932293039870009
 21
3.7578192191528297
 31
0.0
  0
LINE
  8
default
 10
14.932293039870009
 20
3.7578192191528297
 30
0.0
 11
12.826403233210382
 21
7.4053273594287026
 31
0.0
  0
LINE
  8
default
 10
13.655025690757256
 20
2.1246069507556387
 30
0.0
 11
13.267140870933257
 21
2.7964431661755063
 31
0.0
  0
LINE
  8
default
 10
13.267140870933257
 20
2.7964431661755063
 30
0.0
 11
11.16125106427363
 21
6.4439513064513791
 31
0.0
  0
LINE
  8
default
 10
13.267140870933257
 20
2.7964431661755063
 30
0.0
 11
14.932293039870009
 21
3.7578192191528297
 31
0.0
  0
LINE
  8
default
 10
8.8129656361201896
 20
13.491647590975596
 30
0.0
 11
7.5169328342909374
 21
12.019709586074629
 31
0.0
  0
LINE
  8
default
 10
10.332628606726754
 20
11.724671715124444
 30
0.0
 11
10.720513426550754
 21
11.052835499704575
 31
0.0
  0
LINE
  8
default
 10
10.720513426550754
 20
11.052835499704575
 30
0.0
 11
12.826403233210382
 21
7.4053273594287026
 31
0.0
  0
LINE
  8
default
 10
8.667476437790004
 20
10.763295662147119
 30
0.0
 11
9.0553612576140026
 21
10.091459446727253
 31
0.0
  0
LINE
  8
default
 10
9.0553612576140026
 20
10.091459446727253
 30
0.0
 11
11.16125106427363
 21
6.4439513064513791
 31
0.0
  0
LINE
  8
default
 10
9.0553612576140026
 20
10.091459446727253
 30
0.0
 11
10.720513426550754
 21
11.052835499704575
 31
0.0
  0
ARC
  8
default
 10
0
 20
-4.4408920985006262e-016
 30
0
 40
9
 50
2.8271597168564595e-015
 51
59.999999999999993
  0
ARC
  8
default
 10
0
 20
-8.8817841970012523e-016
 30
0
 40
9
 50
59.999999999999993
 51
119.99999999999999
  0
ARC
  8
default
 10
-8.8817841970012523e-016
 20
0
 30
0
 40
9
 50
119.99999999999999
 51
180
  0
ARC
  8
default
 10
0
 20
4.4408920985006262e-016
 30
0
 40
9
 50
180
 51
240
  0
ARC
  8
default
 10
0
 20
8.8817841970012523e-016
 30
0
 40
9
 50
240
 51
300
  0
ARC
  8
default
 10
8.8817841970012523e-016
 20
0
 30
0
 40
9
 50
300
 51
0
  0
ARC
  8
default
 10
-1.0859975668933384
 20
8.0269289880451069
 30
0
 40
10.032025524528597
 50
50.41454824928411
 51
83.785377480768076
  0
ARC
  8
default
 10
8.3241081414843343
 20
20.008666522499674
 30
0
 40
5.2124744653360517
 50
234.62795544230505
 51
272.43204027800823
  0
ARC
  8
default
 10
6.7642441598005369
 20
17.938360823466162
 30
0
 40
3.5971085984126518
 50
240.40123888097736
 51
278.20532371668054
  0
ARC
  8
default
 10
6.3568677169826557
 20
15.132659407999661
 30
0
 40
2.6294421699340025
 50
238.616496071813
 51
276.42058090751618
  0
ARC
  8
default
 10
1.0859975668933384
 20
8.0269289880451069
 30
0
 40
10.032025524528597
 50
96.214622519231924
 51
129.58545175071589
  0
ARC
  8
default
 10
-8.3241081414843343
 20
20.008666522499674
 30
0
 40
5.2124744653360517
 50
267.56795972199177
 51
305.37204455769495
  0
ARC
  8
default
 10
-6.7642441598005369
 20
17.938360823466162
 30
0
 40
3.5971085984126518
 50
261.79467628331946
 51
299.59876111902258
  0
ARC
  8
default
 10
-6.3568677169826557
 20
15.132659407999661
 30
0
 40
2.6294421699340025
 50
263.57941909248382
 51
301.383503928187
  0
ARC
  8
default
 10
-7.4945232014674481
 20
3.0729630126448342
 30
0
 40
10.032025524528597
 50
110.41454824928411
 51
143.78537748076809
  0
ARC
  8
default
 10
-13.165959433593791
 20
17.213222375624142
 30
0
 40
5.2124744653360544
 50
294.62795544230505
 51
332.43204027800823
  0
ARC
  8
default
 10
-12.152954095472964
 20
14.827187691520871
 30
0
 40
3.5971085984126483
 50
300.40123888097736
 51
338.20532371668054
  0
ARC
  8
default
 10
-9.9268336156539618
 20
13.071538635404004
 30
0
 40
2.629442169934006
 50
298.61649607181295
 51
336.42058090751613
  0
ARC
  8
default
 10
-6.4085256345741097
 20
4.9539659754002745
 30
0
 40
10.032025524528596
 50
156.21462251923191
 51
189.58545175071589
  0
ARC
  8
default
 10
-21.490067575078129
 20
2.7954441468755373
 30
0
 40
5.2124744653360526
 50
327.56795972199177
 51
5.3720445576949318
  0
ARC
  8
default
 10
-18.917198255273505
 20
3.1111731319452911
 30
0
 40
3.5971085984126514
 50
321.79467628331946
 51
359.59876111902264
  0
ARC
  8
default
 10
-16.283701332636618
 20
2.061120772595666
 30
0
 40
2.6294421699340025
 50
323.57941909248382
 51
1.3835039281869639
  0
ARC
  8
default
 10
-6.4085256345741097
 20
-4.9539659754002718
 30
0
 40
10.032025524528597
 50
170.41454824928411
 51
203.78537748076806
  0
ARC
  8
default
 10
-21.490067575078129
 20
-2.7954441468755311
 30
0
 40
5.2124744653360544
 50
354.62795544230505
 51
32.432040278008238
  0
ARC
  8
default
 10
-18.917198255273508
 20
-3.1111731319452858
 30
0
 40
3.5971085984126527
 50
0.40123888097737503
 51
38.205323716680532
  0
ARC
  8
default
 10
-16.283701332636621
 20
-2.0611207725956611
 30
0
 40
2.6294421699340038
 50
358.616496071813
 51
36.420580907516175
  0
ARC
  8
default
 10
-7.4945232014674499
 20
-3.0729630126448306
 30
0
 40
10.032025524528594
 50
216.21462251923191
 51
249.58545175071589
  0
ARC
  8
default
 10
-13.1659594335938
 20
-17.213222375624138
 30
0
 40
5.2124744653360544
 50
27.567959721991755
 51
65.37204455769492
  0
ARC
  8
default
 10
-12.152954095472973
 20
-14.827187691520866
 30
0
 40
3.5971085984126518
 50
21.794676283319401
 51
59.598761119022576
  0
ARC
  8
default
 10
-9.9268336156539654
 20
-13.071538635403993
 30
0
 40
2.629442169934002
 50
23.579419092483754
 51
61.383503928186919
  0
ARC
  8
default
 10
1.0859975668933366
 20
-8.0269289880451069
 30
0
 40
10.032025524528597
 50
230.41454824928411
 51
263.78537748076809
  0
ARC
  8
default
 10
-8.3241081414843414
 20
-20.008666522499677
 30
0
 40
5.2124744653360588
 50
54.627955442305023
 51
92.432040278008202
  0
ARC
  8
default
 10
-6.7642441598005414
 20
-17.938360823466162
 30
0
 40
3.5971085984126527
 50
60.401238880977353
 51
98.20532371668051
  0
ARC
  8
default
 10
-6.3568677169826575
 20
-15.132659407999661
 30
0
 40
2.6294421699340025
 50
58.616496071813025
 51
96.420580907516197
  0
ARC
  8
default
 10
-1.0859975668933406
 20
-8.0269289880451069
 30
0
 40
10.032025524528597
 50
276.21462251923191
 51
309.58545175071589
  0
ARC
  8
default
 10
8.324108141484329
 20
-20.008666522499677
 30
0
 40
5.2124744653360509
 50
87.567959721991755
 51
125.37204455769491
  0
ARC
  8
default
 10
6.7642441598005325
 20
-17.938360823466162
 30
0
 40
3.5971085984126518
 50
81.794676283319404
 51
119.59876111902258
  0
ARC
  8
default
 10
6.356867716982654
 20
-15.132659407999661
 30
0
 40
2.6294421699340025
 50
83.579419092483818
 51
121.38350392818698
  0
ARC
  8
default
 10
7.4945232014674437
 20
-3.072963012644836
 30
0
 40
10.032025524528597
 50
290.41454824928411
 51
323.78537748076803
  0
ARC
  8
default
 10
13.165959433593784
 20
-17.213222375624142
 30
0
 40
5.2124744653360455
 50
114.62795544230505
 51
152.43204027800823
  0
ARC
  8
default
 10
12.15295409547296
 20
-14.82718769152088
 30
0
 40
3.5971085984126527
 50
120.40123888097732
 51
158.20532371668048
  0
ARC
  8
default
 10
9.9268336156539547
 20
-13.071538635404
 30
0
 40
2.6294421699339998
 50
118.61649607181302
 51
156.42058090751618
  0
ARC
  8
default
 10
6.4085256345741062
 20
-4.9539659754002745
 30
0
 40
10.032025524528596
 50
336.21462251923185
 51
9.5854517507158388
  0
ARC
  8
default
 10
21.490067575078129
 20
-2.7954441468755435
 30
0
 40
5.2124744653360526
 50
147.56795972199177
 51
185.37204455769492
  0
ARC
  8
default
 10
18.917198255273505
 20
-3.1111731319453022
 30
0
 40
3.5971085984126518
 50
141.79467628331938
 51
179.59876111902253
  0
ARC
  8
default
 10
16.283701332636618
 20
-2.0611207725956708
 30
0
 40
2.6294421699340012
 50
143.57941909248379
 51
181.38350392818694
  0
ARC
  8
default
 10
6.408525634574108
 20
4.9539659754002745
 30
0
 40
10.032025524528596
 50
350.41454824928411
 51
23.785377480768087
  0
ARC
  8
default
 10
21.490067575078147
 20
2.7954441468755311
 30
0
 40
5.2124744653360722
 50
174.62795544230502
 51
212.43204027800817
  0
ARC
  8
default
 10
18.917198255273505
 20
3.1111731319452911
 30
0
 40
3.5971085984126514
 50
180.40123888097736
 51
218.20532371668057
  0
ARC
  8
default
 10
16.283701332636618
 20
2.061120772595666
 30
0
 40
2.6294421699340025
 50
178.61649607181306
 51
216.42058090751621
  0
ARC
  8
default
 10
7.4945232014674481
 20
3.0729630126448342
 30
0
 40
10.032025524528597
 50
36.214622519231931
 51
69.58545175071589
  0
ARC
  8
default
 10
13.165959433593791
 20
17.213222375624145
 30
0
 40
5.2124744653360544
 50
207.5679597219918
 51
245.37204455769495
  0
ARC
  8
default
 10
12.152954095472964
 20
14.827187691520871
 30
0
 40
3.5971085984126483
 50
201.79467628331943
 51
239.59876111902264
  0
ARC
  8
default
 10
9.9268336156539618
 20
13.071538635404002
 30
0
 40
2.629442169934006
 50
203.57941909248385
 51
241.38350392818705
  0
ARC
  8
default
 10
0
 20
0
 30
0
 40
20.5
 50
0
 51
180
  0
ARC
  8
default
 10
0
 20
0
 30
0
 40
20.5
 50
180
 51
0
  0
ARC
  8
default
 10
0
 20
0
 30
0
 40
23.5
 50
0
 51
180
  0
ARC
  8
default
 10
0
 20
0
 30
0
 40
23.5
 50
180
 51
0
  0
ENDSEC
  0
EOF
