  0
SECTION
  2
HEADER
  9
$INSBASE
 10
0.0000
 20
0.0000
  9
$EXTMIN
 10
-57.818376618407356
 20
-57.818376618407356
  9
$EXTMAX
 10
57.818376618407356
 20
57.818376618407356
  9
$LIMMIN
 10
-57.818376618407356
 20
-57.818376618407356
  9
$LIMMAX
 10
57.818376618407356
 20
57.818376618407356
  9
$TEXTSTYLE
  7
STANDARD
  9
$CLAYER
  8
default
  0
ENDSEC
  0
SECTION
  2
TABLES
  0
TABLE
  2
LTYPE
 70
4948253
  0
LTYPE
  2
CONTINUOUS
 70
    64
  3
Solid line
 72
    65
 73
     0
 40
0.0
  0
ENDTAB
  0
TABLE
  2
LAYER
 70
     5
  0
LAYER
  2
default
 70
    64
 62
     7
  6
CONTINUOUS
  0
ENDTAB
  0
TABLE
  2
STYLE
 70
     1
  0
STYLE
  2
STANDARD
 70
     0
 40
0.0
 41
1.0
 50
0.0
 71
     0
 42
0.2
  3
txt
  4

  0
ENDTAB
  0
TABLE
  2
VIEW
 70
     0
  0
ENDTAB
  0
ENDSEC
  0
SECTION
  2
BLOCKS
  0
ENDSEC
  0
SECTION
  2
ENTITIES
  0
LINE
  8
default
 10
-54
 20
-54
 30
0.0
 11
-54
 21
54
 31
0.0
  0
LINE
  8
default
 10
-54
 20
54
 30
0.0
 11
54
 21
54
 31
0.0
  0
LINE
  8
default
 10
54
 20
54
 30
0.0
 11
54
 21
-54
 31
0.0
  0
LINE
  8
default
 10
54
 20
-54
 30
0.0
 11
-54
 21
-54
 31
0.0
  0
LINE
  8
default
 10
7.4264746122402823
 20
14.085401861476276
 30
0.0
 11
6.5654888542836609
 21
12.371760272146481
 31
0.0
  0
LINE
  8
default
 10
4.9948667225875791
 20
13.770253188847807
 30
0.0
 11
4.6206167183706688
 21
13.770253188847807
 31
0.0
  0
LINE
  8
default
 10
4.6206167183706688
 20
13.770253188847807
 30
0.0
 11
0
 21
13.770253188847807
 31
0.0
  0
LINE
  8
default
 10
4.9948667225875791
 20
11.855703160528353
 30
0.0
 11
4.6206167183706688
 21
11.855703160528353
 31
0.0
  0
LINE
  8
default
 10
4.6206167183706688
 20
11.855703160528353
 30
0.0
 11
0
 21
11.855703160528353
 31
0.0
  0
LINE
  8
default
 10
4.6206167183706688
 20
11.855703160528353
 30
0.0
 11
4.6206167183706688
 21
13.770253188847807
 31
0.0
  0
LINE
  8
default
 10
-7.4264746122402823
 20
14.085401861476276
 30
0.0
 11
-6.5654888542836609
 21
12.371760272146481
 31
0.0
  0
LINE
  8
default
 10
-4.9948667225875791
 20
13.770253188847807
 30
0.0
 11
-4.6206167183706688
 21
13.770253188847807
 31
0.0
  0
LINE
  8
default
 10
-4.6206167183706688
 20
13.770253188847807
 30
0.0
 11
0
 21
13.770253188847807
 31
0.0
  0
LINE
  8
default
 10
-4.9948667225875791
 20
11.855703160528353
 30
0.0
 11
-4.6206167183706688
 21
11.855703160528353
 31
0.0
  0
LINE
  8
default
 10
-4.6206167183706688
 20
11.855703160528353
 30
0.0
 11
0
 21
11.855703160528353
 31
0.0
  0
LINE
  8
default
 10
-4.6206167183706688
 20
11.855703160528353
 30
0.0
 11
-4.6206167183706688
 21
13.770253188847807
 31
0.0
  0
LINE
  8
default
 10
-8.4850785284309325
 20
13.474216605498412
 30
0.0
 11
-7.4315142580681011
 21
11.871760272146481
 31
0.0
  0
LINE
  8
default
 10
-9.4279557167920842
 20
11.210808064702269
 30
0.0
 11
-9.6150807189005398
 21
10.886698053683991
 31
0.0
  0
LINE
  8
default
 10
-9.6150807189005398
 20
10.886698053683991
 30
0.0
 11
-11.925389078085875
 21
6.8851265944239053
 31
0.0
  0
LINE
  8
default
 10
-7.7699067554512222
 20
10.25353305054254
 30
0.0
 11
-7.9570317575596778
 21
9.9294230395242629
 31
0.0
  0
LINE
  8
default
 10
-7.9570317575596778
 20
9.9294230395242629
 30
0.0
 11
-10.267340116745013
 21
5.9278515802641776
 31
0.0
  0
LINE
  8
default
 10
-7.9570317575596778
 20
9.9294230395242629
 30
0.0
 11
-9.6150807189005398
 21
10.886698053683991
 31
0.0
  0
LINE
  8
default
 10
-15.911553140671217
 20
0.61118525597786721
 30
0.0
 11
-13.997003112351763
 21
0.50000000000000355
 31
0.0
  0
LINE
  8
default
 10
-14.422822439379665
 20
2.559445124145542
 30
0.0
 11
-14.23569743727121
 21
2.8835551351638191
 31
0.0
  0
LINE
  8
default
 10
-14.23569743727121
 20
2.8835551351638191
 30
0.0
 11
-11.925389078085875
 21
6.8851265944239053
 31
0.0
  0
LINE
  8
default
 10
-12.764773478038803
 20
1.6021701099858143
 30
0.0
 11
-12.577648475930348
 21
1.9262801210040914
 31
0.0
  0
LINE
  8
default
 10
-12.577648475930348
 20
1.9262801210040914
 30
0.0
 11
-10.267340116745013
 21
5.9278515802641776
 31
0.0
  0
LINE
  8
default
 10
-12.577648475930348
 20
1.9262801210040914
 30
0.0
 11
-14.23569743727121
 21
2.8835551351638191
 31
0.0
  0
LINE
  8
default
 10
-15.911553140671217
 20
-0.611185255977861
 30
0.0
 11
-13.997003112351763
 21
-0.49999999999999911
 31
0.0
  0
LINE
  8
default
 10
-14.422822439379665
 20
-2.5594451241455367
 30
0.0
 11
-14.23569743727121
 21
-2.8835551351638147
 31
0.0
  0
LINE
  8
default
 10
-14.23569743727121
 20
-2.8835551351638147
 30
0.0
 11
-11.925389078085876
 21
-6.8851265944239008
 31
0.0
  0
LINE
  8
default
 10
-12.764773478038801
 20
-1.6021701099858099
 30
0.0
 11
-12.577648475930346
 21
-1.9262801210040879
 31
0.0
  0
LINE
  8
default
 10
-12.577648475930346
 20
-1.9262801210040879
 30
0.0
 11
-10.267340116745013
 21
-5.927851580264174
 31
0.0
  0
LINE
  8
default
 10
-12.577648475930346
 20
-1.9262801210040879
 30
0.0
 11
-14.23569743727121
 21
-2.8835551351638147
 31
0.0
  0
LINE
  8
default
 10
-8.485078528430936
 20
-13.474216605498409
 30
0.0
 11
-7.4315142580681055
 21
-11.871760272146478
 31
0.0
  0
LINE
  8
default
 10
-9.4279557167920878
 20
-11.210808064702265
 30
0.0
 11
-9.6150807189005434
 21
-10.886698053683986
 31
0.0
  0
LINE
  8
default
 10
-9.6150807189005434
 20
-10.886698053683986
 30
0.0
 11
-11.925389078085876
 21
-6.8851265944239008
 31
0.0
  0
LINE
  8
default
 10
-7.769906755451224
 20
-10.253533050542538
 30
0.0
 11
-7.9570317575596796
 21
-9.9294230395242593
 31
0.0
  0
LINE
  8
default
 10
-7.9570317575596796
 20
-9.9294230395242593
 30
0.0
 11
-10.267340116745013
 21
-5.927851580264174
 31
0.0
  0
LINE
  8
default
 10
-7.9570317575596796
 20
-9.9294230395242593
 30
0.0
 11
-9.6150807189005434
 21
-10.886698053683986
 31
0.0
  0
LINE
  8
default
 10
-7.426474612240284
 20
-14.085401861476274
 30
0.0
 11
-6.5654888542836627
 21
-12.371760272146481
 31
0.0
  0
LINE
  8
default
 10
-4.9948667225875809
 20
-13.770253188847807
 30
0.0
 11
-4.6206167183706706
 21
-13.770253188847807
 31
0.0
  0
LINE
  8
default
 10
-4.6206167183706706
 20
-13.770253188847807
 30
0.0
 11
-1.6863696491171101e-015
 21
-13.770253188847807
 31
0.0
  0
LINE
  8
default
 10
-4.9948667225875809
 20
-11.855703160528353
 30
0.0
 11
-4.6206167183706706
 21
-11.855703160528353
 31
0.0
  0
LINE
  8
default
 10
-4.6206167183706706
 20
-11.855703160528353
 30
0.0
 11
-1.4519048927182207e-015
 21
-11.855703160528353
 31
0.0
  0
LINE
  8
default
 10
-4.6206167183706706
 20
-11.855703160528353
 30
0.0
 11
-4.6206167183706706
 21
-13.770253188847807
 31
0.0
  0
LINE
  8
default
 10
7.4264746122402805
 20
-14.085401861476278
 30
0.0
 11
6.5654888542836591
 21
-12.371760272146481
 31
0.0
  0
LINE
  8
default
 10
4.9948667225875774
 20
-13.770253188847807
 30
0.0
 11
4.620616718370667
 21
-13.770253188847807
 31
0.0
  0
LINE
  8
default
 10
4.620616718370667
 20
-13.770253188847807
 30
0.0
 11
-1.6863696491171101e-015
 21
-13.770253188847807
 31
0.0
  0
LINE
  8
default
 10
4.9948667225875774
 20
-11.855703160528353
 30
0.0
 11
4.620616718370667
 21
-11.855703160528353
 31
0.0
  0
LINE
  8
default
 10
4.620616718370667
 20
-11.855703160528353
 30
0.0
 11
-1.4519048927182207e-015
 21
-11.855703160528353
 31
0.0
  0
LINE
  8
default
 10
4.620616718370667
 20
-11.855703160528353
 30
0.0
 11
4.620616718370667
 21
-13.770253188847807
 31
0.0
  0
LINE
  8
default
 10
8.4850785284309289
 20
-13.474216605498416
 30
0.0
 11
7.4315142580680966
 21
-11.871760272146483
 31
0.0
  0
LINE
  8
default
 10
9.4279557167920807
 20
-11.210808064702272
 30
0.0
 11
9.6150807189005363
 21
-10.886698053683995
 31
0.0
  0
LINE
  8
default
 10
9.6150807189005363
 20
-10.886698053683995
 30
0.0
 11
11.925389078085873
 21
-6.8851265944239097
 31
0.0
  0
LINE
  8
default
 10
7.7699067554512169
 20
-10.253533050542543
 30
0.0
 11
7.9570317575596725
 21
-9.9294230395242664
 31
0.0
  0
LINE
  8
default
 10
7.9570317575596725
 20
-9.9294230395242664
 30
0.0
 11
10.267340116745009
 21
-5.927851580264182
 31
0.0
  0
LINE
  8
default
 10
7.9570317575596725
 20
-9.9294230395242664
 30
0.0
 11
9.6150807189005363
 21
-10.886698053683995
 31
0.0
  0
LINE
  8
default
 10
15.911553140671217
 20
-0.61118525597787343
 30
0.0
 11
13.997003112351765
 21
-0.50000000000000888
 31
0.0
  0
LINE
  8
default
 10
14.422822439379665
 20
-2.5594451241455474
 30
0.0
 11
14.23569743727121
 21
-2.8835551351638244
 31
0.0
  0
LINE
  8
default
 10
14.23569743727121
 20
-2.8835551351638244
 30
0.0
 11
11.925389078085873
 21
-6.8851265944239097
 31
0.0
  0
LINE
  8
default
 10
12.764773478038801
 20
-1.6021701099858197
 30
0.0
 11
12.577648475930346
 21
-1.9262801210040967
 31
0.0
  0
LINE
  8
default
 10
12.577648475930346
 20
-1.9262801210040967
 30
0.0
 11
10.267340116745009
 21
-5.927851580264182
 31
0.0
  0
LINE
  8
default
 10
12.577648475930346
 20
-1.9262801210040967
 30
0.0
 11
14.23569743727121
 21
-2.8835551351638244
 31
0.0
  0
LINE
  8
default
 10
15.911553140671217
 20
0.61118525597786721
 30
0.0
 11
13.997003112351763
 21
0.50000000000000355
 31
0.0
  0
LINE
  8
default
 10
14.422822439379665
 20
2.559445124145542
 30
0.0
 11
14.23569743727121
 21
2.8835551351638191
 31
0.0
  0
LINE
  8
default
 10
14.23569743727121
 20
2.8835551351638191
 30
0.0
 11
11.925389078085875
 21
6.8851265944239053
 31
0.0
  0
LINE
  8
default
 10
12.764773478038803
 20
1.6021701099858143
 30
0.0
 11
12.577648475930348
 21
1.9262801210040914
 31
0.0
  0
LINE
  8
default
 10
12.577648475930348
 20
1.9262801210040914
 30
0.0
 11
10.267340116745013
 21
5.9278515802641776
 31
0.0
  0
LINE
  8
default
 10
12.577648475930348
 20
1.9262801210040914
 30
0.0
 11
14.23569743727121
 21
2.8835551351638191
 31
0.0
  0
LINE
  8
default
 10
8.4850785284309325
 20
13.474216605498412
 30
0.0
 11
7.4315142580681011
 21
11.871760272146481
 31
0.0
  0
LINE
  8
default
 10
9.4279557167920842
 20
11.210808064702269
 30
0.0
 11
9.6150807189005398
 21
10.886698053683991
 31
0.0
  0
LINE
  8
default
 10
9.6150807189005398
 20
10.886698053683991
 30
0.0
 11
11.925389078085875
 21
6.8851265944239053
 31
0.0
  0
LINE
  8
default
 10
7.7699067554512222
 20
10.25353305054254
 30
0.0
 11
7.9570317575596778
 21
9.9294230395242629
 31
0.0
  0
LINE
  8
default
 10
7.9570317575596778
 20
9.9294230395242629
 30
0.0
 11
10.267340116745013
 21
5.9278515802641776
 31
0.0
  0
LINE
  8
default
 10
7.9570317575596778
 20
9.9294230395242629
 30
0.0
 11
9.6150807189005398
 21
10.886698053683991
 31
0.0
  0
ARC
  8
default
 10
0
 20
-4.4408920985006262e-016
 30
0
 40
9
 50
2.8271597168564595e-015
 51
59.999999999999993
  0
ARC
  8
default
 10
0
 20
-8.8817841970012523e-016
 30
0
 40
9
 50
59.999999999999993
 51
119.99999999999999
  0
ARC
  8
default
 10
-8.8817841970012523e-016
 20
0
 30
0
 40
9
 50
119.99999999999999
 51
180
  0
ARC
  8
default
 10
0
 20
4.4408920985006262e-016
 30
0
 40
9
 50
180
 51
240
  0
ARC
  8
default
 10
0
 20
8.8817841970012523e-016
 30
0
 40
9
 50
240
 51
300
  0
ARC
  8
default
 10
8.8817841970012523e-016
 20
0
 30
0
 40
9
 50
300
 51
0
  0
ARC
  8
default
 10
1.1083697250292994
 20
13.8255586056802
 30
0
 40
4.3190791150397052
 50
11.820696297723313
 51
104.86970388428193
  0
ARC
  8
default
 10
6.9887021612802158
 20
19.172041077964188
 30
0
 40
4.7580302716009113
 50
249.67283301994922
 51
287.9590089250845
  0
ARC
  8
default
 10
5.756727473758839
 20
17.430339028509405
 30
0
 40
3.7385371681804354
 50
258.24157040277663
 51
296.52774630791191
  0
ARC
  8
default
 10
5.0368441376779458
 20
14.376071013346028
 30
0
 40
2.5207174012360927
 50
269.04581136395086
 51
307.33198726908608
  0
ARC
  8
default
 10
-1.1083697250292996
 20
13.8255586056802
 30
0
 40
4.3190791150397052
 50
75.130296115718068
 51
168.17930370227671
  0
ARC
  8
default
 10
-6.9887021612802158
 20
19.172041077964188
 30
0
 40
4.7580302716009113
 50
252.0409910749155
 51
290.32716698005078
  0
ARC
  8
default
 10
-5.756727473758839
 20
17.430339028509405
 30
0
 40
3.7385371681804354
 50
243.47225369208809
 51
281.75842959722337
  0
ARC
  8
default
 10
-5.0368441376779458
 20
14.376071013346028
 30
0
 40
2.5207174012360927
 50
232.66801273091389
 51
270.95418863604914
  0
ARC
  8
default
 10
-11.419100111514966
 20
7.8726556415010487
 30
0
 40
4.3190791150397034
 50
71.820696297723316
 51
164.86970388428193
  0
ARC
  8
default
 10
-13.109123535275673
 20
15.638414150133979
 30
0
 40
4.7580302716009166
 50
309.67283301994917
 51
347.95900892508445
  0
ARC
  8
default
 10
-12.216752658385097
 20
13.700641749193675
 30
0
 40
3.7385371681804362
 50
318.24157040277663
 51
356.52774630791191
  0
ARC
  8
default
 10
-9.9316206353277874
 20
11.550070484804841
 30
0
 40
2.5207174012360967
 50
329.04581136395086
 51
7.3319872690860963
  0
ARC
  8
default
 10
-12.527469836544265
 20
5.9529029641791551
 30
0
 40
4.3190791150397052
 50
135.13029611571807
 51
228.17930370227668
  0
ARC
  8
default
 10
-20.097825696555887
 20
3.5336269278302197
 30
0
 40
4.7580302716009113
 50
312.0409910749155
 51
350.32716698005072
  0
ARC
  8
default
 10
-17.973480132143937
 20
3.7296972793157357
 30
0
 40
3.7385371681804362
 50
303.47225369208809
 51
341.75842959722337
  0
ARC
  8
default
 10
-14.96846477300573
 20
2.8260005285411873
 30
0
 40
2.5207174012360904
 50
292.66801273091392
 51
330.9541886360492
  0
ARC
  8
default
 10
-12.527469836544265
 20
-5.9529029641791507
 30
0
 40
4.3190791150397061
 50
131.82069629772332
 51
224.8697038842819
  0
ARC
  8
default
 10
-20.097825696555894
 20
-3.5336269278302121
 30
0
 40
4.7580302716009149
 50
9.6728330199492198
 51
47.959008925084476
  0
ARC
  8
default
 10
-17.973480132143941
 20
-3.7296972793157295
 30
0
 40
3.7385371681804367
 50
18.241570402776624
 51
56.52774630791189
  0
ARC
  8
default
 10
-14.96846477300573
 20
-2.8260005285411856
 30
0
 40
2.5207174012360927
 50
29.045811363950857
 51
67.331987269086113
  0
ARC
  8
default
 10
-11.419100111514968
 20
-7.8726556415010451
 30
0
 40
4.3190791150397034
 50
195.13029611571807
 51
288.17930370227668
  0
ARC
  8
default
 10
-13.109123535275677
 20
-15.638414150133972
 30
0
 40
4.7580302716009122
 50
12.04099107491553
 51
50.327166980050791
  0
ARC
  8
default
 10
-12.216752658385101
 20
-13.700641749193672
 30
0
 40
3.7385371681804362
 50
3.472253692088092
 51
41.758429597223362
  0
ARC
  8
default
 10
-9.9316206353277874
 20
-11.550070484804834
 30
0
 40
2.5207174012360931
 50
352.6680127309138
 51
30.954188636049079
  0
ARC
  8
default
 10
-1.1083697250293012
 20
-13.8255586056802
 30
0
 40
4.3190791150397052
 50
191.82069629772329
 51
284.86970388428193
  0
ARC
  8
default
 10
-6.9887021612802274
 20
-19.172041077964192
 30
0
 40
4.7580302716009166
 50
69.672833019949138
 51
107.9590089250844
  0
ARC
  8
default
 10
-5.7567274737588434
 20
-17.430339028509405
 30
0
 40
3.7385371681804354
 50
78.241570402776617
 51
116.52774630791187
  0
ARC
  8
default
 10
-5.0368441376779476
 20
-14.376071013346028
 30
0
 40
2.5207174012360927
 50
89.045811363950861
 51
127.33198726908611
  0
ARC
  8
default
 10
1.1083697250292974
 20
-13.8255586056802
 30
0
 40
4.3190791150397052
 50
255.13029611571807
 51
348.17930370227668
  0
ARC
  8
default
 10
6.9887021612802114
 20
-19.172041077964188
 30
0
 40
4.7580302716009113
 50
72.040991074915453
 51
110.32716698005073
  0
ARC
  8
default
 10
5.7567274737588345
 20
-17.430339028509408
 30
0
 40
3.7385371681804354
 50
63.472253692088046
 51
101.75842959722331
  0
ARC
  8
default
 10
5.036844137677944
 20
-14.376071013346028
 30
0
 40
2.5207174012360927
 50
52.668012730913887
 51
90.954188636049167
  0
ARC
  8
default
 10
11.419100111514961
 20
-7.8726556415010513
 30
0
 40
4.3190791150397052
 50
251.82069629772329
 51
344.86970388428188
  0
ARC
  8
default
 10
13.109123535275668
 20
-15.638414150133974
 30
0
 40
4.7580302716009095
 50
129.67283301994928
 51
167.95900892508453
  0
ARC
  8
default
 10
12.216752658385094
 20
-13.700641749193679
 30
0
 40
3.7385371681804362
 50
138.24157040277666
 51
176.52774630791191
  0
ARC
  8
default
 10
9.9316206353277785
 20
-11.550070484804841
 30
0
 40
2.520717401236094
 50
149.04581136395086
 51
187.33198726908614
  0
ARC
  8
default
 10
12.527469836544263
 20
-5.9529029641791587
 30
0
 40
4.3190791150397052
 50
315.13029611571801
 51
48.179303702276641
  0
ARC
  8
default
 10
20.097825696555887
 20
-3.5336269278302259
 30
0
 40
4.7580302716009095
 50
132.04099107491547
 51
170.32716698005078
  0
ARC
  8
default
 10
17.973480132143937
 20
-3.729697279315741
 30
0
 40
3.7385371681804349
 50
123.47225369208809
 51
161.75842959722334
  0
ARC
  8
default
 10
14.96846477300573
 20
-2.826000528541198
 30
0
 40
2.5207174012360944
 50
112.66801273091383
 51
150.95418863604911
  0
ARC
  8
default
 10
12.527469836544265
 20
5.9529029641791551
 30
0
 40
4.3190791150397052
 50
311.82069629772332
 51
44.86970388428194
  0
ARC
  8
default
 10
20.097825696555908
 20
3.5336269278302126
 30
0
 40
4.7580302716009317
 50
189.67283301994914
 51
227.95900892508439
  0
ARC
  8
default
 10
17.973480132143937
 20
3.7296972793157357
 30
0
 40
3.7385371681804362
 50
198.24157040277666
 51
236.52774630791191
  0
ARC
  8
default
 10
14.96846477300573
 20
2.8260005285411873
 30
0
 40
2.5207174012360904
 50
209.04581136395083
 51
247.33198726908608
  0
ARC
  8
default
 10
11.419100111514966
 20
7.8726556415010487
 30
0
 40
4.3190791150397034
 50
15.130296115718071
 51
108.1793037022767
  0
ARC
  8
default
 10
13.109123535275673
 20
15.638414150133979
 30
0
 40
4.7580302716009166
 50
192.04099107491552
 51
230.32716698005081
  0
ARC
  8
default
 10
12.216752658385097
 20
13.700641749193675
 30
0
 40
3.7385371681804362
 50
183.47225369208809
 51
221.75842959722334
  0
ARC
  8
default
 10
9.9316206353277874
 20
11.550070484804841
 30
0
 40
2.5207174012360967
 50
172.66801273091392
 51
210.95418863604917
  0
ENDSEC
  0
EOF
