G04 EAGLE Gerber RS-274X export*
G75*
%MOMM*%
%FSLAX34Y34*%
%LPD*%
%INSoldermask Top*%
%IPPOS*%
%AMOC8*
5,1,8,0,0,1.08239X$1,22.5*%
G01*
%ADD10P,1.803519X8X292.500000*%
%ADD11C,2.032000*%
%ADD12C,1.311200*%
%ADD13C,2.387600*%


D10*
X0Y-797300D03*
X0Y-822700D03*
X-140000Y-797300D03*
X-140000Y-822700D03*
D11*
X-880856Y139700D02*
X-899144Y139700D01*
X-899144Y114300D02*
X-880856Y114300D01*
X-880856Y88900D02*
X-899144Y88900D01*
X-899144Y63500D02*
X-880856Y63500D01*
X-880856Y38100D02*
X-899144Y38100D01*
X-899144Y12700D02*
X-880856Y12700D01*
X-880856Y-12700D02*
X-899144Y-12700D01*
X-899144Y-38100D02*
X-880856Y-38100D01*
X-880856Y-63500D02*
X-899144Y-63500D01*
X-899144Y-88900D02*
X-880856Y-88900D01*
X-880856Y-114300D02*
X-899144Y-114300D01*
X-899144Y-139700D02*
X-880856Y-139700D01*
D12*
X363553Y239227D02*
X373149Y244767D01*
X385849Y222770D02*
X376253Y217230D01*
X388953Y195233D02*
X398549Y200773D01*
X195233Y388953D02*
X200773Y398549D01*
X222770Y385849D02*
X217230Y376253D01*
X239227Y363553D02*
X244767Y373149D01*
X-25400Y434460D02*
X-25400Y445540D01*
X0Y445540D02*
X0Y434460D01*
X25400Y434460D02*
X25400Y445540D01*
X-239227Y363553D02*
X-244767Y373149D01*
X-222770Y385849D02*
X-217230Y376253D01*
X-195233Y388953D02*
X-200773Y398549D01*
X-388953Y195233D02*
X-398549Y200773D01*
X-385849Y222770D02*
X-376253Y217230D01*
X-363553Y239227D02*
X-373149Y244767D01*
X-434460Y-25400D02*
X-445540Y-25400D01*
X-445540Y0D02*
X-434460Y0D01*
X-434460Y25400D02*
X-445540Y25400D01*
X-363553Y-239227D02*
X-373149Y-244767D01*
X-385849Y-222770D02*
X-376253Y-217230D01*
X-388953Y-195233D02*
X-398549Y-200773D01*
X-195233Y-388953D02*
X-200773Y-398549D01*
X-222770Y-385849D02*
X-217230Y-376253D01*
X-239227Y-363553D02*
X-244767Y-373149D01*
X25400Y-434460D02*
X25400Y-445540D01*
X0Y-445540D02*
X0Y-434460D01*
X-25400Y-434460D02*
X-25400Y-445540D01*
X239227Y-363553D02*
X244767Y-373149D01*
X222770Y-385849D02*
X217230Y-376253D01*
X195233Y-388953D02*
X200773Y-398549D01*
X388953Y-195233D02*
X398549Y-200773D01*
X385849Y-222770D02*
X376253Y-217230D01*
X363553Y-239227D02*
X373149Y-244767D01*
D13*
X170922Y-826000D02*
X149078Y-826000D01*
X149078Y-794000D02*
X170922Y-794000D01*
D12*
X424460Y25400D02*
X435540Y25400D01*
X435540Y0D02*
X424460Y0D01*
X424460Y-25400D02*
X435540Y-25400D01*
M02*
