G04 EAGLE Gerber RS-274X export*
G75*
%MOMM*%
%FSLAX34Y34*%
%LPD*%
%INSoldermask Bottom*%
%IPPOS*%
%AMOC8*
5,1,8,0,0,1.08239X$1,22.5*%
G01*
%ADD10P,1.803519X8X292.500000*%
%ADD11C,2.032000*%
%ADD12C,1.311200*%
%ADD13C,2.387600*%
%ADD14C,0.254000*%


D10*
X0Y-797300D03*
X0Y-822700D03*
X-140000Y-797300D03*
X-140000Y-822700D03*
D11*
X-880856Y139700D02*
X-899144Y139700D01*
X-899144Y114300D02*
X-880856Y114300D01*
X-880856Y88900D02*
X-899144Y88900D01*
X-899144Y63500D02*
X-880856Y63500D01*
X-880856Y38100D02*
X-899144Y38100D01*
X-899144Y12700D02*
X-880856Y12700D01*
X-880856Y-12700D02*
X-899144Y-12700D01*
X-899144Y-38100D02*
X-880856Y-38100D01*
X-880856Y-63500D02*
X-899144Y-63500D01*
X-899144Y-88900D02*
X-880856Y-88900D01*
X-880856Y-114300D02*
X-899144Y-114300D01*
X-899144Y-139700D02*
X-880856Y-139700D01*
D12*
X363553Y239227D02*
X373149Y244767D01*
X385849Y222770D02*
X376253Y217230D01*
X388953Y195233D02*
X398549Y200773D01*
X195233Y388953D02*
X200773Y398549D01*
X222770Y385849D02*
X217230Y376253D01*
X239227Y363553D02*
X244767Y373149D01*
X-25400Y434460D02*
X-25400Y445540D01*
X0Y445540D02*
X0Y434460D01*
X25400Y434460D02*
X25400Y445540D01*
X-239227Y363553D02*
X-244767Y373149D01*
X-222770Y385849D02*
X-217230Y376253D01*
X-195233Y388953D02*
X-200773Y398549D01*
X-388953Y195233D02*
X-398549Y200773D01*
X-385849Y222770D02*
X-376253Y217230D01*
X-363553Y239227D02*
X-373149Y244767D01*
X-434460Y-25400D02*
X-445540Y-25400D01*
X-445540Y0D02*
X-434460Y0D01*
X-434460Y25400D02*
X-445540Y25400D01*
X-363553Y-239227D02*
X-373149Y-244767D01*
X-385849Y-222770D02*
X-376253Y-217230D01*
X-388953Y-195233D02*
X-398549Y-200773D01*
X-195233Y-388953D02*
X-200773Y-398549D01*
X-222770Y-385849D02*
X-217230Y-376253D01*
X-239227Y-363553D02*
X-244767Y-373149D01*
X25400Y-434460D02*
X25400Y-445540D01*
X0Y-445540D02*
X0Y-434460D01*
X-25400Y-434460D02*
X-25400Y-445540D01*
X239227Y-363553D02*
X244767Y-373149D01*
X222770Y-385849D02*
X217230Y-376253D01*
X195233Y-388953D02*
X200773Y-398549D01*
X388953Y-195233D02*
X398549Y-200773D01*
X385849Y-222770D02*
X376253Y-217230D01*
X363553Y-239227D02*
X373149Y-244767D01*
D13*
X170922Y-826000D02*
X149078Y-826000D01*
X149078Y-794000D02*
X170922Y-794000D01*
D12*
X424460Y25400D02*
X435540Y25400D01*
X435540Y0D02*
X424460Y0D01*
X424460Y-25400D02*
X435540Y-25400D01*
D14*
X980000Y-12027D02*
X980000Y12027D01*
X979410Y36074D01*
X978229Y60099D01*
X976460Y84088D01*
X974102Y108026D01*
X971158Y131899D01*
X967628Y155693D01*
X963516Y179393D01*
X958823Y202984D01*
X953553Y226454D01*
X947708Y249787D01*
X941293Y272970D01*
X934310Y295988D01*
X926765Y318828D01*
X918661Y341476D01*
X910004Y363918D01*
X900799Y386141D01*
X891052Y408132D01*
X880767Y429876D01*
X869952Y451362D01*
X858613Y472576D01*
X846757Y493505D01*
X834391Y514137D01*
X821522Y534459D01*
X808158Y554459D01*
X794308Y574125D01*
X779979Y593446D01*
X765180Y612408D01*
X749920Y631002D01*
X734209Y649216D01*
X718055Y667039D01*
X701469Y684460D01*
X684460Y701469D01*
X667039Y718055D01*
X649216Y734209D01*
X631002Y749920D01*
X612408Y765180D01*
X593446Y779979D01*
X574125Y794308D01*
X554459Y808158D01*
X534459Y821522D01*
X514137Y834391D01*
X493505Y846757D01*
X472576Y858613D01*
X451362Y869952D01*
X429876Y880767D01*
X408132Y891052D01*
X386141Y900799D01*
X363918Y910004D01*
X341476Y918661D01*
X318828Y926765D01*
X295988Y934310D01*
X272970Y941293D01*
X249787Y947708D01*
X226454Y953553D01*
X202984Y958823D01*
X179393Y963516D01*
X155693Y967628D01*
X131899Y971158D01*
X108026Y974102D01*
X84088Y976460D01*
X60099Y978229D01*
X36074Y979410D01*
X12027Y980000D01*
X-12027Y980000D01*
X-36074Y979410D01*
X-60099Y978229D01*
X-84088Y976460D01*
X-108026Y974102D01*
X-131899Y971158D01*
X-155693Y967628D01*
X-179393Y963516D01*
X-202984Y958823D01*
X-226454Y953553D01*
X-249787Y947708D01*
X-272970Y941293D01*
X-295988Y934310D01*
X-318828Y926765D01*
X-341476Y918661D01*
X-363918Y910004D01*
X-386141Y900799D01*
X-408132Y891052D01*
X-429876Y880767D01*
X-451362Y869952D01*
X-472576Y858613D01*
X-493505Y846757D01*
X-514137Y834391D01*
X-534459Y821522D01*
X-554459Y808158D01*
X-574125Y794308D01*
X-593446Y779979D01*
X-612408Y765180D01*
X-631002Y749920D01*
X-649216Y734209D01*
X-667039Y718055D01*
X-684460Y701469D01*
X-701469Y684460D01*
X-718055Y667039D01*
X-734209Y649216D01*
X-749920Y631002D01*
X-765180Y612408D01*
X-779979Y593446D01*
X-794308Y574125D01*
X-808158Y554459D01*
X-821522Y534459D01*
X-834391Y514137D01*
X-846757Y493505D01*
X-858613Y472576D01*
X-869952Y451362D01*
X-880767Y429876D01*
X-891052Y408132D01*
X-900799Y386141D01*
X-910004Y363918D01*
X-918661Y341476D01*
X-926765Y318828D01*
X-934310Y295988D01*
X-941293Y272970D01*
X-947708Y249787D01*
X-953553Y226454D01*
X-958823Y202984D01*
X-963516Y179393D01*
X-967628Y155693D01*
X-971158Y131899D01*
X-974102Y108026D01*
X-976460Y84088D01*
X-978229Y60099D01*
X-979410Y36074D01*
X-980000Y12027D01*
X-980000Y-12027D01*
X-979410Y-36074D01*
X-978229Y-60099D01*
X-976460Y-84088D01*
X-974102Y-108026D01*
X-971158Y-131899D01*
X-967628Y-155693D01*
X-963516Y-179393D01*
X-958823Y-202984D01*
X-953553Y-226454D01*
X-947708Y-249787D01*
X-941293Y-272970D01*
X-934310Y-295988D01*
X-926765Y-318828D01*
X-918661Y-341476D01*
X-910004Y-363918D01*
X-900799Y-386141D01*
X-891052Y-408132D01*
X-880767Y-429876D01*
X-869952Y-451362D01*
X-858613Y-472576D01*
X-846757Y-493505D01*
X-834391Y-514137D01*
X-821522Y-534459D01*
X-808158Y-554459D01*
X-794308Y-574125D01*
X-779979Y-593446D01*
X-765180Y-612408D01*
X-749920Y-631002D01*
X-734209Y-649216D01*
X-718055Y-667039D01*
X-701469Y-684460D01*
X-684460Y-701469D01*
X-667039Y-718055D01*
X-649216Y-734209D01*
X-631002Y-749920D01*
X-612408Y-765180D01*
X-593446Y-779979D01*
X-574125Y-794308D01*
X-554459Y-808158D01*
X-534459Y-821522D01*
X-514137Y-834391D01*
X-493505Y-846757D01*
X-472576Y-858613D01*
X-451362Y-869952D01*
X-429876Y-880767D01*
X-408132Y-891052D01*
X-386141Y-900799D01*
X-363918Y-910004D01*
X-341476Y-918661D01*
X-318828Y-926765D01*
X-295988Y-934310D01*
X-272970Y-941293D01*
X-249787Y-947708D01*
X-226454Y-953553D01*
X-202984Y-958823D01*
X-179393Y-963516D01*
X-155693Y-967628D01*
X-131899Y-971158D01*
X-108026Y-974102D01*
X-84088Y-976460D01*
X-60099Y-978229D01*
X-36074Y-979410D01*
X-12027Y-980000D01*
X12027Y-980000D01*
X36074Y-979410D01*
X60099Y-978229D01*
X84088Y-976460D01*
X108026Y-974102D01*
X131899Y-971158D01*
X155693Y-967628D01*
X179393Y-963516D01*
X202984Y-958823D01*
X226454Y-953553D01*
X249787Y-947708D01*
X272970Y-941293D01*
X295988Y-934310D01*
X318828Y-926765D01*
X341476Y-918661D01*
X363918Y-910004D01*
X386141Y-900799D01*
X408132Y-891052D01*
X429876Y-880767D01*
X451362Y-869952D01*
X472576Y-858613D01*
X493505Y-846757D01*
X514137Y-834391D01*
X534459Y-821522D01*
X554459Y-808158D01*
X574125Y-794308D01*
X593446Y-779979D01*
X612408Y-765180D01*
X631002Y-749920D01*
X649216Y-734209D01*
X667039Y-718055D01*
X684460Y-701469D01*
X701469Y-684460D01*
X718055Y-667039D01*
X734209Y-649216D01*
X749920Y-631002D01*
X765180Y-612408D01*
X779979Y-593446D01*
X794308Y-574125D01*
X808158Y-554459D01*
X821522Y-534459D01*
X834391Y-514137D01*
X846757Y-493505D01*
X858613Y-472576D01*
X869952Y-451362D01*
X880767Y-429876D01*
X891052Y-408132D01*
X900799Y-386141D01*
X910004Y-363918D01*
X918661Y-341476D01*
X926765Y-318828D01*
X934310Y-295988D01*
X941293Y-272970D01*
X947708Y-249787D01*
X953553Y-226454D01*
X958823Y-202984D01*
X963516Y-179393D01*
X967628Y-155693D01*
X971158Y-131899D01*
X974102Y-108026D01*
X976460Y-84088D01*
X978229Y-60099D01*
X979410Y-36074D01*
X980000Y-12027D01*
X627000Y-923D02*
X627000Y923D01*
X626928Y2767D01*
X626783Y4608D01*
X626566Y6441D01*
X626277Y8264D01*
X625917Y10074D01*
X625486Y11869D01*
X624985Y13646D01*
X624414Y15402D01*
X623776Y17133D01*
X623069Y18839D01*
X622296Y20515D01*
X621458Y22160D01*
X620556Y23770D01*
X619592Y25344D01*
X618566Y26879D01*
X617481Y28373D01*
X616339Y29822D01*
X615140Y31226D01*
X613887Y32581D01*
X612581Y33887D01*
X611226Y35140D01*
X609822Y36339D01*
X608373Y37481D01*
X606879Y38566D01*
X605344Y39592D01*
X603770Y40556D01*
X602160Y41458D01*
X600515Y42296D01*
X598839Y43069D01*
X597133Y43776D01*
X595402Y44414D01*
X593646Y44985D01*
X591869Y45486D01*
X590074Y45917D01*
X588264Y46277D01*
X586441Y46566D01*
X584608Y46783D01*
X582767Y46928D01*
X580923Y47000D01*
X579077Y47000D01*
X577233Y46928D01*
X575392Y46783D01*
X573559Y46566D01*
X571736Y46277D01*
X569926Y45917D01*
X568131Y45486D01*
X566354Y44985D01*
X564598Y44414D01*
X562867Y43776D01*
X561161Y43069D01*
X559485Y42296D01*
X557840Y41458D01*
X556230Y40556D01*
X554656Y39592D01*
X553121Y38566D01*
X551627Y37481D01*
X550178Y36339D01*
X548774Y35140D01*
X547419Y33887D01*
X546113Y32581D01*
X544860Y31226D01*
X543662Y29822D01*
X542519Y28373D01*
X541434Y26879D01*
X540408Y25344D01*
X539444Y23770D01*
X538542Y22160D01*
X537704Y20515D01*
X536931Y18839D01*
X536224Y17133D01*
X535586Y15402D01*
X535015Y13646D01*
X534514Y11869D01*
X534083Y10074D01*
X533723Y8264D01*
X533434Y6441D01*
X533217Y4608D01*
X533072Y2767D01*
X533000Y923D01*
X533000Y-923D01*
X533072Y-2767D01*
X533217Y-4608D01*
X533434Y-6441D01*
X533723Y-8264D01*
X534083Y-10074D01*
X534514Y-11869D01*
X535015Y-13646D01*
X535586Y-15402D01*
X536224Y-17133D01*
X536931Y-18839D01*
X537704Y-20515D01*
X538542Y-22160D01*
X539444Y-23770D01*
X540408Y-25344D01*
X541434Y-26879D01*
X542519Y-28373D01*
X543662Y-29822D01*
X544860Y-31226D01*
X546113Y-32581D01*
X547419Y-33887D01*
X548774Y-35140D01*
X550178Y-36339D01*
X551627Y-37481D01*
X553121Y-38566D01*
X554656Y-39592D01*
X556230Y-40556D01*
X557840Y-41458D01*
X559485Y-42296D01*
X561161Y-43069D01*
X562867Y-43776D01*
X564598Y-44414D01*
X566354Y-44985D01*
X568131Y-45486D01*
X569926Y-45917D01*
X571736Y-46277D01*
X573559Y-46566D01*
X575392Y-46783D01*
X577233Y-46928D01*
X579077Y-47000D01*
X580923Y-47000D01*
X582767Y-46928D01*
X584608Y-46783D01*
X586441Y-46566D01*
X588264Y-46277D01*
X590074Y-45917D01*
X591869Y-45486D01*
X593646Y-44985D01*
X595402Y-44414D01*
X597133Y-43776D01*
X598839Y-43069D01*
X600515Y-42296D01*
X602160Y-41458D01*
X603770Y-40556D01*
X605344Y-39592D01*
X606879Y-38566D01*
X608373Y-37481D01*
X609822Y-36339D01*
X611226Y-35140D01*
X612581Y-33887D01*
X613887Y-32581D01*
X615140Y-31226D01*
X616339Y-29822D01*
X617481Y-28373D01*
X618566Y-26879D01*
X619592Y-25344D01*
X620556Y-23770D01*
X621458Y-22160D01*
X622296Y-20515D01*
X623069Y-18839D01*
X623776Y-17133D01*
X624414Y-15402D01*
X624985Y-13646D01*
X625486Y-11869D01*
X625917Y-10074D01*
X626277Y-8264D01*
X626566Y-6441D01*
X626783Y-4608D01*
X626928Y-2767D01*
X627000Y-923D01*
X47000Y579077D02*
X47000Y580923D01*
X46928Y582767D01*
X46783Y584608D01*
X46566Y586441D01*
X46277Y588264D01*
X45917Y590074D01*
X45486Y591869D01*
X44985Y593646D01*
X44414Y595402D01*
X43776Y597133D01*
X43069Y598839D01*
X42296Y600515D01*
X41458Y602160D01*
X40556Y603770D01*
X39592Y605344D01*
X38566Y606879D01*
X37481Y608373D01*
X36339Y609822D01*
X35140Y611226D01*
X33887Y612581D01*
X32581Y613887D01*
X31226Y615140D01*
X29822Y616339D01*
X28373Y617481D01*
X26879Y618566D01*
X25344Y619592D01*
X23770Y620556D01*
X22160Y621458D01*
X20515Y622296D01*
X18839Y623069D01*
X17133Y623776D01*
X15402Y624414D01*
X13646Y624985D01*
X11869Y625486D01*
X10074Y625917D01*
X8264Y626277D01*
X6441Y626566D01*
X4608Y626783D01*
X2767Y626928D01*
X923Y627000D01*
X-923Y627000D01*
X-2767Y626928D01*
X-4608Y626783D01*
X-6441Y626566D01*
X-8264Y626277D01*
X-10074Y625917D01*
X-11869Y625486D01*
X-13646Y624985D01*
X-15402Y624414D01*
X-17133Y623776D01*
X-18839Y623069D01*
X-20515Y622296D01*
X-22160Y621458D01*
X-23770Y620556D01*
X-25344Y619592D01*
X-26879Y618566D01*
X-28373Y617481D01*
X-29822Y616339D01*
X-31226Y615140D01*
X-32581Y613887D01*
X-33887Y612581D01*
X-35140Y611226D01*
X-36339Y609822D01*
X-37481Y608373D01*
X-38566Y606879D01*
X-39592Y605344D01*
X-40556Y603770D01*
X-41458Y602160D01*
X-42296Y600515D01*
X-43069Y598839D01*
X-43776Y597133D01*
X-44414Y595402D01*
X-44985Y593646D01*
X-45486Y591869D01*
X-45917Y590074D01*
X-46277Y588264D01*
X-46566Y586441D01*
X-46783Y584608D01*
X-46928Y582767D01*
X-47000Y580923D01*
X-47000Y579077D01*
X-46928Y577233D01*
X-46783Y575392D01*
X-46566Y573559D01*
X-46277Y571736D01*
X-45917Y569926D01*
X-45486Y568131D01*
X-44985Y566354D01*
X-44414Y564598D01*
X-43776Y562867D01*
X-43069Y561161D01*
X-42296Y559485D01*
X-41458Y557840D01*
X-40556Y556230D01*
X-39592Y554656D01*
X-38566Y553121D01*
X-37481Y551627D01*
X-36339Y550178D01*
X-35140Y548774D01*
X-33887Y547419D01*
X-32581Y546113D01*
X-31226Y544860D01*
X-29822Y543662D01*
X-28373Y542519D01*
X-26879Y541434D01*
X-25344Y540408D01*
X-23770Y539444D01*
X-22160Y538542D01*
X-20515Y537704D01*
X-18839Y536931D01*
X-17133Y536224D01*
X-15402Y535586D01*
X-13646Y535015D01*
X-11869Y534514D01*
X-10074Y534083D01*
X-8264Y533723D01*
X-6441Y533434D01*
X-4608Y533217D01*
X-2767Y533072D01*
X-923Y533000D01*
X923Y533000D01*
X2767Y533072D01*
X4608Y533217D01*
X6441Y533434D01*
X8264Y533723D01*
X10074Y534083D01*
X11869Y534514D01*
X13646Y535015D01*
X15402Y535586D01*
X17133Y536224D01*
X18839Y536931D01*
X20515Y537704D01*
X22160Y538542D01*
X23770Y539444D01*
X25344Y540408D01*
X26879Y541434D01*
X28373Y542519D01*
X29822Y543662D01*
X31226Y544860D01*
X32581Y546113D01*
X33887Y547419D01*
X35140Y548774D01*
X36339Y550178D01*
X37481Y551627D01*
X38566Y553121D01*
X39592Y554656D01*
X40556Y556230D01*
X41458Y557840D01*
X42296Y559485D01*
X43069Y561161D01*
X43776Y562867D01*
X44414Y564598D01*
X44985Y566354D01*
X45486Y568131D01*
X45917Y569926D01*
X46277Y571736D01*
X46566Y573559D01*
X46783Y575392D01*
X46928Y577233D01*
X47000Y579077D01*
X-533000Y-923D02*
X-533000Y923D01*
X-533072Y2767D01*
X-533217Y4608D01*
X-533434Y6441D01*
X-533723Y8264D01*
X-534083Y10074D01*
X-534514Y11869D01*
X-535015Y13646D01*
X-535586Y15402D01*
X-536224Y17133D01*
X-536931Y18839D01*
X-537704Y20515D01*
X-538542Y22160D01*
X-539444Y23770D01*
X-540408Y25344D01*
X-541434Y26879D01*
X-542519Y28373D01*
X-543662Y29822D01*
X-544860Y31226D01*
X-546113Y32581D01*
X-547419Y33887D01*
X-548774Y35140D01*
X-550178Y36339D01*
X-551627Y37481D01*
X-553121Y38566D01*
X-554656Y39592D01*
X-556230Y40556D01*
X-557840Y41458D01*
X-559485Y42296D01*
X-561161Y43069D01*
X-562867Y43776D01*
X-564598Y44414D01*
X-566354Y44985D01*
X-568131Y45486D01*
X-569926Y45917D01*
X-571736Y46277D01*
X-573559Y46566D01*
X-575392Y46783D01*
X-577233Y46928D01*
X-579077Y47000D01*
X-580923Y47000D01*
X-582767Y46928D01*
X-584608Y46783D01*
X-586441Y46566D01*
X-588264Y46277D01*
X-590074Y45917D01*
X-591869Y45486D01*
X-593646Y44985D01*
X-595402Y44414D01*
X-597133Y43776D01*
X-598839Y43069D01*
X-600515Y42296D01*
X-602160Y41458D01*
X-603770Y40556D01*
X-605344Y39592D01*
X-606879Y38566D01*
X-608373Y37481D01*
X-609822Y36339D01*
X-611226Y35140D01*
X-612581Y33887D01*
X-613887Y32581D01*
X-615140Y31226D01*
X-616339Y29822D01*
X-617481Y28373D01*
X-618566Y26879D01*
X-619592Y25344D01*
X-620556Y23770D01*
X-621458Y22160D01*
X-622296Y20515D01*
X-623069Y18839D01*
X-623776Y17133D01*
X-624414Y15402D01*
X-624985Y13646D01*
X-625486Y11869D01*
X-625917Y10074D01*
X-626277Y8264D01*
X-626566Y6441D01*
X-626783Y4608D01*
X-626928Y2767D01*
X-627000Y923D01*
X-627000Y-923D01*
X-626928Y-2767D01*
X-626783Y-4608D01*
X-626566Y-6441D01*
X-626277Y-8264D01*
X-625917Y-10074D01*
X-625486Y-11869D01*
X-624985Y-13646D01*
X-624414Y-15402D01*
X-623776Y-17133D01*
X-623069Y-18839D01*
X-622296Y-20515D01*
X-621458Y-22160D01*
X-620556Y-23770D01*
X-619592Y-25344D01*
X-618566Y-26879D01*
X-617481Y-28373D01*
X-616339Y-29822D01*
X-615140Y-31226D01*
X-613887Y-32581D01*
X-612581Y-33887D01*
X-611226Y-35140D01*
X-609822Y-36339D01*
X-608373Y-37481D01*
X-606879Y-38566D01*
X-605344Y-39592D01*
X-603770Y-40556D01*
X-602160Y-41458D01*
X-600515Y-42296D01*
X-598839Y-43069D01*
X-597133Y-43776D01*
X-595402Y-44414D01*
X-593646Y-44985D01*
X-591869Y-45486D01*
X-590074Y-45917D01*
X-588264Y-46277D01*
X-586441Y-46566D01*
X-584608Y-46783D01*
X-582767Y-46928D01*
X-580923Y-47000D01*
X-579077Y-47000D01*
X-577233Y-46928D01*
X-575392Y-46783D01*
X-573559Y-46566D01*
X-571736Y-46277D01*
X-569926Y-45917D01*
X-568131Y-45486D01*
X-566354Y-44985D01*
X-564598Y-44414D01*
X-562867Y-43776D01*
X-561161Y-43069D01*
X-559485Y-42296D01*
X-557840Y-41458D01*
X-556230Y-40556D01*
X-554656Y-39592D01*
X-553121Y-38566D01*
X-551627Y-37481D01*
X-550178Y-36339D01*
X-548774Y-35140D01*
X-547419Y-33887D01*
X-546113Y-32581D01*
X-544860Y-31226D01*
X-543662Y-29822D01*
X-542519Y-28373D01*
X-541434Y-26879D01*
X-540408Y-25344D01*
X-539444Y-23770D01*
X-538542Y-22160D01*
X-537704Y-20515D01*
X-536931Y-18839D01*
X-536224Y-17133D01*
X-535586Y-15402D01*
X-535015Y-13646D01*
X-534514Y-11869D01*
X-534083Y-10074D01*
X-533723Y-8264D01*
X-533434Y-6441D01*
X-533217Y-4608D01*
X-533072Y-2767D01*
X-533000Y-923D01*
X47000Y-580923D02*
X47000Y-579077D01*
X46928Y-577233D01*
X46783Y-575392D01*
X46566Y-573559D01*
X46277Y-571736D01*
X45917Y-569926D01*
X45486Y-568131D01*
X44985Y-566354D01*
X44414Y-564598D01*
X43776Y-562867D01*
X43069Y-561161D01*
X42296Y-559485D01*
X41458Y-557840D01*
X40556Y-556230D01*
X39592Y-554656D01*
X38566Y-553121D01*
X37481Y-551627D01*
X36339Y-550178D01*
X35140Y-548774D01*
X33887Y-547419D01*
X32581Y-546113D01*
X31226Y-544860D01*
X29822Y-543662D01*
X28373Y-542519D01*
X26879Y-541434D01*
X25344Y-540408D01*
X23770Y-539444D01*
X22160Y-538542D01*
X20515Y-537704D01*
X18839Y-536931D01*
X17133Y-536224D01*
X15402Y-535586D01*
X13646Y-535015D01*
X11869Y-534514D01*
X10074Y-534083D01*
X8264Y-533723D01*
X6441Y-533434D01*
X4608Y-533217D01*
X2767Y-533072D01*
X923Y-533000D01*
X-923Y-533000D01*
X-2767Y-533072D01*
X-4608Y-533217D01*
X-6441Y-533434D01*
X-8264Y-533723D01*
X-10074Y-534083D01*
X-11869Y-534514D01*
X-13646Y-535015D01*
X-15402Y-535586D01*
X-17133Y-536224D01*
X-18839Y-536931D01*
X-20515Y-537704D01*
X-22160Y-538542D01*
X-23770Y-539444D01*
X-25344Y-540408D01*
X-26879Y-541434D01*
X-28373Y-542519D01*
X-29822Y-543662D01*
X-31226Y-544860D01*
X-32581Y-546113D01*
X-33887Y-547419D01*
X-35140Y-548774D01*
X-36339Y-550178D01*
X-37481Y-551627D01*
X-38566Y-553121D01*
X-39592Y-554656D01*
X-40556Y-556230D01*
X-41458Y-557840D01*
X-42296Y-559485D01*
X-43069Y-561161D01*
X-43776Y-562867D01*
X-44414Y-564598D01*
X-44985Y-566354D01*
X-45486Y-568131D01*
X-45917Y-569926D01*
X-46277Y-571736D01*
X-46566Y-573559D01*
X-46783Y-575392D01*
X-46928Y-577233D01*
X-47000Y-579077D01*
X-47000Y-580923D01*
X-46928Y-582767D01*
X-46783Y-584608D01*
X-46566Y-586441D01*
X-46277Y-588264D01*
X-45917Y-590074D01*
X-45486Y-591869D01*
X-44985Y-593646D01*
X-44414Y-595402D01*
X-43776Y-597133D01*
X-43069Y-598839D01*
X-42296Y-600515D01*
X-41458Y-602160D01*
X-40556Y-603770D01*
X-39592Y-605344D01*
X-38566Y-606879D01*
X-37481Y-608373D01*
X-36339Y-609822D01*
X-35140Y-611226D01*
X-33887Y-612581D01*
X-32581Y-613887D01*
X-31226Y-615140D01*
X-29822Y-616339D01*
X-28373Y-617481D01*
X-26879Y-618566D01*
X-25344Y-619592D01*
X-23770Y-620556D01*
X-22160Y-621458D01*
X-20515Y-622296D01*
X-18839Y-623069D01*
X-17133Y-623776D01*
X-15402Y-624414D01*
X-13646Y-624985D01*
X-11869Y-625486D01*
X-10074Y-625917D01*
X-8264Y-626277D01*
X-6441Y-626566D01*
X-4608Y-626783D01*
X-2767Y-626928D01*
X-923Y-627000D01*
X923Y-627000D01*
X2767Y-626928D01*
X4608Y-626783D01*
X6441Y-626566D01*
X8264Y-626277D01*
X10074Y-625917D01*
X11869Y-625486D01*
X13646Y-624985D01*
X15402Y-624414D01*
X17133Y-623776D01*
X18839Y-623069D01*
X20515Y-622296D01*
X22160Y-621458D01*
X23770Y-620556D01*
X25344Y-619592D01*
X26879Y-618566D01*
X28373Y-617481D01*
X29822Y-616339D01*
X31226Y-615140D01*
X32581Y-613887D01*
X33887Y-612581D01*
X35140Y-611226D01*
X36339Y-609822D01*
X37481Y-608373D01*
X38566Y-606879D01*
X39592Y-605344D01*
X40556Y-603770D01*
X41458Y-602160D01*
X42296Y-600515D01*
X43069Y-598839D01*
X43776Y-597133D01*
X44414Y-595402D01*
X44985Y-593646D01*
X45486Y-591869D01*
X45917Y-590074D01*
X46277Y-588264D01*
X46566Y-586441D01*
X46783Y-584608D01*
X46928Y-582767D01*
X47000Y-580923D01*
X350000Y-4295D02*
X350000Y4295D01*
X349789Y12884D01*
X349368Y21464D01*
X348736Y30031D01*
X347894Y38581D01*
X346842Y47107D01*
X345582Y55605D01*
X344113Y64069D01*
X342437Y72494D01*
X340555Y80876D01*
X338467Y89210D01*
X336176Y97489D01*
X333682Y105710D01*
X330988Y113867D01*
X328093Y121956D01*
X325002Y129971D01*
X321714Y137908D01*
X318233Y145761D01*
X314560Y153527D01*
X310697Y161201D01*
X306648Y168777D01*
X302413Y176252D01*
X297997Y183620D01*
X293401Y190878D01*
X288628Y198021D01*
X283681Y205045D01*
X278564Y211945D01*
X273279Y218717D01*
X267829Y225358D01*
X262217Y231863D01*
X256448Y238228D01*
X250525Y244450D01*
X244450Y250525D01*
X238228Y256448D01*
X231863Y262217D01*
X225358Y267829D01*
X218717Y273279D01*
X211945Y278564D01*
X205045Y283681D01*
X198021Y288628D01*
X190878Y293401D01*
X183620Y297997D01*
X176252Y302413D01*
X168777Y306648D01*
X161201Y310697D01*
X153527Y314560D01*
X145761Y318233D01*
X137908Y321714D01*
X129971Y325002D01*
X121956Y328093D01*
X113867Y330988D01*
X105710Y333682D01*
X97489Y336176D01*
X89210Y338467D01*
X80876Y340555D01*
X72494Y342437D01*
X64069Y344113D01*
X55605Y345582D01*
X47107Y346842D01*
X38581Y347894D01*
X30031Y348736D01*
X21464Y349368D01*
X12884Y349789D01*
X4295Y350000D01*
X-4295Y350000D01*
X-12884Y349789D01*
X-21464Y349368D01*
X-30031Y348736D01*
X-38581Y347894D01*
X-47107Y346842D01*
X-55605Y345582D01*
X-64069Y344113D01*
X-72494Y342437D01*
X-80876Y340555D01*
X-89210Y338467D01*
X-97489Y336176D01*
X-105710Y333682D01*
X-113867Y330988D01*
X-121956Y328093D01*
X-129971Y325002D01*
X-137908Y321714D01*
X-145761Y318233D01*
X-153527Y314560D01*
X-161201Y310697D01*
X-168777Y306648D01*
X-176252Y302413D01*
X-183620Y297997D01*
X-190878Y293401D01*
X-198021Y288628D01*
X-205045Y283681D01*
X-211945Y278564D01*
X-218717Y273279D01*
X-225358Y267829D01*
X-231863Y262217D01*
X-238228Y256448D01*
X-244450Y250525D01*
X-250525Y244450D01*
X-256448Y238228D01*
X-262217Y231863D01*
X-267829Y225358D01*
X-273279Y218717D01*
X-278564Y211945D01*
X-283681Y205045D01*
X-288628Y198021D01*
X-293401Y190878D01*
X-297997Y183620D01*
X-302413Y176252D01*
X-306648Y168777D01*
X-310697Y161201D01*
X-314560Y153527D01*
X-318233Y145761D01*
X-321714Y137908D01*
X-325002Y129971D01*
X-328093Y121956D01*
X-330988Y113867D01*
X-333682Y105710D01*
X-336176Y97489D01*
X-338467Y89210D01*
X-340555Y80876D01*
X-342437Y72494D01*
X-344113Y64069D01*
X-345582Y55605D01*
X-346842Y47107D01*
X-347894Y38581D01*
X-348736Y30031D01*
X-349368Y21464D01*
X-349789Y12884D01*
X-350000Y4295D01*
X-350000Y-4295D01*
X-349789Y-12884D01*
X-349368Y-21464D01*
X-348736Y-30031D01*
X-347894Y-38581D01*
X-346842Y-47107D01*
X-345582Y-55605D01*
X-344113Y-64069D01*
X-342437Y-72494D01*
X-340555Y-80876D01*
X-338467Y-89210D01*
X-336176Y-97489D01*
X-333682Y-105710D01*
X-330988Y-113867D01*
X-328093Y-121956D01*
X-325002Y-129971D01*
X-321714Y-137908D01*
X-318233Y-145761D01*
X-314560Y-153527D01*
X-310697Y-161201D01*
X-306648Y-168777D01*
X-302413Y-176252D01*
X-297997Y-183620D01*
X-293401Y-190878D01*
X-288628Y-198021D01*
X-283681Y-205045D01*
X-278564Y-211945D01*
X-273279Y-218717D01*
X-267829Y-225358D01*
X-262217Y-231863D01*
X-256448Y-238228D01*
X-250525Y-244450D01*
X-244450Y-250525D01*
X-238228Y-256448D01*
X-231863Y-262217D01*
X-225358Y-267829D01*
X-218717Y-273279D01*
X-211945Y-278564D01*
X-205045Y-283681D01*
X-198021Y-288628D01*
X-190878Y-293401D01*
X-183620Y-297997D01*
X-176252Y-302413D01*
X-168777Y-306648D01*
X-161201Y-310697D01*
X-153527Y-314560D01*
X-145761Y-318233D01*
X-137908Y-321714D01*
X-129971Y-325002D01*
X-121956Y-328093D01*
X-113867Y-330988D01*
X-105710Y-333682D01*
X-97489Y-336176D01*
X-89210Y-338467D01*
X-80876Y-340555D01*
X-72494Y-342437D01*
X-64069Y-344113D01*
X-55605Y-345582D01*
X-47107Y-346842D01*
X-38581Y-347894D01*
X-30031Y-348736D01*
X-21464Y-349368D01*
X-12884Y-349789D01*
X-4295Y-350000D01*
X4295Y-350000D01*
X12884Y-349789D01*
X21464Y-349368D01*
X30031Y-348736D01*
X38581Y-347894D01*
X47107Y-346842D01*
X55605Y-345582D01*
X64069Y-344113D01*
X72494Y-342437D01*
X80876Y-340555D01*
X89210Y-338467D01*
X97489Y-336176D01*
X105710Y-333682D01*
X113867Y-330988D01*
X121956Y-328093D01*
X129971Y-325002D01*
X137908Y-321714D01*
X145761Y-318233D01*
X153527Y-314560D01*
X161201Y-310697D01*
X168777Y-306648D01*
X176252Y-302413D01*
X183620Y-297997D01*
X190878Y-293401D01*
X198021Y-288628D01*
X205045Y-283681D01*
X211945Y-278564D01*
X218717Y-273279D01*
X225358Y-267829D01*
X231863Y-262217D01*
X238228Y-256448D01*
X244450Y-250525D01*
X250525Y-244450D01*
X256448Y-238228D01*
X262217Y-231863D01*
X267829Y-225358D01*
X273279Y-218717D01*
X278564Y-211945D01*
X283681Y-205045D01*
X288628Y-198021D01*
X293401Y-190878D01*
X297997Y-183620D01*
X302413Y-176252D01*
X306648Y-168777D01*
X310697Y-161201D01*
X314560Y-153527D01*
X318233Y-145761D01*
X321714Y-137908D01*
X325002Y-129971D01*
X328093Y-121956D01*
X330988Y-113867D01*
X333682Y-105710D01*
X336176Y-97489D01*
X338467Y-89210D01*
X340555Y-80876D01*
X342437Y-72494D01*
X344113Y-64069D01*
X345582Y-55605D01*
X346842Y-47107D01*
X347894Y-38581D01*
X348736Y-30031D01*
X349368Y-21464D01*
X349789Y-12884D01*
X350000Y-4295D01*
M02*
