G04 EAGLE Gerber RS-274X export*
G75*
%MOMM*%
%FSLAX34Y34*%
%LPD*%
%INBottom Copper*%
%IPPOS*%
%AMOC8*
5,1,8,0,0,1.08239X$1,22.5*%
G01*
%ADD10P,1.583577X8X292.500000*%
%ADD11C,1.828800*%
%ADD12C,1.108000*%
%ADD13C,2.184400*%
%ADD14C,0.508000*%

G36*
X60498Y-962859D02*
X60498Y-962859D01*
X60553Y-962853D01*
X60657Y-962849D01*
X120837Y-957161D01*
X120891Y-957151D01*
X120995Y-957141D01*
X180699Y-947684D01*
X180753Y-947671D01*
X180856Y-947655D01*
X239848Y-934468D01*
X239901Y-934452D01*
X240003Y-934429D01*
X298051Y-917564D01*
X298102Y-917544D01*
X298202Y-917515D01*
X355077Y-897039D01*
X355127Y-897016D01*
X355225Y-896980D01*
X410702Y-872973D01*
X410750Y-872947D01*
X410846Y-872905D01*
X464706Y-845462D01*
X464753Y-845433D01*
X464846Y-845385D01*
X516876Y-814615D01*
X516905Y-814594D01*
X516910Y-814592D01*
X516929Y-814578D01*
X517011Y-814529D01*
X567006Y-780552D01*
X567049Y-780518D01*
X567135Y-780459D01*
X614898Y-743410D01*
X614939Y-743372D01*
X615021Y-743308D01*
X660364Y-703333D01*
X660402Y-703293D01*
X660480Y-703224D01*
X703224Y-660480D01*
X703259Y-660438D01*
X703333Y-660364D01*
X743308Y-615021D01*
X743341Y-614977D01*
X743410Y-614898D01*
X780459Y-567135D01*
X780488Y-567089D01*
X780552Y-567006D01*
X814529Y-517011D01*
X814556Y-516962D01*
X814615Y-516876D01*
X845385Y-464846D01*
X845409Y-464796D01*
X845462Y-464706D01*
X872905Y-410846D01*
X872926Y-410795D01*
X872973Y-410702D01*
X896980Y-355225D01*
X896997Y-355173D01*
X897039Y-355077D01*
X917515Y-298202D01*
X917529Y-298149D01*
X917564Y-298051D01*
X934429Y-240003D01*
X934439Y-239949D01*
X934468Y-239848D01*
X947655Y-180856D01*
X947662Y-180802D01*
X947684Y-180699D01*
X957141Y-120995D01*
X957144Y-120940D01*
X957161Y-120837D01*
X962849Y-60657D01*
X962850Y-60602D01*
X962859Y-60498D01*
X964758Y-80D01*
X964755Y-25D01*
X964758Y80D01*
X962859Y60498D01*
X962853Y60553D01*
X962849Y60657D01*
X957161Y120837D01*
X957151Y120891D01*
X957141Y120995D01*
X947684Y180699D01*
X947671Y180753D01*
X947655Y180856D01*
X934468Y239848D01*
X934452Y239901D01*
X934429Y240003D01*
X917564Y298051D01*
X917544Y298102D01*
X917515Y298202D01*
X897039Y355077D01*
X897016Y355127D01*
X896980Y355225D01*
X872973Y410702D01*
X872947Y410750D01*
X872905Y410846D01*
X845462Y464706D01*
X845433Y464753D01*
X845385Y464846D01*
X814615Y516876D01*
X814583Y516921D01*
X814561Y516958D01*
X814553Y516972D01*
X814548Y516979D01*
X814529Y517011D01*
X780552Y567006D01*
X780518Y567049D01*
X780459Y567135D01*
X743410Y614898D01*
X743372Y614939D01*
X743308Y615021D01*
X703333Y660364D01*
X703293Y660402D01*
X703224Y660480D01*
X660480Y703224D01*
X660438Y703259D01*
X660364Y703333D01*
X615021Y743308D01*
X614977Y743341D01*
X614898Y743410D01*
X567135Y780459D01*
X567089Y780488D01*
X567006Y780552D01*
X517011Y814529D01*
X516962Y814556D01*
X516876Y814615D01*
X464846Y845385D01*
X464796Y845409D01*
X464768Y845425D01*
X464744Y845441D01*
X464737Y845444D01*
X464706Y845462D01*
X410846Y872905D01*
X410795Y872926D01*
X410702Y872973D01*
X355225Y896980D01*
X355173Y896997D01*
X355077Y897039D01*
X298202Y917515D01*
X298149Y917529D01*
X298051Y917564D01*
X240003Y934429D01*
X239949Y934439D01*
X239848Y934468D01*
X180856Y947655D01*
X180802Y947662D01*
X180699Y947684D01*
X120995Y957141D01*
X120940Y957144D01*
X120837Y957161D01*
X60657Y962849D01*
X60602Y962850D01*
X60498Y962859D01*
X80Y964758D01*
X25Y964755D01*
X-80Y964758D01*
X-60498Y962859D01*
X-60553Y962853D01*
X-60657Y962849D01*
X-120837Y957161D01*
X-120891Y957151D01*
X-120995Y957141D01*
X-180699Y947684D01*
X-180753Y947671D01*
X-180856Y947655D01*
X-239848Y934468D01*
X-239901Y934452D01*
X-240003Y934429D01*
X-298051Y917564D01*
X-298102Y917544D01*
X-298202Y917515D01*
X-355077Y897039D01*
X-355127Y897016D01*
X-355225Y896980D01*
X-410702Y872973D01*
X-410750Y872947D01*
X-410846Y872905D01*
X-464706Y845462D01*
X-464753Y845433D01*
X-464846Y845385D01*
X-516876Y814615D01*
X-516921Y814583D01*
X-517011Y814529D01*
X-567006Y780552D01*
X-567049Y780518D01*
X-567135Y780459D01*
X-614898Y743410D01*
X-614939Y743372D01*
X-615021Y743308D01*
X-660364Y703333D01*
X-660402Y703293D01*
X-660480Y703224D01*
X-703224Y660480D01*
X-703259Y660438D01*
X-703333Y660364D01*
X-743308Y615021D01*
X-743341Y614977D01*
X-743410Y614898D01*
X-780459Y567135D01*
X-780488Y567089D01*
X-780552Y567006D01*
X-814529Y517011D01*
X-814556Y516962D01*
X-814615Y516876D01*
X-845385Y464846D01*
X-845409Y464796D01*
X-845462Y464706D01*
X-872905Y410846D01*
X-872926Y410795D01*
X-872973Y410702D01*
X-896980Y355225D01*
X-896997Y355173D01*
X-897039Y355077D01*
X-917515Y298202D01*
X-917529Y298149D01*
X-917564Y298051D01*
X-934429Y240003D01*
X-934439Y239949D01*
X-934468Y239848D01*
X-947655Y180856D01*
X-947662Y180802D01*
X-947684Y180699D01*
X-957141Y120995D01*
X-957144Y120940D01*
X-957161Y120837D01*
X-962849Y60657D01*
X-962850Y60602D01*
X-962859Y60498D01*
X-964758Y80D01*
X-964755Y25D01*
X-964758Y-80D01*
X-962859Y-60498D01*
X-962853Y-60553D01*
X-962849Y-60657D01*
X-957161Y-120837D01*
X-957151Y-120891D01*
X-957141Y-120995D01*
X-947684Y-180699D01*
X-947671Y-180753D01*
X-947655Y-180856D01*
X-934468Y-239848D01*
X-934452Y-239901D01*
X-934429Y-240003D01*
X-917564Y-298051D01*
X-917544Y-298102D01*
X-917515Y-298202D01*
X-897039Y-355077D01*
X-897016Y-355127D01*
X-896980Y-355225D01*
X-872973Y-410702D01*
X-872947Y-410750D01*
X-872905Y-410846D01*
X-845462Y-464706D01*
X-845433Y-464753D01*
X-845385Y-464846D01*
X-814615Y-516876D01*
X-814596Y-516903D01*
X-814581Y-516932D01*
X-814559Y-516960D01*
X-814529Y-517011D01*
X-780552Y-567006D01*
X-780518Y-567049D01*
X-780459Y-567135D01*
X-743410Y-614898D01*
X-743372Y-614939D01*
X-743308Y-615021D01*
X-703333Y-660364D01*
X-703293Y-660402D01*
X-703224Y-660480D01*
X-660480Y-703224D01*
X-660438Y-703259D01*
X-660364Y-703333D01*
X-615021Y-743308D01*
X-614977Y-743341D01*
X-614898Y-743410D01*
X-567135Y-780459D01*
X-567089Y-780488D01*
X-567006Y-780552D01*
X-517011Y-814529D01*
X-516962Y-814556D01*
X-516876Y-814615D01*
X-464846Y-845385D01*
X-464796Y-845409D01*
X-464706Y-845462D01*
X-410846Y-872905D01*
X-410795Y-872926D01*
X-410702Y-872973D01*
X-355225Y-896980D01*
X-355173Y-896997D01*
X-355077Y-897039D01*
X-298202Y-917515D01*
X-298149Y-917529D01*
X-298051Y-917564D01*
X-240003Y-934429D01*
X-239949Y-934439D01*
X-239848Y-934468D01*
X-180856Y-947655D01*
X-180802Y-947662D01*
X-180699Y-947684D01*
X-120995Y-957141D01*
X-120940Y-957144D01*
X-120837Y-957161D01*
X-60657Y-962849D01*
X-60602Y-962850D01*
X-60498Y-962859D01*
X-80Y-964758D01*
X-25Y-964755D01*
X80Y-964758D01*
X60498Y-962859D01*
G37*
%LPC*%
G36*
X-28187Y-364148D02*
X-28187Y-364148D01*
X-65480Y-359320D01*
X-102079Y-350683D01*
X-137595Y-338328D01*
X-171653Y-322387D01*
X-203891Y-303029D01*
X-233969Y-280459D01*
X-261566Y-254915D01*
X-286390Y-226670D01*
X-308178Y-196022D01*
X-326700Y-163295D01*
X-341759Y-128838D01*
X-353195Y-93016D01*
X-360887Y-56207D01*
X-364753Y-18802D01*
X-364753Y18802D01*
X-360887Y56207D01*
X-353195Y93016D01*
X-341759Y128838D01*
X-326700Y163295D01*
X-308178Y196022D01*
X-286390Y226670D01*
X-261566Y254915D01*
X-233969Y280459D01*
X-203892Y303029D01*
X-171653Y322387D01*
X-137595Y338328D01*
X-102079Y350682D01*
X-65480Y359320D01*
X-28188Y364148D01*
X9404Y365116D01*
X46896Y362214D01*
X83890Y355473D01*
X119996Y344963D01*
X154829Y330796D01*
X188021Y313123D01*
X219221Y292131D01*
X248096Y268042D01*
X274342Y241112D01*
X297679Y211626D01*
X317861Y179897D01*
X334673Y146261D01*
X347938Y111074D01*
X357515Y74710D01*
X363302Y37554D01*
X365237Y0D01*
X363302Y-37554D01*
X357515Y-74710D01*
X347938Y-111074D01*
X334673Y-146261D01*
X317861Y-179897D01*
X297679Y-211627D01*
X274341Y-241112D01*
X248096Y-268042D01*
X219221Y-292131D01*
X188022Y-313123D01*
X154829Y-330796D01*
X119996Y-344963D01*
X83890Y-355473D01*
X70469Y-357918D01*
X70468Y-357918D01*
X56535Y-360458D01*
X56534Y-360458D01*
X46896Y-362214D01*
X9404Y-365116D01*
X-28187Y-364148D01*
G37*
%LPD*%
%LPC*%
G36*
X160000Y-823461D02*
X160000Y-823461D01*
X135850Y-823461D01*
X135947Y-822847D01*
X136602Y-820832D01*
X137564Y-818944D01*
X138114Y-818186D01*
X138200Y-818042D01*
X138293Y-817903D01*
X138316Y-817849D01*
X138346Y-817800D01*
X138405Y-817643D01*
X138471Y-817489D01*
X138485Y-817433D01*
X138505Y-817379D01*
X138536Y-817214D01*
X138574Y-817051D01*
X138577Y-816993D01*
X138588Y-816936D01*
X138589Y-816768D01*
X138598Y-816601D01*
X138590Y-816544D01*
X138591Y-816486D01*
X138562Y-816321D01*
X138542Y-816155D01*
X138524Y-816099D01*
X138514Y-816042D01*
X138457Y-815884D01*
X138407Y-815725D01*
X138381Y-815673D01*
X138361Y-815619D01*
X138277Y-815474D01*
X138199Y-815325D01*
X138164Y-815279D01*
X138135Y-815229D01*
X138027Y-815102D01*
X137924Y-814969D01*
X137881Y-814930D01*
X137844Y-814886D01*
X137714Y-814779D01*
X137590Y-814667D01*
X137529Y-814627D01*
X137496Y-814599D01*
X137443Y-814569D01*
X137330Y-814494D01*
X134573Y-812903D01*
X130175Y-808505D01*
X129886Y-808003D01*
X129826Y-807918D01*
X129774Y-807828D01*
X129696Y-807734D01*
X129627Y-807635D01*
X129553Y-807562D01*
X129486Y-807482D01*
X129393Y-807403D01*
X129307Y-807318D01*
X129221Y-807259D01*
X129142Y-807192D01*
X129036Y-807131D01*
X128936Y-807062D01*
X128841Y-807019D01*
X128751Y-806968D01*
X128637Y-806927D01*
X128526Y-806876D01*
X128425Y-806851D01*
X128327Y-806816D01*
X128207Y-806796D01*
X128090Y-806766D01*
X127986Y-806758D01*
X127883Y-806741D01*
X127701Y-806738D01*
X127640Y-806734D01*
X127613Y-806737D01*
X127571Y-806736D01*
X14658Y-811888D01*
X14552Y-811902D01*
X14445Y-811906D01*
X14329Y-811932D01*
X14211Y-811948D01*
X14110Y-811981D01*
X14006Y-812004D01*
X13896Y-812050D01*
X13783Y-812086D01*
X13689Y-812136D01*
X13590Y-812178D01*
X13490Y-812242D01*
X13385Y-812298D01*
X13302Y-812364D01*
X13212Y-812422D01*
X13080Y-812538D01*
X13032Y-812577D01*
X13012Y-812598D01*
X12978Y-812629D01*
X10218Y-815389D01*
X10196Y-815415D01*
X10170Y-815438D01*
X10052Y-815588D01*
X9929Y-815734D01*
X9912Y-815764D01*
X9890Y-815791D01*
X9800Y-815960D01*
X9706Y-816125D01*
X9694Y-816158D01*
X9678Y-816188D01*
X9619Y-816369D01*
X9555Y-816549D01*
X9549Y-816584D01*
X9539Y-816616D01*
X9513Y-816805D01*
X9481Y-816993D01*
X9482Y-817028D01*
X9477Y-817063D01*
X9485Y-817253D01*
X9488Y-817444D01*
X9494Y-817478D01*
X9496Y-817512D01*
X9537Y-817698D01*
X9573Y-817886D01*
X9586Y-817918D01*
X9593Y-817952D01*
X9667Y-818127D01*
X9735Y-818306D01*
X9754Y-818336D01*
X9767Y-818367D01*
X9856Y-818505D01*
X9856Y-820161D01*
X0Y-820161D01*
X-9856Y-820161D01*
X-9856Y-818513D01*
X-9801Y-818409D01*
X-9706Y-818243D01*
X-9694Y-818211D01*
X-9678Y-818180D01*
X-9619Y-817999D01*
X-9555Y-817819D01*
X-9549Y-817785D01*
X-9539Y-817752D01*
X-9513Y-817563D01*
X-9482Y-817375D01*
X-9482Y-817340D01*
X-9477Y-817306D01*
X-9485Y-817115D01*
X-9488Y-816925D01*
X-9494Y-816891D01*
X-9496Y-816856D01*
X-9537Y-816670D01*
X-9573Y-816483D01*
X-9586Y-816450D01*
X-9593Y-816416D01*
X-9667Y-816240D01*
X-9735Y-816063D01*
X-9753Y-816033D01*
X-9767Y-816001D01*
X-9870Y-815841D01*
X-9969Y-815678D01*
X-9992Y-815652D01*
X-10011Y-815623D01*
X-10218Y-815389D01*
X-12322Y-813284D01*
X-12449Y-813179D01*
X-12569Y-813067D01*
X-12621Y-813035D01*
X-12668Y-812996D01*
X-12810Y-812914D01*
X-12949Y-812826D01*
X-13006Y-812802D01*
X-13059Y-812772D01*
X-13213Y-812717D01*
X-13366Y-812655D01*
X-13425Y-812642D01*
X-13483Y-812621D01*
X-13645Y-812595D01*
X-13806Y-812560D01*
X-13883Y-812555D01*
X-13927Y-812548D01*
X-13988Y-812549D01*
X-14118Y-812541D01*
X-125882Y-812541D01*
X-126046Y-812555D01*
X-126210Y-812562D01*
X-126270Y-812575D01*
X-126331Y-812581D01*
X-126489Y-812624D01*
X-126650Y-812660D01*
X-126706Y-812683D01*
X-126765Y-812699D01*
X-126913Y-812770D01*
X-127065Y-812833D01*
X-127117Y-812866D01*
X-127172Y-812893D01*
X-127305Y-812988D01*
X-127444Y-813077D01*
X-127501Y-813129D01*
X-127538Y-813155D01*
X-127580Y-813198D01*
X-127678Y-813284D01*
X-129782Y-815389D01*
X-129804Y-815415D01*
X-129830Y-815438D01*
X-129949Y-815588D01*
X-130071Y-815734D01*
X-130088Y-815764D01*
X-130110Y-815791D01*
X-130200Y-815959D01*
X-130294Y-816125D01*
X-130306Y-816158D01*
X-130322Y-816188D01*
X-130381Y-816369D01*
X-130445Y-816549D01*
X-130451Y-816584D01*
X-130461Y-816616D01*
X-130487Y-816806D01*
X-130518Y-816993D01*
X-130518Y-817028D01*
X-130523Y-817063D01*
X-130515Y-817254D01*
X-130512Y-817444D01*
X-130506Y-817478D01*
X-130504Y-817512D01*
X-130463Y-817698D01*
X-130427Y-817886D01*
X-130414Y-817918D01*
X-130407Y-817952D01*
X-130333Y-818128D01*
X-130265Y-818306D01*
X-130247Y-818335D01*
X-130233Y-818367D01*
X-130144Y-818505D01*
X-130144Y-820161D01*
X-140000Y-820161D01*
X-149856Y-820161D01*
X-149856Y-818513D01*
X-149801Y-818409D01*
X-149706Y-818243D01*
X-149694Y-818211D01*
X-149678Y-818180D01*
X-149619Y-817999D01*
X-149555Y-817819D01*
X-149549Y-817785D01*
X-149539Y-817752D01*
X-149513Y-817563D01*
X-149482Y-817375D01*
X-149482Y-817340D01*
X-149477Y-817306D01*
X-149485Y-817115D01*
X-149488Y-816925D01*
X-149494Y-816891D01*
X-149496Y-816856D01*
X-149537Y-816670D01*
X-149573Y-816483D01*
X-149586Y-816450D01*
X-149593Y-816416D01*
X-149667Y-816240D01*
X-149735Y-816063D01*
X-149753Y-816033D01*
X-149767Y-816001D01*
X-149870Y-815841D01*
X-149969Y-815678D01*
X-149992Y-815652D01*
X-150011Y-815623D01*
X-150218Y-815389D01*
X-160016Y-805591D01*
X-160016Y-789009D01*
X-148291Y-777284D01*
X-131709Y-777284D01*
X-127678Y-781316D01*
X-127551Y-781421D01*
X-127431Y-781533D01*
X-127379Y-781565D01*
X-127332Y-781604D01*
X-127190Y-781686D01*
X-127051Y-781774D01*
X-126994Y-781798D01*
X-126941Y-781828D01*
X-126787Y-781883D01*
X-126634Y-781945D01*
X-126575Y-781958D01*
X-126517Y-781979D01*
X-126355Y-782005D01*
X-126194Y-782040D01*
X-126117Y-782045D01*
X-126073Y-782052D01*
X-126012Y-782051D01*
X-125882Y-782059D01*
X-14118Y-782059D01*
X-13954Y-782045D01*
X-13790Y-782038D01*
X-13730Y-782025D01*
X-13669Y-782019D01*
X-13511Y-781976D01*
X-13350Y-781940D01*
X-13294Y-781917D01*
X-13235Y-781901D01*
X-13086Y-781830D01*
X-12935Y-781767D01*
X-12883Y-781734D01*
X-12828Y-781707D01*
X-12695Y-781612D01*
X-12556Y-781522D01*
X-12499Y-781471D01*
X-12462Y-781445D01*
X-12420Y-781402D01*
X-12322Y-781316D01*
X-8291Y-777284D01*
X8291Y-777284D01*
X11689Y-780682D01*
X11857Y-780823D01*
X12029Y-780967D01*
X12032Y-780969D01*
X12034Y-780971D01*
X12228Y-781082D01*
X12419Y-781192D01*
X12422Y-781193D01*
X12425Y-781194D01*
X12639Y-781270D01*
X12843Y-781343D01*
X12846Y-781344D01*
X12849Y-781345D01*
X13067Y-781381D01*
X13287Y-781418D01*
X13291Y-781418D01*
X13293Y-781418D01*
X13305Y-781418D01*
X13600Y-781423D01*
X132745Y-775987D01*
X132851Y-775973D01*
X132957Y-775968D01*
X133073Y-775943D01*
X133191Y-775927D01*
X133293Y-775894D01*
X133397Y-775871D01*
X133507Y-775825D01*
X133620Y-775788D01*
X133714Y-775738D01*
X133812Y-775697D01*
X133912Y-775633D01*
X134017Y-775577D01*
X134101Y-775511D01*
X134191Y-775453D01*
X134322Y-775336D01*
X134371Y-775298D01*
X134390Y-775276D01*
X134425Y-775246D01*
X134573Y-775097D01*
X139960Y-771987D01*
X142877Y-771205D01*
X143021Y-771153D01*
X143167Y-771109D01*
X143232Y-771076D01*
X143300Y-771051D01*
X143432Y-770974D01*
X143569Y-770904D01*
X143626Y-770860D01*
X143689Y-770824D01*
X143806Y-770725D01*
X143927Y-770632D01*
X143976Y-770579D01*
X144032Y-770532D01*
X144129Y-770414D01*
X144233Y-770301D01*
X144272Y-770240D01*
X144317Y-770184D01*
X144392Y-770051D01*
X144474Y-769921D01*
X144502Y-769854D01*
X144537Y-769791D01*
X144587Y-769646D01*
X144645Y-769505D01*
X144661Y-769434D01*
X144684Y-769365D01*
X144708Y-769214D01*
X144740Y-769065D01*
X144746Y-768971D01*
X144754Y-768920D01*
X144752Y-768864D01*
X144759Y-768753D01*
X144759Y-679994D01*
X144754Y-679940D01*
X144757Y-679886D01*
X144735Y-679717D01*
X144719Y-679546D01*
X144705Y-679493D01*
X144698Y-679440D01*
X144646Y-679277D01*
X144601Y-679111D01*
X144578Y-679062D01*
X144561Y-679011D01*
X144481Y-678859D01*
X144407Y-678705D01*
X144376Y-678661D01*
X144350Y-678613D01*
X144245Y-678478D01*
X144145Y-678339D01*
X144106Y-678301D01*
X144073Y-678258D01*
X143846Y-678044D01*
X102505Y-643593D01*
X102476Y-643573D01*
X102451Y-643549D01*
X102292Y-643445D01*
X102135Y-643337D01*
X102103Y-643322D01*
X102074Y-643303D01*
X101789Y-643173D01*
X101708Y-643142D01*
X99925Y-641450D01*
X99882Y-641416D01*
X99803Y-641341D01*
X97914Y-639767D01*
X97874Y-639691D01*
X97855Y-639661D01*
X97840Y-639629D01*
X97733Y-639472D01*
X97630Y-639312D01*
X97606Y-639286D01*
X97586Y-639257D01*
X97373Y-639029D01*
X97310Y-638969D01*
X96310Y-636723D01*
X96283Y-636674D01*
X96239Y-636576D01*
X95096Y-634399D01*
X95088Y-634312D01*
X95082Y-634278D01*
X95081Y-634243D01*
X95042Y-634056D01*
X95008Y-633869D01*
X94996Y-633837D01*
X94989Y-633802D01*
X94879Y-633509D01*
X61254Y-557992D01*
X61180Y-557858D01*
X61112Y-557719D01*
X61070Y-557661D01*
X61035Y-557599D01*
X60938Y-557480D01*
X60848Y-557355D01*
X60796Y-557306D01*
X60750Y-557250D01*
X60634Y-557150D01*
X60523Y-557044D01*
X60463Y-557004D01*
X60408Y-556957D01*
X60276Y-556879D01*
X60148Y-556794D01*
X60082Y-556766D01*
X60020Y-556729D01*
X59876Y-556676D01*
X59735Y-556615D01*
X59665Y-556598D01*
X59597Y-556574D01*
X59446Y-556547D01*
X59296Y-556512D01*
X59225Y-556508D01*
X59154Y-556495D01*
X59000Y-556496D01*
X58847Y-556487D01*
X58776Y-556496D01*
X58704Y-556496D01*
X58552Y-556524D01*
X58400Y-556543D01*
X58331Y-556564D01*
X58261Y-556577D01*
X58117Y-556630D01*
X57970Y-556676D01*
X57906Y-556709D01*
X57839Y-556734D01*
X57707Y-556813D01*
X57570Y-556883D01*
X57513Y-556927D01*
X57452Y-556964D01*
X57335Y-557064D01*
X57213Y-557158D01*
X57165Y-557211D01*
X57111Y-557258D01*
X57014Y-557378D01*
X56911Y-557491D01*
X56873Y-557552D01*
X56827Y-557608D01*
X56753Y-557743D01*
X56672Y-557873D01*
X56645Y-557940D01*
X56610Y-558002D01*
X56561Y-558148D01*
X56504Y-558291D01*
X56489Y-558361D01*
X56466Y-558429D01*
X56444Y-558581D01*
X56412Y-558732D01*
X56410Y-558803D01*
X56400Y-558874D01*
X56404Y-559028D01*
X56400Y-559182D01*
X56411Y-559253D01*
X56413Y-559324D01*
X56445Y-559475D01*
X56468Y-559627D01*
X56495Y-559715D01*
X56506Y-559765D01*
X56535Y-559844D01*
X56560Y-559925D01*
X58688Y-565535D01*
X60444Y-580000D01*
X58688Y-594465D01*
X53521Y-608090D01*
X45243Y-620082D01*
X34336Y-629744D01*
X21434Y-636516D01*
X7286Y-640003D01*
X-7286Y-640003D01*
X-21434Y-636516D01*
X-34336Y-629744D01*
X-45243Y-620082D01*
X-53521Y-608090D01*
X-58688Y-594465D01*
X-60444Y-580000D01*
X-58688Y-565535D01*
X-53521Y-551910D01*
X-45243Y-539918D01*
X-34336Y-530256D01*
X-21434Y-523484D01*
X-7286Y-519997D01*
X2739Y-519997D01*
X2913Y-519981D01*
X3088Y-519973D01*
X3137Y-519961D01*
X3188Y-519957D01*
X3357Y-519911D01*
X3526Y-519872D01*
X3573Y-519852D01*
X3622Y-519838D01*
X3780Y-519763D01*
X3940Y-519695D01*
X3983Y-519667D01*
X4029Y-519645D01*
X4171Y-519543D01*
X4317Y-519447D01*
X4354Y-519412D01*
X4395Y-519383D01*
X4517Y-519257D01*
X4643Y-519138D01*
X4673Y-519097D01*
X4709Y-519060D01*
X4807Y-518915D01*
X4910Y-518775D01*
X4933Y-518729D01*
X4961Y-518687D01*
X5032Y-518527D01*
X5109Y-518371D01*
X5123Y-518322D01*
X5143Y-518275D01*
X5185Y-518106D01*
X5233Y-517938D01*
X5238Y-517887D01*
X5250Y-517838D01*
X5261Y-517664D01*
X5278Y-517490D01*
X5275Y-517439D01*
X5278Y-517388D01*
X5258Y-517215D01*
X5244Y-517041D01*
X5232Y-516992D01*
X5226Y-516941D01*
X5175Y-516774D01*
X5131Y-516605D01*
X5110Y-516559D01*
X5095Y-516510D01*
X5016Y-516354D01*
X4943Y-516196D01*
X4914Y-516154D01*
X4891Y-516109D01*
X4786Y-515970D01*
X4686Y-515827D01*
X4650Y-515791D01*
X4619Y-515750D01*
X4491Y-515632D01*
X4367Y-515508D01*
X4325Y-515479D01*
X4288Y-515445D01*
X4141Y-515351D01*
X3997Y-515252D01*
X3951Y-515230D01*
X3908Y-515203D01*
X3747Y-515137D01*
X3588Y-515064D01*
X3527Y-515047D01*
X3492Y-515032D01*
X3430Y-515019D01*
X3288Y-514978D01*
X-220467Y-465506D01*
X-220494Y-465502D01*
X-220521Y-465494D01*
X-220717Y-465473D01*
X-220913Y-465448D01*
X-220941Y-465449D01*
X-220968Y-465446D01*
X-221281Y-465460D01*
X-221419Y-465474D01*
X-221682Y-465397D01*
X-221691Y-465395D01*
X-221699Y-465392D01*
X-221912Y-465350D01*
X-222123Y-465308D01*
X-222132Y-465307D01*
X-222141Y-465306D01*
X-222454Y-465293D01*
X-222727Y-465298D01*
X-224263Y-464697D01*
X-224303Y-464686D01*
X-224340Y-464669D01*
X-224399Y-464652D01*
X-224426Y-464641D01*
X-224472Y-464631D01*
X-224640Y-464583D01*
X-226250Y-464227D01*
X-226365Y-464147D01*
X-226389Y-464133D01*
X-226410Y-464116D01*
X-226585Y-464021D01*
X-226755Y-463923D01*
X-226781Y-463913D01*
X-226806Y-463900D01*
X-227099Y-463793D01*
X-227233Y-463753D01*
X-227446Y-463581D01*
X-227454Y-463576D01*
X-227460Y-463570D01*
X-227639Y-463451D01*
X-227820Y-463330D01*
X-227828Y-463326D01*
X-227836Y-463321D01*
X-228119Y-463190D01*
X-228374Y-463090D01*
X-229563Y-461947D01*
X-229595Y-461922D01*
X-229623Y-461892D01*
X-229867Y-461697D01*
X-231219Y-460752D01*
X-231294Y-460634D01*
X-231311Y-460612D01*
X-231324Y-460588D01*
X-231448Y-460434D01*
X-231569Y-460278D01*
X-231589Y-460259D01*
X-231607Y-460237D01*
X-231837Y-460026D01*
X-438495Y-292732D01*
X-438532Y-292707D01*
X-438565Y-292677D01*
X-438825Y-292505D01*
X-440232Y-291695D01*
X-440500Y-291346D01*
X-440644Y-291190D01*
X-440784Y-291034D01*
X-440798Y-291024D01*
X-440805Y-291015D01*
X-440839Y-290990D01*
X-441026Y-290836D01*
X-441383Y-290578D01*
X-441411Y-290541D01*
X-441434Y-290499D01*
X-441545Y-290361D01*
X-441652Y-290218D01*
X-441686Y-290186D01*
X-441716Y-290149D01*
X-441946Y-289938D01*
X-442720Y-288512D01*
X-442745Y-288475D01*
X-442764Y-288435D01*
X-442939Y-288176D01*
X-443929Y-286890D01*
X-444043Y-286464D01*
X-444116Y-286266D01*
X-444186Y-286067D01*
X-444194Y-286052D01*
X-444198Y-286041D01*
X-444219Y-286005D01*
X-444334Y-285792D01*
X-444565Y-285417D01*
X-444576Y-285372D01*
X-444581Y-285325D01*
X-444631Y-285154D01*
X-444675Y-284981D01*
X-444695Y-284938D01*
X-444708Y-284893D01*
X-444840Y-284611D01*
X-445009Y-282996D01*
X-445018Y-282953D01*
X-445020Y-282908D01*
X-445083Y-282602D01*
X-506074Y-56064D01*
X-506102Y-55986D01*
X-506122Y-55906D01*
X-506216Y-55678D01*
X-506229Y-55641D01*
X-506235Y-55632D01*
X-506241Y-55617D01*
X-506831Y-54397D01*
X-506902Y-53194D01*
X-506917Y-53091D01*
X-506922Y-52988D01*
X-506959Y-52808D01*
X-506968Y-52748D01*
X-506976Y-52723D01*
X-506985Y-52682D01*
X-507429Y-51030D01*
X-513959Y-26777D01*
X-513970Y-26748D01*
X-513976Y-26717D01*
X-514047Y-26537D01*
X-514114Y-26354D01*
X-514130Y-26328D01*
X-514141Y-26299D01*
X-514298Y-26028D01*
X-514363Y-25932D01*
X-514834Y-23548D01*
X-514850Y-23493D01*
X-514873Y-23381D01*
X-515505Y-21035D01*
X-515490Y-20919D01*
X-515488Y-20888D01*
X-515483Y-20858D01*
X-515479Y-20664D01*
X-515471Y-20469D01*
X-515476Y-20439D01*
X-515475Y-20408D01*
X-515517Y-20098D01*
X-515539Y-19984D01*
X-515063Y-17602D01*
X-515057Y-17544D01*
X-515035Y-17432D01*
X-514721Y-15023D01*
X-514662Y-14922D01*
X-514649Y-14894D01*
X-514632Y-14868D01*
X-514555Y-14690D01*
X-514473Y-14513D01*
X-514465Y-14483D01*
X-514453Y-14455D01*
X-514373Y-14153D01*
X-469485Y210290D01*
X-469484Y210290D01*
X-469463Y210398D01*
X-469452Y210499D01*
X-469431Y210599D01*
X-469428Y210723D01*
X-469418Y210814D01*
X-468776Y213833D01*
X-468775Y213846D01*
X-468770Y213863D01*
X-465388Y230773D01*
X-465383Y230818D01*
X-465376Y230847D01*
X-465371Y230930D01*
X-465370Y230936D01*
X-465345Y231099D01*
X-465344Y231176D01*
X-465339Y231220D01*
X-465343Y231281D01*
X-465343Y231411D01*
X-465385Y232182D01*
X-464794Y233868D01*
X-464789Y233888D01*
X-464781Y233908D01*
X-464701Y234210D01*
X-464350Y235962D01*
X-463921Y236602D01*
X-463842Y236747D01*
X-463756Y236887D01*
X-463726Y236958D01*
X-463705Y236997D01*
X-463685Y237055D01*
X-463635Y237175D01*
X-463379Y237903D01*
X-462188Y239235D01*
X-462175Y239252D01*
X-462160Y239267D01*
X-461971Y239515D01*
X-460976Y240999D01*
X-460335Y241427D01*
X-460206Y241530D01*
X-460073Y241627D01*
X-460019Y241681D01*
X-459984Y241709D01*
X-459944Y241755D01*
X-459851Y241847D01*
X-308101Y411450D01*
X-306534Y413200D01*
X-306527Y413211D01*
X-306517Y413220D01*
X-306326Y413467D01*
X-305290Y414993D01*
X-304694Y415384D01*
X-304559Y415492D01*
X-304419Y415593D01*
X-304372Y415640D01*
X-304342Y415664D01*
X-304300Y415711D01*
X-304197Y415813D01*
X-292652Y428716D01*
X-292581Y428812D01*
X-292501Y428902D01*
X-292421Y429026D01*
X-292383Y429077D01*
X-292366Y429111D01*
X-292332Y429164D01*
X-291797Y430114D01*
X-290641Y431022D01*
X-290593Y431067D01*
X-290539Y431106D01*
X-290317Y431326D01*
X-289337Y432422D01*
X-288354Y432894D01*
X-288251Y432955D01*
X-288143Y433008D01*
X-288021Y433092D01*
X-287967Y433124D01*
X-287938Y433150D01*
X-287886Y433186D01*
X-287029Y433859D01*
X-285613Y434255D01*
X-285551Y434279D01*
X-285487Y434294D01*
X-285197Y434412D01*
X-285192Y434415D01*
X-283872Y435049D01*
X-282784Y435110D01*
X-282665Y435127D01*
X-282545Y435134D01*
X-282400Y435165D01*
X-282338Y435174D01*
X-282302Y435186D01*
X-282240Y435200D01*
X-57451Y498140D01*
X-57294Y498200D01*
X-57135Y498252D01*
X-57070Y498285D01*
X-57030Y498300D01*
X-56977Y498332D01*
X-56856Y498393D01*
X-56210Y498770D01*
X-54417Y499015D01*
X-54399Y499019D01*
X-54382Y499020D01*
X-54076Y499086D01*
X-51846Y499710D01*
X-36828Y503915D01*
X-36811Y503921D01*
X-36793Y503925D01*
X-36602Y504001D01*
X-36407Y504074D01*
X-36392Y504084D01*
X-36375Y504090D01*
X-36104Y504247D01*
X-35932Y504363D01*
X-33636Y504817D01*
X-33576Y504834D01*
X-33444Y504863D01*
X-31190Y505494D01*
X-31124Y505486D01*
X-30984Y505469D01*
X-30965Y505468D01*
X-30948Y505465D01*
X-30741Y505461D01*
X-30534Y505455D01*
X-30516Y505458D01*
X-30497Y505457D01*
X-30188Y505499D01*
X-29984Y505539D01*
X-27689Y505080D01*
X-27628Y505074D01*
X-27494Y505049D01*
X-25170Y504770D01*
X-24989Y504668D01*
X-24972Y504660D01*
X-24957Y504650D01*
X-24769Y504568D01*
X-24579Y504483D01*
X-24561Y504478D01*
X-24544Y504471D01*
X-24242Y504391D01*
X188752Y461792D01*
X189018Y461739D01*
X189097Y461730D01*
X189174Y461713D01*
X189320Y461706D01*
X189465Y461690D01*
X189545Y461696D01*
X189624Y461692D01*
X189661Y461696D01*
X192404Y461063D01*
X192432Y461059D01*
X192477Y461047D01*
X220773Y455388D01*
X220936Y455370D01*
X221099Y455345D01*
X221176Y455344D01*
X221220Y455339D01*
X221281Y455343D01*
X221411Y455343D01*
X222182Y455385D01*
X223868Y454794D01*
X223888Y454789D01*
X223908Y454781D01*
X224210Y454701D01*
X225962Y454350D01*
X226602Y453921D01*
X226747Y453842D01*
X226887Y453756D01*
X226958Y453726D01*
X226997Y453705D01*
X227055Y453685D01*
X227175Y453635D01*
X227903Y453379D01*
X229235Y452188D01*
X229252Y452175D01*
X229267Y452160D01*
X229515Y451971D01*
X230999Y450976D01*
X231427Y450335D01*
X231530Y450206D01*
X231627Y450073D01*
X231681Y450019D01*
X231709Y449984D01*
X231755Y449944D01*
X231847Y449851D01*
X396481Y302547D01*
X396947Y302130D01*
X397009Y302075D01*
X397024Y302063D01*
X397037Y302050D01*
X397204Y301929D01*
X397370Y301805D01*
X397386Y301797D01*
X397402Y301786D01*
X397679Y301643D01*
X397866Y301561D01*
X399487Y299867D01*
X399534Y299827D01*
X399628Y299731D01*
X401752Y297831D01*
X418227Y283090D01*
X418397Y282963D01*
X418565Y282835D01*
X418579Y282827D01*
X418588Y282820D01*
X418624Y282802D01*
X418839Y282684D01*
X419232Y282499D01*
X420658Y280932D01*
X420699Y280895D01*
X420843Y280749D01*
X422422Y279337D01*
X422610Y278945D01*
X422717Y278765D01*
X422825Y278580D01*
X422835Y278567D01*
X422840Y278558D01*
X422866Y278528D01*
X423020Y278336D01*
X423313Y278015D01*
X424030Y276022D01*
X424041Y275998D01*
X424045Y275987D01*
X424058Y275960D01*
X424131Y275781D01*
X425049Y273872D01*
X425073Y273438D01*
X425104Y273230D01*
X425132Y273019D01*
X425136Y273003D01*
X425138Y272993D01*
X425150Y272955D01*
X425219Y272719D01*
X492620Y85496D01*
X492644Y85443D01*
X492718Y85260D01*
X493640Y83334D01*
X493662Y82917D01*
X493693Y82704D01*
X493721Y82493D01*
X493725Y82480D01*
X493726Y82471D01*
X493738Y82437D01*
X493809Y82193D01*
X494121Y81325D01*
X505621Y49382D01*
X513487Y27530D01*
X513572Y27348D01*
X513653Y27165D01*
X513669Y27139D01*
X513677Y27121D01*
X513709Y27076D01*
X513820Y26901D01*
X514122Y26483D01*
X514595Y24500D01*
X514609Y24459D01*
X514676Y24229D01*
X515367Y22310D01*
X515342Y21795D01*
X515351Y21595D01*
X515355Y21395D01*
X515360Y21365D01*
X515361Y21345D01*
X515373Y21292D01*
X515409Y21087D01*
X515528Y20586D01*
X515206Y18572D01*
X515203Y18530D01*
X515177Y18291D01*
X515081Y16254D01*
X514862Y15787D01*
X514793Y15600D01*
X514720Y15412D01*
X514713Y15383D01*
X514707Y15365D01*
X514697Y15311D01*
X514652Y15107D01*
X475311Y-230773D01*
X475305Y-230853D01*
X475291Y-230931D01*
X475282Y-231189D01*
X475279Y-231222D01*
X475280Y-231231D01*
X475280Y-231243D01*
X475317Y-232619D01*
X475221Y-232869D01*
X475219Y-232878D01*
X475214Y-232887D01*
X475156Y-233098D01*
X475098Y-233302D01*
X475097Y-233312D01*
X475095Y-233321D01*
X475058Y-233631D01*
X475042Y-233899D01*
X474858Y-234280D01*
X474783Y-234479D01*
X474706Y-234678D01*
X474702Y-234692D01*
X474699Y-234701D01*
X474692Y-234738D01*
X474637Y-234983D01*
X474570Y-235401D01*
X473849Y-236574D01*
X473814Y-236645D01*
X473771Y-236711D01*
X473664Y-236946D01*
X473648Y-236977D01*
X473646Y-236985D01*
X473641Y-236996D01*
X473149Y-238281D01*
X472965Y-238475D01*
X472959Y-238483D01*
X472951Y-238490D01*
X472819Y-238659D01*
X472685Y-238828D01*
X472681Y-238837D01*
X472675Y-238845D01*
X472522Y-239117D01*
X472405Y-239358D01*
X472089Y-239640D01*
X471943Y-239795D01*
X471796Y-239950D01*
X471788Y-239961D01*
X471781Y-239968D01*
X471761Y-239999D01*
X471616Y-240205D01*
X471394Y-240566D01*
X470280Y-241373D01*
X470220Y-241425D01*
X470154Y-241470D01*
X469965Y-241646D01*
X469940Y-241669D01*
X469934Y-241675D01*
X469925Y-241684D01*
X292381Y-429091D01*
X292309Y-429182D01*
X292229Y-429267D01*
X292141Y-429395D01*
X292102Y-429444D01*
X292085Y-429476D01*
X292052Y-429524D01*
X291474Y-430479D01*
X290311Y-431335D01*
X290259Y-431381D01*
X290201Y-431421D01*
X289976Y-431631D01*
X289973Y-431633D01*
X289972Y-431634D01*
X288979Y-432682D01*
X287960Y-433137D01*
X287858Y-433194D01*
X287752Y-433242D01*
X287622Y-433326D01*
X287567Y-433357D01*
X287539Y-433379D01*
X287490Y-433411D01*
X286591Y-434072D01*
X285188Y-434418D01*
X285122Y-434441D01*
X285054Y-434455D01*
X284765Y-434563D01*
X284762Y-434564D01*
X284761Y-434565D01*
X283442Y-435153D01*
X282326Y-435183D01*
X282211Y-435197D01*
X282095Y-435200D01*
X281942Y-435228D01*
X281879Y-435235D01*
X281845Y-435246D01*
X281787Y-435256D01*
X280704Y-435523D01*
X279276Y-435306D01*
X279206Y-435302D01*
X279137Y-435289D01*
X278829Y-435278D01*
X278827Y-435278D01*
X278826Y-435278D01*
X278825Y-435278D01*
X277381Y-435317D01*
X276339Y-434918D01*
X276227Y-434886D01*
X276118Y-434845D01*
X275966Y-434812D01*
X275906Y-434795D01*
X275870Y-434791D01*
X275813Y-434779D01*
X274710Y-434611D01*
X273474Y-433864D01*
X273411Y-433833D01*
X273352Y-433795D01*
X273072Y-433667D01*
X273069Y-433666D01*
X273068Y-433665D01*
X271719Y-433149D01*
X270909Y-432381D01*
X270818Y-432309D01*
X270733Y-432230D01*
X270605Y-432141D01*
X270556Y-432102D01*
X270524Y-432085D01*
X270476Y-432052D01*
X269521Y-431474D01*
X268665Y-430311D01*
X268619Y-430259D01*
X268579Y-430201D01*
X268369Y-429976D01*
X268367Y-429973D01*
X268366Y-429972D01*
X267317Y-428979D01*
X266863Y-427960D01*
X266806Y-427858D01*
X266758Y-427752D01*
X266697Y-427658D01*
X266683Y-427629D01*
X266666Y-427606D01*
X266643Y-427566D01*
X266621Y-427539D01*
X266589Y-427490D01*
X239980Y-391326D01*
X239964Y-391308D01*
X239952Y-391288D01*
X239816Y-391140D01*
X239682Y-390989D01*
X239664Y-390974D01*
X239647Y-390956D01*
X239487Y-390834D01*
X239329Y-390709D01*
X239308Y-390698D01*
X239289Y-390683D01*
X239110Y-390591D01*
X238933Y-390496D01*
X238910Y-390489D01*
X238889Y-390478D01*
X238592Y-390379D01*
X236541Y-389829D01*
X234104Y-387959D01*
X234013Y-387901D01*
X233927Y-387835D01*
X233823Y-387781D01*
X233724Y-387718D01*
X233624Y-387677D01*
X233528Y-387627D01*
X233416Y-387592D01*
X233307Y-387547D01*
X233202Y-387525D01*
X233098Y-387492D01*
X232982Y-387478D01*
X232867Y-387453D01*
X232759Y-387450D01*
X232651Y-387436D01*
X232534Y-387442D01*
X232417Y-387438D01*
X232310Y-387454D01*
X232202Y-387460D01*
X232087Y-387486D01*
X231972Y-387503D01*
X231869Y-387537D01*
X231763Y-387562D01*
X231656Y-387609D01*
X231544Y-387646D01*
X231449Y-387698D01*
X231350Y-387741D01*
X231252Y-387805D01*
X231149Y-387861D01*
X231065Y-387929D01*
X230974Y-387989D01*
X230890Y-388070D01*
X230798Y-388144D01*
X230727Y-388225D01*
X230649Y-388300D01*
X230580Y-388395D01*
X230503Y-388483D01*
X230447Y-388576D01*
X230383Y-388664D01*
X230304Y-388816D01*
X230272Y-388870D01*
X230261Y-388898D01*
X230239Y-388941D01*
X229893Y-389717D01*
X229201Y-390783D01*
X228805Y-391223D01*
X222199Y-379782D01*
X222199Y-379781D01*
X215593Y-368340D01*
X216172Y-368217D01*
X217442Y-368151D01*
X218287Y-368239D01*
X218395Y-368241D01*
X218503Y-368253D01*
X218620Y-368245D01*
X218737Y-368246D01*
X218844Y-368229D01*
X218952Y-368221D01*
X219066Y-368193D01*
X219181Y-368174D01*
X219284Y-368138D01*
X219389Y-368111D01*
X219496Y-368063D01*
X219606Y-368024D01*
X219700Y-367971D01*
X219799Y-367926D01*
X219896Y-367860D01*
X219997Y-367802D01*
X220081Y-367732D01*
X220170Y-367671D01*
X220253Y-367589D01*
X220343Y-367514D01*
X220413Y-367431D01*
X220490Y-367355D01*
X220558Y-367259D01*
X220633Y-367169D01*
X220687Y-367075D01*
X220750Y-366986D01*
X220799Y-366880D01*
X220857Y-366779D01*
X220894Y-366676D01*
X220940Y-366578D01*
X220970Y-366465D01*
X221009Y-366355D01*
X221027Y-366248D01*
X221055Y-366143D01*
X221064Y-366026D01*
X221084Y-365911D01*
X221083Y-365802D01*
X221091Y-365694D01*
X221079Y-365523D01*
X221079Y-365460D01*
X221073Y-365431D01*
X221070Y-365382D01*
X220669Y-362337D01*
X222547Y-355328D01*
X226964Y-349571D01*
X233249Y-345942D01*
X240443Y-344995D01*
X247453Y-346873D01*
X253210Y-351291D01*
X262378Y-367171D01*
X262800Y-370376D01*
X262807Y-370408D01*
X262809Y-370440D01*
X262856Y-370627D01*
X262898Y-370816D01*
X262911Y-370845D01*
X262918Y-370877D01*
X262998Y-371053D01*
X263072Y-371231D01*
X263090Y-371258D01*
X263103Y-371287D01*
X263272Y-371550D01*
X279673Y-393839D01*
X279696Y-393866D01*
X279715Y-393895D01*
X279845Y-394034D01*
X279971Y-394177D01*
X279998Y-394199D01*
X280022Y-394224D01*
X280175Y-394338D01*
X280323Y-394456D01*
X280355Y-394473D01*
X280383Y-394494D01*
X280553Y-394579D01*
X280720Y-394669D01*
X280754Y-394680D01*
X280785Y-394696D01*
X280967Y-394750D01*
X281148Y-394809D01*
X281183Y-394814D01*
X281217Y-394823D01*
X281405Y-394844D01*
X281594Y-394870D01*
X281630Y-394869D01*
X281665Y-394873D01*
X281854Y-394860D01*
X282044Y-394852D01*
X282079Y-394845D01*
X282114Y-394842D01*
X282298Y-394796D01*
X282484Y-394755D01*
X282517Y-394741D01*
X282551Y-394733D01*
X282724Y-394655D01*
X282899Y-394582D01*
X282929Y-394563D01*
X282961Y-394548D01*
X283118Y-394441D01*
X283278Y-394338D01*
X283304Y-394314D01*
X283333Y-394294D01*
X283561Y-394080D01*
X432206Y-237177D01*
X432331Y-237020D01*
X432458Y-236865D01*
X432470Y-236844D01*
X432486Y-236824D01*
X432581Y-236647D01*
X432679Y-236473D01*
X432687Y-236449D01*
X432699Y-236427D01*
X432761Y-236237D01*
X432826Y-236047D01*
X432830Y-236023D01*
X432838Y-235999D01*
X432865Y-235800D01*
X432896Y-235603D01*
X432896Y-235578D01*
X432899Y-235553D01*
X432891Y-235353D01*
X432887Y-235152D01*
X432882Y-235128D01*
X432881Y-235103D01*
X432838Y-234908D01*
X432798Y-234711D01*
X432789Y-234688D01*
X432784Y-234664D01*
X432706Y-234479D01*
X432633Y-234292D01*
X432620Y-234271D01*
X432610Y-234248D01*
X432501Y-234080D01*
X432396Y-233909D01*
X432379Y-233891D01*
X432366Y-233870D01*
X432229Y-233724D01*
X432095Y-233574D01*
X432075Y-233559D01*
X432059Y-233541D01*
X431898Y-233421D01*
X431740Y-233297D01*
X431714Y-233283D01*
X431698Y-233271D01*
X431649Y-233246D01*
X431467Y-233144D01*
X402610Y-219207D01*
X402544Y-219182D01*
X402481Y-219149D01*
X402334Y-219102D01*
X402189Y-219048D01*
X402119Y-219035D01*
X402051Y-219014D01*
X401898Y-218994D01*
X401747Y-218966D01*
X401676Y-218965D01*
X401605Y-218956D01*
X401450Y-218964D01*
X401296Y-218963D01*
X401226Y-218975D01*
X401155Y-218979D01*
X400861Y-219038D01*
X400853Y-219040D01*
X400851Y-219040D01*
X400849Y-219041D01*
X399765Y-219331D01*
X396720Y-218930D01*
X396612Y-218926D01*
X396504Y-218911D01*
X396387Y-218916D01*
X396270Y-218911D01*
X396163Y-218926D01*
X396054Y-218931D01*
X395940Y-218956D01*
X395824Y-218972D01*
X395721Y-219005D01*
X395615Y-219029D01*
X395507Y-219075D01*
X395395Y-219111D01*
X395300Y-219162D01*
X395200Y-219204D01*
X395102Y-219268D01*
X394998Y-219323D01*
X394913Y-219390D01*
X394822Y-219449D01*
X394737Y-219529D01*
X394645Y-219602D01*
X394573Y-219683D01*
X394494Y-219757D01*
X394424Y-219851D01*
X394346Y-219939D01*
X394290Y-220031D01*
X394225Y-220118D01*
X394173Y-220223D01*
X394112Y-220323D01*
X394073Y-220424D01*
X394024Y-220521D01*
X393991Y-220634D01*
X393949Y-220743D01*
X393928Y-220849D01*
X393898Y-220953D01*
X393885Y-221070D01*
X393863Y-221185D01*
X393861Y-221293D01*
X393850Y-221401D01*
X393857Y-221573D01*
X393856Y-221635D01*
X393861Y-221665D01*
X393863Y-221713D01*
X393952Y-222558D01*
X393885Y-223828D01*
X393762Y-224407D01*
X382321Y-217801D01*
X370879Y-211195D01*
X371319Y-210799D01*
X372386Y-210107D01*
X373162Y-209761D01*
X373256Y-209709D01*
X373355Y-209665D01*
X373453Y-209599D01*
X373555Y-209542D01*
X373639Y-209474D01*
X373729Y-209413D01*
X373813Y-209331D01*
X373904Y-209257D01*
X373974Y-209175D01*
X374052Y-209100D01*
X374120Y-209004D01*
X374196Y-208915D01*
X374251Y-208822D01*
X374315Y-208734D01*
X374365Y-208628D01*
X374424Y-208527D01*
X374462Y-208425D01*
X374508Y-208327D01*
X374539Y-208214D01*
X374580Y-208104D01*
X374599Y-207998D01*
X374628Y-207893D01*
X374638Y-207776D01*
X374658Y-207661D01*
X374658Y-207553D01*
X374668Y-207445D01*
X374658Y-207328D01*
X374658Y-207211D01*
X374638Y-207104D01*
X374629Y-206996D01*
X374598Y-206883D01*
X374577Y-206768D01*
X374539Y-206666D01*
X374511Y-206562D01*
X374461Y-206456D01*
X374420Y-206346D01*
X374364Y-206253D01*
X374318Y-206155D01*
X374222Y-206012D01*
X374190Y-205959D01*
X374170Y-205936D01*
X374143Y-205896D01*
X372273Y-203459D01*
X370395Y-196449D01*
X371342Y-189255D01*
X374971Y-182970D01*
X380728Y-178553D01*
X387737Y-176675D01*
X394932Y-177622D01*
X410812Y-186790D01*
X413526Y-190327D01*
X413668Y-190482D01*
X413808Y-190638D01*
X413820Y-190648D01*
X413830Y-190659D01*
X413998Y-190786D01*
X414163Y-190915D01*
X414179Y-190924D01*
X414189Y-190931D01*
X414227Y-190951D01*
X414436Y-191068D01*
X445114Y-205885D01*
X445281Y-205948D01*
X445446Y-206017D01*
X445491Y-206028D01*
X445535Y-206044D01*
X445711Y-206077D01*
X445885Y-206116D01*
X445932Y-206118D01*
X445978Y-206126D01*
X446156Y-206127D01*
X446335Y-206135D01*
X446381Y-206129D01*
X446428Y-206129D01*
X446604Y-206099D01*
X446781Y-206074D01*
X446826Y-206060D01*
X446872Y-206052D01*
X447039Y-205991D01*
X447210Y-205936D01*
X447251Y-205914D01*
X447295Y-205898D01*
X447449Y-205808D01*
X447607Y-205724D01*
X447644Y-205695D01*
X447684Y-205672D01*
X447820Y-205556D01*
X447961Y-205445D01*
X447992Y-205411D01*
X448027Y-205380D01*
X448141Y-205242D01*
X448260Y-205109D01*
X448284Y-205069D01*
X448313Y-205033D01*
X448401Y-204877D01*
X448494Y-204724D01*
X448511Y-204681D01*
X448534Y-204640D01*
X448592Y-204471D01*
X448657Y-204305D01*
X448670Y-204248D01*
X448681Y-204215D01*
X448691Y-204152D01*
X448725Y-204000D01*
X484227Y17886D01*
X484229Y17918D01*
X484237Y17951D01*
X484245Y18144D01*
X484259Y18335D01*
X484255Y18368D01*
X484256Y18401D01*
X484231Y18591D01*
X484210Y18782D01*
X484201Y18814D01*
X484196Y18847D01*
X484109Y19147D01*
X476941Y39057D01*
X476941Y39058D01*
X474321Y46336D01*
X474232Y46527D01*
X474146Y46718D01*
X474138Y46731D01*
X474131Y46745D01*
X474010Y46917D01*
X473892Y47090D01*
X473881Y47101D01*
X473873Y47113D01*
X473724Y47261D01*
X473576Y47411D01*
X473564Y47420D01*
X473553Y47431D01*
X473380Y47550D01*
X473209Y47671D01*
X473195Y47677D01*
X473182Y47686D01*
X472991Y47773D01*
X472801Y47862D01*
X472786Y47866D01*
X472772Y47872D01*
X472570Y47924D01*
X472366Y47978D01*
X472351Y47979D01*
X472336Y47983D01*
X472128Y47998D01*
X471917Y48016D01*
X471902Y48014D01*
X471887Y48015D01*
X471679Y47993D01*
X471469Y47973D01*
X471454Y47969D01*
X471439Y47967D01*
X471237Y47908D01*
X471035Y47852D01*
X471022Y47846D01*
X471007Y47841D01*
X470819Y47748D01*
X470630Y47656D01*
X470617Y47647D01*
X470604Y47641D01*
X470436Y47516D01*
X470265Y47392D01*
X470252Y47379D01*
X470242Y47372D01*
X470213Y47340D01*
X470042Y47173D01*
X454431Y29792D01*
X454373Y29715D01*
X454307Y29644D01*
X454238Y29535D01*
X454161Y29432D01*
X454118Y29346D01*
X454098Y29317D01*
X454096Y29311D01*
X454066Y29264D01*
X454017Y29144D01*
X453959Y29029D01*
X453934Y28946D01*
X453916Y28905D01*
X453912Y28891D01*
X453895Y28847D01*
X453868Y28721D01*
X453831Y28598D01*
X453822Y28522D01*
X453809Y28468D01*
X453808Y28444D01*
X453800Y28407D01*
X453788Y28207D01*
X453781Y28150D01*
X453783Y28129D01*
X453781Y28095D01*
X453781Y21772D01*
X451004Y15067D01*
X445873Y9936D01*
X443035Y8761D01*
X442939Y8711D01*
X442838Y8669D01*
X442739Y8606D01*
X442636Y8552D01*
X442550Y8486D01*
X442459Y8428D01*
X442372Y8348D01*
X442280Y8277D01*
X442207Y8196D01*
X442127Y8123D01*
X442057Y8029D01*
X441978Y7942D01*
X441921Y7850D01*
X441855Y7764D01*
X441802Y7660D01*
X441740Y7560D01*
X441700Y7459D01*
X441651Y7363D01*
X441617Y7251D01*
X441573Y7142D01*
X441552Y7036D01*
X441520Y6932D01*
X441507Y6815D01*
X441483Y6701D01*
X441481Y6592D01*
X441468Y6485D01*
X441475Y6368D01*
X441472Y6250D01*
X441489Y6143D01*
X441496Y6035D01*
X441523Y5921D01*
X441541Y5805D01*
X441577Y5703D01*
X441602Y5598D01*
X441650Y5491D01*
X441688Y5380D01*
X441741Y5285D01*
X441784Y5186D01*
X441877Y5041D01*
X441907Y4986D01*
X441926Y4963D01*
X441952Y4922D01*
X442451Y4235D01*
X443029Y3102D01*
X443211Y2539D01*
X430000Y2539D01*
X416789Y2539D01*
X416971Y3102D01*
X417549Y4235D01*
X418048Y4922D01*
X418104Y5015D01*
X418168Y5103D01*
X418219Y5208D01*
X418279Y5309D01*
X418318Y5410D01*
X418365Y5507D01*
X418397Y5620D01*
X418439Y5730D01*
X418459Y5836D01*
X418488Y5940D01*
X418500Y6057D01*
X418521Y6172D01*
X418522Y6281D01*
X418533Y6388D01*
X418524Y6505D01*
X418524Y6623D01*
X418506Y6729D01*
X418497Y6837D01*
X418468Y6951D01*
X418448Y7066D01*
X418411Y7168D01*
X418383Y7273D01*
X418334Y7379D01*
X418294Y7490D01*
X418240Y7583D01*
X418194Y7682D01*
X418127Y7778D01*
X418068Y7879D01*
X417998Y7962D01*
X417936Y8050D01*
X417853Y8133D01*
X417777Y8222D01*
X417693Y8291D01*
X417617Y8368D01*
X417520Y8434D01*
X417430Y8509D01*
X417335Y8562D01*
X417246Y8624D01*
X417091Y8699D01*
X417037Y8730D01*
X417009Y8740D01*
X416965Y8761D01*
X414127Y9936D01*
X408996Y15067D01*
X406219Y21772D01*
X406219Y29028D01*
X408996Y35733D01*
X414127Y40864D01*
X420832Y43641D01*
X424765Y43641D01*
X424773Y43641D01*
X424780Y43641D01*
X424997Y43661D01*
X425214Y43681D01*
X425221Y43683D01*
X425228Y43683D01*
X425439Y43742D01*
X425648Y43799D01*
X425655Y43802D01*
X425662Y43804D01*
X425862Y43901D01*
X426055Y43993D01*
X426061Y43997D01*
X426067Y44000D01*
X426245Y44129D01*
X426421Y44255D01*
X426426Y44260D01*
X426432Y44264D01*
X426655Y44483D01*
X460144Y81769D01*
X460195Y81837D01*
X460253Y81898D01*
X460330Y82016D01*
X460414Y82129D01*
X460452Y82205D01*
X460498Y82276D01*
X460553Y82405D01*
X460617Y82532D01*
X460641Y82613D01*
X460673Y82690D01*
X460704Y82828D01*
X460744Y82963D01*
X460754Y83047D01*
X460772Y83130D01*
X460778Y83271D01*
X460794Y83411D01*
X460788Y83495D01*
X460792Y83580D01*
X460773Y83719D01*
X460764Y83860D01*
X460743Y83942D01*
X460732Y84026D01*
X460665Y84255D01*
X460655Y84297D01*
X460650Y84308D01*
X460644Y84326D01*
X420728Y195204D01*
X420673Y195323D01*
X420627Y195445D01*
X420579Y195526D01*
X420539Y195612D01*
X420464Y195719D01*
X420397Y195831D01*
X420335Y195903D01*
X420280Y195981D01*
X420187Y196073D01*
X420102Y196171D01*
X420028Y196231D01*
X419961Y196298D01*
X419853Y196372D01*
X419751Y196454D01*
X419668Y196500D01*
X419590Y196554D01*
X419471Y196608D01*
X419356Y196670D01*
X419266Y196701D01*
X419180Y196740D01*
X419053Y196772D01*
X418930Y196813D01*
X418836Y196827D01*
X418744Y196851D01*
X418613Y196860D01*
X418484Y196879D01*
X418389Y196876D01*
X418294Y196883D01*
X418165Y196869D01*
X418034Y196865D01*
X417941Y196845D01*
X417847Y196835D01*
X417721Y196798D01*
X417594Y196771D01*
X417506Y196735D01*
X417414Y196709D01*
X417297Y196650D01*
X417177Y196601D01*
X417096Y196550D01*
X417011Y196508D01*
X416907Y196430D01*
X416796Y196360D01*
X416726Y196296D01*
X416650Y196239D01*
X416561Y196144D01*
X416464Y196056D01*
X416407Y195980D01*
X416342Y195911D01*
X416270Y195802D01*
X416191Y195698D01*
X416148Y195613D01*
X416096Y195534D01*
X416046Y195414D01*
X415986Y195297D01*
X415945Y195175D01*
X415921Y195119D01*
X415911Y195075D01*
X415887Y195001D01*
X415229Y192547D01*
X410811Y186790D01*
X394932Y177622D01*
X387737Y176675D01*
X380728Y178553D01*
X374971Y182970D01*
X371342Y189255D01*
X370395Y196449D01*
X372273Y203459D01*
X374143Y205896D01*
X374201Y205987D01*
X374268Y206073D01*
X374322Y206177D01*
X374385Y206276D01*
X374426Y206376D01*
X374476Y206472D01*
X374511Y206584D01*
X374555Y206693D01*
X374578Y206798D01*
X374610Y206902D01*
X374625Y207018D01*
X374649Y207133D01*
X374653Y207241D01*
X374666Y207349D01*
X374660Y207466D01*
X374664Y207583D01*
X374648Y207690D01*
X374643Y207798D01*
X374616Y207913D01*
X374599Y208028D01*
X374565Y208131D01*
X374540Y208237D01*
X374494Y208344D01*
X374457Y208456D01*
X374405Y208551D01*
X374362Y208650D01*
X374297Y208748D01*
X374241Y208851D01*
X374173Y208935D01*
X374113Y209026D01*
X374032Y209110D01*
X373959Y209202D01*
X373877Y209273D01*
X373802Y209351D01*
X373708Y209420D01*
X373619Y209497D01*
X373526Y209553D01*
X373439Y209617D01*
X373286Y209696D01*
X373233Y209728D01*
X373204Y209739D01*
X373162Y209761D01*
X372386Y210107D01*
X371319Y210799D01*
X370879Y211195D01*
X382321Y217801D01*
X393762Y224407D01*
X393885Y223828D01*
X393952Y222558D01*
X393863Y221713D01*
X393861Y221605D01*
X393850Y221497D01*
X393858Y221380D01*
X393856Y221263D01*
X393873Y221156D01*
X393881Y221048D01*
X393909Y220934D01*
X393928Y220819D01*
X393964Y220716D01*
X393991Y220611D01*
X394039Y220505D01*
X394078Y220394D01*
X394132Y220300D01*
X394176Y220201D01*
X394243Y220104D01*
X394301Y220003D01*
X394370Y219919D01*
X394431Y219830D01*
X394514Y219747D01*
X394589Y219657D01*
X394672Y219587D01*
X394748Y219510D01*
X394844Y219442D01*
X394933Y219367D01*
X395027Y219313D01*
X395116Y219250D01*
X395222Y219201D01*
X395324Y219142D01*
X395426Y219106D01*
X395524Y219060D01*
X395637Y219030D01*
X395748Y218991D01*
X395855Y218973D01*
X395959Y218945D01*
X396076Y218936D01*
X396192Y218916D01*
X396300Y218917D01*
X396408Y218909D01*
X396580Y218921D01*
X396642Y218921D01*
X396672Y218927D01*
X396720Y218930D01*
X399765Y219331D01*
X406775Y217453D01*
X408121Y216420D01*
X408270Y216325D01*
X408416Y216225D01*
X408460Y216205D01*
X408501Y216179D01*
X408665Y216112D01*
X408826Y216039D01*
X408873Y216027D01*
X408918Y216008D01*
X409091Y215971D01*
X409262Y215928D01*
X409310Y215924D01*
X409358Y215914D01*
X409535Y215908D01*
X409711Y215896D01*
X409759Y215901D01*
X409808Y215899D01*
X409983Y215925D01*
X410159Y215944D01*
X410206Y215957D01*
X410253Y215964D01*
X410421Y216020D01*
X410591Y216070D01*
X410635Y216091D01*
X410681Y216107D01*
X410836Y216192D01*
X410994Y216270D01*
X411033Y216299D01*
X411076Y216322D01*
X411214Y216433D01*
X411356Y216539D01*
X411389Y216574D01*
X411427Y216605D01*
X411543Y216738D01*
X411664Y216867D01*
X411690Y216908D01*
X411722Y216944D01*
X411813Y217097D01*
X411910Y217245D01*
X411928Y217289D01*
X411953Y217331D01*
X412016Y217496D01*
X412085Y217659D01*
X412095Y217707D01*
X412112Y217752D01*
X412144Y217926D01*
X412183Y218099D01*
X412186Y218147D01*
X412194Y218195D01*
X412195Y218372D01*
X412203Y218549D01*
X412197Y218596D01*
X412197Y218645D01*
X412167Y218819D01*
X412143Y218995D01*
X412126Y219053D01*
X412120Y219089D01*
X412099Y219148D01*
X412056Y219295D01*
X397539Y259620D01*
X397470Y259767D01*
X397410Y259917D01*
X397376Y259971D01*
X397349Y260028D01*
X397256Y260161D01*
X397170Y260298D01*
X397127Y260345D01*
X397091Y260397D01*
X396975Y260511D01*
X396866Y260631D01*
X396816Y260669D01*
X396771Y260714D01*
X396637Y260806D01*
X396509Y260904D01*
X396452Y260933D01*
X396400Y260969D01*
X396253Y261037D01*
X396108Y261111D01*
X396048Y261129D01*
X395990Y261156D01*
X395833Y261196D01*
X395678Y261243D01*
X395615Y261251D01*
X395554Y261266D01*
X395392Y261278D01*
X395231Y261298D01*
X395168Y261294D01*
X395105Y261298D01*
X394943Y261281D01*
X394782Y261272D01*
X394720Y261257D01*
X394657Y261251D01*
X394501Y261205D01*
X394344Y261168D01*
X394286Y261142D01*
X394225Y261124D01*
X394079Y261052D01*
X393931Y260987D01*
X393878Y260952D01*
X393822Y260924D01*
X393692Y260827D01*
X393557Y260737D01*
X393511Y260693D01*
X393460Y260655D01*
X393349Y260537D01*
X393232Y260425D01*
X393195Y260373D01*
X393152Y260327D01*
X393064Y260191D01*
X392968Y260060D01*
X392932Y259988D01*
X392906Y259950D01*
X392883Y259894D01*
X392825Y259782D01*
X390194Y253801D01*
X390152Y253675D01*
X390100Y253552D01*
X390080Y253462D01*
X390050Y253374D01*
X390030Y253243D01*
X390001Y253113D01*
X389997Y253020D01*
X389984Y252929D01*
X389987Y252796D01*
X389982Y252663D01*
X389994Y252571D01*
X389997Y252479D01*
X390024Y252349D01*
X390042Y252217D01*
X390070Y252129D01*
X390089Y252038D01*
X390139Y251915D01*
X390180Y251788D01*
X390236Y251676D01*
X390258Y251621D01*
X390283Y251581D01*
X390319Y251509D01*
X390760Y250745D01*
X391707Y243551D01*
X389829Y236541D01*
X387959Y234104D01*
X387901Y234013D01*
X387835Y233927D01*
X387781Y233823D01*
X387718Y233724D01*
X387677Y233624D01*
X387627Y233528D01*
X387592Y233416D01*
X387547Y233307D01*
X387525Y233201D01*
X387492Y233098D01*
X387478Y232982D01*
X387453Y232867D01*
X387450Y232759D01*
X387436Y232651D01*
X387442Y232534D01*
X387438Y232417D01*
X387454Y232310D01*
X387460Y232202D01*
X387486Y232087D01*
X387503Y231972D01*
X387537Y231869D01*
X387562Y231763D01*
X387609Y231656D01*
X387646Y231544D01*
X387698Y231449D01*
X387741Y231350D01*
X387805Y231252D01*
X387861Y231149D01*
X387929Y231065D01*
X387989Y230974D01*
X388070Y230890D01*
X388144Y230798D01*
X388225Y230727D01*
X388300Y230649D01*
X388395Y230580D01*
X388483Y230503D01*
X388576Y230447D01*
X388664Y230383D01*
X388816Y230304D01*
X388870Y230272D01*
X388898Y230261D01*
X388941Y230239D01*
X389717Y229893D01*
X390783Y229201D01*
X391223Y228805D01*
X379782Y222199D01*
X379781Y222199D01*
X368340Y215593D01*
X368217Y216172D01*
X368151Y217442D01*
X368239Y218287D01*
X368241Y218395D01*
X368253Y218503D01*
X368248Y218569D01*
X368250Y218600D01*
X368245Y218644D01*
X368246Y218737D01*
X368229Y218844D01*
X368222Y218952D01*
X368198Y219044D01*
X368198Y219048D01*
X368195Y219058D01*
X368193Y219066D01*
X368174Y219181D01*
X368138Y219284D01*
X368111Y219389D01*
X368063Y219495D01*
X368024Y219606D01*
X367971Y219700D01*
X367926Y219799D01*
X367860Y219896D01*
X367802Y219997D01*
X367732Y220081D01*
X367671Y220170D01*
X367589Y220253D01*
X367514Y220343D01*
X367431Y220413D01*
X367355Y220490D01*
X367259Y220558D01*
X367169Y220633D01*
X367075Y220687D01*
X366986Y220750D01*
X366880Y220799D01*
X366779Y220857D01*
X366677Y220894D01*
X366578Y220940D01*
X366465Y220970D01*
X366355Y221009D01*
X366248Y221027D01*
X366143Y221055D01*
X366026Y221064D01*
X365911Y221084D01*
X365802Y221083D01*
X365694Y221091D01*
X365523Y221079D01*
X365460Y221079D01*
X365431Y221073D01*
X365383Y221070D01*
X362337Y220669D01*
X355328Y222547D01*
X349571Y226965D01*
X345942Y233249D01*
X344995Y240444D01*
X346873Y247453D01*
X351291Y253210D01*
X357733Y256929D01*
X357893Y257042D01*
X358056Y257151D01*
X358077Y257171D01*
X358101Y257188D01*
X358239Y257327D01*
X358380Y257463D01*
X358397Y257487D01*
X358418Y257508D01*
X358529Y257669D01*
X358644Y257828D01*
X358660Y257859D01*
X358673Y257878D01*
X358693Y257922D01*
X358698Y257930D01*
X358710Y257955D01*
X358787Y258106D01*
X369809Y283160D01*
X369836Y283240D01*
X369872Y283317D01*
X369908Y283453D01*
X369953Y283586D01*
X369965Y283670D01*
X369987Y283753D01*
X369999Y283893D01*
X370019Y284032D01*
X370017Y284117D01*
X370024Y284201D01*
X370010Y284341D01*
X370006Y284482D01*
X369989Y284565D01*
X369980Y284649D01*
X369942Y284785D01*
X369913Y284922D01*
X369882Y285001D01*
X369859Y285083D01*
X369797Y285209D01*
X369745Y285340D01*
X369699Y285412D01*
X369662Y285488D01*
X369579Y285602D01*
X369505Y285721D01*
X369447Y285783D01*
X369397Y285852D01*
X369231Y286021D01*
X369201Y286053D01*
X369191Y286061D01*
X369178Y286075D01*
X267415Y377126D01*
X267281Y377225D01*
X267153Y377331D01*
X267101Y377360D01*
X267054Y377395D01*
X266905Y377469D01*
X266760Y377551D01*
X266704Y377570D01*
X266651Y377596D01*
X266491Y377643D01*
X266334Y377697D01*
X266276Y377707D01*
X266219Y377723D01*
X266054Y377741D01*
X265889Y377767D01*
X265830Y377766D01*
X265772Y377772D01*
X265606Y377761D01*
X265439Y377757D01*
X265381Y377745D01*
X265322Y377741D01*
X265161Y377700D01*
X264998Y377667D01*
X264943Y377645D01*
X264886Y377631D01*
X264734Y377562D01*
X264579Y377501D01*
X264529Y377470D01*
X264475Y377446D01*
X264338Y377351D01*
X264197Y377264D01*
X264153Y377224D01*
X264104Y377191D01*
X263986Y377074D01*
X263862Y376962D01*
X263826Y376916D01*
X263784Y376874D01*
X263688Y376738D01*
X263586Y376607D01*
X263558Y376554D01*
X263524Y376506D01*
X263454Y376356D01*
X263377Y376208D01*
X263359Y376152D01*
X263334Y376098D01*
X263292Y375937D01*
X263242Y375779D01*
X263234Y375720D01*
X263219Y375663D01*
X263205Y375497D01*
X263184Y375332D01*
X263187Y375273D01*
X263182Y375214D01*
X263198Y375049D01*
X263207Y374882D01*
X263221Y374809D01*
X263226Y374766D01*
X263242Y374707D01*
X263269Y374576D01*
X263325Y374365D01*
X262378Y367171D01*
X253210Y351291D01*
X247453Y346873D01*
X240443Y344995D01*
X233249Y345942D01*
X226964Y349571D01*
X222547Y355328D01*
X220669Y362337D01*
X221070Y365382D01*
X221074Y365491D01*
X221089Y365598D01*
X221084Y365715D01*
X221089Y365832D01*
X221074Y365940D01*
X221069Y366048D01*
X221044Y366162D01*
X221028Y366278D01*
X220995Y366381D01*
X220971Y366487D01*
X220925Y366595D01*
X220889Y366707D01*
X220838Y366802D01*
X220796Y366902D01*
X220732Y367001D01*
X220677Y367104D01*
X220610Y367189D01*
X220551Y367280D01*
X220471Y367365D01*
X220398Y367458D01*
X220317Y367529D01*
X220243Y367608D01*
X220149Y367678D01*
X220061Y367756D01*
X219969Y367813D01*
X219882Y367877D01*
X219777Y367929D01*
X219677Y367991D01*
X219576Y368030D01*
X219479Y368078D01*
X219366Y368111D01*
X219257Y368153D01*
X219151Y368174D01*
X219047Y368205D01*
X218930Y368217D01*
X218815Y368240D01*
X218707Y368241D01*
X218599Y368253D01*
X218427Y368245D01*
X218365Y368246D01*
X218335Y368241D01*
X218287Y368239D01*
X217442Y368151D01*
X216172Y368217D01*
X215593Y368340D01*
X222199Y379781D01*
X222199Y379782D01*
X228805Y391223D01*
X229201Y390783D01*
X229893Y389717D01*
X230239Y388941D01*
X230291Y388846D01*
X230335Y388747D01*
X230401Y388650D01*
X230458Y388547D01*
X230526Y388463D01*
X230587Y388374D01*
X230668Y388290D01*
X230743Y388199D01*
X230825Y388128D01*
X230900Y388051D01*
X230996Y387982D01*
X231085Y387906D01*
X231178Y387851D01*
X231266Y387788D01*
X231372Y387738D01*
X231473Y387678D01*
X231575Y387641D01*
X231673Y387594D01*
X231785Y387563D01*
X231896Y387522D01*
X232002Y387504D01*
X232107Y387475D01*
X232224Y387464D01*
X232339Y387444D01*
X232447Y387444D01*
X232555Y387434D01*
X232672Y387445D01*
X232789Y387445D01*
X232896Y387464D01*
X233004Y387474D01*
X233117Y387504D01*
X233232Y387525D01*
X233334Y387563D01*
X233438Y387592D01*
X233544Y387642D01*
X233654Y387683D01*
X233747Y387738D01*
X233845Y387784D01*
X233988Y387881D01*
X234041Y387912D01*
X234064Y387932D01*
X234104Y387959D01*
X236541Y389829D01*
X243551Y391707D01*
X244270Y391612D01*
X244411Y391607D01*
X244552Y391591D01*
X244636Y391597D01*
X244720Y391594D01*
X244860Y391613D01*
X245001Y391622D01*
X245083Y391643D01*
X245166Y391654D01*
X245301Y391698D01*
X245438Y391732D01*
X245514Y391767D01*
X245595Y391793D01*
X245719Y391860D01*
X245848Y391918D01*
X245917Y391965D01*
X245992Y392005D01*
X246103Y392093D01*
X246219Y392173D01*
X246279Y392232D01*
X246345Y392284D01*
X246439Y392390D01*
X246539Y392489D01*
X246588Y392558D01*
X246644Y392621D01*
X246717Y392742D01*
X246799Y392857D01*
X246834Y392933D01*
X246878Y393005D01*
X246929Y393137D01*
X246989Y393265D01*
X247011Y393347D01*
X247041Y393425D01*
X247068Y393564D01*
X247104Y393700D01*
X247111Y393784D01*
X247127Y393867D01*
X247129Y394008D01*
X247141Y394149D01*
X247133Y394233D01*
X247134Y394317D01*
X247111Y394457D01*
X247098Y394597D01*
X247075Y394679D01*
X247061Y394762D01*
X247014Y394895D01*
X246976Y395031D01*
X246939Y395107D01*
X246911Y395186D01*
X246841Y395309D01*
X246779Y395436D01*
X246730Y395504D01*
X246688Y395577D01*
X246598Y395686D01*
X246514Y395800D01*
X246436Y395879D01*
X246400Y395923D01*
X246360Y395956D01*
X246295Y396022D01*
X213451Y425409D01*
X213396Y425450D01*
X213346Y425498D01*
X213216Y425584D01*
X213090Y425678D01*
X213029Y425709D01*
X212971Y425747D01*
X212828Y425809D01*
X212688Y425879D01*
X212621Y425899D01*
X212558Y425926D01*
X212256Y426006D01*
X211521Y426153D01*
X211476Y426158D01*
X211433Y426169D01*
X211253Y426182D01*
X211073Y426202D01*
X211029Y426199D01*
X210984Y426202D01*
X210805Y426184D01*
X210624Y426171D01*
X210581Y426160D01*
X210536Y426155D01*
X210363Y426105D01*
X210188Y426061D01*
X210147Y426043D01*
X210103Y426030D01*
X209941Y425950D01*
X209777Y425876D01*
X209740Y425850D01*
X209700Y425831D01*
X209555Y425723D01*
X209406Y425621D01*
X209374Y425590D01*
X209338Y425563D01*
X209214Y425431D01*
X209086Y425305D01*
X209060Y425268D01*
X209029Y425235D01*
X208930Y425084D01*
X208826Y424937D01*
X208807Y424896D01*
X208783Y424858D01*
X208712Y424692D01*
X208636Y424529D01*
X208624Y424485D01*
X208607Y424444D01*
X208567Y424268D01*
X208520Y424093D01*
X208517Y424048D01*
X208507Y424005D01*
X208499Y423825D01*
X208484Y423645D01*
X208488Y423600D01*
X208486Y423555D01*
X208519Y423244D01*
X209823Y415454D01*
X209838Y415394D01*
X209846Y415334D01*
X209895Y415177D01*
X209936Y415018D01*
X209962Y414962D01*
X209980Y414904D01*
X210056Y414758D01*
X210125Y414609D01*
X210160Y414559D01*
X210188Y414505D01*
X210288Y414375D01*
X210383Y414240D01*
X210426Y414197D01*
X210463Y414148D01*
X210585Y414038D01*
X210702Y413922D01*
X210752Y413887D01*
X210797Y413846D01*
X211058Y413674D01*
X213036Y412532D01*
X217453Y406775D01*
X219331Y399765D01*
X218930Y396720D01*
X218926Y396612D01*
X218911Y396504D01*
X218916Y396387D01*
X218911Y396270D01*
X218926Y396163D01*
X218931Y396054D01*
X218956Y395940D01*
X218972Y395824D01*
X219005Y395721D01*
X219029Y395615D01*
X219075Y395507D01*
X219111Y395395D01*
X219162Y395300D01*
X219204Y395200D01*
X219268Y395102D01*
X219323Y394998D01*
X219390Y394913D01*
X219449Y394822D01*
X219529Y394737D01*
X219602Y394645D01*
X219683Y394573D01*
X219757Y394494D01*
X219851Y394424D01*
X219939Y394346D01*
X220031Y394290D01*
X220118Y394225D01*
X220223Y394173D01*
X220323Y394112D01*
X220424Y394073D01*
X220521Y394024D01*
X220634Y393991D01*
X220743Y393949D01*
X220849Y393928D01*
X220953Y393898D01*
X221070Y393885D01*
X221185Y393863D01*
X221293Y393861D01*
X221401Y393850D01*
X221573Y393857D01*
X221635Y393856D01*
X221665Y393861D01*
X221713Y393863D01*
X222558Y393952D01*
X223828Y393885D01*
X224407Y393762D01*
X217801Y382321D01*
X211195Y370879D01*
X210799Y371319D01*
X210107Y372386D01*
X209761Y373162D01*
X209709Y373256D01*
X209665Y373355D01*
X209599Y373453D01*
X209542Y373555D01*
X209474Y373639D01*
X209413Y373729D01*
X209331Y373813D01*
X209257Y373904D01*
X209175Y373974D01*
X209100Y374052D01*
X209004Y374120D01*
X208915Y374196D01*
X208822Y374251D01*
X208734Y374315D01*
X208628Y374365D01*
X208527Y374424D01*
X208425Y374462D01*
X208327Y374508D01*
X208214Y374539D01*
X208104Y374580D01*
X207998Y374599D01*
X207893Y374628D01*
X207776Y374638D01*
X207661Y374658D01*
X207553Y374658D01*
X207445Y374668D01*
X207328Y374658D01*
X207211Y374658D01*
X207104Y374638D01*
X206996Y374629D01*
X206883Y374598D01*
X206768Y374577D01*
X206666Y374539D01*
X206562Y374511D01*
X206456Y374461D01*
X206346Y374420D01*
X206253Y374364D01*
X206155Y374318D01*
X206012Y374222D01*
X205959Y374190D01*
X205936Y374170D01*
X205896Y374143D01*
X203459Y372273D01*
X196449Y370395D01*
X189255Y371342D01*
X182970Y374971D01*
X178553Y380728D01*
X176675Y387737D01*
X177622Y394932D01*
X180833Y400494D01*
X180851Y400533D01*
X180875Y400569D01*
X180946Y400737D01*
X181023Y400902D01*
X181034Y400944D01*
X181051Y400983D01*
X181091Y401161D01*
X181138Y401338D01*
X181141Y401381D01*
X181150Y401422D01*
X181159Y401604D01*
X181173Y401787D01*
X181169Y401829D01*
X181171Y401872D01*
X181139Y402183D01*
X176224Y431543D01*
X176218Y431567D01*
X176215Y431591D01*
X176161Y431785D01*
X176110Y431979D01*
X176100Y432001D01*
X176094Y432024D01*
X176006Y432206D01*
X175922Y432388D01*
X175908Y432408D01*
X175897Y432430D01*
X175779Y432593D01*
X175664Y432757D01*
X175647Y432774D01*
X175632Y432794D01*
X175487Y432933D01*
X175345Y433075D01*
X175325Y433089D01*
X175307Y433105D01*
X175140Y433217D01*
X174975Y433331D01*
X174953Y433341D01*
X174933Y433355D01*
X174748Y433435D01*
X174565Y433518D01*
X174542Y433524D01*
X174519Y433534D01*
X174217Y433614D01*
X43535Y459750D01*
X43428Y459762D01*
X43323Y459784D01*
X43205Y459786D01*
X43088Y459799D01*
X42980Y459792D01*
X42873Y459794D01*
X42756Y459776D01*
X42638Y459768D01*
X42534Y459742D01*
X42428Y459725D01*
X42316Y459687D01*
X42202Y459658D01*
X42104Y459614D01*
X42002Y459579D01*
X41899Y459522D01*
X41791Y459473D01*
X41703Y459412D01*
X41609Y459360D01*
X41518Y459285D01*
X41420Y459218D01*
X41344Y459143D01*
X41261Y459075D01*
X41184Y458985D01*
X41100Y458902D01*
X41038Y458814D01*
X40968Y458732D01*
X40908Y458630D01*
X40840Y458534D01*
X40795Y458437D01*
X40741Y458344D01*
X40700Y458232D01*
X40650Y458126D01*
X40623Y458022D01*
X40585Y457921D01*
X40565Y457804D01*
X40535Y457691D01*
X40526Y457583D01*
X40507Y457477D01*
X40508Y457359D01*
X40498Y457242D01*
X40508Y457135D01*
X40509Y457027D01*
X40530Y456911D01*
X40541Y456794D01*
X40570Y456690D01*
X40590Y456584D01*
X40646Y456420D01*
X40663Y456360D01*
X40676Y456333D01*
X40691Y456289D01*
X43641Y449168D01*
X43641Y430832D01*
X40864Y424127D01*
X35733Y418996D01*
X29028Y416219D01*
X21772Y416219D01*
X15067Y418996D01*
X9936Y424127D01*
X8761Y426965D01*
X8711Y427061D01*
X8669Y427162D01*
X8606Y427261D01*
X8552Y427364D01*
X8486Y427450D01*
X8428Y427541D01*
X8348Y427628D01*
X8277Y427720D01*
X8196Y427793D01*
X8123Y427873D01*
X8029Y427943D01*
X7942Y428022D01*
X7850Y428079D01*
X7764Y428145D01*
X7660Y428198D01*
X7560Y428260D01*
X7459Y428300D01*
X7363Y428349D01*
X7251Y428383D01*
X7142Y428427D01*
X7036Y428448D01*
X6932Y428480D01*
X6815Y428493D01*
X6701Y428517D01*
X6592Y428519D01*
X6485Y428532D01*
X6368Y428525D01*
X6250Y428528D01*
X6143Y428511D01*
X6035Y428504D01*
X5921Y428477D01*
X5805Y428459D01*
X5703Y428423D01*
X5598Y428398D01*
X5491Y428350D01*
X5380Y428312D01*
X5285Y428259D01*
X5186Y428216D01*
X5041Y428123D01*
X4986Y428093D01*
X4963Y428074D01*
X4922Y428048D01*
X4235Y427549D01*
X3102Y426971D01*
X2539Y426789D01*
X2539Y440000D01*
X2539Y453211D01*
X3102Y453029D01*
X4235Y452451D01*
X4922Y451952D01*
X5015Y451896D01*
X5103Y451832D01*
X5208Y451781D01*
X5309Y451721D01*
X5410Y451682D01*
X5507Y451635D01*
X5620Y451603D01*
X5730Y451561D01*
X5836Y451541D01*
X5940Y451512D01*
X6057Y451500D01*
X6172Y451479D01*
X6281Y451478D01*
X6388Y451467D01*
X6505Y451476D01*
X6623Y451476D01*
X6729Y451494D01*
X6837Y451503D01*
X6951Y451532D01*
X7066Y451552D01*
X7168Y451589D01*
X7273Y451617D01*
X7379Y451666D01*
X7490Y451706D01*
X7583Y451760D01*
X7682Y451806D01*
X7778Y451873D01*
X7879Y451932D01*
X7962Y452002D01*
X8050Y452064D01*
X8133Y452147D01*
X8222Y452223D01*
X8291Y452307D01*
X8368Y452383D01*
X8434Y452480D01*
X8509Y452570D01*
X8562Y452665D01*
X8624Y452754D01*
X8699Y452909D01*
X8730Y452963D01*
X8740Y452991D01*
X8761Y453035D01*
X9936Y455873D01*
X15413Y461349D01*
X15480Y461429D01*
X15555Y461503D01*
X15624Y461602D01*
X15702Y461694D01*
X15754Y461785D01*
X15814Y461871D01*
X15865Y461980D01*
X15925Y462085D01*
X15960Y462184D01*
X16004Y462279D01*
X16035Y462396D01*
X16076Y462510D01*
X16093Y462613D01*
X16120Y462714D01*
X16130Y462835D01*
X16149Y462954D01*
X16148Y463059D01*
X16156Y463163D01*
X16145Y463283D01*
X16143Y463404D01*
X16123Y463507D01*
X16113Y463611D01*
X16081Y463728D01*
X16058Y463846D01*
X16020Y463944D01*
X15991Y464045D01*
X15939Y464154D01*
X15895Y464266D01*
X15841Y464356D01*
X15795Y464450D01*
X15724Y464548D01*
X15661Y464651D01*
X15592Y464729D01*
X15530Y464814D01*
X15443Y464898D01*
X15363Y464988D01*
X15281Y465053D01*
X15205Y465126D01*
X15105Y465193D01*
X15010Y465268D01*
X14918Y465317D01*
X14830Y465375D01*
X14720Y465423D01*
X14613Y465480D01*
X14513Y465513D01*
X14417Y465554D01*
X14243Y465600D01*
X14185Y465619D01*
X14157Y465623D01*
X14115Y465634D01*
X-22053Y472868D01*
X-22107Y472874D01*
X-22160Y472887D01*
X-22331Y472898D01*
X-22500Y472917D01*
X-22555Y472913D01*
X-22609Y472917D01*
X-22779Y472898D01*
X-22950Y472886D01*
X-23003Y472872D01*
X-23057Y472866D01*
X-23221Y472818D01*
X-23386Y472776D01*
X-23436Y472753D01*
X-23488Y472738D01*
X-23641Y472661D01*
X-23797Y472591D01*
X-23842Y472560D01*
X-23890Y472535D01*
X-24027Y472433D01*
X-24168Y472336D01*
X-24207Y472297D01*
X-24250Y472265D01*
X-24367Y472140D01*
X-24488Y472019D01*
X-24520Y471975D01*
X-24557Y471935D01*
X-24649Y471791D01*
X-24748Y471651D01*
X-24771Y471602D01*
X-24800Y471556D01*
X-24866Y471398D01*
X-24938Y471243D01*
X-24952Y471191D01*
X-24973Y471140D01*
X-25010Y470973D01*
X-25053Y470808D01*
X-25058Y470754D01*
X-25069Y470700D01*
X-25076Y470530D01*
X-25090Y470359D01*
X-25085Y470305D01*
X-25087Y470250D01*
X-25063Y470081D01*
X-25047Y469911D01*
X-25032Y469859D01*
X-25024Y469804D01*
X-24971Y469642D01*
X-24925Y469478D01*
X-24901Y469428D01*
X-24884Y469377D01*
X-24743Y469098D01*
X-22027Y464446D01*
X-21902Y464270D01*
X-21777Y464091D01*
X-21771Y464086D01*
X-21766Y464079D01*
X-21611Y463927D01*
X-21457Y463774D01*
X-21451Y463769D01*
X-21445Y463764D01*
X-21266Y463642D01*
X-21087Y463518D01*
X-21078Y463514D01*
X-21073Y463510D01*
X-21048Y463499D01*
X-20806Y463381D01*
X-15067Y461004D01*
X-9936Y455873D01*
X-8761Y453035D01*
X-8711Y452939D01*
X-8669Y452838D01*
X-8606Y452739D01*
X-8552Y452636D01*
X-8486Y452550D01*
X-8428Y452459D01*
X-8348Y452372D01*
X-8277Y452280D01*
X-8196Y452207D01*
X-8123Y452127D01*
X-8029Y452057D01*
X-7942Y451978D01*
X-7850Y451921D01*
X-7764Y451855D01*
X-7660Y451802D01*
X-7560Y451740D01*
X-7459Y451700D01*
X-7363Y451651D01*
X-7251Y451617D01*
X-7142Y451573D01*
X-7036Y451552D01*
X-6932Y451520D01*
X-6815Y451507D01*
X-6701Y451483D01*
X-6592Y451481D01*
X-6485Y451468D01*
X-6368Y451475D01*
X-6250Y451472D01*
X-6143Y451489D01*
X-6035Y451496D01*
X-5921Y451523D01*
X-5805Y451541D01*
X-5703Y451577D01*
X-5598Y451602D01*
X-5491Y451650D01*
X-5380Y451688D01*
X-5285Y451741D01*
X-5186Y451784D01*
X-5041Y451877D01*
X-4986Y451907D01*
X-4963Y451926D01*
X-4922Y451952D01*
X-4235Y452451D01*
X-3102Y453029D01*
X-2539Y453211D01*
X-2539Y440000D01*
X-2539Y426789D01*
X-3102Y426971D01*
X-4235Y427549D01*
X-4922Y428048D01*
X-5015Y428104D01*
X-5103Y428168D01*
X-5208Y428219D01*
X-5309Y428279D01*
X-5410Y428318D01*
X-5507Y428365D01*
X-5620Y428397D01*
X-5730Y428439D01*
X-5836Y428459D01*
X-5940Y428488D01*
X-6057Y428500D01*
X-6172Y428521D01*
X-6281Y428522D01*
X-6388Y428533D01*
X-6505Y428524D01*
X-6623Y428524D01*
X-6729Y428506D01*
X-6837Y428497D01*
X-6951Y428468D01*
X-7066Y428448D01*
X-7168Y428411D01*
X-7273Y428383D01*
X-7379Y428334D01*
X-7490Y428294D01*
X-7583Y428240D01*
X-7682Y428194D01*
X-7778Y428127D01*
X-7879Y428068D01*
X-7962Y427998D01*
X-8050Y427936D01*
X-8133Y427853D01*
X-8222Y427777D01*
X-8291Y427693D01*
X-8368Y427617D01*
X-8434Y427520D01*
X-8509Y427430D01*
X-8562Y427335D01*
X-8624Y427246D01*
X-8699Y427091D01*
X-8730Y427037D01*
X-8740Y427009D01*
X-8761Y426965D01*
X-9936Y424127D01*
X-15067Y418996D01*
X-21772Y416219D01*
X-29028Y416219D01*
X-35733Y418996D01*
X-40864Y424127D01*
X-43641Y430832D01*
X-43641Y440326D01*
X-43646Y440389D01*
X-43644Y440453D01*
X-43666Y440613D01*
X-43681Y440774D01*
X-43697Y440836D01*
X-43706Y440899D01*
X-43757Y441053D01*
X-43799Y441208D01*
X-43827Y441266D01*
X-43847Y441327D01*
X-43987Y441606D01*
X-57379Y464537D01*
X-57472Y464668D01*
X-57558Y464804D01*
X-57602Y464851D01*
X-57639Y464904D01*
X-57754Y465016D01*
X-57863Y465135D01*
X-57915Y465174D01*
X-57961Y465219D01*
X-58093Y465310D01*
X-58222Y465407D01*
X-58279Y465437D01*
X-58333Y465473D01*
X-58479Y465539D01*
X-58623Y465612D01*
X-58685Y465630D01*
X-58744Y465657D01*
X-58900Y465696D01*
X-59054Y465742D01*
X-59118Y465750D01*
X-59181Y465765D01*
X-59341Y465776D01*
X-59501Y465795D01*
X-59566Y465791D01*
X-59630Y465795D01*
X-59790Y465777D01*
X-59950Y465767D01*
X-60031Y465750D01*
X-60077Y465745D01*
X-60135Y465727D01*
X-60256Y465701D01*
X-265971Y408101D01*
X-265993Y408093D01*
X-266015Y408088D01*
X-266202Y408014D01*
X-266392Y407942D01*
X-266412Y407930D01*
X-266433Y407921D01*
X-266604Y407815D01*
X-266778Y407711D01*
X-266796Y407695D01*
X-266815Y407683D01*
X-266965Y407548D01*
X-267118Y407415D01*
X-267132Y407397D01*
X-267149Y407381D01*
X-267273Y407222D01*
X-267399Y407064D01*
X-267411Y407043D01*
X-267425Y407025D01*
X-267518Y406846D01*
X-267615Y406668D01*
X-267622Y406646D01*
X-267633Y406626D01*
X-267693Y406433D01*
X-267757Y406241D01*
X-267760Y406218D01*
X-267767Y406196D01*
X-267792Y405997D01*
X-267821Y405795D01*
X-267821Y405772D01*
X-267824Y405749D01*
X-267813Y405549D01*
X-267806Y405345D01*
X-267801Y405322D01*
X-267800Y405299D01*
X-267754Y405104D01*
X-267712Y404905D01*
X-267703Y404884D01*
X-267698Y404861D01*
X-267617Y404675D01*
X-267541Y404489D01*
X-267528Y404469D01*
X-267519Y404448D01*
X-267408Y404280D01*
X-267299Y404109D01*
X-267283Y404091D01*
X-267271Y404072D01*
X-267132Y403927D01*
X-266994Y403777D01*
X-266976Y403763D01*
X-266960Y403746D01*
X-266712Y403555D01*
X-249135Y391620D01*
X-249056Y391576D01*
X-248981Y391524D01*
X-248921Y391495D01*
X-248905Y391485D01*
X-248858Y391466D01*
X-248742Y391401D01*
X-248656Y391372D01*
X-248573Y391333D01*
X-248443Y391299D01*
X-248316Y391255D01*
X-248226Y391241D01*
X-248138Y391218D01*
X-248004Y391207D01*
X-247871Y391187D01*
X-247780Y391189D01*
X-247689Y391182D01*
X-247472Y391197D01*
X-247421Y391198D01*
X-247404Y391202D01*
X-247377Y391203D01*
X-243551Y391707D01*
X-236541Y389829D01*
X-234104Y387959D01*
X-234013Y387901D01*
X-233927Y387835D01*
X-233823Y387781D01*
X-233724Y387718D01*
X-233624Y387677D01*
X-233528Y387627D01*
X-233416Y387592D01*
X-233307Y387547D01*
X-233201Y387525D01*
X-233098Y387492D01*
X-232982Y387478D01*
X-232867Y387453D01*
X-232759Y387450D01*
X-232651Y387436D01*
X-232534Y387442D01*
X-232417Y387438D01*
X-232310Y387454D01*
X-232202Y387460D01*
X-232087Y387486D01*
X-231972Y387503D01*
X-231869Y387537D01*
X-231763Y387562D01*
X-231656Y387609D01*
X-231544Y387646D01*
X-231449Y387698D01*
X-231350Y387741D01*
X-231252Y387805D01*
X-231149Y387861D01*
X-231065Y387929D01*
X-230974Y387989D01*
X-230890Y388070D01*
X-230798Y388144D01*
X-230727Y388225D01*
X-230649Y388300D01*
X-230580Y388395D01*
X-230503Y388483D01*
X-230447Y388576D01*
X-230383Y388664D01*
X-230304Y388816D01*
X-230272Y388870D01*
X-230261Y388898D01*
X-230239Y388941D01*
X-229893Y389717D01*
X-229201Y390783D01*
X-228805Y391223D01*
X-222199Y379782D01*
X-222199Y379781D01*
X-215593Y368340D01*
X-216172Y368217D01*
X-217442Y368151D01*
X-218287Y368239D01*
X-218395Y368241D01*
X-218503Y368253D01*
X-218620Y368245D01*
X-218737Y368246D01*
X-218844Y368229D01*
X-218952Y368222D01*
X-219066Y368193D01*
X-219181Y368174D01*
X-219284Y368138D01*
X-219389Y368111D01*
X-219495Y368063D01*
X-219606Y368024D01*
X-219700Y367971D01*
X-219799Y367926D01*
X-219896Y367860D01*
X-219997Y367802D01*
X-220081Y367732D01*
X-220170Y367671D01*
X-220253Y367589D01*
X-220343Y367514D01*
X-220413Y367431D01*
X-220490Y367355D01*
X-220558Y367259D01*
X-220633Y367169D01*
X-220687Y367075D01*
X-220750Y366986D01*
X-220799Y366880D01*
X-220857Y366779D01*
X-220894Y366677D01*
X-220940Y366578D01*
X-220970Y366465D01*
X-221009Y366355D01*
X-221027Y366248D01*
X-221055Y366143D01*
X-221064Y366026D01*
X-221084Y365911D01*
X-221083Y365802D01*
X-221091Y365694D01*
X-221079Y365523D01*
X-221079Y365460D01*
X-221073Y365431D01*
X-221070Y365383D01*
X-220669Y362337D01*
X-222547Y355328D01*
X-226965Y349571D01*
X-233249Y345942D01*
X-240444Y344995D01*
X-247453Y346873D01*
X-253210Y351291D01*
X-258856Y361070D01*
X-258965Y361226D01*
X-259070Y361384D01*
X-259094Y361409D01*
X-259115Y361438D01*
X-259250Y361572D01*
X-259381Y361710D01*
X-259415Y361736D01*
X-259434Y361755D01*
X-259484Y361790D01*
X-259628Y361901D01*
X-290079Y382577D01*
X-290158Y382621D01*
X-290232Y382674D01*
X-290354Y382730D01*
X-290472Y382796D01*
X-290558Y382826D01*
X-290640Y382864D01*
X-290771Y382898D01*
X-290898Y382942D01*
X-290988Y382956D01*
X-291075Y382979D01*
X-291210Y382990D01*
X-291343Y383011D01*
X-291434Y383008D01*
X-291524Y383016D01*
X-291659Y383003D01*
X-291793Y382999D01*
X-291882Y382981D01*
X-291972Y382972D01*
X-292102Y382936D01*
X-292234Y382909D01*
X-292319Y382875D01*
X-292406Y382851D01*
X-292527Y382792D01*
X-292652Y382742D01*
X-292729Y382694D01*
X-292811Y382654D01*
X-292920Y382575D01*
X-293035Y382503D01*
X-293102Y382443D01*
X-293175Y382389D01*
X-293330Y382236D01*
X-293369Y382201D01*
X-293379Y382188D01*
X-293397Y382170D01*
X-433252Y225862D01*
X-433263Y225847D01*
X-433277Y225833D01*
X-433397Y225667D01*
X-433521Y225501D01*
X-433530Y225484D01*
X-433541Y225468D01*
X-433630Y225283D01*
X-433722Y225099D01*
X-433728Y225080D01*
X-433736Y225063D01*
X-433791Y224865D01*
X-433849Y224667D01*
X-433851Y224647D01*
X-433856Y224629D01*
X-433876Y224424D01*
X-433898Y224219D01*
X-433897Y224200D01*
X-433898Y224181D01*
X-433881Y223975D01*
X-433867Y223770D01*
X-433862Y223751D01*
X-433861Y223732D01*
X-433807Y223532D01*
X-433757Y223333D01*
X-433749Y223316D01*
X-433744Y223297D01*
X-433657Y223111D01*
X-433572Y222923D01*
X-433561Y222907D01*
X-433553Y222889D01*
X-433432Y222720D01*
X-433317Y222552D01*
X-433303Y222538D01*
X-433292Y222522D01*
X-433145Y222378D01*
X-433000Y222231D01*
X-432985Y222220D01*
X-432971Y222207D01*
X-432801Y222091D01*
X-432632Y221972D01*
X-432615Y221964D01*
X-432599Y221953D01*
X-432411Y221869D01*
X-432224Y221782D01*
X-432205Y221777D01*
X-432188Y221769D01*
X-431887Y221685D01*
X-409045Y216833D01*
X-409007Y216828D01*
X-408969Y216818D01*
X-408783Y216801D01*
X-408598Y216779D01*
X-408559Y216781D01*
X-408521Y216777D01*
X-408335Y216794D01*
X-408148Y216804D01*
X-408111Y216813D01*
X-408072Y216817D01*
X-407892Y216866D01*
X-407710Y216909D01*
X-407675Y216924D01*
X-407637Y216935D01*
X-407469Y217015D01*
X-407298Y217089D01*
X-407266Y217111D01*
X-407231Y217127D01*
X-406971Y217302D01*
X-406775Y217453D01*
X-399765Y219331D01*
X-396720Y218930D01*
X-396612Y218926D01*
X-396504Y218911D01*
X-396387Y218916D01*
X-396270Y218911D01*
X-396163Y218926D01*
X-396054Y218931D01*
X-395940Y218956D01*
X-395824Y218972D01*
X-395721Y219005D01*
X-395615Y219029D01*
X-395507Y219075D01*
X-395395Y219111D01*
X-395300Y219162D01*
X-395200Y219204D01*
X-395102Y219268D01*
X-394998Y219323D01*
X-394913Y219390D01*
X-394822Y219449D01*
X-394737Y219529D01*
X-394645Y219602D01*
X-394573Y219683D01*
X-394494Y219757D01*
X-394424Y219851D01*
X-394346Y219939D01*
X-394290Y220031D01*
X-394225Y220118D01*
X-394173Y220223D01*
X-394112Y220323D01*
X-394073Y220424D01*
X-394024Y220521D01*
X-393991Y220634D01*
X-393949Y220743D01*
X-393928Y220849D01*
X-393898Y220953D01*
X-393885Y221070D01*
X-393863Y221185D01*
X-393861Y221293D01*
X-393850Y221401D01*
X-393857Y221573D01*
X-393856Y221635D01*
X-393861Y221665D01*
X-393863Y221713D01*
X-393952Y222558D01*
X-393885Y223828D01*
X-393762Y224407D01*
X-382321Y217801D01*
X-370879Y211195D01*
X-371319Y210799D01*
X-372386Y210107D01*
X-373162Y209761D01*
X-373256Y209708D01*
X-373355Y209665D01*
X-373453Y209599D01*
X-373555Y209542D01*
X-373639Y209474D01*
X-373729Y209413D01*
X-373813Y209332D01*
X-373904Y209257D01*
X-373974Y209175D01*
X-374052Y209100D01*
X-374120Y209004D01*
X-374196Y208915D01*
X-374251Y208822D01*
X-374314Y208734D01*
X-374365Y208628D01*
X-374424Y208527D01*
X-374462Y208425D01*
X-374508Y208327D01*
X-374539Y208214D01*
X-374580Y208104D01*
X-374599Y207998D01*
X-374627Y207893D01*
X-374638Y207776D01*
X-374658Y207661D01*
X-374658Y207553D01*
X-374668Y207445D01*
X-374658Y207328D01*
X-374657Y207211D01*
X-374638Y207104D01*
X-374629Y206996D01*
X-374598Y206883D01*
X-374577Y206768D01*
X-374539Y206666D01*
X-374511Y206562D01*
X-374460Y206456D01*
X-374419Y206346D01*
X-374364Y206253D01*
X-374318Y206155D01*
X-374222Y206012D01*
X-374190Y205959D01*
X-374170Y205935D01*
X-374143Y205896D01*
X-372273Y203459D01*
X-370395Y196449D01*
X-371342Y189255D01*
X-374971Y182970D01*
X-380728Y178553D01*
X-387737Y176675D01*
X-394932Y177622D01*
X-408425Y185412D01*
X-408440Y185419D01*
X-408455Y185429D01*
X-408645Y185514D01*
X-408833Y185602D01*
X-408850Y185606D01*
X-408866Y185613D01*
X-409167Y185697D01*
X-439413Y192122D01*
X-439462Y192128D01*
X-439510Y192141D01*
X-439685Y192155D01*
X-439860Y192176D01*
X-439909Y192173D01*
X-439959Y192178D01*
X-440134Y192161D01*
X-440309Y192151D01*
X-440357Y192139D01*
X-440407Y192134D01*
X-440577Y192087D01*
X-440747Y192046D01*
X-440793Y192026D01*
X-440841Y192013D01*
X-440999Y191936D01*
X-441160Y191866D01*
X-441201Y191838D01*
X-441246Y191816D01*
X-441388Y191713D01*
X-441534Y191615D01*
X-441570Y191581D01*
X-441610Y191551D01*
X-441732Y191424D01*
X-441858Y191303D01*
X-441887Y191262D01*
X-441922Y191226D01*
X-442019Y191080D01*
X-442122Y190938D01*
X-442143Y190893D01*
X-442171Y190851D01*
X-442241Y190691D01*
X-442317Y190532D01*
X-442330Y190484D01*
X-442350Y190438D01*
X-442430Y190136D01*
X-484238Y-18903D01*
X-484260Y-19104D01*
X-484286Y-19305D01*
X-484284Y-19328D01*
X-484287Y-19351D01*
X-484273Y-19552D01*
X-484263Y-19755D01*
X-484257Y-19782D01*
X-484256Y-19800D01*
X-484243Y-19851D01*
X-484200Y-20061D01*
X-482661Y-25778D01*
X-482645Y-25823D01*
X-482634Y-25869D01*
X-482567Y-26034D01*
X-482506Y-26200D01*
X-482482Y-26242D01*
X-482464Y-26286D01*
X-482368Y-26436D01*
X-482279Y-26589D01*
X-482247Y-26625D01*
X-482222Y-26666D01*
X-482101Y-26797D01*
X-481986Y-26931D01*
X-481949Y-26962D01*
X-481917Y-26997D01*
X-481775Y-27105D01*
X-481638Y-27217D01*
X-481596Y-27240D01*
X-481558Y-27269D01*
X-481399Y-27350D01*
X-481245Y-27436D01*
X-481199Y-27452D01*
X-481157Y-27473D01*
X-480986Y-27525D01*
X-480819Y-27582D01*
X-480772Y-27590D01*
X-480726Y-27604D01*
X-480549Y-27624D01*
X-480374Y-27651D01*
X-480326Y-27650D01*
X-480278Y-27656D01*
X-480101Y-27645D01*
X-479924Y-27641D01*
X-479877Y-27631D01*
X-479829Y-27628D01*
X-479656Y-27586D01*
X-479483Y-27551D01*
X-479438Y-27533D01*
X-479391Y-27522D01*
X-479102Y-27403D01*
X-463723Y-19955D01*
X-463646Y-19908D01*
X-463563Y-19870D01*
X-463453Y-19793D01*
X-463337Y-19724D01*
X-463269Y-19664D01*
X-463195Y-19612D01*
X-463099Y-19516D01*
X-462998Y-19428D01*
X-462941Y-19357D01*
X-462877Y-19293D01*
X-462800Y-19182D01*
X-462716Y-19076D01*
X-462673Y-18997D01*
X-462621Y-18922D01*
X-462525Y-18726D01*
X-462501Y-18681D01*
X-462495Y-18665D01*
X-462484Y-18641D01*
X-461004Y-15067D01*
X-455873Y-9936D01*
X-453035Y-8761D01*
X-452939Y-8711D01*
X-452838Y-8669D01*
X-452739Y-8606D01*
X-452636Y-8552D01*
X-452550Y-8486D01*
X-452459Y-8428D01*
X-452372Y-8348D01*
X-452280Y-8277D01*
X-452207Y-8196D01*
X-452127Y-8123D01*
X-452057Y-8029D01*
X-451978Y-7942D01*
X-451921Y-7850D01*
X-451855Y-7764D01*
X-451802Y-7660D01*
X-451740Y-7560D01*
X-451700Y-7459D01*
X-451651Y-7363D01*
X-451617Y-7251D01*
X-451573Y-7142D01*
X-451552Y-7036D01*
X-451520Y-6932D01*
X-451507Y-6815D01*
X-451483Y-6701D01*
X-451481Y-6592D01*
X-451468Y-6485D01*
X-451475Y-6368D01*
X-451472Y-6250D01*
X-451489Y-6143D01*
X-451496Y-6035D01*
X-451523Y-5921D01*
X-451541Y-5805D01*
X-451577Y-5703D01*
X-451602Y-5598D01*
X-451650Y-5491D01*
X-451688Y-5380D01*
X-451741Y-5285D01*
X-451784Y-5186D01*
X-451877Y-5041D01*
X-451907Y-4986D01*
X-451926Y-4963D01*
X-451952Y-4922D01*
X-452451Y-4235D01*
X-453029Y-3102D01*
X-453211Y-2539D01*
X-440000Y-2539D01*
X-426789Y-2539D01*
X-426971Y-3102D01*
X-427549Y-4235D01*
X-428048Y-4922D01*
X-428104Y-5015D01*
X-428168Y-5103D01*
X-428219Y-5208D01*
X-428279Y-5309D01*
X-428318Y-5410D01*
X-428365Y-5507D01*
X-428397Y-5620D01*
X-428439Y-5730D01*
X-428459Y-5836D01*
X-428488Y-5940D01*
X-428500Y-6057D01*
X-428521Y-6172D01*
X-428522Y-6281D01*
X-428533Y-6388D01*
X-428524Y-6505D01*
X-428524Y-6623D01*
X-428506Y-6729D01*
X-428497Y-6837D01*
X-428468Y-6951D01*
X-428448Y-7066D01*
X-428411Y-7168D01*
X-428383Y-7273D01*
X-428334Y-7379D01*
X-428294Y-7490D01*
X-428240Y-7583D01*
X-428194Y-7682D01*
X-428127Y-7778D01*
X-428068Y-7879D01*
X-427998Y-7962D01*
X-427936Y-8050D01*
X-427853Y-8133D01*
X-427777Y-8222D01*
X-427693Y-8291D01*
X-427617Y-8368D01*
X-427520Y-8434D01*
X-427430Y-8509D01*
X-427335Y-8562D01*
X-427246Y-8624D01*
X-427091Y-8699D01*
X-427037Y-8730D01*
X-427009Y-8740D01*
X-426965Y-8761D01*
X-424127Y-9936D01*
X-418996Y-15067D01*
X-416219Y-21772D01*
X-416219Y-29028D01*
X-418996Y-35733D01*
X-424127Y-40864D01*
X-430832Y-43641D01*
X-442116Y-43641D01*
X-442306Y-43658D01*
X-442496Y-43669D01*
X-442530Y-43678D01*
X-442564Y-43681D01*
X-442749Y-43731D01*
X-442934Y-43776D01*
X-442973Y-43792D01*
X-442999Y-43799D01*
X-443054Y-43825D01*
X-443223Y-43895D01*
X-471905Y-57785D01*
X-471924Y-57796D01*
X-471944Y-57804D01*
X-472117Y-57912D01*
X-472292Y-58017D01*
X-472308Y-58031D01*
X-472326Y-58042D01*
X-472477Y-58179D01*
X-472631Y-58313D01*
X-472644Y-58329D01*
X-472660Y-58344D01*
X-472786Y-58505D01*
X-472913Y-58664D01*
X-472923Y-58683D01*
X-472936Y-58700D01*
X-473030Y-58880D01*
X-473128Y-59059D01*
X-473135Y-59080D01*
X-473144Y-59099D01*
X-473206Y-59293D01*
X-473270Y-59487D01*
X-473273Y-59508D01*
X-473279Y-59528D01*
X-473305Y-59730D01*
X-473334Y-59932D01*
X-473333Y-59954D01*
X-473336Y-59975D01*
X-473326Y-60179D01*
X-473319Y-60382D01*
X-473314Y-60403D01*
X-473313Y-60425D01*
X-473251Y-60731D01*
X-421483Y-253011D01*
X-421422Y-253177D01*
X-421368Y-253345D01*
X-421344Y-253388D01*
X-421328Y-253434D01*
X-421238Y-253586D01*
X-421155Y-253742D01*
X-421125Y-253781D01*
X-421100Y-253823D01*
X-420986Y-253957D01*
X-420876Y-254095D01*
X-420840Y-254128D01*
X-420808Y-254165D01*
X-420671Y-254277D01*
X-420539Y-254394D01*
X-420497Y-254420D01*
X-420459Y-254451D01*
X-420306Y-254536D01*
X-420155Y-254628D01*
X-420109Y-254646D01*
X-420066Y-254670D01*
X-419899Y-254727D01*
X-419735Y-254791D01*
X-419687Y-254800D01*
X-419640Y-254816D01*
X-419466Y-254843D01*
X-419293Y-254877D01*
X-419244Y-254878D01*
X-419195Y-254885D01*
X-419019Y-254881D01*
X-418843Y-254884D01*
X-418794Y-254876D01*
X-418745Y-254874D01*
X-418573Y-254839D01*
X-418398Y-254811D01*
X-418352Y-254794D01*
X-418304Y-254784D01*
X-418140Y-254719D01*
X-417974Y-254660D01*
X-417920Y-254632D01*
X-417886Y-254618D01*
X-417832Y-254585D01*
X-417698Y-254513D01*
X-390942Y-238019D01*
X-390840Y-237943D01*
X-390732Y-237874D01*
X-390660Y-237808D01*
X-390581Y-237750D01*
X-390494Y-237656D01*
X-390400Y-237570D01*
X-390341Y-237493D01*
X-390274Y-237421D01*
X-390204Y-237314D01*
X-390127Y-237212D01*
X-390082Y-237125D01*
X-390029Y-237043D01*
X-389980Y-236925D01*
X-389921Y-236811D01*
X-389879Y-236685D01*
X-389855Y-236628D01*
X-389846Y-236585D01*
X-389832Y-236546D01*
X-387959Y-234104D01*
X-387901Y-234013D01*
X-387835Y-233927D01*
X-387781Y-233823D01*
X-387718Y-233724D01*
X-387677Y-233624D01*
X-387627Y-233528D01*
X-387592Y-233416D01*
X-387547Y-233307D01*
X-387525Y-233202D01*
X-387492Y-233098D01*
X-387478Y-232982D01*
X-387453Y-232867D01*
X-387450Y-232759D01*
X-387436Y-232651D01*
X-387442Y-232534D01*
X-387438Y-232417D01*
X-387454Y-232310D01*
X-387460Y-232202D01*
X-387486Y-232087D01*
X-387503Y-231972D01*
X-387537Y-231869D01*
X-387562Y-231763D01*
X-387609Y-231656D01*
X-387646Y-231544D01*
X-387698Y-231449D01*
X-387741Y-231350D01*
X-387805Y-231252D01*
X-387861Y-231149D01*
X-387929Y-231065D01*
X-387989Y-230974D01*
X-388070Y-230890D01*
X-388144Y-230798D01*
X-388225Y-230727D01*
X-388300Y-230649D01*
X-388395Y-230580D01*
X-388483Y-230503D01*
X-388576Y-230447D01*
X-388664Y-230383D01*
X-388816Y-230304D01*
X-388870Y-230272D01*
X-388898Y-230261D01*
X-388941Y-230239D01*
X-389717Y-229893D01*
X-390783Y-229201D01*
X-391223Y-228805D01*
X-379782Y-222199D01*
X-379781Y-222199D01*
X-368340Y-215593D01*
X-368217Y-216172D01*
X-368151Y-217442D01*
X-368239Y-218287D01*
X-368241Y-218395D01*
X-368253Y-218503D01*
X-368245Y-218620D01*
X-368246Y-218737D01*
X-368229Y-218844D01*
X-368221Y-218952D01*
X-368193Y-219066D01*
X-368174Y-219181D01*
X-368138Y-219284D01*
X-368111Y-219389D01*
X-368063Y-219496D01*
X-368024Y-219606D01*
X-367971Y-219700D01*
X-367926Y-219799D01*
X-367860Y-219896D01*
X-367802Y-219997D01*
X-367732Y-220081D01*
X-367671Y-220170D01*
X-367589Y-220253D01*
X-367514Y-220343D01*
X-367431Y-220413D01*
X-367355Y-220490D01*
X-367259Y-220558D01*
X-367169Y-220633D01*
X-367075Y-220687D01*
X-366986Y-220750D01*
X-366880Y-220799D01*
X-366779Y-220857D01*
X-366676Y-220894D01*
X-366578Y-220940D01*
X-366465Y-220970D01*
X-366355Y-221009D01*
X-366248Y-221027D01*
X-366143Y-221055D01*
X-366026Y-221064D01*
X-365911Y-221084D01*
X-365802Y-221083D01*
X-365694Y-221091D01*
X-365523Y-221079D01*
X-365460Y-221079D01*
X-365431Y-221073D01*
X-365382Y-221070D01*
X-362337Y-220669D01*
X-355328Y-222547D01*
X-349571Y-226964D01*
X-345942Y-233249D01*
X-344995Y-240443D01*
X-346873Y-247453D01*
X-351291Y-253210D01*
X-367171Y-262378D01*
X-373243Y-263178D01*
X-373393Y-263211D01*
X-373544Y-263236D01*
X-373612Y-263260D01*
X-373683Y-263276D01*
X-373824Y-263335D01*
X-373969Y-263386D01*
X-374051Y-263430D01*
X-374098Y-263450D01*
X-374146Y-263481D01*
X-374244Y-263534D01*
X-400643Y-279807D01*
X-400653Y-279814D01*
X-400664Y-279820D01*
X-400832Y-279948D01*
X-401004Y-280076D01*
X-401012Y-280085D01*
X-401022Y-280093D01*
X-401165Y-280248D01*
X-401311Y-280405D01*
X-401318Y-280416D01*
X-401327Y-280425D01*
X-401440Y-280604D01*
X-401556Y-280783D01*
X-401561Y-280795D01*
X-401568Y-280805D01*
X-401648Y-281001D01*
X-401730Y-281198D01*
X-401733Y-281211D01*
X-401738Y-281222D01*
X-401782Y-281429D01*
X-401828Y-281638D01*
X-401829Y-281650D01*
X-401831Y-281663D01*
X-401838Y-281875D01*
X-401847Y-282088D01*
X-401845Y-282100D01*
X-401845Y-282113D01*
X-401815Y-282323D01*
X-401786Y-282534D01*
X-401782Y-282546D01*
X-401780Y-282558D01*
X-401713Y-282760D01*
X-401647Y-282962D01*
X-401641Y-282973D01*
X-401637Y-282985D01*
X-401535Y-283172D01*
X-401435Y-283359D01*
X-401427Y-283369D01*
X-401421Y-283380D01*
X-401287Y-283546D01*
X-401156Y-283712D01*
X-401146Y-283721D01*
X-401138Y-283731D01*
X-400908Y-283942D01*
X-229303Y-422860D01*
X-229138Y-422971D01*
X-228974Y-423086D01*
X-228951Y-423097D01*
X-228930Y-423111D01*
X-228747Y-423191D01*
X-228566Y-423275D01*
X-228541Y-423282D01*
X-228518Y-423292D01*
X-228324Y-423339D01*
X-228130Y-423390D01*
X-228105Y-423392D01*
X-228080Y-423398D01*
X-227881Y-423410D01*
X-227682Y-423425D01*
X-227656Y-423423D01*
X-227630Y-423424D01*
X-227432Y-423401D01*
X-227233Y-423381D01*
X-227209Y-423374D01*
X-227183Y-423371D01*
X-226992Y-423313D01*
X-226800Y-423259D01*
X-226777Y-423247D01*
X-226753Y-423240D01*
X-226575Y-423149D01*
X-226395Y-423061D01*
X-226375Y-423046D01*
X-226352Y-423035D01*
X-226194Y-422914D01*
X-226032Y-422796D01*
X-226014Y-422777D01*
X-225994Y-422762D01*
X-225859Y-422615D01*
X-225721Y-422470D01*
X-225707Y-422449D01*
X-225689Y-422430D01*
X-225583Y-422261D01*
X-225472Y-422095D01*
X-225459Y-422066D01*
X-225449Y-422049D01*
X-225428Y-421998D01*
X-225341Y-421811D01*
X-218573Y-404505D01*
X-218558Y-404452D01*
X-218536Y-404403D01*
X-218504Y-404270D01*
X-218458Y-404125D01*
X-218454Y-404098D01*
X-218447Y-404073D01*
X-218440Y-404011D01*
X-218429Y-403965D01*
X-218422Y-403844D01*
X-218401Y-403679D01*
X-218402Y-403652D01*
X-218399Y-403625D01*
X-218404Y-403556D01*
X-218401Y-403516D01*
X-218414Y-403408D01*
X-218423Y-403229D01*
X-218429Y-403197D01*
X-218431Y-403176D01*
X-218445Y-403121D01*
X-218451Y-403091D01*
X-218454Y-403069D01*
X-218460Y-403049D01*
X-218485Y-402923D01*
X-219331Y-399765D01*
X-218930Y-396720D01*
X-218926Y-396612D01*
X-218911Y-396504D01*
X-218916Y-396387D01*
X-218911Y-396270D01*
X-218926Y-396163D01*
X-218931Y-396054D01*
X-218956Y-395940D01*
X-218972Y-395824D01*
X-219005Y-395721D01*
X-219029Y-395615D01*
X-219075Y-395507D01*
X-219111Y-395395D01*
X-219162Y-395300D01*
X-219204Y-395200D01*
X-219268Y-395102D01*
X-219323Y-394998D01*
X-219390Y-394913D01*
X-219449Y-394822D01*
X-219529Y-394737D01*
X-219602Y-394645D01*
X-219683Y-394573D01*
X-219757Y-394494D01*
X-219851Y-394424D01*
X-219939Y-394346D01*
X-220031Y-394290D01*
X-220118Y-394225D01*
X-220223Y-394173D01*
X-220323Y-394112D01*
X-220424Y-394073D01*
X-220521Y-394024D01*
X-220634Y-393991D01*
X-220743Y-393949D01*
X-220849Y-393928D01*
X-220953Y-393898D01*
X-221070Y-393885D01*
X-221185Y-393863D01*
X-221293Y-393861D01*
X-221401Y-393850D01*
X-221573Y-393857D01*
X-221635Y-393856D01*
X-221665Y-393861D01*
X-221713Y-393863D01*
X-222558Y-393952D01*
X-223828Y-393885D01*
X-224407Y-393762D01*
X-217801Y-382321D01*
X-211195Y-370879D01*
X-210799Y-371319D01*
X-210107Y-372386D01*
X-209761Y-373162D01*
X-209709Y-373256D01*
X-209665Y-373355D01*
X-209599Y-373453D01*
X-209542Y-373555D01*
X-209474Y-373639D01*
X-209413Y-373729D01*
X-209331Y-373813D01*
X-209257Y-373904D01*
X-209175Y-373974D01*
X-209100Y-374052D01*
X-209004Y-374120D01*
X-208915Y-374196D01*
X-208822Y-374251D01*
X-208734Y-374315D01*
X-208628Y-374365D01*
X-208527Y-374424D01*
X-208425Y-374462D01*
X-208327Y-374508D01*
X-208214Y-374539D01*
X-208104Y-374580D01*
X-207998Y-374599D01*
X-207893Y-374628D01*
X-207776Y-374638D01*
X-207661Y-374658D01*
X-207553Y-374658D01*
X-207445Y-374668D01*
X-207328Y-374658D01*
X-207211Y-374658D01*
X-207104Y-374638D01*
X-206996Y-374629D01*
X-206883Y-374598D01*
X-206768Y-374577D01*
X-206666Y-374539D01*
X-206562Y-374511D01*
X-206456Y-374461D01*
X-206346Y-374420D01*
X-206253Y-374364D01*
X-206155Y-374318D01*
X-206012Y-374222D01*
X-205959Y-374190D01*
X-205936Y-374170D01*
X-205896Y-374143D01*
X-203459Y-372273D01*
X-196449Y-370395D01*
X-189255Y-371342D01*
X-182970Y-374971D01*
X-178553Y-380728D01*
X-176675Y-387737D01*
X-177622Y-394932D01*
X-186790Y-410812D01*
X-188400Y-412047D01*
X-188461Y-412103D01*
X-188528Y-412152D01*
X-188627Y-412255D01*
X-188732Y-412352D01*
X-188782Y-412418D01*
X-188839Y-412478D01*
X-188918Y-412597D01*
X-189004Y-412710D01*
X-189042Y-412784D01*
X-189088Y-412853D01*
X-189191Y-413075D01*
X-189209Y-413111D01*
X-189212Y-413122D01*
X-189219Y-413137D01*
X-198239Y-436200D01*
X-198240Y-436206D01*
X-198243Y-436212D01*
X-198304Y-436423D01*
X-198365Y-436632D01*
X-198365Y-436638D01*
X-198367Y-436644D01*
X-198390Y-436864D01*
X-198413Y-437080D01*
X-198412Y-437086D01*
X-198413Y-437092D01*
X-198396Y-437309D01*
X-198381Y-437529D01*
X-198379Y-437535D01*
X-198379Y-437541D01*
X-198324Y-437751D01*
X-198270Y-437966D01*
X-198267Y-437971D01*
X-198266Y-437977D01*
X-198176Y-438173D01*
X-198084Y-438376D01*
X-198080Y-438381D01*
X-198078Y-438386D01*
X-197953Y-438565D01*
X-197828Y-438746D01*
X-197824Y-438751D01*
X-197820Y-438756D01*
X-197663Y-438912D01*
X-197511Y-439066D01*
X-197506Y-439069D01*
X-197502Y-439074D01*
X-197321Y-439199D01*
X-197142Y-439325D01*
X-197137Y-439327D01*
X-197132Y-439331D01*
X-196933Y-439422D01*
X-196734Y-439514D01*
X-196728Y-439516D01*
X-196722Y-439518D01*
X-196422Y-439604D01*
X26006Y-488784D01*
X26172Y-488805D01*
X26335Y-488834D01*
X26394Y-488834D01*
X26453Y-488841D01*
X26619Y-488833D01*
X26785Y-488833D01*
X26844Y-488822D01*
X26903Y-488819D01*
X27065Y-488782D01*
X27228Y-488752D01*
X27284Y-488732D01*
X27342Y-488718D01*
X27494Y-488653D01*
X27650Y-488595D01*
X27701Y-488565D01*
X27756Y-488541D01*
X27894Y-488450D01*
X28038Y-488365D01*
X28082Y-488327D01*
X28132Y-488294D01*
X28252Y-488180D01*
X28378Y-488071D01*
X28416Y-488025D01*
X28459Y-487984D01*
X28557Y-487851D01*
X28662Y-487721D01*
X28690Y-487669D01*
X28725Y-487622D01*
X28799Y-487472D01*
X28879Y-487327D01*
X28898Y-487271D01*
X28924Y-487218D01*
X28970Y-487057D01*
X29023Y-486900D01*
X29032Y-486842D01*
X29048Y-486785D01*
X29065Y-486619D01*
X29089Y-486455D01*
X29088Y-486396D01*
X29094Y-486337D01*
X29081Y-486171D01*
X29076Y-486005D01*
X29064Y-485947D01*
X29060Y-485888D01*
X29018Y-485727D01*
X28984Y-485564D01*
X28958Y-485494D01*
X28947Y-485452D01*
X28921Y-485396D01*
X28874Y-485271D01*
X19160Y-463454D01*
X19096Y-463339D01*
X19041Y-463220D01*
X18987Y-463142D01*
X18941Y-463060D01*
X18858Y-462958D01*
X18782Y-462851D01*
X18716Y-462784D01*
X18656Y-462711D01*
X18556Y-462626D01*
X18463Y-462534D01*
X18385Y-462480D01*
X18314Y-462419D01*
X18201Y-462352D01*
X18093Y-462278D01*
X17978Y-462222D01*
X17925Y-462191D01*
X17883Y-462175D01*
X17812Y-462140D01*
X15067Y-461004D01*
X9936Y-455873D01*
X8761Y-453035D01*
X8711Y-452939D01*
X8669Y-452838D01*
X8606Y-452739D01*
X8552Y-452636D01*
X8486Y-452550D01*
X8428Y-452459D01*
X8348Y-452372D01*
X8277Y-452280D01*
X8196Y-452207D01*
X8123Y-452127D01*
X8029Y-452057D01*
X7942Y-451978D01*
X7850Y-451921D01*
X7764Y-451855D01*
X7660Y-451802D01*
X7560Y-451740D01*
X7459Y-451700D01*
X7363Y-451651D01*
X7251Y-451617D01*
X7142Y-451573D01*
X7036Y-451552D01*
X6932Y-451520D01*
X6815Y-451507D01*
X6701Y-451483D01*
X6592Y-451481D01*
X6485Y-451468D01*
X6368Y-451475D01*
X6250Y-451472D01*
X6143Y-451489D01*
X6035Y-451496D01*
X5921Y-451523D01*
X5805Y-451541D01*
X5703Y-451577D01*
X5598Y-451602D01*
X5491Y-451650D01*
X5380Y-451688D01*
X5285Y-451741D01*
X5186Y-451784D01*
X5041Y-451877D01*
X4986Y-451907D01*
X4963Y-451926D01*
X4922Y-451952D01*
X4235Y-452451D01*
X3102Y-453029D01*
X2539Y-453211D01*
X2539Y-440000D01*
X2539Y-426789D01*
X3102Y-426971D01*
X4235Y-427549D01*
X4922Y-428048D01*
X5015Y-428104D01*
X5103Y-428168D01*
X5208Y-428219D01*
X5309Y-428279D01*
X5410Y-428318D01*
X5507Y-428365D01*
X5620Y-428397D01*
X5730Y-428439D01*
X5836Y-428459D01*
X5940Y-428488D01*
X6057Y-428500D01*
X6172Y-428521D01*
X6281Y-428522D01*
X6388Y-428533D01*
X6505Y-428524D01*
X6623Y-428524D01*
X6729Y-428506D01*
X6837Y-428497D01*
X6951Y-428468D01*
X7066Y-428448D01*
X7168Y-428411D01*
X7273Y-428383D01*
X7379Y-428334D01*
X7490Y-428294D01*
X7583Y-428240D01*
X7682Y-428194D01*
X7778Y-428127D01*
X7879Y-428068D01*
X7962Y-427998D01*
X8050Y-427936D01*
X8133Y-427853D01*
X8222Y-427777D01*
X8291Y-427693D01*
X8368Y-427617D01*
X8434Y-427520D01*
X8509Y-427430D01*
X8562Y-427335D01*
X8624Y-427246D01*
X8699Y-427091D01*
X8730Y-427037D01*
X8740Y-427009D01*
X8761Y-426965D01*
X9936Y-424127D01*
X15067Y-418996D01*
X21772Y-416219D01*
X29028Y-416219D01*
X35733Y-418996D01*
X40864Y-424127D01*
X43641Y-430832D01*
X43641Y-442958D01*
X43654Y-443108D01*
X43658Y-443258D01*
X43674Y-443331D01*
X43681Y-443407D01*
X43720Y-443551D01*
X43751Y-443698D01*
X43785Y-443790D01*
X43799Y-443841D01*
X43823Y-443891D01*
X43860Y-443991D01*
X69621Y-501845D01*
X70520Y-503864D01*
X70536Y-503893D01*
X70547Y-503924D01*
X70699Y-504197D01*
X71616Y-505635D01*
X71764Y-506475D01*
X71804Y-506623D01*
X71836Y-506773D01*
X71868Y-506860D01*
X71882Y-506910D01*
X71906Y-506961D01*
X71945Y-507066D01*
X122240Y-620022D01*
X122337Y-620195D01*
X122430Y-620371D01*
X122446Y-620392D01*
X122459Y-620415D01*
X122585Y-620569D01*
X122707Y-620725D01*
X122731Y-620748D01*
X122744Y-620764D01*
X122787Y-620801D01*
X122935Y-620940D01*
X167678Y-658226D01*
X167680Y-658227D01*
X167681Y-658229D01*
X167865Y-658356D01*
X168048Y-658483D01*
X168050Y-658483D01*
X168051Y-658484D01*
X168332Y-658622D01*
X168633Y-658746D01*
X170206Y-660319D01*
X170254Y-660359D01*
X170376Y-660475D01*
X172086Y-661899D01*
X172237Y-662188D01*
X172238Y-662189D01*
X172239Y-662191D01*
X172363Y-662383D01*
X172481Y-662566D01*
X172482Y-662568D01*
X172483Y-662569D01*
X172690Y-662803D01*
X172920Y-663033D01*
X173772Y-665089D01*
X173801Y-665145D01*
X173870Y-665298D01*
X174904Y-667268D01*
X174933Y-667592D01*
X174933Y-667594D01*
X174933Y-667596D01*
X174975Y-667825D01*
X175014Y-668035D01*
X175014Y-668037D01*
X175014Y-668039D01*
X175116Y-668334D01*
X175241Y-668635D01*
X175241Y-670860D01*
X175246Y-670923D01*
X175251Y-671090D01*
X175453Y-673306D01*
X175356Y-673617D01*
X175355Y-673619D01*
X175355Y-673620D01*
X175307Y-673842D01*
X175260Y-674057D01*
X175260Y-674059D01*
X175260Y-674061D01*
X175241Y-674372D01*
X175241Y-768753D01*
X175254Y-768905D01*
X175259Y-769058D01*
X175274Y-769129D01*
X175281Y-769201D01*
X175321Y-769349D01*
X175353Y-769498D01*
X175380Y-769566D01*
X175399Y-769636D01*
X175465Y-769773D01*
X175523Y-769915D01*
X175561Y-769977D01*
X175593Y-770042D01*
X175682Y-770167D01*
X175763Y-770296D01*
X175812Y-770349D01*
X175855Y-770408D01*
X175964Y-770515D01*
X176068Y-770628D01*
X176125Y-770672D01*
X176177Y-770722D01*
X176304Y-770808D01*
X176426Y-770901D01*
X176490Y-770934D01*
X176550Y-770974D01*
X176690Y-771036D01*
X176826Y-771106D01*
X176915Y-771136D01*
X176962Y-771157D01*
X177018Y-771170D01*
X177123Y-771205D01*
X180040Y-771987D01*
X185427Y-775097D01*
X189825Y-779495D01*
X192935Y-784882D01*
X194545Y-790890D01*
X194545Y-797110D01*
X192935Y-803118D01*
X189825Y-808505D01*
X185427Y-812903D01*
X182670Y-814494D01*
X182533Y-814591D01*
X182392Y-814680D01*
X182349Y-814720D01*
X182302Y-814753D01*
X182184Y-814872D01*
X182061Y-814985D01*
X182026Y-815032D01*
X181985Y-815073D01*
X181890Y-815211D01*
X181789Y-815344D01*
X181762Y-815396D01*
X181729Y-815444D01*
X181660Y-815596D01*
X181584Y-815745D01*
X181567Y-815801D01*
X181543Y-815854D01*
X181502Y-816016D01*
X181454Y-816176D01*
X181447Y-816234D01*
X181433Y-816290D01*
X181421Y-816458D01*
X181402Y-816624D01*
X181405Y-816681D01*
X181401Y-816739D01*
X181419Y-816906D01*
X181429Y-817073D01*
X181443Y-817129D01*
X181449Y-817187D01*
X181496Y-817348D01*
X181536Y-817510D01*
X181559Y-817564D01*
X181575Y-817619D01*
X181650Y-817769D01*
X181718Y-817922D01*
X181757Y-817984D01*
X181776Y-818022D01*
X181813Y-818072D01*
X181886Y-818186D01*
X182436Y-818944D01*
X183398Y-820832D01*
X184053Y-822847D01*
X184150Y-823461D01*
X160000Y-823461D01*
X160000Y-823461D01*
G37*
%LPD*%
%LPC*%
G36*
X-903489Y-161545D02*
X-903489Y-161545D01*
X-911518Y-158219D01*
X-917663Y-152074D01*
X-920989Y-144045D01*
X-920989Y-135355D01*
X-917931Y-127972D01*
X-917881Y-127815D01*
X-917825Y-127660D01*
X-917814Y-127600D01*
X-917796Y-127542D01*
X-917775Y-127379D01*
X-917747Y-127217D01*
X-917747Y-127156D01*
X-917739Y-127095D01*
X-917747Y-126931D01*
X-917748Y-126767D01*
X-917759Y-126707D01*
X-917762Y-126646D01*
X-917799Y-126486D01*
X-917829Y-126324D01*
X-917854Y-126251D01*
X-917864Y-126207D01*
X-917888Y-126151D01*
X-917931Y-126028D01*
X-920989Y-118645D01*
X-920989Y-109955D01*
X-917931Y-102572D01*
X-917881Y-102415D01*
X-917825Y-102260D01*
X-917814Y-102200D01*
X-917796Y-102142D01*
X-917775Y-101979D01*
X-917747Y-101817D01*
X-917747Y-101756D01*
X-917739Y-101695D01*
X-917747Y-101531D01*
X-917748Y-101367D01*
X-917759Y-101307D01*
X-917762Y-101246D01*
X-917799Y-101086D01*
X-917829Y-100924D01*
X-917854Y-100851D01*
X-917864Y-100807D01*
X-917888Y-100751D01*
X-917931Y-100628D01*
X-920989Y-93245D01*
X-920989Y-84555D01*
X-917931Y-77172D01*
X-917881Y-77015D01*
X-917825Y-76860D01*
X-917814Y-76800D01*
X-917796Y-76742D01*
X-917775Y-76579D01*
X-917747Y-76417D01*
X-917747Y-76356D01*
X-917739Y-76295D01*
X-917747Y-76131D01*
X-917748Y-75967D01*
X-917759Y-75907D01*
X-917762Y-75846D01*
X-917799Y-75686D01*
X-917829Y-75524D01*
X-917854Y-75451D01*
X-917864Y-75407D01*
X-917888Y-75351D01*
X-917931Y-75228D01*
X-920989Y-67845D01*
X-920989Y-59155D01*
X-917931Y-51772D01*
X-917881Y-51615D01*
X-917825Y-51460D01*
X-917814Y-51400D01*
X-917796Y-51342D01*
X-917775Y-51179D01*
X-917747Y-51017D01*
X-917747Y-50956D01*
X-917739Y-50895D01*
X-917747Y-50731D01*
X-917748Y-50567D01*
X-917759Y-50507D01*
X-917762Y-50446D01*
X-917799Y-50286D01*
X-917829Y-50124D01*
X-917854Y-50051D01*
X-917864Y-50007D01*
X-917888Y-49951D01*
X-917931Y-49828D01*
X-920989Y-42445D01*
X-920989Y-33755D01*
X-917931Y-26372D01*
X-917881Y-26215D01*
X-917825Y-26060D01*
X-917814Y-26000D01*
X-917796Y-25942D01*
X-917775Y-25779D01*
X-917747Y-25617D01*
X-917747Y-25556D01*
X-917739Y-25495D01*
X-917747Y-25331D01*
X-917748Y-25167D01*
X-917759Y-25107D01*
X-917762Y-25046D01*
X-917799Y-24886D01*
X-917829Y-24724D01*
X-917854Y-24651D01*
X-917864Y-24607D01*
X-917888Y-24551D01*
X-917931Y-24428D01*
X-920989Y-17045D01*
X-920989Y-8355D01*
X-917931Y-972D01*
X-917881Y-815D01*
X-917825Y-660D01*
X-917814Y-600D01*
X-917796Y-542D01*
X-917775Y-379D01*
X-917747Y-217D01*
X-917747Y-156D01*
X-917739Y-95D01*
X-917747Y69D01*
X-917748Y233D01*
X-917759Y293D01*
X-917762Y354D01*
X-917799Y514D01*
X-917829Y676D01*
X-917854Y749D01*
X-917864Y793D01*
X-917888Y849D01*
X-917931Y972D01*
X-920989Y8355D01*
X-920989Y17045D01*
X-917931Y24428D01*
X-917881Y24585D01*
X-917825Y24740D01*
X-917814Y24800D01*
X-917796Y24858D01*
X-917775Y25021D01*
X-917747Y25183D01*
X-917747Y25244D01*
X-917739Y25305D01*
X-917747Y25469D01*
X-917748Y25633D01*
X-917759Y25693D01*
X-917762Y25754D01*
X-917799Y25914D01*
X-917829Y26076D01*
X-917854Y26149D01*
X-917864Y26193D01*
X-917888Y26249D01*
X-917931Y26372D01*
X-920989Y33755D01*
X-920989Y42445D01*
X-917931Y49828D01*
X-917881Y49985D01*
X-917825Y50140D01*
X-917814Y50200D01*
X-917796Y50258D01*
X-917775Y50421D01*
X-917747Y50583D01*
X-917747Y50644D01*
X-917739Y50705D01*
X-917747Y50869D01*
X-917748Y51033D01*
X-917759Y51093D01*
X-917762Y51154D01*
X-917799Y51314D01*
X-917829Y51476D01*
X-917854Y51549D01*
X-917864Y51593D01*
X-917888Y51649D01*
X-917931Y51772D01*
X-920989Y59155D01*
X-920989Y67845D01*
X-917931Y75228D01*
X-917881Y75385D01*
X-917825Y75540D01*
X-917814Y75600D01*
X-917796Y75658D01*
X-917775Y75821D01*
X-917747Y75983D01*
X-917747Y76044D01*
X-917739Y76105D01*
X-917747Y76269D01*
X-917748Y76433D01*
X-917759Y76493D01*
X-917762Y76554D01*
X-917799Y76714D01*
X-917829Y76876D01*
X-917854Y76949D01*
X-917864Y76993D01*
X-917888Y77049D01*
X-917931Y77172D01*
X-920989Y84555D01*
X-920989Y93245D01*
X-917931Y100628D01*
X-917881Y100785D01*
X-917825Y100940D01*
X-917814Y101000D01*
X-917796Y101058D01*
X-917775Y101221D01*
X-917747Y101383D01*
X-917747Y101444D01*
X-917739Y101505D01*
X-917747Y101669D01*
X-917748Y101833D01*
X-917759Y101893D01*
X-917762Y101954D01*
X-917799Y102114D01*
X-917829Y102276D01*
X-917854Y102349D01*
X-917864Y102393D01*
X-917888Y102449D01*
X-917931Y102572D01*
X-920989Y109955D01*
X-920989Y118645D01*
X-917931Y126028D01*
X-917881Y126185D01*
X-917825Y126340D01*
X-917814Y126400D01*
X-917796Y126458D01*
X-917775Y126621D01*
X-917747Y126783D01*
X-917747Y126844D01*
X-917739Y126905D01*
X-917747Y127069D01*
X-917748Y127233D01*
X-917759Y127293D01*
X-917762Y127354D01*
X-917799Y127514D01*
X-917829Y127676D01*
X-917854Y127749D01*
X-917864Y127793D01*
X-917888Y127849D01*
X-917931Y127972D01*
X-920989Y135355D01*
X-920989Y144045D01*
X-917663Y152074D01*
X-911518Y158219D01*
X-903489Y161545D01*
X-876511Y161545D01*
X-868482Y158219D01*
X-862337Y152074D01*
X-859011Y144045D01*
X-859011Y135355D01*
X-862069Y127972D01*
X-862119Y127815D01*
X-862175Y127660D01*
X-862186Y127600D01*
X-862204Y127542D01*
X-862225Y127379D01*
X-862253Y127217D01*
X-862253Y127156D01*
X-862261Y127095D01*
X-862253Y126931D01*
X-862252Y126767D01*
X-862241Y126707D01*
X-862238Y126646D01*
X-862201Y126486D01*
X-862171Y126324D01*
X-862146Y126251D01*
X-862136Y126207D01*
X-862112Y126151D01*
X-862069Y126028D01*
X-859011Y118645D01*
X-859011Y109955D01*
X-862069Y102572D01*
X-862119Y102415D01*
X-862175Y102260D01*
X-862186Y102200D01*
X-862204Y102142D01*
X-862225Y101979D01*
X-862253Y101817D01*
X-862253Y101756D01*
X-862261Y101695D01*
X-862253Y101531D01*
X-862252Y101367D01*
X-862241Y101307D01*
X-862238Y101246D01*
X-862201Y101086D01*
X-862171Y100924D01*
X-862146Y100851D01*
X-862136Y100807D01*
X-862112Y100751D01*
X-862069Y100628D01*
X-859011Y93245D01*
X-859011Y84555D01*
X-862069Y77172D01*
X-862119Y77015D01*
X-862175Y76860D01*
X-862186Y76800D01*
X-862204Y76742D01*
X-862225Y76579D01*
X-862253Y76417D01*
X-862253Y76356D01*
X-862261Y76295D01*
X-862253Y76131D01*
X-862252Y75967D01*
X-862241Y75907D01*
X-862238Y75846D01*
X-862201Y75686D01*
X-862171Y75524D01*
X-862146Y75451D01*
X-862136Y75407D01*
X-862112Y75351D01*
X-862069Y75228D01*
X-859011Y67845D01*
X-859011Y59155D01*
X-862069Y51772D01*
X-862119Y51615D01*
X-862175Y51460D01*
X-862186Y51400D01*
X-862204Y51342D01*
X-862225Y51179D01*
X-862253Y51017D01*
X-862253Y50956D01*
X-862261Y50895D01*
X-862253Y50731D01*
X-862252Y50567D01*
X-862241Y50507D01*
X-862238Y50446D01*
X-862201Y50286D01*
X-862171Y50124D01*
X-862146Y50051D01*
X-862136Y50007D01*
X-862112Y49951D01*
X-862069Y49828D01*
X-859011Y42445D01*
X-859011Y33755D01*
X-862069Y26372D01*
X-862119Y26215D01*
X-862175Y26060D01*
X-862186Y26000D01*
X-862204Y25942D01*
X-862225Y25779D01*
X-862253Y25617D01*
X-862253Y25556D01*
X-862261Y25495D01*
X-862253Y25331D01*
X-862252Y25167D01*
X-862241Y25107D01*
X-862238Y25046D01*
X-862201Y24886D01*
X-862171Y24724D01*
X-862146Y24651D01*
X-862136Y24607D01*
X-862112Y24551D01*
X-862069Y24428D01*
X-859011Y17045D01*
X-859011Y8355D01*
X-862069Y972D01*
X-862119Y815D01*
X-862175Y660D01*
X-862186Y600D01*
X-862204Y542D01*
X-862225Y379D01*
X-862253Y217D01*
X-862253Y156D01*
X-862261Y95D01*
X-862253Y-69D01*
X-862252Y-233D01*
X-862241Y-293D01*
X-862238Y-354D01*
X-862201Y-514D01*
X-862171Y-676D01*
X-862146Y-749D01*
X-862136Y-793D01*
X-862112Y-849D01*
X-862069Y-972D01*
X-859011Y-8355D01*
X-859011Y-17045D01*
X-862069Y-24428D01*
X-862119Y-24585D01*
X-862175Y-24740D01*
X-862186Y-24800D01*
X-862204Y-24858D01*
X-862225Y-25021D01*
X-862253Y-25183D01*
X-862253Y-25244D01*
X-862261Y-25305D01*
X-862253Y-25469D01*
X-862252Y-25633D01*
X-862241Y-25693D01*
X-862238Y-25754D01*
X-862201Y-25914D01*
X-862171Y-26076D01*
X-862146Y-26149D01*
X-862136Y-26193D01*
X-862112Y-26249D01*
X-862069Y-26372D01*
X-859011Y-33755D01*
X-859011Y-42445D01*
X-862069Y-49828D01*
X-862119Y-49985D01*
X-862175Y-50140D01*
X-862186Y-50200D01*
X-862204Y-50258D01*
X-862225Y-50421D01*
X-862253Y-50583D01*
X-862253Y-50644D01*
X-862261Y-50705D01*
X-862253Y-50869D01*
X-862252Y-51033D01*
X-862241Y-51093D01*
X-862238Y-51154D01*
X-862201Y-51314D01*
X-862171Y-51476D01*
X-862146Y-51549D01*
X-862136Y-51593D01*
X-862112Y-51649D01*
X-862069Y-51772D01*
X-859011Y-59155D01*
X-859011Y-67845D01*
X-862069Y-75228D01*
X-862119Y-75385D01*
X-862175Y-75540D01*
X-862186Y-75600D01*
X-862204Y-75658D01*
X-862225Y-75821D01*
X-862253Y-75983D01*
X-862253Y-76044D01*
X-862261Y-76105D01*
X-862253Y-76269D01*
X-862252Y-76433D01*
X-862241Y-76493D01*
X-862238Y-76554D01*
X-862201Y-76714D01*
X-862171Y-76876D01*
X-862146Y-76949D01*
X-862136Y-76993D01*
X-862112Y-77049D01*
X-862069Y-77172D01*
X-859011Y-84555D01*
X-859011Y-93245D01*
X-862069Y-100628D01*
X-862119Y-100785D01*
X-862175Y-100940D01*
X-862186Y-101000D01*
X-862204Y-101058D01*
X-862225Y-101221D01*
X-862253Y-101383D01*
X-862253Y-101444D01*
X-862261Y-101505D01*
X-862253Y-101669D01*
X-862252Y-101833D01*
X-862241Y-101893D01*
X-862238Y-101954D01*
X-862201Y-102114D01*
X-862171Y-102276D01*
X-862146Y-102349D01*
X-862136Y-102393D01*
X-862112Y-102449D01*
X-862069Y-102572D01*
X-859011Y-109955D01*
X-859011Y-118645D01*
X-862069Y-126028D01*
X-862119Y-126185D01*
X-862175Y-126340D01*
X-862186Y-126400D01*
X-862204Y-126458D01*
X-862225Y-126621D01*
X-862253Y-126783D01*
X-862253Y-126844D01*
X-862261Y-126905D01*
X-862253Y-127069D01*
X-862252Y-127233D01*
X-862241Y-127293D01*
X-862238Y-127354D01*
X-862201Y-127514D01*
X-862171Y-127676D01*
X-862146Y-127749D01*
X-862136Y-127793D01*
X-862112Y-127849D01*
X-862069Y-127972D01*
X-859011Y-135355D01*
X-859011Y-144045D01*
X-862337Y-152074D01*
X-868482Y-158219D01*
X-876511Y-161545D01*
X-903489Y-161545D01*
G37*
%LPD*%
%LPC*%
G36*
X572714Y-60003D02*
X572714Y-60003D01*
X558566Y-56516D01*
X545664Y-49744D01*
X534757Y-40082D01*
X526479Y-28090D01*
X521312Y-14465D01*
X519556Y0D01*
X521312Y14465D01*
X526479Y28090D01*
X534757Y40082D01*
X545664Y49744D01*
X558566Y56516D01*
X572714Y60003D01*
X587286Y60003D01*
X601434Y56516D01*
X614336Y49744D01*
X625243Y40082D01*
X633521Y28090D01*
X638688Y14465D01*
X640444Y0D01*
X638688Y-14465D01*
X633521Y-28090D01*
X625243Y-40082D01*
X614336Y-49745D01*
X601434Y-56516D01*
X587286Y-60003D01*
X572714Y-60003D01*
G37*
%LPD*%
%LPC*%
G36*
X-7286Y519997D02*
X-7286Y519997D01*
X-21434Y523484D01*
X-34336Y530256D01*
X-45243Y539918D01*
X-53521Y551910D01*
X-58688Y565535D01*
X-60444Y580000D01*
X-58688Y594465D01*
X-53521Y608090D01*
X-45243Y620082D01*
X-34336Y629744D01*
X-21434Y636516D01*
X-7286Y640003D01*
X7286Y640003D01*
X21434Y636516D01*
X34336Y629744D01*
X45243Y620082D01*
X53521Y608090D01*
X58688Y594465D01*
X60444Y580000D01*
X58688Y565535D01*
X53521Y551910D01*
X45243Y539918D01*
X34336Y530256D01*
X21434Y523484D01*
X7286Y519997D01*
X-7286Y519997D01*
G37*
%LPD*%
%LPC*%
G36*
X-587286Y-60003D02*
X-587286Y-60003D01*
X-601434Y-56516D01*
X-614336Y-49744D01*
X-625243Y-40082D01*
X-633521Y-28090D01*
X-638688Y-14465D01*
X-640444Y0D01*
X-638688Y14465D01*
X-633521Y28090D01*
X-625243Y40082D01*
X-614336Y49744D01*
X-601434Y56516D01*
X-587286Y60003D01*
X-572714Y60003D01*
X-558566Y56516D01*
X-545664Y49744D01*
X-534757Y40082D01*
X-526479Y28090D01*
X-521312Y14465D01*
X-519556Y0D01*
X-521312Y-14465D01*
X-526479Y-28090D01*
X-534757Y-40082D01*
X-545664Y-49744D01*
X-558566Y-56516D01*
X-572714Y-60003D01*
X-587286Y-60003D01*
G37*
%LPD*%
%LPC*%
G36*
X420832Y-43641D02*
X420832Y-43641D01*
X414127Y-40864D01*
X408996Y-35733D01*
X406219Y-29028D01*
X406219Y-21772D01*
X408996Y-15067D01*
X414127Y-9936D01*
X416965Y-8761D01*
X417061Y-8711D01*
X417162Y-8669D01*
X417261Y-8606D01*
X417364Y-8552D01*
X417450Y-8486D01*
X417541Y-8428D01*
X417628Y-8348D01*
X417720Y-8277D01*
X417793Y-8196D01*
X417873Y-8123D01*
X417943Y-8029D01*
X418022Y-7942D01*
X418079Y-7850D01*
X418145Y-7764D01*
X418198Y-7660D01*
X418260Y-7560D01*
X418300Y-7459D01*
X418349Y-7363D01*
X418383Y-7251D01*
X418427Y-7142D01*
X418448Y-7036D01*
X418480Y-6932D01*
X418493Y-6815D01*
X418517Y-6701D01*
X418519Y-6592D01*
X418532Y-6485D01*
X418525Y-6368D01*
X418528Y-6250D01*
X418511Y-6143D01*
X418504Y-6035D01*
X418477Y-5921D01*
X418459Y-5805D01*
X418423Y-5703D01*
X418398Y-5598D01*
X418350Y-5491D01*
X418312Y-5380D01*
X418259Y-5285D01*
X418216Y-5186D01*
X418123Y-5041D01*
X418093Y-4986D01*
X418074Y-4963D01*
X418048Y-4922D01*
X417549Y-4235D01*
X416971Y-3102D01*
X416789Y-2539D01*
X430000Y-2539D01*
X443211Y-2539D01*
X443029Y-3102D01*
X442451Y-4235D01*
X441952Y-4922D01*
X441896Y-5015D01*
X441832Y-5103D01*
X441781Y-5208D01*
X441721Y-5309D01*
X441682Y-5410D01*
X441635Y-5507D01*
X441603Y-5620D01*
X441561Y-5730D01*
X441541Y-5836D01*
X441512Y-5940D01*
X441500Y-6057D01*
X441479Y-6172D01*
X441478Y-6281D01*
X441467Y-6388D01*
X441476Y-6505D01*
X441476Y-6623D01*
X441494Y-6729D01*
X441503Y-6837D01*
X441532Y-6951D01*
X441552Y-7066D01*
X441589Y-7168D01*
X441617Y-7273D01*
X441666Y-7379D01*
X441706Y-7490D01*
X441760Y-7583D01*
X441806Y-7682D01*
X441873Y-7778D01*
X441932Y-7879D01*
X442002Y-7962D01*
X442064Y-8050D01*
X442147Y-8133D01*
X442223Y-8222D01*
X442307Y-8291D01*
X442383Y-8368D01*
X442480Y-8434D01*
X442570Y-8509D01*
X442665Y-8562D01*
X442754Y-8624D01*
X442909Y-8699D01*
X442963Y-8730D01*
X442991Y-8740D01*
X443035Y-8761D01*
X445873Y-9936D01*
X451004Y-15067D01*
X453781Y-21772D01*
X453781Y-29028D01*
X451004Y-35733D01*
X445873Y-40864D01*
X439168Y-43641D01*
X420832Y-43641D01*
G37*
%LPD*%
%LPC*%
G36*
X-29028Y-463781D02*
X-29028Y-463781D01*
X-35733Y-461004D01*
X-40864Y-455873D01*
X-43641Y-449168D01*
X-43641Y-430832D01*
X-40864Y-424127D01*
X-35733Y-418996D01*
X-29028Y-416219D01*
X-21772Y-416219D01*
X-15067Y-418996D01*
X-9936Y-424127D01*
X-8761Y-426965D01*
X-8711Y-427061D01*
X-8669Y-427162D01*
X-8606Y-427261D01*
X-8552Y-427364D01*
X-8486Y-427450D01*
X-8428Y-427541D01*
X-8348Y-427628D01*
X-8277Y-427720D01*
X-8196Y-427793D01*
X-8123Y-427873D01*
X-8029Y-427943D01*
X-7942Y-428022D01*
X-7850Y-428079D01*
X-7764Y-428145D01*
X-7660Y-428198D01*
X-7560Y-428260D01*
X-7459Y-428300D01*
X-7363Y-428349D01*
X-7251Y-428383D01*
X-7142Y-428427D01*
X-7036Y-428448D01*
X-6932Y-428480D01*
X-6815Y-428493D01*
X-6701Y-428517D01*
X-6592Y-428519D01*
X-6485Y-428532D01*
X-6368Y-428525D01*
X-6250Y-428528D01*
X-6143Y-428511D01*
X-6035Y-428504D01*
X-5921Y-428477D01*
X-5805Y-428459D01*
X-5703Y-428423D01*
X-5598Y-428398D01*
X-5491Y-428350D01*
X-5380Y-428312D01*
X-5285Y-428259D01*
X-5186Y-428216D01*
X-5041Y-428123D01*
X-4986Y-428093D01*
X-4963Y-428074D01*
X-4922Y-428048D01*
X-4235Y-427549D01*
X-3102Y-426971D01*
X-2539Y-426789D01*
X-2539Y-440000D01*
X-2539Y-453211D01*
X-3102Y-453029D01*
X-4235Y-452451D01*
X-4922Y-451952D01*
X-5015Y-451896D01*
X-5103Y-451832D01*
X-5208Y-451781D01*
X-5309Y-451721D01*
X-5410Y-451682D01*
X-5507Y-451635D01*
X-5620Y-451603D01*
X-5730Y-451561D01*
X-5836Y-451541D01*
X-5940Y-451512D01*
X-6057Y-451500D01*
X-6172Y-451479D01*
X-6281Y-451478D01*
X-6388Y-451467D01*
X-6505Y-451476D01*
X-6623Y-451476D01*
X-6729Y-451494D01*
X-6837Y-451503D01*
X-6951Y-451532D01*
X-7066Y-451552D01*
X-7168Y-451589D01*
X-7273Y-451617D01*
X-7379Y-451666D01*
X-7490Y-451706D01*
X-7583Y-451760D01*
X-7682Y-451806D01*
X-7778Y-451873D01*
X-7879Y-451932D01*
X-7962Y-452002D01*
X-8050Y-452064D01*
X-8133Y-452147D01*
X-8222Y-452223D01*
X-8291Y-452307D01*
X-8368Y-452383D01*
X-8434Y-452480D01*
X-8509Y-452570D01*
X-8562Y-452665D01*
X-8624Y-452754D01*
X-8699Y-452909D01*
X-8730Y-452963D01*
X-8740Y-452991D01*
X-8761Y-453035D01*
X-9936Y-455873D01*
X-15067Y-461004D01*
X-21772Y-463781D01*
X-29028Y-463781D01*
G37*
%LPD*%
%LPC*%
G36*
X-440000Y2539D02*
X-440000Y2539D01*
X-453211Y2539D01*
X-453029Y3102D01*
X-452451Y4235D01*
X-451952Y4922D01*
X-451896Y5015D01*
X-451832Y5103D01*
X-451781Y5208D01*
X-451721Y5309D01*
X-451682Y5410D01*
X-451635Y5507D01*
X-451603Y5620D01*
X-451561Y5730D01*
X-451541Y5836D01*
X-451512Y5940D01*
X-451500Y6057D01*
X-451479Y6172D01*
X-451478Y6280D01*
X-451467Y6388D01*
X-451476Y6505D01*
X-451476Y6622D01*
X-451494Y6729D01*
X-451503Y6837D01*
X-451532Y6951D01*
X-451552Y7066D01*
X-451589Y7168D01*
X-451617Y7273D01*
X-451666Y7379D01*
X-451706Y7489D01*
X-451760Y7583D01*
X-451806Y7682D01*
X-451873Y7777D01*
X-451932Y7879D01*
X-452002Y7962D01*
X-452064Y8050D01*
X-452147Y8133D01*
X-452223Y8222D01*
X-452307Y8291D01*
X-452383Y8368D01*
X-452480Y8434D01*
X-452570Y8509D01*
X-452665Y8562D01*
X-452754Y8624D01*
X-452908Y8699D01*
X-452963Y8730D01*
X-452991Y8740D01*
X-453035Y8761D01*
X-455873Y9936D01*
X-461004Y15067D01*
X-463781Y21772D01*
X-463781Y29028D01*
X-461004Y35733D01*
X-455873Y40864D01*
X-449168Y43641D01*
X-430832Y43641D01*
X-424127Y40864D01*
X-418996Y35733D01*
X-416219Y29028D01*
X-416219Y21772D01*
X-418996Y15067D01*
X-424127Y9936D01*
X-426965Y8761D01*
X-427061Y8711D01*
X-427162Y8669D01*
X-427261Y8607D01*
X-427364Y8552D01*
X-427450Y8486D01*
X-427542Y8428D01*
X-427628Y8348D01*
X-427720Y8277D01*
X-427793Y8196D01*
X-427873Y8123D01*
X-427944Y8029D01*
X-428022Y7942D01*
X-428079Y7850D01*
X-428145Y7764D01*
X-428198Y7659D01*
X-428260Y7560D01*
X-428300Y7459D01*
X-428349Y7363D01*
X-428383Y7251D01*
X-428427Y7142D01*
X-428448Y7035D01*
X-428480Y6932D01*
X-428493Y6815D01*
X-428517Y6701D01*
X-428519Y6592D01*
X-428532Y6485D01*
X-428525Y6368D01*
X-428528Y6250D01*
X-428511Y6143D01*
X-428504Y6035D01*
X-428477Y5921D01*
X-428459Y5805D01*
X-428423Y5703D01*
X-428398Y5598D01*
X-428350Y5490D01*
X-428312Y5380D01*
X-428260Y5285D01*
X-428216Y5186D01*
X-428123Y5041D01*
X-428093Y4986D01*
X-428074Y4963D01*
X-428048Y4922D01*
X-427549Y4235D01*
X-426971Y3102D01*
X-426789Y2539D01*
X-440000Y2539D01*
X-440000Y2539D01*
G37*
%LPD*%
%LPC*%
G36*
X-393885Y-223828D02*
X-393885Y-223828D01*
X-393952Y-222558D01*
X-393863Y-221713D01*
X-393861Y-221605D01*
X-393850Y-221497D01*
X-393858Y-221380D01*
X-393856Y-221263D01*
X-393873Y-221156D01*
X-393881Y-221048D01*
X-393909Y-220934D01*
X-393928Y-220819D01*
X-393964Y-220716D01*
X-393991Y-220611D01*
X-394039Y-220504D01*
X-394078Y-220394D01*
X-394132Y-220300D01*
X-394176Y-220201D01*
X-394243Y-220104D01*
X-394301Y-220003D01*
X-394370Y-219919D01*
X-394431Y-219830D01*
X-394514Y-219747D01*
X-394589Y-219656D01*
X-394672Y-219587D01*
X-394748Y-219510D01*
X-394844Y-219442D01*
X-394933Y-219367D01*
X-395027Y-219313D01*
X-395116Y-219250D01*
X-395222Y-219201D01*
X-395324Y-219142D01*
X-395426Y-219106D01*
X-395524Y-219060D01*
X-395637Y-219030D01*
X-395748Y-218991D01*
X-395855Y-218973D01*
X-395959Y-218945D01*
X-396076Y-218936D01*
X-396192Y-218916D01*
X-396300Y-218917D01*
X-396408Y-218909D01*
X-396580Y-218921D01*
X-396642Y-218921D01*
X-396672Y-218927D01*
X-396720Y-218930D01*
X-399765Y-219331D01*
X-406775Y-217453D01*
X-412532Y-213036D01*
X-416160Y-206751D01*
X-417107Y-199557D01*
X-415229Y-192547D01*
X-410812Y-186790D01*
X-394932Y-177622D01*
X-387737Y-176675D01*
X-380728Y-178553D01*
X-374971Y-182970D01*
X-371342Y-189255D01*
X-370395Y-196449D01*
X-372273Y-203459D01*
X-374143Y-205896D01*
X-374201Y-205987D01*
X-374268Y-206073D01*
X-374322Y-206177D01*
X-374385Y-206276D01*
X-374426Y-206376D01*
X-374476Y-206472D01*
X-374511Y-206584D01*
X-374555Y-206693D01*
X-374578Y-206798D01*
X-374610Y-206902D01*
X-374625Y-207018D01*
X-374649Y-207133D01*
X-374653Y-207241D01*
X-374666Y-207349D01*
X-374660Y-207466D01*
X-374664Y-207583D01*
X-374648Y-207690D01*
X-374643Y-207798D01*
X-374616Y-207912D01*
X-374599Y-208028D01*
X-374565Y-208131D01*
X-374540Y-208237D01*
X-374494Y-208344D01*
X-374457Y-208456D01*
X-374405Y-208551D01*
X-374362Y-208650D01*
X-374297Y-208748D01*
X-374241Y-208851D01*
X-374173Y-208935D01*
X-374113Y-209026D01*
X-374032Y-209110D01*
X-373959Y-209202D01*
X-373877Y-209273D01*
X-373802Y-209351D01*
X-373708Y-209420D01*
X-373619Y-209497D01*
X-373526Y-209553D01*
X-373439Y-209617D01*
X-373286Y-209696D01*
X-373233Y-209728D01*
X-373204Y-209739D01*
X-373162Y-209761D01*
X-372386Y-210107D01*
X-371319Y-210799D01*
X-370879Y-211195D01*
X-382321Y-217801D01*
X-393762Y-224407D01*
X-393885Y-223828D01*
G37*
%LPD*%
%LPC*%
G36*
X192547Y-415229D02*
X192547Y-415229D01*
X186790Y-410812D01*
X177622Y-394932D01*
X176675Y-387737D01*
X178553Y-380728D01*
X182970Y-374971D01*
X189255Y-371342D01*
X196449Y-370395D01*
X203459Y-372273D01*
X205896Y-374143D01*
X205987Y-374201D01*
X206073Y-374268D01*
X206177Y-374322D01*
X206276Y-374385D01*
X206376Y-374426D01*
X206472Y-374476D01*
X206584Y-374511D01*
X206693Y-374555D01*
X206798Y-374578D01*
X206902Y-374610D01*
X207018Y-374625D01*
X207133Y-374649D01*
X207241Y-374653D01*
X207349Y-374666D01*
X207466Y-374660D01*
X207583Y-374664D01*
X207690Y-374648D01*
X207798Y-374643D01*
X207912Y-374616D01*
X208028Y-374599D01*
X208131Y-374565D01*
X208237Y-374540D01*
X208344Y-374494D01*
X208456Y-374457D01*
X208551Y-374405D01*
X208650Y-374362D01*
X208748Y-374297D01*
X208851Y-374241D01*
X208935Y-374173D01*
X209026Y-374113D01*
X209110Y-374032D01*
X209202Y-373959D01*
X209273Y-373877D01*
X209351Y-373802D01*
X209420Y-373708D01*
X209497Y-373619D01*
X209553Y-373526D01*
X209617Y-373439D01*
X209696Y-373286D01*
X209728Y-373233D01*
X209739Y-373204D01*
X209761Y-373162D01*
X210107Y-372386D01*
X210799Y-371319D01*
X211195Y-370879D01*
X217801Y-382321D01*
X224407Y-393762D01*
X223828Y-393885D01*
X222558Y-393952D01*
X221713Y-393863D01*
X221605Y-393861D01*
X221497Y-393850D01*
X221380Y-393858D01*
X221263Y-393856D01*
X221156Y-393873D01*
X221048Y-393881D01*
X220934Y-393909D01*
X220819Y-393928D01*
X220716Y-393964D01*
X220611Y-393991D01*
X220504Y-394039D01*
X220394Y-394078D01*
X220300Y-394132D01*
X220201Y-394176D01*
X220104Y-394243D01*
X220003Y-394301D01*
X219919Y-394370D01*
X219830Y-394431D01*
X219747Y-394514D01*
X219656Y-394589D01*
X219587Y-394672D01*
X219510Y-394748D01*
X219442Y-394844D01*
X219367Y-394933D01*
X219313Y-395027D01*
X219250Y-395116D01*
X219201Y-395222D01*
X219142Y-395324D01*
X219106Y-395426D01*
X219060Y-395524D01*
X219030Y-395637D01*
X218991Y-395748D01*
X218973Y-395855D01*
X218945Y-395959D01*
X218936Y-396076D01*
X218916Y-396192D01*
X218917Y-396300D01*
X218909Y-396408D01*
X218921Y-396580D01*
X218921Y-396642D01*
X218927Y-396672D01*
X218930Y-396720D01*
X219331Y-399765D01*
X217453Y-406775D01*
X213036Y-412532D01*
X206751Y-416160D01*
X199557Y-417107D01*
X192547Y-415229D01*
G37*
%LPD*%
%LPC*%
G36*
X-250745Y-390760D02*
X-250745Y-390760D01*
X-257030Y-387132D01*
X-261447Y-381375D01*
X-263325Y-374365D01*
X-262378Y-367171D01*
X-253210Y-351291D01*
X-247453Y-346873D01*
X-240443Y-344995D01*
X-233249Y-345942D01*
X-226964Y-349571D01*
X-222547Y-355328D01*
X-220669Y-362337D01*
X-221070Y-365382D01*
X-221074Y-365491D01*
X-221089Y-365598D01*
X-221084Y-365715D01*
X-221089Y-365832D01*
X-221074Y-365940D01*
X-221069Y-366048D01*
X-221044Y-366162D01*
X-221028Y-366278D01*
X-220995Y-366381D01*
X-220971Y-366487D01*
X-220925Y-366595D01*
X-220889Y-366707D01*
X-220838Y-366802D01*
X-220796Y-366902D01*
X-220732Y-367001D01*
X-220677Y-367104D01*
X-220610Y-367189D01*
X-220551Y-367280D01*
X-220471Y-367365D01*
X-220398Y-367458D01*
X-220317Y-367529D01*
X-220243Y-367608D01*
X-220149Y-367678D01*
X-220061Y-367756D01*
X-219969Y-367813D01*
X-219882Y-367877D01*
X-219777Y-367929D01*
X-219677Y-367991D01*
X-219576Y-368030D01*
X-219479Y-368078D01*
X-219366Y-368111D01*
X-219257Y-368153D01*
X-219151Y-368174D01*
X-219047Y-368205D01*
X-218930Y-368217D01*
X-218815Y-368240D01*
X-218707Y-368241D01*
X-218599Y-368253D01*
X-218427Y-368245D01*
X-218365Y-368246D01*
X-218335Y-368241D01*
X-218287Y-368239D01*
X-217442Y-368151D01*
X-216172Y-368217D01*
X-215593Y-368340D01*
X-222199Y-379781D01*
X-222199Y-379782D01*
X-228805Y-391223D01*
X-229201Y-390783D01*
X-229893Y-389717D01*
X-230239Y-388941D01*
X-230291Y-388846D01*
X-230335Y-388747D01*
X-230401Y-388650D01*
X-230458Y-388547D01*
X-230526Y-388463D01*
X-230587Y-388374D01*
X-230668Y-388290D01*
X-230743Y-388199D01*
X-230825Y-388128D01*
X-230900Y-388051D01*
X-230996Y-387982D01*
X-231085Y-387906D01*
X-231178Y-387851D01*
X-231266Y-387788D01*
X-231372Y-387738D01*
X-231473Y-387678D01*
X-231575Y-387641D01*
X-231673Y-387594D01*
X-231785Y-387563D01*
X-231896Y-387522D01*
X-232002Y-387504D01*
X-232107Y-387475D01*
X-232224Y-387464D01*
X-232339Y-387444D01*
X-232447Y-387444D01*
X-232555Y-387434D01*
X-232672Y-387445D01*
X-232789Y-387445D01*
X-232896Y-387464D01*
X-233004Y-387474D01*
X-233117Y-387504D01*
X-233232Y-387525D01*
X-233334Y-387563D01*
X-233438Y-387592D01*
X-233544Y-387642D01*
X-233654Y-387683D01*
X-233747Y-387738D01*
X-233845Y-387784D01*
X-233988Y-387881D01*
X-234041Y-387912D01*
X-234064Y-387932D01*
X-234104Y-387959D01*
X-236541Y-389829D01*
X-243551Y-391707D01*
X-250745Y-390760D01*
G37*
%LPD*%
%LPC*%
G36*
X367171Y-262378D02*
X367171Y-262378D01*
X351291Y-253210D01*
X346873Y-247453D01*
X344995Y-240443D01*
X345942Y-233249D01*
X349571Y-226964D01*
X355328Y-222547D01*
X362337Y-220669D01*
X365382Y-221070D01*
X365491Y-221074D01*
X365598Y-221089D01*
X365715Y-221084D01*
X365832Y-221089D01*
X365940Y-221074D01*
X366048Y-221069D01*
X366162Y-221044D01*
X366278Y-221028D01*
X366381Y-220995D01*
X366487Y-220971D01*
X366595Y-220925D01*
X366707Y-220889D01*
X366802Y-220838D01*
X366902Y-220796D01*
X367001Y-220732D01*
X367104Y-220677D01*
X367189Y-220610D01*
X367280Y-220551D01*
X367365Y-220471D01*
X367458Y-220398D01*
X367529Y-220317D01*
X367608Y-220243D01*
X367678Y-220149D01*
X367756Y-220061D01*
X367812Y-219969D01*
X367877Y-219882D01*
X367929Y-219777D01*
X367991Y-219677D01*
X368030Y-219576D01*
X368078Y-219479D01*
X368111Y-219366D01*
X368153Y-219257D01*
X368174Y-219151D01*
X368205Y-219047D01*
X368217Y-218930D01*
X368240Y-218815D01*
X368241Y-218707D01*
X368253Y-218599D01*
X368245Y-218427D01*
X368246Y-218365D01*
X368241Y-218335D01*
X368239Y-218287D01*
X368151Y-217442D01*
X368217Y-216172D01*
X368340Y-215593D01*
X379781Y-222199D01*
X379782Y-222199D01*
X391223Y-228805D01*
X390783Y-229201D01*
X389717Y-229893D01*
X388941Y-230239D01*
X388846Y-230291D01*
X388747Y-230335D01*
X388650Y-230401D01*
X388547Y-230458D01*
X388463Y-230526D01*
X388374Y-230587D01*
X388290Y-230668D01*
X388199Y-230743D01*
X388128Y-230825D01*
X388051Y-230900D01*
X387982Y-230996D01*
X387906Y-231085D01*
X387851Y-231178D01*
X387788Y-231266D01*
X387738Y-231372D01*
X387678Y-231473D01*
X387641Y-231575D01*
X387594Y-231673D01*
X387563Y-231785D01*
X387522Y-231896D01*
X387504Y-232002D01*
X387475Y-232107D01*
X387464Y-232224D01*
X387444Y-232339D01*
X387444Y-232447D01*
X387434Y-232555D01*
X387445Y-232672D01*
X387445Y-232789D01*
X387464Y-232896D01*
X387474Y-233004D01*
X387504Y-233117D01*
X387525Y-233232D01*
X387563Y-233334D01*
X387592Y-233438D01*
X387642Y-233544D01*
X387683Y-233654D01*
X387738Y-233747D01*
X387784Y-233845D01*
X387881Y-233988D01*
X387912Y-234041D01*
X387932Y-234064D01*
X387959Y-234104D01*
X389829Y-236541D01*
X391707Y-243551D01*
X390760Y-250745D01*
X387132Y-257030D01*
X381375Y-261447D01*
X374365Y-263325D01*
X367171Y-262378D01*
G37*
%LPD*%
%LPC*%
G36*
X-203459Y372273D02*
X-203459Y372273D01*
X-205896Y374143D01*
X-205987Y374201D01*
X-206073Y374268D01*
X-206177Y374322D01*
X-206276Y374385D01*
X-206376Y374426D01*
X-206472Y374476D01*
X-206584Y374511D01*
X-206693Y374555D01*
X-206799Y374578D01*
X-206902Y374610D01*
X-207018Y374625D01*
X-207133Y374649D01*
X-207241Y374653D01*
X-207349Y374666D01*
X-207466Y374660D01*
X-207583Y374664D01*
X-207690Y374648D01*
X-207798Y374643D01*
X-207912Y374616D01*
X-208028Y374599D01*
X-208131Y374565D01*
X-208237Y374540D01*
X-208344Y374494D01*
X-208456Y374457D01*
X-208551Y374405D01*
X-208650Y374362D01*
X-208748Y374297D01*
X-208851Y374241D01*
X-208935Y374173D01*
X-209026Y374113D01*
X-209110Y374032D01*
X-209202Y373959D01*
X-209273Y373877D01*
X-209351Y373802D01*
X-209420Y373708D01*
X-209497Y373619D01*
X-209553Y373526D01*
X-209617Y373439D01*
X-209696Y373286D01*
X-209728Y373233D01*
X-209739Y373204D01*
X-209761Y373162D01*
X-210107Y372386D01*
X-210799Y371319D01*
X-211195Y370879D01*
X-217801Y382321D01*
X-224407Y393762D01*
X-223828Y393885D01*
X-222558Y393952D01*
X-221713Y393863D01*
X-221605Y393861D01*
X-221497Y393850D01*
X-221380Y393858D01*
X-221263Y393856D01*
X-221156Y393873D01*
X-221048Y393881D01*
X-220934Y393909D01*
X-220819Y393928D01*
X-220716Y393964D01*
X-220611Y393991D01*
X-220505Y394039D01*
X-220394Y394078D01*
X-220300Y394132D01*
X-220201Y394176D01*
X-220104Y394243D01*
X-220003Y394301D01*
X-219919Y394370D01*
X-219830Y394431D01*
X-219747Y394514D01*
X-219657Y394589D01*
X-219587Y394671D01*
X-219510Y394748D01*
X-219442Y394844D01*
X-219367Y394933D01*
X-219313Y395027D01*
X-219250Y395116D01*
X-219201Y395222D01*
X-219142Y395324D01*
X-219106Y395426D01*
X-219060Y395524D01*
X-219030Y395637D01*
X-218991Y395748D01*
X-218973Y395855D01*
X-218945Y395959D01*
X-218936Y396076D01*
X-218916Y396192D01*
X-218917Y396300D01*
X-218909Y396408D01*
X-218921Y396580D01*
X-218921Y396642D01*
X-218927Y396672D01*
X-218930Y396720D01*
X-219331Y399765D01*
X-217453Y406775D01*
X-213035Y412532D01*
X-206751Y416160D01*
X-199556Y417107D01*
X-192547Y415229D01*
X-186790Y410811D01*
X-177622Y394932D01*
X-176675Y387737D01*
X-178553Y380728D01*
X-182970Y374971D01*
X-189255Y371342D01*
X-196449Y370395D01*
X-203459Y372273D01*
G37*
%LPD*%
%LPC*%
G36*
X-379781Y222199D02*
X-379781Y222199D01*
X-379782Y222199D01*
X-391223Y228805D01*
X-390783Y229201D01*
X-389717Y229893D01*
X-388941Y230239D01*
X-388846Y230292D01*
X-388747Y230335D01*
X-388650Y230401D01*
X-388547Y230458D01*
X-388463Y230526D01*
X-388374Y230587D01*
X-388290Y230668D01*
X-388199Y230743D01*
X-388128Y230825D01*
X-388050Y230900D01*
X-387982Y230996D01*
X-387906Y231085D01*
X-387851Y231178D01*
X-387788Y231266D01*
X-387737Y231372D01*
X-387678Y231473D01*
X-387641Y231575D01*
X-387594Y231673D01*
X-387563Y231786D01*
X-387522Y231896D01*
X-387504Y232002D01*
X-387475Y232107D01*
X-387464Y232224D01*
X-387444Y232339D01*
X-387444Y232447D01*
X-387434Y232555D01*
X-387445Y232672D01*
X-387445Y232789D01*
X-387464Y232896D01*
X-387474Y233004D01*
X-387504Y233117D01*
X-387525Y233232D01*
X-387563Y233334D01*
X-387592Y233438D01*
X-387642Y233544D01*
X-387683Y233654D01*
X-387738Y233747D01*
X-387785Y233845D01*
X-387880Y233988D01*
X-387912Y234041D01*
X-387932Y234065D01*
X-387959Y234104D01*
X-389829Y236541D01*
X-391707Y243551D01*
X-390760Y250745D01*
X-387132Y257030D01*
X-381375Y261447D01*
X-374365Y263325D01*
X-367171Y262378D01*
X-351291Y253210D01*
X-346873Y247453D01*
X-344995Y240444D01*
X-345942Y233249D01*
X-349571Y226965D01*
X-355328Y222547D01*
X-362337Y220669D01*
X-365382Y221070D01*
X-365491Y221074D01*
X-365598Y221089D01*
X-365715Y221084D01*
X-365832Y221089D01*
X-365940Y221074D01*
X-366048Y221069D01*
X-366162Y221044D01*
X-366278Y221028D01*
X-366381Y220995D01*
X-366487Y220971D01*
X-366595Y220925D01*
X-366707Y220889D01*
X-366802Y220838D01*
X-366902Y220796D01*
X-367001Y220732D01*
X-367104Y220677D01*
X-367189Y220610D01*
X-367280Y220551D01*
X-367365Y220471D01*
X-367458Y220398D01*
X-367529Y220317D01*
X-367608Y220243D01*
X-367678Y220149D01*
X-367756Y220061D01*
X-367813Y219969D01*
X-367877Y219882D01*
X-367930Y219777D01*
X-367991Y219677D01*
X-368030Y219576D01*
X-368078Y219479D01*
X-368111Y219366D01*
X-368153Y219257D01*
X-368174Y219151D01*
X-368205Y219047D01*
X-368217Y218935D01*
X-368222Y218912D01*
X-368223Y218900D01*
X-368240Y218815D01*
X-368241Y218707D01*
X-368253Y218599D01*
X-368248Y218493D01*
X-368250Y218462D01*
X-368245Y218422D01*
X-368246Y218365D01*
X-368241Y218335D01*
X-368239Y218287D01*
X-368151Y217442D01*
X-368217Y216172D01*
X-368340Y215593D01*
X-379781Y222199D01*
G37*
%LPD*%
%LPC*%
G36*
X162539Y-839463D02*
X162539Y-839463D01*
X162539Y-828539D01*
X184150Y-828539D01*
X184053Y-829153D01*
X183398Y-831168D01*
X182436Y-833056D01*
X181191Y-834770D01*
X179692Y-836269D01*
X177978Y-837514D01*
X176090Y-838476D01*
X174075Y-839131D01*
X171981Y-839463D01*
X162539Y-839463D01*
G37*
%LPD*%
%LPC*%
G36*
X145925Y-839131D02*
X145925Y-839131D01*
X143910Y-838476D01*
X142022Y-837514D01*
X140308Y-836269D01*
X138809Y-834770D01*
X137564Y-833056D01*
X136602Y-831168D01*
X135947Y-829153D01*
X135850Y-828539D01*
X157461Y-828539D01*
X157461Y-839463D01*
X148019Y-839463D01*
X145925Y-839131D01*
G37*
%LPD*%
%LPC*%
G36*
X2539Y-832556D02*
X2539Y-832556D01*
X2539Y-825239D01*
X9856Y-825239D01*
X9856Y-826782D01*
X4082Y-832556D01*
X2539Y-832556D01*
G37*
%LPD*%
%LPC*%
G36*
X-149856Y-826782D02*
X-149856Y-826782D01*
X-149856Y-825239D01*
X-142539Y-825239D01*
X-142539Y-832556D01*
X-144082Y-832556D01*
X-149856Y-826782D01*
G37*
%LPD*%
%LPC*%
G36*
X-9856Y-826782D02*
X-9856Y-826782D01*
X-9856Y-825239D01*
X-2539Y-825239D01*
X-2539Y-832556D01*
X-4082Y-832556D01*
X-9856Y-826782D01*
G37*
%LPD*%
%LPC*%
G36*
X-137461Y-832556D02*
X-137461Y-832556D01*
X-137461Y-825239D01*
X-130144Y-825239D01*
X-130144Y-826782D01*
X-135918Y-832556D01*
X-137461Y-832556D01*
G37*
%LPD*%
D10*
X0Y-797300D03*
X0Y-822700D03*
X-140000Y-797300D03*
X-140000Y-822700D03*
D11*
X-880856Y139700D02*
X-899144Y139700D01*
X-899144Y114300D02*
X-880856Y114300D01*
X-880856Y88900D02*
X-899144Y88900D01*
X-899144Y63500D02*
X-880856Y63500D01*
X-880856Y38100D02*
X-899144Y38100D01*
X-899144Y12700D02*
X-880856Y12700D01*
X-880856Y-12700D02*
X-899144Y-12700D01*
X-899144Y-38100D02*
X-880856Y-38100D01*
X-880856Y-63500D02*
X-899144Y-63500D01*
X-899144Y-88900D02*
X-880856Y-88900D01*
X-880856Y-114300D02*
X-899144Y-114300D01*
X-899144Y-139700D02*
X-880856Y-139700D01*
D12*
X363553Y239227D02*
X373149Y244767D01*
X385849Y222770D02*
X376253Y217230D01*
X388953Y195233D02*
X398549Y200773D01*
X195233Y388953D02*
X200773Y398549D01*
X222770Y385849D02*
X217230Y376253D01*
X239227Y363553D02*
X244767Y373149D01*
X-25400Y434460D02*
X-25400Y445540D01*
X0Y445540D02*
X0Y434460D01*
X25400Y434460D02*
X25400Y445540D01*
X-239227Y363553D02*
X-244767Y373149D01*
X-222770Y385849D02*
X-217230Y376253D01*
X-195233Y388953D02*
X-200773Y398549D01*
X-388953Y195233D02*
X-398549Y200773D01*
X-385849Y222770D02*
X-376253Y217230D01*
X-363553Y239227D02*
X-373149Y244767D01*
X-434460Y-25400D02*
X-445540Y-25400D01*
X-445540Y0D02*
X-434460Y0D01*
X-434460Y25400D02*
X-445540Y25400D01*
X-363553Y-239227D02*
X-373149Y-244767D01*
X-385849Y-222770D02*
X-376253Y-217230D01*
X-388953Y-195233D02*
X-398549Y-200773D01*
X-195233Y-388953D02*
X-200773Y-398549D01*
X-222770Y-385849D02*
X-217230Y-376253D01*
X-239227Y-363553D02*
X-244767Y-373149D01*
X25400Y-434460D02*
X25400Y-445540D01*
X0Y-445540D02*
X0Y-434460D01*
X-25400Y-434460D02*
X-25400Y-445540D01*
X239227Y-363553D02*
X244767Y-373149D01*
X222770Y-385849D02*
X217230Y-376253D01*
X195233Y-388953D02*
X200773Y-398549D01*
X388953Y-195233D02*
X398549Y-200773D01*
X385849Y-222770D02*
X376253Y-217230D01*
X363553Y-239227D02*
X373149Y-244767D01*
D13*
X170922Y-826000D02*
X149078Y-826000D01*
X149078Y-794000D02*
X170922Y-794000D01*
D12*
X424460Y25400D02*
X435540Y25400D01*
X435540Y0D02*
X424460Y0D01*
X424460Y-25400D02*
X435540Y-25400D01*
D14*
X25400Y-440000D02*
X57136Y-511275D01*
X110000Y-630000D01*
X160000Y-671667D01*
X160000Y-790000D01*
X160000Y-794000D01*
X0Y-797300D02*
X-140000Y-797300D01*
X0Y-797300D02*
X160000Y-790000D01*
X-220000Y-450000D02*
X-198003Y-393751D01*
X-220000Y-450000D02*
X57136Y-511275D01*
X-368351Y-241997D02*
X-430000Y-280000D01*
X-220000Y-450000D01*
X-430000Y-280000D02*
X-491793Y-50483D01*
X-500000Y-20000D01*
X-453846Y210769D01*
X-450000Y230000D01*
X-294385Y403923D01*
X-280000Y420000D01*
X-51142Y484080D01*
X-30000Y490000D01*
X189231Y446154D01*
X220000Y440000D01*
X388954Y288831D01*
X410000Y270000D01*
X478584Y79490D01*
X492479Y40892D01*
X500000Y20000D01*
X460000Y-230000D01*
X280000Y-420000D01*
X241997Y-368351D01*
X393751Y-198003D02*
X460000Y-230000D01*
X368351Y241997D02*
X388954Y288831D01*
X198003Y393751D02*
X189231Y446154D01*
X-25400Y440000D02*
X-51142Y484080D01*
X-241997Y368351D02*
X-294385Y403923D01*
X-393751Y198003D02*
X-453846Y210769D01*
X-440000Y-25400D02*
X-491793Y-50483D01*
X430000Y25400D02*
X478584Y79490D01*
M02*
