G04 EAGLE Gerber RS-274X export*
G75*
%MOMM*%
%FSLAX34Y34*%
%LPD*%
%INBoard Outline*%
%IPPOS*%
%AMOC8*
5,1,8,0,0,1.08239X$1,22.5*%
G01*
%ADD10C,0.152400*%
%ADD11C,0.508000*%
%ADD12C,0.254000*%


D10*
X533000Y0D02*
X533014Y1153D01*
X533057Y2306D01*
X533127Y3458D01*
X533226Y4607D01*
X533353Y5753D01*
X533509Y6896D01*
X533692Y8035D01*
X533903Y9169D01*
X534142Y10298D01*
X534409Y11420D01*
X534703Y12535D01*
X535024Y13643D01*
X535372Y14743D01*
X535747Y15834D01*
X536149Y16915D01*
X536578Y17986D01*
X537032Y19046D01*
X537513Y20095D01*
X538018Y21132D01*
X538550Y22156D01*
X539106Y23166D01*
X539687Y24163D01*
X540292Y25145D01*
X540921Y26112D01*
X541574Y27063D01*
X542249Y27998D01*
X542948Y28916D01*
X543669Y29816D01*
X544411Y30699D01*
X545175Y31563D01*
X545960Y32408D01*
X546766Y33234D01*
X547592Y34040D01*
X548437Y34825D01*
X549301Y35589D01*
X550184Y36331D01*
X551084Y37052D01*
X552002Y37751D01*
X552937Y38426D01*
X553888Y39079D01*
X554855Y39708D01*
X555837Y40313D01*
X556834Y40894D01*
X557844Y41450D01*
X558868Y41982D01*
X559905Y42487D01*
X560954Y42968D01*
X562014Y43422D01*
X563085Y43851D01*
X564166Y44253D01*
X565257Y44628D01*
X566357Y44976D01*
X567465Y45297D01*
X568580Y45591D01*
X569702Y45858D01*
X570831Y46097D01*
X571965Y46308D01*
X573104Y46491D01*
X574247Y46647D01*
X575393Y46774D01*
X576542Y46873D01*
X577694Y46943D01*
X578847Y46986D01*
X580000Y47000D01*
X581153Y46986D01*
X582306Y46943D01*
X583458Y46873D01*
X584607Y46774D01*
X585753Y46647D01*
X586896Y46491D01*
X588035Y46308D01*
X589169Y46097D01*
X590298Y45858D01*
X591420Y45591D01*
X592535Y45297D01*
X593643Y44976D01*
X594743Y44628D01*
X595834Y44253D01*
X596915Y43851D01*
X597986Y43422D01*
X599046Y42968D01*
X600095Y42487D01*
X601132Y41982D01*
X602156Y41450D01*
X603166Y40894D01*
X604163Y40313D01*
X605145Y39708D01*
X606112Y39079D01*
X607063Y38426D01*
X607998Y37751D01*
X608916Y37052D01*
X609816Y36331D01*
X610699Y35589D01*
X611563Y34825D01*
X612408Y34040D01*
X613234Y33234D01*
X614040Y32408D01*
X614825Y31563D01*
X615589Y30699D01*
X616331Y29816D01*
X617052Y28916D01*
X617751Y27998D01*
X618426Y27063D01*
X619079Y26112D01*
X619708Y25145D01*
X620313Y24163D01*
X620894Y23166D01*
X621450Y22156D01*
X621982Y21132D01*
X622487Y20095D01*
X622968Y19046D01*
X623422Y17986D01*
X623851Y16915D01*
X624253Y15834D01*
X624628Y14743D01*
X624976Y13643D01*
X625297Y12535D01*
X625591Y11420D01*
X625858Y10298D01*
X626097Y9169D01*
X626308Y8035D01*
X626491Y6896D01*
X626647Y5753D01*
X626774Y4607D01*
X626873Y3458D01*
X626943Y2306D01*
X626986Y1153D01*
X627000Y0D01*
X626986Y-1153D01*
X626943Y-2306D01*
X626873Y-3458D01*
X626774Y-4607D01*
X626647Y-5753D01*
X626491Y-6896D01*
X626308Y-8035D01*
X626097Y-9169D01*
X625858Y-10298D01*
X625591Y-11420D01*
X625297Y-12535D01*
X624976Y-13643D01*
X624628Y-14743D01*
X624253Y-15834D01*
X623851Y-16915D01*
X623422Y-17986D01*
X622968Y-19046D01*
X622487Y-20095D01*
X621982Y-21132D01*
X621450Y-22156D01*
X620894Y-23166D01*
X620313Y-24163D01*
X619708Y-25145D01*
X619079Y-26112D01*
X618426Y-27063D01*
X617751Y-27998D01*
X617052Y-28916D01*
X616331Y-29816D01*
X615589Y-30699D01*
X614825Y-31563D01*
X614040Y-32408D01*
X613234Y-33234D01*
X612408Y-34040D01*
X611563Y-34825D01*
X610699Y-35589D01*
X609816Y-36331D01*
X608916Y-37052D01*
X607998Y-37751D01*
X607063Y-38426D01*
X606112Y-39079D01*
X605145Y-39708D01*
X604163Y-40313D01*
X603166Y-40894D01*
X602156Y-41450D01*
X601132Y-41982D01*
X600095Y-42487D01*
X599046Y-42968D01*
X597986Y-43422D01*
X596915Y-43851D01*
X595834Y-44253D01*
X594743Y-44628D01*
X593643Y-44976D01*
X592535Y-45297D01*
X591420Y-45591D01*
X590298Y-45858D01*
X589169Y-46097D01*
X588035Y-46308D01*
X586896Y-46491D01*
X585753Y-46647D01*
X584607Y-46774D01*
X583458Y-46873D01*
X582306Y-46943D01*
X581153Y-46986D01*
X580000Y-47000D01*
X578847Y-46986D01*
X577694Y-46943D01*
X576542Y-46873D01*
X575393Y-46774D01*
X574247Y-46647D01*
X573104Y-46491D01*
X571965Y-46308D01*
X570831Y-46097D01*
X569702Y-45858D01*
X568580Y-45591D01*
X567465Y-45297D01*
X566357Y-44976D01*
X565257Y-44628D01*
X564166Y-44253D01*
X563085Y-43851D01*
X562014Y-43422D01*
X560954Y-42968D01*
X559905Y-42487D01*
X558868Y-41982D01*
X557844Y-41450D01*
X556834Y-40894D01*
X555837Y-40313D01*
X554855Y-39708D01*
X553888Y-39079D01*
X552937Y-38426D01*
X552002Y-37751D01*
X551084Y-37052D01*
X550184Y-36331D01*
X549301Y-35589D01*
X548437Y-34825D01*
X547592Y-34040D01*
X546766Y-33234D01*
X545960Y-32408D01*
X545175Y-31563D01*
X544411Y-30699D01*
X543669Y-29816D01*
X542948Y-28916D01*
X542249Y-27998D01*
X541574Y-27063D01*
X540921Y-26112D01*
X540292Y-25145D01*
X539687Y-24163D01*
X539106Y-23166D01*
X538550Y-22156D01*
X538018Y-21132D01*
X537513Y-20095D01*
X537032Y-19046D01*
X536578Y-17986D01*
X536149Y-16915D01*
X535747Y-15834D01*
X535372Y-14743D01*
X535024Y-13643D01*
X534703Y-12535D01*
X534409Y-11420D01*
X534142Y-10298D01*
X533903Y-9169D01*
X533692Y-8035D01*
X533509Y-6896D01*
X533353Y-5753D01*
X533226Y-4607D01*
X533127Y-3458D01*
X533057Y-2306D01*
X533014Y-1153D01*
X533000Y0D01*
X-47000Y580000D02*
X-46986Y581153D01*
X-46943Y582306D01*
X-46873Y583458D01*
X-46774Y584607D01*
X-46647Y585753D01*
X-46491Y586896D01*
X-46308Y588035D01*
X-46097Y589169D01*
X-45858Y590298D01*
X-45591Y591420D01*
X-45297Y592535D01*
X-44976Y593643D01*
X-44628Y594743D01*
X-44253Y595834D01*
X-43851Y596915D01*
X-43422Y597986D01*
X-42968Y599046D01*
X-42487Y600095D01*
X-41982Y601132D01*
X-41450Y602156D01*
X-40894Y603166D01*
X-40313Y604163D01*
X-39708Y605145D01*
X-39079Y606112D01*
X-38426Y607063D01*
X-37751Y607998D01*
X-37052Y608916D01*
X-36331Y609816D01*
X-35589Y610699D01*
X-34825Y611563D01*
X-34040Y612408D01*
X-33234Y613234D01*
X-32408Y614040D01*
X-31563Y614825D01*
X-30699Y615589D01*
X-29816Y616331D01*
X-28916Y617052D01*
X-27998Y617751D01*
X-27063Y618426D01*
X-26112Y619079D01*
X-25145Y619708D01*
X-24163Y620313D01*
X-23166Y620894D01*
X-22156Y621450D01*
X-21132Y621982D01*
X-20095Y622487D01*
X-19046Y622968D01*
X-17986Y623422D01*
X-16915Y623851D01*
X-15834Y624253D01*
X-14743Y624628D01*
X-13643Y624976D01*
X-12535Y625297D01*
X-11420Y625591D01*
X-10298Y625858D01*
X-9169Y626097D01*
X-8035Y626308D01*
X-6896Y626491D01*
X-5753Y626647D01*
X-4607Y626774D01*
X-3458Y626873D01*
X-2306Y626943D01*
X-1153Y626986D01*
X0Y627000D01*
X1153Y626986D01*
X2306Y626943D01*
X3458Y626873D01*
X4607Y626774D01*
X5753Y626647D01*
X6896Y626491D01*
X8035Y626308D01*
X9169Y626097D01*
X10298Y625858D01*
X11420Y625591D01*
X12535Y625297D01*
X13643Y624976D01*
X14743Y624628D01*
X15834Y624253D01*
X16915Y623851D01*
X17986Y623422D01*
X19046Y622968D01*
X20095Y622487D01*
X21132Y621982D01*
X22156Y621450D01*
X23166Y620894D01*
X24163Y620313D01*
X25145Y619708D01*
X26112Y619079D01*
X27063Y618426D01*
X27998Y617751D01*
X28916Y617052D01*
X29816Y616331D01*
X30699Y615589D01*
X31563Y614825D01*
X32408Y614040D01*
X33234Y613234D01*
X34040Y612408D01*
X34825Y611563D01*
X35589Y610699D01*
X36331Y609816D01*
X37052Y608916D01*
X37751Y607998D01*
X38426Y607063D01*
X39079Y606112D01*
X39708Y605145D01*
X40313Y604163D01*
X40894Y603166D01*
X41450Y602156D01*
X41982Y601132D01*
X42487Y600095D01*
X42968Y599046D01*
X43422Y597986D01*
X43851Y596915D01*
X44253Y595834D01*
X44628Y594743D01*
X44976Y593643D01*
X45297Y592535D01*
X45591Y591420D01*
X45858Y590298D01*
X46097Y589169D01*
X46308Y588035D01*
X46491Y586896D01*
X46647Y585753D01*
X46774Y584607D01*
X46873Y583458D01*
X46943Y582306D01*
X46986Y581153D01*
X47000Y580000D01*
X46986Y578847D01*
X46943Y577694D01*
X46873Y576542D01*
X46774Y575393D01*
X46647Y574247D01*
X46491Y573104D01*
X46308Y571965D01*
X46097Y570831D01*
X45858Y569702D01*
X45591Y568580D01*
X45297Y567465D01*
X44976Y566357D01*
X44628Y565257D01*
X44253Y564166D01*
X43851Y563085D01*
X43422Y562014D01*
X42968Y560954D01*
X42487Y559905D01*
X41982Y558868D01*
X41450Y557844D01*
X40894Y556834D01*
X40313Y555837D01*
X39708Y554855D01*
X39079Y553888D01*
X38426Y552937D01*
X37751Y552002D01*
X37052Y551084D01*
X36331Y550184D01*
X35589Y549301D01*
X34825Y548437D01*
X34040Y547592D01*
X33234Y546766D01*
X32408Y545960D01*
X31563Y545175D01*
X30699Y544411D01*
X29816Y543669D01*
X28916Y542948D01*
X27998Y542249D01*
X27063Y541574D01*
X26112Y540921D01*
X25145Y540292D01*
X24163Y539687D01*
X23166Y539106D01*
X22156Y538550D01*
X21132Y538018D01*
X20095Y537513D01*
X19046Y537032D01*
X17986Y536578D01*
X16915Y536149D01*
X15834Y535747D01*
X14743Y535372D01*
X13643Y535024D01*
X12535Y534703D01*
X11420Y534409D01*
X10298Y534142D01*
X9169Y533903D01*
X8035Y533692D01*
X6896Y533509D01*
X5753Y533353D01*
X4607Y533226D01*
X3458Y533127D01*
X2306Y533057D01*
X1153Y533014D01*
X0Y533000D01*
X-1153Y533014D01*
X-2306Y533057D01*
X-3458Y533127D01*
X-4607Y533226D01*
X-5753Y533353D01*
X-6896Y533509D01*
X-8035Y533692D01*
X-9169Y533903D01*
X-10298Y534142D01*
X-11420Y534409D01*
X-12535Y534703D01*
X-13643Y535024D01*
X-14743Y535372D01*
X-15834Y535747D01*
X-16915Y536149D01*
X-17986Y536578D01*
X-19046Y537032D01*
X-20095Y537513D01*
X-21132Y538018D01*
X-22156Y538550D01*
X-23166Y539106D01*
X-24163Y539687D01*
X-25145Y540292D01*
X-26112Y540921D01*
X-27063Y541574D01*
X-27998Y542249D01*
X-28916Y542948D01*
X-29816Y543669D01*
X-30699Y544411D01*
X-31563Y545175D01*
X-32408Y545960D01*
X-33234Y546766D01*
X-34040Y547592D01*
X-34825Y548437D01*
X-35589Y549301D01*
X-36331Y550184D01*
X-37052Y551084D01*
X-37751Y552002D01*
X-38426Y552937D01*
X-39079Y553888D01*
X-39708Y554855D01*
X-40313Y555837D01*
X-40894Y556834D01*
X-41450Y557844D01*
X-41982Y558868D01*
X-42487Y559905D01*
X-42968Y560954D01*
X-43422Y562014D01*
X-43851Y563085D01*
X-44253Y564166D01*
X-44628Y565257D01*
X-44976Y566357D01*
X-45297Y567465D01*
X-45591Y568580D01*
X-45858Y569702D01*
X-46097Y570831D01*
X-46308Y571965D01*
X-46491Y573104D01*
X-46647Y574247D01*
X-46774Y575393D01*
X-46873Y576542D01*
X-46943Y577694D01*
X-46986Y578847D01*
X-47000Y580000D01*
X-627000Y0D02*
X-626986Y1153D01*
X-626943Y2306D01*
X-626873Y3458D01*
X-626774Y4607D01*
X-626647Y5753D01*
X-626491Y6896D01*
X-626308Y8035D01*
X-626097Y9169D01*
X-625858Y10298D01*
X-625591Y11420D01*
X-625297Y12535D01*
X-624976Y13643D01*
X-624628Y14743D01*
X-624253Y15834D01*
X-623851Y16915D01*
X-623422Y17986D01*
X-622968Y19046D01*
X-622487Y20095D01*
X-621982Y21132D01*
X-621450Y22156D01*
X-620894Y23166D01*
X-620313Y24163D01*
X-619708Y25145D01*
X-619079Y26112D01*
X-618426Y27063D01*
X-617751Y27998D01*
X-617052Y28916D01*
X-616331Y29816D01*
X-615589Y30699D01*
X-614825Y31563D01*
X-614040Y32408D01*
X-613234Y33234D01*
X-612408Y34040D01*
X-611563Y34825D01*
X-610699Y35589D01*
X-609816Y36331D01*
X-608916Y37052D01*
X-607998Y37751D01*
X-607063Y38426D01*
X-606112Y39079D01*
X-605145Y39708D01*
X-604163Y40313D01*
X-603166Y40894D01*
X-602156Y41450D01*
X-601132Y41982D01*
X-600095Y42487D01*
X-599046Y42968D01*
X-597986Y43422D01*
X-596915Y43851D01*
X-595834Y44253D01*
X-594743Y44628D01*
X-593643Y44976D01*
X-592535Y45297D01*
X-591420Y45591D01*
X-590298Y45858D01*
X-589169Y46097D01*
X-588035Y46308D01*
X-586896Y46491D01*
X-585753Y46647D01*
X-584607Y46774D01*
X-583458Y46873D01*
X-582306Y46943D01*
X-581153Y46986D01*
X-580000Y47000D01*
X-578847Y46986D01*
X-577694Y46943D01*
X-576542Y46873D01*
X-575393Y46774D01*
X-574247Y46647D01*
X-573104Y46491D01*
X-571965Y46308D01*
X-570831Y46097D01*
X-569702Y45858D01*
X-568580Y45591D01*
X-567465Y45297D01*
X-566357Y44976D01*
X-565257Y44628D01*
X-564166Y44253D01*
X-563085Y43851D01*
X-562014Y43422D01*
X-560954Y42968D01*
X-559905Y42487D01*
X-558868Y41982D01*
X-557844Y41450D01*
X-556834Y40894D01*
X-555837Y40313D01*
X-554855Y39708D01*
X-553888Y39079D01*
X-552937Y38426D01*
X-552002Y37751D01*
X-551084Y37052D01*
X-550184Y36331D01*
X-549301Y35589D01*
X-548437Y34825D01*
X-547592Y34040D01*
X-546766Y33234D01*
X-545960Y32408D01*
X-545175Y31563D01*
X-544411Y30699D01*
X-543669Y29816D01*
X-542948Y28916D01*
X-542249Y27998D01*
X-541574Y27063D01*
X-540921Y26112D01*
X-540292Y25145D01*
X-539687Y24163D01*
X-539106Y23166D01*
X-538550Y22156D01*
X-538018Y21132D01*
X-537513Y20095D01*
X-537032Y19046D01*
X-536578Y17986D01*
X-536149Y16915D01*
X-535747Y15834D01*
X-535372Y14743D01*
X-535024Y13643D01*
X-534703Y12535D01*
X-534409Y11420D01*
X-534142Y10298D01*
X-533903Y9169D01*
X-533692Y8035D01*
X-533509Y6896D01*
X-533353Y5753D01*
X-533226Y4607D01*
X-533127Y3458D01*
X-533057Y2306D01*
X-533014Y1153D01*
X-533000Y0D01*
X-533014Y-1153D01*
X-533057Y-2306D01*
X-533127Y-3458D01*
X-533226Y-4607D01*
X-533353Y-5753D01*
X-533509Y-6896D01*
X-533692Y-8035D01*
X-533903Y-9169D01*
X-534142Y-10298D01*
X-534409Y-11420D01*
X-534703Y-12535D01*
X-535024Y-13643D01*
X-535372Y-14743D01*
X-535747Y-15834D01*
X-536149Y-16915D01*
X-536578Y-17986D01*
X-537032Y-19046D01*
X-537513Y-20095D01*
X-538018Y-21132D01*
X-538550Y-22156D01*
X-539106Y-23166D01*
X-539687Y-24163D01*
X-540292Y-25145D01*
X-540921Y-26112D01*
X-541574Y-27063D01*
X-542249Y-27998D01*
X-542948Y-28916D01*
X-543669Y-29816D01*
X-544411Y-30699D01*
X-545175Y-31563D01*
X-545960Y-32408D01*
X-546766Y-33234D01*
X-547592Y-34040D01*
X-548437Y-34825D01*
X-549301Y-35589D01*
X-550184Y-36331D01*
X-551084Y-37052D01*
X-552002Y-37751D01*
X-552937Y-38426D01*
X-553888Y-39079D01*
X-554855Y-39708D01*
X-555837Y-40313D01*
X-556834Y-40894D01*
X-557844Y-41450D01*
X-558868Y-41982D01*
X-559905Y-42487D01*
X-560954Y-42968D01*
X-562014Y-43422D01*
X-563085Y-43851D01*
X-564166Y-44253D01*
X-565257Y-44628D01*
X-566357Y-44976D01*
X-567465Y-45297D01*
X-568580Y-45591D01*
X-569702Y-45858D01*
X-570831Y-46097D01*
X-571965Y-46308D01*
X-573104Y-46491D01*
X-574247Y-46647D01*
X-575393Y-46774D01*
X-576542Y-46873D01*
X-577694Y-46943D01*
X-578847Y-46986D01*
X-580000Y-47000D01*
X-581153Y-46986D01*
X-582306Y-46943D01*
X-583458Y-46873D01*
X-584607Y-46774D01*
X-585753Y-46647D01*
X-586896Y-46491D01*
X-588035Y-46308D01*
X-589169Y-46097D01*
X-590298Y-45858D01*
X-591420Y-45591D01*
X-592535Y-45297D01*
X-593643Y-44976D01*
X-594743Y-44628D01*
X-595834Y-44253D01*
X-596915Y-43851D01*
X-597986Y-43422D01*
X-599046Y-42968D01*
X-600095Y-42487D01*
X-601132Y-41982D01*
X-602156Y-41450D01*
X-603166Y-40894D01*
X-604163Y-40313D01*
X-605145Y-39708D01*
X-606112Y-39079D01*
X-607063Y-38426D01*
X-607998Y-37751D01*
X-608916Y-37052D01*
X-609816Y-36331D01*
X-610699Y-35589D01*
X-611563Y-34825D01*
X-612408Y-34040D01*
X-613234Y-33234D01*
X-614040Y-32408D01*
X-614825Y-31563D01*
X-615589Y-30699D01*
X-616331Y-29816D01*
X-617052Y-28916D01*
X-617751Y-27998D01*
X-618426Y-27063D01*
X-619079Y-26112D01*
X-619708Y-25145D01*
X-620313Y-24163D01*
X-620894Y-23166D01*
X-621450Y-22156D01*
X-621982Y-21132D01*
X-622487Y-20095D01*
X-622968Y-19046D01*
X-623422Y-17986D01*
X-623851Y-16915D01*
X-624253Y-15834D01*
X-624628Y-14743D01*
X-624976Y-13643D01*
X-625297Y-12535D01*
X-625591Y-11420D01*
X-625858Y-10298D01*
X-626097Y-9169D01*
X-626308Y-8035D01*
X-626491Y-6896D01*
X-626647Y-5753D01*
X-626774Y-4607D01*
X-626873Y-3458D01*
X-626943Y-2306D01*
X-626986Y-1153D01*
X-627000Y0D01*
X-47000Y-580000D02*
X-46986Y-578847D01*
X-46943Y-577694D01*
X-46873Y-576542D01*
X-46774Y-575393D01*
X-46647Y-574247D01*
X-46491Y-573104D01*
X-46308Y-571965D01*
X-46097Y-570831D01*
X-45858Y-569702D01*
X-45591Y-568580D01*
X-45297Y-567465D01*
X-44976Y-566357D01*
X-44628Y-565257D01*
X-44253Y-564166D01*
X-43851Y-563085D01*
X-43422Y-562014D01*
X-42968Y-560954D01*
X-42487Y-559905D01*
X-41982Y-558868D01*
X-41450Y-557844D01*
X-40894Y-556834D01*
X-40313Y-555837D01*
X-39708Y-554855D01*
X-39079Y-553888D01*
X-38426Y-552937D01*
X-37751Y-552002D01*
X-37052Y-551084D01*
X-36331Y-550184D01*
X-35589Y-549301D01*
X-34825Y-548437D01*
X-34040Y-547592D01*
X-33234Y-546766D01*
X-32408Y-545960D01*
X-31563Y-545175D01*
X-30699Y-544411D01*
X-29816Y-543669D01*
X-28916Y-542948D01*
X-27998Y-542249D01*
X-27063Y-541574D01*
X-26112Y-540921D01*
X-25145Y-540292D01*
X-24163Y-539687D01*
X-23166Y-539106D01*
X-22156Y-538550D01*
X-21132Y-538018D01*
X-20095Y-537513D01*
X-19046Y-537032D01*
X-17986Y-536578D01*
X-16915Y-536149D01*
X-15834Y-535747D01*
X-14743Y-535372D01*
X-13643Y-535024D01*
X-12535Y-534703D01*
X-11420Y-534409D01*
X-10298Y-534142D01*
X-9169Y-533903D01*
X-8035Y-533692D01*
X-6896Y-533509D01*
X-5753Y-533353D01*
X-4607Y-533226D01*
X-3458Y-533127D01*
X-2306Y-533057D01*
X-1153Y-533014D01*
X0Y-533000D01*
X1153Y-533014D01*
X2306Y-533057D01*
X3458Y-533127D01*
X4607Y-533226D01*
X5753Y-533353D01*
X6896Y-533509D01*
X8035Y-533692D01*
X9169Y-533903D01*
X10298Y-534142D01*
X11420Y-534409D01*
X12535Y-534703D01*
X13643Y-535024D01*
X14743Y-535372D01*
X15834Y-535747D01*
X16915Y-536149D01*
X17986Y-536578D01*
X19046Y-537032D01*
X20095Y-537513D01*
X21132Y-538018D01*
X22156Y-538550D01*
X23166Y-539106D01*
X24163Y-539687D01*
X25145Y-540292D01*
X26112Y-540921D01*
X27063Y-541574D01*
X27998Y-542249D01*
X28916Y-542948D01*
X29816Y-543669D01*
X30699Y-544411D01*
X31563Y-545175D01*
X32408Y-545960D01*
X33234Y-546766D01*
X34040Y-547592D01*
X34825Y-548437D01*
X35589Y-549301D01*
X36331Y-550184D01*
X37052Y-551084D01*
X37751Y-552002D01*
X38426Y-552937D01*
X39079Y-553888D01*
X39708Y-554855D01*
X40313Y-555837D01*
X40894Y-556834D01*
X41450Y-557844D01*
X41982Y-558868D01*
X42487Y-559905D01*
X42968Y-560954D01*
X43422Y-562014D01*
X43851Y-563085D01*
X44253Y-564166D01*
X44628Y-565257D01*
X44976Y-566357D01*
X45297Y-567465D01*
X45591Y-568580D01*
X45858Y-569702D01*
X46097Y-570831D01*
X46308Y-571965D01*
X46491Y-573104D01*
X46647Y-574247D01*
X46774Y-575393D01*
X46873Y-576542D01*
X46943Y-577694D01*
X46986Y-578847D01*
X47000Y-580000D01*
X46986Y-581153D01*
X46943Y-582306D01*
X46873Y-583458D01*
X46774Y-584607D01*
X46647Y-585753D01*
X46491Y-586896D01*
X46308Y-588035D01*
X46097Y-589169D01*
X45858Y-590298D01*
X45591Y-591420D01*
X45297Y-592535D01*
X44976Y-593643D01*
X44628Y-594743D01*
X44253Y-595834D01*
X43851Y-596915D01*
X43422Y-597986D01*
X42968Y-599046D01*
X42487Y-600095D01*
X41982Y-601132D01*
X41450Y-602156D01*
X40894Y-603166D01*
X40313Y-604163D01*
X39708Y-605145D01*
X39079Y-606112D01*
X38426Y-607063D01*
X37751Y-607998D01*
X37052Y-608916D01*
X36331Y-609816D01*
X35589Y-610699D01*
X34825Y-611563D01*
X34040Y-612408D01*
X33234Y-613234D01*
X32408Y-614040D01*
X31563Y-614825D01*
X30699Y-615589D01*
X29816Y-616331D01*
X28916Y-617052D01*
X27998Y-617751D01*
X27063Y-618426D01*
X26112Y-619079D01*
X25145Y-619708D01*
X24163Y-620313D01*
X23166Y-620894D01*
X22156Y-621450D01*
X21132Y-621982D01*
X20095Y-622487D01*
X19046Y-622968D01*
X17986Y-623422D01*
X16915Y-623851D01*
X15834Y-624253D01*
X14743Y-624628D01*
X13643Y-624976D01*
X12535Y-625297D01*
X11420Y-625591D01*
X10298Y-625858D01*
X9169Y-626097D01*
X8035Y-626308D01*
X6896Y-626491D01*
X5753Y-626647D01*
X4607Y-626774D01*
X3458Y-626873D01*
X2306Y-626943D01*
X1153Y-626986D01*
X0Y-627000D01*
X-1153Y-626986D01*
X-2306Y-626943D01*
X-3458Y-626873D01*
X-4607Y-626774D01*
X-5753Y-626647D01*
X-6896Y-626491D01*
X-8035Y-626308D01*
X-9169Y-626097D01*
X-10298Y-625858D01*
X-11420Y-625591D01*
X-12535Y-625297D01*
X-13643Y-624976D01*
X-14743Y-624628D01*
X-15834Y-624253D01*
X-16915Y-623851D01*
X-17986Y-623422D01*
X-19046Y-622968D01*
X-20095Y-622487D01*
X-21132Y-621982D01*
X-22156Y-621450D01*
X-23166Y-620894D01*
X-24163Y-620313D01*
X-25145Y-619708D01*
X-26112Y-619079D01*
X-27063Y-618426D01*
X-27998Y-617751D01*
X-28916Y-617052D01*
X-29816Y-616331D01*
X-30699Y-615589D01*
X-31563Y-614825D01*
X-32408Y-614040D01*
X-33234Y-613234D01*
X-34040Y-612408D01*
X-34825Y-611563D01*
X-35589Y-610699D01*
X-36331Y-609816D01*
X-37052Y-608916D01*
X-37751Y-607998D01*
X-38426Y-607063D01*
X-39079Y-606112D01*
X-39708Y-605145D01*
X-40313Y-604163D01*
X-40894Y-603166D01*
X-41450Y-602156D01*
X-41982Y-601132D01*
X-42487Y-600095D01*
X-42968Y-599046D01*
X-43422Y-597986D01*
X-43851Y-596915D01*
X-44253Y-595834D01*
X-44628Y-594743D01*
X-44976Y-593643D01*
X-45297Y-592535D01*
X-45591Y-591420D01*
X-45858Y-590298D01*
X-46097Y-589169D01*
X-46308Y-588035D01*
X-46491Y-586896D01*
X-46647Y-585753D01*
X-46774Y-584607D01*
X-46873Y-583458D01*
X-46943Y-582306D01*
X-46986Y-581153D01*
X-47000Y-580000D01*
D11*
X-980000Y0D02*
X-979705Y24050D01*
X-978820Y48086D01*
X-977345Y72093D01*
X-975281Y96057D01*
X-972630Y119962D01*
X-969393Y143796D01*
X-965572Y167543D01*
X-961170Y191189D01*
X-956188Y214719D01*
X-950631Y238121D01*
X-944501Y261379D01*
X-937802Y284479D01*
X-930538Y307408D01*
X-922713Y330152D01*
X-914333Y352697D01*
X-905402Y375030D01*
X-895926Y397136D01*
X-885910Y419004D01*
X-875360Y440619D01*
X-864283Y461969D01*
X-852685Y483040D01*
X-840574Y503821D01*
X-827956Y524298D01*
X-814840Y544459D01*
X-801233Y564292D01*
X-787143Y583785D01*
X-772579Y602927D01*
X-757550Y621705D01*
X-742065Y640109D01*
X-726132Y658128D01*
X-709762Y675750D01*
X-692965Y692965D01*
X-675750Y709762D01*
X-658128Y726132D01*
X-640109Y742065D01*
X-621705Y757550D01*
X-602927Y772579D01*
X-583785Y787143D01*
X-564292Y801233D01*
X-544459Y814840D01*
X-524298Y827956D01*
X-503821Y840574D01*
X-483040Y852685D01*
X-461969Y864283D01*
X-440619Y875360D01*
X-419004Y885910D01*
X-397136Y895926D01*
X-375030Y905402D01*
X-352697Y914333D01*
X-330152Y922713D01*
X-307408Y930538D01*
X-284479Y937802D01*
X-261379Y944501D01*
X-238121Y950631D01*
X-214719Y956188D01*
X-191189Y961170D01*
X-167543Y965572D01*
X-143796Y969393D01*
X-119962Y972630D01*
X-96057Y975281D01*
X-72093Y977345D01*
X-48086Y978820D01*
X-24050Y979705D01*
X0Y980000D01*
X24050Y979705D01*
X48086Y978820D01*
X72093Y977345D01*
X96057Y975281D01*
X119962Y972630D01*
X143796Y969393D01*
X167543Y965572D01*
X191189Y961170D01*
X214719Y956188D01*
X238121Y950631D01*
X261379Y944501D01*
X284479Y937802D01*
X307408Y930538D01*
X330152Y922713D01*
X352697Y914333D01*
X375030Y905402D01*
X397136Y895926D01*
X419004Y885910D01*
X440619Y875360D01*
X461969Y864283D01*
X483040Y852685D01*
X503821Y840574D01*
X524298Y827956D01*
X544459Y814840D01*
X564292Y801233D01*
X583785Y787143D01*
X602927Y772579D01*
X621705Y757550D01*
X640109Y742065D01*
X658128Y726132D01*
X675750Y709762D01*
X692965Y692965D01*
X709762Y675750D01*
X726132Y658128D01*
X742065Y640109D01*
X757550Y621705D01*
X772579Y602927D01*
X787143Y583785D01*
X801233Y564292D01*
X814840Y544459D01*
X827956Y524298D01*
X840574Y503821D01*
X852685Y483040D01*
X864283Y461969D01*
X875360Y440619D01*
X885910Y419004D01*
X895926Y397136D01*
X905402Y375030D01*
X914333Y352697D01*
X922713Y330152D01*
X930538Y307408D01*
X937802Y284479D01*
X944501Y261379D01*
X950631Y238121D01*
X956188Y214719D01*
X961170Y191189D01*
X965572Y167543D01*
X969393Y143796D01*
X972630Y119962D01*
X975281Y96057D01*
X977345Y72093D01*
X978820Y48086D01*
X979705Y24050D01*
X980000Y0D01*
X979705Y-24050D01*
X978820Y-48086D01*
X977345Y-72093D01*
X975281Y-96057D01*
X972630Y-119962D01*
X969393Y-143796D01*
X965572Y-167543D01*
X961170Y-191189D01*
X956188Y-214719D01*
X950631Y-238121D01*
X944501Y-261379D01*
X937802Y-284479D01*
X930538Y-307408D01*
X922713Y-330152D01*
X914333Y-352697D01*
X905402Y-375030D01*
X895926Y-397136D01*
X885910Y-419004D01*
X875360Y-440619D01*
X864283Y-461969D01*
X852685Y-483040D01*
X840574Y-503821D01*
X827956Y-524298D01*
X814840Y-544459D01*
X801233Y-564292D01*
X787143Y-583785D01*
X772579Y-602927D01*
X757550Y-621705D01*
X742065Y-640109D01*
X726132Y-658128D01*
X709762Y-675750D01*
X692965Y-692965D01*
X675750Y-709762D01*
X658128Y-726132D01*
X640109Y-742065D01*
X621705Y-757550D01*
X602927Y-772579D01*
X583785Y-787143D01*
X564292Y-801233D01*
X544459Y-814840D01*
X524298Y-827956D01*
X503821Y-840574D01*
X483040Y-852685D01*
X461969Y-864283D01*
X440619Y-875360D01*
X419004Y-885910D01*
X397136Y-895926D01*
X375030Y-905402D01*
X352697Y-914333D01*
X330152Y-922713D01*
X307408Y-930538D01*
X284479Y-937802D01*
X261379Y-944501D01*
X238121Y-950631D01*
X214719Y-956188D01*
X191189Y-961170D01*
X167543Y-965572D01*
X143796Y-969393D01*
X119962Y-972630D01*
X96057Y-975281D01*
X72093Y-977345D01*
X48086Y-978820D01*
X24050Y-979705D01*
X0Y-980000D01*
X-24050Y-979705D01*
X-48086Y-978820D01*
X-72093Y-977345D01*
X-96057Y-975281D01*
X-119962Y-972630D01*
X-143796Y-969393D01*
X-167543Y-965572D01*
X-191189Y-961170D01*
X-214719Y-956188D01*
X-238121Y-950631D01*
X-261379Y-944501D01*
X-284479Y-937802D01*
X-307408Y-930538D01*
X-330152Y-922713D01*
X-352697Y-914333D01*
X-375030Y-905402D01*
X-397136Y-895926D01*
X-419004Y-885910D01*
X-440619Y-875360D01*
X-461969Y-864283D01*
X-483040Y-852685D01*
X-503821Y-840574D01*
X-524298Y-827956D01*
X-544459Y-814840D01*
X-564292Y-801233D01*
X-583785Y-787143D01*
X-602927Y-772579D01*
X-621705Y-757550D01*
X-640109Y-742065D01*
X-658128Y-726132D01*
X-675750Y-709762D01*
X-692965Y-692965D01*
X-709762Y-675750D01*
X-726132Y-658128D01*
X-742065Y-640109D01*
X-757550Y-621705D01*
X-772579Y-602927D01*
X-787143Y-583785D01*
X-801233Y-564292D01*
X-814840Y-544459D01*
X-827956Y-524298D01*
X-840574Y-503821D01*
X-852685Y-483040D01*
X-864283Y-461969D01*
X-875360Y-440619D01*
X-885910Y-419004D01*
X-895926Y-397136D01*
X-905402Y-375030D01*
X-914333Y-352697D01*
X-922713Y-330152D01*
X-930538Y-307408D01*
X-937802Y-284479D01*
X-944501Y-261379D01*
X-950631Y-238121D01*
X-956188Y-214719D01*
X-961170Y-191189D01*
X-965572Y-167543D01*
X-969393Y-143796D01*
X-972630Y-119962D01*
X-975281Y-96057D01*
X-977345Y-72093D01*
X-978820Y-48086D01*
X-979705Y-24050D01*
X-980000Y0D01*
X-350000Y0D02*
X-349895Y8589D01*
X-349578Y17174D01*
X-349052Y25748D01*
X-348315Y34306D01*
X-347368Y42844D01*
X-346212Y51356D01*
X-344847Y59837D01*
X-343275Y68282D01*
X-341496Y76685D01*
X-339511Y85043D01*
X-337322Y93349D01*
X-334929Y101600D01*
X-332335Y109789D01*
X-329540Y117911D01*
X-326547Y125963D01*
X-323358Y133939D01*
X-319973Y141834D01*
X-316396Y149644D01*
X-312629Y157364D01*
X-308672Y164989D01*
X-304530Y172514D01*
X-300205Y179936D01*
X-295699Y187249D01*
X-291014Y194450D01*
X-286155Y201533D01*
X-281123Y208495D01*
X-275921Y215331D01*
X-270554Y222038D01*
X-265023Y228610D01*
X-259333Y235046D01*
X-253486Y241339D01*
X-247487Y247487D01*
X-241339Y253486D01*
X-235046Y259333D01*
X-228610Y265023D01*
X-222038Y270554D01*
X-215331Y275921D01*
X-208495Y281123D01*
X-201533Y286155D01*
X-194450Y291014D01*
X-187249Y295699D01*
X-179936Y300205D01*
X-172514Y304530D01*
X-164989Y308672D01*
X-157364Y312629D01*
X-149644Y316396D01*
X-141834Y319973D01*
X-133939Y323358D01*
X-125963Y326547D01*
X-117911Y329540D01*
X-109789Y332335D01*
X-101600Y334929D01*
X-93349Y337322D01*
X-85043Y339511D01*
X-76685Y341496D01*
X-68282Y343275D01*
X-59837Y344847D01*
X-51356Y346212D01*
X-42844Y347368D01*
X-34306Y348315D01*
X-25748Y349052D01*
X-17174Y349578D01*
X-8589Y349895D01*
X0Y350000D01*
X8589Y349895D01*
X17174Y349578D01*
X25748Y349052D01*
X34306Y348315D01*
X42844Y347368D01*
X51356Y346212D01*
X59837Y344847D01*
X68282Y343275D01*
X76685Y341496D01*
X85043Y339511D01*
X93349Y337322D01*
X101600Y334929D01*
X109789Y332335D01*
X117911Y329540D01*
X125963Y326547D01*
X133939Y323358D01*
X141834Y319973D01*
X149644Y316396D01*
X157364Y312629D01*
X164989Y308672D01*
X172514Y304530D01*
X179936Y300205D01*
X187249Y295699D01*
X194450Y291014D01*
X201533Y286155D01*
X208495Y281123D01*
X215331Y275921D01*
X222038Y270554D01*
X228610Y265023D01*
X235046Y259333D01*
X241339Y253486D01*
X247487Y247487D01*
X253486Y241339D01*
X259333Y235046D01*
X265023Y228610D01*
X270554Y222038D01*
X275921Y215331D01*
X281123Y208495D01*
X286155Y201533D01*
X291014Y194450D01*
X295699Y187249D01*
X300205Y179936D01*
X304530Y172514D01*
X308672Y164989D01*
X312629Y157364D01*
X316396Y149644D01*
X319973Y141834D01*
X323358Y133939D01*
X326547Y125963D01*
X329540Y117911D01*
X332335Y109789D01*
X334929Y101600D01*
X337322Y93349D01*
X339511Y85043D01*
X341496Y76685D01*
X343275Y68282D01*
X344847Y59837D01*
X346212Y51356D01*
X347368Y42844D01*
X348315Y34306D01*
X349052Y25748D01*
X349578Y17174D01*
X349895Y8589D01*
X350000Y0D01*
X349895Y-8589D01*
X349578Y-17174D01*
X349052Y-25748D01*
X348315Y-34306D01*
X347368Y-42844D01*
X346212Y-51356D01*
X344847Y-59837D01*
X343275Y-68282D01*
X341496Y-76685D01*
X339511Y-85043D01*
X337322Y-93349D01*
X334929Y-101600D01*
X332335Y-109789D01*
X329540Y-117911D01*
X326547Y-125963D01*
X323358Y-133939D01*
X319973Y-141834D01*
X316396Y-149644D01*
X312629Y-157364D01*
X308672Y-164989D01*
X304530Y-172514D01*
X300205Y-179936D01*
X295699Y-187249D01*
X291014Y-194450D01*
X286155Y-201533D01*
X281123Y-208495D01*
X275921Y-215331D01*
X270554Y-222038D01*
X265023Y-228610D01*
X259333Y-235046D01*
X253486Y-241339D01*
X247487Y-247487D01*
X241339Y-253486D01*
X235046Y-259333D01*
X228610Y-265023D01*
X222038Y-270554D01*
X215331Y-275921D01*
X208495Y-281123D01*
X201533Y-286155D01*
X194450Y-291014D01*
X187249Y-295699D01*
X179936Y-300205D01*
X172514Y-304530D01*
X164989Y-308672D01*
X157364Y-312629D01*
X149644Y-316396D01*
X141834Y-319973D01*
X133939Y-323358D01*
X125963Y-326547D01*
X117911Y-329540D01*
X109789Y-332335D01*
X101600Y-334929D01*
X93349Y-337322D01*
X85043Y-339511D01*
X76685Y-341496D01*
X68282Y-343275D01*
X59837Y-344847D01*
X51356Y-346212D01*
X42844Y-347368D01*
X34306Y-348315D01*
X25748Y-349052D01*
X17174Y-349578D01*
X8589Y-349895D01*
X0Y-350000D01*
X-8589Y-349895D01*
X-17174Y-349578D01*
X-25748Y-349052D01*
X-34306Y-348315D01*
X-42844Y-347368D01*
X-51356Y-346212D01*
X-59837Y-344847D01*
X-68282Y-343275D01*
X-76685Y-341496D01*
X-85043Y-339511D01*
X-93349Y-337322D01*
X-101600Y-334929D01*
X-109789Y-332335D01*
X-117911Y-329540D01*
X-125963Y-326547D01*
X-133939Y-323358D01*
X-141834Y-319973D01*
X-149644Y-316396D01*
X-157364Y-312629D01*
X-164989Y-308672D01*
X-172514Y-304530D01*
X-179936Y-300205D01*
X-187249Y-295699D01*
X-194450Y-291014D01*
X-201533Y-286155D01*
X-208495Y-281123D01*
X-215331Y-275921D01*
X-222038Y-270554D01*
X-228610Y-265023D01*
X-235046Y-259333D01*
X-241339Y-253486D01*
X-247487Y-247487D01*
X-253486Y-241339D01*
X-259333Y-235046D01*
X-265023Y-228610D01*
X-270554Y-222038D01*
X-275921Y-215331D01*
X-281123Y-208495D01*
X-286155Y-201533D01*
X-291014Y-194450D01*
X-295699Y-187249D01*
X-300205Y-179936D01*
X-304530Y-172514D01*
X-308672Y-164989D01*
X-312629Y-157364D01*
X-316396Y-149644D01*
X-319973Y-141834D01*
X-323358Y-133939D01*
X-326547Y-125963D01*
X-329540Y-117911D01*
X-332335Y-109789D01*
X-334929Y-101600D01*
X-337322Y-93349D01*
X-339511Y-85043D01*
X-341496Y-76685D01*
X-343275Y-68282D01*
X-344847Y-59837D01*
X-346212Y-51356D01*
X-347368Y-42844D01*
X-348315Y-34306D01*
X-349052Y-25748D01*
X-349578Y-17174D01*
X-349895Y-8589D01*
X-350000Y0D01*
D12*
X980000Y-12027D02*
X980000Y12027D01*
X979410Y36074D01*
X978229Y60099D01*
X976460Y84088D01*
X974102Y108026D01*
X971158Y131899D01*
X967628Y155693D01*
X963516Y179393D01*
X958823Y202984D01*
X953553Y226454D01*
X947708Y249787D01*
X941293Y272970D01*
X934310Y295988D01*
X926765Y318828D01*
X918661Y341476D01*
X910004Y363918D01*
X900799Y386141D01*
X891052Y408132D01*
X880767Y429876D01*
X869952Y451362D01*
X858613Y472576D01*
X846757Y493505D01*
X834391Y514137D01*
X821522Y534459D01*
X808158Y554459D01*
X794308Y574125D01*
X779979Y593446D01*
X765180Y612408D01*
X749920Y631002D01*
X734209Y649216D01*
X718055Y667039D01*
X701469Y684460D01*
X684460Y701469D01*
X667039Y718055D01*
X649216Y734209D01*
X631002Y749920D01*
X612408Y765180D01*
X593446Y779979D01*
X574125Y794308D01*
X554459Y808158D01*
X534459Y821522D01*
X514137Y834391D01*
X493505Y846757D01*
X472576Y858613D01*
X451362Y869952D01*
X429876Y880767D01*
X408132Y891052D01*
X386141Y900799D01*
X363918Y910004D01*
X341476Y918661D01*
X318828Y926765D01*
X295988Y934310D01*
X272970Y941293D01*
X249787Y947708D01*
X226454Y953553D01*
X202984Y958823D01*
X179393Y963516D01*
X155693Y967628D01*
X131899Y971158D01*
X108026Y974102D01*
X84088Y976460D01*
X60099Y978229D01*
X36074Y979410D01*
X12027Y980000D01*
X-12027Y980000D01*
X-36074Y979410D01*
X-60099Y978229D01*
X-84088Y976460D01*
X-108026Y974102D01*
X-131899Y971158D01*
X-155693Y967628D01*
X-179393Y963516D01*
X-202984Y958823D01*
X-226454Y953553D01*
X-249787Y947708D01*
X-272970Y941293D01*
X-295988Y934310D01*
X-318828Y926765D01*
X-341476Y918661D01*
X-363918Y910004D01*
X-386141Y900799D01*
X-408132Y891052D01*
X-429876Y880767D01*
X-451362Y869952D01*
X-472576Y858613D01*
X-493505Y846757D01*
X-514137Y834391D01*
X-534459Y821522D01*
X-554459Y808158D01*
X-574125Y794308D01*
X-593446Y779979D01*
X-612408Y765180D01*
X-631002Y749920D01*
X-649216Y734209D01*
X-667039Y718055D01*
X-684460Y701469D01*
X-701469Y684460D01*
X-718055Y667039D01*
X-734209Y649216D01*
X-749920Y631002D01*
X-765180Y612408D01*
X-779979Y593446D01*
X-794308Y574125D01*
X-808158Y554459D01*
X-821522Y534459D01*
X-834391Y514137D01*
X-846757Y493505D01*
X-858613Y472576D01*
X-869952Y451362D01*
X-880767Y429876D01*
X-891052Y408132D01*
X-900799Y386141D01*
X-910004Y363918D01*
X-918661Y341476D01*
X-926765Y318828D01*
X-934310Y295988D01*
X-941293Y272970D01*
X-947708Y249787D01*
X-953553Y226454D01*
X-958823Y202984D01*
X-963516Y179393D01*
X-967628Y155693D01*
X-971158Y131899D01*
X-974102Y108026D01*
X-976460Y84088D01*
X-978229Y60099D01*
X-979410Y36074D01*
X-980000Y12027D01*
X-980000Y-12027D01*
X-979410Y-36074D01*
X-978229Y-60099D01*
X-976460Y-84088D01*
X-974102Y-108026D01*
X-971158Y-131899D01*
X-967628Y-155693D01*
X-963516Y-179393D01*
X-958823Y-202984D01*
X-953553Y-226454D01*
X-947708Y-249787D01*
X-941293Y-272970D01*
X-934310Y-295988D01*
X-926765Y-318828D01*
X-918661Y-341476D01*
X-910004Y-363918D01*
X-900799Y-386141D01*
X-891052Y-408132D01*
X-880767Y-429876D01*
X-869952Y-451362D01*
X-858613Y-472576D01*
X-846757Y-493505D01*
X-834391Y-514137D01*
X-821522Y-534459D01*
X-808158Y-554459D01*
X-794308Y-574125D01*
X-779979Y-593446D01*
X-765180Y-612408D01*
X-749920Y-631002D01*
X-734209Y-649216D01*
X-718055Y-667039D01*
X-701469Y-684460D01*
X-684460Y-701469D01*
X-667039Y-718055D01*
X-649216Y-734209D01*
X-631002Y-749920D01*
X-612408Y-765180D01*
X-593446Y-779979D01*
X-574125Y-794308D01*
X-554459Y-808158D01*
X-534459Y-821522D01*
X-514137Y-834391D01*
X-493505Y-846757D01*
X-472576Y-858613D01*
X-451362Y-869952D01*
X-429876Y-880767D01*
X-408132Y-891052D01*
X-386141Y-900799D01*
X-363918Y-910004D01*
X-341476Y-918661D01*
X-318828Y-926765D01*
X-295988Y-934310D01*
X-272970Y-941293D01*
X-249787Y-947708D01*
X-226454Y-953553D01*
X-202984Y-958823D01*
X-179393Y-963516D01*
X-155693Y-967628D01*
X-131899Y-971158D01*
X-108026Y-974102D01*
X-84088Y-976460D01*
X-60099Y-978229D01*
X-36074Y-979410D01*
X-12027Y-980000D01*
X12027Y-980000D01*
X36074Y-979410D01*
X60099Y-978229D01*
X84088Y-976460D01*
X108026Y-974102D01*
X131899Y-971158D01*
X155693Y-967628D01*
X179393Y-963516D01*
X202984Y-958823D01*
X226454Y-953553D01*
X249787Y-947708D01*
X272970Y-941293D01*
X295988Y-934310D01*
X318828Y-926765D01*
X341476Y-918661D01*
X363918Y-910004D01*
X386141Y-900799D01*
X408132Y-891052D01*
X429876Y-880767D01*
X451362Y-869952D01*
X472576Y-858613D01*
X493505Y-846757D01*
X514137Y-834391D01*
X534459Y-821522D01*
X554459Y-808158D01*
X574125Y-794308D01*
X593446Y-779979D01*
X612408Y-765180D01*
X631002Y-749920D01*
X649216Y-734209D01*
X667039Y-718055D01*
X684460Y-701469D01*
X701469Y-684460D01*
X718055Y-667039D01*
X734209Y-649216D01*
X749920Y-631002D01*
X765180Y-612408D01*
X779979Y-593446D01*
X794308Y-574125D01*
X808158Y-554459D01*
X821522Y-534459D01*
X834391Y-514137D01*
X846757Y-493505D01*
X858613Y-472576D01*
X869952Y-451362D01*
X880767Y-429876D01*
X891052Y-408132D01*
X900799Y-386141D01*
X910004Y-363918D01*
X918661Y-341476D01*
X926765Y-318828D01*
X934310Y-295988D01*
X941293Y-272970D01*
X947708Y-249787D01*
X953553Y-226454D01*
X958823Y-202984D01*
X963516Y-179393D01*
X967628Y-155693D01*
X971158Y-131899D01*
X974102Y-108026D01*
X976460Y-84088D01*
X978229Y-60099D01*
X979410Y-36074D01*
X980000Y-12027D01*
X627000Y-923D02*
X627000Y923D01*
X626928Y2767D01*
X626783Y4608D01*
X626566Y6441D01*
X626277Y8264D01*
X625917Y10074D01*
X625486Y11869D01*
X624985Y13646D01*
X624414Y15402D01*
X623776Y17133D01*
X623069Y18839D01*
X622296Y20515D01*
X621458Y22160D01*
X620556Y23770D01*
X619592Y25344D01*
X618566Y26879D01*
X617481Y28373D01*
X616339Y29822D01*
X615140Y31226D01*
X613887Y32581D01*
X612581Y33887D01*
X611226Y35140D01*
X609822Y36339D01*
X608373Y37481D01*
X606879Y38566D01*
X605344Y39592D01*
X603770Y40556D01*
X602160Y41458D01*
X600515Y42296D01*
X598839Y43069D01*
X597133Y43776D01*
X595402Y44414D01*
X593646Y44985D01*
X591869Y45486D01*
X590074Y45917D01*
X588264Y46277D01*
X586441Y46566D01*
X584608Y46783D01*
X582767Y46928D01*
X580923Y47000D01*
X579077Y47000D01*
X577233Y46928D01*
X575392Y46783D01*
X573559Y46566D01*
X571736Y46277D01*
X569926Y45917D01*
X568131Y45486D01*
X566354Y44985D01*
X564598Y44414D01*
X562867Y43776D01*
X561161Y43069D01*
X559485Y42296D01*
X557840Y41458D01*
X556230Y40556D01*
X554656Y39592D01*
X553121Y38566D01*
X551627Y37481D01*
X550178Y36339D01*
X548774Y35140D01*
X547419Y33887D01*
X546113Y32581D01*
X544860Y31226D01*
X543662Y29822D01*
X542519Y28373D01*
X541434Y26879D01*
X540408Y25344D01*
X539444Y23770D01*
X538542Y22160D01*
X537704Y20515D01*
X536931Y18839D01*
X536224Y17133D01*
X535586Y15402D01*
X535015Y13646D01*
X534514Y11869D01*
X534083Y10074D01*
X533723Y8264D01*
X533434Y6441D01*
X533217Y4608D01*
X533072Y2767D01*
X533000Y923D01*
X533000Y-923D01*
X533072Y-2767D01*
X533217Y-4608D01*
X533434Y-6441D01*
X533723Y-8264D01*
X534083Y-10074D01*
X534514Y-11869D01*
X535015Y-13646D01*
X535586Y-15402D01*
X536224Y-17133D01*
X536931Y-18839D01*
X537704Y-20515D01*
X538542Y-22160D01*
X539444Y-23770D01*
X540408Y-25344D01*
X541434Y-26879D01*
X542519Y-28373D01*
X543662Y-29822D01*
X544860Y-31226D01*
X546113Y-32581D01*
X547419Y-33887D01*
X548774Y-35140D01*
X550178Y-36339D01*
X551627Y-37481D01*
X553121Y-38566D01*
X554656Y-39592D01*
X556230Y-40556D01*
X557840Y-41458D01*
X559485Y-42296D01*
X561161Y-43069D01*
X562867Y-43776D01*
X564598Y-44414D01*
X566354Y-44985D01*
X568131Y-45486D01*
X569926Y-45917D01*
X571736Y-46277D01*
X573559Y-46566D01*
X575392Y-46783D01*
X577233Y-46928D01*
X579077Y-47000D01*
X580923Y-47000D01*
X582767Y-46928D01*
X584608Y-46783D01*
X586441Y-46566D01*
X588264Y-46277D01*
X590074Y-45917D01*
X591869Y-45486D01*
X593646Y-44985D01*
X595402Y-44414D01*
X597133Y-43776D01*
X598839Y-43069D01*
X600515Y-42296D01*
X602160Y-41458D01*
X603770Y-40556D01*
X605344Y-39592D01*
X606879Y-38566D01*
X608373Y-37481D01*
X609822Y-36339D01*
X611226Y-35140D01*
X612581Y-33887D01*
X613887Y-32581D01*
X615140Y-31226D01*
X616339Y-29822D01*
X617481Y-28373D01*
X618566Y-26879D01*
X619592Y-25344D01*
X620556Y-23770D01*
X621458Y-22160D01*
X622296Y-20515D01*
X623069Y-18839D01*
X623776Y-17133D01*
X624414Y-15402D01*
X624985Y-13646D01*
X625486Y-11869D01*
X625917Y-10074D01*
X626277Y-8264D01*
X626566Y-6441D01*
X626783Y-4608D01*
X626928Y-2767D01*
X627000Y-923D01*
X47000Y579077D02*
X47000Y580923D01*
X46928Y582767D01*
X46783Y584608D01*
X46566Y586441D01*
X46277Y588264D01*
X45917Y590074D01*
X45486Y591869D01*
X44985Y593646D01*
X44414Y595402D01*
X43776Y597133D01*
X43069Y598839D01*
X42296Y600515D01*
X41458Y602160D01*
X40556Y603770D01*
X39592Y605344D01*
X38566Y606879D01*
X37481Y608373D01*
X36339Y609822D01*
X35140Y611226D01*
X33887Y612581D01*
X32581Y613887D01*
X31226Y615140D01*
X29822Y616339D01*
X28373Y617481D01*
X26879Y618566D01*
X25344Y619592D01*
X23770Y620556D01*
X22160Y621458D01*
X20515Y622296D01*
X18839Y623069D01*
X17133Y623776D01*
X15402Y624414D01*
X13646Y624985D01*
X11869Y625486D01*
X10074Y625917D01*
X8264Y626277D01*
X6441Y626566D01*
X4608Y626783D01*
X2767Y626928D01*
X923Y627000D01*
X-923Y627000D01*
X-2767Y626928D01*
X-4608Y626783D01*
X-6441Y626566D01*
X-8264Y626277D01*
X-10074Y625917D01*
X-11869Y625486D01*
X-13646Y624985D01*
X-15402Y624414D01*
X-17133Y623776D01*
X-18839Y623069D01*
X-20515Y622296D01*
X-22160Y621458D01*
X-23770Y620556D01*
X-25344Y619592D01*
X-26879Y618566D01*
X-28373Y617481D01*
X-29822Y616339D01*
X-31226Y615140D01*
X-32581Y613887D01*
X-33887Y612581D01*
X-35140Y611226D01*
X-36339Y609822D01*
X-37481Y608373D01*
X-38566Y606879D01*
X-39592Y605344D01*
X-40556Y603770D01*
X-41458Y602160D01*
X-42296Y600515D01*
X-43069Y598839D01*
X-43776Y597133D01*
X-44414Y595402D01*
X-44985Y593646D01*
X-45486Y591869D01*
X-45917Y590074D01*
X-46277Y588264D01*
X-46566Y586441D01*
X-46783Y584608D01*
X-46928Y582767D01*
X-47000Y580923D01*
X-47000Y579077D01*
X-46928Y577233D01*
X-46783Y575392D01*
X-46566Y573559D01*
X-46277Y571736D01*
X-45917Y569926D01*
X-45486Y568131D01*
X-44985Y566354D01*
X-44414Y564598D01*
X-43776Y562867D01*
X-43069Y561161D01*
X-42296Y559485D01*
X-41458Y557840D01*
X-40556Y556230D01*
X-39592Y554656D01*
X-38566Y553121D01*
X-37481Y551627D01*
X-36339Y550178D01*
X-35140Y548774D01*
X-33887Y547419D01*
X-32581Y546113D01*
X-31226Y544860D01*
X-29822Y543662D01*
X-28373Y542519D01*
X-26879Y541434D01*
X-25344Y540408D01*
X-23770Y539444D01*
X-22160Y538542D01*
X-20515Y537704D01*
X-18839Y536931D01*
X-17133Y536224D01*
X-15402Y535586D01*
X-13646Y535015D01*
X-11869Y534514D01*
X-10074Y534083D01*
X-8264Y533723D01*
X-6441Y533434D01*
X-4608Y533217D01*
X-2767Y533072D01*
X-923Y533000D01*
X923Y533000D01*
X2767Y533072D01*
X4608Y533217D01*
X6441Y533434D01*
X8264Y533723D01*
X10074Y534083D01*
X11869Y534514D01*
X13646Y535015D01*
X15402Y535586D01*
X17133Y536224D01*
X18839Y536931D01*
X20515Y537704D01*
X22160Y538542D01*
X23770Y539444D01*
X25344Y540408D01*
X26879Y541434D01*
X28373Y542519D01*
X29822Y543662D01*
X31226Y544860D01*
X32581Y546113D01*
X33887Y547419D01*
X35140Y548774D01*
X36339Y550178D01*
X37481Y551627D01*
X38566Y553121D01*
X39592Y554656D01*
X40556Y556230D01*
X41458Y557840D01*
X42296Y559485D01*
X43069Y561161D01*
X43776Y562867D01*
X44414Y564598D01*
X44985Y566354D01*
X45486Y568131D01*
X45917Y569926D01*
X46277Y571736D01*
X46566Y573559D01*
X46783Y575392D01*
X46928Y577233D01*
X47000Y579077D01*
X-533000Y-923D02*
X-533000Y923D01*
X-533072Y2767D01*
X-533217Y4608D01*
X-533434Y6441D01*
X-533723Y8264D01*
X-534083Y10074D01*
X-534514Y11869D01*
X-535015Y13646D01*
X-535586Y15402D01*
X-536224Y17133D01*
X-536931Y18839D01*
X-537704Y20515D01*
X-538542Y22160D01*
X-539444Y23770D01*
X-540408Y25344D01*
X-541434Y26879D01*
X-542519Y28373D01*
X-543662Y29822D01*
X-544860Y31226D01*
X-546113Y32581D01*
X-547419Y33887D01*
X-548774Y35140D01*
X-550178Y36339D01*
X-551627Y37481D01*
X-553121Y38566D01*
X-554656Y39592D01*
X-556230Y40556D01*
X-557840Y41458D01*
X-559485Y42296D01*
X-561161Y43069D01*
X-562867Y43776D01*
X-564598Y44414D01*
X-566354Y44985D01*
X-568131Y45486D01*
X-569926Y45917D01*
X-571736Y46277D01*
X-573559Y46566D01*
X-575392Y46783D01*
X-577233Y46928D01*
X-579077Y47000D01*
X-580923Y47000D01*
X-582767Y46928D01*
X-584608Y46783D01*
X-586441Y46566D01*
X-588264Y46277D01*
X-590074Y45917D01*
X-591869Y45486D01*
X-593646Y44985D01*
X-595402Y44414D01*
X-597133Y43776D01*
X-598839Y43069D01*
X-600515Y42296D01*
X-602160Y41458D01*
X-603770Y40556D01*
X-605344Y39592D01*
X-606879Y38566D01*
X-608373Y37481D01*
X-609822Y36339D01*
X-611226Y35140D01*
X-612581Y33887D01*
X-613887Y32581D01*
X-615140Y31226D01*
X-616339Y29822D01*
X-617481Y28373D01*
X-618566Y26879D01*
X-619592Y25344D01*
X-620556Y23770D01*
X-621458Y22160D01*
X-622296Y20515D01*
X-623069Y18839D01*
X-623776Y17133D01*
X-624414Y15402D01*
X-624985Y13646D01*
X-625486Y11869D01*
X-625917Y10074D01*
X-626277Y8264D01*
X-626566Y6441D01*
X-626783Y4608D01*
X-626928Y2767D01*
X-627000Y923D01*
X-627000Y-923D01*
X-626928Y-2767D01*
X-626783Y-4608D01*
X-626566Y-6441D01*
X-626277Y-8264D01*
X-625917Y-10074D01*
X-625486Y-11869D01*
X-624985Y-13646D01*
X-624414Y-15402D01*
X-623776Y-17133D01*
X-623069Y-18839D01*
X-622296Y-20515D01*
X-621458Y-22160D01*
X-620556Y-23770D01*
X-619592Y-25344D01*
X-618566Y-26879D01*
X-617481Y-28373D01*
X-616339Y-29822D01*
X-615140Y-31226D01*
X-613887Y-32581D01*
X-612581Y-33887D01*
X-611226Y-35140D01*
X-609822Y-36339D01*
X-608373Y-37481D01*
X-606879Y-38566D01*
X-605344Y-39592D01*
X-603770Y-40556D01*
X-602160Y-41458D01*
X-600515Y-42296D01*
X-598839Y-43069D01*
X-597133Y-43776D01*
X-595402Y-44414D01*
X-593646Y-44985D01*
X-591869Y-45486D01*
X-590074Y-45917D01*
X-588264Y-46277D01*
X-586441Y-46566D01*
X-584608Y-46783D01*
X-582767Y-46928D01*
X-580923Y-47000D01*
X-579077Y-47000D01*
X-577233Y-46928D01*
X-575392Y-46783D01*
X-573559Y-46566D01*
X-571736Y-46277D01*
X-569926Y-45917D01*
X-568131Y-45486D01*
X-566354Y-44985D01*
X-564598Y-44414D01*
X-562867Y-43776D01*
X-561161Y-43069D01*
X-559485Y-42296D01*
X-557840Y-41458D01*
X-556230Y-40556D01*
X-554656Y-39592D01*
X-553121Y-38566D01*
X-551627Y-37481D01*
X-550178Y-36339D01*
X-548774Y-35140D01*
X-547419Y-33887D01*
X-546113Y-32581D01*
X-544860Y-31226D01*
X-543662Y-29822D01*
X-542519Y-28373D01*
X-541434Y-26879D01*
X-540408Y-25344D01*
X-539444Y-23770D01*
X-538542Y-22160D01*
X-537704Y-20515D01*
X-536931Y-18839D01*
X-536224Y-17133D01*
X-535586Y-15402D01*
X-535015Y-13646D01*
X-534514Y-11869D01*
X-534083Y-10074D01*
X-533723Y-8264D01*
X-533434Y-6441D01*
X-533217Y-4608D01*
X-533072Y-2767D01*
X-533000Y-923D01*
X47000Y-580923D02*
X47000Y-579077D01*
X46928Y-577233D01*
X46783Y-575392D01*
X46566Y-573559D01*
X46277Y-571736D01*
X45917Y-569926D01*
X45486Y-568131D01*
X44985Y-566354D01*
X44414Y-564598D01*
X43776Y-562867D01*
X43069Y-561161D01*
X42296Y-559485D01*
X41458Y-557840D01*
X40556Y-556230D01*
X39592Y-554656D01*
X38566Y-553121D01*
X37481Y-551627D01*
X36339Y-550178D01*
X35140Y-548774D01*
X33887Y-547419D01*
X32581Y-546113D01*
X31226Y-544860D01*
X29822Y-543662D01*
X28373Y-542519D01*
X26879Y-541434D01*
X25344Y-540408D01*
X23770Y-539444D01*
X22160Y-538542D01*
X20515Y-537704D01*
X18839Y-536931D01*
X17133Y-536224D01*
X15402Y-535586D01*
X13646Y-535015D01*
X11869Y-534514D01*
X10074Y-534083D01*
X8264Y-533723D01*
X6441Y-533434D01*
X4608Y-533217D01*
X2767Y-533072D01*
X923Y-533000D01*
X-923Y-533000D01*
X-2767Y-533072D01*
X-4608Y-533217D01*
X-6441Y-533434D01*
X-8264Y-533723D01*
X-10074Y-534083D01*
X-11869Y-534514D01*
X-13646Y-535015D01*
X-15402Y-535586D01*
X-17133Y-536224D01*
X-18839Y-536931D01*
X-20515Y-537704D01*
X-22160Y-538542D01*
X-23770Y-539444D01*
X-25344Y-540408D01*
X-26879Y-541434D01*
X-28373Y-542519D01*
X-29822Y-543662D01*
X-31226Y-544860D01*
X-32581Y-546113D01*
X-33887Y-547419D01*
X-35140Y-548774D01*
X-36339Y-550178D01*
X-37481Y-551627D01*
X-38566Y-553121D01*
X-39592Y-554656D01*
X-40556Y-556230D01*
X-41458Y-557840D01*
X-42296Y-559485D01*
X-43069Y-561161D01*
X-43776Y-562867D01*
X-44414Y-564598D01*
X-44985Y-566354D01*
X-45486Y-568131D01*
X-45917Y-569926D01*
X-46277Y-571736D01*
X-46566Y-573559D01*
X-46783Y-575392D01*
X-46928Y-577233D01*
X-47000Y-579077D01*
X-47000Y-580923D01*
X-46928Y-582767D01*
X-46783Y-584608D01*
X-46566Y-586441D01*
X-46277Y-588264D01*
X-45917Y-590074D01*
X-45486Y-591869D01*
X-44985Y-593646D01*
X-44414Y-595402D01*
X-43776Y-597133D01*
X-43069Y-598839D01*
X-42296Y-600515D01*
X-41458Y-602160D01*
X-40556Y-603770D01*
X-39592Y-605344D01*
X-38566Y-606879D01*
X-37481Y-608373D01*
X-36339Y-609822D01*
X-35140Y-611226D01*
X-33887Y-612581D01*
X-32581Y-613887D01*
X-31226Y-615140D01*
X-29822Y-616339D01*
X-28373Y-617481D01*
X-26879Y-618566D01*
X-25344Y-619592D01*
X-23770Y-620556D01*
X-22160Y-621458D01*
X-20515Y-622296D01*
X-18839Y-623069D01*
X-17133Y-623776D01*
X-15402Y-624414D01*
X-13646Y-624985D01*
X-11869Y-625486D01*
X-10074Y-625917D01*
X-8264Y-626277D01*
X-6441Y-626566D01*
X-4608Y-626783D01*
X-2767Y-626928D01*
X-923Y-627000D01*
X923Y-627000D01*
X2767Y-626928D01*
X4608Y-626783D01*
X6441Y-626566D01*
X8264Y-626277D01*
X10074Y-625917D01*
X11869Y-625486D01*
X13646Y-624985D01*
X15402Y-624414D01*
X17133Y-623776D01*
X18839Y-623069D01*
X20515Y-622296D01*
X22160Y-621458D01*
X23770Y-620556D01*
X25344Y-619592D01*
X26879Y-618566D01*
X28373Y-617481D01*
X29822Y-616339D01*
X31226Y-615140D01*
X32581Y-613887D01*
X33887Y-612581D01*
X35140Y-611226D01*
X36339Y-609822D01*
X37481Y-608373D01*
X38566Y-606879D01*
X39592Y-605344D01*
X40556Y-603770D01*
X41458Y-602160D01*
X42296Y-600515D01*
X43069Y-598839D01*
X43776Y-597133D01*
X44414Y-595402D01*
X44985Y-593646D01*
X45486Y-591869D01*
X45917Y-590074D01*
X46277Y-588264D01*
X46566Y-586441D01*
X46783Y-584608D01*
X46928Y-582767D01*
X47000Y-580923D01*
X350000Y-4295D02*
X350000Y4295D01*
X349789Y12884D01*
X349368Y21464D01*
X348736Y30031D01*
X347894Y38581D01*
X346842Y47107D01*
X345582Y55605D01*
X344113Y64069D01*
X342437Y72494D01*
X340555Y80876D01*
X338467Y89210D01*
X336176Y97489D01*
X333682Y105710D01*
X330988Y113867D01*
X328093Y121956D01*
X325002Y129971D01*
X321714Y137908D01*
X318233Y145761D01*
X314560Y153527D01*
X310697Y161201D01*
X306648Y168777D01*
X302413Y176252D01*
X297997Y183620D01*
X293401Y190878D01*
X288628Y198021D01*
X283681Y205045D01*
X278564Y211945D01*
X273279Y218717D01*
X267829Y225358D01*
X262217Y231863D01*
X256448Y238228D01*
X250525Y244450D01*
X244450Y250525D01*
X238228Y256448D01*
X231863Y262217D01*
X225358Y267829D01*
X218717Y273279D01*
X211945Y278564D01*
X205045Y283681D01*
X198021Y288628D01*
X190878Y293401D01*
X183620Y297997D01*
X176252Y302413D01*
X168777Y306648D01*
X161201Y310697D01*
X153527Y314560D01*
X145761Y318233D01*
X137908Y321714D01*
X129971Y325002D01*
X121956Y328093D01*
X113867Y330988D01*
X105710Y333682D01*
X97489Y336176D01*
X89210Y338467D01*
X80876Y340555D01*
X72494Y342437D01*
X64069Y344113D01*
X55605Y345582D01*
X47107Y346842D01*
X38581Y347894D01*
X30031Y348736D01*
X21464Y349368D01*
X12884Y349789D01*
X4295Y350000D01*
X-4295Y350000D01*
X-12884Y349789D01*
X-21464Y349368D01*
X-30031Y348736D01*
X-38581Y347894D01*
X-47107Y346842D01*
X-55605Y345582D01*
X-64069Y344113D01*
X-72494Y342437D01*
X-80876Y340555D01*
X-89210Y338467D01*
X-97489Y336176D01*
X-105710Y333682D01*
X-113867Y330988D01*
X-121956Y328093D01*
X-129971Y325002D01*
X-137908Y321714D01*
X-145761Y318233D01*
X-153527Y314560D01*
X-161201Y310697D01*
X-168777Y306648D01*
X-176252Y302413D01*
X-183620Y297997D01*
X-190878Y293401D01*
X-198021Y288628D01*
X-205045Y283681D01*
X-211945Y278564D01*
X-218717Y273279D01*
X-225358Y267829D01*
X-231863Y262217D01*
X-238228Y256448D01*
X-244450Y250525D01*
X-250525Y244450D01*
X-256448Y238228D01*
X-262217Y231863D01*
X-267829Y225358D01*
X-273279Y218717D01*
X-278564Y211945D01*
X-283681Y205045D01*
X-288628Y198021D01*
X-293401Y190878D01*
X-297997Y183620D01*
X-302413Y176252D01*
X-306648Y168777D01*
X-310697Y161201D01*
X-314560Y153527D01*
X-318233Y145761D01*
X-321714Y137908D01*
X-325002Y129971D01*
X-328093Y121956D01*
X-330988Y113867D01*
X-333682Y105710D01*
X-336176Y97489D01*
X-338467Y89210D01*
X-340555Y80876D01*
X-342437Y72494D01*
X-344113Y64069D01*
X-345582Y55605D01*
X-346842Y47107D01*
X-347894Y38581D01*
X-348736Y30031D01*
X-349368Y21464D01*
X-349789Y12884D01*
X-350000Y4295D01*
X-350000Y-4295D01*
X-349789Y-12884D01*
X-349368Y-21464D01*
X-348736Y-30031D01*
X-347894Y-38581D01*
X-346842Y-47107D01*
X-345582Y-55605D01*
X-344113Y-64069D01*
X-342437Y-72494D01*
X-340555Y-80876D01*
X-338467Y-89210D01*
X-336176Y-97489D01*
X-333682Y-105710D01*
X-330988Y-113867D01*
X-328093Y-121956D01*
X-325002Y-129971D01*
X-321714Y-137908D01*
X-318233Y-145761D01*
X-314560Y-153527D01*
X-310697Y-161201D01*
X-306648Y-168777D01*
X-302413Y-176252D01*
X-297997Y-183620D01*
X-293401Y-190878D01*
X-288628Y-198021D01*
X-283681Y-205045D01*
X-278564Y-211945D01*
X-273279Y-218717D01*
X-267829Y-225358D01*
X-262217Y-231863D01*
X-256448Y-238228D01*
X-250525Y-244450D01*
X-244450Y-250525D01*
X-238228Y-256448D01*
X-231863Y-262217D01*
X-225358Y-267829D01*
X-218717Y-273279D01*
X-211945Y-278564D01*
X-205045Y-283681D01*
X-198021Y-288628D01*
X-190878Y-293401D01*
X-183620Y-297997D01*
X-176252Y-302413D01*
X-168777Y-306648D01*
X-161201Y-310697D01*
X-153527Y-314560D01*
X-145761Y-318233D01*
X-137908Y-321714D01*
X-129971Y-325002D01*
X-121956Y-328093D01*
X-113867Y-330988D01*
X-105710Y-333682D01*
X-97489Y-336176D01*
X-89210Y-338467D01*
X-80876Y-340555D01*
X-72494Y-342437D01*
X-64069Y-344113D01*
X-55605Y-345582D01*
X-47107Y-346842D01*
X-38581Y-347894D01*
X-30031Y-348736D01*
X-21464Y-349368D01*
X-12884Y-349789D01*
X-4295Y-350000D01*
X4295Y-350000D01*
X12884Y-349789D01*
X21464Y-349368D01*
X30031Y-348736D01*
X38581Y-347894D01*
X47107Y-346842D01*
X55605Y-345582D01*
X64069Y-344113D01*
X72494Y-342437D01*
X80876Y-340555D01*
X89210Y-338467D01*
X97489Y-336176D01*
X105710Y-333682D01*
X113867Y-330988D01*
X121956Y-328093D01*
X129971Y-325002D01*
X137908Y-321714D01*
X145761Y-318233D01*
X153527Y-314560D01*
X161201Y-310697D01*
X168777Y-306648D01*
X176252Y-302413D01*
X183620Y-297997D01*
X190878Y-293401D01*
X198021Y-288628D01*
X205045Y-283681D01*
X211945Y-278564D01*
X218717Y-273279D01*
X225358Y-267829D01*
X231863Y-262217D01*
X238228Y-256448D01*
X244450Y-250525D01*
X250525Y-244450D01*
X256448Y-238228D01*
X262217Y-231863D01*
X267829Y-225358D01*
X273279Y-218717D01*
X278564Y-211945D01*
X283681Y-205045D01*
X288628Y-198021D01*
X293401Y-190878D01*
X297997Y-183620D01*
X302413Y-176252D01*
X306648Y-168777D01*
X310697Y-161201D01*
X314560Y-153527D01*
X318233Y-145761D01*
X321714Y-137908D01*
X325002Y-129971D01*
X328093Y-121956D01*
X330988Y-113867D01*
X333682Y-105710D01*
X336176Y-97489D01*
X338467Y-89210D01*
X340555Y-80876D01*
X342437Y-72494D01*
X344113Y-64069D01*
X345582Y-55605D01*
X346842Y-47107D01*
X347894Y-38581D01*
X348736Y-30031D01*
X349368Y-21464D01*
X349789Y-12884D01*
X350000Y-4295D01*
M02*
