  0
SECTION
  2
HEADER
  9
$INSBASE
 10
0.0000
 20
0.0000
  9
$EXTMIN
 10
-57.818376618407356
 20
-57.818376618407356
  9
$EXTMAX
 10
57.818376618407356
 20
57.818376618407356
  9
$LIMMIN
 10
-57.818376618407356
 20
-57.818376618407356
  9
$LIMMAX
 10
57.818376618407356
 20
57.818376618407356
  9
$TEXTSTYLE
  7
STANDARD
  9
$CLAYER
  8
default
  0
ENDSEC
  0
SECTION
  2
TABLES
  0
TABLE
  2
LTYPE
 70
4948253
  0
LTYPE
  2
CONTINUOUS
 70
    64
  3
Solid line
 72
    65
 73
     0
 40
0.0
  0
ENDTAB
  0
TABLE
  2
LAYER
 70
     5
  0
LAYER
  2
default
 70
    64
 62
     7
  6
CONTINUOUS
  0
ENDTAB
  0
TABLE
  2
STYLE
 70
     1
  0
STYLE
  2
STANDARD
 70
     0
 40
0.0
 41
1.0
 50
0.0
 71
     0
 42
0.2
  3
txt
  4

  0
ENDTAB
  0
TABLE
  2
VIEW
 70
     0
  0
ENDTAB
  0
ENDSEC
  0
SECTION
  2
BLOCKS
  0
ENDSEC
  0
SECTION
  2
ENTITIES
  0
LINE
  8
default
 10
-54
 20
-54
 30
0.0
 11
-54
 21
54
 31
0.0
  0
LINE
  8
default
 10
-54
 20
54
 30
0.0
 11
54
 21
54
 31
0.0
  0
LINE
  8
default
 10
54
 20
54
 30
0.0
 11
54
 21
-54
 31
0.0
  0
LINE
  8
default
 10
54
 20
-54
 30
0.0
 11
-54
 21
-54
 31
0.0
  0
LINE
  8
default
 10
7.2226064856207559
 20
14.416523191762581
 30
0.0
 11
7.1151765786699244
 21
13.323847339080407
 31
0.0
  0
LINE
  8
default
 10
4.9454490793135317
 20
14.450744003157943
 30
0.0
 11
2.5
 21
14.450744003157943
 31
0.0
  0
LINE
  8
default
 10
2.5
 20
14.450744003157943
 30
0.0
 11
0
 21
14.450744003157943
 31
0.0
  0
LINE
  8
default
 10
4.9454490793135317
 20
13.450744003157943
 30
0.0
 11
2.5
 21
13.450744003157943
 31
0.0
  0
LINE
  8
default
 10
2.5
 20
13.450744003157943
 30
0.0
 11
0
 21
13.450744003157943
 31
0.0
  0
LINE
  8
default
 10
2.5
 20
13.450744003157943
 30
0.0
 11
2.5
 21
14.450744003157943
 31
0.0
  0
LINE
  8
default
 10
-7.2226064856207559
 20
14.416523191762581
 30
0.0
 11
-7.1151765786699244
 21
13.323847339080407
 31
0.0
  0
LINE
  8
default
 10
-4.9454490793135317
 20
14.450744003157943
 30
0.0
 11
-2.5
 21
14.450744003157943
 31
0.0
  0
LINE
  8
default
 10
-2.5
 20
14.450744003157943
 30
0.0
 11
0
 21
14.450744003157943
 31
0.0
  0
LINE
  8
default
 10
-4.9454490793135317
 20
13.450744003157943
 30
0.0
 11
-2.5
 21
13.450744003157943
 31
0.0
  0
LINE
  8
default
 10
-2.5
 20
13.450744003157943
 30
0.0
 11
0
 21
13.450744003157943
 31
0.0
  0
LINE
  8
default
 10
-2.5
 20
13.450744003157943
 30
0.0
 11
-2.5
 21
14.450744003157943
 31
0.0
  0
LINE
  8
default
 10
-8.873772075503533
 20
13.463222293967112
 30
0.0
 11
-7.9812019824543645
 21
12.823847339080407
 31
0.0
  0
LINE
  8
default
 10
-10.041986870663646
 20
11.508256537386856
 30
0.0
 11
-11.264711410320412
 21
9.3904355110400708
 31
0.0
  0
LINE
  8
default
 10
-11.264711410320412
 20
9.3904355110400708
 30
0.0
 11
-12.514711410320412
 21
7.2253720015789735
 31
0.0
  0
LINE
  8
default
 10
-9.1759614668792064
 20
11.008256537386856
 30
0.0
 11
-10.398686006535973
 21
8.8904355110400708
 31
0.0
  0
LINE
  8
default
 10
-10.398686006535973
 20
8.8904355110400708
 30
0.0
 11
-11.648686006535973
 21
6.7253720015789735
 31
0.0
  0
LINE
  8
default
 10
-10.398686006535973
 20
8.8904355110400708
 30
0.0
 11
-11.264711410320412
 21
9.3904355110400708
 31
0.0
  0
LINE
  8
default
 10
-16.09637856112429
 20
0.95330089779547222
 30
0.0
 11
-15.09637856112429
 21
0.50000000000000355
 31
0.0
  0
LINE
  8
default
 10
-14.987435949977179
 20
2.9424874657710918
 30
0.0
 11
-13.764711410320412
 21
5.0603084921178771
 31
0.0
  0
LINE
  8
default
 10
-13.764711410320412
 20
5.0603084921178771
 30
0.0
 11
-12.514711410320412
 21
7.2253720015789735
 31
0.0
  0
LINE
  8
default
 10
-14.12141054619274
 20
2.4424874657710918
 30
0.0
 11
-12.898686006535973
 21
4.5603084921178771
 31
0.0
  0
LINE
  8
default
 10
-12.898686006535973
 20
4.5603084921178771
 30
0.0
 11
-11.648686006535973
 21
6.7253720015789735
 31
0.0
  0
LINE
  8
default
 10
-12.898686006535973
 20
4.5603084921178771
 30
0.0
 11
-13.764711410320412
 21
5.0603084921178771
 31
0.0
  0
LINE
  8
default
 10
-16.09637856112429
 20
-0.95330089779546601
 30
0.0
 11
-15.09637856112429
 21
-0.49999999999999822
 31
0.0
  0
LINE
  8
default
 10
-14.987435949977179
 20
-2.9424874657710864
 30
0.0
 11
-13.764711410320414
 21
-5.0603084921178709
 31
0.0
  0
LINE
  8
default
 10
-13.764711410320414
 20
-5.0603084921178709
 30
0.0
 11
-12.514711410320414
 21
-7.2253720015789682
 31
0.0
  0
LINE
  8
default
 10
-14.12141054619274
 20
-2.4424874657710873
 30
0.0
 11
-12.898686006535975
 21
-4.5603084921178727
 31
0.0
  0
LINE
  8
default
 10
-12.898686006535975
 20
-4.5603084921178727
 30
0.0
 11
-11.648686006535975
 21
-6.7253720015789691
 31
0.0
  0
LINE
  8
default
 10
-12.898686006535975
 20
-4.5603084921178727
 30
0.0
 11
-13.764711410320414
 21
-5.0603084921178709
 31
0.0
  0
LINE
  8
default
 10
-8.8737720755035383
 20
-13.463222293967107
 30
0.0
 11
-7.981201982454369
 21
-12.823847339080404
 31
0.0
  0
LINE
  8
default
 10
-10.041986870663649
 20
-11.508256537386849
 30
0.0
 11
-11.264711410320414
 21
-9.3904355110400655
 31
0.0
  0
LINE
  8
default
 10
-11.264711410320414
 20
-9.3904355110400655
 30
0.0
 11
-12.514711410320414
 21
-7.2253720015789682
 31
0.0
  0
LINE
  8
default
 10
-9.17596146687921
 20
-11.008256537386851
 30
0.0
 11
-10.398686006535975
 21
-8.8904355110400655
 31
0.0
  0
LINE
  8
default
 10
-10.398686006535975
 20
-8.8904355110400655
 30
0.0
 11
-11.648686006535975
 21
-6.7253720015789691
 31
0.0
  0
LINE
  8
default
 10
-10.398686006535975
 20
-8.8904355110400655
 30
0.0
 11
-11.264711410320414
 21
-9.3904355110400655
 31
0.0
  0
LINE
  8
default
 10
-7.2226064856207577
 20
-14.416523191762581
 30
0.0
 11
-7.1151765786699261
 21
-13.323847339080407
 31
0.0
  0
LINE
  8
default
 10
-4.9454490793135335
 20
-14.450744003157943
 30
0.0
 11
-2.5000000000000018
 21
-14.450744003157943
 31
0.0
  0
LINE
  8
default
 10
-2.5000000000000018
 20
-14.450744003157943
 30
0.0
 11
-1.7697057388765184e-015
 21
-14.450744003157943
 31
0.0
  0
LINE
  8
default
 10
-4.9454490793135335
 20
-13.450744003157943
 30
0.0
 11
-2.5000000000000018
 21
-13.450744003157943
 31
0.0
  0
LINE
  8
default
 10
-2.5000000000000018
 20
-13.450744003157943
 30
0.0
 11
-1.6472410589617832e-015
 21
-13.450744003157943
 31
0.0
  0
LINE
  8
default
 10
-2.5000000000000018
 20
-13.450744003157943
 30
0.0
 11
-2.5000000000000018
 21
-14.450744003157943
 31
0.0
  0
LINE
  8
default
 10
7.2226064856207541
 20
-14.416523191762581
 30
0.0
 11
7.1151765786699226
 21
-13.323847339080407
 31
0.0
  0
LINE
  8
default
 10
4.9454490793135299
 20
-14.450744003157943
 30
0.0
 11
2.4999999999999982
 21
-14.450744003157943
 31
0.0
  0
LINE
  8
default
 10
2.4999999999999982
 20
-14.450744003157943
 30
0.0
 11
-1.7697057388765184e-015
 21
-14.450744003157943
 31
0.0
  0
LINE
  8
default
 10
4.9454490793135299
 20
-13.450744003157943
 30
0.0
 11
2.4999999999999982
 21
-13.450744003157943
 31
0.0
  0
LINE
  8
default
 10
2.4999999999999982
 20
-13.450744003157943
 30
0.0
 11
-1.6472410589617832e-015
 21
-13.450744003157943
 31
0.0
  0
LINE
  8
default
 10
2.4999999999999982
 20
-13.450744003157943
 30
0.0
 11
2.4999999999999982
 21
-14.450744003157943
 31
0.0
  0
LINE
  8
default
 10
8.8737720755035276
 20
-13.463222293967114
 30
0.0
 11
7.9812019824543583
 21
-12.823847339080409
 31
0.0
  0
LINE
  8
default
 10
10.04198687066364
 20
-11.508256537386858
 30
0.0
 11
11.264711410320407
 21
-9.3904355110400743
 31
0.0
  0
LINE
  8
default
 10
11.264711410320407
 20
-9.3904355110400743
 30
0.0
 11
12.514711410320409
 21
-7.225372001578978
 31
0.0
  0
LINE
  8
default
 10
9.1759614668792029
 20
-11.008256537386858
 30
0.0
 11
10.39868600653597
 21
-8.8904355110400743
 31
0.0
  0
LINE
  8
default
 10
10.39868600653597
 20
-8.8904355110400743
 30
0.0
 11
11.648686006535971
 21
-6.725372001578978
 31
0.0
  0
LINE
  8
default
 10
10.39868600653597
 20
-8.8904355110400743
 30
0.0
 11
11.264711410320407
 21
-9.3904355110400743
 31
0.0
  0
LINE
  8
default
 10
16.09637856112429
 20
-0.95330089779547844
 30
0.0
 11
15.09637856112429
 21
-0.50000000000000977
 31
0.0
  0
LINE
  8
default
 10
14.987435949977177
 20
-2.942487465771098
 30
0.0
 11
13.764711410320411
 21
-5.0603084921178816
 31
0.0
  0
LINE
  8
default
 10
13.764711410320411
 20
-5.0603084921178816
 30
0.0
 11
12.514711410320409
 21
-7.225372001578978
 31
0.0
  0
LINE
  8
default
 10
14.12141054619274
 20
-2.442487465771098
 30
0.0
 11
12.898686006535973
 21
-4.5603084921178816
 31
0.0
  0
LINE
  8
default
 10
12.898686006535973
 20
-4.5603084921178816
 30
0.0
 11
11.648686006535971
 21
-6.725372001578978
 31
0.0
  0
LINE
  8
default
 10
12.898686006535973
 20
-4.5603084921178816
 30
0.0
 11
13.764711410320411
 21
-5.0603084921178816
 31
0.0
  0
LINE
  8
default
 10
16.09637856112429
 20
0.95330089779547222
 30
0.0
 11
15.09637856112429
 21
0.50000000000000355
 31
0.0
  0
LINE
  8
default
 10
14.987435949977179
 20
2.9424874657710918
 30
0.0
 11
13.764711410320412
 21
5.0603084921178771
 31
0.0
  0
LINE
  8
default
 10
13.764711410320412
 20
5.0603084921178771
 30
0.0
 11
12.514711410320412
 21
7.2253720015789735
 31
0.0
  0
LINE
  8
default
 10
14.12141054619274
 20
2.4424874657710918
 30
0.0
 11
12.898686006535973
 21
4.5603084921178771
 31
0.0
  0
LINE
  8
default
 10
12.898686006535973
 20
4.5603084921178771
 30
0.0
 11
11.648686006535973
 21
6.7253720015789735
 31
0.0
  0
LINE
  8
default
 10
12.898686006535973
 20
4.5603084921178771
 30
0.0
 11
13.764711410320412
 21
5.0603084921178771
 31
0.0
  0
LINE
  8
default
 10
8.873772075503533
 20
13.463222293967112
 30
0.0
 11
7.9812019824543645
 21
12.823847339080407
 31
0.0
  0
LINE
  8
default
 10
10.041986870663646
 20
11.508256537386856
 30
0.0
 11
11.264711410320412
 21
9.3904355110400708
 31
0.0
  0
LINE
  8
default
 10
11.264711410320412
 20
9.3904355110400708
 30
0.0
 11
12.514711410320412
 21
7.2253720015789735
 31
0.0
  0
LINE
  8
default
 10
9.1759614668792064
 20
11.008256537386856
 30
0.0
 11
10.398686006535973
 21
8.8904355110400708
 31
0.0
  0
LINE
  8
default
 10
10.398686006535973
 20
8.8904355110400708
 30
0.0
 11
11.648686006535973
 21
6.7253720015789735
 31
0.0
  0
LINE
  8
default
 10
10.398686006535973
 20
8.8904355110400708
 30
0.0
 11
11.264711410320412
 21
9.3904355110400708
 31
0.0
  0
ARC
  8
default
 10
0
 20
-4.4408920985006262e-016
 30
0
 40
9
 50
2.8271597168564595e-015
 51
59.999999999999993
  0
ARC
  8
default
 10
0
 20
-8.8817841970012523e-016
 30
0
 40
9
 50
59.999999999999993
 51
119.99999999999999
  0
ARC
  8
default
 10
-8.8817841970012523e-016
 20
0
 30
0
 40
9
 50
119.99999999999999
 51
180
  0
ARC
  8
default
 10
0
 20
4.4408920985006262e-016
 30
0
 40
9
 50
180
 51
240
  0
ARC
  8
default
 10
0
 20
8.8817841970012523e-016
 30
0
 40
9
 50
240
 51
300
  0
ARC
  8
default
 10
8.8817841970012523e-016
 20
0
 30
0
 40
9
 50
300
 51
0
  0
ARC
  8
default
 10
0.58713204739362812
 20
12.553918357422891
 30
0
 40
5.4776390259574432
 50
31.265924343625905
 51
96.153187391720664
  0
ARC
  8
default
 10
7.8487905319531226
 20
20.317279583352359
 30
0
 40
5.5555813332531736
 50
242.33398360391067
 51
277.23222381603966
  0
ARC
  8
default
 10
6.1384635660858535
 20
18.055957054474483
 30
0
 40
3.7974787308201932
 50
251.68991153088177
 51
286.58815174301083
  0
ARC
  8
default
 10
6.2321700926274151
 20
16.838728055406055
 30
0
 40
3.6240980815081483
 50
249.20374505493137
 51
284.1019852670604
  0
ARC
  8
default
 10
-0.58713204739362856
 20
12.553918357422891
 30
0
 40
5.4776390259574432
 50
83.846812608279322
 51
148.7340756563741
  0
ARC
  8
default
 10
-7.8487905319531226
 20
20.317279583352359
 30
0
 40
5.5555813332531736
 50
262.76777618396034
 51
297.66601639608933
  0
ARC
  8
default
 10
-6.1384635660858535
 20
18.055957054474483
 30
0
 40
3.7974787308201932
 50
253.41184825698917
 51
288.31008846911823
  0
ARC
  8
default
 10
-6.2321700926274151
 20
16.838728055406055
 30
0
 40
3.6240980815081483
 50
255.89801473293957
 51
290.7962549450686
  0
ARC
  8
default
 10
-10.578446190867222
 20
6.7854304471302989
 30
0
 40
5.4776390259574432
 50
91.265924343625883
 51
156.15318739172068
  0
ARC
  8
default
 10
-13.670884988997493
 20
16.955891781330365
 30
0
 40
5.5555813332531754
 50
302.33398360391061
 51
337.23222381603966
  0
ARC
  8
default
 10
-12.567685715772816
 20
14.344043915672811
 30
0
 40
3.7974787308201909
 50
311.68991153088172
 51
346.58815174301077
  0
ARC
  8
default
 10
-11.466681217085673
 20
13.816581648623988
 30
0
 40
3.6240980815081452
 50
309.2037450549314
 51
344.1019852670604
  0
ARC
  8
default
 10
-11.165578238260851
 20
5.7684879102925954
 30
0
 40
5.4776390259574432
 50
143.84681260827932
 51
208.7340756563741
  0
ARC
  8
default
 10
-21.519675520950617
 20
3.3613878020220014
 30
0
 40
5.5555813332531736
 50
322.76777618396028
 51
357.66601639608933
  0
ARC
  8
default
 10
-18.706149281858671
 20
3.7119131388016751
 30
0
 40
3.7974787308201909
 50
313.41184825698917
 51
348.31008846911823
  0
ARC
  8
default
 10
-17.698851309713092
 20
3.0221464067820705
 30
0
 40
3.6240980815081483
 50
315.8980147329396
 51
350.7962549450686
  0
ARC
  8
default
 10
-11.165578238260851
 20
-5.7684879102925919
 30
0
 40
5.4776390259574441
 50
151.2659243436259
 51
216.15318739172065
  0
ARC
  8
default
 10
-21.519675520950621
 20
-3.3613878020219938
 30
0
 40
5.5555813332531772
 50
2.3339836039106743
 51
37.232223816039713
  0
ARC
  8
default
 10
-18.706149281858675
 20
-3.7119131388016693
 30
0
 40
3.7974787308201914
 50
11.689911530881746
 51
46.588151743010776
  0
ARC
  8
default
 10
-17.698851309713092
 20
-3.0221464067820656
 30
0
 40
3.6240980815081496
 50
9.2037450549313924
 51
44.101985267060428
  0
ARC
  8
default
 10
-10.578446190867222
 20
-6.7854304471302971
 30
0
 40
5.4776390259574432
 50
203.84681260827929
 51
268.7340756563741
  0
ARC
  8
default
 10
-13.670884988997498
 20
-16.955891781330358
 30
0
 40
5.5555813332531727
 50
22.76777618396029
 51
57.666016396089326
  0
ARC
  8
default
 10
-12.567685715772823
 20
-14.344043915672803
 30
0
 40
3.7974787308201914
 50
13.41184825698917
 51
48.310088469118206
  0
ARC
  8
default
 10
-11.466681217085679
 20
-13.816581648623981
 30
0
 40
3.6240980815081465
 50
15.898014732939515
 51
50.796254945068561
  0
ARC
  8
default
 10
-0.5871320473936299
 20
-12.553918357422891
 30
0
 40
5.4776390259574432
 50
211.2659243436259
 51
276.15318739172062
  0
ARC
  8
default
 10
-7.8487905319531315
 20
-20.317279583352359
 30
0
 40
5.5555813332531807
 50
62.33398360391061
 51
97.232223816039664
  0
ARC
  8
default
 10
-6.1384635660858553
 20
-18.055957054474483
 30
0
 40
3.7974787308201932
 50
71.689911530881773
 51
106.58815174301081
  0
ARC
  8
default
 10
-6.2321700926274168
 20
-16.838728055406055
 30
0
 40
3.6240980815081483
 50
69.203745054931389
 51
104.10198526706043
  0
ARC
  8
default
 10
0.58713204739362634
 20
-12.553918357422891
 30
0
 40
5.4776390259574432
 50
263.84681260827932
 51
328.7340756563741
  0
ARC
  8
default
 10
7.8487905319531182
 20
-20.317279583352359
 30
0
 40
5.5555813332531718
 50
82.767776183960265
 51
117.66601639608932
  0
ARC
  8
default
 10
6.1384635660858518
 20
-18.055957054474483
 30
0
 40
3.7974787308201932
 50
73.411848256989188
 51
108.31008846911823
  0
ARC
  8
default
 10
6.2321700926274133
 20
-16.838728055406055
 30
0
 40
3.6240980815081483
 50
75.898014732939572
 51
110.79625494506863
  0
ARC
  8
default
 10
10.578446190867218
 20
-6.7854304471303024
 30
0
 40
5.4776390259574432
 50
271.26592434362584
 51
336.15318739172062
  0
ARC
  8
default
 10
13.670884988997487
 20
-16.955891781330362
 30
0
 40
5.5555813332531692
 50
122.33398360391068
 51
157.23222381603972
  0
ARC
  8
default
 10
12.567685715772811
 20
-14.344043915672813
 30
0
 40
3.7974787308201909
 50
131.68991153088174
 51
166.5881517430108
  0
ARC
  8
default
 10
11.466681217085668
 20
-13.816581648623993
 30
0
 40
3.6240980815081483
 50
129.20374505493135
 51
164.10198526706037
  0
ARC
  8
default
 10
11.165578238260847
 20
-5.7684879102926008
 30
0
 40
5.4776390259574432
 50
323.84681260827932
 51
28.734075656374081
  0
ARC
  8
default
 10
21.519675520950617
 20
-3.3613878020220103
 30
0
 40
5.5555813332531745
 50
142.76777618396028
 51
177.6660163960893
  0
ARC
  8
default
 10
18.706149281858671
 20
-3.7119131388016839
 30
0
 40
3.7974787308201923
 50
133.41184825698917
 51
168.3100884691182
  0
ARC
  8
default
 10
17.698851309713092
 20
-3.0221464067820767
 30
0
 40
3.6240980815081483
 50
135.8980147329396
 51
170.7962549450686
  0
ARC
  8
default
 10
11.165578238260851
 20
5.7684879102925954
 30
0
 40
5.4776390259574432
 50
331.2659243436259
 51
36.153187391720685
  0
ARC
  8
default
 10
21.519675520950642
 20
3.3613878020219934
 30
0
 40
5.5555813332531967
 50
182.33398360391058
 51
217.23222381603964
  0
ARC
  8
default
 10
18.706149281858671
 20
3.7119131388016751
 30
0
 40
3.7974787308201909
 50
191.68991153088177
 51
226.5881517430108
  0
ARC
  8
default
 10
17.698851309713092
 20
3.0221464067820705
 30
0
 40
3.6240980815081483
 50
189.2037450549314
 51
224.1019852670604
  0
ARC
  8
default
 10
10.578446190867222
 20
6.7854304471302989
 30
0
 40
5.4776390259574432
 50
23.846812608279336
 51
88.734075656374131
  0
ARC
  8
default
 10
13.670884988997493
 20
16.955891781330365
 30
0
 40
5.5555813332531754
 50
202.76777618396034
 51
237.66601639608933
  0
ARC
  8
default
 10
12.567685715772816
 20
14.344043915672811
 30
0
 40
3.7974787308201909
 50
193.4118482569892
 51
228.31008846911826
  0
ARC
  8
default
 10
11.466681217085673
 20
13.816581648623988
 30
0
 40
3.6240980815081452
 50
195.89801473293957
 51
230.7962549450686
  0
ARC
  8
default
 10
0
 20
0
 30
0
 40
20.5
 50
0
 51
180
  0
ARC
  8
default
 10
0
 20
0
 30
0
 40
20.5
 50
180
 51
0
  0
ARC
  8
default
 10
0
 20
0
 30
0
 40
23.5
 50
0
 51
180
  0
ARC
  8
default
 10
0
 20
0
 30
0
 40
23.5
 50
180
 51
0
  0
ENDSEC
  0
EOF
