M48
;GenerationSoftware,Autodesk,EAGLE,9.6.2*%
;CreationDate,2022-07-13T06:11:09Z*%
FMAT,2
ICI,OFF
METRIC,TZ,000.000
T4C0.600
T3C0.813
T2C1.000
T1C1.016
%
G90
M71
T1
X46222Y-35128
X47091Y-32741
X55778Y-8872
X54909Y-11259
X54041Y-13646
X53172Y-16033
X52303Y-18420
X51434Y-20807
X50566Y-23193
X49697Y-25580
X48828Y-27967
X47959Y-30354
T2
X-13600Y-60000
X-10400Y-60000
T3
X-10730Y-36000
X-13270Y-36000
X-10730Y-44000
X-13270Y-44000
T4
X49000Y-2540
X41165Y26700
X42435Y24500
X43705Y22300
X22300Y43705
X24500Y42435
X26700Y41165
X-2540Y49000
X0Y49000
X49000Y0
X-26700Y41165
X-24500Y42435
X-22300Y43705
X-43705Y22300
X-42435Y24500
X-41165Y26700
X-49000Y-2540
X-49000Y0
X-49000Y2540
X-41165Y-26700
X-42435Y-24500
X-43705Y-22300
X-22300Y-43705
X-24500Y-42435
X-26700Y-41165
X2540Y-49000
X0Y-49000
X-2540Y-49000
X26700Y-41165
X24500Y-42435
X22300Y-43705
X43705Y-22300
X42435Y-24500
X41165Y-26700
X49000Y2540
X2540Y49000
M30