  0
SECTION
  2
HEADER
  9
$INSBASE
 10
0.0000
 20
0.0000
  9
$EXTMIN
 10
-57.818376618407356
 20
-57.818376618407356
  9
$EXTMAX
 10
57.818376618407356
 20
57.818376618407356
  9
$LIMMIN
 10
-57.818376618407356
 20
-57.818376618407356
  9
$LIMMAX
 10
57.818376618407356
 20
57.818376618407356
  9
$TEXTSTYLE
  7
STANDARD
  9
$CLAYER
  8
default
  0
ENDSEC
  0
SECTION
  2
TABLES
  0
TABLE
  2
LTYPE
 70
4948253
  0
LTYPE
  2
CONTINUOUS
 70
    64
  3
Solid line
 72
    65
 73
     0
 40
0.0
  0
ENDTAB
  0
TABLE
  2
LAYER
 70
     5
  0
LAYER
  2
default
 70
    64
 62
     7
  6
CONTINUOUS
  0
ENDTAB
  0
TABLE
  2
STYLE
 70
     1
  0
STYLE
  2
STANDARD
 70
     0
 40
0.0
 41
1.0
 50
0.0
 71
     0
 42
0.2
  3
txt
  4

  0
ENDTAB
  0
TABLE
  2
VIEW
 70
     0
  0
ENDTAB
  0
ENDSEC
  0
SECTION
  2
BLOCKS
  0
ENDSEC
  0
SECTION
  2
ENTITIES
  0
LINE
  8
default
 10
-54
 20
-54
 30
0.0
 11
-54
 21
54
 31
0.0
  0
LINE
  8
default
 10
-54
 20
54
 30
0.0
 11
54
 21
54
 31
0.0
  0
LINE
  8
default
 10
54
 20
54
 30
0.0
 11
54
 21
-54
 31
0.0
  0
LINE
  8
default
 10
54
 20
-54
 30
0.0
 11
-54
 21
-54
 31
0.0
  0
LINE
  8
default
 10
7.296414806949417
 20
14.363303281422873
 30
0.0
 11
7.0953807828993076
 21
13.289560015029442
 31
0.0
  0
LINE
  8
default
 10
4.9933099356231629
 20
14.943371808770998
 30
0.0
 11
4.0438412276681976
 21
14.943371808770998
 31
0.0
  0
LINE
  8
default
 10
4.0438412276681976
 20
14.943371808770998
 30
0.0
 11
0
 21
14.943371808770998
 31
0.0
  0
LINE
  8
default
 10
4.9933099356231629
 20
13.912965850906751
 30
0.0
 11
4.0438412276681976
 21
13.912965850906751
 31
0.0
  0
LINE
  8
default
 10
4.0438412276681976
 20
13.912965850906751
 30
0.0
 11
0
 21
13.912965850906751
 31
0.0
  0
LINE
  8
default
 10
4.0438412276681976
 20
13.912965850906751
 30
0.0
 11
4.0438412276681976
 21
14.943371808770998
 31
0.0
  0
LINE
  8
default
 10
-7.296414806949417
 20
14.363303281422873
 30
0.0
 11
-7.0953807828993076
 21
13.289560015029442
 31
0.0
  0
LINE
  8
default
 10
-4.9933099356231629
 20
14.943371808770998
 30
0.0
 11
-4.0438412276681976
 21
14.943371808770998
 31
0.0
  0
LINE
  8
default
 10
-4.0438412276681976
 20
14.943371808770998
 30
0.0
 11
0
 21
14.943371808770998
 31
0.0
  0
LINE
  8
default
 10
-4.9933099356231629
 20
13.912965850906751
 30
0.0
 11
-4.0438412276681976
 21
13.912965850906751
 31
0.0
  0
LINE
  8
default
 10
-4.0438412276681976
 20
13.912965850906751
 30
0.0
 11
0
 21
13.912965850906751
 31
0.0
  0
LINE
  8
default
 10
-4.0438412276681976
 20
13.912965850906751
 30
0.0
 11
-4.0438412276681976
 21
14.943371808770998
 31
0.0
  0
LINE
  8
default
 10
-8.7907781204978868
 20
13.500532220078565
 30
0.0
 11
-7.9614061866837478
 21
12.789560015029441
 31
0.0
  0
LINE
  8
default
 10
-10.444684636780318
 20
11.796019157604398
 30
0.0
 11
-10.9194189907578
 21
10.973755136417012
 31
0.0
  0
LINE
  8
default
 10
-10.9194189907578
 20
10.973755136417012
 30
0.0
 11
-12.941339604591899
 21
7.4716859043855006
 31
0.0
  0
LINE
  8
default
 10
-9.5523269010590433
 20
11.280816178672275
 30
0.0
 11
-10.027061255036525
 21
10.458552157484888
 31
0.0
  0
LINE
  8
default
 10
-10.027061255036525
 20
10.458552157484888
 30
0.0
 11
-12.048981868870625
 21
6.9564829254533773
 31
0.0
  0
LINE
  8
default
 10
-10.027061255036525
 20
10.458552157484888
 30
0.0
 11
-10.9194189907578
 21
10.973755136417012
 31
0.0
  0
LINE
  8
default
 10
-16.087192927447305
 20
0.86277106134431225
 30
0.0
 11
-15.056786969583056
 21
0.50000000000000444
 31
0.0
  0
LINE
  8
default
 10
-15.437994572403481
 20
3.1473526511666021
 30
0.0
 11
-14.963260218425999
 21
3.9696166723539901
 31
0.0
  0
LINE
  8
default
 10
-14.963260218425999
 20
3.9696166723539901
 30
0.0
 11
-12.941339604591899
 21
7.4716859043855006
 31
0.0
  0
LINE
  8
default
 10
-14.545636836682206
 20
2.6321496722344788
 30
0.0
 11
-14.070902482704724
 21
3.4544136934218668
 31
0.0
  0
LINE
  8
default
 10
-14.070902482704724
 20
3.4544136934218668
 30
0.0
 11
-12.048981868870625
 21
6.9564829254533773
 31
0.0
  0
LINE
  8
default
 10
-14.070902482704724
 20
3.4544136934218668
 30
0.0
 11
-14.963260218425999
 21
3.9696166723539901
 31
0.0
  0
LINE
  8
default
 10
-16.087192927447305
 20
-0.86277106134430692
 30
0.0
 11
-15.056786969583056
 21
-0.49999999999999911
 31
0.0
  0
LINE
  8
default
 10
-15.437994572403483
 20
-3.1473526511665959
 30
0.0
 11
-14.963260218425999
 21
-3.9696166723539843
 31
0.0
  0
LINE
  8
default
 10
-14.963260218425999
 20
-3.9696166723539843
 30
0.0
 11
-12.941339604591901
 21
-7.4716859043854953
 31
0.0
  0
LINE
  8
default
 10
-14.545636836682206
 20
-2.6321496722344735
 30
0.0
 11
-14.070902482704724
 21
-3.4544136934218619
 31
0.0
  0
LINE
  8
default
 10
-14.070902482704724
 20
-3.4544136934218619
 30
0.0
 11
-12.048981868870626
 21
-6.9564829254533729
 31
0.0
  0
LINE
  8
default
 10
-14.070902482704724
 20
-3.4544136934218619
 30
0.0
 11
-14.963260218425999
 21
-3.9696166723539843
 31
0.0
  0
LINE
  8
default
 10
-8.7907781204978903
 20
-13.500532220078558
 30
0.0
 11
-7.9614061866837513
 21
-12.789560015029437
 31
0.0
  0
LINE
  8
default
 10
-10.44468463678032
 20
-11.796019157604395
 30
0.0
 11
-10.919418990757803
 21
-10.973755136417006
 31
0.0
  0
LINE
  8
default
 10
-10.919418990757803
 20
-10.973755136417006
 30
0.0
 11
-12.941339604591901
 21
-7.4716859043854953
 31
0.0
  0
LINE
  8
default
 10
-9.5523269010590468
 20
-11.280816178672271
 30
0.0
 11
-10.027061255036529
 21
-10.458552157484885
 31
0.0
  0
LINE
  8
default
 10
-10.027061255036529
 20
-10.458552157484885
 30
0.0
 11
-12.048981868870626
 21
-6.9564829254533729
 31
0.0
  0
LINE
  8
default
 10
-10.027061255036529
 20
-10.458552157484885
 30
0.0
 11
-10.919418990757803
 21
-10.973755136417006
 31
0.0
  0
LINE
  8
default
 10
-7.2964148069494188
 20
-14.363303281422871
 30
0.0
 11
-7.0953807828993094
 21
-13.289560015029442
 31
0.0
  0
LINE
  8
default
 10
-4.9933099356231647
 20
-14.943371808770998
 30
0.0
 11
-4.0438412276681994
 21
-14.943371808770998
 31
0.0
  0
LINE
  8
default
 10
-4.0438412276681994
 20
-14.943371808770998
 30
0.0
 11
-1.8300352454080195e-015
 21
-14.943371808770998
 31
0.0
  0
LINE
  8
default
 10
-4.9933099356231647
 20
-13.912965850906751
 30
0.0
 11
-4.0438412276681994
 21
-13.912965850906751
 31
0.0
  0
LINE
  8
default
 10
-4.0438412276681994
 20
-13.912965850906751
 30
0.0
 11
-1.7038469095959384e-015
 21
-13.912965850906751
 31
0.0
  0
LINE
  8
default
 10
-4.0438412276681994
 20
-13.912965850906751
 30
0.0
 11
-4.0438412276681994
 21
-14.943371808770998
 31
0.0
  0
LINE
  8
default
 10
7.2964148069494152
 20
-14.363303281422874
 30
0.0
 11
7.0953807828993058
 21
-13.289560015029442
 31
0.0
  0
LINE
  8
default
 10
4.9933099356231612
 20
-14.943371808770998
 30
0.0
 11
4.0438412276681959
 21
-14.943371808770998
 31
0.0
  0
LINE
  8
default
 10
4.0438412276681959
 20
-14.943371808770998
 30
0.0
 11
-1.8300352454080195e-015
 21
-14.943371808770998
 31
0.0
  0
LINE
  8
default
 10
4.9933099356231612
 20
-13.912965850906751
 30
0.0
 11
4.0438412276681959
 21
-13.912965850906751
 31
0.0
  0
LINE
  8
default
 10
4.0438412276681959
 20
-13.912965850906751
 30
0.0
 11
-1.7038469095959384e-015
 21
-13.912965850906751
 31
0.0
  0
LINE
  8
default
 10
4.0438412276681959
 20
-13.912965850906751
 30
0.0
 11
4.0438412276681959
 21
-14.943371808770998
 31
0.0
  0
LINE
  8
default
 10
8.7907781204978797
 20
-13.500532220078567
 30
0.0
 11
7.9614061866837433
 21
-12.789560015029444
 31
0.0
  0
LINE
  8
default
 10
10.444684636780313
 20
-11.796019157604402
 30
0.0
 11
10.919418990757794
 21
-10.973755136417015
 31
0.0
  0
LINE
  8
default
 10
10.919418990757794
 20
-10.973755136417015
 30
0.0
 11
12.941339604591896
 21
-7.4716859043855051
 31
0.0
  0
LINE
  8
default
 10
9.5523269010590379
 20
-11.280816178672278
 30
0.0
 11
10.027061255036521
 21
-10.458552157484892
 31
0.0
  0
LINE
  8
default
 10
10.027061255036521
 20
-10.458552157484892
 30
0.0
 11
12.048981868870621
 21
-6.9564829254533818
 31
0.0
  0
LINE
  8
default
 10
10.027061255036521
 20
-10.458552157484892
 30
0.0
 11
10.919418990757794
 21
-10.973755136417015
 31
0.0
  0
LINE
  8
default
 10
16.087192927447305
 20
-0.86277106134431847
 30
0.0
 11
15.056786969583058
 21
-0.50000000000000977
 31
0.0
  0
LINE
  8
default
 10
15.437994572403479
 20
-3.1473526511666075
 30
0.0
 11
14.963260218425997
 21
-3.9696166723539954
 31
0.0
  0
LINE
  8
default
 10
14.963260218425997
 20
-3.9696166723539954
 30
0.0
 11
12.941339604591896
 21
-7.4716859043855051
 31
0.0
  0
LINE
  8
default
 10
14.545636836682204
 20
-2.6321496722344842
 30
0.0
 11
14.070902482704721
 21
-3.4544136934218721
 31
0.0
  0
LINE
  8
default
 10
14.070902482704721
 20
-3.4544136934218721
 30
0.0
 11
12.048981868870621
 21
-6.9564829254533818
 31
0.0
  0
LINE
  8
default
 10
14.070902482704721
 20
-3.4544136934218721
 30
0.0
 11
14.963260218425997
 21
-3.9696166723539954
 31
0.0
  0
LINE
  8
default
 10
16.087192927447305
 20
0.86277106134431225
 30
0.0
 11
15.056786969583056
 21
0.50000000000000444
 31
0.0
  0
LINE
  8
default
 10
15.437994572403481
 20
3.1473526511666021
 30
0.0
 11
14.963260218425999
 21
3.9696166723539901
 31
0.0
  0
LINE
  8
default
 10
14.963260218425999
 20
3.9696166723539901
 30
0.0
 11
12.941339604591899
 21
7.4716859043855006
 31
0.0
  0
LINE
  8
default
 10
14.545636836682206
 20
2.6321496722344788
 30
0.0
 11
14.070902482704724
 21
3.4544136934218668
 31
0.0
  0
LINE
  8
default
 10
14.070902482704724
 20
3.4544136934218668
 30
0.0
 11
12.048981868870625
 21
6.9564829254533773
 31
0.0
  0
LINE
  8
default
 10
14.070902482704724
 20
3.4544136934218668
 30
0.0
 11
14.963260218425999
 21
3.9696166723539901
 31
0.0
  0
LINE
  8
default
 10
8.7907781204978868
 20
13.500532220078565
 30
0.0
 11
7.9614061866837478
 21
12.789560015029441
 31
0.0
  0
LINE
  8
default
 10
10.444684636780318
 20
11.796019157604398
 30
0.0
 11
10.9194189907578
 21
10.973755136417012
 31
0.0
  0
LINE
  8
default
 10
10.9194189907578
 20
10.973755136417012
 30
0.0
 11
12.941339604591899
 21
7.4716859043855006
 31
0.0
  0
LINE
  8
default
 10
9.5523269010590433
 20
11.280816178672275
 30
0.0
 11
10.027061255036525
 21
10.458552157484888
 31
0.0
  0
LINE
  8
default
 10
10.027061255036525
 20
10.458552157484888
 30
0.0
 11
12.048981868870625
 21
6.9564829254533773
 31
0.0
  0
LINE
  8
default
 10
10.027061255036525
 20
10.458552157484888
 30
0.0
 11
10.9194189907578
 21
10.973755136417012
 31
0.0
  0
ARC
  8
default
 10
0
 20
-4.4408920985006262e-016
 30
0
 40
9
 50
2.8271597168564595e-015
 51
59.999999999999993
  0
ARC
  8
default
 10
0
 20
-8.8817841970012523e-016
 30
0
 40
9
 50
59.999999999999993
 51
119.99999999999999
  0
ARC
  8
default
 10
-8.8817841970012523e-016
 20
0
 30
0
 40
9
 50
119.99999999999999
 51
180
  0
ARC
  8
default
 10
0
 20
4.4408920985006262e-016
 30
0
 40
9
 50
180
 51
240
  0
ARC
  8
default
 10
0
 20
8.8817841970012523e-016
 30
0
 40
9
 50
240
 51
300
  0
ARC
  8
default
 10
8.8817841970012523e-016
 20
0
 30
0
 40
9
 50
300
 51
0
  0
ARC
  8
default
 10
-1.0638634409187286
 20
7.5782668222072136
 30
0
 40
10.475892699432848
 50
52.522210599462753
 51
84.171365767681877
  0
ARC
  8
default
 10
8.5329800280618677
 20
20.092197263903898
 30
0
 40
5.2942647537948035
 50
232.50269902380924
 51
270.11489364299649
  0
ARC
  8
default
 10
6.99653532437212
 20
18.034820998433151
 30
0
 40
3.68374402617652
 50
237.05720223245203
 51
274.66939685163931
  0
ARC
  8
default
 10
6.9596473695941077
 20
16.687582568821881
 30
0
 40
3.4007323969359269
 50
234.6752591221591
 51
272.28745374134638
  0
ARC
  8
default
 10
1.0638634409187291
 20
7.5782668222072136
 30
0
 40
10.475892699432848
 50
95.828634232318123
 51
127.47778940053725
  0
ARC
  8
default
 10
-8.5329800280618677
 20
20.092197263903898
 30
0
 40
5.2942647537948035
 50
269.88510635700351
 51
307.49730097619073
  0
ARC
  8
default
 10
-6.99653532437212
 20
18.034820998433151
 30
0
 40
3.68374402617652
 50
265.33060314836069
 51
302.94279776754797
  0
ARC
  8
default
 10
-6.9596473695941077
 20
16.687582568821881
 30
0
 40
3.4007323969359269
 50
267.71254625865362
 51
305.3247408778409
  0
ARC
  8
default
 10
-7.0949033051475823
 20
2.8678006451104636
 30
0
 40
10.475892699432844
 50
112.52221059946275
 51
144.17136576768189
  0
ARC
  8
default
 10
-13.133863234358033
 20
17.435876106238783
 30
0
 40
5.2942647537948089
 50
292.50269902380921
 51
330.11489364299649
  0
ARC
  8
default
 10
-12.120345475162086
 20
15.076587828598029
 30
0
 40
3.6837440261765222
 50
297.05720223245208
 51
334.66939685163936
  0
ARC
  8
default
 10
-10.972046747553076
 20
14.371022707860988
 30
0
 40
3.4007323969359282
 50
294.6752591221591
 51
332.28745374134633
  0
ARC
  8
default
 10
-6.0310398642288501
 20
4.7104661770967526
 30
0
 40
10.475892699432846
 50
155.82863423231811
 51
187.4777894005372
  0
ARC
  8
default
 10
-21.666843262419899
 20
2.6563211576651224
 30
0
 40
5.2942647537948044
 50
329.88510635700351
 51
7.4973009761907514
  0
ARC
  8
default
 10
-19.116880799534204
 20
2.9582331698351263
 30
0
 40
3.6837440261765222
 50
325.33060314836069
 51
2.9427977675479227
  0
ARC
  8
default
 10
-17.931694117147185
 20
2.3165598609608993
 30
0
 40
3.4007323969359269
 50
327.71254625865367
 51
5.3247408778408811
  0
ARC
  8
default
 10
-6.0310398642288483
 20
-4.71046617709675
 30
0
 40
10.475892699432846
 50
172.52221059946274
 51
204.17136576768186
  0
ARC
  8
default
 10
-21.666843262419903
 20
-2.6563211576651149
 30
0
 40
5.294264753794808
 50
352.50269902380921
 51
30.114893642996488
  0
ARC
  8
default
 10
-19.116880799534201
 20
-2.9582331698351179
 30
0
 40
3.68374402617652
 50
357.05720223245203
 51
34.669396851639299
  0
ARC
  8
default
 10
-17.931694117147185
 20
-2.3165598609608939
 30
0
 40
3.4007323969359269
 50
354.6752591221591
 51
32.287453741346354
  0
ARC
  8
default
 10
-7.0949033051475823
 20
-2.8678006451104618
 30
0
 40
10.475892699432844
 50
215.82863423231811
 51
247.47778940053723
  0
ARC
  8
default
 10
-13.133863234358035
 20
-17.435876106238776
 30
0
 40
5.2942647537948053
 50
29.885106357003519
 51
67.497300976190772
  0
ARC
  8
default
 10
-12.120345475162082
 20
-15.076587828598022
 30
0
 40
3.683744026176516
 50
25.330603148360694
 51
62.942797767547937
  0
ARC
  8
default
 10
-10.97204674755308
 20
-14.371022707860984
 30
0
 40
3.4007323969359282
 50
27.712546258653664
 51
65.324740877840895
  0
ARC
  8
default
 10
1.0638634409187269
 20
-7.5782668222072136
 30
0
 40
10.475892699432848
 50
232.52221059946277
 51
264.17136576768189
  0
ARC
  8
default
 10
-8.5329800280618784
 20
-20.092197263903898
 30
0
 40
5.2942647537948115
 50
52.502699023809164
 51
90.114893642996435
  0
ARC
  8
default
 10
-6.9965353243721244
 20
-18.034820998433151
 30
0
 40
3.6837440261765209
 50
57.057202232452006
 51
94.669396851639249
  0
ARC
  8
default
 10
-6.9596473695941095
 20
-16.687582568821881
 30
0
 40
3.4007323969359269
 50
54.675259122159119
 51
92.287453741346383
  0
ARC
  8
default
 10
-1.0638634409187313
 20
-7.5782668222072136
 30
0
 40
10.475892699432848
 50
275.82863423231811
 51
307.47778940053723
  0
ARC
  8
default
 10
8.5329800280618624
 20
-20.092197263903898
 30
0
 40
5.2942647537948018
 50
89.88510635700348
 51
127.49730097619073
  0
ARC
  8
default
 10
6.9965353243721156
 20
-18.034820998433155
 30
0
 40
3.6837440261765195
 50
85.330603148360666
 51
122.9427977675479
  0
ARC
  8
default
 10
6.9596473695941059
 20
-16.687582568821881
 30
0
 40
3.4007323969359269
 50
87.712546258653617
 51
125.32474087784088
  0
ARC
  8
default
 10
7.0949033051475778
 20
-2.8678006451104654
 30
0
 40
10.475892699432848
 50
292.52221059946271
 51
324.17136576768189
  0
ARC
  8
default
 10
13.133863234358024
 20
-17.43587610623878
 30
0
 40
5.2942647537948009
 50
112.50269902380926
 51
150.11489364299649
  0
ARC
  8
default
 10
12.120345475162077
 20
-15.076587828598036
 30
0
 40
3.6837440261765222
 50
117.05720223245204
 51
154.66939685163928
  0
ARC
  8
default
 10
10.972046747553071
 20
-14.371022707860989
 30
0
 40
3.4007323969359273
 50
114.67525912215913
 51
152.28745374134635
  0
ARC
  8
default
 10
6.0310398642288501
 20
-4.7104661770967517
 30
0
 40
10.475892699432844
 50
335.82863423231805
 51
7.4777894005371985
  0
ARC
  8
default
 10
21.666843262419899
 20
-2.6563211576651287
 30
0
 40
5.2942647537948044
 50
149.88510635700351
 51
187.49730097619076
  0
ARC
  8
default
 10
19.116880799534201
 20
-2.9582331698351347
 30
0
 40
3.6837440261765213
 50
145.33060314836064
 51
182.94279776754786
  0
ARC
  8
default
 10
17.931694117147185
 20
-2.3165598609609095
 30
0
 40
3.4007323969359273
 50
147.71254625865359
 51
185.32474087784081
  0
ARC
  8
default
 10
6.0310398642288483
 20
4.7104661770967526
 30
0
 40
10.475892699432846
 50
352.52221059946277
 51
24.171365767681884
  0
ARC
  8
default
 10
21.666843262419924
 20
2.6563211576651149
 30
0
 40
5.2942647537948266
 50
172.50269902380921
 51
210.11489364299644
  0
ARC
  8
default
 10
19.116880799534204
 20
2.9582331698351263
 30
0
 40
3.6837440261765222
 50
177.05720223245208
 51
214.66939685163931
  0
ARC
  8
default
 10
17.931694117147185
 20
2.3165598609608993
 30
0
 40
3.4007323969359269
 50
174.67525912215913
 51
212.28745374134635
  0
ARC
  8
default
 10
7.0949033051475823
 20
2.8678006451104627
 30
0
 40
10.475892699432844
 50
35.82863423231813
 51
67.477789400537247
  0
ARC
  8
default
 10
13.133863234358033
 20
17.435876106238783
 30
0
 40
5.2942647537948089
 50
209.88510635700351
 51
247.49730097619073
  0
ARC
  8
default
 10
12.120345475162086
 20
15.076587828598029
 30
0
 40
3.6837440261765222
 50
205.33060314836064
 51
242.94279776754786
  0
ARC
  8
default
 10
10.972046747553076
 20
14.371022707860988
 30
0
 40
3.4007323969359282
 50
207.71254625865365
 51
245.3247408778409
  0
ARC
  8
default
 10
0
 20
0
 30
0
 40
20.5
 50
0
 51
180
  0
ARC
  8
default
 10
0
 20
0
 30
0
 40
20.5
 50
180
 51
0
  0
ARC
  8
default
 10
0
 20
0
 30
0
 40
23.5
 50
0
 51
180
  0
ARC
  8
default
 10
0
 20
0
 30
0
 40
23.5
 50
180
 51
0
  0
ENDSEC
  0
EOF
