G04 EAGLE Gerber RS-274X export*
G75*
%MOMM*%
%FSLAX34Y34*%
%LPD*%
%INBottom Copper*%
%IPPOS*%
%AMOC8*
5,1,8,0,0,1.08239X$1,22.5*%
G01*
%ADD10P,1.429621X8X22.500000*%
%ADD11C,1.524000*%
%ADD12C,1.108000*%
%ADD13C,1.778000*%
%ADD14C,0.508000*%


D10*
X-132700Y-440000D03*
X-107300Y-440000D03*
X-132700Y-360000D03*
X-107300Y-360000D03*
D11*
X550620Y-86119D02*
X564941Y-91331D01*
X556253Y-115199D02*
X541932Y-109987D01*
X533245Y-133855D02*
X547566Y-139068D01*
X538879Y-162936D02*
X524558Y-157723D01*
X515871Y-181592D02*
X530191Y-186804D01*
X521504Y-210672D02*
X507183Y-205460D01*
X498496Y-229328D02*
X512817Y-234540D01*
X504129Y-258408D02*
X489809Y-253196D01*
X481121Y-277064D02*
X495442Y-282277D01*
X486755Y-306145D02*
X472434Y-300932D01*
X463747Y-324801D02*
X478068Y-330013D01*
X469380Y-353881D02*
X455059Y-348669D01*
D12*
X484460Y25400D02*
X495540Y25400D01*
X495540Y0D02*
X484460Y0D01*
X484460Y-25400D02*
X495540Y-25400D01*
X406854Y264227D02*
X416450Y269767D01*
X429150Y247770D02*
X419554Y242230D01*
X432254Y220233D02*
X441850Y225773D01*
X220233Y432254D02*
X225773Y441850D01*
X247770Y429150D02*
X242230Y419554D01*
X264227Y406854D02*
X269767Y416450D01*
X-25400Y484460D02*
X-25400Y495540D01*
X0Y495540D02*
X0Y484460D01*
X25400Y484460D02*
X25400Y495540D01*
X-264227Y406854D02*
X-269767Y416450D01*
X-247770Y429150D02*
X-242230Y419554D01*
X-220233Y432254D02*
X-225773Y441850D01*
X-432254Y220233D02*
X-441850Y225773D01*
X-429150Y247770D02*
X-419554Y242230D01*
X-406854Y264227D02*
X-416450Y269767D01*
X-484460Y-25400D02*
X-495540Y-25400D01*
X-495540Y0D02*
X-484460Y0D01*
X-484460Y25400D02*
X-495540Y25400D01*
X-406854Y-264227D02*
X-416450Y-269767D01*
X-429150Y-247770D02*
X-419554Y-242230D01*
X-432254Y-220233D02*
X-441850Y-225773D01*
X-220233Y-432254D02*
X-225773Y-441850D01*
X-247770Y-429150D02*
X-242230Y-419554D01*
X-264227Y-406854D02*
X-269767Y-416450D01*
X25400Y-484460D02*
X25400Y-495540D01*
X0Y-495540D02*
X0Y-484460D01*
X-25400Y-484460D02*
X-25400Y-495540D01*
X264227Y-406854D02*
X269767Y-416450D01*
X247770Y-429150D02*
X242230Y-419554D01*
X220233Y-432254D02*
X225773Y-441850D01*
X432254Y-220233D02*
X441850Y-225773D01*
X429150Y-247770D02*
X419554Y-242230D01*
X406854Y-264227D02*
X416450Y-269767D01*
D13*
X-104000Y-600000D03*
X-136000Y-600000D03*
D14*
X-180000Y0D02*
X-490000Y0D01*
X0Y180000D02*
X0Y490000D01*
X0Y-410000D02*
X0Y-490000D01*
X-648Y180000D02*
X-245000Y424352D01*
X-648Y180000D02*
X0Y180000D01*
X-180000Y648D02*
X-424352Y245000D01*
X-180000Y648D02*
X-180000Y0D01*
X-180000Y-648D02*
X-424352Y-245000D01*
X-180000Y-648D02*
X-180000Y0D01*
X180000Y-648D02*
X424352Y-245000D01*
X-107300Y-360000D02*
X-107300Y-440000D01*
X-107300Y-480000D01*
X-60000Y-480000D01*
X-60000Y-410000D01*
X0Y-410000D01*
X180000Y648D02*
X424352Y245000D01*
X180000Y648D02*
X180000Y-648D01*
X648Y180000D02*
X245000Y424352D01*
X648Y180000D02*
X0Y180000D01*
X179352Y0D02*
X180000Y-648D01*
X-90000Y0D02*
X-180000Y0D01*
X-90000Y0D02*
X0Y0D01*
X110000Y0D01*
X179352Y0D01*
X180000Y648D02*
X180648Y0D01*
X490000Y0D01*
X-90000Y-269352D02*
X-245000Y-424352D01*
X-90000Y-269352D02*
X-90000Y0D01*
X0Y0D02*
X0Y180000D01*
X0Y0D02*
X0Y-410000D01*
X110000Y-289352D02*
X245000Y-424352D01*
X110000Y-289352D02*
X110000Y0D01*
X-107300Y-480000D02*
X-107300Y-596700D01*
X-104000Y-600000D01*
X437052Y-223003D02*
X437052Y-122948D01*
X520000Y-40000D01*
X520000Y250000D02*
X455000Y315000D01*
X275000Y495000D01*
X260000Y510000D01*
X-30000Y510000D01*
X-250000Y510000D01*
X-310000Y450000D01*
X-490000Y270000D01*
X-520000Y240000D01*
X520000Y30000D02*
X520000Y-40000D01*
X520000Y30000D02*
X520000Y250000D01*
X-520000Y240000D02*
X-520000Y-30000D01*
X-520000Y-200000D01*
X-240000Y-480000D02*
X-180000Y-480000D01*
X-430000Y-290000D02*
X-520000Y-200000D01*
X-430000Y-290000D02*
X-240000Y-480000D01*
X-223003Y-437052D02*
X-160000Y-437052D01*
X-135648Y-437052D01*
X-132700Y-440000D01*
X-132700Y-360000D01*
X-160000Y-437052D02*
X-155000Y-442052D01*
X-411652Y-266997D02*
X-430000Y-285345D01*
X-430000Y-290000D01*
X-494600Y-30000D02*
X-490000Y-25400D01*
X-494600Y-30000D02*
X-520000Y-30000D01*
X-437052Y223003D02*
X-484049Y270000D01*
X-490000Y270000D01*
X-305345Y450000D02*
X-266997Y411652D01*
X-305345Y450000D02*
X-310000Y450000D01*
X-25400Y490000D02*
X-25400Y505400D01*
X-30000Y510000D01*
X223003Y437052D02*
X275000Y489049D01*
X275000Y495000D01*
X455000Y310345D02*
X411652Y266997D01*
X455000Y310345D02*
X455000Y315000D01*
X490000Y25400D02*
X515400Y25400D01*
X520000Y30000D01*
X-180000Y-480000D02*
X-180000Y-620000D01*
X-160000Y-640000D02*
X130000Y-640000D01*
X150000Y-620000D01*
X290000Y-480000D01*
X290000Y-434655D02*
X266997Y-411652D01*
X-160000Y-640000D02*
X-180000Y-620000D01*
X290000Y-480000D02*
X290000Y-434655D01*
X150000Y-614600D02*
X25400Y-490000D01*
X150000Y-614600D02*
X150000Y-620000D01*
X-155000Y-455000D02*
X-155000Y-442052D01*
X-155000Y-455000D02*
X-180000Y-480000D01*
X-132700Y-440000D02*
X-132700Y-596700D01*
X-136000Y-600000D01*
M02*
