  0
SECTION
  2
HEADER
  9
$INSBASE
 10
0.0000
 20
0.0000
  9
$EXTMIN
 10
-56.212311
 20
-56.212311
  9
$EXTMAX
 10
56.212311
 20
56.212311
  9
$LIMMIN
 10
-56.212311
 20
-56.212311
  9
$LIMMAX
 10
56.212311
 20
56.212311
  9
$TEXTSTYLE
  7
STANDARD
  9
$CLAYER
  8
default
  0
ENDSEC
  0
SECTION
  2
TABLES
  0
TABLE
  2
LTYPE
 70
4948253
  0
LTYPE
  2
CONTINUOUS
 70
    64
  3
Solid line
 72
    65
 73
     0
 40
0.0
  0
ENDTAB
  0
TABLE
  2
LAYER
 70
     5
  0
LAYER
  2
default
 70
    64
 62
     7
  6
CONTINUOUS
  0
ENDTAB
  0
TABLE
  2
STYLE
 70
     1
  0
STYLE
  2
STANDARD
 70
     0
 40
0.0
 41
1.0
 50
0.0
 71
     0
 42
0.2
  3
txt
  4

  0
ENDTAB
  0
TABLE
  2
VIEW
 70
     0
  0
ENDTAB
  0
ENDSEC
  0
SECTION
  2
BLOCKS
  0
ENDSEC
  0
SECTION
  2
ENTITIES
  0
LINE
  8
default
 10
-52.500000
 20
-52.500000
 30
0.0
 11
-52.500000
 21
52.500000
 31
0.0
  0
LINE
  8
default
 10
-52.500000
 20
52.500000
 30
0.0
 11
52.500000
 21
52.500000
 31
0.0
  0
LINE
  8
default
 10
52.500000
 20
52.500000
 30
0.0
 11
52.500000
 21
-52.500000
 31
0.0
  0
LINE
  8
default
 10
52.500000
 20
-52.500000
 30
0.0
 11
-52.500000
 21
-52.500000
 31
0.0
  0
LINE
  8
default
 10
7.957298
 20
14.782444
 30
0.0
 11
7.446376
 21
13.897501
 31
0.0
  0
LINE
  8
default
 10
4.974200
 20
14.812567
 30
0.0
 11
0.000000
 21
14.812567
 31
0.0
  0
LINE
  8
default
 10
4.974200
 20
13.790724
 30
0.0
 11
0.000000
 21
13.790724
 31
0.0
  0
LINE
  8
default
 10
4.974200
 20
13.790724
 30
0.0
 11
4.974200
 21
14.812567
 31
0.0
  0
LINE
  8
default
 10
-7.957298
 20
14.782444
 30
0.0
 11
-7.446376
 21
13.897501
 31
0.0
  0
LINE
  8
default
 10
-4.974200
 20
14.812567
 30
0.0
 11
0.000000
 21
14.812567
 31
0.0
  0
LINE
  8
default
 10
-4.974200
 20
13.790724
 30
0.0
 11
0.000000
 21
13.790724
 31
0.0
  0
LINE
  8
default
 10
-4.974200
 20
13.790724
 30
0.0
 11
-4.974200
 21
14.812567
 31
0.0
  0
LINE
  8
default
 10
-8.823323
 20
14.282444
 30
0.0
 11
-8.312401
 21
13.397501
 31
0.0
  0
LINE
  8
default
 10
-10.340960
 20
11.714067
 30
0.0
 11
-12.828060
 21
7.406284
 31
0.0
  0
LINE
  8
default
 10
-9.456017
 20
11.203145
 30
0.0
 11
-11.943117
 21
6.895362
 31
0.0
  0
LINE
  8
default
 10
-9.456017
 20
11.203145
 30
0.0
 11
-10.340960
 21
11.714067
 31
0.0
  0
LINE
  8
default
 10
-16.780621
 20
0.500000
 30
0.0
 11
-15.758777
 21
0.500000
 31
0.0
  0
LINE
  8
default
 10
-15.315160
 20
3.098500
 30
0.0
 11
-12.828060
 21
7.406284
 31
0.0
  0
LINE
  8
default
 10
-14.430217
 20
2.587578
 30
0.0
 11
-11.943117
 21
6.895362
 31
0.0
  0
LINE
  8
default
 10
-14.430217
 20
2.587578
 30
0.0
 11
-15.315160
 21
3.098500
 31
0.0
  0
LINE
  8
default
 10
-16.780621
 20
-0.500000
 30
0.0
 11
-15.758777
 21
-0.500000
 31
0.0
  0
LINE
  8
default
 10
-15.315160
 20
-3.098500
 30
0.0
 11
-12.828060
 21
-7.406284
 31
0.0
  0
LINE
  8
default
 10
-14.430217
 20
-2.587578
 30
0.0
 11
-11.943117
 21
-6.895362
 31
0.0
  0
LINE
  8
default
 10
-14.430217
 20
-2.587578
 30
0.0
 11
-15.315160
 21
-3.098500
 31
0.0
  0
LINE
  8
default
 10
-8.823323
 20
-14.282444
 30
0.0
 11
-8.312401
 21
-13.397501
 31
0.0
  0
LINE
  8
default
 10
-10.340960
 20
-11.714067
 30
0.0
 11
-12.828060
 21
-7.406284
 31
0.0
  0
LINE
  8
default
 10
-9.456017
 20
-11.203145
 30
0.0
 11
-11.943117
 21
-6.895362
 31
0.0
  0
LINE
  8
default
 10
-9.456017
 20
-11.203145
 30
0.0
 11
-10.340960
 21
-11.714067
 31
0.0
  0
LINE
  8
default
 10
-7.957298
 20
-14.782444
 30
0.0
 11
-7.446376
 21
-13.897501
 31
0.0
  0
LINE
  8
default
 10
-4.974200
 20
-14.812567
 30
0.0
 11
-0.000000
 21
-14.812567
 31
0.0
  0
LINE
  8
default
 10
-4.974200
 20
-13.790724
 30
0.0
 11
-0.000000
 21
-13.790724
 31
0.0
  0
LINE
  8
default
 10
-4.974200
 20
-13.790724
 30
0.0
 11
-4.974200
 21
-14.812567
 31
0.0
  0
LINE
  8
default
 10
7.957298
 20
-14.782444
 30
0.0
 11
7.446376
 21
-13.897501
 31
0.0
  0
LINE
  8
default
 10
4.974200
 20
-14.812567
 30
0.0
 11
-0.000000
 21
-14.812567
 31
0.0
  0
LINE
  8
default
 10
4.974200
 20
-13.790724
 30
0.0
 11
-0.000000
 21
-13.790724
 31
0.0
  0
LINE
  8
default
 10
4.974200
 20
-13.790724
 30
0.0
 11
4.974200
 21
-14.812567
 31
0.0
  0
LINE
  8
default
 10
8.823323
 20
-14.282444
 30
0.0
 11
8.312401
 21
-13.397501
 31
0.0
  0
LINE
  8
default
 10
10.340960
 20
-11.714067
 30
0.0
 11
12.828060
 21
-7.406284
 31
0.0
  0
LINE
  8
default
 10
9.456017
 20
-11.203145
 30
0.0
 11
11.943117
 21
-6.895362
 31
0.0
  0
LINE
  8
default
 10
9.456017
 20
-11.203145
 30
0.0
 11
10.340960
 21
-11.714067
 31
0.0
  0
LINE
  8
default
 10
16.780621
 20
-0.500000
 30
0.0
 11
15.758777
 21
-0.500000
 31
0.0
  0
LINE
  8
default
 10
15.315160
 20
-3.098500
 30
0.0
 11
12.828060
 21
-7.406284
 31
0.0
  0
LINE
  8
default
 10
14.430217
 20
-2.587578
 30
0.0
 11
11.943117
 21
-6.895362
 31
0.0
  0
LINE
  8
default
 10
14.430217
 20
-2.587578
 30
0.0
 11
15.315160
 21
-3.098500
 31
0.0
  0
LINE
  8
default
 10
16.780621
 20
0.500000
 30
0.0
 11
15.758777
 21
0.500000
 31
0.0
  0
LINE
  8
default
 10
15.315160
 20
3.098500
 30
0.0
 11
12.828060
 21
7.406284
 31
0.0
  0
LINE
  8
default
 10
14.430217
 20
2.587578
 30
0.0
 11
11.943117
 21
6.895362
 31
0.0
  0
LINE
  8
default
 10
14.430217
 20
2.587578
 30
0.0
 11
15.315160
 21
3.098500
 31
0.0
  0
LINE
  8
default
 10
8.823323
 20
14.282444
 30
0.0
 11
8.312401
 21
13.397501
 31
0.0
  0
LINE
  8
default
 10
10.340960
 20
11.714067
 30
0.0
 11
12.828060
 21
7.406284
 31
0.0
  0
LINE
  8
default
 10
9.456017
 20
11.203145
 30
0.0
 11
11.943117
 21
6.895362
 31
0.0
  0
LINE
  8
default
 10
9.456017
 20
11.203145
 30
0.0
 11
10.340960
 21
11.714067
 31
0.0
  0
ARC
  8
default
 10
0.000000
 20
-0.000000
 30
0.000000
 40
9.000000
 50
0.000000
 51
60.000000
  0
ARC
  8
default
 10
0.000000
 20
-0.000000
 30
0.000000
 40
9.000000
 50
60.000000
 51
120.000000
  0
ARC
  8
default
 10
-0.000000
 20
0.000000
 30
0.000000
 40
9.000000
 50
120.000000
 51
180.000000
  0
ARC
  8
default
 10
0.000000
 20
0.000000
 30
0.000000
 40
9.000000
 50
180.000000
 51
240.000000
  0
ARC
  8
default
 10
0.000000
 20
0.000000
 30
0.000000
 40
9.000000
 50
240.000000
 51
300.000000
  0
ARC
  8
default
 10
0.000000
 20
0.000000
 30
0.000000
 40
9.000000
 50
300.000000
 51
0.000000
  0
ARC
  8
default
 10
-6.017793
 20
-9.731360
 30
0.000000
 40
27.888363
 50
66.073937
 51
77.538619
  0
ARC
  8
default
 10
7.621475
 20
20.846373
 30
0.000000
 40
5.593710
 50
245.395702
 51
283.110662
  0
ARC
  8
default
 10
6.509847
 20
19.164537
 30
0.000000
 40
4.614959
 50
250.563968
 51
288.278927
  0
ARC
  8
default
 10
6.053973
 20
17.463192
 30
0.000000
 40
3.827915
 50
253.615692
 51
291.330652
  0
ARC
  8
default
 10
6.017793
 20
-9.731360
 30
0.000000
 40
27.888363
 50
102.461381
 51
113.926063
  0
ARC
  8
default
 10
-7.621475
 20
20.846373
 30
0.000000
 40
5.593710
 50
256.889338
 51
294.604298
  0
ARC
  8
default
 10
-6.509847
 20
19.164537
 30
0.000000
 40
4.614959
 50
251.721073
 51
289.436032
  0
ARC
  8
default
 10
-6.053973
 20
17.463192
 30
0.000000
 40
3.827915
 50
248.669348
 51
286.384308
  0
ARC
  8
default
 10
5.418708
 20
-10.077242
 30
0.000000
 40
27.888363
 50
126.073937
 51
137.538619
  0
ARC
  8
default
 10
-14.242751
 20
17.023577
 30
0.000000
 40
5.593710
 50
305.395702
 51
343.110662
  0
ARC
  8
default
 10
-13.342052
 20
15.219961
 30
0.000000
 40
4.614959
 50
310.563968
 51
348.278927
  0
ARC
  8
default
 10
-12.096582
 20
13.974491
 30
0.000000
 40
3.827915
 50
313.615692
 51
351.330652
  0
ARC
  8
default
 10
11.436502
 20
0.345882
 30
0.000000
 40
27.888363
 50
162.461381
 51
173.926063
  0
ARC
  8
default
 10
-21.864226
 20
3.822796
 30
0.000000
 40
5.593710
 50
316.889338
 51
354.604298
  0
ARC
  8
default
 10
-19.851899
 20
3.944575
 30
0.000000
 40
4.614959
 50
311.721073
 51
349.436032
  0
ARC
  8
default
 10
-18.150555
 20
3.488702
 30
0.000000
 40
3.827915
 50
308.669348
 51
346.384308
  0
ARC
  8
default
 10
11.436502
 20
-0.345882
 30
0.000000
 40
27.888363
 50
186.073937
 51
197.538619
  0
ARC
  8
default
 10
-21.864226
 20
-3.822796
 30
0.000000
 40
5.593710
 50
5.395702
 51
43.110662
  0
ARC
  8
default
 10
-19.851899
 20
-3.944575
 30
0.000000
 40
4.614959
 50
10.563968
 51
48.278927
  0
ARC
  8
default
 10
-18.150555
 20
-3.488702
 30
0.000000
 40
3.827915
 50
13.615692
 51
51.330652
  0
ARC
  8
default
 10
5.418708
 20
10.077242
 30
0.000000
 40
27.888363
 50
222.461381
 51
233.926063
  0
ARC
  8
default
 10
-14.242751
 20
-17.023577
 30
0.000000
 40
5.593710
 50
16.889338
 51
54.604298
  0
ARC
  8
default
 10
-13.342052
 20
-15.219961
 30
0.000000
 40
4.614959
 50
11.721073
 51
49.436032
  0
ARC
  8
default
 10
-12.096582
 20
-13.974491
 30
0.000000
 40
3.827915
 50
8.669348
 51
46.384308
  0
ARC
  8
default
 10
6.017793
 20
9.731360
 30
0.000000
 40
27.888363
 50
246.073937
 51
257.538619
  0
ARC
  8
default
 10
-7.621475
 20
-20.846373
 30
0.000000
 40
5.593710
 50
65.395702
 51
103.110662
  0
ARC
  8
default
 10
-6.509847
 20
-19.164537
 30
0.000000
 40
4.614959
 50
70.563968
 51
108.278927
  0
ARC
  8
default
 10
-6.053973
 20
-17.463192
 30
0.000000
 40
3.827915
 50
73.615692
 51
111.330652
  0
ARC
  8
default
 10
-6.017793
 20
9.731360
 30
0.000000
 40
27.888363
 50
282.461381
 51
293.926063
  0
ARC
  8
default
 10
7.621475
 20
-20.846373
 30
0.000000
 40
5.593710
 50
76.889338
 51
114.604298
  0
ARC
  8
default
 10
6.509847
 20
-19.164537
 30
0.000000
 40
4.614959
 50
71.721073
 51
109.436032
  0
ARC
  8
default
 10
6.053973
 20
-17.463192
 30
0.000000
 40
3.827915
 50
68.669348
 51
106.384308
  0
ARC
  8
default
 10
-5.418708
 20
10.077242
 30
0.000000
 40
27.888363
 50
306.073937
 51
317.538619
  0
ARC
  8
default
 10
14.242751
 20
-17.023577
 30
0.000000
 40
5.593710
 50
125.395702
 51
163.110662
  0
ARC
  8
default
 10
13.342052
 20
-15.219961
 30
0.000000
 40
4.614959
 50
130.563968
 51
168.278927
  0
ARC
  8
default
 10
12.096582
 20
-13.974491
 30
0.000000
 40
3.827915
 50
133.615692
 51
171.330652
  0
ARC
  8
default
 10
-11.436502
 20
-0.345882
 30
0.000000
 40
27.888363
 50
342.461381
 51
353.926063
  0
ARC
  8
default
 10
21.864226
 20
-3.822796
 30
0.000000
 40
5.593710
 50
136.889338
 51
174.604298
  0
ARC
  8
default
 10
19.851899
 20
-3.944575
 30
0.000000
 40
4.614959
 50
131.721073
 51
169.436032
  0
ARC
  8
default
 10
18.150555
 20
-3.488702
 30
0.000000
 40
3.827915
 50
128.669348
 51
166.384308
  0
ARC
  8
default
 10
-11.436502
 20
0.345882
 30
0.000000
 40
27.888363
 50
6.073937
 51
17.538619
  0
ARC
  8
default
 10
21.864226
 20
3.822796
 30
0.000000
 40
5.593710
 50
185.395702
 51
223.110662
  0
ARC
  8
default
 10
19.851899
 20
3.944575
 30
0.000000
 40
4.614959
 50
190.563968
 51
228.278927
  0
ARC
  8
default
 10
18.150555
 20
3.488702
 30
0.000000
 40
3.827915
 50
193.615692
 51
231.330652
  0
ARC
  8
default
 10
-5.418708
 20
-10.077242
 30
0.000000
 40
27.888363
 50
42.461381
 51
53.926063
  0
ARC
  8
default
 10
14.242751
 20
17.023577
 30
0.000000
 40
5.593710
 50
196.889338
 51
234.604298
  0
ARC
  8
default
 10
13.342052
 20
15.219961
 30
0.000000
 40
4.614959
 50
191.721073
 51
229.436032
  0
ARC
  8
default
 10
12.096582
 20
13.974491
 30
0.000000
 40
3.827915
 50
188.669348
 51
226.384308
  0
ARC
  8
default
 10
0.000000
 20
0.000000
 30
0.000000
 40
20.100000
 50
0.000000
 51
180.000000
  0
ARC
  8
default
 10
0.000000
 20
0.000000
 30
0.000000
 40
20.100000
 50
180.000000
 51
0.000000
  0
ARC
  8
default
 10
0.000000
 20
0.000000
 30
0.000000
 40
23.100000
 50
0.000000
 51
180.000000
  0
ARC
  8
default
 10
0.000000
 20
0.000000
 30
0.000000
 40
23.100000
 50
180.000000
 51
0.000000
  0
ENDSEC
  0
EOF
