  0
SECTION
  2
HEADER
  9
$INSBASE
 10
0.0000
 20
0.0000
  9
$EXTMIN
 10
-57.818376618407356
 20
-57.818376618407356
  9
$EXTMAX
 10
57.818376618407356
 20
57.818376618407356
  9
$LIMMIN
 10
-57.818376618407356
 20
-57.818376618407356
  9
$LIMMAX
 10
57.818376618407356
 20
57.818376618407356
  9
$TEXTSTYLE
  7
STANDARD
  9
$CLAYER
  8
default
  0
ENDSEC
  0
SECTION
  2
TABLES
  0
TABLE
  2
LTYPE
 70
4948253
  0
LTYPE
  2
CONTINUOUS
 70
    64
  3
Solid line
 72
    65
 73
     0
 40
0.0
  0
ENDTAB
  0
TABLE
  2
LAYER
 70
     5
  0
LAYER
  2
default
 70
    64
 62
     7
  6
CONTINUOUS
  0
ENDTAB
  0
TABLE
  2
STYLE
 70
     1
  0
STYLE
  2
STANDARD
 70
     0
 40
0.0
 41
1.0
 50
0.0
 71
     0
 42
0.2
  3
txt
  4

  0
ENDTAB
  0
TABLE
  2
VIEW
 70
     0
  0
ENDTAB
  0
ENDSEC
  0
SECTION
  2
BLOCKS
  0
ENDSEC
  0
SECTION
  2
ENTITIES
  0
LINE
  8
default
 10
-54
 20
-54
 30
0.0
 11
-54
 21
54
 31
0.0
  0
LINE
  8
default
 10
-54
 20
54
 30
0.0
 11
54
 21
54
 31
0.0
  0
LINE
  8
default
 10
54
 20
54
 30
0.0
 11
54
 21
-54
 31
0.0
  0
LINE
  8
default
 10
54
 20
-54
 30
0.0
 11
-54
 21
-54
 31
0.0
  0
LINE
  8
default
 10
6.7790818692054593
 20
13.053976834830429
 30
0.0
 11
5.4218720940370746
 21
10.390957939012077
 31
0.0
  0
LINE
  8
default
 10
4.9177201824756125
 20
14.499990191611282
 30
0.0
 11
3.3780948531435224
 21
14.499990191611282
 31
0.0
  0
LINE
  8
default
 10
3.3780948531435224
 20
14.499990191611282
 30
0.0
 11
0
 21
14.499990191611282
 31
0.0
  0
LINE
  8
default
 10
4.9177201824756125
 20
11.515143289490412
 30
0.0
 11
3.3780948531435224
 21
11.515143289490412
 31
0.0
  0
LINE
  8
default
 10
3.3780948531435224
 20
11.515143289490412
 30
0.0
 11
0
 21
11.515143289490412
 31
0.0
  0
LINE
  8
default
 10
3.3780948531435224
 20
11.515143289490412
 30
0.0
 11
3.3780948531435224
 21
14.499990191611282
 31
0.0
  0
LINE
  8
default
 10
-6.7790818692054593
 20
13.053976834830429
 30
0.0
 11
-5.4218720940370746
 21
10.390957939012077
 31
0.0
  0
LINE
  8
default
 10
-4.9177201824756125
 20
14.499990191611282
 30
0.0
 11
-3.3780948531435224
 21
14.499990191611282
 31
0.0
  0
LINE
  8
default
 10
-3.3780948531435224
 20
14.499990191611282
 30
0.0
 11
0
 21
14.499990191611282
 31
0.0
  0
LINE
  8
default
 10
-4.9177201824756125
 20
11.515143289490412
 30
0.0
 11
-3.3780948531435224
 21
11.515143289490412
 31
0.0
  0
LINE
  8
default
 10
-3.3780948531435224
 20
11.515143289490412
 30
0.0
 11
0
 21
11.515143289490412
 31
0.0
  0
LINE
  8
default
 10
-3.3780948531435224
 20
11.515143289490412
 30
0.0
 11
-3.3780948531435224
 21
14.499990191611282
 31
0.0
  0
LINE
  8
default
 10
-7.9155346247739997
 20
12.397845530481641
 30
0.0
 11
-6.2878974978215139
 21
9.8909579390120754
 31
0.0
  0
LINE
  8
default
 10
-10.098499769322753
 20
11.508865702532969
 30
0.0
 11
-10.868312433988798
 21
10.175511055021396
 31
0.0
  0
LINE
  8
default
 10
-10.868312433988798
 20
10.175511055021396
 30
0.0
 11
-12.55735986056056
 21
7.2499950958056427
 31
0.0
  0
LINE
  8
default
 10
-7.5135465256787963
 20
10.016442251472533
 30
0.0
 11
-8.2833591903448411
 21
8.6830876039609599
 31
0.0
  0
LINE
  8
default
 10
-8.2833591903448411
 20
8.6830876039609599
 30
0.0
 11
-9.9724066169166026
 21
5.757571644745207
 31
0.0
  0
LINE
  8
default
 10
-8.2833591903448411
 20
8.6830876039609599
 30
0.0
 11
-10.868312433988798
 21
10.175511055021396
 31
0.0
  0
LINE
  8
default
 10
-14.69461649397946
 20
0.65613130434879174
 30
0.0
 11
-11.709769591858588
 21
0.50000000000000266
 31
0.0
  0
LINE
  8
default
 10
-15.016219951798366
 20
2.9911244890783175
 30
0.0
 11
-14.246407287132321
 21
4.3244791365898898
 31
0.0
  0
LINE
  8
default
 10
-14.246407287132321
 20
4.3244791365898898
 30
0.0
 11
-12.55735986056056
 21
7.2499950958056427
 31
0.0
  0
LINE
  8
default
 10
-12.431266708154409
 20
1.4987010380178818
 30
0.0
 11
-11.661454043488364
 21
2.8320556855294541
 31
0.0
  0
LINE
  8
default
 10
-11.661454043488364
 20
2.8320556855294541
 30
0.0
 11
-9.9724066169166026
 21
5.757571644745207
 31
0.0
  0
LINE
  8
default
 10
-11.661454043488364
 20
2.8320556855294541
 30
0.0
 11
-14.246407287132321
 21
4.3244791365898898
 31
0.0
  0
LINE
  8
default
 10
-14.69461649397946
 20
-0.65613130434878641
 30
0.0
 11
-11.709769591858588
 21
-0.49999999999999822
 31
0.0
  0
LINE
  8
default
 10
-15.016219951798366
 20
-2.9911244890783113
 30
0.0
 11
-14.246407287132321
 21
-4.3244791365898845
 31
0.0
  0
LINE
  8
default
 10
-14.246407287132321
 20
-4.3244791365898845
 30
0.0
 11
-12.557359860560561
 21
-7.2499950958056374
 31
0.0
  0
LINE
  8
default
 10
-12.431266708154411
 20
-1.4987010380178774
 30
0.0
 11
-11.661454043488366
 21
-2.8320556855294501
 31
0.0
  0
LINE
  8
default
 10
-11.661454043488366
 20
-2.8320556855294501
 30
0.0
 11
-9.9724066169166043
 21
-5.7575716447452034
 31
0.0
  0
LINE
  8
default
 10
-11.661454043488366
 20
-2.8320556855294501
 30
0.0
 11
-14.246407287132321
 21
-4.3244791365898845
 31
0.0
  0
LINE
  8
default
 10
-7.9155346247740042
 20
-12.397845530481638
 30
0.0
 11
-6.2878974978215174
 21
-9.8909579390120737
 31
0.0
  0
LINE
  8
default
 10
-10.098499769322757
 20
-11.508865702532963
 30
0.0
 11
-10.868312433988802
 21
-10.17551105502139
 31
0.0
  0
LINE
  8
default
 10
-10.868312433988802
 20
-10.17551105502139
 30
0.0
 11
-12.557359860560561
 21
-7.2499950958056374
 31
0.0
  0
LINE
  8
default
 10
-7.513546525678799
 20
-10.01644225147253
 30
0.0
 11
-8.2833591903448429
 21
-8.6830876039609564
 31
0.0
  0
LINE
  8
default
 10
-8.2833591903448429
 20
-8.6830876039609564
 30
0.0
 11
-9.9724066169166043
 21
-5.7575716447452034
 31
0.0
  0
LINE
  8
default
 10
-8.2833591903448429
 20
-8.6830876039609564
 30
0.0
 11
-10.868312433988802
 21
-10.17551105502139
 31
0.0
  0
LINE
  8
default
 10
-6.7790818692054611
 20
-13.053976834830429
 30
0.0
 11
-5.4218720940370755
 21
-10.390957939012077
 31
0.0
  0
LINE
  8
default
 10
-4.9177201824756143
 20
-14.499990191611282
 30
0.0
 11
-3.3780948531435242
 21
-14.499990191611282
 31
0.0
  0
LINE
  8
default
 10
-3.3780948531435242
 20
-14.499990191611282
 30
0.0
 11
-1.7757366575824773e-015
 21
-14.499990191611282
 31
0.0
  0
LINE
  8
default
 10
-4.9177201824756143
 20
-11.515143289490412
 30
0.0
 11
-3.3780948531435238
 21
-11.515143289490412
 31
0.0
  0
LINE
  8
default
 10
-3.3780948531435238
 20
-11.515143289490412
 30
0.0
 11
-1.4101983371197557e-015
 21
-11.515143289490412
 31
0.0
  0
LINE
  8
default
 10
-3.3780948531435238
 20
-11.515143289490412
 30
0.0
 11
-3.3780948531435242
 21
-14.499990191611282
 31
0.0
  0
LINE
  8
default
 10
6.7790818692054575
 20
-13.053976834830429
 30
0.0
 11
5.4218720940370737
 21
-10.390957939012077
 31
0.0
  0
LINE
  8
default
 10
4.9177201824756107
 20
-14.499990191611282
 30
0.0
 11
3.3780948531435206
 21
-14.499990191611282
 31
0.0
  0
LINE
  8
default
 10
3.3780948531435206
 20
-14.499990191611282
 30
0.0
 11
-1.7757366575824773e-015
 21
-14.499990191611282
 31
0.0
  0
LINE
  8
default
 10
4.9177201824756107
 20
-11.515143289490412
 30
0.0
 11
3.3780948531435211
 21
-11.515143289490412
 31
0.0
  0
LINE
  8
default
 10
3.3780948531435211
 20
-11.515143289490412
 30
0.0
 11
-1.4101983371197557e-015
 21
-11.515143289490412
 31
0.0
  0
LINE
  8
default
 10
3.3780948531435211
 20
-11.515143289490412
 30
0.0
 11
3.3780948531435206
 21
-14.499990191611282
 31
0.0
  0
LINE
  8
default
 10
7.9155346247739935
 20
-12.397845530481643
 30
0.0
 11
6.2878974978215103
 21
-9.890957939012079
 31
0.0
  0
LINE
  8
default
 10
10.098499769322748
 20
-11.508865702532972
 30
0.0
 11
10.868312433988793
 21
-10.175511055021399
 31
0.0
  0
LINE
  8
default
 10
10.868312433988793
 20
-10.175511055021399
 30
0.0
 11
12.557359860560556
 21
-7.2499950958056472
 31
0.0
  0
LINE
  8
default
 10
7.5135465256787928
 20
-10.016442251472537
 30
0.0
 11
8.2833591903448376
 21
-8.6830876039609635
 31
0.0
  0
LINE
  8
default
 10
8.2833591903448376
 20
-8.6830876039609635
 30
0.0
 11
9.9724066169166008
 21
-5.7575716447452114
 31
0.0
  0
LINE
  8
default
 10
8.2833591903448376
 20
-8.6830876039609635
 30
0.0
 11
10.868312433988793
 21
-10.175511055021399
 31
0.0
  0
LINE
  8
default
 10
14.69461649397946
 20
-0.65613130434879796
 30
0.0
 11
11.709769591858588
 21
-0.50000000000000711
 31
0.0
  0
LINE
  8
default
 10
15.016219951798364
 20
-2.9911244890783228
 30
0.0
 11
14.246407287132319
 21
-4.3244791365898951
 31
0.0
  0
LINE
  8
default
 10
14.246407287132319
 20
-4.3244791365898951
 30
0.0
 11
12.557359860560556
 21
-7.2499950958056472
 31
0.0
  0
LINE
  8
default
 10
12.431266708154409
 20
-1.4987010380178871
 30
0.0
 11
11.661454043488364
 21
-2.8320556855294594
 31
0.0
  0
LINE
  8
default
 10
11.661454043488364
 20
-2.8320556855294594
 30
0.0
 11
9.9724066169166008
 21
-5.7575716447452114
 31
0.0
  0
LINE
  8
default
 10
11.661454043488364
 20
-2.8320556855294594
 30
0.0
 11
14.246407287132319
 21
-4.3244791365898951
 31
0.0
  0
LINE
  8
default
 10
14.69461649397946
 20
0.65613130434879174
 30
0.0
 11
11.709769591858588
 21
0.50000000000000266
 31
0.0
  0
LINE
  8
default
 10
15.016219951798366
 20
2.9911244890783175
 30
0.0
 11
14.246407287132321
 21
4.3244791365898898
 31
0.0
  0
LINE
  8
default
 10
14.246407287132321
 20
4.3244791365898898
 30
0.0
 11
12.55735986056056
 21
7.2499950958056427
 31
0.0
  0
LINE
  8
default
 10
12.431266708154409
 20
1.4987010380178818
 30
0.0
 11
11.661454043488364
 21
2.8320556855294541
 31
0.0
  0
LINE
  8
default
 10
11.661454043488364
 20
2.8320556855294541
 30
0.0
 11
9.9724066169166026
 21
5.757571644745207
 31
0.0
  0
LINE
  8
default
 10
11.661454043488364
 20
2.8320556855294541
 30
0.0
 11
14.246407287132321
 21
4.3244791365898898
 31
0.0
  0
LINE
  8
default
 10
7.9155346247739997
 20
12.397845530481641
 30
0.0
 11
6.2878974978215139
 21
9.8909579390120754
 31
0.0
  0
LINE
  8
default
 10
10.098499769322753
 20
11.508865702532969
 30
0.0
 11
10.868312433988798
 21
10.175511055021396
 31
0.0
  0
LINE
  8
default
 10
10.868312433988798
 20
10.175511055021396
 30
0.0
 11
12.55735986056056
 21
7.2499950958056427
 31
0.0
  0
LINE
  8
default
 10
7.5135465256787963
 20
10.016442251472533
 30
0.0
 11
8.2833591903448411
 21
8.6830876039609599
 31
0.0
  0
LINE
  8
default
 10
8.2833591903448411
 20
8.6830876039609599
 30
0.0
 11
9.9724066169166026
 21
5.757571644745207
 31
0.0
  0
LINE
  8
default
 10
8.2833591903448411
 20
8.6830876039609599
 30
0.0
 11
10.868312433988798
 21
10.175511055021396
 31
0.0
  0
ARC
  8
default
 10
0
 20
-4.4408920985006262e-016
 30
0
 40
9
 50
2.8271597168564595e-015
 51
59.999999999999993
  0
ARC
  8
default
 10
0
 20
-8.8817841970012523e-016
 30
0
 40
9
 50
59.999999999999993
 51
119.99999999999999
  0
ARC
  8
default
 10
-8.8817841970012523e-016
 20
0
 30
0
 40
9
 50
119.99999999999999
 51
180
  0
ARC
  8
default
 10
0
 20
4.4408920985006262e-016
 30
0
 40
9
 50
180
 51
240
  0
ARC
  8
default
 10
0
 20
8.8817841970012523e-016
 30
0
 40
9
 50
240
 51
300
  0
ARC
  8
default
 10
8.8817841970012523e-016
 20
0
 30
0
 40
9
 50
300
 51
0
  0
ARC
  8
default
 10
1.4378166720432812
 20
14.29871248239145
 30
0
 40
3.9707488047483546
 50
16.809373711781451
 51
111.22935238689165
  0
ARC
  8
default
 10
11.175103716336764
 20
21.032497555579688
 30
0
 40
8.1508386207361863
 50
223.25651035839149
 51
245.90338992164033
  0
ARC
  8
default
 10
9.4590080223904227
 20
18.424689910745656
 30
0
 40
6.0022131860116037
 50
220.83443389620453
 51
243.48131345945336
  0
ARC
  8
default
 10
7.9768182676315389
 20
12.211887132373176
 30
0
 40
3.1374405296674066
 50
192.83087591117433
 51
215.47775547442316
  0
ARC
  8
default
 10
-1.4378166720432812
 20
14.29871248239145
 30
0
 40
3.9707488047483546
 50
68.770647613108338
 51
163.19062628821857
  0
ARC
  8
default
 10
-11.175103716336764
 20
21.032497555579688
 30
0
 40
8.1508386207361863
 50
294.09661007835967
 51
316.74348964160851
  0
ARC
  8
default
 10
-9.4590080223904227
 20
18.424689910745656
 30
0
 40
6.0022131860116037
 50
296.51868654054664
 51
319.16556610379547
  0
ARC
  8
default
 10
-7.9768182676315389
 20
12.211887132373176
 30
0
 40
3.1374405296674066
 50
324.52224452557687
 51
347.1691240888257
  0
ARC
  8
default
 10
-11.664139915139005
 20
8.3945420051700061
 30
0
 40
3.9707488047483555
 50
76.809373711781461
 51
171.22935238689166
  0
ARC
  8
default
 10
-12.627125329997734
 20
20.194172486063373
 30
0
 40
8.1508386207361845
 50
283.25651035839149
 51
305.90338992164033
  0
ARC
  8
default
 10
-11.226745508361367
 20
17.404086197363743
 30
0
 40
6.0022131860116055
 50
280.83443389620453
 51
303.48131345945336
  0
ARC
  8
default
 10
-6.5873953509676948
 20
13.014070827327279
 30
0
 40
3.1374405296674088
 50
252.83087591117422
 51
275.47775547442308
  0
ARC
  8
default
 10
-13.101956587182288
 20
5.9041704772214452
 30
0
 40
3.9707488047483546
 50
128.77064761310834
 51
223.19062628821851
  0
ARC
  8
default
 10
-23.802229046334503
 20
0.83832506951631758
 30
0
 40
8.1508386207361845
 50
354.09661007835967
 51
16.743489641608512
  0
ARC
  8
default
 10
-20.685753530751793
 20
1.020603713381921
 30
0
 40
6.0022131860116037
 50
356.51868654054658
 51
19.165566103795442
  0
ARC
  8
default
 10
-14.564213618599238
 20
-0.80218369495410191
 30
0
 40
3.1374405296674071
 50
24.522244525576877
 51
47.169124088825711
  0
ARC
  8
default
 10
-13.101956587182288
 20
-5.9041704772214407
 30
0
 40
3.9707488047483555
 50
136.80937371178146
 51
231.22935238689163
  0
ARC
  8
default
 10
-23.802229046334503
 20
-0.83832506951631114
 30
0
 40
8.150838620736188
 50
343.25651035839149
 51
5.9033899216403301
  0
ARC
  8
default
 10
-20.685753530751789
 20
-1.0206037133819152
 30
0
 40
6.0022131860116019
 50
340.83443389620453
 51
3.4813134594533919
  0
ARC
  8
default
 10
-14.56421361859924
 20
0.80218369495411057
 30
0
 40
3.1374405296674102
 50
312.83087591117425
 51
335.47775547442308
  0
ARC
  8
default
 10
-11.664139915139007
 20
-8.3945420051700008
 30
0
 40
3.9707488047483537
 50
188.77064761310834
 51
283.19062628821854
  0
ARC
  8
default
 10
-12.627125329997742
 20
-20.194172486063366
 30
0
 40
8.1508386207361845
 50
54.096610078359625
 51
76.743489641608463
  0
ARC
  8
default
 10
-11.226745508361375
 20
-17.404086197363739
 30
0
 40
6.0022131860116055
 50
56.518686540546597
 51
79.165566103795427
  0
ARC
  8
default
 10
-6.5873953509677028
 20
-13.014070827327275
 30
0
 40
3.1374405296674062
 50
84.522244525576852
 51
107.1691240888257
  0
ARC
  8
default
 10
-1.437816672043283
 20
-14.29871248239145
 30
0
 40
3.9707488047483546
 50
196.80937371178143
 51
291.22935238689166
  0
ARC
  8
default
 10
-11.175103716336778
 20
-21.032497555579695
 30
0
 40
8.1508386207361969
 50
43.256510358391481
 51
65.903389921640311
  0
ARC
  8
default
 10
-9.4590080223904245
 20
-18.424689910745656
 30
0
 40
6.0022131860116037
 50
40.834433896204537
 51
63.481313459453382
  0
ARC
  8
default
 10
-7.9768182676315407
 20
-12.211887132373175
 30
0
 40
3.1374405296674057
 50
12.83087591117429
 51
35.477755474423127
  0
ARC
  8
default
 10
1.437816672043279
 20
-14.29871248239145
 30
0
 40
3.9707488047483546
 50
248.77064761310834
 51
343.19062628821854
  0
ARC
  8
default
 10
11.175103716336759
 20
-21.032497555579688
 30
0
 40
8.1508386207361827
 50
114.09661007835965
 51
136.74348964160848
  0
ARC
  8
default
 10
9.4590080223904209
 20
-18.424689910745656
 30
0
 40
6.0022131860116037
 50
116.51868654054662
 51
139.16556610379547
  0
ARC
  8
default
 10
7.9768182676315371
 20
-12.211887132373178
 30
0
 40
3.1374405296674071
 50
144.52224452557681
 51
167.16912408882564
  0
ARC
  8
default
 10
11.664139915139002
 20
-8.3945420051700115
 30
0
 40
3.9707488047483555
 50
256.80937371178146
 51
351.22935238689166
  0
ARC
  8
default
 10
12.627125329997723
 20
-20.194172486063373
 30
0
 40
8.1508386207361774
 50
103.25651035839145
 51
125.9033899216403
  0
ARC
  8
default
 10
11.226745508361358
 20
-17.404086197363746
 30
0
 40
6.0022131860116055
 50
100.8344338962045
 51
123.48131345945335
  0
ARC
  8
default
 10
6.5873953509676912
 20
-13.014070827327282
 30
0
 40
3.1374405296674088
 50
72.830875911174232
 51
95.477755474423077
  0
ARC
  8
default
 10
13.101956587182285
 20
-5.9041704772214514
 30
0
 40
3.9707488047483541
 50
308.77064761310834
 51
43.190626288218525
  0
ARC
  8
default
 10
23.802229046334499
 20
-0.83832506951633268
 30
0
 40
8.1508386207361845
 50
174.09661007835962
 51
196.74348964160845
  0
ARC
  8
default
 10
20.685753530751789
 20
-1.0206037133819312
 30
0
 40
6.0022131860116019
 50
176.51868654054658
 51
199.16556610379538
  0
ARC
  8
default
 10
14.56421361859924
 20
0.8021836949540968
 30
0
 40
3.1374405296674088
 50
204.52224452557684
 51
227.16912408882567
  0
ARC
  8
default
 10
13.101956587182288
 20
5.9041704772214452
 30
0
 40
3.9707488047483546
 50
316.80937371178146
 51
51.229352386891676
  0
ARC
  8
default
 10
23.802229046334535
 20
0.83832506951631114
 30
0
 40
8.1508386207362182
 50
163.25651035839152
 51
185.90338992164035
  0
ARC
  8
default
 10
20.685753530751793
 20
1.020603713381921
 30
0
 40
6.0022131860116037
 50
160.83443389620456
 51
183.48131345945339
  0
ARC
  8
default
 10
14.564213618599238
 20
-0.80218369495410169
 30
0
 40
3.1374405296674071
 50
132.8308759111743
 51
155.47775547442313
  0
ARC
  8
default
 10
11.664139915139005
 20
8.3945420051700061
 30
0
 40
3.9707488047483555
 50
8.7706476131083502
 51
103.19062628821855
  0
ARC
  8
default
 10
12.627125329997735
 20
20.194172486063373
 30
0
 40
8.1508386207361845
 50
234.09661007835965
 51
256.74348964160851
  0
ARC
  8
default
 10
11.226745508361367
 20
17.404086197363743
 30
0
 40
6.0022131860116055
 50
236.51868654054664
 51
259.16556610379547
  0
ARC
  8
default
 10
6.5873953509676948
 20
13.014070827327279
 30
0
 40
3.1374405296674088
 50
264.52224452557692
 51
287.16912408882575
  0
ARC
  8
default
 10
0
 20
0
 30
0
 40
20.5
 50
0
 51
180
  0
ARC
  8
default
 10
0
 20
0
 30
0
 40
20.5
 50
180
 51
0
  0
ARC
  8
default
 10
0
 20
0
 30
0
 40
23.5
 50
0
 51
180
  0
ARC
  8
default
 10
0
 20
0
 30
0
 40
23.5
 50
180
 51
0
  0
ENDSEC
  0
EOF
