  0
SECTION
  2
HEADER
  9
$INSBASE
 10
0.0000
 20
0.0000
  9
$EXTMIN
 10
-57.818376618407356
 20
-57.818376618407356
  9
$EXTMAX
 10
57.818376618407356
 20
57.818376618407356
  9
$LIMMIN
 10
-57.818376618407356
 20
-57.818376618407356
  9
$LIMMAX
 10
57.818376618407356
 20
57.818376618407356
  9
$TEXTSTYLE
  7
STANDARD
  9
$CLAYER
  8
default
  0
ENDSEC
  0
SECTION
  2
TABLES
  0
TABLE
  2
LTYPE
 70
4948253
  0
LTYPE
  2
CONTINUOUS
 70
    64
  3
Solid line
 72
    65
 73
     0
 40
0.0
  0
ENDTAB
  0
TABLE
  2
LAYER
 70
     5
  0
LAYER
  2
default
 70
    64
 62
     7
  6
CONTINUOUS
  0
ENDTAB
  0
TABLE
  2
STYLE
 70
     1
  0
STYLE
  2
STANDARD
 70
     0
 40
0.0
 41
1.0
 50
0.0
 71
     0
 42
0.2
  3
txt
  4

  0
ENDTAB
  0
TABLE
  2
VIEW
 70
     0
  0
ENDTAB
  0
ENDSEC
  0
SECTION
  2
BLOCKS
  0
ENDSEC
  0
SECTION
  2
ENTITIES
  0
LINE
  8
default
 10
-54
 20
-54
 30
0.0
 11
-54
 21
54
 31
0.0
  0
LINE
  8
default
 10
-54
 20
54
 30
0.0
 11
54
 21
54
 31
0.0
  0
LINE
  8
default
 10
54
 20
54
 30
0.0
 11
54
 21
-54
 31
0.0
  0
LINE
  8
default
 10
54
 20
-54
 30
0.0
 11
-54
 21
-54
 31
0.0
  0
LINE
  8
default
 10
7.4692490232050739
 20
13.980337090260477
 30
0.0
 11
6.7874597792671336
 21
12.756225192020915
 31
0.0
  0
LINE
  8
default
 10
4.5264160790525638
 20
14.223016235818836
 30
0.0
 11
2.9618093594228281
 21
14.223016235818836
 31
0.0
  0
LINE
  8
default
 10
2.9618093594228281
 20
14.223016235818836
 30
0.0
 11
0
 21
14.223016235818836
 31
0.0
  0
LINE
  8
default
 10
4.5264160790525638
 20
12.822009612899617
 30
0.0
 11
2.9618093594228281
 21
12.822009612899617
 31
0.0
  0
LINE
  8
default
 10
2.9618093594228281
 20
12.822009612899617
 30
0.0
 11
0
 21
12.822009612899617
 31
0.0
  0
LINE
  8
default
 10
2.9618093594228281
 20
12.822009612899617
 30
0.0
 11
2.9618093594228281
 21
14.223016235818836
 31
0.0
  0
LINE
  8
default
 10
-7.4692490232050739
 20
13.980337090260477
 30
0.0
 11
-6.7874597792671336
 21
12.756225192020915
 31
0.0
  0
LINE
  8
default
 10
-4.5264160790525638
 20
14.223016235818836
 30
0.0
 11
-2.9618093594228281
 21
14.223016235818836
 31
0.0
  0
LINE
  8
default
 10
-2.9618093594228281
 20
14.223016235818836
 30
0.0
 11
0
 21
14.223016235818836
 31
0.0
  0
LINE
  8
default
 10
-4.5264160790525638
 20
12.822009612899617
 30
0.0
 11
-2.9618093594228281
 21
12.822009612899617
 31
0.0
  0
LINE
  8
default
 10
-2.9618093594228281
 20
12.822009612899617
 30
0.0
 11
0
 21
12.822009612899617
 31
0.0
  0
LINE
  8
default
 10
-2.9618093594228281
 20
12.822009612899617
 30
0.0
 11
-2.9618093594228281
 21
14.223016235818836
 31
0.0
  0
LINE
  8
default
 10
-8.3727025620328543
 20
13.458727946417937
 30
0.0
 11
-7.6534851830515738
 21
12.256225192020915
 31
0.0
  0
LINE
  8
default
 10
-10.054285339131351
 20
11.031499430467292
 30
0.0
 11
-10.836588698946219
 21
9.6765102643361036
 31
0.0
  0
LINE
  8
default
 10
-10.836588698946219
 20
9.6765102643361036
 30
0.0
 11
-12.317493378657634
 21
7.1115081179094197
 31
0.0
  0
LINE
  8
default
 10
-8.8409780128130606
 20
10.330996119007683
 30
0.0
 11
-9.6232813726279289
 21
8.9760069528764941
 31
0.0
  0
LINE
  8
default
 10
-9.6232813726279289
 20
8.9760069528764941
 30
0.0
 11
-11.104186052339344
 21
6.4110048064498102
 31
0.0
  0
LINE
  8
default
 10
-9.6232813726279289
 20
8.9760069528764941
 30
0.0
 11
-10.836588698946219
 21
9.6765102643361036
 31
0.0
  0
LINE
  8
default
 10
-15.841951585237931
 20
0.52160914384254209
 30
0.0
 11
-14.440944962318708
 21
0.50000000000000355
 31
0.0
  0
LINE
  8
default
 10
-14.580701418183917
 20
3.1915168053515477
 30
0.0
 11
-13.798398058369049
 21
4.5465059714827358
 31
0.0
  0
LINE
  8
default
 10
-13.798398058369049
 20
4.5465059714827358
 30
0.0
 11
-12.317493378657634
 21
7.1115081179094197
 31
0.0
  0
LINE
  8
default
 10
-13.367394091865627
 20
2.4910134938919382
 30
0.0
 11
-12.585090732050759
 21
3.8460026600231263
 31
0.0
  0
LINE
  8
default
 10
-12.585090732050759
 20
3.8460026600231263
 30
0.0
 11
-11.104186052339344
 21
6.4110048064498102
 31
0.0
  0
LINE
  8
default
 10
-12.585090732050759
 20
3.8460026600231263
 30
0.0
 11
-13.798398058369049
 21
4.5465059714827358
 31
0.0
  0
LINE
  8
default
 10
-15.841951585237929
 20
-0.52160914384253765
 30
0.0
 11
-14.440944962318708
 21
-0.49999999999999822
 31
0.0
  0
LINE
  8
default
 10
-14.580701418183917
 20
-3.1915168053515419
 30
0.0
 11
-13.798398058369049
 21
-4.5465059714827305
 31
0.0
  0
LINE
  8
default
 10
-13.798398058369049
 20
-4.5465059714827305
 30
0.0
 11
-12.317493378657636
 21
-7.1115081179094144
 31
0.0
  0
LINE
  8
default
 10
-13.367394091865627
 20
-2.4910134938919333
 30
0.0
 11
-12.585090732050759
 21
-3.8460026600231214
 31
0.0
  0
LINE
  8
default
 10
-12.585090732050759
 20
-3.8460026600231214
 30
0.0
 11
-11.104186052339346
 21
-6.4110048064498057
 31
0.0
  0
LINE
  8
default
 10
-12.585090732050759
 20
-3.8460026600231214
 30
0.0
 11
-13.798398058369049
 21
-4.5465059714827305
 31
0.0
  0
LINE
  8
default
 10
-8.3727025620328597
 20
-13.458727946417934
 30
0.0
 11
-7.6534851830515773
 21
-12.256225192020912
 31
0.0
  0
LINE
  8
default
 10
-10.054285339131354
 20
-11.031499430467287
 30
0.0
 11
-10.836588698946223
 21
-9.6765102643360983
 31
0.0
  0
LINE
  8
default
 10
-10.836588698946223
 20
-9.6765102643360983
 30
0.0
 11
-12.317493378657636
 21
-7.1115081179094144
 31
0.0
  0
LINE
  8
default
 10
-8.8409780128130642
 20
-10.330996119007679
 30
0.0
 11
-9.6232813726279325
 21
-8.9760069528764905
 31
0.0
  0
LINE
  8
default
 10
-9.6232813726279325
 20
-8.9760069528764905
 30
0.0
 11
-11.104186052339346
 21
-6.4110048064498057
 31
0.0
  0
LINE
  8
default
 10
-9.6232813726279325
 20
-8.9760069528764905
 30
0.0
 11
-10.836588698946223
 21
-9.6765102643360983
 31
0.0
  0
LINE
  8
default
 10
-7.4692490232050757
 20
-13.980337090260475
 30
0.0
 11
-6.7874597792671354
 21
-12.756225192020915
 31
0.0
  0
LINE
  8
default
 10
-4.5264160790525656
 20
-14.223016235818836
 30
0.0
 11
-2.9618093594228299
 21
-14.223016235818836
 31
0.0
  0
LINE
  8
default
 10
-2.9618093594228299
 20
-14.223016235818836
 30
0.0
 11
-1.7418171307416374e-015
 21
-14.223016235818836
 31
0.0
  0
LINE
  8
default
 10
-4.5264160790525656
 20
-12.822009612899617
 30
0.0
 11
-2.9618093594228299
 21
-12.822009612899617
 31
0.0
  0
LINE
  8
default
 10
-2.9618093594228299
 20
-12.822009612899617
 30
0.0
 11
-1.5702433031074109e-015
 21
-12.822009612899617
 31
0.0
  0
LINE
  8
default
 10
-2.9618093594228299
 20
-12.822009612899617
 30
0.0
 11
-2.9618093594228299
 21
-14.223016235818836
 31
0.0
  0
LINE
  8
default
 10
7.4692490232050721
 20
-13.980337090260479
 30
0.0
 11
6.7874597792671318
 21
-12.756225192020915
 31
0.0
  0
LINE
  8
default
 10
4.526416079052562
 20
-14.223016235818836
 30
0.0
 11
2.9618093594228263
 21
-14.223016235818836
 31
0.0
  0
LINE
  8
default
 10
2.9618093594228263
 20
-14.223016235818836
 30
0.0
 11
-1.7418171307416374e-015
 21
-14.223016235818836
 31
0.0
  0
LINE
  8
default
 10
4.526416079052562
 20
-12.822009612899617
 30
0.0
 11
2.9618093594228263
 21
-12.822009612899617
 31
0.0
  0
LINE
  8
default
 10
2.9618093594228263
 20
-12.822009612899617
 30
0.0
 11
-1.5702433031074109e-015
 21
-12.822009612899617
 31
0.0
  0
LINE
  8
default
 10
2.9618093594228263
 20
-12.822009612899617
 30
0.0
 11
2.9618093594228263
 21
-14.223016235818836
 31
0.0
  0
LINE
  8
default
 10
8.372702562032849
 20
-13.458727946417941
 30
0.0
 11
7.6534851830515676
 21
-12.256225192020917
 31
0.0
  0
LINE
  8
default
 10
10.054285339131347
 20
-11.031499430467296
 30
0.0
 11
10.836588698946215
 21
-9.6765102643361072
 31
0.0
  0
LINE
  8
default
 10
10.836588698946215
 20
-9.6765102643361072
 30
0.0
 11
12.31749337865763
 21
-7.1115081179094242
 31
0.0
  0
LINE
  8
default
 10
8.8409780128130571
 20
-10.330996119007684
 30
0.0
 11
9.6232813726279254
 21
-8.9760069528764976
 31
0.0
  0
LINE
  8
default
 10
9.6232813726279254
 20
-8.9760069528764976
 30
0.0
 11
11.10418605233934
 21
-6.4110048064498137
 31
0.0
  0
LINE
  8
default
 10
9.6232813726279254
 20
-8.9760069528764976
 30
0.0
 11
10.836588698946215
 21
-9.6765102643361072
 31
0.0
  0
LINE
  8
default
 10
15.841951585237929
 20
-0.52160914384254831
 30
0.0
 11
14.440944962318707
 21
-0.50000000000000888
 31
0.0
  0
LINE
  8
default
 10
14.580701418183914
 20
-3.1915168053515535
 30
0.0
 11
13.798398058369045
 21
-4.5465059714827412
 31
0.0
  0
LINE
  8
default
 10
13.798398058369045
 20
-4.5465059714827412
 30
0.0
 11
12.31749337865763
 21
-7.1115081179094242
 31
0.0
  0
LINE
  8
default
 10
13.367394091865624
 20
-2.491013493891943
 30
0.0
 11
12.585090732050755
 21
-3.8460026600231303
 31
0.0
  0
LINE
  8
default
 10
12.585090732050755
 20
-3.8460026600231303
 30
0.0
 11
11.10418605233934
 21
-6.4110048064498137
 31
0.0
  0
LINE
  8
default
 10
12.585090732050755
 20
-3.8460026600231303
 30
0.0
 11
13.798398058369045
 21
-4.5465059714827412
 31
0.0
  0
LINE
  8
default
 10
15.841951585237931
 20
0.52160914384254209
 30
0.0
 11
14.440944962318708
 21
0.50000000000000355
 31
0.0
  0
LINE
  8
default
 10
14.580701418183917
 20
3.1915168053515477
 30
0.0
 11
13.798398058369049
 21
4.5465059714827358
 31
0.0
  0
LINE
  8
default
 10
13.798398058369049
 20
4.5465059714827358
 30
0.0
 11
12.317493378657634
 21
7.1115081179094197
 31
0.0
  0
LINE
  8
default
 10
13.367394091865627
 20
2.4910134938919382
 30
0.0
 11
12.585090732050759
 21
3.8460026600231263
 31
0.0
  0
LINE
  8
default
 10
12.585090732050759
 20
3.8460026600231263
 30
0.0
 11
11.104186052339344
 21
6.4110048064498102
 31
0.0
  0
LINE
  8
default
 10
12.585090732050759
 20
3.8460026600231263
 30
0.0
 11
13.798398058369049
 21
4.5465059714827358
 31
0.0
  0
LINE
  8
default
 10
8.3727025620328543
 20
13.458727946417937
 30
0.0
 11
7.6534851830515738
 21
12.256225192020915
 31
0.0
  0
LINE
  8
default
 10
10.054285339131351
 20
11.031499430467292
 30
0.0
 11
10.836588698946219
 21
9.6765102643361036
 31
0.0
  0
LINE
  8
default
 10
10.836588698946219
 20
9.6765102643361036
 30
0.0
 11
12.317493378657634
 21
7.1115081179094197
 31
0.0
  0
LINE
  8
default
 10
8.8409780128130606
 20
10.330996119007683
 30
0.0
 11
9.6232813726279289
 21
8.9760069528764941
 31
0.0
  0
LINE
  8
default
 10
9.6232813726279289
 20
8.9760069528764941
 30
0.0
 11
11.104186052339344
 21
6.4110048064498102
 31
0.0
  0
LINE
  8
default
 10
9.6232813726279289
 20
8.9760069528764941
 30
0.0
 11
10.836588698946219
 21
9.6765102643361036
 31
0.0
  0
ARC
  8
default
 10
0
 20
-4.4408920985006262e-016
 30
0
 40
9
 50
2.8271597168564595e-015
 51
59.999999999999993
  0
ARC
  8
default
 10
0
 20
-8.8817841970012523e-016
 30
0
 40
9
 50
59.999999999999993
 51
119.99999999999999
  0
ARC
  8
default
 10
-8.8817841970012523e-016
 20
0
 30
0
 40
9
 50
119.99999999999999
 51
180
  0
ARC
  8
default
 10
0
 20
4.4408920985006262e-016
 30
0
 40
9
 50
180
 51
240
  0
ARC
  8
default
 10
0
 20
8.8817841970012523e-016
 30
0
 40
9
 50
240
 51
300
  0
ARC
  8
default
 10
8.8817841970012523e-016
 20
0
 30
0
 40
9
 50
300
 51
0
  0
ARC
  8
default
 10
-0.40116747358968396
 20
11.772089153474072
 30
0
 40
6.2408179635478573
 50
33.053022342927946
 51
86.31441548315793
  0
ARC
  8
default
 10
4.5506938363664222
 20
2.2604003283552867
 30
0
 40
12.918536764359956
 50
72.566939277151207
 51
88.762576980945553
  0
ARC
  8
default
 10
5.1450235451269313
 20
3.7601434746067497
 30
0
 40
10.48114409854176
 50
77.187982137423091
 51
93.383619841217424
  0
ARC
  8
default
 10
5.4257621251949217
 20
4.8434885101617402
 30
0
 40
8.0290486545758029
 50
80.235646938048276
 51
96.431284641842609
  0
ARC
  8
default
 10
0.40116747358968396
 20
11.772089153474072
 30
0
 40
6.2408179635478573
 50
93.685584516842098
 51
146.94697765707207
  0
ARC
  8
default
 10
-4.5506938363664222
 20
2.2604003283552867
 30
0
 40
12.918536764359956
 50
91.237423019054447
 51
107.43306072284879
  0
ARC
  8
default
 10
-5.1450235451269313
 20
3.7601434746067497
 30
0
 40
10.48114409854176
 50
86.61638015878259
 51
102.81201786257691
  0
ARC
  8
default
 10
-5.4257621251949217
 20
4.8434885101617402
 30
0
 40
8.0290486545758029
 50
83.568715358157391
 51
99.764353061951724
  0
ARC
  8
default
 10
-10.395511999318636
 20
5.5386233534363489
 30
0
 40
6.2408179635478582
 50
93.053022342927932
 51
146.31441548315792
  0
ARC
  8
default
 10
0.31778281110485018
 20
5.0712166313162257
 30
0
 40
12.918536764359963
 50
132.56693927715122
 51
148.76257698094554
  0
ARC
  8
default
 10
-0.68386799832026934
 20
6.3357928304523679
 30
0
 40
10.481144098541758
 50
137.18798213742306
 51
153.38361984121741
  0
ARC
  8
default
 10
-1.4817030301406504
 20
7.1205920903911206
 30
0
 40
8.0290486545757993
 50
140.23564693804829
 51
156.43128464184264
  0
ARC
  8
default
 10
-9.9943445257289518
 20
6.2334658000377248
 30
0
 40
6.2408179635478582
 50
153.68558451684206
 51
206.94697765707201
  0
ARC
  8
default
 10
-4.2329110252615791
 20
-2.810816302960939
 30
0
 40
12.918536764359958
 50
151.23742301905446
 51
167.43306072284878
  0
ARC
  8
default
 10
-5.8288915434471988
 20
-2.5756493558456159
 30
0
 40
10.48114409854176
 50
146.61638015878259
 51
162.81201786257691
  0
ARC
  8
default
 10
-6.9074651553355721
 20
-2.2771035802293711
 30
0
 40
8.0290486545758011
 50
143.56871535815742
 51
159.76435306195174
  0
ARC
  8
default
 10
-9.9943445257289518
 20
-6.2334658000377203
 30
0
 40
6.24081796354786
 50
153.05302234292796
 51
206.31441548315794
  0
ARC
  8
default
 10
-4.2329110252615667
 20
2.8108163029609479
 30
0
 40
12.918536764359965
 50
192.56693927715116
 51
208.76257698094551
  0
ARC
  8
default
 10
-5.8288915434472006
 20
2.5756493558456146
 30
0
 40
10.481144098541753
 50
197.18798213742303
 51
213.38361984121738
  0
ARC
  8
default
 10
-6.9074651553355704
 20
2.277103580229376
 30
0
 40
8.0290486545758029
 50
200.23564693804826
 51
216.43128464184258
  0
ARC
  8
default
 10
-10.395511999318636
 20
-5.5386233534363436
 30
0
 40
6.2408179635478573
 50
213.68558451684208
 51
266.94697765707201
  0
ARC
  8
default
 10
0.31778281110485196
 20
-5.0712166313162292
 30
0
 40
12.918536764359963
 50
211.2374230190544
 51
227.43306072284875
  0
ARC
  8
default
 10
-0.68386799832026668
 20
-6.3357928304523696
 30
0
 40
10.48114409854176
 50
206.61638015878256
 51
222.81201786257688
  0
ARC
  8
default
 10
-1.481703030140654
 20
-7.1205920903911171
 30
0
 40
8.0290486545757993
 50
203.56871535815736
 51
219.76435306195171
  0
ARC
  8
default
 10
0.40116747358968219
 20
-11.772089153474072
 30
0
 40
6.2408179635478573
 50
213.05302234292793
 51
266.31441548315792
  0
ARC
  8
default
 10
-4.5506938363664133
 20
-2.2604003283552725
 30
0
 40
12.918536764359972
 50
252.56693927715116
 51
268.76257698094548
  0
ARC
  8
default
 10
-5.1450235451269268
 20
-3.7601434746067479
 30
0
 40
10.481144098541762
 50
257.18798213742309
 51
273.38361984121741
  0
ARC
  8
default
 10
-5.4257621251949235
 20
-4.8434885101617402
 30
0
 40
8.0290486545758029
 50
260.23564693804826
 51
276.43128464184258
  0
ARC
  8
default
 10
-0.40116747358968619
 20
-11.772089153474072
 30
0
 40
6.2408179635478573
 50
273.68558451684208
 51
326.94697765707207
  0
ARC
  8
default
 10
4.5506938363664258
 20
-2.2604003283552885
 30
0
 40
12.918536764359956
 50
271.2374230190544
 51
287.43306072284878
  0
ARC
  8
default
 10
5.1450235451269357
 20
-3.7601434746067497
 30
0
 40
10.48114409854176
 50
266.61638015878253
 51
282.81201786257691
  0
ARC
  8
default
 10
5.42576212519492
 20
-4.8434885101617402
 30
0
 40
8.0290486545758029
 50
263.56871535815742
 51
279.76435306195174
  0
ARC
  8
default
 10
10.395511999318632
 20
-5.5386233534363543
 30
0
 40
6.2408179635478582
 50
273.05302234292793
 51
326.31441548315792
  0
ARC
  8
default
 10
-0.3177828111048413
 20
-5.0712166313162381
 30
0
 40
12.918536764359947
 50
312.56693927715116
 51
328.76257698094554
  0
ARC
  8
default
 10
0.68386799832026313
 20
-6.3357928304523643
 30
0
 40
10.481144098541762
 50
317.18798213742303
 51
333.38361984121735
  0
ARC
  8
default
 10
1.4817030301406442
 20
-7.1205920903911135
 30
0
 40
8.0290486545758046
 50
320.23564693804826
 51
336.43128464184258
  0
ARC
  8
default
 10
9.9943445257289483
 20
-6.233465800037731
 30
0
 40
6.2408179635478573
 50
333.68558451684208
 51
26.946977657072029
  0
ARC
  8
default
 10
4.2329110252615756
 20
2.810816302960947
 30
0
 40
12.91853676435996
 50
331.2374230190544
 51
347.43306072284872
  0
ARC
  8
default
 10
5.8288915434471971
 20
2.5756493558456155
 30
0
 40
10.48114409854176
 50
326.61638015878259
 51
342.81201786257691
  0
ARC
  8
default
 10
6.9074651553355713
 20
2.2771035802293724
 30
0
 40
8.0290486545758029
 50
323.56871535815736
 51
339.76435306195168
  0
ARC
  8
default
 10
9.9943445257289518
 20
6.2334658000377248
 30
0
 40
6.2408179635478582
 50
333.05302234292799
 51
26.314415483157944
  0
ARC
  8
default
 10
4.2329110252615241
 20
-2.8108163029609479
 30
0
 40
12.918536764360008
 50
12.566939277151128
 51
28.762576980945457
  0
ARC
  8
default
 10
5.8288915434471971
 20
-2.5756493558456155
 30
0
 40
10.48114409854176
 50
17.187982137423077
 51
33.38361984121741
  0
ARC
  8
default
 10
6.9074651553355721
 20
-2.2771035802293706
 30
0
 40
8.0290486545758011
 50
20.235646938048262
 51
36.431284641842588
  0
ARC
  8
default
 10
10.395511999318636
 20
5.5386233534363489
 30
0
 40
6.2408179635478582
 50
33.685584516842084
 51
86.946977657072068
  0
ARC
  8
default
 10
-0.31778281110484841
 20
5.0712166313162266
 30
0
 40
12.918536764359963
 50
31.237423019054475
 51
47.433060722848815
  0
ARC
  8
default
 10
0.68386799832027023
 20
6.3357928304523679
 30
0
 40
10.481144098541758
 50
26.616380158782611
 51
42.812017862576937
  0
ARC
  8
default
 10
1.4817030301406504
 20
7.1205920903911206
 30
0
 40
8.0290486545757993
 50
23.568715358157384
 51
39.764353061951716
  0
ARC
  8
default
 10
0
 20
0
 30
0
 40
20.5
 50
0
 51
180
  0
ARC
  8
default
 10
0
 20
0
 30
0
 40
20.5
 50
180
 51
0
  0
ARC
  8
default
 10
0
 20
0
 30
0
 40
23.5
 50
0
 51
180
  0
ARC
  8
default
 10
0
 20
0
 30
0
 40
23.5
 50
180
 51
0
  0
ENDSEC
  0
EOF
