  0
SECTION
  2
HEADER
  9
$INSBASE
 10
0.0000
 20
0.0000
  9
$EXTMIN
 10
-57.818377
 20
-57.818377
  9
$EXTMAX
 10
57.818377
 20
57.818377
  9
$LIMMIN
 10
-57.818377
 20
-57.818377
  9
$LIMMAX
 10
57.818377
 20
57.818377
  9
$TEXTSTYLE
  7
STANDARD
  9
$CLAYER
  8
default
  0
ENDSEC
  0
SECTION
  2
TABLES
  0
TABLE
  2
LTYPE
 70
4948253
  0
LTYPE
  2
CONTINUOUS
 70
    64
  3
Solid line
 72
    65
 73
     0
 40
0.0
  0
ENDTAB
  0
TABLE
  2
LAYER
 70
     5
  0
LAYER
  2
default
 70
    64
 62
     7
  6
CONTINUOUS
  0
ENDTAB
  0
TABLE
  2
STYLE
 70
     1
  0
STYLE
  2
STANDARD
 70
     0
 40
0.0
 41
1.0
 50
0.0
 71
     0
 42
0.2
  3
txt
  4

  0
ENDTAB
  0
TABLE
  2
VIEW
 70
     0
  0
ENDTAB
  0
ENDSEC
  0
SECTION
  2
BLOCKS
  0
ENDSEC
  0
SECTION
  2
ENTITIES
  0
LINE
  8
default
 10
-54.000000
 20
-54.000000
 30
0.0
 11
-54.000000
 21
54.000000
 31
0.0
  0
LINE
  8
default
 10
-54.000000
 20
54.000000
 30
0.0
 11
54.000000
 21
54.000000
 31
0.0
  0
LINE
  8
default
 10
54.000000
 20
54.000000
 30
0.0
 11
54.000000
 21
-54.000000
 31
0.0
  0
LINE
  8
default
 10
54.000000
 20
-54.000000
 30
0.0
 11
-54.000000
 21
-54.000000
 31
0.0
  0
LINE
  8
default
 10
7.192143
 20
13.990359
 30
0.0
 11
5.981762
 21
11.360716
 31
0.0
  0
LINE
  8
default
 10
4.789668
 20
14.204553
 30
0.0
 11
4.487991
 21
14.204553
 31
0.0
  0
LINE
  8
default
 10
4.487991
 20
14.204553
 30
0.0
 11
0.000000
 21
14.204553
 31
0.0
  0
LINE
  8
default
 10
4.789668
 20
11.322025
 30
0.0
 11
4.487991
 21
11.322025
 31
0.0
  0
LINE
  8
default
 10
4.487991
 20
11.322025
 30
0.0
 11
0.000000
 21
11.322025
 31
0.0
  0
LINE
  8
default
 10
4.487991
 20
11.322025
 30
0.0
 11
4.487991
 21
14.204553
 31
0.0
  0
LINE
  8
default
 10
-7.192143
 20
13.990359
 30
0.0
 11
-5.981762
 21
11.360716
 31
0.0
  0
LINE
  8
default
 10
-4.789668
 20
14.204553
 30
0.0
 11
-4.487991
 21
14.204553
 31
0.0
  0
LINE
  8
default
 10
-4.487991
 20
14.204553
 30
0.0
 11
0.000000
 21
14.204553
 31
0.0
  0
LINE
  8
default
 10
-4.789668
 20
11.322025
 30
0.0
 11
-4.487991
 21
11.322025
 31
0.0
  0
LINE
  8
default
 10
-4.487991
 20
11.322025
 30
0.0
 11
0.000000
 21
11.322025
 31
0.0
  0
LINE
  8
default
 10
-4.487991
 20
11.322025
 30
0.0
 11
-4.487991
 21
14.204553
 31
0.0
  0
LINE
  8
default
 10
-8.519935
 20
13.223758
 30
0.0
 11
-6.847788
 21
10.860716
 31
0.0
  0
LINE
  8
default
 10
-9.906670
 20
11.250251
 30
0.0
 11
-10.057509
 21
10.988991
 31
0.0
  0
LINE
  8
default
 10
-10.057509
 20
10.988991
 30
0.0
 11
-12.301504
 21
7.102277
 31
0.0
  0
LINE
  8
default
 10
-7.410328
 20
9.808987
 30
0.0
 11
-7.561166
 21
9.547727
 31
0.0
  0
LINE
  8
default
 10
-7.561166
 20
9.547727
 30
0.0
 11
-9.805162
 21
5.661013
 31
0.0
  0
LINE
  8
default
 10
-7.561166
 20
9.547727
 30
0.0
 11
-10.057509
 21
10.988991
 31
0.0
  0
LINE
  8
default
 10
-15.712078
 20
0.766601
 30
0.0
 11
-12.829550
 21
0.500000
 31
0.0
  0
LINE
  8
default
 10
-14.696338
 20
2.954303
 30
0.0
 11
-14.545500
 21
3.215563
 31
0.0
  0
LINE
  8
default
 10
-14.545500
 20
3.215563
 30
0.0
 11
-12.301504
 21
7.102277
 31
0.0
  0
LINE
  8
default
 10
-12.199996
 20
1.513039
 30
0.0
 11
-12.049157
 21
1.774299
 31
0.0
  0
LINE
  8
default
 10
-12.049157
 20
1.774299
 30
0.0
 11
-9.805162
 21
5.661013
 31
0.0
  0
LINE
  8
default
 10
-12.049157
 20
1.774299
 30
0.0
 11
-14.545500
 21
3.215563
 31
0.0
  0
LINE
  8
default
 10
-15.712078
 20
-0.766601
 30
0.0
 11
-12.829550
 21
-0.500000
 31
0.0
  0
LINE
  8
default
 10
-14.696338
 20
-2.954303
 30
0.0
 11
-14.545500
 21
-3.215563
 31
0.0
  0
LINE
  8
default
 10
-14.545500
 20
-3.215563
 30
0.0
 11
-12.301504
 21
-7.102277
 31
0.0
  0
LINE
  8
default
 10
-12.199996
 20
-1.513039
 30
0.0
 11
-12.049157
 21
-1.774299
 31
0.0
  0
LINE
  8
default
 10
-12.049157
 20
-1.774299
 30
0.0
 11
-9.805162
 21
-5.661013
 31
0.0
  0
LINE
  8
default
 10
-12.049157
 20
-1.774299
 30
0.0
 11
-14.545500
 21
-3.215563
 31
0.0
  0
LINE
  8
default
 10
-8.519935
 20
-13.223758
 30
0.0
 11
-6.847788
 21
-10.860716
 31
0.0
  0
LINE
  8
default
 10
-9.906670
 20
-11.250251
 30
0.0
 11
-10.057509
 21
-10.988991
 31
0.0
  0
LINE
  8
default
 10
-10.057509
 20
-10.988991
 30
0.0
 11
-12.301504
 21
-7.102277
 31
0.0
  0
LINE
  8
default
 10
-7.410328
 20
-9.808987
 30
0.0
 11
-7.561166
 21
-9.547727
 31
0.0
  0
LINE
  8
default
 10
-7.561166
 20
-9.547727
 30
0.0
 11
-9.805162
 21
-5.661013
 31
0.0
  0
LINE
  8
default
 10
-7.561166
 20
-9.547727
 30
0.0
 11
-10.057509
 21
-10.988991
 31
0.0
  0
LINE
  8
default
 10
-7.192143
 20
-13.990359
 30
0.0
 11
-5.981762
 21
-11.360716
 31
0.0
  0
LINE
  8
default
 10
-4.789668
 20
-14.204553
 30
0.0
 11
-4.487991
 21
-14.204553
 31
0.0
  0
LINE
  8
default
 10
-4.487991
 20
-14.204553
 30
0.0
 11
-0.000000
 21
-14.204553
 31
0.0
  0
LINE
  8
default
 10
-4.789668
 20
-11.322025
 30
0.0
 11
-4.487991
 21
-11.322025
 31
0.0
  0
LINE
  8
default
 10
-4.487991
 20
-11.322025
 30
0.0
 11
-0.000000
 21
-11.322025
 31
0.0
  0
LINE
  8
default
 10
-4.487991
 20
-11.322025
 30
0.0
 11
-4.487991
 21
-14.204553
 31
0.0
  0
LINE
  8
default
 10
7.192143
 20
-13.990359
 30
0.0
 11
5.981762
 21
-11.360716
 31
0.0
  0
LINE
  8
default
 10
4.789668
 20
-14.204553
 30
0.0
 11
4.487991
 21
-14.204553
 31
0.0
  0
LINE
  8
default
 10
4.487991
 20
-14.204553
 30
0.0
 11
-0.000000
 21
-14.204553
 31
0.0
  0
LINE
  8
default
 10
4.789668
 20
-11.322025
 30
0.0
 11
4.487991
 21
-11.322025
 31
0.0
  0
LINE
  8
default
 10
4.487991
 20
-11.322025
 30
0.0
 11
-0.000000
 21
-11.322025
 31
0.0
  0
LINE
  8
default
 10
4.487991
 20
-11.322025
 30
0.0
 11
4.487991
 21
-14.204553
 31
0.0
  0
LINE
  8
default
 10
8.519935
 20
-13.223758
 30
0.0
 11
6.847788
 21
-10.860716
 31
0.0
  0
LINE
  8
default
 10
9.906670
 20
-11.250251
 30
0.0
 11
10.057509
 21
-10.988991
 31
0.0
  0
LINE
  8
default
 10
10.057509
 20
-10.988991
 30
0.0
 11
12.301504
 21
-7.102277
 31
0.0
  0
LINE
  8
default
 10
7.410328
 20
-9.808987
 30
0.0
 11
7.561166
 21
-9.547727
 31
0.0
  0
LINE
  8
default
 10
7.561166
 20
-9.547727
 30
0.0
 11
9.805162
 21
-5.661013
 31
0.0
  0
LINE
  8
default
 10
7.561166
 20
-9.547727
 30
0.0
 11
10.057509
 21
-10.988991
 31
0.0
  0
LINE
  8
default
 10
15.712078
 20
-0.766601
 30
0.0
 11
12.829550
 21
-0.500000
 31
0.0
  0
LINE
  8
default
 10
14.696338
 20
-2.954303
 30
0.0
 11
14.545500
 21
-3.215563
 31
0.0
  0
LINE
  8
default
 10
14.545500
 20
-3.215563
 30
0.0
 11
12.301504
 21
-7.102277
 31
0.0
  0
LINE
  8
default
 10
12.199996
 20
-1.513039
 30
0.0
 11
12.049157
 21
-1.774299
 31
0.0
  0
LINE
  8
default
 10
12.049157
 20
-1.774299
 30
0.0
 11
9.805162
 21
-5.661013
 31
0.0
  0
LINE
  8
default
 10
12.049157
 20
-1.774299
 30
0.0
 11
14.545500
 21
-3.215563
 31
0.0
  0
LINE
  8
default
 10
15.712078
 20
0.766601
 30
0.0
 11
12.829550
 21
0.500000
 31
0.0
  0
LINE
  8
default
 10
14.696338
 20
2.954303
 30
0.0
 11
14.545500
 21
3.215563
 31
0.0
  0
LINE
  8
default
 10
14.545500
 20
3.215563
 30
0.0
 11
12.301504
 21
7.102277
 31
0.0
  0
LINE
  8
default
 10
12.199996
 20
1.513039
 30
0.0
 11
12.049157
 21
1.774299
 31
0.0
  0
LINE
  8
default
 10
12.049157
 20
1.774299
 30
0.0
 11
9.805162
 21
5.661013
 31
0.0
  0
LINE
  8
default
 10
12.049157
 20
1.774299
 30
0.0
 11
14.545500
 21
3.215563
 31
0.0
  0
LINE
  8
default
 10
8.519935
 20
13.223758
 30
0.0
 11
6.847788
 21
10.860716
 31
0.0
  0
LINE
  8
default
 10
9.906670
 20
11.250251
 30
0.0
 11
10.057509
 21
10.988991
 31
0.0
  0
LINE
  8
default
 10
10.057509
 20
10.988991
 30
0.0
 11
12.301504
 21
7.102277
 31
0.0
  0
LINE
  8
default
 10
7.410328
 20
9.808987
 30
0.0
 11
7.561166
 21
9.547727
 31
0.0
  0
LINE
  8
default
 10
7.561166
 20
9.547727
 30
0.0
 11
9.805162
 21
5.661013
 31
0.0
  0
LINE
  8
default
 10
7.561166
 20
9.547727
 30
0.0
 11
10.057509
 21
10.988991
 31
0.0
  0
ARC
  8
default
 10
0.000000
 20
-0.000000
 30
0.000000
 40
9.000000
 50
0.000000
 51
60.000000
  0
ARC
  8
default
 10
0.000000
 20
-0.000000
 30
0.000000
 40
9.000000
 50
60.000000
 51
120.000000
  0
ARC
  8
default
 10
-0.000000
 20
0.000000
 30
0.000000
 40
9.000000
 50
120.000000
 51
180.000000
  0
ARC
  8
default
 10
0.000000
 20
0.000000
 30
0.000000
 40
9.000000
 50
180.000000
 51
240.000000
  0
ARC
  8
default
 10
0.000000
 20
0.000000
 30
0.000000
 40
9.000000
 50
240.000000
 51
300.000000
  0
ARC
  8
default
 10
0.000000
 20
0.000000
 30
0.000000
 40
9.000000
 50
300.000000
 51
0.000000
  0
ARC
  8
default
 10
-47.891680
 20
-73.926553
 30
0.000000
 40
103.653771
 50
59.247807
 51
62.481493
  0
ARC
  8
default
 10
8.427071
 20
22.914608
 30
0.000000
 40
8.441823
 50
246.856857
 51
269.517887
  0
ARC
  8
default
 10
6.525392
 20
20.092444
 30
0.000000
 40
6.138403
 50
253.574712
 51
276.235742
  0
ARC
  8
default
 10
5.289169
 20
14.316049
 30
0.000000
 40
3.035404
 50
260.528427
 51
283.189457
  0
ARC
  8
default
 10
47.891680
 20
-73.926553
 30
0.000000
 40
103.653771
 50
117.518507
 51
120.752193
  0
ARC
  8
default
 10
-8.427071
 20
22.914608
 30
0.000000
 40
8.441823
 50
270.482113
 51
293.143143
  0
ARC
  8
default
 10
-6.525392
 20
20.092444
 30
0.000000
 40
6.138403
 50
263.764258
 51
286.425288
  0
ARC
  8
default
 10
-5.289169
 20
14.316049
 30
0.000000
 40
3.035404
 50
256.810543
 51
279.471573
  0
ARC
  8
default
 10
40.076433
 20
-78.438688
 30
0.000000
 40
103.653771
 50
119.247807
 51
122.481493
  0
ARC
  8
default
 10
-15.631097
 20
18.755362
 30
0.000000
 40
8.441823
 50
306.856857
 51
329.517887
  0
ARC
  8
default
 10
-14.137870
 20
15.697377
 30
0.000000
 40
6.138403
 50
313.574712
 51
336.235742
  0
ARC
  8
default
 10
-9.753478
 20
11.738579
 30
0.000000
 40
3.035404
 50
320.528427
 51
343.189457
  0
ARC
  8
default
 10
87.968113
 20
4.512135
 30
0.000000
 40
103.653771
 50
177.518507
 51
180.752193
  0
ARC
  8
default
 10
-24.058168
 20
4.159246
 30
0.000000
 40
8.441823
 50
330.482113
 51
353.143143
  0
ARC
  8
default
 10
-20.663263
 20
4.395066
 30
0.000000
 40
6.138403
 50
323.764258
 51
346.425288
  0
ARC
  8
default
 10
-15.042647
 20
2.577470
 30
0.000000
 40
3.035404
 50
316.810543
 51
339.471573
  0
ARC
  8
default
 10
87.968113
 20
-4.512135
 30
0.000000
 40
103.653771
 50
179.247807
 51
182.481493
  0
ARC
  8
default
 10
-24.058168
 20
-4.159246
 30
0.000000
 40
8.441823
 50
6.856857
 51
29.517887
  0
ARC
  8
default
 10
-20.663263
 20
-4.395066
 30
0.000000
 40
6.138403
 50
13.574712
 51
36.235742
  0
ARC
  8
default
 10
-15.042647
 20
-2.577470
 30
0.000000
 40
3.035404
 50
20.528427
 51
43.189457
  0
ARC
  8
default
 10
40.076433
 20
78.438688
 30
0.000000
 40
103.653771
 50
237.518507
 51
240.752193
  0
ARC
  8
default
 10
-15.631097
 20
-18.755362
 30
0.000000
 40
8.441823
 50
30.482113
 51
53.143143
  0
ARC
  8
default
 10
-14.137870
 20
-15.697377
 30
0.000000
 40
6.138403
 50
23.764258
 51
46.425288
  0
ARC
  8
default
 10
-9.753478
 20
-11.738579
 30
0.000000
 40
3.035404
 50
16.810543
 51
39.471573
  0
ARC
  8
default
 10
47.891680
 20
73.926553
 30
0.000000
 40
103.653771
 50
239.247807
 51
242.481493
  0
ARC
  8
default
 10
-8.427071
 20
-22.914608
 30
0.000000
 40
8.441823
 50
66.856857
 51
89.517887
  0
ARC
  8
default
 10
-6.525392
 20
-20.092444
 30
0.000000
 40
6.138403
 50
73.574712
 51
96.235742
  0
ARC
  8
default
 10
-5.289169
 20
-14.316049
 30
0.000000
 40
3.035404
 50
80.528427
 51
103.189457
  0
ARC
  8
default
 10
-47.891680
 20
73.926553
 30
0.000000
 40
103.653771
 50
297.518507
 51
300.752193
  0
ARC
  8
default
 10
8.427071
 20
-22.914608
 30
0.000000
 40
8.441823
 50
90.482113
 51
113.143143
  0
ARC
  8
default
 10
6.525392
 20
-20.092444
 30
0.000000
 40
6.138403
 50
83.764258
 51
106.425288
  0
ARC
  8
default
 10
5.289169
 20
-14.316049
 30
0.000000
 40
3.035404
 50
76.810543
 51
99.471573
  0
ARC
  8
default
 10
-40.076433
 20
78.438688
 30
0.000000
 40
103.653771
 50
299.247807
 51
302.481493
  0
ARC
  8
default
 10
15.631097
 20
-18.755362
 30
0.000000
 40
8.441823
 50
126.856857
 51
149.517887
  0
ARC
  8
default
 10
14.137870
 20
-15.697377
 30
0.000000
 40
6.138403
 50
133.574712
 51
156.235742
  0
ARC
  8
default
 10
9.753478
 20
-11.738579
 30
0.000000
 40
3.035404
 50
140.528427
 51
163.189457
  0
ARC
  8
default
 10
-87.968113
 20
-4.512135
 30
0.000000
 40
103.653771
 50
357.518507
 51
0.752193
  0
ARC
  8
default
 10
24.058168
 20
-4.159246
 30
0.000000
 40
8.441823
 50
150.482113
 51
173.143143
  0
ARC
  8
default
 10
20.663263
 20
-4.395066
 30
0.000000
 40
6.138403
 50
143.764258
 51
166.425288
  0
ARC
  8
default
 10
15.042647
 20
-2.577470
 30
0.000000
 40
3.035404
 50
136.810543
 51
159.471573
  0
ARC
  8
default
 10
-87.968113
 20
4.512135
 30
0.000000
 40
103.653771
 50
359.247807
 51
2.481493
  0
ARC
  8
default
 10
24.058168
 20
4.159246
 30
0.000000
 40
8.441823
 50
186.856857
 51
209.517887
  0
ARC
  8
default
 10
20.663263
 20
4.395066
 30
0.000000
 40
6.138403
 50
193.574712
 51
216.235742
  0
ARC
  8
default
 10
15.042647
 20
2.577470
 30
0.000000
 40
3.035404
 50
200.528427
 51
223.189457
  0
ARC
  8
default
 10
-40.076433
 20
-78.438688
 30
0.000000
 40
103.653771
 50
57.518507
 51
60.752193
  0
ARC
  8
default
 10
15.631097
 20
18.755362
 30
0.000000
 40
8.441823
 50
210.482113
 51
233.143143
  0
ARC
  8
default
 10
14.137870
 20
15.697377
 30
0.000000
 40
6.138403
 50
203.764258
 51
226.425288
  0
ARC
  8
default
 10
9.753478
 20
11.738579
 30
0.000000
 40
3.035404
 50
196.810543
 51
219.471573
  0
ARC
  8
default
 10
0.000000
 20
0.000000
 30
0.000000
 40
20.500000
 50
0.000000
 51
180.000000
  0
ARC
  8
default
 10
0.000000
 20
0.000000
 30
0.000000
 40
20.500000
 50
180.000000
 51
0.000000
  0
ARC
  8
default
 10
0.000000
 20
0.000000
 30
0.000000
 40
23.500000
 50
0.000000
 51
180.000000
  0
ARC
  8
default
 10
0.000000
 20
0.000000
 30
0.000000
 40
23.500000
 50
180.000000
 51
0.000000
  0
ENDSEC
  0
EOF
