G04 Layer: TopSolderMaskLayer*
G04 EasyEDA v6.2.44, 2019-10-11T09:46:47+02:00*
G04 b694c453db3c4fbcb19a449f5af86211,674c0623d3a246009f606e19fc16e94a,10*
G04 Gerber Generator version 0.2*
G04 Scale: 100 percent, Rotated: No, Reflected: No *
G04 Dimensions in millimeters *
G04 leading zeros omitted , absolute positions ,4 integer and 3 decimal *
%FSLAX43Y43*%
%MOMM*%
G90*
G71D02*

%ADD43C,2.101596*%
%ADD44C,1.901596*%
%ADD45C,0.803199*%
%ADD50R,1.803400X1.803400*%
%ADD51R,3.703193X2.703195*%

%LPD*%
G54D43*
G01X1524Y24511D02*
G01X1524Y24511D01*
G01X3302Y25146D01*
G01X27117Y25146D01*
G01X29718Y22545D01*
G01X29718Y22545D02*
G01X30673Y22545D01*
G01X33147Y25019D01*
G01X34671Y25019D01*
G01X37144Y22545D01*
G01X37846Y22545D01*
G01X37846Y22545D02*
G01X38547Y22545D01*
G01X41021Y25019D01*
G01X42672Y25019D01*
G01X45145Y22545D01*
G01X45974Y22545D01*
G54D44*
G01X1524Y2032D02*
G01X3893Y1143D01*
G01X23368Y1143D01*
G01X26543Y4318D01*
G01X29225Y4318D01*
G01X32080Y1463D01*
G01X32080Y1463D02*
G01X32766Y2148D01*
G01X32766Y2540D01*
G01X34544Y4318D01*
G01X38354Y4318D01*
G01X40208Y2463D01*
G01X40208Y1463D01*
G54D43*
G01X32080Y14798D02*
G01X29718Y12435D01*
G01X29718Y9210D01*
G01X40208Y14798D02*
G01X37846Y12435D01*
G01X37846Y9210D01*
G01X48336Y14798D02*
G01X45974Y12435D01*
G01X45974Y9210D01*
G54D44*
G01X40208Y1463D02*
G01X40894Y2148D01*
G01X40894Y3556D01*
G01X41402Y4064D01*
G01X47244Y4064D01*
G01X48336Y2971D01*
G01X48336Y1463D01*
G54D45*
G01X9906Y14282D02*
G01X9906Y15282D01*
G01X8636Y14282D02*
G01X8636Y15282D01*
G01X7366Y14282D02*
G01X7366Y15282D01*
G01X6096Y14282D02*
G01X6096Y15282D01*
G01X9906Y8339D02*
G01X9906Y9339D01*
G01X8636Y8339D02*
G01X8636Y9339D01*
G01X7366Y8339D02*
G01X7366Y9339D01*
G01X6096Y8339D02*
G01X6096Y9339D01*
G36*
G01X-78Y-68D02*
G01X-78Y4132D01*
G01X3126Y4132D01*
G01X3126Y-68D01*
G01X-78Y-68D01*
G37*
G36*
G01X6149Y10459D02*
G01X6149Y13162D01*
G01X9852Y13162D01*
G01X9852Y10459D01*
G01X6149Y10459D01*
G37*
G36*
G01X11666Y20670D02*
G01X11666Y21871D01*
G01X12971Y21871D01*
G01X12971Y20670D01*
G01X11666Y20670D01*
G37*
G36*
G01X11666Y22070D02*
G01X11666Y23271D01*
G01X12971Y23271D01*
G01X12971Y22070D01*
G01X11666Y22070D01*
G37*
G36*
G01X4414Y16492D02*
G01X4414Y17797D01*
G01X5615Y17797D01*
G01X5615Y16492D01*
G01X4414Y16492D01*
G37*
G36*
G01X5814Y16492D02*
G01X5814Y17797D01*
G01X7015Y17797D01*
G01X7015Y16492D01*
G01X5814Y16492D01*
G37*
G54D50*
G01X2286Y8128D03*
G01X2286Y10927D03*
G36*
G01X7846Y5189D02*
G01X7846Y6494D01*
G01X9047Y6494D01*
G01X9047Y5189D01*
G01X7846Y5189D01*
G37*
G36*
G01X6446Y5189D02*
G01X6446Y6494D01*
G01X7647Y6494D01*
G01X7647Y5189D01*
G01X6446Y5189D01*
G37*
G36*
G01X4414Y18270D02*
G01X4414Y19575D01*
G01X5615Y19575D01*
G01X5615Y18270D01*
G01X4414Y18270D01*
G37*
G36*
G01X5814Y18270D02*
G01X5814Y19575D01*
G01X7015Y19575D01*
G01X7015Y18270D01*
G01X5814Y18270D01*
G37*
G36*
G01X4414Y20048D02*
G01X4414Y21353D01*
G01X5615Y21353D01*
G01X5615Y20048D01*
G01X4414Y20048D01*
G37*
G36*
G01X5814Y20048D02*
G01X5814Y21353D01*
G01X7015Y21353D01*
G01X7015Y20048D01*
G01X5814Y20048D01*
G37*
G36*
G01X4414Y21826D02*
G01X4414Y23131D01*
G01X5615Y23131D01*
G01X5615Y21826D01*
G01X4414Y21826D01*
G37*
G36*
G01X5814Y21826D02*
G01X5814Y23131D01*
G01X7015Y23131D01*
G01X7015Y21826D01*
G01X5814Y21826D01*
G37*
G54D51*
G01X17272Y9192D03*
G36*
G01X15420Y13840D02*
G01X15420Y16543D01*
G01X19123Y16543D01*
G01X19123Y13840D01*
G01X15420Y13840D01*
G37*
G36*
G01X14973Y21450D02*
G01X14973Y23253D01*
G01X16776Y23253D01*
G01X16776Y21450D01*
G01X14973Y21450D01*
G37*
G36*
G01X17772Y21450D02*
G01X17772Y23253D01*
G01X19575Y23253D01*
G01X19575Y21450D01*
G01X17772Y21450D01*
G37*
G36*
G01X39507Y13596D02*
G01X39507Y15999D01*
G01X40909Y15999D01*
G01X40909Y13596D01*
G01X39507Y13596D01*
G37*
G36*
G01X34782Y13591D02*
G01X34782Y15994D01*
G01X36184Y15994D01*
G01X36184Y13591D01*
G01X34782Y13591D01*
G37*
G36*
G01X34744Y19192D02*
G01X34744Y25895D01*
G01X40947Y25895D01*
G01X40947Y19192D01*
G01X34744Y19192D01*
G37*
G36*
G01X39507Y261D02*
G01X39507Y2664D01*
G01X40909Y2664D01*
G01X40909Y261D01*
G01X39507Y261D01*
G37*
G36*
G01X34782Y256D02*
G01X34782Y2659D01*
G01X36184Y2659D01*
G01X36184Y256D01*
G01X34782Y256D01*
G37*
G36*
G01X34744Y5857D02*
G01X34744Y12560D01*
G01X40947Y12560D01*
G01X40947Y5857D01*
G01X34744Y5857D01*
G37*
G36*
G01X-78Y22410D02*
G01X-78Y26611D01*
G01X3126Y26611D01*
G01X3126Y22410D01*
G01X-78Y22410D01*
G37*
G36*
G01X31379Y13596D02*
G01X31379Y15999D01*
G01X32781Y15999D01*
G01X32781Y13596D01*
G01X31379Y13596D01*
G37*
G36*
G01X26654Y13591D02*
G01X26654Y15994D01*
G01X28056Y15994D01*
G01X28056Y13591D01*
G01X26654Y13591D01*
G37*
G36*
G01X26616Y19192D02*
G01X26616Y25895D01*
G01X32819Y25895D01*
G01X32819Y19192D01*
G01X26616Y19192D01*
G37*
G36*
G01X31379Y261D02*
G01X31379Y2664D01*
G01X32781Y2664D01*
G01X32781Y261D01*
G01X31379Y261D01*
G37*
G36*
G01X26654Y256D02*
G01X26654Y2659D01*
G01X28056Y2659D01*
G01X28056Y256D01*
G01X26654Y256D01*
G37*
G36*
G01X26616Y5857D02*
G01X26616Y12560D01*
G01X32819Y12560D01*
G01X32819Y5857D01*
G01X26616Y5857D01*
G37*
G36*
G01X47635Y13596D02*
G01X47635Y15999D01*
G01X49037Y15999D01*
G01X49037Y13596D01*
G01X47635Y13596D01*
G37*
G36*
G01X42910Y13591D02*
G01X42910Y15994D01*
G01X44312Y15994D01*
G01X44312Y13591D01*
G01X42910Y13591D01*
G37*
G36*
G01X42872Y19192D02*
G01X42872Y25895D01*
G01X49075Y25895D01*
G01X49075Y19192D01*
G01X42872Y19192D01*
G37*
G36*
G01X47635Y261D02*
G01X47635Y2664D01*
G01X49037Y2664D01*
G01X49037Y261D01*
G01X47635Y261D01*
G37*
G36*
G01X42910Y256D02*
G01X42910Y2659D01*
G01X44312Y2659D01*
G01X44312Y256D01*
G01X42910Y256D01*
G37*
G36*
G01X42872Y5857D02*
G01X42872Y12560D01*
G01X49075Y12560D01*
G01X49075Y5857D01*
G01X42872Y5857D01*
G37*
G36*
G01X14973Y19037D02*
G01X14973Y20840D01*
G01X16776Y20840D01*
G01X16776Y19037D01*
G01X14973Y19037D01*
G37*
G36*
G01X17772Y19037D02*
G01X17772Y20840D01*
G01X19575Y20840D01*
G01X19575Y19037D01*
G01X17772Y19037D01*
G37*
G36*
G01X14973Y16624D02*
G01X14973Y18427D01*
G01X16776Y18427D01*
G01X16776Y16624D01*
G01X14973Y16624D01*
G37*
G36*
G01X17772Y16624D02*
G01X17772Y18427D01*
G01X19575Y18427D01*
G01X19575Y16624D01*
G01X17772Y16624D01*
G37*
G36*
G01X21699Y13685D02*
G01X21699Y14886D01*
G01X23004Y14886D01*
G01X23004Y13685D01*
G01X21699Y13685D01*
G37*
G36*
G01X21699Y15085D02*
G01X21699Y16286D01*
G01X23004Y16286D01*
G01X23004Y15085D01*
G01X21699Y15085D01*
G37*
G36*
G01X21973Y11938D02*
G01X21973Y12951D01*
G01X22987Y12951D01*
G01X22987Y11938D01*
G01X21973Y11938D01*
G37*
G36*
G01X21973Y10414D02*
G01X21973Y11427D01*
G01X22987Y11427D01*
G01X22987Y10414D01*
G01X21973Y10414D01*
G37*
G36*
G01X23848Y4300D02*
G01X23848Y5605D01*
G01X25049Y5605D01*
G01X25049Y4300D01*
G01X23848Y4300D01*
G37*
G36*
G01X22448Y4300D02*
G01X22448Y5605D01*
G01X23649Y5605D01*
G01X23649Y4300D01*
G01X22448Y4300D01*
G37*
G36*
G01X23848Y8237D02*
G01X23848Y9542D01*
G01X25049Y9542D01*
G01X25049Y8237D01*
G01X23848Y8237D01*
G37*
G36*
G01X22448Y8237D02*
G01X22448Y9542D01*
G01X23649Y9542D01*
G01X23649Y8237D01*
G01X22448Y8237D01*
G37*
G36*
G01X23848Y6459D02*
G01X23848Y7764D01*
G01X25049Y7764D01*
G01X25049Y6459D01*
G01X23848Y6459D01*
G37*
G36*
G01X22448Y6459D02*
G01X22448Y7764D01*
G01X23649Y7764D01*
G01X23649Y6459D01*
G01X22448Y6459D01*
G37*
G36*
G01X7589Y18270D02*
G01X7589Y19575D01*
G01X8790Y19575D01*
G01X8790Y18270D01*
G01X7589Y18270D01*
G37*
G36*
G01X8989Y18270D02*
G01X8989Y19575D01*
G01X10190Y19575D01*
G01X10190Y18270D01*
G01X8989Y18270D01*
G37*
M00*
M02*
