G04 Layer: BottomSilkLayer*
G04 EasyEDA v6.2.44, 2019-10-11T09:46:47+02:00*
G04 b694c453db3c4fbcb19a449f5af86211,674c0623d3a246009f606e19fc16e94a,10*
G04 Gerber Generator version 0.2*
G04 Scale: 100 percent, Rotated: No, Reflected: No *
G04 Dimensions in millimeters *
G04 leading zeros omitted , absolute positions ,4 integer and 3 decimal *
%FSLAX43Y43*%
%MOMM*%
G90*
G71D02*

%ADD10C,0.254000*%
%ADD11C,0.200000*%
%ADD12C,0.399999*%
%ADD35C,0.228600*%
%ADD37C,0.299999*%
%ADD38C,0.152400*%
%ADD40C,0.180010*%
%ADD41C,0.119990*%
%ADD42C,0.110007*%

%LPD*%

%LPD*%
G36*
G01X22966Y16723D02*
G01X22634Y16723D01*
G01X22549Y16722D01*
G01X22479Y16721D01*
G01X22424Y16718D01*
G01X22383Y16715D01*
G01X22355Y16711D01*
G01X22337Y16706D01*
G01X22330Y16700D01*
G01X22321Y16663D01*
G01X22303Y16582D01*
G01X22280Y16469D01*
G01X22254Y16334D01*
G01X22236Y16246D01*
G01X22220Y16171D01*
G01X22206Y16110D01*
G01X22193Y16060D01*
G01X22181Y16022D01*
G01X22170Y15993D01*
G01X22160Y15973D01*
G01X22149Y15961D01*
G01X22116Y15942D01*
G01X22054Y15914D01*
G01X21972Y15880D01*
G01X21881Y15844D01*
G01X21789Y15810D01*
G01X21707Y15781D01*
G01X21643Y15761D01*
G01X21608Y15754D01*
G01X21595Y15758D01*
G01X21569Y15770D01*
G01X21488Y15815D01*
G01X21435Y15847D01*
G01X21376Y15882D01*
G01X21312Y15921D01*
G01X21245Y15964D01*
G01X20913Y16173D01*
G01X20631Y15912D01*
G01X20574Y15859D01*
G01X20521Y15809D01*
G01X20473Y15763D01*
G01X20431Y15722D01*
G01X20396Y15688D01*
G01X20370Y15661D01*
G01X20354Y15642D01*
G01X20348Y15634D01*
G01X20352Y15624D01*
G01X20365Y15604D01*
G01X20385Y15574D01*
G01X20412Y15535D01*
G01X20445Y15489D01*
G01X20482Y15437D01*
G01X20523Y15381D01*
G01X20567Y15321D01*
G01X20610Y15261D01*
G01X20651Y15204D01*
G01X20688Y15152D01*
G01X20721Y15106D01*
G01X20747Y15067D01*
G01X20768Y15036D01*
G01X20780Y15015D01*
G01X20785Y15004D01*
G01X20775Y14974D01*
G01X20751Y14913D01*
G01X20715Y14832D01*
G01X20673Y14742D01*
G01X20631Y14651D01*
G01X20591Y14571D01*
G01X20560Y14512D01*
G01X20541Y14482D01*
G01X20528Y14476D01*
G01X20502Y14467D01*
G01X20463Y14457D01*
G01X20414Y14445D01*
G01X20356Y14432D01*
G01X20290Y14419D01*
G01X20217Y14405D01*
G01X20140Y14391D01*
G01X20064Y14377D01*
G01X19993Y14364D01*
G01X19928Y14351D01*
G01X19871Y14338D01*
G01X19823Y14327D01*
G01X19785Y14317D01*
G01X19760Y14309D01*
G01X19750Y14303D01*
G01X19743Y14281D01*
G01X19739Y14236D01*
G01X19735Y14175D01*
G01X19733Y14100D01*
G01X19732Y14017D01*
G01X19733Y13930D01*
G01X19735Y13844D01*
G01X19737Y13762D01*
G01X19741Y13690D01*
G01X19746Y13631D01*
G01X19752Y13590D01*
G01X19759Y13572D01*
G01X19771Y13567D01*
G01X19797Y13560D01*
G01X19835Y13551D01*
G01X19882Y13541D01*
G01X19939Y13530D01*
G01X20002Y13517D01*
G01X20071Y13505D01*
G01X20143Y13492D01*
G01X20283Y13468D01*
G01X20400Y13447D01*
G01X20481Y13431D01*
G01X20515Y13423D01*
G01X20531Y13397D01*
G01X20562Y13334D01*
G01X20601Y13246D01*
G01X20644Y13146D01*
G01X20686Y13044D01*
G01X20723Y12953D01*
G01X20748Y12884D01*
G01X20757Y12850D01*
G01X20741Y12815D01*
G01X20697Y12746D01*
G01X20632Y12652D01*
G01X20552Y12544D01*
G01X20473Y12436D01*
G01X20408Y12344D01*
G01X20364Y12279D01*
G01X20348Y12249D01*
G01X20359Y12230D01*
G01X20389Y12195D01*
G01X20434Y12149D01*
G01X20491Y12093D01*
G01X20556Y12032D01*
G01X20626Y11969D01*
G01X20696Y11907D01*
G01X20763Y11849D01*
G01X20823Y11800D01*
G01X20874Y11761D01*
G01X20910Y11736D01*
G01X20928Y11729D01*
G01X20962Y11748D01*
G01X21034Y11790D01*
G01X21131Y11850D01*
G01X21245Y11922D01*
G01X21358Y11992D01*
G01X21454Y12050D01*
G01X21523Y12089D01*
G01X21554Y12104D01*
G01X21573Y12098D01*
G01X21609Y12083D01*
G01X21657Y12061D01*
G01X21711Y12035D01*
G01X21766Y12008D01*
G01X21813Y11990D01*
G01X21847Y11981D01*
G01X21864Y11982D01*
G01X21869Y11990D01*
G01X21879Y12008D01*
G01X21892Y12036D01*
G01X21910Y12073D01*
G01X21931Y12118D01*
G01X21955Y12170D01*
G01X21983Y12229D01*
G01X22012Y12294D01*
G01X22044Y12364D01*
G01X22078Y12439D01*
G01X22113Y12517D01*
G01X22150Y12598D01*
G01X22417Y13197D01*
G01X22372Y13225D01*
G01X22310Y13266D01*
G01X22253Y13306D01*
G01X22200Y13347D01*
G01X22153Y13389D01*
G01X22109Y13431D01*
G01X22071Y13474D01*
G01X22036Y13518D01*
G01X22006Y13563D01*
G01X21980Y13609D01*
G01X21958Y13656D01*
G01X21940Y13705D01*
G01X21926Y13755D01*
G01X21916Y13807D01*
G01X21910Y13860D01*
G01X21908Y13915D01*
G01X21910Y13973D01*
G01X21916Y14048D01*
G01X21928Y14117D01*
G01X21945Y14182D01*
G01X21967Y14242D01*
G01X21996Y14299D01*
G01X22031Y14354D01*
G01X22074Y14408D01*
G01X22124Y14461D01*
G01X22174Y14508D01*
G01X22227Y14550D01*
G01X22282Y14587D01*
G01X22339Y14620D01*
G01X22399Y14647D01*
G01X22461Y14670D01*
G01X22525Y14689D01*
G01X22591Y14702D01*
G01X22658Y14710D01*
G01X22728Y14713D01*
G01X22798Y14712D01*
G01X22870Y14705D01*
G01X22934Y14695D01*
G01X22996Y14680D01*
G01X23055Y14660D01*
G01X23112Y14637D01*
G01X23166Y14610D01*
G01X23218Y14579D01*
G01X23266Y14545D01*
G01X23312Y14507D01*
G01X23355Y14467D01*
G01X23394Y14424D01*
G01X23430Y14379D01*
G01X23462Y14331D01*
G01X23491Y14281D01*
G01X23516Y14230D01*
G01X23537Y14176D01*
G01X23554Y14122D01*
G01X23566Y14066D01*
G01X23575Y14009D01*
G01X23578Y13952D01*
G01X23578Y13894D01*
G01X23572Y13835D01*
G01X23561Y13777D01*
G01X23546Y13719D01*
G01X23525Y13661D01*
G01X23501Y13609D01*
G01X23473Y13558D01*
G01X23440Y13510D01*
G01X23404Y13464D01*
G01X23363Y13419D01*
G01X23318Y13377D01*
G01X23268Y13336D01*
G01X23214Y13297D01*
G01X23159Y13259D01*
G01X23114Y13226D01*
G01X23084Y13202D01*
G01X23073Y13189D01*
G01X23077Y13178D01*
G01X23088Y13151D01*
G01X23105Y13110D01*
G01X23128Y13057D01*
G01X23156Y12994D01*
G01X23188Y12921D01*
G01X23223Y12842D01*
G01X23261Y12757D01*
G01X23300Y12669D01*
G01X23340Y12579D01*
G01X23381Y12489D01*
G01X23420Y12401D01*
G01X23458Y12316D01*
G01X23494Y12237D01*
G01X23527Y12165D01*
G01X23556Y12102D01*
G01X23580Y12049D01*
G01X23599Y12009D01*
G01X23612Y11983D01*
G01X23617Y11972D01*
G01X23632Y11974D01*
G01X23665Y11987D01*
G01X23712Y12007D01*
G01X23767Y12033D01*
G01X23824Y12061D01*
G01X23873Y12083D01*
G01X23910Y12098D01*
G01X23930Y12104D01*
G01X23945Y12099D01*
G01X23972Y12085D01*
G01X24013Y12062D01*
G01X24067Y12030D01*
G01X24134Y11988D01*
G01X24215Y11937D01*
G01X24310Y11876D01*
G01X24418Y11806D01*
G01X24469Y11774D01*
G01X24513Y11748D01*
G01X24545Y11730D01*
G01X24562Y11723D01*
G01X24571Y11729D01*
G01X24591Y11744D01*
G01X24620Y11769D01*
G01X24658Y11801D01*
G01X24702Y11840D01*
G01X24752Y11885D01*
G01X24806Y11935D01*
G01X24863Y11988D01*
G01X25147Y12252D01*
G01X24937Y12534D01*
G01X24855Y12646D01*
G01X24786Y12740D01*
G01X24738Y12808D01*
G01X24718Y12838D01*
G01X24725Y12869D01*
G01X24749Y12938D01*
G01X24787Y13033D01*
G01X24835Y13145D01*
G01X24961Y13431D01*
G01X25159Y13463D01*
G01X25203Y13471D01*
G01X25251Y13479D01*
G01X25301Y13487D01*
G01X25405Y13505D01*
G01X25454Y13513D01*
G01X25500Y13521D01*
G01X25542Y13529D01*
G01X25726Y13561D01*
G01X25732Y13929D01*
G01X25732Y14137D01*
G01X25731Y14193D01*
G01X25729Y14240D01*
G01X25727Y14277D01*
G01X25724Y14301D01*
G01X25721Y14312D01*
G01X25708Y14317D01*
G01X25680Y14325D01*
G01X25639Y14334D01*
G01X25587Y14346D01*
G01X25528Y14358D01*
G01X25462Y14371D01*
G01X25393Y14384D01*
G01X25323Y14396D01*
G01X25254Y14408D01*
G01X25189Y14419D01*
G01X25130Y14428D01*
G01X25080Y14434D01*
G01X25038Y14441D01*
G01X25000Y14450D01*
G01X24970Y14459D01*
G01X24951Y14468D01*
G01X24931Y14497D01*
G01X24896Y14560D01*
G01X24852Y14648D01*
G01X24804Y14751D01*
G01X24685Y15012D01*
G01X24836Y15217D01*
G01X24868Y15260D01*
G01X24901Y15305D01*
G01X24935Y15350D01*
G01X24967Y15393D01*
G01X24998Y15435D01*
G01X25025Y15472D01*
G01X25050Y15505D01*
G01X25069Y15531D01*
G01X25151Y15641D01*
G01X24885Y15889D01*
G01X24831Y15939D01*
G01X24780Y15986D01*
G01X24732Y16030D01*
G01X24689Y16068D01*
G01X24652Y16101D01*
G01X24622Y16127D01*
G01X24600Y16144D01*
G01X24589Y16152D01*
G01X24577Y16154D01*
G01X24557Y16148D01*
G01X24528Y16136D01*
G01X24490Y16117D01*
G01X24442Y16090D01*
G01X24384Y16055D01*
G01X24315Y16012D01*
G01X24234Y15961D01*
G01X24168Y15919D01*
G01X24105Y15881D01*
G01X24047Y15845D01*
G01X23994Y15815D01*
G01X23949Y15789D01*
G01X23913Y15770D01*
G01X23887Y15758D01*
G01X23873Y15754D01*
G01X23840Y15762D01*
G01X23774Y15783D01*
G01X23687Y15813D01*
G01X23590Y15848D01*
G01X23493Y15885D01*
G01X23408Y15918D01*
G01X23345Y15945D01*
G01X23315Y15960D01*
G01X23304Y15991D01*
G01X23286Y16067D01*
G01X23262Y16175D01*
G01X23235Y16305D01*
G01X23222Y16373D01*
G01X23208Y16438D01*
G01X23196Y16498D01*
G01X23184Y16553D01*
G01X23173Y16600D01*
G01X23164Y16638D01*
G01X23157Y16665D01*
G01X23152Y16681D01*
G01X23146Y16695D01*
G01X23136Y16705D01*
G01X23118Y16713D01*
G01X23086Y16718D01*
G01X23037Y16721D01*
G01X22966Y16723D01*
G37*

%LPD*%
G54D12*
G01X3683Y26289D02*
G01X1778Y26289D01*
G01X1524Y26035D01*
G01X1524Y19558D01*
G01X1778Y19304D01*
G01X3683Y19304D01*
G01X3683Y19304D01*
G01X1143Y2667D02*
G01X1143Y762D01*
G01X1524Y381D01*
G01X10795Y381D01*
G01X11176Y762D01*
G01X11176Y2667D01*
G54D10*
G01X14111Y21387D02*
G01X14111Y24586D01*
G01X12812Y24586D02*
G01X14111Y24586D01*
G01X12812Y24586D02*
G01X12812Y21387D01*
G01X14111Y21387D02*
G01X12812Y21387D01*
G01X10893Y11147D02*
G01X10893Y17046D01*
G01X16792Y17046D01*
G01X16792Y11147D01*
G01X10893Y11147D01*
G54D11*
G01X43161Y4229D02*
G01X42061Y4229D01*
G01X42061Y2628D01*
G01X43161Y2628D01*
G01X43961Y4229D02*
G01X45061Y4229D01*
G01X45061Y3229D01*
G01X45061Y2628D01*
G01X43961Y2628D01*
G01X43415Y8928D02*
G01X42315Y8928D01*
G01X42315Y7327D01*
G01X43415Y7327D01*
G01X44215Y8928D02*
G01X45315Y8928D01*
G01X45315Y7928D01*
G01X45315Y7327D01*
G01X44215Y7327D01*
G01X43415Y7277D02*
G01X42315Y7277D01*
G01X42315Y5676D01*
G01X43415Y5676D01*
G01X44215Y7277D02*
G01X45315Y7277D01*
G01X45315Y6277D01*
G01X45315Y5676D01*
G01X44215Y5676D01*
G54D10*
G01X34798Y736D02*
G01X35179Y736D01*
G01X35179Y736D02*
G01X36576Y736D01*
G01X34798Y2057D02*
G01X35179Y2057D01*
G01X35179Y2057D02*
G01X36576Y2057D01*
G01X36187Y796D02*
G01X36187Y2017D01*
G54D35*
G01X26839Y7323D02*
G01X26839Y2323D01*
G01X29040Y2323D01*
G01X29040Y7323D01*
G01X26839Y7323D01*
G54D11*
G01X19539Y6261D02*
G01X18439Y6261D01*
G01X18439Y4660D01*
G01X19539Y4660D01*
G01X20339Y6261D02*
G01X21439Y6261D01*
G01X21439Y5261D01*
G01X21439Y4660D01*
G01X20339Y4660D01*
G01X19539Y4483D02*
G01X18439Y4483D01*
G01X18439Y2882D01*
G01X19539Y2882D01*
G01X20339Y4483D02*
G01X21439Y4483D01*
G01X21439Y3483D01*
G01X21439Y2882D01*
G01X20339Y2882D01*
G01X19666Y21755D02*
G01X18566Y21755D01*
G01X18566Y20154D01*
G01X19666Y20154D01*
G01X20466Y21755D02*
G01X21566Y21755D01*
G01X21566Y20755D01*
G01X21566Y20154D01*
G01X20466Y20154D01*
G01X19666Y23533D02*
G01X18566Y23533D01*
G01X18566Y21932D01*
G01X19666Y21932D01*
G01X20466Y23533D02*
G01X21566Y23533D01*
G01X21566Y22533D01*
G01X21566Y21932D01*
G01X20466Y21932D01*
G01X20338Y1104D02*
G01X21438Y1104D01*
G01X21438Y2705D01*
G01X20338Y2705D01*
G01X19538Y1104D02*
G01X18438Y1104D01*
G01X18438Y2104D01*
G01X18438Y2705D01*
G01X19538Y2705D01*
G01X20465Y23710D02*
G01X21565Y23710D01*
G01X21565Y25311D01*
G01X20465Y25311D01*
G01X19665Y23710D02*
G01X18565Y23710D01*
G01X18565Y24710D01*
G01X18565Y25311D01*
G01X19665Y25311D01*
G01X14205Y4229D02*
G01X13105Y4229D01*
G01X13105Y2628D01*
G01X14205Y2628D01*
G01X15005Y4229D02*
G01X16105Y4229D01*
G01X16105Y3229D01*
G01X16105Y2628D01*
G01X15005Y2628D01*
G01X3574Y13550D02*
G01X4674Y13550D01*
G01X4674Y15151D01*
G01X3574Y15151D01*
G01X2774Y13550D02*
G01X1674Y13550D01*
G01X1674Y14550D01*
G01X1674Y15151D01*
G01X2774Y15151D01*
G54D10*
G01X33959Y2921D02*
G01X33959Y7747D01*
G01X37109Y7747D01*
G01X37109Y2921D01*
G01X37109Y2921D02*
G01X36169Y2921D01*
G01X34899Y2921D02*
G01X33959Y2921D01*
G54D11*
G01X43161Y22009D02*
G01X42061Y22009D01*
G01X42061Y20408D01*
G01X43161Y20408D01*
G01X43961Y22009D02*
G01X45061Y22009D01*
G01X45061Y21009D01*
G01X45061Y20408D01*
G01X43961Y20408D01*
G01X43161Y25565D02*
G01X42061Y25565D01*
G01X42061Y23964D01*
G01X43161Y23964D01*
G01X43961Y25565D02*
G01X45061Y25565D01*
G01X45061Y24565D01*
G01X45061Y23964D01*
G01X43961Y23964D01*
G01X43161Y23787D02*
G01X42061Y23787D01*
G01X42061Y22186D01*
G01X43161Y22186D01*
G01X43961Y23787D02*
G01X45061Y23787D01*
G01X45061Y22787D01*
G01X45061Y22186D01*
G01X43961Y22186D01*
G54D10*
G01X34671Y18135D02*
G01X35052Y18135D01*
G01X35052Y18135D02*
G01X36449Y18135D01*
G01X34671Y19456D02*
G01X35052Y19456D01*
G01X35052Y19456D02*
G01X36449Y19456D01*
G01X36060Y18195D02*
G01X36060Y19416D01*
G54D35*
G01X26839Y25738D02*
G01X26839Y20738D01*
G01X29040Y20738D01*
G01X29040Y25738D01*
G01X26839Y25738D01*
G54D10*
G01X33959Y20574D02*
G01X33959Y25400D01*
G01X37109Y25400D01*
G01X37109Y20574D01*
G01X37109Y20574D02*
G01X36169Y20574D01*
G01X34899Y20574D02*
G01X33959Y20574D01*
G54D11*
G01X43161Y12738D02*
G01X42061Y12738D01*
G01X42061Y11137D01*
G01X43161Y11137D01*
G01X43961Y12738D02*
G01X45061Y12738D01*
G01X45061Y11738D01*
G01X45061Y11137D01*
G01X43961Y11137D01*
G01X43288Y17691D02*
G01X42188Y17691D01*
G01X42188Y16090D01*
G01X43288Y16090D01*
G01X44088Y17691D02*
G01X45188Y17691D01*
G01X45188Y16691D01*
G01X45188Y16090D01*
G01X44088Y16090D01*
G01X43288Y16040D02*
G01X42188Y16040D01*
G01X42188Y14439D01*
G01X43288Y14439D01*
G01X44088Y16040D02*
G01X45188Y16040D01*
G01X45188Y15040D01*
G01X45188Y14439D01*
G01X44088Y14439D01*
G54D10*
G01X34798Y9118D02*
G01X35179Y9118D01*
G01X35179Y9118D02*
G01X36576Y9118D01*
G01X34798Y10439D02*
G01X35179Y10439D01*
G01X35179Y10439D02*
G01X36576Y10439D01*
G01X36187Y9178D02*
G01X36187Y10399D01*
G54D35*
G01X26839Y16213D02*
G01X26839Y11213D01*
G01X29040Y11213D01*
G01X29040Y16213D01*
G01X26839Y16213D01*
G54D10*
G01X33959Y11430D02*
G01X33959Y16256D01*
G01X37109Y16256D01*
G01X37109Y11430D01*
G01X37109Y11430D02*
G01X36169Y11430D01*
G01X34899Y11430D02*
G01X33959Y11430D01*
G54D11*
G01X3574Y15328D02*
G01X4674Y15328D01*
G01X4674Y16929D01*
G01X3574Y16929D01*
G01X2774Y15328D02*
G01X1674Y15328D01*
G01X1674Y16328D01*
G01X1674Y16929D01*
G01X2774Y16929D01*
G01X10248Y22587D02*
G01X10248Y21487D01*
G01X11849Y21487D01*
G01X11849Y22587D01*
G01X10248Y23387D02*
G01X10248Y24487D01*
G01X11248Y24487D01*
G01X11849Y24487D01*
G01X11849Y23387D01*
G54D40*
G01X16246Y14915D02*
G01X15496Y14915D01*
G01X15905Y14369D01*
G01X15701Y14369D01*
G01X15564Y14301D01*
G01X15496Y14233D01*
G01X15428Y14028D01*
G01X15428Y13892D01*
G01X15496Y13687D01*
G01X15632Y13551D01*
G01X15837Y13483D01*
G01X16042Y13483D01*
G01X16246Y13551D01*
G01X16314Y13619D01*
G01X16383Y13756D01*
G01X14910Y14574D02*
G01X14910Y14642D01*
G01X14842Y14778D01*
G01X14773Y14847D01*
G01X14637Y14915D01*
G01X14364Y14915D01*
G01X14228Y14847D01*
G01X14160Y14778D01*
G01X14092Y14642D01*
G01X14092Y14506D01*
G01X14160Y14369D01*
G01X14296Y14165D01*
G01X14978Y13483D01*
G01X14023Y13483D01*
G01X13232Y14915D02*
G01X13437Y14847D01*
G01X13505Y14710D01*
G01X13505Y14574D01*
G01X13437Y14437D01*
G01X13301Y14369D01*
G01X13028Y14301D01*
G01X12823Y14233D01*
G01X12687Y14097D01*
G01X12619Y13960D01*
G01X12619Y13756D01*
G01X12687Y13619D01*
G01X12755Y13551D01*
G01X12960Y13483D01*
G01X13232Y13483D01*
G01X13437Y13551D01*
G01X13505Y13619D01*
G01X13573Y13756D01*
G01X13573Y13960D01*
G01X13505Y14097D01*
G01X13369Y14233D01*
G01X13164Y14301D01*
G01X12892Y14369D01*
G01X12755Y14437D01*
G01X12687Y14574D01*
G01X12687Y14710D01*
G01X12755Y14847D01*
G01X12960Y14915D01*
G01X13232Y14915D01*
G01X12169Y14437D02*
G01X12169Y13006D01*
G01X12169Y14233D02*
G01X12032Y14369D01*
G01X11896Y14437D01*
G01X11692Y14437D01*
G01X11555Y14369D01*
G01X11419Y14233D01*
G01X11351Y14028D01*
G01X11351Y13892D01*
G01X11419Y13687D01*
G01X11555Y13551D01*
G01X11692Y13483D01*
G01X11896Y13483D01*
G01X12032Y13551D01*
G01X12169Y13687D01*
G54D41*
G01X6166Y11938D02*
G01X6221Y12047D01*
G01X6330Y12156D01*
G01X6439Y12211D01*
G01X6657Y12211D01*
G01X6766Y12156D01*
G01X6875Y12047D01*
G01X6930Y11938D01*
G01X6985Y11775D01*
G01X6985Y11502D01*
G01X6930Y11338D01*
G01X6875Y11229D01*
G01X6766Y11120D01*
G01X6657Y11066D01*
G01X6439Y11066D01*
G01X6330Y11120D01*
G01X6221Y11229D01*
G01X6166Y11338D01*
G01X6166Y11502D01*
G01X6439Y11502D02*
G01X6166Y11502D01*
G01X5806Y12211D02*
G01X5806Y11066D01*
G01X5806Y12211D02*
G01X5043Y11066D01*
G01X5043Y12211D02*
G01X5043Y11066D01*
G01X4683Y12211D02*
G01X4683Y11066D01*
G01X4683Y12211D02*
G01X4301Y12211D01*
G01X4137Y12156D01*
G01X4028Y12047D01*
G01X3974Y11938D01*
G01X3919Y11775D01*
G01X3919Y11502D01*
G01X3974Y11338D01*
G01X4028Y11229D01*
G01X4137Y11120D01*
G01X4301Y11066D01*
G01X4683Y11066D01*
G01X6965Y10414D02*
G01X6529Y9268D01*
G01X6093Y10414D02*
G01X6529Y9268D01*
G01X5078Y9868D02*
G01X5187Y9977D01*
G01X5296Y10032D01*
G01X5460Y10032D01*
G01X5569Y9977D01*
G01X5678Y9868D01*
G01X5733Y9704D01*
G01X5733Y9595D01*
G01X5678Y9432D01*
G01X5569Y9323D01*
G01X5460Y9268D01*
G01X5296Y9268D01*
G01X5187Y9323D01*
G01X5078Y9432D01*
G01X4064Y9868D02*
G01X4173Y9977D01*
G01X4282Y10032D01*
G01X4445Y10032D01*
G01X4554Y9977D01*
G01X4664Y9868D01*
G01X4718Y9704D01*
G01X4718Y9595D01*
G01X4664Y9432D01*
G01X4554Y9323D01*
G01X4445Y9268D01*
G01X4282Y9268D01*
G01X4173Y9323D01*
G01X4064Y9432D01*
G01X7511Y8382D02*
G01X7511Y7236D01*
G01X7511Y8382D02*
G01X7020Y8382D01*
G01X6856Y8327D01*
G01X6802Y8272D01*
G01X6747Y8163D01*
G01X6747Y8000D01*
G01X6802Y7891D01*
G01X6856Y7836D01*
G01X7020Y7782D01*
G01X7511Y7782D01*
G01X6387Y8382D02*
G01X6114Y7236D01*
G01X5842Y8382D02*
G01X6114Y7236D01*
G01X5842Y8382D02*
G01X5569Y7236D01*
G01X5296Y8382D02*
G01X5569Y7236D01*
G01X4936Y8382D02*
G01X4936Y7236D01*
G01X4936Y8382D02*
G01X4500Y7236D01*
G01X4064Y8382D02*
G01X4500Y7236D01*
G01X4064Y8382D02*
G01X4064Y7236D01*
G54D42*
G01X1651Y5588D02*
G01X2605Y5588D01*
G01X1651Y5588D02*
G01X1651Y5269D01*
G01X1696Y5133D01*
G01X1787Y5042D01*
G01X1878Y4997D01*
G01X2014Y4951D01*
G01X2241Y4951D01*
G01X2378Y4997D01*
G01X2469Y5042D01*
G01X2560Y5133D01*
G01X2605Y5269D01*
G01X2605Y5588D01*
G01X1651Y4333D02*
G01X2605Y4333D01*
G01X1651Y4651D02*
G01X1651Y4015D01*
G01X1651Y3715D02*
G01X2605Y3715D01*
G01X1651Y3715D02*
G01X1651Y3306D01*
G01X1696Y3169D01*
G01X1741Y3124D01*
G01X1832Y3078D01*
G01X1923Y3078D01*
G01X2014Y3124D01*
G01X2060Y3169D01*
G01X2105Y3306D01*
G01X2105Y3715D01*
G01X2105Y3397D02*
G01X2605Y3078D01*
G01X3683Y4253D02*
G01X4637Y4253D01*
G01X3683Y4572D02*
G01X3683Y3935D01*
G01X3683Y3635D02*
G01X4637Y2999D01*
G01X3683Y2999D02*
G01X4637Y3635D01*
G01X5715Y4572D02*
G01X6669Y4572D01*
G01X5715Y4572D02*
G01X5715Y4162D01*
G01X5760Y4026D01*
G01X5805Y3981D01*
G01X5896Y3935D01*
G01X5987Y3935D01*
G01X6078Y3981D01*
G01X6124Y4026D01*
G01X6169Y4162D01*
G01X6169Y4572D01*
G01X6169Y4253D02*
G01X6669Y3935D01*
G01X5715Y3635D02*
G01X6669Y2999D01*
G01X5715Y2999D02*
G01X6669Y3635D01*
G01X7620Y5461D02*
G01X8574Y5097D01*
G01X7620Y4733D02*
G01X8574Y5097D01*
G01X8074Y3888D02*
G01X7983Y3979D01*
G01X7938Y4070D01*
G01X7938Y4206D01*
G01X7983Y4297D01*
G01X8074Y4388D01*
G01X8210Y4433D01*
G01X8301Y4433D01*
G01X8438Y4388D01*
G01X8529Y4297D01*
G01X8574Y4206D01*
G01X8574Y4070D01*
G01X8529Y3979D01*
G01X8438Y3888D01*
G01X8074Y3042D02*
G01X7983Y3133D01*
G01X7938Y3224D01*
G01X7938Y3361D01*
G01X7983Y3451D01*
G01X8074Y3542D01*
G01X8210Y3588D01*
G01X8301Y3588D01*
G01X8438Y3542D01*
G01X8529Y3451D01*
G01X8574Y3361D01*
G01X8574Y3224D01*
G01X8529Y3133D01*
G01X8438Y3042D01*
G01X10133Y4906D02*
G01X10042Y4951D01*
G01X9951Y5042D01*
G01X9906Y5133D01*
G01X9906Y5315D01*
G01X9951Y5406D01*
G01X10042Y5497D01*
G01X10133Y5542D01*
G01X10269Y5588D01*
G01X10496Y5588D01*
G01X10633Y5542D01*
G01X10724Y5497D01*
G01X10815Y5406D01*
G01X10860Y5315D01*
G01X10860Y5133D01*
G01X10815Y5042D01*
G01X10724Y4951D01*
G01X10633Y4906D01*
G01X10496Y4906D01*
G01X10496Y5133D02*
G01X10496Y4906D01*
G01X9906Y4606D02*
G01X10860Y4606D01*
G01X9906Y4606D02*
G01X10860Y3969D01*
G01X9906Y3969D02*
G01X10860Y3969D01*
G01X9906Y3669D02*
G01X10860Y3669D01*
G01X9906Y3669D02*
G01X9906Y3351D01*
G01X9951Y3215D01*
G01X10042Y3124D01*
G01X10133Y3078D01*
G01X10269Y3033D01*
G01X10496Y3033D01*
G01X10633Y3078D01*
G01X10724Y3124D01*
G01X10815Y3215D01*
G01X10860Y3351D01*
G01X10860Y3669D01*
G01X6236Y20437D02*
G01X6327Y20528D01*
G01X6463Y20574D01*
G01X6645Y20574D01*
G01X6781Y20528D01*
G01X6872Y20437D01*
G01X6872Y20346D01*
G01X6827Y20255D01*
G01X6781Y20210D01*
G01X6690Y20164D01*
G01X6418Y20074D01*
G01X6327Y20028D01*
G01X6281Y19983D01*
G01X6236Y19892D01*
G01X6236Y19755D01*
G01X6327Y19664D01*
G01X6463Y19619D01*
G01X6645Y19619D01*
G01X6781Y19664D01*
G01X6872Y19755D01*
G01X5254Y20346D02*
G01X5299Y20437D01*
G01X5390Y20528D01*
G01X5481Y20574D01*
G01X5663Y20574D01*
G01X5754Y20528D01*
G01X5845Y20437D01*
G01X5890Y20346D01*
G01X5936Y20210D01*
G01X5936Y19983D01*
G01X5890Y19846D01*
G01X5845Y19755D01*
G01X5754Y19664D01*
G01X5663Y19619D01*
G01X5481Y19619D01*
G01X5390Y19664D01*
G01X5299Y19755D01*
G01X5254Y19846D01*
G01X4954Y20574D02*
G01X4954Y19619D01*
G01X4318Y20574D02*
G01X4954Y19937D01*
G01X4727Y20164D02*
G01X4318Y19619D01*
G01X6731Y22389D02*
G01X6731Y21434D01*
G01X6731Y22389D02*
G01X6321Y22389D01*
G01X6185Y22343D01*
G01X6140Y22298D01*
G01X6094Y22207D01*
G01X6094Y22116D01*
G01X6140Y22025D01*
G01X6185Y21980D01*
G01X6321Y21934D01*
G01X6731Y21934D01*
G01X6412Y21934D02*
G01X6094Y21434D01*
G01X5158Y22253D02*
G01X5249Y22343D01*
G01X5385Y22389D01*
G01X5567Y22389D01*
G01X5703Y22343D01*
G01X5794Y22253D01*
G01X5794Y22162D01*
G01X5749Y22071D01*
G01X5703Y22025D01*
G01X5612Y21980D01*
G01X5340Y21889D01*
G01X5249Y21844D01*
G01X5203Y21798D01*
G01X5158Y21707D01*
G01X5158Y21571D01*
G01X5249Y21480D01*
G01X5385Y21434D01*
G01X5567Y21434D01*
G01X5703Y21480D01*
G01X5794Y21571D01*
G01X4540Y22389D02*
G01X4540Y21434D01*
G01X4858Y22389D02*
G01X4221Y22389D01*
G01X7308Y24257D02*
G01X7308Y23302D01*
G01X7308Y24257D02*
G01X6945Y23302D01*
G01X6581Y24257D02*
G01X6945Y23302D01*
G01X6581Y24257D02*
G01X6581Y23302D01*
G01X6008Y24257D02*
G01X6099Y24211D01*
G01X6190Y24120D01*
G01X6236Y24029D01*
G01X6281Y23893D01*
G01X6281Y23666D01*
G01X6236Y23529D01*
G01X6190Y23438D01*
G01X6099Y23347D01*
G01X6008Y23302D01*
G01X5827Y23302D01*
G01X5736Y23347D01*
G01X5645Y23438D01*
G01X5599Y23529D01*
G01X5554Y23666D01*
G01X5554Y23893D01*
G01X5599Y24029D01*
G01X5645Y24120D01*
G01X5736Y24211D01*
G01X5827Y24257D01*
G01X6008Y24257D01*
G01X4617Y24120D02*
G01X4708Y24211D01*
G01X4845Y24257D01*
G01X5027Y24257D01*
G01X5163Y24211D01*
G01X5254Y24120D01*
G01X5254Y24029D01*
G01X5208Y23938D01*
G01X5163Y23893D01*
G01X5072Y23847D01*
G01X4799Y23757D01*
G01X4708Y23711D01*
G01X4663Y23666D01*
G01X4617Y23575D01*
G01X4617Y23438D01*
G01X4708Y23347D01*
G01X4845Y23302D01*
G01X5027Y23302D01*
G01X5163Y23347D01*
G01X5254Y23438D01*
G01X4317Y24257D02*
G01X4317Y23302D01*
G01X7308Y26035D02*
G01X7308Y25080D01*
G01X7308Y26035D02*
G01X6945Y25080D01*
G01X6581Y26035D02*
G01X6945Y25080D01*
G01X6581Y26035D02*
G01X6581Y25080D01*
G01X6281Y26035D02*
G01X6281Y25080D01*
G01X5345Y25898D02*
G01X5436Y25989D01*
G01X5572Y26035D01*
G01X5754Y26035D01*
G01X5890Y25989D01*
G01X5981Y25898D01*
G01X5981Y25807D01*
G01X5936Y25716D01*
G01X5890Y25671D01*
G01X5799Y25625D01*
G01X5527Y25535D01*
G01X5436Y25489D01*
G01X5390Y25444D01*
G01X5345Y25353D01*
G01X5345Y25216D01*
G01X5436Y25125D01*
G01X5572Y25080D01*
G01X5754Y25080D01*
G01X5890Y25125D01*
G01X5981Y25216D01*
G01X4772Y26035D02*
G01X4863Y25989D01*
G01X4954Y25898D01*
G01X4999Y25807D01*
G01X5045Y25671D01*
G01X5045Y25444D01*
G01X4999Y25307D01*
G01X4954Y25216D01*
G01X4863Y25125D01*
G01X4772Y25080D01*
G01X4590Y25080D01*
G01X4499Y25125D01*
G01X4408Y25216D01*
G01X4363Y25307D01*
G01X4317Y25444D01*
G01X4317Y25671D01*
G01X4363Y25807D01*
G01X4408Y25898D01*
G01X4499Y25989D01*
G01X4590Y26035D01*
G01X4772Y26035D01*
G54D41*
G01X32718Y9906D02*
G01X32718Y8760D01*
G01X32718Y9906D02*
G01X32009Y9906D01*
G01X32718Y9360D02*
G01X32281Y9360D01*
G01X32718Y8760D02*
G01X32009Y8760D01*
G01X31649Y9906D02*
G01X31649Y8760D01*
G01X31649Y8760D02*
G01X30994Y8760D01*
G01X30634Y9906D02*
G01X30634Y8760D01*
G01X30634Y9906D02*
G01X29925Y9906D01*
G01X30634Y9360D02*
G01X30198Y9360D01*
G01X30634Y8760D02*
G01X29925Y8760D01*
G01X28747Y9633D02*
G01X28801Y9742D01*
G01X28910Y9851D01*
G01X29020Y9906D01*
G01X29238Y9906D01*
G01X29347Y9851D01*
G01X29456Y9742D01*
G01X29510Y9633D01*
G01X29565Y9469D01*
G01X29565Y9196D01*
G01X29510Y9033D01*
G01X29456Y8924D01*
G01X29347Y8815D01*
G01X29238Y8760D01*
G01X29020Y8760D01*
G01X28910Y8815D01*
G01X28801Y8924D01*
G01X28747Y9033D01*
G01X28005Y9906D02*
G01X28005Y8760D01*
G01X28387Y9906D02*
G01X27623Y9906D01*
G01X27263Y9906D02*
G01X27263Y8760D01*
G01X27263Y9906D02*
G01X26772Y9906D01*
G01X26609Y9851D01*
G01X26554Y9796D01*
G01X26500Y9687D01*
G01X26500Y9578D01*
G01X26554Y9469D01*
G01X26609Y9415D01*
G01X26772Y9360D01*
G01X27263Y9360D01*
G01X26881Y9360D02*
G01X26500Y8760D01*
G01X25812Y9906D02*
G01X25921Y9851D01*
G01X26030Y9742D01*
G01X26085Y9633D01*
G01X26140Y9469D01*
G01X26140Y9196D01*
G01X26085Y9033D01*
G01X26030Y8924D01*
G01X25921Y8815D01*
G01X25812Y8760D01*
G01X25594Y8760D01*
G01X25485Y8815D01*
G01X25376Y8924D01*
G01X25321Y9033D01*
G01X25267Y9196D01*
G01X25267Y9469D01*
G01X25321Y9633D01*
G01X25376Y9742D01*
G01X25485Y9851D01*
G01X25594Y9906D01*
G01X25812Y9906D01*
G01X24907Y9906D02*
G01X24907Y8760D01*
G01X24907Y9906D02*
G01X24143Y8760D01*
G01X24143Y9906D02*
G01X24143Y8760D01*
G01X23456Y9906D02*
G01X23565Y9851D01*
G01X23674Y9742D01*
G01X23729Y9633D01*
G01X23783Y9469D01*
G01X23783Y9196D01*
G01X23729Y9033D01*
G01X23674Y8924D01*
G01X23565Y8815D01*
G01X23456Y8760D01*
G01X23238Y8760D01*
G01X23129Y8815D01*
G01X23020Y8924D01*
G01X22965Y9033D01*
G01X22910Y9196D01*
G01X22910Y9469D01*
G01X22965Y9633D01*
G01X23020Y9742D01*
G01X23129Y9851D01*
G01X23238Y9906D01*
G01X23456Y9906D01*
G01X22223Y9906D02*
G01X22332Y9851D01*
G01X22441Y9742D01*
G01X22496Y9633D01*
G01X22550Y9469D01*
G01X22550Y9196D01*
G01X22496Y9033D01*
G01X22441Y8924D01*
G01X22332Y8815D01*
G01X22223Y8760D01*
G01X22005Y8760D01*
G01X21896Y8815D01*
G01X21787Y8924D01*
G01X21732Y9033D01*
G01X21678Y9196D01*
G01X21678Y9469D01*
G01X21732Y9633D01*
G01X21787Y9742D01*
G01X21896Y9851D01*
G01X22005Y9906D01*
G01X22223Y9906D01*
G01X21318Y9906D02*
G01X21318Y8760D01*
G01X21318Y9906D02*
G01X20827Y9906D01*
G01X20663Y9851D01*
G01X20609Y9796D01*
G01X20554Y9687D01*
G01X20554Y9578D01*
G01X20609Y9469D01*
G01X20663Y9415D01*
G01X20827Y9360D01*
G01X21318Y9360D02*
G01X20827Y9360D01*
G01X20663Y9306D01*
G01X20609Y9251D01*
G01X20554Y9142D01*
G01X20554Y8978D01*
G01X20609Y8869D01*
G01X20663Y8815D01*
G01X20827Y8760D01*
G01X21318Y8760D01*
G01X19430Y9742D02*
G01X19540Y9851D01*
G01X19703Y9906D01*
G01X19921Y9906D01*
G01X20085Y9851D01*
G01X20194Y9742D01*
G01X20194Y9633D01*
G01X20140Y9524D01*
G01X20085Y9469D01*
G01X19976Y9415D01*
G01X19649Y9306D01*
G01X19540Y9251D01*
G01X19485Y9196D01*
G01X19430Y9087D01*
G01X19430Y8924D01*
G01X19540Y8815D01*
G01X19703Y8760D01*
G01X19921Y8760D01*
G01X20085Y8815D01*
G01X20194Y8924D01*
G54D38*
G01X14371Y26035D02*
G01X13644Y24942D01*
G01X13644Y26035D02*
G01X14371Y24942D01*
G01X13248Y25773D02*
G01X13248Y25826D01*
G01X13197Y25930D01*
G01X13144Y25981D01*
G01X13040Y26035D01*
G01X12834Y26035D01*
G01X12730Y25981D01*
G01X12677Y25930D01*
G01X12626Y25826D01*
G01X12626Y25722D01*
G01X12677Y25618D01*
G01X12781Y25463D01*
G01X13302Y24942D01*
G01X12573Y24942D01*
G01X47137Y3937D02*
G01X47137Y2847D01*
G01X47137Y3937D02*
G01X46670Y3937D01*
G01X46515Y3886D01*
G01X46461Y3835D01*
G01X46410Y3731D01*
G01X46410Y3627D01*
G01X46461Y3523D01*
G01X46515Y3469D01*
G01X46670Y3418D01*
G01X47137Y3418D01*
G01X46774Y3418D02*
G01X46410Y2847D01*
G01X45806Y3937D02*
G01X45963Y3886D01*
G01X46014Y3782D01*
G01X46014Y3677D01*
G01X45963Y3573D01*
G01X45859Y3523D01*
G01X45651Y3469D01*
G01X45496Y3418D01*
G01X45392Y3314D01*
G01X45339Y3210D01*
G01X45339Y3055D01*
G01X45392Y2951D01*
G01X45443Y2898D01*
G01X45600Y2847D01*
G01X45806Y2847D01*
G01X45963Y2898D01*
G01X46014Y2951D01*
G01X46068Y3055D01*
G01X46068Y3210D01*
G01X46014Y3314D01*
G01X45910Y3418D01*
G01X45755Y3469D01*
G01X45547Y3523D01*
G01X45443Y3573D01*
G01X45392Y3677D01*
G01X45392Y3782D01*
G01X45443Y3886D01*
G01X45600Y3937D01*
G01X45806Y3937D01*
G01X47338Y8636D02*
G01X47338Y7546D01*
G01X47338Y8636D02*
G01X46870Y8636D01*
G01X46715Y8585D01*
G01X46662Y8534D01*
G01X46611Y8430D01*
G01X46611Y8326D01*
G01X46662Y8222D01*
G01X46715Y8168D01*
G01X46870Y8117D01*
G01X47338Y8117D01*
G01X46974Y8117D02*
G01X46611Y7546D01*
G01X45593Y8272D02*
G01X45643Y8117D01*
G01X45747Y8013D01*
G01X45902Y7962D01*
G01X45956Y7962D01*
G01X46111Y8013D01*
G01X46215Y8117D01*
G01X46268Y8272D01*
G01X46268Y8326D01*
G01X46215Y8481D01*
G01X46111Y8585D01*
G01X45956Y8636D01*
G01X45902Y8636D01*
G01X45747Y8585D01*
G01X45643Y8481D01*
G01X45593Y8272D01*
G01X45593Y8013D01*
G01X45643Y7754D01*
G01X45747Y7597D01*
G01X45902Y7546D01*
G01X46007Y7546D01*
G01X46164Y7597D01*
G01X46215Y7701D01*
G01X47264Y6725D02*
G01X47317Y6830D01*
G01X47421Y6934D01*
G01X47523Y6985D01*
G01X47731Y6985D01*
G01X47835Y6934D01*
G01X47939Y6830D01*
G01X47993Y6725D01*
G01X48044Y6571D01*
G01X48044Y6311D01*
G01X47993Y6154D01*
G01X47939Y6050D01*
G01X47835Y5946D01*
G01X47731Y5895D01*
G01X47523Y5895D01*
G01X47421Y5946D01*
G01X47317Y6050D01*
G01X47264Y6154D01*
G01X46921Y6779D02*
G01X46817Y6830D01*
G01X46662Y6985D01*
G01X46662Y5895D01*
G01X46215Y6985D02*
G01X45643Y6985D01*
G01X45956Y6571D01*
G01X45798Y6571D01*
G01X45694Y6517D01*
G01X45643Y6466D01*
G01X45593Y6311D01*
G01X45593Y6207D01*
G01X45643Y6050D01*
G01X45747Y5946D01*
G01X45902Y5895D01*
G01X46060Y5895D01*
G01X46215Y5946D01*
G01X46266Y5999D01*
G01X46319Y6103D01*
G01X39390Y1905D02*
G01X39390Y815D01*
G01X39390Y1905D02*
G01X39027Y1905D01*
G01X38869Y1854D01*
G01X38768Y1750D01*
G01X38714Y1645D01*
G01X38663Y1490D01*
G01X38663Y1231D01*
G01X38714Y1074D01*
G01X38768Y970D01*
G01X38869Y866D01*
G01X39027Y815D01*
G01X39390Y815D01*
G01X38267Y1645D02*
G01X38267Y1699D01*
G01X38216Y1803D01*
G01X38163Y1854D01*
G01X38059Y1905D01*
G01X37853Y1905D01*
G01X37749Y1854D01*
G01X37696Y1803D01*
G01X37645Y1699D01*
G01X37645Y1595D01*
G01X37696Y1490D01*
G01X37800Y1333D01*
G01X38321Y815D01*
G01X37592Y815D01*
G01X29598Y5189D02*
G01X29494Y5242D01*
G01X29390Y5346D01*
G01X29336Y5448D01*
G01X29336Y5656D01*
G01X29390Y5760D01*
G01X29494Y5864D01*
G01X29598Y5918D01*
G01X29753Y5969D01*
G01X30012Y5969D01*
G01X30170Y5918D01*
G01X30274Y5864D01*
G01X30378Y5760D01*
G01X30429Y5656D01*
G01X30429Y5448D01*
G01X30378Y5346D01*
G01X30274Y5242D01*
G01X30170Y5189D01*
G01X29545Y4846D02*
G01X29494Y4742D01*
G01X29336Y4587D01*
G01X30429Y4587D01*
G01X29336Y3723D02*
G01X30065Y4244D01*
G01X30065Y3464D01*
G01X29336Y3723D02*
G01X30429Y3723D01*
G01X24117Y5969D02*
G01X24117Y4879D01*
G01X24117Y5969D02*
G01X23649Y5969D01*
G01X23495Y5918D01*
G01X23441Y5867D01*
G01X23390Y5763D01*
G01X23390Y5659D01*
G01X23441Y5555D01*
G01X23495Y5501D01*
G01X23649Y5450D01*
G01X24117Y5450D01*
G01X23754Y5450D02*
G01X23390Y4879D01*
G01X23047Y5763D02*
G01X22943Y5814D01*
G01X22786Y5969D01*
G01X22786Y4879D01*
G01X22392Y5709D02*
G01X22392Y5763D01*
G01X22339Y5867D01*
G01X22288Y5918D01*
G01X22184Y5969D01*
G01X21976Y5969D01*
G01X21871Y5918D01*
G01X21821Y5867D01*
G01X21767Y5763D01*
G01X21767Y5659D01*
G01X21821Y5555D01*
G01X21925Y5397D01*
G01X22443Y4879D01*
G01X21717Y4879D01*
G01X24117Y4191D02*
G01X24117Y3101D01*
G01X24117Y4191D02*
G01X23649Y4191D01*
G01X23495Y4140D01*
G01X23441Y4089D01*
G01X23390Y3985D01*
G01X23390Y3881D01*
G01X23441Y3777D01*
G01X23495Y3723D01*
G01X23649Y3672D01*
G01X24117Y3672D01*
G01X23754Y3672D02*
G01X23390Y3101D01*
G01X23047Y3985D02*
G01X22943Y4036D01*
G01X22786Y4191D01*
G01X22786Y3101D01*
G01X22339Y4191D02*
G01X21767Y4191D01*
G01X22080Y3777D01*
G01X21925Y3777D01*
G01X21821Y3723D01*
G01X21767Y3672D01*
G01X21717Y3517D01*
G01X21717Y3413D01*
G01X21767Y3256D01*
G01X21871Y3152D01*
G01X22029Y3101D01*
G01X22184Y3101D01*
G01X22339Y3152D01*
G01X22392Y3205D01*
G01X22443Y3309D01*
G01X24511Y21450D02*
G01X24511Y20360D01*
G01X24511Y21450D02*
G01X24043Y21450D01*
G01X23888Y21399D01*
G01X23835Y21348D01*
G01X23784Y21244D01*
G01X23784Y21140D01*
G01X23835Y21036D01*
G01X23888Y20982D01*
G01X24043Y20932D01*
G01X24511Y20932D01*
G01X24147Y20932D02*
G01X23784Y20360D01*
G01X23441Y21244D02*
G01X23337Y21295D01*
G01X23180Y21450D01*
G01X23180Y20360D01*
G01X22318Y21450D02*
G01X22837Y20723D01*
G01X22059Y20723D01*
G01X22318Y21450D02*
G01X22318Y20360D01*
G01X24447Y23241D02*
G01X24447Y22151D01*
G01X24447Y23241D02*
G01X23980Y23241D01*
G01X23825Y23190D01*
G01X23771Y23139D01*
G01X23721Y23035D01*
G01X23721Y22931D01*
G01X23771Y22827D01*
G01X23825Y22773D01*
G01X23980Y22722D01*
G01X24447Y22722D01*
G01X24084Y22722D02*
G01X23721Y22151D01*
G01X23378Y23035D02*
G01X23274Y23086D01*
G01X23116Y23241D01*
G01X23116Y22151D01*
G01X22151Y23086D02*
G01X22202Y23190D01*
G01X22359Y23241D01*
G01X22463Y23241D01*
G01X22618Y23190D01*
G01X22722Y23035D01*
G01X22773Y22773D01*
G01X22773Y22514D01*
G01X22722Y22306D01*
G01X22618Y22202D01*
G01X22463Y22151D01*
G01X22410Y22151D01*
G01X22255Y22202D01*
G01X22151Y22306D01*
G01X22098Y22463D01*
G01X22098Y22514D01*
G01X22151Y22669D01*
G01X22255Y22773D01*
G01X22410Y22827D01*
G01X22463Y22827D01*
G01X22618Y22773D01*
G01X22722Y22669D01*
G01X22773Y22514D01*
G01X24457Y2413D02*
G01X24457Y1323D01*
G01X24457Y2413D02*
G01X23990Y2413D01*
G01X23835Y2362D01*
G01X23781Y2311D01*
G01X23731Y2207D01*
G01X23731Y2103D01*
G01X23781Y1999D01*
G01X23835Y1945D01*
G01X23990Y1894D01*
G01X24457Y1894D01*
G01X24094Y1894D02*
G01X23731Y1323D01*
G01X23334Y2153D02*
G01X23334Y2207D01*
G01X23284Y2311D01*
G01X23230Y2362D01*
G01X23126Y2413D01*
G01X22920Y2413D01*
G01X22816Y2362D01*
G01X22763Y2311D01*
G01X22712Y2207D01*
G01X22712Y2103D01*
G01X22763Y1999D01*
G01X22867Y1841D01*
G01X23388Y1323D01*
G01X22659Y1323D01*
G01X22006Y2413D02*
G01X22161Y2362D01*
G01X22265Y2207D01*
G01X22316Y1945D01*
G01X22316Y1790D01*
G01X22265Y1531D01*
G01X22161Y1374D01*
G01X22006Y1323D01*
G01X21902Y1323D01*
G01X21744Y1374D01*
G01X21640Y1531D01*
G01X21589Y1790D01*
G01X21589Y1945D01*
G01X21640Y2207D01*
G01X21744Y2362D01*
G01X21902Y2413D01*
G01X22006Y2413D01*
G01X24638Y25133D02*
G01X24638Y24043D01*
G01X24638Y25133D02*
G01X24170Y25133D01*
G01X24015Y25082D01*
G01X23962Y25031D01*
G01X23911Y24927D01*
G01X23911Y24823D01*
G01X23962Y24719D01*
G01X24015Y24665D01*
G01X24170Y24615D01*
G01X24638Y24615D01*
G01X24274Y24615D02*
G01X23911Y24043D01*
G01X23515Y24874D02*
G01X23515Y24927D01*
G01X23464Y25031D01*
G01X23411Y25082D01*
G01X23307Y25133D01*
G01X23101Y25133D01*
G01X22997Y25082D01*
G01X22943Y25031D01*
G01X22893Y24927D01*
G01X22893Y24823D01*
G01X22943Y24719D01*
G01X23047Y24561D01*
G01X23568Y24043D01*
G01X22839Y24043D01*
G01X22496Y24927D02*
G01X22392Y24978D01*
G01X22237Y25133D01*
G01X22237Y24043D01*
G01X14714Y2141D02*
G01X14767Y2245D01*
G01X14871Y2349D01*
G01X14973Y2400D01*
G01X15181Y2400D01*
G01X15285Y2349D01*
G01X15389Y2245D01*
G01X15443Y2141D01*
G01X15493Y1986D01*
G01X15493Y1727D01*
G01X15443Y1569D01*
G01X15389Y1465D01*
G01X15285Y1361D01*
G01X15181Y1310D01*
G01X14973Y1310D01*
G01X14871Y1361D01*
G01X14767Y1465D01*
G01X14714Y1569D01*
G01X14320Y2141D02*
G01X14320Y2194D01*
G01X14267Y2298D01*
G01X14216Y2349D01*
G01X14112Y2400D01*
G01X13903Y2400D01*
G01X13799Y2349D01*
G01X13748Y2298D01*
G01X13695Y2194D01*
G01X13695Y2090D01*
G01X13748Y1986D01*
G01X13853Y1828D01*
G01X14371Y1310D01*
G01X13644Y1310D01*
G01X6098Y14726D02*
G01X6151Y14831D01*
G01X6256Y14935D01*
G01X6357Y14986D01*
G01X6565Y14986D01*
G01X6670Y14935D01*
G01X6774Y14831D01*
G01X6827Y14726D01*
G01X6878Y14571D01*
G01X6878Y14312D01*
G01X6827Y14155D01*
G01X6774Y14051D01*
G01X6670Y13947D01*
G01X6565Y13896D01*
G01X6357Y13896D01*
G01X6256Y13947D01*
G01X6151Y14051D01*
G01X6098Y14155D01*
G01X5133Y14831D02*
G01X5184Y14935D01*
G01X5341Y14986D01*
G01X5443Y14986D01*
G01X5600Y14935D01*
G01X5704Y14780D01*
G01X5755Y14518D01*
G01X5755Y14259D01*
G01X5704Y14051D01*
G01X5600Y13947D01*
G01X5443Y13896D01*
G01X5392Y13896D01*
G01X5237Y13947D01*
G01X5133Y14051D01*
G01X5080Y14208D01*
G01X5080Y14259D01*
G01X5133Y14414D01*
G01X5237Y14518D01*
G01X5392Y14571D01*
G01X5443Y14571D01*
G01X5600Y14518D01*
G01X5704Y14414D01*
G01X5755Y14259D01*
G01X36342Y5842D02*
G01X36342Y5064D01*
G01X36291Y4907D01*
G01X36187Y4803D01*
G01X36029Y4752D01*
G01X35925Y4752D01*
G01X35770Y4803D01*
G01X35666Y4907D01*
G01X35615Y5064D01*
G01X35615Y5842D01*
G01X34544Y5842D02*
G01X35064Y4752D01*
G01X35272Y5842D02*
G01X34544Y5842D01*
G01X47084Y21844D02*
G01X47084Y20754D01*
G01X47084Y21844D02*
G01X46616Y21844D01*
G01X46461Y21793D01*
G01X46408Y21742D01*
G01X46357Y21638D01*
G01X46357Y21534D01*
G01X46408Y21430D01*
G01X46461Y21376D01*
G01X46616Y21325D01*
G01X47084Y21325D01*
G01X46720Y21325D02*
G01X46357Y20754D01*
G01X45389Y21689D02*
G01X45443Y21793D01*
G01X45598Y21844D01*
G01X45702Y21844D01*
G01X45857Y21793D01*
G01X45961Y21638D01*
G01X46014Y21376D01*
G01X46014Y21117D01*
G01X45961Y20909D01*
G01X45857Y20805D01*
G01X45702Y20754D01*
G01X45648Y20754D01*
G01X45493Y20805D01*
G01X45389Y20909D01*
G01X45339Y21066D01*
G01X45339Y21117D01*
G01X45389Y21272D01*
G01X45493Y21376D01*
G01X45648Y21430D01*
G01X45702Y21430D01*
G01X45857Y21376D01*
G01X45961Y21272D01*
G01X46014Y21117D01*
G01X47264Y25273D02*
G01X47264Y24183D01*
G01X47264Y25273D02*
G01X46797Y25273D01*
G01X46642Y25222D01*
G01X46588Y25171D01*
G01X46537Y25067D01*
G01X46537Y24963D01*
G01X46588Y24859D01*
G01X46642Y24805D01*
G01X46797Y24754D01*
G01X47264Y24754D01*
G01X46901Y24754D02*
G01X46537Y24183D01*
G01X45466Y25273D02*
G01X45986Y24183D01*
G01X46195Y25273D02*
G01X45466Y25273D01*
G01X46535Y23235D02*
G01X46588Y23340D01*
G01X46692Y23444D01*
G01X46794Y23495D01*
G01X47002Y23495D01*
G01X47106Y23444D01*
G01X47210Y23340D01*
G01X47264Y23235D01*
G01X47315Y23081D01*
G01X47315Y22821D01*
G01X47264Y22664D01*
G01X47210Y22560D01*
G01X47106Y22456D01*
G01X47002Y22405D01*
G01X46794Y22405D01*
G01X46692Y22456D01*
G01X46588Y22560D01*
G01X46535Y22664D01*
G01X46088Y23495D02*
G01X45516Y23495D01*
G01X45829Y23081D01*
G01X45674Y23081D01*
G01X45570Y23027D01*
G01X45516Y22976D01*
G01X45465Y22821D01*
G01X45465Y22717D01*
G01X45516Y22560D01*
G01X45620Y22456D01*
G01X45778Y22405D01*
G01X45933Y22405D01*
G01X46088Y22456D01*
G01X46141Y22509D01*
G01X46192Y22613D01*
G01X39176Y19304D02*
G01X39176Y18214D01*
G01X39176Y19304D02*
G01X38813Y19304D01*
G01X38656Y19253D01*
G01X38554Y19149D01*
G01X38501Y19044D01*
G01X38450Y18889D01*
G01X38450Y18630D01*
G01X38501Y18473D01*
G01X38554Y18369D01*
G01X38656Y18265D01*
G01X38813Y18214D01*
G01X39176Y18214D01*
G01X38107Y19098D02*
G01X38003Y19149D01*
G01X37845Y19304D01*
G01X37845Y18214D01*
G01X29609Y23858D02*
G01X29504Y23911D01*
G01X29400Y24015D01*
G01X29347Y24117D01*
G01X29347Y24325D01*
G01X29400Y24429D01*
G01X29504Y24533D01*
G01X29609Y24587D01*
G01X29763Y24638D01*
G01X30023Y24638D01*
G01X30180Y24587D01*
G01X30284Y24533D01*
G01X30388Y24429D01*
G01X30439Y24325D01*
G01X30439Y24117D01*
G01X30388Y24015D01*
G01X30284Y23911D01*
G01X30180Y23858D01*
G01X29555Y23515D02*
G01X29504Y23411D01*
G01X29347Y23256D01*
G01X30439Y23256D01*
G01X29347Y22600D02*
G01X29400Y22758D01*
G01X29555Y22860D01*
G01X29817Y22913D01*
G01X29972Y22913D01*
G01X30231Y22860D01*
G01X30388Y22758D01*
G01X30439Y22600D01*
G01X30439Y22496D01*
G01X30388Y22341D01*
G01X30231Y22237D01*
G01X29972Y22186D01*
G01X29817Y22186D01*
G01X29555Y22237D01*
G01X29400Y22341D01*
G01X29347Y22496D01*
G01X29347Y22600D01*
G01X36128Y23622D02*
G01X36128Y22844D01*
G01X36078Y22687D01*
G01X35974Y22583D01*
G01X35816Y22532D01*
G01X35712Y22532D01*
G01X35557Y22583D01*
G01X35453Y22687D01*
G01X35402Y22844D01*
G01X35402Y23622D01*
G01X35059Y23416D02*
G01X34955Y23467D01*
G01X34798Y23622D01*
G01X34798Y22532D01*
G01X47993Y12446D02*
G01X47993Y11356D01*
G01X47993Y12446D02*
G01X47525Y12446D01*
G01X47371Y12395D01*
G01X47317Y12344D01*
G01X47266Y12240D01*
G01X47266Y12136D01*
G01X47317Y12031D01*
G01X47371Y11978D01*
G01X47525Y11927D01*
G01X47993Y11927D01*
G01X47630Y11927D02*
G01X47266Y11356D01*
G01X46924Y12240D02*
G01X46819Y12291D01*
G01X46662Y12446D01*
G01X46662Y11356D01*
G01X46009Y12446D02*
G01X46164Y12395D01*
G01X46268Y12240D01*
G01X46319Y11978D01*
G01X46319Y11823D01*
G01X46268Y11564D01*
G01X46164Y11407D01*
G01X46009Y11356D01*
G01X45905Y11356D01*
G01X45747Y11407D01*
G01X45643Y11564D01*
G01X45593Y11823D01*
G01X45593Y11978D01*
G01X45643Y12240D01*
G01X45747Y12395D01*
G01X45905Y12446D01*
G01X46009Y12446D01*
G01X47525Y17399D02*
G01X47525Y16309D01*
G01X47525Y17399D02*
G01X47058Y17399D01*
G01X46903Y17348D01*
G01X46850Y17297D01*
G01X46799Y17193D01*
G01X46799Y17089D01*
G01X46850Y16985D01*
G01X46903Y16931D01*
G01X47058Y16880D01*
G01X47525Y16880D01*
G01X47162Y16880D02*
G01X46799Y16309D01*
G01X46456Y17193D02*
G01X46352Y17244D01*
G01X46194Y17399D01*
G01X46194Y16309D01*
G01X45852Y17193D02*
G01X45747Y17244D01*
G01X45593Y17399D01*
G01X45593Y16309D01*
G01X46924Y15488D02*
G01X46977Y15593D01*
G01X47081Y15697D01*
G01X47183Y15748D01*
G01X47391Y15748D01*
G01X47495Y15697D01*
G01X47599Y15593D01*
G01X47652Y15488D01*
G01X47703Y15334D01*
G01X47703Y15074D01*
G01X47652Y14917D01*
G01X47599Y14813D01*
G01X47495Y14709D01*
G01X47391Y14658D01*
G01X47183Y14658D01*
G01X47081Y14709D01*
G01X46977Y14813D01*
G01X46924Y14917D01*
G01X46581Y15542D02*
G01X46476Y15593D01*
G01X46322Y15748D01*
G01X46322Y14658D01*
G01X45979Y15542D02*
G01X45874Y15593D01*
G01X45720Y15748D01*
G01X45720Y14658D01*
G01X39390Y10287D02*
G01X39390Y9197D01*
G01X39390Y10287D02*
G01X39027Y10287D01*
G01X38869Y10236D01*
G01X38768Y10132D01*
G01X38714Y10027D01*
G01X38663Y9872D01*
G01X38663Y9613D01*
G01X38714Y9456D01*
G01X38768Y9352D01*
G01X38869Y9248D01*
G01X39027Y9197D01*
G01X39390Y9197D01*
G01X38216Y10287D02*
G01X37645Y10287D01*
G01X37955Y9872D01*
G01X37800Y9872D01*
G01X37696Y9819D01*
G01X37645Y9768D01*
G01X37592Y9613D01*
G01X37592Y9509D01*
G01X37645Y9352D01*
G01X37749Y9248D01*
G01X37904Y9197D01*
G01X38059Y9197D01*
G01X38216Y9248D01*
G01X38267Y9301D01*
G01X38321Y9405D01*
G01X29609Y14079D02*
G01X29504Y14132D01*
G01X29400Y14236D01*
G01X29347Y14338D01*
G01X29347Y14546D01*
G01X29400Y14650D01*
G01X29504Y14754D01*
G01X29609Y14808D01*
G01X29763Y14859D01*
G01X30023Y14859D01*
G01X30180Y14808D01*
G01X30284Y14754D01*
G01X30388Y14650D01*
G01X30439Y14546D01*
G01X30439Y14338D01*
G01X30388Y14236D01*
G01X30284Y14132D01*
G01X30180Y14079D01*
G01X29555Y13736D02*
G01X29504Y13632D01*
G01X29347Y13477D01*
G01X30439Y13477D01*
G01X29347Y12509D02*
G01X29347Y13030D01*
G01X29817Y13081D01*
G01X29763Y13030D01*
G01X29713Y12875D01*
G01X29713Y12717D01*
G01X29763Y12562D01*
G01X29868Y12458D01*
G01X30023Y12407D01*
G01X30127Y12407D01*
G01X30284Y12458D01*
G01X30388Y12562D01*
G01X30439Y12717D01*
G01X30439Y12875D01*
G01X30388Y13030D01*
G01X30335Y13081D01*
G01X30231Y13134D01*
G01X36393Y14224D02*
G01X36393Y13446D01*
G01X36342Y13289D01*
G01X36238Y13185D01*
G01X36080Y13134D01*
G01X35976Y13134D01*
G01X35821Y13185D01*
G01X35717Y13289D01*
G01X35666Y13446D01*
G01X35666Y14224D01*
G01X34803Y14224D02*
G01X35323Y13497D01*
G01X34544Y13497D01*
G01X34803Y14224D02*
G01X34803Y13134D01*
G01X4632Y18287D02*
G01X4632Y17198D01*
G01X4632Y18287D02*
G01X4165Y18287D01*
G01X4010Y18237D01*
G01X3957Y18186D01*
G01X3906Y18082D01*
G01X3906Y17978D01*
G01X3957Y17873D01*
G01X4010Y17820D01*
G01X4165Y17769D01*
G01X4632Y17769D01*
G01X4269Y17769D02*
G01X3906Y17198D01*
G01X3563Y18082D02*
G01X3459Y18133D01*
G01X3301Y18287D01*
G01X3301Y17198D01*
G01X9725Y21643D02*
G01X8636Y21643D01*
G01X9725Y21643D02*
G01X9725Y22110D01*
G01X9674Y22265D01*
G01X9624Y22318D01*
G01X9519Y22369D01*
G01X9415Y22369D01*
G01X9311Y22318D01*
G01X9258Y22265D01*
G01X9207Y22110D01*
G01X9207Y21643D01*
G01X9207Y22006D02*
G01X8636Y22369D01*
G01X9466Y22766D02*
G01X9519Y22766D01*
G01X9624Y22816D01*
G01X9674Y22870D01*
G01X9725Y22974D01*
G01X9725Y23180D01*
G01X9674Y23284D01*
G01X9624Y23337D01*
G01X9519Y23388D01*
G01X9415Y23388D01*
G01X9311Y23337D01*
G01X9154Y23233D01*
G01X8636Y22712D01*
G01X8636Y23441D01*
G01X9725Y23888D02*
G01X9725Y24460D01*
G01X9311Y24147D01*
G01X9311Y24302D01*
G01X9258Y24406D01*
G01X9207Y24460D01*
G01X9052Y24511D01*
G01X8948Y24511D01*
G01X8790Y24460D01*
G01X8686Y24356D01*
G01X8636Y24198D01*
G01X8636Y24043D01*
G01X8686Y23888D01*
G01X8740Y23835D01*
G01X8844Y23784D01*
G54D37*
G75*
G01X10142Y18247D02*
G02X10145Y18247I1J150D01*
G01*
G54D12*
G75*
G01X11643Y16096D02*
G02X11646Y16096I2J200D01*
G01*
G54D10*
G75*
G01X36170Y2921D02*
G03X34900Y2921I-635J0D01*
G01*
G75*
G01X36170Y20574D02*
G03X34900Y20574I-635J0D01*
G01*
G75*
G01X36170Y11430D02*
G03X34900Y11430I-635J0D01*
G01*
G75*
G01X33566Y2692D02*
G03X33566Y2692I-190J0D01*
G01*
G75*
G01X33566Y20345D02*
G03X33566Y20345I-190J0D01*
G01*
G75*
G01X33566Y11201D02*
G03X33566Y11201I-190J0D01*
G01*
M00*
M02*
