;Layer: Drill PTH
;EasyEDA v6.2.44, 2019-10-11T09:46:47+02:00
;b694c453db3c4fbcb19a449f5af86211,674c0623d3a246009f606e19fc16e94a,10
;Gerber Generator version 0.2
M48
METRIC,LZ,000.000
;Holesize 1 = 0.305 METRIC
T01C0.305
%
G05
G90
T01
X+002286Y+012827
X+001651Y+004699
X+012954Y+003429
X+014097Y+020955
X+002667Y+018161
X+005715Y+013462
X+005334Y+016002
X+006731Y+013589
X+007112Y+016129
X+003937Y+008890
X+008128Y+003683
X+004572Y+006223
X+008636Y+004572
X+012446Y+005207
X+015494Y+005969
X+016891Y+006096
X+011811Y+006731
X+015875Y+012573
X+011303Y+012573
X+026289Y+021844
X+012700Y+011176
X+016129Y+011176
X+001905Y+019050
X+001778Y+017272
X+024130Y+010795
X+021717Y+009906
X+023495Y+011684
X+021463Y+011684
X+009398Y+022606
X+009398Y+024638
X+036449Y+006223
X+041783Y+013462
X+035687Y+017145
X+025400Y+005588
X+021590Y+020955
X+025146Y+020955
X+014732Y+022733
X+035687Y+002413
X+044196Y+013462
X+046355Y+001143
X+028321Y+001016
X+041910Y+019939
X+041910Y+005461
X+036195Y+013081
X+030734Y+005207
X+040208Y+016637
X+038862Y+018415
X+021590Y+022733
X+022098Y+008509
X+015113Y+007620
X+010414Y+007493
X+034163Y+021717
X+021463Y+019812
X+020574Y+016637
X+020447Y+013716
X+026924Y+017780
X+019939Y+018669
X+012700Y+020193
X+014224Y+019812
X+014097Y+016764
X+019685Y+019812
X+031115Y+021082
X+026162Y+010160
X+020828Y+012954
X+021717Y+012573
X+022098Y+014097
X+023241Y+003937
X+022860Y+002667
X+011938Y+002540
X+010922Y+005842
X+011049Y+014097
X+011938Y+016891
X+026162Y+012446
X+023495Y+014478
X+026289Y+016510
X+019558Y+008890
X+019558Y+006731
X+022225Y+006731
X+021463Y+015367
X+019939Y+015367
X+015240Y+014859
X+018669Y+018034
X+020320Y+017526
X+011938Y+011811
X+019812Y+011049
X+026035Y+008128
X+017272Y+004826
X+021844Y+005842
X+021336Y+009144
X+019812Y+009652
M30
