G04 Layer: BottomLayer*
G04 EasyEDA v6.2.44, 2019-10-11T09:46:47+02:00*
G04 b694c453db3c4fbcb19a449f5af86211,674c0623d3a246009f606e19fc16e94a,10*
G04 Gerber Generator version 0.2*
G04 Scale: 100 percent, Rotated: No, Reflected: No *
G04 Dimensions in millimeters *
G04 leading zeros omitted , absolute positions ,3 integer and 3 decimal *
%FSLAX33Y33*%
%MOMM*%
G90*
G71D02*

%ADD11C,0.200000*%
%ADD12C,0.399999*%
%ADD13C,0.499999*%
%ADD17C,0.609600*%
%ADD18C,0.620014*%
%ADD28C,0.450012*%
%ADD29C,0.699999*%
%ADD33R,1.999996X0.999998*%
%ADD34R,0.999998X1.999996*%

%LPD*%
G36*
G01X49794Y26273D02*
G01X23497Y26273D01*
G01X23483Y26272D01*
G01X23469Y26269D01*
G01X23455Y26264D01*
G01X23442Y26257D01*
G01X23431Y26248D01*
G01X23420Y26238D01*
G01X23412Y26227D01*
G01X23405Y26214D01*
G01X23400Y26200D01*
G01X23397Y26186D01*
G01X23396Y26172D01*
G01X23397Y26156D01*
G01X23401Y26140D01*
G01X23407Y26126D01*
G01X23415Y26112D01*
G01X23425Y26100D01*
G01X24382Y25144D01*
G01X24401Y25123D01*
G01X24418Y25101D01*
G01X24434Y25078D01*
G01X24447Y25053D01*
G01X24459Y25028D01*
G01X24469Y25002D01*
G01X24476Y24975D01*
G01X24482Y24947D01*
G01X24485Y24919D01*
G01X24486Y24892D01*
G01X24486Y11281D01*
G01X24487Y11264D01*
G01X24491Y11248D01*
G01X24498Y11233D01*
G01X24507Y11219D01*
G01X24518Y11207D01*
G01X24543Y11182D01*
G01X24567Y11155D01*
G01X24588Y11127D01*
G01X24608Y11098D01*
G01X24626Y11067D01*
G01X24642Y11035D01*
G01X24656Y11003D01*
G01X24668Y10969D01*
G01X24678Y10935D01*
G01X24686Y10900D01*
G01X24692Y10865D01*
G01X24695Y10830D01*
G01X24696Y10794D01*
G01X24695Y10759D01*
G01X24692Y10724D01*
G01X24686Y10689D01*
G01X24678Y10655D01*
G01X24669Y10621D01*
G01X24657Y10587D01*
G01X24643Y10555D01*
G01X24627Y10523D01*
G01X24609Y10493D01*
G01X24589Y10463D01*
G01X24568Y10435D01*
G01X24545Y10409D01*
G01X24520Y10384D01*
G01X24493Y10360D01*
G01X24465Y10338D01*
G01X24436Y10318D01*
G01X24406Y10300D01*
G01X24375Y10284D01*
G01X24342Y10269D01*
G01X24329Y10263D01*
G01X24317Y10254D01*
G01X24306Y10244D01*
G01X24296Y10232D01*
G01X24289Y10219D01*
G01X24283Y10205D01*
G01X24280Y10190D01*
G01X24279Y10175D01*
G01X24280Y10159D01*
G01X24284Y10144D01*
G01X24290Y10129D01*
G01X24298Y10116D01*
G01X24309Y10103D01*
G01X24509Y9904D01*
G01X24528Y9883D01*
G01X24545Y9861D01*
G01X24561Y9838D01*
G01X24574Y9813D01*
G01X24586Y9788D01*
G01X24596Y9762D01*
G01X24603Y9735D01*
G01X24609Y9707D01*
G01X24612Y9679D01*
G01X24613Y9652D01*
G01X24613Y8000D01*
G01X24612Y7973D01*
G01X24609Y7945D01*
G01X24603Y7917D01*
G01X24596Y7890D01*
G01X24586Y7864D01*
G01X24574Y7839D01*
G01X24561Y7814D01*
G01X24545Y7791D01*
G01X24528Y7769D01*
G01X24509Y7748D01*
G01X23874Y7113D01*
G01X23853Y7094D01*
G01X23831Y7077D01*
G01X23808Y7061D01*
G01X23783Y7048D01*
G01X23758Y7036D01*
G01X23732Y7026D01*
G01X23705Y7019D01*
G01X23677Y7013D01*
G01X23649Y7010D01*
G01X23622Y7009D01*
G01X22863Y7009D01*
G01X22849Y7008D01*
G01X22835Y7005D01*
G01X22821Y7000D01*
G01X22808Y6993D01*
G01X22797Y6984D01*
G01X22787Y6974D01*
G01X22778Y6962D01*
G01X22771Y6950D01*
G01X22766Y6936D01*
G01X22763Y6922D01*
G01X22762Y6907D01*
G01X22765Y6880D01*
G01X22774Y6843D01*
G01X22781Y6806D01*
G01X22785Y6768D01*
G01X22785Y6730D01*
G01X22785Y6694D01*
G01X22781Y6658D01*
G01X22775Y6623D01*
G01X22767Y6588D01*
G01X22757Y6553D01*
G01X22745Y6519D01*
G01X22730Y6486D01*
G01X22713Y6454D01*
G01X22694Y6423D01*
G01X22674Y6394D01*
G01X22651Y6366D01*
G01X22643Y6354D01*
G01X22636Y6341D01*
G01X22631Y6328D01*
G01X22628Y6314D01*
G01X22627Y6300D01*
G01X22628Y6285D01*
G01X22631Y6271D01*
G01X22636Y6257D01*
G01X22643Y6245D01*
G01X22652Y6233D01*
G01X22662Y6223D01*
G01X22673Y6214D01*
G01X22686Y6207D01*
G01X22700Y6202D01*
G01X22714Y6199D01*
G01X22728Y6198D01*
G01X23813Y6198D01*
G01X23829Y6199D01*
G01X23844Y6203D01*
G01X23859Y6209D01*
G01X23872Y6217D01*
G01X23885Y6228D01*
G01X25020Y7364D01*
G01X25041Y7383D01*
G01X25063Y7400D01*
G01X25086Y7416D01*
G01X25111Y7429D01*
G01X25136Y7441D01*
G01X25162Y7451D01*
G01X25189Y7458D01*
G01X25217Y7464D01*
G01X25245Y7467D01*
G01X25273Y7468D01*
G01X26099Y7468D01*
G01X26115Y7469D01*
G01X26130Y7473D01*
G01X26145Y7479D01*
G01X26158Y7487D01*
G01X26171Y7498D01*
G01X26410Y7737D01*
G01X26421Y7750D01*
G01X26429Y7763D01*
G01X26435Y7778D01*
G01X26439Y7793D01*
G01X26440Y7809D01*
G01X26440Y8065D01*
G01X26439Y8081D01*
G01X26435Y8096D01*
G01X26429Y8111D01*
G01X26421Y8124D01*
G01X26410Y8137D01*
G01X25274Y9272D01*
G01X25255Y9293D01*
G01X25238Y9315D01*
G01X25222Y9338D01*
G01X25209Y9363D01*
G01X25197Y9388D01*
G01X25187Y9414D01*
G01X25180Y9441D01*
G01X25174Y9469D01*
G01X25171Y9497D01*
G01X25170Y9524D01*
G01X25170Y13462D01*
G01X25171Y13489D01*
G01X25174Y13517D01*
G01X25180Y13545D01*
G01X25187Y13572D01*
G01X25197Y13598D01*
G01X25209Y13623D01*
G01X25222Y13648D01*
G01X25238Y13671D01*
G01X25255Y13693D01*
G01X25274Y13714D01*
G01X25782Y14222D01*
G01X25803Y14241D01*
G01X25825Y14258D01*
G01X25848Y14274D01*
G01X25873Y14287D01*
G01X25898Y14299D01*
G01X25924Y14309D01*
G01X25951Y14316D01*
G01X25979Y14322D01*
G01X26007Y14325D01*
G01X26035Y14326D01*
G01X26781Y14326D01*
G01X26796Y14327D01*
G01X26810Y14330D01*
G01X26823Y14335D01*
G01X26836Y14342D01*
G01X26848Y14351D01*
G01X26858Y14361D01*
G01X26867Y14373D01*
G01X26874Y14385D01*
G01X26879Y14399D01*
G01X26882Y14413D01*
G01X26883Y14428D01*
G01X26883Y14649D01*
G01X27476Y14649D01*
G01X27476Y14428D01*
G01X27477Y14413D01*
G01X27480Y14399D01*
G01X27485Y14385D01*
G01X27492Y14373D01*
G01X27501Y14361D01*
G01X27511Y14351D01*
G01X27523Y14342D01*
G01X27535Y14335D01*
G01X27549Y14330D01*
G01X27563Y14327D01*
G01X27578Y14326D01*
G01X28301Y14326D01*
G01X28316Y14327D01*
G01X28330Y14330D01*
G01X28344Y14335D01*
G01X28356Y14342D01*
G01X28368Y14351D01*
G01X28378Y14361D01*
G01X28387Y14373D01*
G01X28394Y14385D01*
G01X28399Y14399D01*
G01X28402Y14413D01*
G01X28403Y14428D01*
G01X28403Y14649D01*
G01X28996Y14649D01*
G01X28996Y14428D01*
G01X28997Y14413D01*
G01X29000Y14399D01*
G01X29005Y14385D01*
G01X29012Y14373D01*
G01X29021Y14361D01*
G01X29031Y14351D01*
G01X29043Y14342D01*
G01X29056Y14335D01*
G01X29069Y14330D01*
G01X29083Y14327D01*
G01X29098Y14326D01*
G01X31081Y14326D01*
G01X31095Y14327D01*
G01X31109Y14330D01*
G01X31123Y14335D01*
G01X31135Y14342D01*
G01X31147Y14351D01*
G01X31157Y14361D01*
G01X31166Y14373D01*
G01X31173Y14385D01*
G01X31178Y14399D01*
G01X31181Y14413D01*
G01X31182Y14428D01*
G01X31182Y14435D01*
G01X31180Y14478D01*
G01X31181Y14513D01*
G01X31185Y14548D01*
G01X31190Y14583D01*
G01X31197Y14618D01*
G01X31206Y14653D01*
G01X31217Y14686D01*
G01X31231Y14719D01*
G01X31246Y14751D01*
G01X31263Y14782D01*
G01X31281Y14813D01*
G01X31302Y14842D01*
G01X31324Y14869D01*
G01X31348Y14896D01*
G01X31373Y14921D01*
G01X31400Y14944D01*
G01X31428Y14966D01*
G01X31457Y14986D01*
G01X31487Y15005D01*
G01X31518Y15021D01*
G01X31532Y15030D01*
G01X31545Y15040D01*
G01X31555Y15052D01*
G01X31564Y15066D01*
G01X31570Y15081D01*
G01X31574Y15096D01*
G01X31575Y15112D01*
G01X31575Y15113D01*
G01X31574Y15129D01*
G01X31570Y15144D01*
G01X31564Y15159D01*
G01X31555Y15173D01*
G01X31545Y15185D01*
G01X31532Y15195D01*
G01X31518Y15204D01*
G01X31487Y15220D01*
G01X31456Y15239D01*
G01X31427Y15259D01*
G01X31399Y15281D01*
G01X31372Y15305D01*
G01X31347Y15330D01*
G01X31323Y15357D01*
G01X31300Y15385D01*
G01X31280Y15415D01*
G01X31261Y15445D01*
G01X31244Y15477D01*
G01X31229Y15509D01*
G01X31932Y15509D01*
G01X31932Y15186D01*
G01X31933Y15171D01*
G01X31936Y15157D01*
G01X31941Y15143D01*
G01X31948Y15131D01*
G01X31957Y15119D01*
G01X31967Y15109D01*
G01X31979Y15100D01*
G01X31991Y15093D01*
G01X32005Y15088D01*
G01X32019Y15085D01*
G01X32034Y15084D01*
G01X33040Y15084D01*
G01X33055Y15085D01*
G01X33069Y15088D01*
G01X33082Y15093D01*
G01X33095Y15100D01*
G01X33107Y15109D01*
G01X33117Y15119D01*
G01X33126Y15131D01*
G01X33133Y15143D01*
G01X33138Y15157D01*
G01X33141Y15171D01*
G01X33142Y15186D01*
G01X33142Y15509D01*
G01X33704Y15509D01*
G01X33719Y15510D01*
G01X33733Y15513D01*
G01X33747Y15518D01*
G01X33759Y15525D01*
G01X33771Y15534D01*
G01X33781Y15544D01*
G01X33790Y15556D01*
G01X33797Y15568D01*
G01X33802Y15582D01*
G01X33805Y15596D01*
G01X33806Y15611D01*
G01X33806Y15884D01*
G01X33805Y15899D01*
G01X33802Y15913D01*
G01X33797Y15927D01*
G01X33790Y15939D01*
G01X33781Y15951D01*
G01X33771Y15961D01*
G01X33759Y15970D01*
G01X33747Y15977D01*
G01X33733Y15982D01*
G01X33719Y15985D01*
G01X33704Y15986D01*
G01X33142Y15986D01*
G01X33142Y16051D01*
G01X33141Y16066D01*
G01X33138Y16080D01*
G01X33133Y16094D01*
G01X33126Y16106D01*
G01X33117Y16118D01*
G01X33107Y16128D01*
G01X33095Y16137D01*
G01X33082Y16144D01*
G01X33069Y16149D01*
G01X33055Y16152D01*
G01X33040Y16153D01*
G01X32034Y16153D01*
G01X32019Y16152D01*
G01X32005Y16149D01*
G01X31991Y16144D01*
G01X31979Y16137D01*
G01X31967Y16128D01*
G01X31957Y16118D01*
G01X31948Y16106D01*
G01X31941Y16094D01*
G01X31936Y16080D01*
G01X31933Y16066D01*
G01X31932Y16051D01*
G01X31932Y15986D01*
G01X31229Y15986D01*
G01X31239Y16008D01*
G01X31244Y16022D01*
G01X31248Y16036D01*
G01X31249Y16051D01*
G01X31248Y16066D01*
G01X31245Y16080D01*
G01X31240Y16094D01*
G01X31233Y16106D01*
G01X31224Y16118D01*
G01X31214Y16128D01*
G01X31202Y16137D01*
G01X31189Y16144D01*
G01X31176Y16149D01*
G01X31162Y16152D01*
G01X31147Y16153D01*
G01X29070Y16153D01*
G01X29055Y16152D01*
G01X29041Y16149D01*
G01X29028Y16144D01*
G01X29015Y16137D01*
G01X29003Y16128D01*
G01X28993Y16118D01*
G01X28984Y16106D01*
G01X28977Y16094D01*
G01X28972Y16080D01*
G01X28969Y16066D01*
G01X28968Y16051D01*
G01X28970Y16031D01*
G01X28976Y16012D01*
G01X28985Y15988D01*
G01X28991Y15963D01*
G01X28995Y15938D01*
G01X28996Y15913D01*
G01X28996Y15576D01*
G01X28403Y15576D01*
G01X28403Y16051D01*
G01X28402Y16066D01*
G01X28399Y16080D01*
G01X28394Y16094D01*
G01X28387Y16106D01*
G01X28378Y16118D01*
G01X28368Y16128D01*
G01X28356Y16137D01*
G01X28344Y16144D01*
G01X28330Y16149D01*
G01X28316Y16152D01*
G01X28301Y16153D01*
G01X27578Y16153D01*
G01X27563Y16152D01*
G01X27549Y16149D01*
G01X27535Y16144D01*
G01X27523Y16137D01*
G01X27511Y16128D01*
G01X27501Y16118D01*
G01X27492Y16106D01*
G01X27485Y16094D01*
G01X27480Y16080D01*
G01X27477Y16066D01*
G01X27476Y16051D01*
G01X27476Y15576D01*
G01X26883Y15576D01*
G01X26883Y15913D01*
G01X26884Y15938D01*
G01X26888Y15963D01*
G01X26894Y15988D01*
G01X26903Y16012D01*
G01X26909Y16031D01*
G01X26911Y16051D01*
G01X26910Y16066D01*
G01X26907Y16080D01*
G01X26902Y16094D01*
G01X26895Y16106D01*
G01X26886Y16118D01*
G01X26876Y16128D01*
G01X26864Y16137D01*
G01X26851Y16144D01*
G01X26838Y16149D01*
G01X26824Y16152D01*
G01X26809Y16153D01*
G01X26768Y16153D01*
G01X26751Y16152D01*
G01X26735Y16148D01*
G01X26720Y16141D01*
G01X26706Y16132D01*
G01X26694Y16122D01*
G01X26669Y16097D01*
G01X26643Y16074D01*
G01X26615Y16053D01*
G01X26586Y16034D01*
G01X26556Y16016D01*
G01X26525Y16000D01*
G01X26493Y15987D01*
G01X26460Y15975D01*
G01X26427Y15965D01*
G01X26393Y15958D01*
G01X26358Y15952D01*
G01X26323Y15949D01*
G01X26289Y15948D01*
G01X26255Y15949D01*
G01X26221Y15952D01*
G01X26187Y15957D01*
G01X26154Y15964D01*
G01X26121Y15974D01*
G01X26089Y15985D01*
G01X26058Y15998D01*
G01X26028Y16012D01*
G01X25998Y16029D01*
G01X25970Y16048D01*
G01X25942Y16068D01*
G01X25916Y16089D01*
G01X25868Y16137D01*
G01X25847Y16163D01*
G01X25827Y16191D01*
G01X25808Y16219D01*
G01X25791Y16249D01*
G01X25777Y16279D01*
G01X25764Y16310D01*
G01X25753Y16342D01*
G01X25743Y16375D01*
G01X25736Y16408D01*
G01X25731Y16442D01*
G01X25728Y16476D01*
G01X25727Y16510D01*
G01X25728Y16543D01*
G01X25731Y16577D01*
G01X25736Y16611D01*
G01X25743Y16644D01*
G01X25753Y16677D01*
G01X25764Y16709D01*
G01X25777Y16740D01*
G01X25791Y16770D01*
G01X25808Y16800D01*
G01X25827Y16828D01*
G01X25847Y16856D01*
G01X25868Y16882D01*
G01X25916Y16930D01*
G01X25942Y16951D01*
G01X25970Y16971D01*
G01X25998Y16990D01*
G01X26028Y17007D01*
G01X26058Y17021D01*
G01X26089Y17034D01*
G01X26121Y17045D01*
G01X26154Y17055D01*
G01X26187Y17062D01*
G01X26221Y17067D01*
G01X26255Y17070D01*
G01X26289Y17071D01*
G01X26323Y17070D01*
G01X26358Y17067D01*
G01X26393Y17061D01*
G01X26427Y17054D01*
G01X26460Y17044D01*
G01X26493Y17032D01*
G01X26525Y17019D01*
G01X26556Y17003D01*
G01X26586Y16985D01*
G01X26615Y16966D01*
G01X26643Y16945D01*
G01X26669Y16922D01*
G01X26694Y16897D01*
G01X26706Y16887D01*
G01X26720Y16878D01*
G01X26735Y16871D01*
G01X26751Y16867D01*
G01X26768Y16866D01*
G01X33909Y16866D01*
G01X33936Y16865D01*
G01X33964Y16862D01*
G01X33992Y16856D01*
G01X34019Y16849D01*
G01X34045Y16839D01*
G01X34070Y16827D01*
G01X34095Y16814D01*
G01X34118Y16798D01*
G01X34140Y16781D01*
G01X34161Y16762D01*
G01X34168Y16755D01*
G01X34180Y16744D01*
G01X34193Y16736D01*
G01X34208Y16730D01*
G01X34223Y16726D01*
G01X34239Y16725D01*
G01X34254Y16726D01*
G01X34268Y16729D01*
G01X34282Y16734D01*
G01X34294Y16741D01*
G01X34306Y16750D01*
G01X34316Y16760D01*
G01X34325Y16772D01*
G01X34332Y16784D01*
G01X34337Y16798D01*
G01X34340Y16812D01*
G01X34341Y16827D01*
G01X34341Y17937D01*
G01X34340Y17952D01*
G01X34337Y17966D01*
G01X34332Y17979D01*
G01X34325Y17992D01*
G01X34316Y18004D01*
G01X34306Y18014D01*
G01X34294Y18023D01*
G01X34282Y18030D01*
G01X34268Y18035D01*
G01X34254Y18038D01*
G01X34239Y18039D01*
G01X33889Y18039D01*
G01X33866Y18040D01*
G01X33842Y18043D01*
G01X33819Y18049D01*
G01X33797Y18056D01*
G01X33775Y18066D01*
G01X33754Y18077D01*
G01X33735Y18091D01*
G01X33717Y18106D01*
G01X33700Y18123D01*
G01X33685Y18141D01*
G01X33671Y18160D01*
G01X33660Y18181D01*
G01X33650Y18203D01*
G01X33643Y18225D01*
G01X33637Y18248D01*
G01X33634Y18272D01*
G01X33633Y18295D01*
G01X33633Y19298D01*
G01X33632Y19314D01*
G01X33628Y19329D01*
G01X33622Y19344D01*
G01X33614Y19357D01*
G01X33603Y19370D01*
G01X32528Y20445D01*
G01X32515Y20456D01*
G01X32502Y20464D01*
G01X32487Y20470D01*
G01X32472Y20474D01*
G01X32456Y20475D01*
G01X31787Y20475D01*
G01X31749Y20476D01*
G01X31710Y20480D01*
G01X31672Y20486D01*
G01X31635Y20494D01*
G01X31598Y20505D01*
G01X31562Y20518D01*
G01X31527Y20534D01*
G01X31492Y20551D01*
G01X31459Y20571D01*
G01X31447Y20578D01*
G01X31433Y20583D01*
G01X31419Y20586D01*
G01X31405Y20587D01*
G01X31389Y20586D01*
G01X31374Y20582D01*
G01X31360Y20577D01*
G01X31327Y20562D01*
G01X31293Y20549D01*
G01X31258Y20539D01*
G01X31223Y20531D01*
G01X31187Y20525D01*
G01X31151Y20521D01*
G01X31115Y20520D01*
G01X31081Y20521D01*
G01X31047Y20524D01*
G01X31013Y20529D01*
G01X30980Y20536D01*
G01X30947Y20546D01*
G01X30915Y20557D01*
G01X30884Y20570D01*
G01X30854Y20584D01*
G01X30824Y20601D01*
G01X30796Y20620D01*
G01X30768Y20640D01*
G01X30742Y20661D01*
G01X30694Y20709D01*
G01X30673Y20735D01*
G01X30653Y20763D01*
G01X30634Y20791D01*
G01X30617Y20821D01*
G01X30603Y20851D01*
G01X30590Y20882D01*
G01X30579Y20914D01*
G01X30569Y20947D01*
G01X30562Y20980D01*
G01X30557Y21014D01*
G01X30554Y21048D01*
G01X30553Y21082D01*
G01X30554Y21115D01*
G01X30557Y21149D01*
G01X30562Y21183D01*
G01X30569Y21216D01*
G01X30579Y21249D01*
G01X30590Y21281D01*
G01X30603Y21312D01*
G01X30617Y21342D01*
G01X30634Y21372D01*
G01X30653Y21400D01*
G01X30673Y21428D01*
G01X30694Y21454D01*
G01X30742Y21502D01*
G01X30768Y21523D01*
G01X30796Y21543D01*
G01X30824Y21562D01*
G01X30854Y21579D01*
G01X30884Y21593D01*
G01X30915Y21606D01*
G01X30947Y21617D01*
G01X30980Y21627D01*
G01X31013Y21634D01*
G01X31047Y21639D01*
G01X31081Y21642D01*
G01X31115Y21643D01*
G01X31151Y21642D01*
G01X31187Y21638D01*
G01X31223Y21632D01*
G01X31258Y21624D01*
G01X31293Y21614D01*
G01X31327Y21601D01*
G01X31360Y21586D01*
G01X31374Y21581D01*
G01X31389Y21577D01*
G01X31405Y21576D01*
G01X31419Y21577D01*
G01X31433Y21580D01*
G01X31447Y21585D01*
G01X31459Y21592D01*
G01X31518Y21625D01*
G01X31532Y21634D01*
G01X31545Y21644D01*
G01X31555Y21656D01*
G01X31564Y21670D01*
G01X31570Y21685D01*
G01X31574Y21700D01*
G01X31575Y21716D01*
G01X31575Y21717D01*
G01X31574Y21733D01*
G01X31570Y21748D01*
G01X31564Y21763D01*
G01X31555Y21777D01*
G01X31545Y21789D01*
G01X31532Y21799D01*
G01X31518Y21808D01*
G01X31487Y21824D01*
G01X31457Y21843D01*
G01X31428Y21863D01*
G01X31400Y21885D01*
G01X31373Y21908D01*
G01X31348Y21933D01*
G01X31324Y21960D01*
G01X31302Y21987D01*
G01X31281Y22016D01*
G01X31263Y22047D01*
G01X31246Y22078D01*
G01X31231Y22110D01*
G01X31217Y22143D01*
G01X31206Y22176D01*
G01X31197Y22211D01*
G01X31190Y22246D01*
G01X31185Y22281D01*
G01X31181Y22316D01*
G01X31180Y22352D01*
G01X31181Y22387D01*
G01X31185Y22422D01*
G01X31190Y22457D01*
G01X31197Y22492D01*
G01X31206Y22527D01*
G01X31217Y22560D01*
G01X31231Y22593D01*
G01X31246Y22625D01*
G01X31263Y22656D01*
G01X31281Y22687D01*
G01X31302Y22716D01*
G01X31324Y22743D01*
G01X31348Y22770D01*
G01X31373Y22795D01*
G01X31400Y22818D01*
G01X31428Y22840D01*
G01X31457Y22860D01*
G01X31487Y22879D01*
G01X31518Y22895D01*
G01X31532Y22904D01*
G01X31545Y22914D01*
G01X31555Y22926D01*
G01X31564Y22940D01*
G01X31570Y22955D01*
G01X31574Y22970D01*
G01X31575Y22986D01*
G01X31575Y22987D01*
G01X31574Y23003D01*
G01X31570Y23018D01*
G01X31564Y23033D01*
G01X31555Y23047D01*
G01X31545Y23059D01*
G01X31532Y23069D01*
G01X31518Y23078D01*
G01X31487Y23094D01*
G01X31457Y23113D01*
G01X31428Y23133D01*
G01X31400Y23155D01*
G01X31373Y23178D01*
G01X31348Y23203D01*
G01X31324Y23229D01*
G01X31314Y23240D01*
G01X31290Y23256D01*
G01X31276Y23261D01*
G01X31262Y23264D01*
G01X31247Y23265D01*
G01X31050Y23265D01*
G01X31034Y23264D01*
G01X31019Y23260D01*
G01X31004Y23254D01*
G01X30991Y23246D01*
G01X30978Y23235D01*
G01X30231Y22488D01*
G01X30220Y22475D01*
G01X30212Y22462D01*
G01X30206Y22447D01*
G01X30202Y22432D01*
G01X30201Y22416D01*
G01X30201Y17906D01*
G01X30200Y17879D01*
G01X30197Y17851D01*
G01X30191Y17823D01*
G01X30184Y17796D01*
G01X30174Y17770D01*
G01X30162Y17745D01*
G01X30149Y17720D01*
G01X30133Y17697D01*
G01X30116Y17675D01*
G01X30097Y17654D01*
G01X29970Y17527D01*
G01X29949Y17508D01*
G01X29927Y17491D01*
G01X29904Y17475D01*
G01X29879Y17462D01*
G01X29854Y17450D01*
G01X29828Y17440D01*
G01X29801Y17433D01*
G01X29773Y17427D01*
G01X29745Y17424D01*
G01X29718Y17423D01*
G01X27403Y17423D01*
G01X27386Y17422D01*
G01X27370Y17418D01*
G01X27355Y17411D01*
G01X27341Y17402D01*
G01X27329Y17392D01*
G01X27304Y17367D01*
G01X27278Y17344D01*
G01X27250Y17323D01*
G01X27221Y17304D01*
G01X27191Y17286D01*
G01X27160Y17270D01*
G01X27128Y17257D01*
G01X27095Y17245D01*
G01X27062Y17235D01*
G01X27028Y17228D01*
G01X26993Y17222D01*
G01X26958Y17219D01*
G01X26924Y17218D01*
G01X26890Y17219D01*
G01X26856Y17222D01*
G01X26822Y17227D01*
G01X26789Y17234D01*
G01X26756Y17244D01*
G01X26724Y17255D01*
G01X26693Y17268D01*
G01X26663Y17282D01*
G01X26633Y17299D01*
G01X26605Y17318D01*
G01X26577Y17338D01*
G01X26551Y17359D01*
G01X26503Y17407D01*
G01X26482Y17433D01*
G01X26462Y17461D01*
G01X26443Y17489D01*
G01X26426Y17519D01*
G01X26412Y17549D01*
G01X26399Y17580D01*
G01X26388Y17612D01*
G01X26378Y17645D01*
G01X26371Y17678D01*
G01X26366Y17712D01*
G01X26363Y17746D01*
G01X26362Y17780D01*
G01X26363Y17813D01*
G01X26366Y17847D01*
G01X26371Y17881D01*
G01X26378Y17914D01*
G01X26388Y17947D01*
G01X26399Y17979D01*
G01X26412Y18010D01*
G01X26426Y18040D01*
G01X26443Y18070D01*
G01X26462Y18098D01*
G01X26482Y18126D01*
G01X26503Y18152D01*
G01X26551Y18200D01*
G01X26577Y18221D01*
G01X26605Y18241D01*
G01X26633Y18260D01*
G01X26663Y18277D01*
G01X26693Y18291D01*
G01X26724Y18304D01*
G01X26756Y18315D01*
G01X26789Y18325D01*
G01X26822Y18332D01*
G01X26856Y18337D01*
G01X26890Y18340D01*
G01X26924Y18341D01*
G01X26958Y18340D01*
G01X26993Y18337D01*
G01X27028Y18331D01*
G01X27062Y18324D01*
G01X27095Y18314D01*
G01X27128Y18302D01*
G01X27160Y18289D01*
G01X27191Y18273D01*
G01X27221Y18255D01*
G01X27250Y18236D01*
G01X27278Y18215D01*
G01X27304Y18192D01*
G01X27329Y18167D01*
G01X27341Y18157D01*
G01X27355Y18148D01*
G01X27370Y18141D01*
G01X27386Y18137D01*
G01X27403Y18136D01*
G01X29386Y18136D01*
G01X29401Y18137D01*
G01X29415Y18140D01*
G01X29429Y18145D01*
G01X29441Y18152D01*
G01X29453Y18161D01*
G01X29463Y18171D01*
G01X29472Y18183D01*
G01X29479Y18195D01*
G01X29484Y18209D01*
G01X29487Y18223D01*
G01X29488Y18238D01*
G01X29488Y22606D01*
G01X29489Y22633D01*
G01X29492Y22661D01*
G01X29498Y22689D01*
G01X29505Y22716D01*
G01X29515Y22742D01*
G01X29527Y22767D01*
G01X29540Y22792D01*
G01X29556Y22815D01*
G01X29573Y22837D01*
G01X29592Y22858D01*
G01X30608Y23874D01*
G01X30629Y23893D01*
G01X30651Y23910D01*
G01X30674Y23926D01*
G01X30699Y23939D01*
G01X30724Y23951D01*
G01X30750Y23961D01*
G01X30777Y23968D01*
G01X30805Y23974D01*
G01X30833Y23977D01*
G01X30861Y23978D01*
G01X31247Y23978D01*
G01X31262Y23979D01*
G01X31276Y23982D01*
G01X31290Y23987D01*
G01X31314Y24003D01*
G01X31324Y24014D01*
G01X31348Y24040D01*
G01X31373Y24065D01*
G01X31400Y24088D01*
G01X31428Y24110D01*
G01X31457Y24130D01*
G01X31487Y24149D01*
G01X31518Y24165D01*
G01X31532Y24174D01*
G01X31545Y24184D01*
G01X31555Y24196D01*
G01X31564Y24210D01*
G01X31570Y24225D01*
G01X31574Y24240D01*
G01X31575Y24256D01*
G01X31575Y24257D01*
G01X31574Y24273D01*
G01X31570Y24288D01*
G01X31564Y24303D01*
G01X31555Y24317D01*
G01X31545Y24329D01*
G01X31532Y24339D01*
G01X31518Y24348D01*
G01X31487Y24364D01*
G01X31456Y24383D01*
G01X31427Y24403D01*
G01X31399Y24425D01*
G01X31372Y24449D01*
G01X31347Y24474D01*
G01X31323Y24501D01*
G01X31300Y24529D01*
G01X31280Y24559D01*
G01X31261Y24589D01*
G01X31244Y24621D01*
G01X31229Y24653D01*
G01X31932Y24653D01*
G01X31932Y24330D01*
G01X31933Y24315D01*
G01X31936Y24301D01*
G01X31941Y24287D01*
G01X31948Y24275D01*
G01X31957Y24263D01*
G01X31967Y24253D01*
G01X31979Y24244D01*
G01X31991Y24237D01*
G01X32005Y24232D01*
G01X32019Y24229D01*
G01X32034Y24228D01*
G01X33040Y24228D01*
G01X33055Y24229D01*
G01X33069Y24232D01*
G01X33082Y24237D01*
G01X33095Y24244D01*
G01X33107Y24253D01*
G01X33117Y24263D01*
G01X33126Y24275D01*
G01X33133Y24287D01*
G01X33138Y24301D01*
G01X33141Y24315D01*
G01X33142Y24330D01*
G01X33142Y24653D01*
G01X33845Y24653D01*
G01X33830Y24621D01*
G01X33813Y24589D01*
G01X33794Y24559D01*
G01X33773Y24529D01*
G01X33751Y24501D01*
G01X33727Y24474D01*
G01X33702Y24449D01*
G01X33675Y24425D01*
G01X33647Y24403D01*
G01X33618Y24383D01*
G01X33587Y24364D01*
G01X33555Y24348D01*
G01X33542Y24339D01*
G01X33529Y24329D01*
G01X33519Y24317D01*
G01X33510Y24303D01*
G01X33504Y24288D01*
G01X33500Y24273D01*
G01X33499Y24257D01*
G01X33500Y24240D01*
G01X33504Y24225D01*
G01X33510Y24210D01*
G01X33519Y24196D01*
G01X33529Y24184D01*
G01X33542Y24174D01*
G01X33555Y24165D01*
G01X33587Y24149D01*
G01X33617Y24130D01*
G01X33646Y24110D01*
G01X33674Y24088D01*
G01X33701Y24065D01*
G01X33726Y24040D01*
G01X33750Y24013D01*
G01X33772Y23986D01*
G01X33792Y23957D01*
G01X33811Y23926D01*
G01X33828Y23895D01*
G01X33843Y23863D01*
G01X33856Y23830D01*
G01X33868Y23797D01*
G01X33877Y23762D01*
G01X33884Y23727D01*
G01X33889Y23692D01*
G01X33892Y23657D01*
G01X33892Y23621D01*
G01X33892Y23586D01*
G01X33889Y23551D01*
G01X33884Y23516D01*
G01X33877Y23481D01*
G01X33868Y23446D01*
G01X33856Y23413D01*
G01X33843Y23380D01*
G01X33828Y23348D01*
G01X33811Y23317D01*
G01X33792Y23286D01*
G01X33772Y23257D01*
G01X33750Y23230D01*
G01X33726Y23203D01*
G01X33701Y23178D01*
G01X33674Y23155D01*
G01X33646Y23133D01*
G01X33617Y23113D01*
G01X33587Y23094D01*
G01X33555Y23078D01*
G01X33542Y23069D01*
G01X33529Y23059D01*
G01X33519Y23047D01*
G01X33510Y23033D01*
G01X33504Y23018D01*
G01X33500Y23003D01*
G01X33499Y22987D01*
G01X33500Y22970D01*
G01X33504Y22955D01*
G01X33510Y22940D01*
G01X33519Y22926D01*
G01X33529Y22914D01*
G01X33542Y22904D01*
G01X33555Y22895D01*
G01X33589Y22878D01*
G01X33621Y22858D01*
G01X33651Y22836D01*
G01X33681Y22813D01*
G01X33709Y22787D01*
G01X33735Y22761D01*
G01X33759Y22732D01*
G01X33782Y22702D01*
G01X33803Y22671D01*
G01X33822Y22638D01*
G01X33838Y22604D01*
G01X33853Y22570D01*
G01X33865Y22534D01*
G01X33871Y22519D01*
G01X33880Y22505D01*
G01X33890Y22493D01*
G01X34076Y22307D01*
G01X34088Y22297D01*
G01X34102Y22289D01*
G01X34116Y22283D01*
G01X34132Y22279D01*
G01X34148Y22278D01*
G01X34163Y22278D01*
G01X34196Y22277D01*
G01X34230Y22274D01*
G01X34264Y22269D01*
G01X34297Y22262D01*
G01X34330Y22252D01*
G01X34362Y22241D01*
G01X34393Y22228D01*
G01X34423Y22214D01*
G01X34453Y22197D01*
G01X34481Y22178D01*
G01X34509Y22158D01*
G01X34535Y22137D01*
G01X34583Y22089D01*
G01X34604Y22063D01*
G01X34624Y22035D01*
G01X34643Y22007D01*
G01X34660Y21977D01*
G01X34674Y21947D01*
G01X34687Y21916D01*
G01X34698Y21884D01*
G01X34708Y21851D01*
G01X34715Y21818D01*
G01X34720Y21784D01*
G01X34723Y21750D01*
G01X34724Y21717D01*
G01X34723Y21683D01*
G01X34720Y21649D01*
G01X34715Y21615D01*
G01X34708Y21582D01*
G01X34698Y21549D01*
G01X34687Y21517D01*
G01X34674Y21486D01*
G01X34660Y21456D01*
G01X34643Y21426D01*
G01X34624Y21398D01*
G01X34604Y21370D01*
G01X34583Y21344D01*
G01X34535Y21296D01*
G01X34509Y21275D01*
G01X34481Y21255D01*
G01X34453Y21236D01*
G01X34423Y21219D01*
G01X34393Y21205D01*
G01X34362Y21192D01*
G01X34330Y21181D01*
G01X34297Y21171D01*
G01X34264Y21164D01*
G01X34230Y21159D01*
G01X34196Y21156D01*
G01X34163Y21155D01*
G01X34127Y21156D01*
G01X34091Y21160D01*
G01X34056Y21165D01*
G01X34021Y21173D01*
G01X33995Y21177D01*
G01X33981Y21176D01*
G01X33967Y21173D01*
G01X33953Y21168D01*
G01X33940Y21161D01*
G01X33929Y21152D01*
G01X33919Y21142D01*
G01X33910Y21130D01*
G01X33903Y21118D01*
G01X33898Y21104D01*
G01X33895Y21090D01*
G01X33893Y21076D01*
G01X33892Y21039D01*
G01X33888Y21002D01*
G01X33882Y20965D01*
G01X33874Y20929D01*
G01X33863Y20893D01*
G01X33851Y20858D01*
G01X33836Y20824D01*
G01X33819Y20790D01*
G01X33800Y20758D01*
G01X33779Y20727D01*
G01X33757Y20698D01*
G01X33732Y20670D01*
G01X33723Y20658D01*
G01X33715Y20645D01*
G01X33710Y20631D01*
G01X33706Y20616D01*
G01X33705Y20601D01*
G01X33707Y20585D01*
G01X33710Y20569D01*
G01X33716Y20555D01*
G01X33725Y20541D01*
G01X33735Y20529D01*
G01X34612Y19652D01*
G01X34639Y19622D01*
G01X34664Y19591D01*
G01X34674Y19578D01*
G01X34686Y19567D01*
G01X34700Y19559D01*
G01X34715Y19552D01*
G01X34731Y19549D01*
G01X34754Y19544D01*
G01X34777Y19536D01*
G01X34799Y19527D01*
G01X34821Y19516D01*
G01X34841Y19503D01*
G01X34860Y19487D01*
G01X34877Y19471D01*
G01X34893Y19452D01*
G01X34906Y19433D01*
G01X34918Y19412D01*
G01X34928Y19390D01*
G01X34936Y19367D01*
G01X34942Y19343D01*
G01X34945Y19319D01*
G01X34946Y19295D01*
G01X34946Y18827D01*
G01X34947Y18811D01*
G01X34951Y18795D01*
G01X34957Y18781D01*
G01X34965Y18767D01*
G01X34976Y18755D01*
G01X35120Y18610D01*
G01X35150Y18578D01*
G01X35160Y18567D01*
G01X35172Y18558D01*
G01X35185Y18550D01*
G01X35199Y18545D01*
G01X35213Y18542D01*
G01X35228Y18541D01*
G01X35243Y18542D01*
G01X35257Y18545D01*
G01X35271Y18550D01*
G01X35283Y18557D01*
G01X35295Y18566D01*
G01X35305Y18576D01*
G01X35314Y18587D01*
G01X35321Y18600D01*
G01X35326Y18614D01*
G01X35329Y18628D01*
G01X35330Y18642D01*
G01X35330Y22352D01*
G01X35331Y22379D01*
G01X35334Y22407D01*
G01X35340Y22435D01*
G01X35347Y22462D01*
G01X35357Y22488D01*
G01X35369Y22513D01*
G01X35382Y22538D01*
G01X35398Y22561D01*
G01X35415Y22583D01*
G01X35434Y22604D01*
G01X36704Y23874D01*
G01X36725Y23893D01*
G01X36747Y23910D01*
G01X36770Y23926D01*
G01X36795Y23939D01*
G01X36820Y23951D01*
G01X36846Y23961D01*
G01X36873Y23968D01*
G01X36901Y23974D01*
G01X36929Y23977D01*
G01X36957Y23978D01*
G01X37292Y23978D01*
G01X37307Y23979D01*
G01X37321Y23982D01*
G01X37335Y23987D01*
G01X37348Y23995D01*
G01X37359Y24003D01*
G01X37370Y24014D01*
G01X37393Y24040D01*
G01X37418Y24065D01*
G01X37445Y24088D01*
G01X37473Y24110D01*
G01X37502Y24130D01*
G01X37532Y24149D01*
G01X37564Y24165D01*
G01X37577Y24174D01*
G01X37590Y24184D01*
G01X37600Y24196D01*
G01X37609Y24210D01*
G01X37615Y24225D01*
G01X37619Y24240D01*
G01X37620Y24256D01*
G01X37620Y24257D01*
G01X37619Y24273D01*
G01X37615Y24288D01*
G01X37609Y24303D01*
G01X37600Y24317D01*
G01X37590Y24329D01*
G01X37577Y24339D01*
G01X37564Y24348D01*
G01X37532Y24364D01*
G01X37502Y24383D01*
G01X37473Y24403D01*
G01X37445Y24425D01*
G01X37418Y24448D01*
G01X37393Y24473D01*
G01X37369Y24500D01*
G01X37347Y24527D01*
G01X37327Y24556D01*
G01X37308Y24587D01*
G01X37291Y24618D01*
G01X37276Y24650D01*
G01X37263Y24683D01*
G01X37251Y24716D01*
G01X37242Y24751D01*
G01X37235Y24786D01*
G01X37230Y24821D01*
G01X37227Y24856D01*
G01X37226Y24892D01*
G01X37227Y24927D01*
G01X37230Y24962D01*
G01X37235Y24997D01*
G01X37242Y25031D01*
G01X37251Y25065D01*
G01X37262Y25099D01*
G01X37275Y25132D01*
G01X37290Y25164D01*
G01X37307Y25195D01*
G01X37325Y25225D01*
G01X37346Y25254D01*
G01X37367Y25281D01*
G01X37391Y25308D01*
G01X37416Y25333D01*
G01X37442Y25356D01*
G01X37470Y25378D01*
G01X37499Y25398D01*
G01X37529Y25417D01*
G01X37560Y25434D01*
G01X37592Y25448D01*
G01X37625Y25461D01*
G01X37658Y25473D01*
G01X37692Y25482D01*
G01X37727Y25489D01*
G01X37762Y25494D01*
G01X37797Y25497D01*
G01X37832Y25498D01*
G01X39332Y25498D01*
G01X39369Y25497D01*
G01X39405Y25494D01*
G01X39441Y25488D01*
G01X39477Y25481D01*
G01X39512Y25471D01*
G01X39547Y25459D01*
G01X39580Y25445D01*
G01X39613Y25429D01*
G01X39645Y25411D01*
G01X39676Y25391D01*
G01X39705Y25370D01*
G01X39733Y25346D01*
G01X39760Y25321D01*
G01X39785Y25295D01*
G01X39809Y25267D01*
G01X39830Y25238D01*
G01X39850Y25207D01*
G01X39868Y25175D01*
G01X39877Y25162D01*
G01X39887Y25150D01*
G01X39899Y25140D01*
G01X39913Y25132D01*
G01X39927Y25126D01*
G01X39942Y25122D01*
G01X39958Y25121D01*
G01X42002Y25121D01*
G01X42017Y25122D01*
G01X42031Y25125D01*
G01X42045Y25130D01*
G01X42057Y25137D01*
G01X42069Y25146D01*
G01X42079Y25156D01*
G01X42088Y25168D01*
G01X42095Y25180D01*
G01X42100Y25194D01*
G01X42103Y25208D01*
G01X42104Y25223D01*
G01X42104Y25314D01*
G01X42105Y25338D01*
G01X42108Y25362D01*
G01X42114Y25385D01*
G01X42121Y25407D01*
G01X42131Y25429D01*
G01X42142Y25450D01*
G01X42156Y25469D01*
G01X42171Y25487D01*
G01X42188Y25504D01*
G01X42206Y25519D01*
G01X42226Y25533D01*
G01X42246Y25544D01*
G01X42268Y25554D01*
G01X42290Y25561D01*
G01X42313Y25567D01*
G01X42337Y25570D01*
G01X42361Y25571D01*
G01X43361Y25571D01*
G01X43386Y25570D01*
G01X43411Y25566D01*
G01X43435Y25560D01*
G01X43459Y25551D01*
G01X43482Y25540D01*
G01X43504Y25527D01*
G01X43517Y25520D01*
G01X43531Y25514D01*
G01X43546Y25511D01*
G01X43561Y25510D01*
G01X43576Y25511D01*
G01X43590Y25514D01*
G01X43604Y25520D01*
G01X43617Y25527D01*
G01X43639Y25540D01*
G01X43662Y25551D01*
G01X43686Y25560D01*
G01X43710Y25566D01*
G01X43735Y25570D01*
G01X43761Y25571D01*
G01X44761Y25571D01*
G01X44784Y25570D01*
G01X44808Y25567D01*
G01X44831Y25561D01*
G01X44853Y25554D01*
G01X44875Y25544D01*
G01X44896Y25533D01*
G01X44915Y25519D01*
G01X44933Y25504D01*
G01X44950Y25487D01*
G01X44965Y25469D01*
G01X44979Y25450D01*
G01X44990Y25429D01*
G01X45000Y25407D01*
G01X45007Y25385D01*
G01X45013Y25362D01*
G01X45016Y25338D01*
G01X45017Y25314D01*
G01X45017Y25223D01*
G01X45018Y25208D01*
G01X45021Y25194D01*
G01X45026Y25180D01*
G01X45033Y25168D01*
G01X45042Y25156D01*
G01X45052Y25146D01*
G01X45064Y25137D01*
G01X45077Y25130D01*
G01X45090Y25125D01*
G01X45104Y25122D01*
G01X45119Y25121D01*
G01X45593Y25121D01*
G01X45620Y25120D01*
G01X45648Y25117D01*
G01X45676Y25111D01*
G01X45703Y25104D01*
G01X45729Y25094D01*
G01X45754Y25082D01*
G01X45779Y25069D01*
G01X45802Y25053D01*
G01X45824Y25036D01*
G01X45845Y25017D01*
G01X48258Y22604D01*
G01X48277Y22583D01*
G01X48294Y22561D01*
G01X48310Y22538D01*
G01X48323Y22513D01*
G01X48335Y22488D01*
G01X48345Y22462D01*
G01X48352Y22435D01*
G01X48358Y22407D01*
G01X48361Y22379D01*
G01X48362Y22352D01*
G01X48362Y1269D01*
G01X48361Y1242D01*
G01X48358Y1214D01*
G01X48352Y1186D01*
G01X48345Y1159D01*
G01X48335Y1133D01*
G01X48323Y1108D01*
G01X48310Y1083D01*
G01X48294Y1060D01*
G01X48277Y1038D01*
G01X48258Y1017D01*
G01X47682Y442D01*
G01X47672Y430D01*
G01X47664Y416D01*
G01X47658Y402D01*
G01X47654Y386D01*
G01X47653Y370D01*
G01X47654Y356D01*
G01X47657Y342D01*
G01X47662Y328D01*
G01X47669Y315D01*
G01X47677Y304D01*
G01X47688Y294D01*
G01X47699Y285D01*
G01X47712Y278D01*
G01X47726Y273D01*
G01X47740Y270D01*
G01X47754Y269D01*
G01X49794Y269D01*
G01X49808Y270D01*
G01X49822Y273D01*
G01X49836Y278D01*
G01X49849Y285D01*
G01X49860Y294D01*
G01X49870Y304D01*
G01X49879Y315D01*
G01X49886Y328D01*
G01X49891Y342D01*
G01X49894Y356D01*
G01X49895Y370D01*
G01X49895Y26172D01*
G01X49894Y26186D01*
G01X49891Y26200D01*
G01X49886Y26214D01*
G01X49879Y26227D01*
G01X49870Y26238D01*
G01X49860Y26248D01*
G01X49849Y26257D01*
G01X49836Y26264D01*
G01X49822Y26269D01*
G01X49808Y26272D01*
G01X49794Y26273D01*
G37*

%LPC*%
G36*
G01X28740Y22895D02*
G01X27139Y22895D01*
G01X27116Y22894D01*
G01X27092Y22891D01*
G01X27069Y22885D01*
G01X27047Y22878D01*
G01X27025Y22868D01*
G01X27004Y22857D01*
G01X26985Y22843D01*
G01X26967Y22828D01*
G01X26950Y22811D01*
G01X26935Y22793D01*
G01X26921Y22774D01*
G01X26910Y22753D01*
G01X26900Y22731D01*
G01X26893Y22709D01*
G01X26887Y22686D01*
G01X26884Y22662D01*
G01X26883Y22639D01*
G01X26883Y22397D01*
G01X26882Y22382D01*
G01X26879Y22368D01*
G01X26874Y22354D01*
G01X26867Y22342D01*
G01X26858Y22330D01*
G01X26848Y22320D01*
G01X26836Y22311D01*
G01X26823Y22304D01*
G01X26810Y22299D01*
G01X26796Y22296D01*
G01X26781Y22295D01*
G01X26663Y22295D01*
G01X26648Y22296D01*
G01X26634Y22299D01*
G01X26619Y22305D01*
G01X26606Y22312D01*
G01X26575Y22332D01*
G01X26542Y22350D01*
G01X26508Y22366D01*
G01X26473Y22379D01*
G01X26437Y22390D01*
G01X26400Y22399D01*
G01X26363Y22405D01*
G01X26326Y22409D01*
G01X26289Y22410D01*
G01X26254Y22409D01*
G01X26220Y22406D01*
G01X26186Y22401D01*
G01X26153Y22394D01*
G01X26120Y22384D01*
G01X26088Y22373D01*
G01X26056Y22360D01*
G01X26025Y22345D01*
G01X25995Y22328D01*
G01X25967Y22310D01*
G01X25939Y22289D01*
G01X25913Y22268D01*
G01X25888Y22244D01*
G01X25864Y22219D01*
G01X25843Y22193D01*
G01X25822Y22165D01*
G01X25804Y22137D01*
G01X25787Y22107D01*
G01X25772Y22076D01*
G01X25759Y22044D01*
G01X25748Y22012D01*
G01X25738Y21979D01*
G01X25731Y21946D01*
G01X25726Y21912D01*
G01X25723Y21878D01*
G01X25722Y21844D01*
G01X25723Y21809D01*
G01X25726Y21775D01*
G01X25731Y21741D01*
G01X25738Y21708D01*
G01X25748Y21675D01*
G01X25759Y21643D01*
G01X25772Y21611D01*
G01X25787Y21580D01*
G01X25804Y21550D01*
G01X25822Y21522D01*
G01X25843Y21494D01*
G01X25864Y21468D01*
G01X25888Y21443D01*
G01X25913Y21419D01*
G01X25939Y21398D01*
G01X25967Y21377D01*
G01X25995Y21359D01*
G01X26025Y21342D01*
G01X26056Y21327D01*
G01X26088Y21314D01*
G01X26120Y21303D01*
G01X26153Y21293D01*
G01X26186Y21286D01*
G01X26220Y21281D01*
G01X26254Y21278D01*
G01X26289Y21277D01*
G01X26324Y21278D01*
G01X26360Y21281D01*
G01X26395Y21287D01*
G01X26430Y21295D01*
G01X26464Y21305D01*
G01X26498Y21317D01*
G01X26531Y21331D01*
G01X26563Y21348D01*
G01X26593Y21366D01*
G01X26606Y21373D01*
G01X26619Y21378D01*
G01X26634Y21381D01*
G01X26648Y21382D01*
G01X26781Y21382D01*
G01X26796Y21381D01*
G01X26810Y21378D01*
G01X26823Y21373D01*
G01X26836Y21366D01*
G01X26848Y21357D01*
G01X26858Y21347D01*
G01X26867Y21335D01*
G01X26874Y21322D01*
G01X26879Y21309D01*
G01X26882Y21295D01*
G01X26883Y21280D01*
G01X26883Y21038D01*
G01X26884Y21015D01*
G01X26887Y20991D01*
G01X26893Y20968D01*
G01X26900Y20946D01*
G01X26910Y20924D01*
G01X26921Y20903D01*
G01X26935Y20884D01*
G01X26950Y20865D01*
G01X26967Y20849D01*
G01X26985Y20834D01*
G01X27004Y20820D01*
G01X27025Y20809D01*
G01X27047Y20799D01*
G01X27069Y20792D01*
G01X27092Y20786D01*
G01X27116Y20783D01*
G01X27139Y20782D01*
G01X28740Y20782D01*
G01X28763Y20783D01*
G01X28787Y20786D01*
G01X28810Y20792D01*
G01X28832Y20799D01*
G01X28854Y20809D01*
G01X28875Y20820D01*
G01X28894Y20834D01*
G01X28912Y20849D01*
G01X28929Y20865D01*
G01X28944Y20884D01*
G01X28958Y20903D01*
G01X28969Y20924D01*
G01X28979Y20946D01*
G01X28986Y20968D01*
G01X28992Y20991D01*
G01X28995Y21015D01*
G01X28996Y21038D01*
G01X28996Y22639D01*
G01X28995Y22662D01*
G01X28992Y22686D01*
G01X28986Y22709D01*
G01X28979Y22731D01*
G01X28969Y22753D01*
G01X28958Y22774D01*
G01X28944Y22793D01*
G01X28929Y22811D01*
G01X28912Y22828D01*
G01X28894Y22843D01*
G01X28875Y22857D01*
G01X28854Y22868D01*
G01X28832Y22878D01*
G01X28810Y22885D01*
G01X28787Y22891D01*
G01X28763Y22894D01*
G01X28740Y22895D01*
G37*
G36*
G01X28996Y24174D02*
G01X28403Y24174D01*
G01X28403Y23581D01*
G01X28740Y23581D01*
G01X28763Y23582D01*
G01X28787Y23585D01*
G01X28810Y23591D01*
G01X28832Y23598D01*
G01X28854Y23608D01*
G01X28875Y23619D01*
G01X28894Y23633D01*
G01X28912Y23648D01*
G01X28929Y23665D01*
G01X28944Y23683D01*
G01X28958Y23702D01*
G01X28969Y23723D01*
G01X28979Y23745D01*
G01X28986Y23767D01*
G01X28992Y23790D01*
G01X28995Y23814D01*
G01X28996Y23837D01*
G01X28996Y24174D01*
G37*
G36*
G01X27476Y24174D02*
G01X26883Y24174D01*
G01X26883Y23837D01*
G01X26884Y23814D01*
G01X26887Y23790D01*
G01X26893Y23767D01*
G01X26900Y23745D01*
G01X26910Y23723D01*
G01X26921Y23702D01*
G01X26935Y23683D01*
G01X26950Y23665D01*
G01X26967Y23648D01*
G01X26985Y23633D01*
G01X27004Y23619D01*
G01X27025Y23608D01*
G01X27047Y23598D01*
G01X27069Y23591D01*
G01X27092Y23585D01*
G01X27116Y23582D01*
G01X27139Y23581D01*
G01X27476Y23581D01*
G01X27476Y24174D01*
G37*
G36*
G01X27476Y25694D02*
G01X27139Y25694D01*
G01X27116Y25693D01*
G01X27092Y25690D01*
G01X27069Y25684D01*
G01X27047Y25677D01*
G01X27025Y25667D01*
G01X27004Y25656D01*
G01X26985Y25642D01*
G01X26967Y25627D01*
G01X26950Y25610D01*
G01X26935Y25592D01*
G01X26921Y25573D01*
G01X26910Y25552D01*
G01X26900Y25530D01*
G01X26893Y25508D01*
G01X26887Y25485D01*
G01X26884Y25461D01*
G01X26883Y25438D01*
G01X26883Y25101D01*
G01X27476Y25101D01*
G01X27476Y25694D01*
G37*
G36*
G01X28740Y25694D02*
G01X28403Y25694D01*
G01X28403Y25101D01*
G01X28996Y25101D01*
G01X28996Y25438D01*
G01X28995Y25461D01*
G01X28992Y25485D01*
G01X28986Y25508D01*
G01X28979Y25530D01*
G01X28969Y25552D01*
G01X28958Y25573D01*
G01X28944Y25592D01*
G01X28929Y25610D01*
G01X28912Y25627D01*
G01X28894Y25642D01*
G01X28875Y25656D01*
G01X28854Y25667D01*
G01X28832Y25677D01*
G01X28810Y25684D01*
G01X28787Y25690D01*
G01X28763Y25693D01*
G01X28740Y25694D01*
G37*
G36*
G01X33287Y25498D02*
G01X33142Y25498D01*
G01X33142Y25130D01*
G01X33845Y25130D01*
G01X33830Y25162D01*
G01X33813Y25193D01*
G01X33795Y25223D01*
G01X33774Y25252D01*
G01X33752Y25280D01*
G01X33729Y25307D01*
G01X33704Y25332D01*
G01X33678Y25355D01*
G01X33650Y25377D01*
G01X33621Y25398D01*
G01X33591Y25416D01*
G01X33560Y25433D01*
G01X33528Y25448D01*
G01X33495Y25461D01*
G01X33461Y25472D01*
G01X33427Y25482D01*
G01X33393Y25489D01*
G01X33358Y25494D01*
G01X33322Y25497D01*
G01X33287Y25498D01*
G37*
G36*
G01X31932Y25498D02*
G01X31787Y25498D01*
G01X31752Y25497D01*
G01X31716Y25494D01*
G01X31681Y25489D01*
G01X31647Y25482D01*
G01X31613Y25472D01*
G01X31579Y25461D01*
G01X31546Y25448D01*
G01X31514Y25433D01*
G01X31483Y25416D01*
G01X31453Y25398D01*
G01X31424Y25377D01*
G01X31396Y25355D01*
G01X31370Y25332D01*
G01X31345Y25307D01*
G01X31321Y25280D01*
G01X31299Y25252D01*
G01X31279Y25223D01*
G01X31261Y25193D01*
G01X31244Y25162D01*
G01X31229Y25130D01*
G01X31932Y25130D01*
G01X31932Y25498D01*
G37*

%LPD*%
G36*
G01X14116Y20388D02*
G01X14077Y20388D01*
G01X14061Y20387D01*
G01X14045Y20383D01*
G01X14030Y20377D01*
G01X14017Y20369D01*
G01X14005Y20358D01*
G01X13825Y20179D01*
G01X13815Y20167D01*
G01X13806Y20153D01*
G01X13800Y20138D01*
G01X13796Y20123D01*
G01X13795Y20107D01*
G01X13795Y19539D01*
G01X13796Y19525D01*
G01X13799Y19511D01*
G01X13804Y19497D01*
G01X13811Y19485D01*
G01X13820Y19473D01*
G01X13830Y19463D01*
G01X13842Y19454D01*
G01X13855Y19447D01*
G01X13868Y19442D01*
G01X13882Y19439D01*
G01X13897Y19438D01*
G01X13912Y19439D01*
G01X13928Y19443D01*
G01X13942Y19449D01*
G01X13956Y19457D01*
G01X13989Y19479D01*
G01X14024Y19498D01*
G01X14060Y19514D01*
G01X14060Y18936D01*
G01X14022Y18936D01*
G01X14007Y18935D01*
G01X13993Y18932D01*
G01X13980Y18927D01*
G01X13967Y18920D01*
G01X13955Y18911D01*
G01X13945Y18901D01*
G01X13936Y18889D01*
G01X13929Y18876D01*
G01X13924Y18863D01*
G01X13921Y18849D01*
G01X13920Y18834D01*
G01X13920Y18096D01*
G01X13921Y18082D01*
G01X13924Y18068D01*
G01X13929Y18054D01*
G01X13936Y18041D01*
G01X13945Y18030D01*
G01X13955Y18020D01*
G01X13967Y18011D01*
G01X13980Y18004D01*
G01X13993Y17999D01*
G01X14007Y17996D01*
G01X14022Y17995D01*
G01X14060Y17995D01*
G01X14060Y17417D01*
G01X14027Y17432D01*
G01X13995Y17449D01*
G01X13964Y17468D01*
G01X13934Y17490D01*
G01X13907Y17514D01*
G01X13895Y17524D01*
G01X13882Y17531D01*
G01X13868Y17537D01*
G01X13853Y17540D01*
G01X13837Y17541D01*
G01X13822Y17540D01*
G01X13807Y17537D01*
G01X13793Y17531D01*
G01X13780Y17524D01*
G01X13768Y17514D01*
G01X13743Y17492D01*
G01X13717Y17472D01*
G01X13689Y17454D01*
G01X13661Y17438D01*
G01X13631Y17424D01*
G01X13600Y17412D01*
G01X13569Y17402D01*
G01X13537Y17394D01*
G01X13504Y17388D01*
G01X13472Y17385D01*
G01X13439Y17384D01*
G01X13406Y17385D01*
G01X13373Y17388D01*
G01X13340Y17394D01*
G01X13308Y17402D01*
G01X13276Y17412D01*
G01X13246Y17424D01*
G01X13216Y17438D01*
G01X13187Y17455D01*
G01X13159Y17473D01*
G01X13133Y17493D01*
G01X13108Y17515D01*
G01X13096Y17525D01*
G01X13083Y17532D01*
G01X13069Y17538D01*
G01X13054Y17541D01*
G01X13039Y17543D01*
G01X13023Y17541D01*
G01X13008Y17538D01*
G01X12994Y17532D01*
G01X12981Y17525D01*
G01X12969Y17515D01*
G01X12941Y17491D01*
G01X12912Y17469D01*
G01X12881Y17449D01*
G01X12848Y17432D01*
G01X12815Y17417D01*
G01X12815Y17995D01*
G01X12855Y17995D01*
G01X12870Y17996D01*
G01X12884Y17999D01*
G01X12898Y18004D01*
G01X12910Y18011D01*
G01X12922Y18020D01*
G01X12932Y18030D01*
G01X12941Y18041D01*
G01X12948Y18054D01*
G01X12953Y18068D01*
G01X12956Y18082D01*
G01X12957Y18096D01*
G01X12957Y18834D01*
G01X12956Y18849D01*
G01X12953Y18863D01*
G01X12948Y18876D01*
G01X12941Y18889D01*
G01X12932Y18901D01*
G01X12922Y18911D01*
G01X12910Y18920D01*
G01X12898Y18927D01*
G01X12884Y18932D01*
G01X12870Y18935D01*
G01X12855Y18936D01*
G01X12815Y18936D01*
G01X12815Y19530D01*
G01X12814Y19544D01*
G01X12810Y19558D01*
G01X12805Y19572D01*
G01X12798Y19585D01*
G01X12790Y19596D01*
G01X12779Y19606D01*
G01X12768Y19615D01*
G01X12755Y19622D01*
G01X12742Y19627D01*
G01X12727Y19630D01*
G01X12713Y19631D01*
G01X12700Y19631D01*
G01X12663Y19632D01*
G01X12626Y19636D01*
G01X12590Y19642D01*
G01X12570Y19644D01*
G01X12554Y19643D01*
G01X12539Y19639D01*
G01X12524Y19633D01*
G01X12510Y19624D01*
G01X12498Y19614D01*
G01X12492Y19608D01*
G01X12482Y19596D01*
G01X12474Y19582D01*
G01X12468Y19568D01*
G01X12464Y19552D01*
G01X12463Y19536D01*
G01X12463Y18936D01*
G01X12422Y18936D01*
G01X12407Y18935D01*
G01X12393Y18932D01*
G01X12379Y18927D01*
G01X12367Y18920D01*
G01X12355Y18911D01*
G01X12345Y18901D01*
G01X12336Y18889D01*
G01X12329Y18876D01*
G01X12324Y18863D01*
G01X12321Y18849D01*
G01X12320Y18834D01*
G01X12320Y18096D01*
G01X12321Y18082D01*
G01X12324Y18068D01*
G01X12329Y18054D01*
G01X12336Y18041D01*
G01X12345Y18030D01*
G01X12355Y18020D01*
G01X12367Y18011D01*
G01X12379Y18004D01*
G01X12393Y17999D01*
G01X12407Y17996D01*
G01X12422Y17995D01*
G01X12463Y17995D01*
G01X12463Y17415D01*
G01X12447Y17416D01*
G01X12433Y17415D01*
G01X12419Y17412D01*
G01X12405Y17407D01*
G01X12392Y17400D01*
G01X12381Y17391D01*
G01X12370Y17381D01*
G01X12362Y17369D01*
G01X12355Y17357D01*
G01X12350Y17343D01*
G01X12347Y17329D01*
G01X12346Y17314D01*
G01X12347Y17297D01*
G01X12352Y17280D01*
G01X12359Y17264D01*
G01X12369Y17249D01*
G01X12391Y17222D01*
G01X12411Y17192D01*
G01X12429Y17162D01*
G01X12445Y17130D01*
G01X12459Y17098D01*
G01X12471Y17065D01*
G01X12481Y17031D01*
G01X12489Y16996D01*
G01X12494Y16961D01*
G01X12498Y16926D01*
G01X12499Y16891D01*
G01X12498Y16855D01*
G01X12494Y16820D01*
G01X12489Y16786D01*
G01X12481Y16751D01*
G01X12472Y16718D01*
G01X12460Y16685D01*
G01X12446Y16652D01*
G01X12430Y16621D01*
G01X12412Y16591D01*
G01X12392Y16562D01*
G01X12371Y16534D01*
G01X12348Y16508D01*
G01X12323Y16483D01*
G01X12297Y16459D01*
G01X12269Y16438D01*
G01X12240Y16418D01*
G01X12210Y16400D01*
G01X12179Y16384D01*
G01X12147Y16370D01*
G01X12133Y16363D01*
G01X12121Y16354D01*
G01X12110Y16344D01*
G01X12100Y16332D01*
G01X12093Y16319D01*
G01X12087Y16305D01*
G01X12084Y16290D01*
G01X12083Y16275D01*
G01X12084Y16259D01*
G01X12088Y16244D01*
G01X12094Y16229D01*
G01X12102Y16216D01*
G01X12113Y16203D01*
G01X12952Y15365D01*
G01X12971Y15344D01*
G01X12988Y15322D01*
G01X13004Y15299D01*
G01X13017Y15274D01*
G01X13029Y15249D01*
G01X13039Y15223D01*
G01X13046Y15196D01*
G01X13052Y15168D01*
G01X13055Y15140D01*
G01X13056Y15113D01*
G01X13056Y11662D01*
G01X13057Y11645D01*
G01X13061Y11629D01*
G01X13068Y11614D01*
G01X13077Y11600D01*
G01X13088Y11588D01*
G01X13113Y11563D01*
G01X13137Y11536D01*
G01X13158Y11508D01*
G01X13178Y11479D01*
G01X13196Y11448D01*
G01X13212Y11416D01*
G01X13226Y11384D01*
G01X13238Y11350D01*
G01X13248Y11316D01*
G01X13256Y11281D01*
G01X13262Y11246D01*
G01X13265Y11211D01*
G01X13265Y11175D01*
G01X13265Y11140D01*
G01X13262Y11105D01*
G01X13256Y11070D01*
G01X13248Y11036D01*
G01X13239Y11002D01*
G01X13227Y10968D01*
G01X13213Y10936D01*
G01X13208Y10922D01*
G01X13204Y10908D01*
G01X13203Y10893D01*
G01X13205Y10877D01*
G01X13208Y10862D01*
G01X13214Y10847D01*
G01X13222Y10833D01*
G01X13233Y10821D01*
G01X13245Y10811D01*
G01X13258Y10803D01*
G01X13273Y10796D01*
G01X13273Y10198D01*
G01X13232Y10198D01*
G01X13217Y10197D01*
G01X13203Y10194D01*
G01X13190Y10189D01*
G01X13177Y10182D01*
G01X13165Y10173D01*
G01X13155Y10163D01*
G01X13146Y10152D01*
G01X13139Y10139D01*
G01X13134Y10125D01*
G01X13131Y10111D01*
G01X13130Y10097D01*
G01X13130Y9359D01*
G01X13131Y9344D01*
G01X13134Y9330D01*
G01X13139Y9317D01*
G01X13146Y9304D01*
G01X13155Y9292D01*
G01X13165Y9282D01*
G01X13177Y9273D01*
G01X13190Y9266D01*
G01X13203Y9261D01*
G01X13217Y9258D01*
G01X13232Y9257D01*
G01X13273Y9257D01*
G01X13273Y8679D01*
G01X13239Y8694D01*
G01X13207Y8711D01*
G01X13176Y8731D01*
G01X13146Y8753D01*
G01X13118Y8777D01*
G01X13107Y8787D01*
G01X13093Y8795D01*
G01X13079Y8800D01*
G01X13064Y8804D01*
G01X13049Y8805D01*
G01X13033Y8804D01*
G01X13018Y8800D01*
G01X13004Y8795D01*
G01X12991Y8787D01*
G01X12979Y8777D01*
G01X12954Y8755D01*
G01X12928Y8735D01*
G01X12900Y8717D01*
G01X12872Y8701D01*
G01X12842Y8687D01*
G01X12811Y8674D01*
G01X12779Y8664D01*
G01X12747Y8656D01*
G01X12715Y8651D01*
G01X12682Y8647D01*
G01X12649Y8646D01*
G01X12615Y8647D01*
G01X12582Y8651D01*
G01X12549Y8657D01*
G01X12516Y8665D01*
G01X12484Y8675D01*
G01X12453Y8688D01*
G01X12423Y8702D01*
G01X12394Y8719D01*
G01X12366Y8738D01*
G01X12353Y8746D01*
G01X12338Y8752D01*
G01X12323Y8756D01*
G01X12307Y8757D01*
G01X12292Y8756D01*
G01X12278Y8753D01*
G01X12265Y8748D01*
G01X12252Y8741D01*
G01X12240Y8732D01*
G01X12230Y8722D01*
G01X12221Y8710D01*
G01X12214Y8698D01*
G01X12209Y8684D01*
G01X12206Y8670D01*
G01X12205Y8655D01*
G01X12205Y7178D01*
G01X12206Y7163D01*
G01X12209Y7149D01*
G01X12215Y7135D01*
G01X12222Y7122D01*
G01X12231Y7110D01*
G01X12254Y7083D01*
G01X12274Y7056D01*
G01X12293Y7027D01*
G01X12311Y6997D01*
G01X12326Y6966D01*
G01X12339Y6934D01*
G01X12351Y6901D01*
G01X12360Y6868D01*
G01X12368Y6834D01*
G01X12373Y6800D01*
G01X12376Y6765D01*
G01X12376Y6730D01*
G01X12376Y6696D01*
G01X12373Y6662D01*
G01X12368Y6628D01*
G01X12361Y6595D01*
G01X12351Y6562D01*
G01X12340Y6530D01*
G01X12327Y6498D01*
G01X12312Y6467D01*
G01X12295Y6437D01*
G01X12277Y6409D01*
G01X12256Y6381D01*
G01X12235Y6355D01*
G01X12211Y6330D01*
G01X12186Y6306D01*
G01X12160Y6285D01*
G01X12132Y6264D01*
G01X12104Y6246D01*
G01X12074Y6229D01*
G01X12043Y6214D01*
G01X12011Y6201D01*
G01X11979Y6190D01*
G01X11946Y6180D01*
G01X11913Y6173D01*
G01X11879Y6168D01*
G01X11845Y6165D01*
G01X11811Y6164D01*
G01X11774Y6165D01*
G01X11738Y6169D01*
G01X11701Y6175D01*
G01X11666Y6183D01*
G01X11631Y6193D01*
G01X11596Y6206D01*
G01X11563Y6221D01*
G01X11549Y6226D01*
G01X11534Y6230D01*
G01X11519Y6231D01*
G01X11504Y6230D01*
G01X11490Y6227D01*
G01X11476Y6222D01*
G01X11464Y6215D01*
G01X11452Y6206D01*
G01X11442Y6196D01*
G01X11433Y6184D01*
G01X11426Y6172D01*
G01X11421Y6158D01*
G01X11418Y6144D01*
G01X11417Y6129D01*
G01X11418Y6114D01*
G01X11422Y6099D01*
G01X11427Y6085D01*
G01X11442Y6052D01*
G01X11454Y6019D01*
G01X11464Y5984D01*
G01X11472Y5949D01*
G01X11478Y5913D01*
G01X11482Y5878D01*
G01X11483Y5842D01*
G01X11482Y5804D01*
G01X11478Y5766D01*
G01X11471Y5729D01*
G01X11462Y5692D01*
G01X11459Y5665D01*
G01X11460Y5650D01*
G01X11463Y5636D01*
G01X11468Y5622D01*
G01X11475Y5610D01*
G01X11484Y5598D01*
G01X11494Y5588D01*
G01X11505Y5579D01*
G01X11518Y5572D01*
G01X11532Y5567D01*
G01X11546Y5564D01*
G01X11560Y5563D01*
G01X11959Y5563D01*
G01X11976Y5564D01*
G01X11992Y5568D01*
G01X12007Y5575D01*
G01X12021Y5584D01*
G01X12033Y5595D01*
G01X12058Y5620D01*
G01X12085Y5644D01*
G01X12113Y5665D01*
G01X12142Y5685D01*
G01X12173Y5703D01*
G01X12205Y5719D01*
G01X12237Y5733D01*
G01X12271Y5745D01*
G01X12305Y5755D01*
G01X12340Y5763D01*
G01X12375Y5769D01*
G01X12410Y5772D01*
G01X12445Y5773D01*
G01X12480Y5772D01*
G01X12514Y5769D01*
G01X12548Y5764D01*
G01X12581Y5757D01*
G01X12614Y5747D01*
G01X12646Y5736D01*
G01X12678Y5723D01*
G01X12709Y5708D01*
G01X12739Y5691D01*
G01X12767Y5673D01*
G01X12795Y5652D01*
G01X12821Y5631D01*
G01X12846Y5607D01*
G01X12870Y5582D01*
G01X12891Y5556D01*
G01X12912Y5528D01*
G01X12930Y5500D01*
G01X12947Y5470D01*
G01X12962Y5439D01*
G01X12975Y5407D01*
G01X12986Y5375D01*
G01X12996Y5342D01*
G01X13003Y5309D01*
G01X13008Y5275D01*
G01X13011Y5241D01*
G01X13012Y5207D01*
G01X13011Y5172D01*
G01X13008Y5138D01*
G01X13003Y5104D01*
G01X12996Y5071D01*
G01X12986Y5038D01*
G01X12975Y5006D01*
G01X12962Y4974D01*
G01X12947Y4943D01*
G01X12930Y4913D01*
G01X12912Y4885D01*
G01X12891Y4857D01*
G01X12870Y4831D01*
G01X12846Y4806D01*
G01X12821Y4782D01*
G01X12795Y4761D01*
G01X12767Y4740D01*
G01X12739Y4722D01*
G01X12709Y4705D01*
G01X12678Y4690D01*
G01X12646Y4677D01*
G01X12614Y4666D01*
G01X12581Y4656D01*
G01X12548Y4649D01*
G01X12514Y4644D01*
G01X12480Y4641D01*
G01X12446Y4640D01*
G01X12410Y4641D01*
G01X12375Y4644D01*
G01X12340Y4650D01*
G01X12305Y4658D01*
G01X12271Y4668D01*
G01X12237Y4680D01*
G01X12205Y4694D01*
G01X12173Y4710D01*
G01X12142Y4728D01*
G01X12113Y4748D01*
G01X12085Y4769D01*
G01X12058Y4793D01*
G01X12033Y4818D01*
G01X12021Y4829D01*
G01X12007Y4838D01*
G01X11992Y4845D01*
G01X11976Y4849D01*
G01X11959Y4850D01*
G01X9460Y4850D01*
G01X9444Y4849D01*
G01X9429Y4845D01*
G01X9414Y4839D01*
G01X9401Y4831D01*
G01X9388Y4820D01*
G01X9232Y4663D01*
G01X9221Y4651D01*
G01X9213Y4638D01*
G01X9207Y4623D01*
G01X9203Y4607D01*
G01X9202Y4591D01*
G01X9202Y4572D01*
G01X9201Y4537D01*
G01X9198Y4503D01*
G01X9193Y4469D01*
G01X9186Y4436D01*
G01X9176Y4403D01*
G01X9165Y4370D01*
G01X9152Y4339D01*
G01X9137Y4308D01*
G01X9120Y4278D01*
G01X9101Y4249D01*
G01X9081Y4222D01*
G01X9059Y4195D01*
G01X9036Y4170D01*
G01X9011Y4147D01*
G01X8984Y4125D01*
G01X8957Y4105D01*
G01X8928Y4086D01*
G01X8898Y4069D01*
G01X8867Y4054D01*
G01X8835Y4041D01*
G01X8803Y4030D01*
G01X8770Y4021D01*
G01X8736Y4014D01*
G01X8721Y4010D01*
G01X8707Y4004D01*
G01X8693Y3995D01*
G01X8682Y3985D01*
G01X8671Y3973D01*
G01X8663Y3959D01*
G01X8657Y3945D01*
G01X8654Y3930D01*
G01X8653Y3914D01*
G01X8654Y3896D01*
G01X8659Y3879D01*
G01X8672Y3841D01*
G01X8681Y3802D01*
G01X8688Y3762D01*
G01X8693Y3723D01*
G01X8694Y3683D01*
G01X8693Y3647D01*
G01X8690Y3611D01*
G01X8684Y3576D01*
G01X8676Y3541D01*
G01X8666Y3507D01*
G01X8654Y3473D01*
G01X8640Y3441D01*
G01X8624Y3409D01*
G01X8617Y3393D01*
G01X8612Y3377D01*
G01X8611Y3360D01*
G01X8611Y3009D01*
G01X8612Y2994D01*
G01X8615Y2980D01*
G01X8620Y2966D01*
G01X8627Y2954D01*
G01X8636Y2942D01*
G01X8646Y2932D01*
G01X8658Y2923D01*
G01X8670Y2916D01*
G01X8684Y2911D01*
G01X8698Y2908D01*
G01X8713Y2907D01*
G01X8754Y2907D01*
G01X8778Y2906D01*
G01X8802Y2903D01*
G01X8825Y2897D01*
G01X8847Y2890D01*
G01X8869Y2880D01*
G01X8890Y2869D01*
G01X8909Y2855D01*
G01X8927Y2840D01*
G01X8944Y2823D01*
G01X8959Y2805D01*
G01X8973Y2786D01*
G01X8984Y2765D01*
G01X8994Y2743D01*
G01X9001Y2721D01*
G01X9007Y2698D01*
G01X9010Y2674D01*
G01X9011Y2650D01*
G01X9011Y651D01*
G01X9010Y627D01*
G01X9007Y605D01*
G01X9002Y582D01*
G01X8995Y560D01*
G01X8986Y539D01*
G01X8975Y519D01*
G01X8962Y500D01*
G01X8948Y482D01*
G01X8932Y465D01*
G01X8914Y450D01*
G01X8903Y439D01*
G01X8894Y428D01*
G01X8886Y414D01*
G01X8881Y400D01*
G01X8877Y385D01*
G01X8876Y370D01*
G01X8877Y356D01*
G01X8880Y342D01*
G01X8885Y328D01*
G01X8892Y315D01*
G01X8901Y304D01*
G01X8911Y294D01*
G01X8923Y285D01*
G01X8935Y278D01*
G01X8949Y273D01*
G01X8963Y270D01*
G01X8978Y269D01*
G01X9563Y269D01*
G01X9578Y270D01*
G01X9592Y273D01*
G01X9606Y278D01*
G01X9618Y285D01*
G01X9630Y294D01*
G01X9640Y304D01*
G01X9649Y315D01*
G01X9656Y328D01*
G01X9661Y342D01*
G01X9664Y356D01*
G01X9665Y370D01*
G01X9664Y385D01*
G01X9660Y400D01*
G01X9655Y414D01*
G01X9647Y428D01*
G01X9638Y439D01*
G01X9627Y450D01*
G01X9609Y465D01*
G01X9593Y482D01*
G01X9579Y500D01*
G01X9566Y519D01*
G01X9555Y539D01*
G01X9546Y560D01*
G01X9539Y582D01*
G01X9534Y605D01*
G01X9531Y627D01*
G01X9530Y651D01*
G01X9530Y1087D01*
G01X9973Y1087D01*
G01X9973Y370D01*
G01X9974Y356D01*
G01X9977Y342D01*
G01X9982Y328D01*
G01X9989Y315D01*
G01X9998Y304D01*
G01X10008Y294D01*
G01X10020Y285D01*
G01X10032Y278D01*
G01X10046Y273D01*
G01X10060Y270D01*
G01X10075Y269D01*
G01X10498Y269D01*
G01X10513Y270D01*
G01X10527Y273D01*
G01X10541Y278D01*
G01X10553Y285D01*
G01X10565Y294D01*
G01X10575Y304D01*
G01X10584Y315D01*
G01X10591Y328D01*
G01X10596Y342D01*
G01X10599Y356D01*
G01X10600Y370D01*
G01X10600Y1087D01*
G01X11043Y1087D01*
G01X11043Y651D01*
G01X11042Y627D01*
G01X11039Y605D01*
G01X11034Y582D01*
G01X11027Y560D01*
G01X11018Y539D01*
G01X11007Y519D01*
G01X10994Y500D01*
G01X10980Y482D01*
G01X10964Y465D01*
G01X10946Y450D01*
G01X10935Y439D01*
G01X10926Y428D01*
G01X10918Y414D01*
G01X10913Y400D01*
G01X10909Y385D01*
G01X10908Y370D01*
G01X10909Y356D01*
G01X10912Y342D01*
G01X10917Y328D01*
G01X10924Y315D01*
G01X10933Y304D01*
G01X10943Y294D01*
G01X10955Y285D01*
G01X10967Y278D01*
G01X10981Y273D01*
G01X10995Y270D01*
G01X11010Y269D01*
G01X13459Y269D01*
G01X13473Y270D01*
G01X13487Y273D01*
G01X13501Y278D01*
G01X13514Y285D01*
G01X13525Y294D01*
G01X13536Y304D01*
G01X13544Y315D01*
G01X13551Y328D01*
G01X13556Y342D01*
G01X13559Y356D01*
G01X13560Y370D01*
G01X13559Y386D01*
G01X13555Y402D01*
G01X13549Y416D01*
G01X13541Y430D01*
G01X13531Y442D01*
G01X12024Y1949D01*
G01X12012Y1959D01*
G01X11998Y1967D01*
G01X11984Y1973D01*
G01X11968Y1977D01*
G01X11952Y1978D01*
G01X11938Y1978D01*
G01X11904Y1979D01*
G01X11870Y1982D01*
G01X11836Y1987D01*
G01X11803Y1994D01*
G01X11770Y2004D01*
G01X11738Y2015D01*
G01X11707Y2028D01*
G01X11677Y2042D01*
G01X11647Y2059D01*
G01X11619Y2078D01*
G01X11591Y2098D01*
G01X11565Y2119D01*
G01X11517Y2167D01*
G01X11496Y2193D01*
G01X11476Y2221D01*
G01X11457Y2249D01*
G01X11440Y2279D01*
G01X11426Y2309D01*
G01X11413Y2340D01*
G01X11402Y2372D01*
G01X11392Y2405D01*
G01X11385Y2438D01*
G01X11380Y2472D01*
G01X11377Y2506D01*
G01X11376Y2540D01*
G01X11377Y2573D01*
G01X11380Y2607D01*
G01X11385Y2641D01*
G01X11392Y2674D01*
G01X11402Y2707D01*
G01X11413Y2739D01*
G01X11426Y2770D01*
G01X11440Y2800D01*
G01X11457Y2830D01*
G01X11476Y2858D01*
G01X11496Y2886D01*
G01X11517Y2912D01*
G01X11565Y2960D01*
G01X11591Y2981D01*
G01X11619Y3001D01*
G01X11647Y3020D01*
G01X11677Y3037D01*
G01X11707Y3051D01*
G01X11738Y3064D01*
G01X11770Y3075D01*
G01X11803Y3085D01*
G01X11836Y3092D01*
G01X11870Y3097D01*
G01X11904Y3100D01*
G01X11938Y3101D01*
G01X11971Y3100D01*
G01X12005Y3097D01*
G01X12039Y3092D01*
G01X12072Y3085D01*
G01X12105Y3075D01*
G01X12137Y3064D01*
G01X12168Y3051D01*
G01X12198Y3037D01*
G01X12228Y3020D01*
G01X12256Y3001D01*
G01X12284Y2981D01*
G01X12310Y2960D01*
G01X12358Y2912D01*
G01X12379Y2886D01*
G01X12399Y2858D01*
G01X12418Y2830D01*
G01X12435Y2800D01*
G01X12449Y2770D01*
G01X12462Y2739D01*
G01X12473Y2707D01*
G01X12483Y2674D01*
G01X12490Y2641D01*
G01X12495Y2607D01*
G01X12498Y2573D01*
G01X12499Y2540D01*
G01X12499Y2525D01*
G01X12500Y2509D01*
G01X12504Y2493D01*
G01X12510Y2479D01*
G01X12518Y2465D01*
G01X12528Y2453D01*
G01X14214Y767D01*
G01X14227Y756D01*
G01X14240Y748D01*
G01X14255Y742D01*
G01X14270Y738D01*
G01X14286Y737D01*
G01X17308Y737D01*
G01X17323Y738D01*
G01X17337Y741D01*
G01X17351Y746D01*
G01X17363Y753D01*
G01X17375Y762D01*
G01X17385Y772D01*
G01X17394Y784D01*
G01X17401Y796D01*
G01X17406Y810D01*
G01X17409Y824D01*
G01X17410Y839D01*
G01X17409Y855D01*
G01X17405Y870D01*
G01X17399Y885D01*
G01X17391Y898D01*
G01X17380Y910D01*
G01X17019Y1271D01*
G01X17000Y1292D01*
G01X16983Y1314D01*
G01X16967Y1337D01*
G01X16954Y1362D01*
G01X16942Y1387D01*
G01X16932Y1413D01*
G01X16925Y1440D01*
G01X16919Y1468D01*
G01X16916Y1496D01*
G01X16915Y1523D01*
G01X16915Y4346D01*
G01X16914Y4363D01*
G01X16910Y4379D01*
G01X16903Y4394D01*
G01X16894Y4408D01*
G01X16884Y4420D01*
G01X16859Y4445D01*
G01X16836Y4471D01*
G01X16815Y4499D01*
G01X16796Y4528D01*
G01X16778Y4558D01*
G01X16762Y4589D01*
G01X16749Y4621D01*
G01X16737Y4654D01*
G01X16727Y4687D01*
G01X16720Y4721D01*
G01X16714Y4756D01*
G01X16711Y4791D01*
G01X16710Y4825D01*
G01X16710Y4826D01*
G01X16711Y4861D01*
G01X16715Y4896D01*
G01X16720Y4930D01*
G01X16728Y4965D01*
G01X16737Y4999D01*
G01X16749Y5032D01*
G01X16763Y5064D01*
G01X16779Y5095D01*
G01X16797Y5126D01*
G01X16817Y5155D01*
G01X16838Y5183D01*
G01X16862Y5209D01*
G01X16886Y5234D01*
G01X16913Y5257D01*
G01X16940Y5279D01*
G01X16970Y5299D01*
G01X17000Y5317D01*
G01X17031Y5333D01*
G01X17063Y5347D01*
G01X17079Y5355D01*
G01X17093Y5366D01*
G01X17106Y5378D01*
G01X17122Y5375D01*
G01X17138Y5373D01*
G01X17158Y5375D01*
G01X17196Y5382D01*
G01X17234Y5386D01*
G01X17272Y5387D01*
G01X17305Y5386D01*
G01X17339Y5383D01*
G01X17373Y5378D01*
G01X17406Y5371D01*
G01X17439Y5361D01*
G01X17471Y5350D01*
G01X17502Y5337D01*
G01X17532Y5323D01*
G01X17562Y5306D01*
G01X17590Y5287D01*
G01X17618Y5267D01*
G01X17644Y5246D01*
G01X17692Y5198D01*
G01X17713Y5172D01*
G01X17733Y5144D01*
G01X17752Y5116D01*
G01X17769Y5086D01*
G01X17783Y5056D01*
G01X17796Y5025D01*
G01X17807Y4993D01*
G01X17817Y4960D01*
G01X17824Y4927D01*
G01X17829Y4893D01*
G01X17832Y4859D01*
G01X17833Y4826D01*
G01X17832Y4791D01*
G01X17829Y4756D01*
G01X17823Y4721D01*
G01X17816Y4687D01*
G01X17806Y4654D01*
G01X17794Y4621D01*
G01X17781Y4589D01*
G01X17765Y4558D01*
G01X17747Y4528D01*
G01X17728Y4499D01*
G01X17707Y4471D01*
G01X17684Y4445D01*
G01X17659Y4420D01*
G01X17649Y4408D01*
G01X17640Y4394D01*
G01X17633Y4379D01*
G01X17629Y4363D01*
G01X17628Y4346D01*
G01X17628Y1713D01*
G01X17629Y1697D01*
G01X17633Y1682D01*
G01X17639Y1667D01*
G01X17647Y1654D01*
G01X17658Y1641D01*
G01X18024Y1275D01*
G01X18037Y1264D01*
G01X18050Y1256D01*
G01X18065Y1250D01*
G01X18080Y1246D01*
G01X18096Y1245D01*
G01X18380Y1245D01*
G01X18395Y1246D01*
G01X18409Y1249D01*
G01X18423Y1254D01*
G01X18435Y1261D01*
G01X18447Y1270D01*
G01X18457Y1280D01*
G01X18466Y1292D01*
G01X18473Y1304D01*
G01X18478Y1318D01*
G01X18481Y1332D01*
G01X18482Y1347D01*
G01X18482Y2455D01*
G01X18483Y2479D01*
G01X18487Y2503D01*
G01X18492Y2527D01*
G01X18500Y2550D01*
G01X18511Y2573D01*
G01X18523Y2594D01*
G01X18537Y2614D01*
G01X18553Y2632D01*
G01X18571Y2649D01*
G01X18590Y2664D01*
G01X18611Y2677D01*
G01X18633Y2688D01*
G01X18656Y2697D01*
G01X18670Y2704D01*
G01X18684Y2712D01*
G01X18695Y2722D01*
G01X18706Y2734D01*
G01X18714Y2748D01*
G01X18720Y2762D01*
G01X18723Y2778D01*
G01X18725Y2794D01*
G01X18723Y2809D01*
G01X18720Y2825D01*
G01X18714Y2839D01*
G01X18706Y2853D01*
G01X18695Y2865D01*
G01X18684Y2875D01*
G01X18670Y2883D01*
G01X18656Y2890D01*
G01X18633Y2899D01*
G01X18611Y2910D01*
G01X18591Y2923D01*
G01X18571Y2938D01*
G01X18553Y2955D01*
G01X18537Y2973D01*
G01X18523Y2993D01*
G01X18511Y3015D01*
G01X18501Y3037D01*
G01X18493Y3060D01*
G01X18487Y3084D01*
G01X18483Y3108D01*
G01X18482Y3132D01*
G01X18482Y4232D01*
G01X18483Y4257D01*
G01X18487Y4281D01*
G01X18493Y4305D01*
G01X18501Y4328D01*
G01X18511Y4350D01*
G01X18523Y4372D01*
G01X18537Y4392D01*
G01X18553Y4410D01*
G01X18571Y4427D01*
G01X18591Y4442D01*
G01X18611Y4455D01*
G01X18633Y4466D01*
G01X18656Y4475D01*
G01X18670Y4482D01*
G01X18684Y4490D01*
G01X18696Y4500D01*
G01X18706Y4512D01*
G01X18714Y4526D01*
G01X18720Y4540D01*
G01X18723Y4556D01*
G01X18725Y4571D01*
G01X18723Y4587D01*
G01X18720Y4603D01*
G01X18714Y4617D01*
G01X18706Y4631D01*
G01X18696Y4643D01*
G01X18684Y4653D01*
G01X18670Y4661D01*
G01X18656Y4668D01*
G01X18633Y4677D01*
G01X18611Y4688D01*
G01X18591Y4701D01*
G01X18571Y4716D01*
G01X18553Y4733D01*
G01X18537Y4751D01*
G01X18523Y4771D01*
G01X18511Y4793D01*
G01X18501Y4815D01*
G01X18493Y4838D01*
G01X18487Y4862D01*
G01X18483Y4886D01*
G01X18482Y4910D01*
G01X18482Y5637D01*
G01X18481Y5652D01*
G01X18478Y5666D01*
G01X18473Y5680D01*
G01X18466Y5692D01*
G01X18457Y5704D01*
G01X18447Y5714D01*
G01X18435Y5723D01*
G01X18423Y5730D01*
G01X18409Y5735D01*
G01X18395Y5738D01*
G01X18380Y5739D01*
G01X17377Y5739D01*
G01X17360Y5738D01*
G01X17344Y5734D01*
G01X17329Y5727D01*
G01X17315Y5718D01*
G01X17303Y5707D01*
G01X17278Y5682D01*
G01X17251Y5659D01*
G01X17224Y5637D01*
G01X17194Y5617D01*
G01X17164Y5599D01*
G01X17133Y5583D01*
G01X17100Y5569D01*
G01X17084Y5561D01*
G01X17070Y5551D01*
G01X17058Y5538D01*
G01X17042Y5541D01*
G01X17026Y5543D01*
G01X17005Y5541D01*
G01X16967Y5534D01*
G01X16929Y5530D01*
G01X16891Y5529D01*
G01X16856Y5530D01*
G01X16822Y5533D01*
G01X16789Y5538D01*
G01X16755Y5545D01*
G01X16723Y5554D01*
G01X16690Y5565D01*
G01X16659Y5578D01*
G01X16628Y5593D01*
G01X16599Y5610D01*
G01X16570Y5628D01*
G01X16542Y5649D01*
G01X16516Y5670D01*
G01X16491Y5694D01*
G01X16468Y5718D01*
G01X16446Y5744D01*
G01X16426Y5772D01*
G01X16407Y5800D01*
G01X16390Y5830D01*
G01X16375Y5860D01*
G01X16362Y5892D01*
G01X16351Y5924D01*
G01X16341Y5957D01*
G01X16334Y5990D01*
G01X16329Y6024D01*
G01X16325Y6058D01*
G01X16323Y6073D01*
G01X16319Y6087D01*
G01X16312Y6101D01*
G01X16304Y6114D01*
G01X16293Y6125D01*
G01X16281Y6135D01*
G01X16268Y6142D01*
G01X16254Y6148D01*
G01X16239Y6151D01*
G01X16224Y6153D01*
G01X16208Y6151D01*
G01X16192Y6148D01*
G01X16178Y6141D01*
G01X16164Y6133D01*
G01X16152Y6123D01*
G01X16090Y6060D01*
G01X16079Y6048D01*
G01X16071Y6035D01*
G01X16065Y6020D01*
G01X16061Y6004D01*
G01X16060Y5988D01*
G01X16060Y5969D01*
G01X16059Y5934D01*
G01X16056Y5900D01*
G01X16051Y5866D01*
G01X16044Y5833D01*
G01X16034Y5800D01*
G01X16023Y5768D01*
G01X16010Y5736D01*
G01X15995Y5705D01*
G01X15978Y5675D01*
G01X15960Y5647D01*
G01X15939Y5619D01*
G01X15918Y5593D01*
G01X15894Y5568D01*
G01X15869Y5544D01*
G01X15843Y5523D01*
G01X15815Y5502D01*
G01X15787Y5484D01*
G01X15757Y5467D01*
G01X15726Y5452D01*
G01X15694Y5439D01*
G01X15662Y5428D01*
G01X15629Y5418D01*
G01X15596Y5411D01*
G01X15562Y5406D01*
G01X15528Y5403D01*
G01X15494Y5402D01*
G01X15459Y5403D01*
G01X15425Y5406D01*
G01X15391Y5411D01*
G01X15358Y5418D01*
G01X15325Y5428D01*
G01X15293Y5439D01*
G01X15261Y5452D01*
G01X15230Y5467D01*
G01X15200Y5484D01*
G01X15172Y5502D01*
G01X15144Y5523D01*
G01X15118Y5544D01*
G01X15093Y5568D01*
G01X15069Y5593D01*
G01X15048Y5619D01*
G01X15027Y5647D01*
G01X15009Y5675D01*
G01X14992Y5705D01*
G01X14977Y5736D01*
G01X14964Y5768D01*
G01X14953Y5800D01*
G01X14943Y5833D01*
G01X14936Y5866D01*
G01X14931Y5900D01*
G01X14928Y5934D01*
G01X14927Y5969D01*
G01X14928Y6003D01*
G01X14931Y6037D01*
G01X14936Y6071D01*
G01X14943Y6104D01*
G01X14953Y6137D01*
G01X14964Y6169D01*
G01X14977Y6201D01*
G01X14992Y6232D01*
G01X15009Y6262D01*
G01X15027Y6290D01*
G01X15048Y6318D01*
G01X15069Y6344D01*
G01X15093Y6369D01*
G01X15118Y6393D01*
G01X15144Y6414D01*
G01X15172Y6435D01*
G01X15200Y6453D01*
G01X15230Y6470D01*
G01X15261Y6485D01*
G01X15293Y6498D01*
G01X15325Y6509D01*
G01X15358Y6519D01*
G01X15391Y6526D01*
G01X15425Y6531D01*
G01X15459Y6534D01*
G01X15494Y6535D01*
G01X15513Y6535D01*
G01X15529Y6536D01*
G01X15545Y6540D01*
G01X15560Y6546D01*
G01X15573Y6554D01*
G01X15585Y6565D01*
G01X16618Y7598D01*
G01X16629Y7610D01*
G01X16637Y7623D01*
G01X16643Y7638D01*
G01X16647Y7653D01*
G01X16648Y7669D01*
G01X16647Y7684D01*
G01X16644Y7698D01*
G01X16639Y7712D01*
G01X16632Y7724D01*
G01X16623Y7736D01*
G01X16613Y7746D01*
G01X16601Y7755D01*
G01X16589Y7762D01*
G01X16575Y7767D01*
G01X16561Y7770D01*
G01X16546Y7771D01*
G01X15810Y7771D01*
G01X15794Y7770D01*
G01X15779Y7766D01*
G01X15764Y7760D01*
G01X15751Y7752D01*
G01X15738Y7741D01*
G01X15703Y7706D01*
G01X15693Y7694D01*
G01X15685Y7680D01*
G01X15679Y7666D01*
G01X15675Y7650D01*
G01X15674Y7634D01*
G01X15674Y7620D01*
G01X15673Y7586D01*
G01X15670Y7552D01*
G01X15665Y7518D01*
G01X15658Y7485D01*
G01X15648Y7452D01*
G01X15637Y7420D01*
G01X15624Y7389D01*
G01X15610Y7359D01*
G01X15593Y7329D01*
G01X15574Y7301D01*
G01X15554Y7273D01*
G01X15533Y7247D01*
G01X15485Y7199D01*
G01X15459Y7178D01*
G01X15431Y7158D01*
G01X15403Y7139D01*
G01X15373Y7122D01*
G01X15343Y7108D01*
G01X15312Y7095D01*
G01X15280Y7084D01*
G01X15247Y7074D01*
G01X15214Y7067D01*
G01X15180Y7062D01*
G01X15146Y7059D01*
G01X15113Y7058D01*
G01X15112Y7058D01*
G01X15077Y7059D01*
G01X15042Y7063D01*
G01X15008Y7068D01*
G01X14974Y7076D01*
G01X14940Y7085D01*
G01X14907Y7097D01*
G01X14875Y7111D01*
G01X14843Y7127D01*
G01X14813Y7145D01*
G01X14784Y7164D01*
G01X14756Y7186D01*
G01X14742Y7196D01*
G01X14726Y7203D01*
G01X14709Y7207D01*
G01X14692Y7209D01*
G01X14677Y7208D01*
G01X14663Y7205D01*
G01X14650Y7200D01*
G01X14637Y7193D01*
G01X14625Y7184D01*
G01X14615Y7174D01*
G01X14606Y7162D01*
G01X14599Y7150D01*
G01X14594Y7136D01*
G01X14591Y7122D01*
G01X14590Y7108D01*
G01X14581Y5269D01*
G01X14581Y5268D01*
G01X14582Y5252D01*
G01X14586Y5237D01*
G01X14592Y5222D01*
G01X14600Y5209D01*
G01X14611Y5196D01*
G01X15542Y4265D01*
G01X15555Y4254D01*
G01X15568Y4246D01*
G01X15583Y4240D01*
G01X15598Y4236D01*
G01X15614Y4235D01*
G01X15805Y4235D01*
G01X15828Y4234D01*
G01X15852Y4231D01*
G01X15875Y4225D01*
G01X15897Y4218D01*
G01X15919Y4208D01*
G01X15940Y4197D01*
G01X15959Y4183D01*
G01X15977Y4168D01*
G01X15994Y4151D01*
G01X16009Y4133D01*
G01X16023Y4114D01*
G01X16034Y4093D01*
G01X16044Y4071D01*
G01X16051Y4049D01*
G01X16057Y4026D01*
G01X16060Y4002D01*
G01X16061Y3978D01*
G01X16061Y2878D01*
G01X16060Y2855D01*
G01X16057Y2831D01*
G01X16051Y2808D01*
G01X16044Y2786D01*
G01X16034Y2764D01*
G01X16023Y2743D01*
G01X16009Y2724D01*
G01X15994Y2706D01*
G01X15977Y2689D01*
G01X15959Y2674D01*
G01X15940Y2660D01*
G01X15919Y2649D01*
G01X15897Y2639D01*
G01X15875Y2632D01*
G01X15852Y2626D01*
G01X15828Y2623D01*
G01X15805Y2622D01*
G01X14805Y2622D01*
G01X14779Y2623D01*
G01X14754Y2627D01*
G01X14730Y2633D01*
G01X14706Y2642D01*
G01X14683Y2653D01*
G01X14661Y2666D01*
G01X14648Y2673D01*
G01X14634Y2679D01*
G01X14620Y2682D01*
G01X14605Y2683D01*
G01X14590Y2682D01*
G01X14575Y2679D01*
G01X14561Y2673D01*
G01X14548Y2666D01*
G01X14526Y2653D01*
G01X14503Y2642D01*
G01X14479Y2633D01*
G01X14455Y2627D01*
G01X14430Y2623D01*
G01X14405Y2622D01*
G01X14218Y2622D01*
G01X14218Y3090D01*
G01X14446Y3090D01*
G01X14461Y3091D01*
G01X14475Y3094D01*
G01X14489Y3099D01*
G01X14501Y3106D01*
G01X14513Y3115D01*
G01X14523Y3125D01*
G01X14532Y3137D01*
G01X14539Y3149D01*
G01X14544Y3163D01*
G01X14547Y3177D01*
G01X14548Y3192D01*
G01X14548Y3665D01*
G01X14547Y3680D01*
G01X14544Y3694D01*
G01X14539Y3708D01*
G01X14532Y3720D01*
G01X14523Y3732D01*
G01X14513Y3742D01*
G01X14501Y3751D01*
G01X14489Y3758D01*
G01X14475Y3763D01*
G01X14461Y3766D01*
G01X14446Y3767D01*
G01X14218Y3767D01*
G01X14218Y4235D01*
G01X14318Y4235D01*
G01X14333Y4236D01*
G01X14347Y4239D01*
G01X14361Y4244D01*
G01X14373Y4251D01*
G01X14385Y4260D01*
G01X14395Y4270D01*
G01X14404Y4282D01*
G01X14411Y4294D01*
G01X14416Y4308D01*
G01X14419Y4322D01*
G01X14420Y4337D01*
G01X14419Y4353D01*
G01X14415Y4368D01*
G01X14409Y4383D01*
G01X14401Y4396D01*
G01X14390Y4408D01*
G01X13971Y4827D01*
G01X13952Y4848D01*
G01X13935Y4870D01*
G01X13919Y4893D01*
G01X13906Y4918D01*
G01X13894Y4943D01*
G01X13884Y4969D01*
G01X13877Y4996D01*
G01X13871Y5024D01*
G01X13868Y5052D01*
G01X13867Y5079D01*
G01X13867Y5081D01*
G01X13885Y8649D01*
G01X13885Y8650D01*
G01X13883Y8664D01*
G01X13880Y8678D01*
G01X13875Y8692D01*
G01X13868Y8705D01*
G01X13860Y8716D01*
G01X13849Y8727D01*
G01X13838Y8735D01*
G01X13825Y8742D01*
G01X13812Y8747D01*
G01X13797Y8750D01*
G01X13783Y8751D01*
G01X13767Y8750D01*
G01X13752Y8747D01*
G01X13738Y8741D01*
G01X13725Y8733D01*
G01X13693Y8713D01*
G01X13659Y8695D01*
G01X13625Y8679D01*
G01X13625Y9257D01*
G01X13663Y9257D01*
G01X13678Y9258D01*
G01X13692Y9261D01*
G01X13705Y9266D01*
G01X13718Y9273D01*
G01X13730Y9282D01*
G01X13740Y9292D01*
G01X13749Y9304D01*
G01X13756Y9317D01*
G01X13761Y9330D01*
G01X13764Y9344D01*
G01X13765Y9359D01*
G01X13765Y10097D01*
G01X13764Y10111D01*
G01X13761Y10125D01*
G01X13756Y10139D01*
G01X13749Y10152D01*
G01X13740Y10163D01*
G01X13730Y10173D01*
G01X13718Y10182D01*
G01X13705Y10189D01*
G01X13692Y10194D01*
G01X13678Y10197D01*
G01X13663Y10198D01*
G01X13625Y10198D01*
G01X13625Y10776D01*
G01X13658Y10761D01*
G01X13690Y10744D01*
G01X13721Y10725D01*
G01X13751Y10703D01*
G01X13778Y10679D01*
G01X13790Y10669D01*
G01X13803Y10662D01*
G01X13817Y10656D01*
G01X13832Y10653D01*
G01X13848Y10652D01*
G01X13863Y10653D01*
G01X13878Y10656D01*
G01X13892Y10662D01*
G01X13905Y10669D01*
G01X13917Y10679D01*
G01X13942Y10701D01*
G01X13968Y10721D01*
G01X13996Y10739D01*
G01X14024Y10755D01*
G01X14054Y10769D01*
G01X14085Y10781D01*
G01X14116Y10791D01*
G01X14148Y10799D01*
G01X14181Y10805D01*
G01X14213Y10808D01*
G01X14246Y10809D01*
G01X14279Y10808D01*
G01X14312Y10805D01*
G01X14345Y10799D01*
G01X14377Y10791D01*
G01X14409Y10781D01*
G01X14439Y10769D01*
G01X14469Y10755D01*
G01X14498Y10738D01*
G01X14526Y10720D01*
G01X14552Y10700D01*
G01X14577Y10678D01*
G01X14589Y10668D01*
G01X14602Y10661D01*
G01X14616Y10655D01*
G01X14631Y10652D01*
G01X14646Y10650D01*
G01X14662Y10652D01*
G01X14677Y10655D01*
G01X14691Y10661D01*
G01X14704Y10668D01*
G01X14716Y10678D01*
G01X14741Y10700D01*
G01X14768Y10721D01*
G01X14781Y10731D01*
G01X14791Y10743D01*
G01X14800Y10757D01*
G01X14806Y10772D01*
G01X14810Y10788D01*
G01X14811Y10804D01*
G01X14810Y10820D01*
G01X14806Y10835D01*
G01X14800Y10850D01*
G01X14792Y10863D01*
G01X14781Y10875D01*
G01X14225Y11431D01*
G01X14206Y11452D01*
G01X14189Y11474D01*
G01X14173Y11497D01*
G01X14160Y11522D01*
G01X14148Y11547D01*
G01X14138Y11573D01*
G01X14131Y11600D01*
G01X14125Y11628D01*
G01X14122Y11656D01*
G01X14121Y11683D01*
G01X14121Y14444D01*
G01X14120Y14459D01*
G01X14116Y14474D01*
G01X14111Y14489D01*
G01X14103Y14502D01*
G01X14086Y14528D01*
G01X14071Y14555D01*
G01X14058Y14583D01*
G01X14047Y14611D01*
G01X14038Y14641D01*
G01X14030Y14671D01*
G01X14025Y14701D01*
G01X14022Y14732D01*
G01X14021Y14763D01*
G01X14022Y14793D01*
G01X14025Y14824D01*
G01X14030Y14854D01*
G01X14038Y14884D01*
G01X14047Y14914D01*
G01X14058Y14943D01*
G01X14071Y14971D01*
G01X14086Y14997D01*
G01X14103Y15023D01*
G01X14111Y15037D01*
G01X14116Y15051D01*
G01X14120Y15066D01*
G01X14121Y15081D01*
G01X14121Y15367D01*
G01X14122Y15394D01*
G01X14125Y15422D01*
G01X14131Y15450D01*
G01X14138Y15477D01*
G01X14148Y15503D01*
G01X14160Y15528D01*
G01X14173Y15553D01*
G01X14189Y15576D01*
G01X14206Y15598D01*
G01X14225Y15619D01*
G01X14650Y16043D01*
G01X14660Y16055D01*
G01X14669Y16069D01*
G01X14675Y16084D01*
G01X14679Y16099D01*
G01X14680Y16115D01*
G01X14680Y17393D01*
G01X14679Y17407D01*
G01X14676Y17422D01*
G01X14671Y17435D01*
G01X14664Y17448D01*
G01X14655Y17459D01*
G01X14645Y17470D01*
G01X14633Y17478D01*
G01X14620Y17485D01*
G01X14607Y17490D01*
G01X14593Y17494D01*
G01X14578Y17495D01*
G01X14562Y17493D01*
G01X14547Y17490D01*
G01X14532Y17484D01*
G01X14519Y17475D01*
G01X14485Y17453D01*
G01X14449Y17433D01*
G01X14412Y17417D01*
G01X14412Y17995D01*
G01X14453Y17995D01*
G01X14468Y17996D01*
G01X14482Y17999D01*
G01X14495Y18004D01*
G01X14508Y18011D01*
G01X14520Y18020D01*
G01X14530Y18030D01*
G01X14539Y18041D01*
G01X14546Y18054D01*
G01X14551Y18068D01*
G01X14554Y18082D01*
G01X14555Y18096D01*
G01X14555Y18834D01*
G01X14554Y18849D01*
G01X14551Y18863D01*
G01X14546Y18876D01*
G01X14539Y18889D01*
G01X14530Y18901D01*
G01X14520Y18911D01*
G01X14508Y18920D01*
G01X14495Y18927D01*
G01X14482Y18932D01*
G01X14468Y18935D01*
G01X14453Y18936D01*
G01X14412Y18936D01*
G01X14412Y19514D01*
G01X14449Y19497D01*
G01X14485Y19478D01*
G01X14519Y19455D01*
G01X14532Y19447D01*
G01X14547Y19441D01*
G01X14562Y19437D01*
G01X14578Y19436D01*
G01X14593Y19437D01*
G01X14607Y19440D01*
G01X14620Y19445D01*
G01X14633Y19452D01*
G01X14645Y19461D01*
G01X14655Y19471D01*
G01X14664Y19483D01*
G01X14671Y19495D01*
G01X14676Y19509D01*
G01X14679Y19523D01*
G01X14680Y19538D01*
G01X14680Y19825D01*
G01X14679Y19841D01*
G01X14675Y19856D01*
G01X14669Y19871D01*
G01X14660Y19885D01*
G01X14650Y19897D01*
G01X14188Y20358D01*
G01X14176Y20369D01*
G01X14163Y20377D01*
G01X14148Y20383D01*
G01X14132Y20387D01*
G01X14116Y20388D01*
G37*

%LPC*%
G36*
G01X9973Y2907D02*
G01X9787Y2907D01*
G01X9763Y2906D01*
G01X9739Y2903D01*
G01X9716Y2897D01*
G01X9694Y2890D01*
G01X9672Y2880D01*
G01X9651Y2869D01*
G01X9632Y2855D01*
G01X9614Y2840D01*
G01X9597Y2823D01*
G01X9582Y2805D01*
G01X9568Y2786D01*
G01X9557Y2765D01*
G01X9547Y2743D01*
G01X9540Y2721D01*
G01X9534Y2698D01*
G01X9531Y2674D01*
G01X9530Y2650D01*
G01X9530Y2214D01*
G01X9973Y2214D01*
G01X9973Y2907D01*
G37*
G36*
G01X10786Y2907D02*
G01X10600Y2907D01*
G01X10600Y2214D01*
G01X11043Y2214D01*
G01X11043Y2650D01*
G01X11042Y2674D01*
G01X11039Y2698D01*
G01X11033Y2721D01*
G01X11026Y2743D01*
G01X11016Y2765D01*
G01X11005Y2786D01*
G01X10991Y2805D01*
G01X10976Y2823D01*
G01X10959Y2840D01*
G01X10941Y2855D01*
G01X10922Y2869D01*
G01X10901Y2880D01*
G01X10879Y2890D01*
G01X10857Y2897D01*
G01X10834Y2903D01*
G01X10810Y2906D01*
G01X10786Y2907D01*
G37*
G36*
G01X13591Y3090D02*
G01X13148Y3090D01*
G01X13148Y2878D01*
G01X13149Y2855D01*
G01X13152Y2831D01*
G01X13158Y2808D01*
G01X13165Y2786D01*
G01X13175Y2764D01*
G01X13186Y2743D01*
G01X13200Y2724D01*
G01X13215Y2706D01*
G01X13232Y2689D01*
G01X13250Y2674D01*
G01X13270Y2660D01*
G01X13290Y2649D01*
G01X13312Y2639D01*
G01X13334Y2632D01*
G01X13357Y2626D01*
G01X13381Y2623D01*
G01X13405Y2622D01*
G01X13591Y2622D01*
G01X13591Y3090D01*
G37*
G36*
G01X13591Y4235D02*
G01X13405Y4235D01*
G01X13381Y4234D01*
G01X13357Y4231D01*
G01X13334Y4225D01*
G01X13312Y4218D01*
G01X13290Y4208D01*
G01X13270Y4197D01*
G01X13250Y4183D01*
G01X13232Y4168D01*
G01X13215Y4151D01*
G01X13200Y4133D01*
G01X13186Y4114D01*
G01X13175Y4093D01*
G01X13165Y4071D01*
G01X13158Y4049D01*
G01X13152Y4026D01*
G01X13149Y4002D01*
G01X13148Y3978D01*
G01X13148Y3767D01*
G01X13591Y3767D01*
G01X13591Y4235D01*
G37*

%LPD*%
G36*
G01X1436Y26273D02*
G01X370Y26273D01*
G01X356Y26272D01*
G01X342Y26269D01*
G01X328Y26264D01*
G01X315Y26257D01*
G01X304Y26248D01*
G01X294Y26238D01*
G01X285Y26227D01*
G01X278Y26214D01*
G01X273Y26200D01*
G01X270Y26186D01*
G01X269Y26172D01*
G01X269Y370D01*
G01X270Y356D01*
G01X273Y342D01*
G01X278Y328D01*
G01X285Y315D01*
G01X294Y304D01*
G01X304Y294D01*
G01X315Y285D01*
G01X328Y278D01*
G01X342Y273D01*
G01X356Y270D01*
G01X370Y269D01*
G01X1435Y269D01*
G01X1450Y270D01*
G01X1464Y273D01*
G01X1478Y278D01*
G01X1490Y285D01*
G01X1502Y294D01*
G01X1512Y304D01*
G01X1521Y315D01*
G01X1528Y328D01*
G01X1533Y342D01*
G01X1536Y356D01*
G01X1537Y370D01*
G01X1536Y385D01*
G01X1532Y400D01*
G01X1527Y414D01*
G01X1519Y428D01*
G01X1510Y439D01*
G01X1499Y450D01*
G01X1481Y465D01*
G01X1465Y482D01*
G01X1451Y500D01*
G01X1438Y519D01*
G01X1427Y539D01*
G01X1418Y560D01*
G01X1411Y582D01*
G01X1406Y605D01*
G01X1403Y627D01*
G01X1402Y651D01*
G01X1402Y2650D01*
G01X1403Y2674D01*
G01X1406Y2698D01*
G01X1412Y2721D01*
G01X1419Y2743D01*
G01X1429Y2765D01*
G01X1440Y2786D01*
G01X1454Y2805D01*
G01X1469Y2823D01*
G01X1486Y2840D01*
G01X1504Y2855D01*
G01X1523Y2869D01*
G01X1544Y2880D01*
G01X1566Y2890D01*
G01X1588Y2897D01*
G01X1611Y2903D01*
G01X1635Y2906D01*
G01X1659Y2907D01*
G01X1700Y2907D01*
G01X1715Y2908D01*
G01X1729Y2911D01*
G01X1742Y2916D01*
G01X1755Y2923D01*
G01X1766Y2931D01*
G01X1777Y2941D01*
G01X1785Y2953D01*
G01X1792Y2965D01*
G01X1798Y2979D01*
G01X1801Y2993D01*
G01X1802Y3007D01*
G01X1804Y3036D01*
G01X1808Y3064D01*
G01X1814Y3093D01*
G01X1822Y3120D01*
G01X1833Y3147D01*
G01X1846Y3173D01*
G01X1860Y3197D01*
G01X1877Y3221D01*
G01X1896Y3243D01*
G01X1916Y3263D01*
G01X1938Y3282D01*
G01X2319Y3582D01*
G01X2343Y3599D01*
G01X2369Y3614D01*
G01X2395Y3628D01*
G01X2423Y3638D01*
G01X2451Y3647D01*
G01X2480Y3653D01*
G01X2510Y3657D01*
G01X2540Y3658D01*
G01X3493Y3658D01*
G01X3509Y3659D01*
G01X3524Y3663D01*
G01X3539Y3669D01*
G01X3552Y3677D01*
G01X3565Y3688D01*
G01X4820Y4943D01*
G01X4831Y4956D01*
G01X4839Y4969D01*
G01X4845Y4984D01*
G01X4849Y4999D01*
G01X4850Y5015D01*
G01X4850Y5578D01*
G01X4849Y5593D01*
G01X4846Y5607D01*
G01X4841Y5620D01*
G01X4834Y5633D01*
G01X4825Y5645D01*
G01X4815Y5655D01*
G01X4803Y5664D01*
G01X4791Y5671D01*
G01X4777Y5676D01*
G01X4763Y5679D01*
G01X4748Y5680D01*
G01X4721Y5676D01*
G01X4685Y5667D01*
G01X4647Y5661D01*
G01X4609Y5657D01*
G01X4572Y5656D01*
G01X4536Y5657D01*
G01X4501Y5660D01*
G01X4466Y5666D01*
G01X4431Y5674D01*
G01X4397Y5684D01*
G01X4363Y5696D01*
G01X4331Y5710D01*
G01X4299Y5726D01*
G01X4268Y5744D01*
G01X4239Y5764D01*
G01X4211Y5785D01*
G01X4184Y5809D01*
G01X4159Y5834D01*
G01X4147Y5845D01*
G01X4133Y5854D01*
G01X4118Y5861D01*
G01X4102Y5865D01*
G01X4085Y5866D01*
G01X3936Y5866D01*
G01X3909Y5867D01*
G01X3881Y5870D01*
G01X3853Y5876D01*
G01X3826Y5883D01*
G01X3800Y5893D01*
G01X3775Y5905D01*
G01X3750Y5918D01*
G01X3727Y5934D01*
G01X3705Y5951D01*
G01X3684Y5970D01*
G01X2568Y7087D01*
G01X2555Y7098D01*
G01X2542Y7106D01*
G01X2527Y7112D01*
G01X2512Y7116D01*
G01X2496Y7117D01*
G01X1286Y7117D01*
G01X1262Y7118D01*
G01X1238Y7121D01*
G01X1215Y7127D01*
G01X1193Y7134D01*
G01X1171Y7144D01*
G01X1150Y7155D01*
G01X1131Y7169D01*
G01X1113Y7184D01*
G01X1096Y7201D01*
G01X1081Y7219D01*
G01X1067Y7238D01*
G01X1056Y7259D01*
G01X1046Y7281D01*
G01X1039Y7303D01*
G01X1033Y7326D01*
G01X1030Y7350D01*
G01X1029Y7374D01*
G01X1029Y8373D01*
G01X1030Y8397D01*
G01X1033Y8421D01*
G01X1039Y8444D01*
G01X1046Y8466D01*
G01X1056Y8488D01*
G01X1067Y8509D01*
G01X1081Y8528D01*
G01X1096Y8546D01*
G01X1113Y8563D01*
G01X1131Y8578D01*
G01X1150Y8592D01*
G01X1171Y8603D01*
G01X1193Y8613D01*
G01X1215Y8620D01*
G01X1238Y8626D01*
G01X1262Y8629D01*
G01X1286Y8630D01*
G01X3287Y8630D01*
G01X3302Y8631D01*
G01X3316Y8634D01*
G01X3329Y8639D01*
G01X3342Y8646D01*
G01X3354Y8655D01*
G01X3364Y8665D01*
G01X3373Y8677D01*
G01X3380Y8689D01*
G01X3385Y8703D01*
G01X3388Y8717D01*
G01X3389Y8732D01*
G01X3386Y8756D01*
G01X3377Y8800D01*
G01X3372Y8845D01*
G01X3370Y8889D01*
G01X3370Y8890D01*
G01X3371Y8916D01*
G01X3371Y8920D01*
G01X3370Y8935D01*
G01X3367Y8949D01*
G01X3361Y8963D01*
G01X3355Y8975D01*
G01X3346Y8987D01*
G01X3336Y8997D01*
G01X3324Y9006D01*
G01X3311Y9013D01*
G01X3298Y9018D01*
G01X3284Y9021D01*
G01X3269Y9022D01*
G01X1286Y9022D01*
G01X1262Y9023D01*
G01X1238Y9026D01*
G01X1215Y9032D01*
G01X1193Y9039D01*
G01X1171Y9049D01*
G01X1150Y9060D01*
G01X1131Y9074D01*
G01X1113Y9089D01*
G01X1096Y9106D01*
G01X1081Y9124D01*
G01X1067Y9143D01*
G01X1056Y9164D01*
G01X1046Y9186D01*
G01X1039Y9208D01*
G01X1033Y9231D01*
G01X1030Y9255D01*
G01X1029Y9279D01*
G01X1029Y10278D01*
G01X1030Y10302D01*
G01X1033Y10326D01*
G01X1039Y10349D01*
G01X1046Y10371D01*
G01X1056Y10393D01*
G01X1067Y10414D01*
G01X1081Y10433D01*
G01X1096Y10451D01*
G01X1113Y10468D01*
G01X1131Y10483D01*
G01X1150Y10497D01*
G01X1171Y10508D01*
G01X1193Y10518D01*
G01X1215Y10525D01*
G01X1238Y10531D01*
G01X1262Y10534D01*
G01X1286Y10535D01*
G01X3285Y10535D01*
G01X3309Y10534D01*
G01X3333Y10531D01*
G01X3356Y10525D01*
G01X3379Y10518D01*
G01X3400Y10508D01*
G01X3421Y10496D01*
G01X3441Y10483D01*
G01X3459Y10467D01*
G01X3476Y10451D01*
G01X3491Y10432D01*
G01X3504Y10413D01*
G01X3516Y10392D01*
G01X3525Y10370D01*
G01X3533Y10347D01*
G01X3538Y10333D01*
G01X3544Y10320D01*
G01X3553Y10309D01*
G01X3563Y10298D01*
G01X3575Y10289D01*
G01X3588Y10282D01*
G01X3602Y10277D01*
G01X3616Y10274D01*
G01X3631Y10273D01*
G01X3646Y10274D01*
G01X3662Y10278D01*
G01X3677Y10284D01*
G01X3690Y10292D01*
G01X3702Y10303D01*
G01X3804Y10404D01*
G01X3815Y10417D01*
G01X3823Y10430D01*
G01X3829Y10445D01*
G01X3833Y10460D01*
G01X3834Y10476D01*
G01X3834Y12510D01*
G01X3833Y12526D01*
G01X3829Y12541D01*
G01X3823Y12556D01*
G01X3815Y12569D01*
G01X3804Y12582D01*
G01X3311Y13075D01*
G01X3298Y13086D01*
G01X3285Y13094D01*
G01X3270Y13100D01*
G01X3255Y13104D01*
G01X3239Y13105D01*
G01X1650Y13105D01*
G01X1623Y13106D01*
G01X1595Y13109D01*
G01X1567Y13115D01*
G01X1540Y13122D01*
G01X1514Y13132D01*
G01X1489Y13144D01*
G01X1464Y13157D01*
G01X1441Y13173D01*
G01X1419Y13190D01*
G01X1398Y13209D01*
G01X763Y13844D01*
G01X744Y13865D01*
G01X727Y13887D01*
G01X711Y13910D01*
G01X698Y13935D01*
G01X686Y13960D01*
G01X676Y13986D01*
G01X669Y14013D01*
G01X663Y14041D01*
G01X660Y14069D01*
G01X659Y14096D01*
G01X659Y17653D01*
G01X660Y17680D01*
G01X663Y17708D01*
G01X669Y17736D01*
G01X676Y17763D01*
G01X686Y17789D01*
G01X698Y17814D01*
G01X711Y17839D01*
G01X727Y17862D01*
G01X744Y17884D01*
G01X763Y17905D01*
G01X1144Y18286D01*
G01X1165Y18305D01*
G01X1187Y18322D01*
G01X1210Y18338D01*
G01X1235Y18351D01*
G01X1260Y18363D01*
G01X1286Y18373D01*
G01X1313Y18380D01*
G01X1341Y18386D01*
G01X1369Y18389D01*
G01X1396Y18390D01*
G01X1537Y18390D01*
G01X1551Y18391D01*
G01X1565Y18394D01*
G01X1579Y18399D01*
G01X1592Y18406D01*
G01X1603Y18415D01*
G01X1614Y18425D01*
G01X1622Y18437D01*
G01X1629Y18449D01*
G01X1634Y18463D01*
G01X1637Y18477D01*
G01X1638Y18492D01*
G01X1637Y18508D01*
G01X1633Y18524D01*
G01X1626Y18540D01*
G01X1617Y18554D01*
G01X1606Y18566D01*
G01X1593Y18576D01*
G01X1562Y18598D01*
G01X1533Y18622D01*
G01X1505Y18647D01*
G01X1480Y18675D01*
G01X1469Y18685D01*
G01X1457Y18694D01*
G01X1444Y18700D01*
G01X1430Y18705D01*
G01X1401Y18715D01*
G01X1372Y18727D01*
G01X1345Y18741D01*
G01X1319Y18758D01*
G01X1294Y18776D01*
G01X1271Y18797D01*
G01X763Y19305D01*
G01X744Y19326D01*
G01X727Y19348D01*
G01X711Y19371D01*
G01X698Y19396D01*
G01X686Y19421D01*
G01X676Y19447D01*
G01X669Y19474D01*
G01X663Y19502D01*
G01X660Y19530D01*
G01X659Y19557D01*
G01X659Y21209D01*
G01X660Y21236D01*
G01X663Y21264D01*
G01X669Y21292D01*
G01X676Y21319D01*
G01X686Y21345D01*
G01X698Y21370D01*
G01X711Y21395D01*
G01X727Y21418D01*
G01X744Y21440D01*
G01X763Y21461D01*
G01X1398Y22096D01*
G01X1425Y22119D01*
G01X1453Y22140D01*
G01X1483Y22158D01*
G01X1496Y22167D01*
G01X1508Y22177D01*
G01X1518Y22189D01*
G01X1526Y22203D01*
G01X1532Y22217D01*
G01X1536Y22232D01*
G01X1537Y22248D01*
G01X1537Y22470D01*
G01X1538Y22494D01*
G01X1541Y22518D01*
G01X1547Y22541D01*
G01X1554Y22563D01*
G01X1564Y22585D01*
G01X1575Y22606D01*
G01X1589Y22625D01*
G01X1604Y22643D01*
G01X1621Y22660D01*
G01X1639Y22675D01*
G01X1658Y22689D01*
G01X1679Y22700D01*
G01X1701Y22710D01*
G01X1723Y22717D01*
G01X1746Y22723D01*
G01X1770Y22726D01*
G01X1794Y22727D01*
G01X3793Y22727D01*
G01X3817Y22726D01*
G01X3841Y22723D01*
G01X3864Y22717D01*
G01X3886Y22710D01*
G01X3908Y22700D01*
G01X3929Y22689D01*
G01X3948Y22675D01*
G01X3966Y22660D01*
G01X3983Y22643D01*
G01X3998Y22625D01*
G01X4012Y22606D01*
G01X4023Y22585D01*
G01X4033Y22563D01*
G01X4040Y22541D01*
G01X4046Y22518D01*
G01X4049Y22494D01*
G01X4050Y22470D01*
G01X4050Y21471D01*
G01X4049Y21447D01*
G01X4046Y21423D01*
G01X4040Y21400D01*
G01X4033Y21378D01*
G01X4023Y21356D01*
G01X4012Y21335D01*
G01X3998Y21316D01*
G01X3983Y21298D01*
G01X3966Y21281D01*
G01X3948Y21266D01*
G01X3929Y21252D01*
G01X3908Y21241D01*
G01X3886Y21231D01*
G01X3864Y21224D01*
G01X3841Y21218D01*
G01X3817Y21215D01*
G01X3793Y21214D01*
G01X1794Y21214D01*
G01X1767Y21215D01*
G01X1740Y21220D01*
G01X1714Y21226D01*
G01X1689Y21236D01*
G01X1666Y21248D01*
G01X1650Y21256D01*
G01X1633Y21260D01*
G01X1615Y21262D01*
G01X1599Y21260D01*
G01X1584Y21257D01*
G01X1569Y21251D01*
G01X1555Y21242D01*
G01X1543Y21232D01*
G01X1402Y21091D01*
G01X1391Y21078D01*
G01X1383Y21065D01*
G01X1377Y21050D01*
G01X1373Y21035D01*
G01X1372Y21019D01*
G01X1372Y20727D01*
G01X1373Y20712D01*
G01X1376Y20698D01*
G01X1381Y20684D01*
G01X1388Y20672D01*
G01X1397Y20660D01*
G01X1407Y20650D01*
G01X1419Y20641D01*
G01X1431Y20634D01*
G01X1445Y20629D01*
G01X1459Y20626D01*
G01X1474Y20625D01*
G01X1490Y20626D01*
G01X1505Y20630D01*
G01X1520Y20636D01*
G01X1534Y20645D01*
G01X1546Y20655D01*
G01X1556Y20667D01*
G01X1564Y20681D01*
G01X1576Y20701D01*
G01X1589Y20721D01*
G01X1605Y20739D01*
G01X1621Y20756D01*
G01X1639Y20771D01*
G01X1659Y20784D01*
G01X1680Y20795D01*
G01X1701Y20805D01*
G01X1724Y20812D01*
G01X1747Y20818D01*
G01X1770Y20821D01*
G01X1794Y20822D01*
G01X3793Y20822D01*
G01X3817Y20821D01*
G01X3841Y20818D01*
G01X3864Y20812D01*
G01X3887Y20805D01*
G01X3908Y20795D01*
G01X3929Y20783D01*
G01X3949Y20770D01*
G01X3967Y20754D01*
G01X3984Y20738D01*
G01X3999Y20719D01*
G01X4012Y20700D01*
G01X4024Y20679D01*
G01X4033Y20657D01*
G01X4041Y20634D01*
G01X4046Y20620D01*
G01X4052Y20607D01*
G01X4061Y20596D01*
G01X4071Y20585D01*
G01X4083Y20576D01*
G01X4096Y20569D01*
G01X4110Y20564D01*
G01X4124Y20561D01*
G01X4139Y20560D01*
G01X4154Y20561D01*
G01X4170Y20565D01*
G01X4185Y20571D01*
G01X4198Y20579D01*
G01X4210Y20590D01*
G01X5589Y21969D01*
G01X5610Y21988D01*
G01X5632Y22005D01*
G01X5655Y22021D01*
G01X5680Y22034D01*
G01X5705Y22046D01*
G01X5731Y22056D01*
G01X5758Y22063D01*
G01X5786Y22069D01*
G01X5814Y22072D01*
G01X5841Y22073D01*
G01X8509Y22073D01*
G01X8536Y22072D01*
G01X8564Y22069D01*
G01X8592Y22063D01*
G01X8619Y22056D01*
G01X8645Y22046D01*
G01X8670Y22034D01*
G01X8695Y22021D01*
G01X8718Y22005D01*
G01X8740Y21988D01*
G01X8761Y21969D01*
G01X10539Y20191D01*
G01X10558Y20170D01*
G01X10575Y20148D01*
G01X10591Y20125D01*
G01X10604Y20100D01*
G01X10616Y20075D01*
G01X10626Y20049D01*
G01X10633Y20022D01*
G01X10639Y19994D01*
G01X10642Y19966D01*
G01X10643Y19939D01*
G01X10643Y19569D01*
G01X10644Y19555D01*
G01X10647Y19540D01*
G01X10652Y19527D01*
G01X10659Y19514D01*
G01X10668Y19503D01*
G01X10678Y19492D01*
G01X10690Y19484D01*
G01X10702Y19477D01*
G01X10716Y19472D01*
G01X10730Y19469D01*
G01X10745Y19467D01*
G01X10762Y19469D01*
G01X10780Y19474D01*
G01X10796Y19481D01*
G01X10824Y19496D01*
G01X10853Y19510D01*
G01X10882Y19521D01*
G01X10913Y19530D01*
G01X10944Y19537D01*
G01X10975Y19543D01*
G01X11007Y19546D01*
G01X11038Y19547D01*
G01X11073Y19546D01*
G01X11107Y19542D01*
G01X11140Y19536D01*
G01X11173Y19528D01*
G01X11206Y19517D01*
G01X11238Y19504D01*
G01X11268Y19488D01*
G01X11298Y19471D01*
G01X11326Y19452D01*
G01X11340Y19443D01*
G01X11355Y19437D01*
G01X11370Y19433D01*
G01X11386Y19432D01*
G01X11402Y19433D01*
G01X11418Y19436D01*
G01X11432Y19443D01*
G01X11446Y19451D01*
G01X11458Y19461D01*
G01X11468Y19473D01*
G01X11477Y19487D01*
G01X11483Y19501D01*
G01X11487Y19517D01*
G01X11492Y19544D01*
G01X11500Y19570D01*
G01X11510Y19596D01*
G01X11521Y19621D01*
G01X11535Y19646D01*
G01X11550Y19669D01*
G01X11586Y19711D01*
G01X12120Y20244D01*
G01X12130Y20256D01*
G01X12138Y20269D01*
G01X12144Y20282D01*
G01X12148Y20297D01*
G01X12156Y20332D01*
G01X12165Y20365D01*
G01X12177Y20399D01*
G01X12191Y20431D01*
G01X12207Y20463D01*
G01X12225Y20493D01*
G01X12245Y20522D01*
G01X12267Y20550D01*
G01X12290Y20577D01*
G01X12315Y20601D01*
G01X12341Y20625D01*
G01X12369Y20646D01*
G01X12399Y20666D01*
G01X12429Y20684D01*
G01X12460Y20700D01*
G01X12493Y20714D01*
G01X12526Y20726D01*
G01X12560Y20736D01*
G01X12594Y20744D01*
G01X12629Y20749D01*
G01X12664Y20753D01*
G01X12700Y20754D01*
G01X12736Y20753D01*
G01X12771Y20749D01*
G01X12807Y20743D01*
G01X12842Y20735D01*
G01X12877Y20725D01*
G01X12911Y20713D01*
G01X12944Y20698D01*
G01X12976Y20681D01*
G01X13007Y20662D01*
G01X13036Y20642D01*
G01X13064Y20619D01*
G01X13091Y20595D01*
G01X13103Y20585D01*
G01X13116Y20577D01*
G01X13131Y20571D01*
G01X13146Y20567D01*
G01X13162Y20566D01*
G01X13178Y20567D01*
G01X13193Y20571D01*
G01X13208Y20577D01*
G01X13221Y20585D01*
G01X13234Y20596D01*
G01X13500Y20863D01*
G01X13511Y20875D01*
G01X13519Y20888D01*
G01X13525Y20903D01*
G01X13529Y20919D01*
G01X13530Y20935D01*
G01X13530Y20955D01*
G01X13531Y20993D01*
G01X13535Y21032D01*
G01X13542Y21070D01*
G01X13551Y21108D01*
G01X13563Y21145D01*
G01X13567Y21162D01*
G01X13569Y21180D01*
G01X13568Y21194D01*
G01X13565Y21208D01*
G01X13560Y21222D01*
G01X13553Y21234D01*
G01X13544Y21246D01*
G01X13534Y21256D01*
G01X13522Y21265D01*
G01X13510Y21272D01*
G01X13496Y21277D01*
G01X13482Y21280D01*
G01X13467Y21281D01*
G01X12212Y21281D01*
G01X12187Y21282D01*
G01X12163Y21286D01*
G01X12139Y21292D01*
G01X12116Y21299D01*
G01X12094Y21310D01*
G01X12073Y21322D01*
G01X12053Y21336D01*
G01X12035Y21352D01*
G01X12018Y21369D01*
G01X12003Y21389D01*
G01X11992Y21401D01*
G01X11980Y21411D01*
G01X11967Y21420D01*
G01X11952Y21426D01*
G01X11936Y21430D01*
G01X11920Y21431D01*
G01X11547Y21431D01*
G01X11518Y21432D01*
G01X11488Y21436D01*
G01X11459Y21442D01*
G01X11430Y21451D01*
G01X11402Y21462D01*
G01X11376Y21475D01*
G01X11350Y21491D01*
G01X11326Y21508D01*
G01X11312Y21518D01*
G01X11296Y21524D01*
G01X11280Y21529D01*
G01X11263Y21530D01*
G01X10499Y21530D01*
G01X10475Y21531D01*
G01X10451Y21534D01*
G01X10428Y21540D01*
G01X10406Y21547D01*
G01X10384Y21557D01*
G01X10363Y21568D01*
G01X10344Y21582D01*
G01X10326Y21597D01*
G01X10309Y21614D01*
G01X10294Y21632D01*
G01X10280Y21652D01*
G01X10269Y21672D01*
G01X10259Y21694D01*
G01X10252Y21716D01*
G01X10246Y21739D01*
G01X10243Y21763D01*
G01X10242Y21787D01*
G01X10242Y22787D01*
G01X10243Y22812D01*
G01X10247Y22837D01*
G01X10253Y22861D01*
G01X10262Y22885D01*
G01X10273Y22908D01*
G01X10286Y22930D01*
G01X10293Y22943D01*
G01X10299Y22957D01*
G01X10302Y22972D01*
G01X10303Y22987D01*
G01X10302Y23002D01*
G01X10299Y23016D01*
G01X10293Y23030D01*
G01X10286Y23043D01*
G01X10273Y23065D01*
G01X10262Y23088D01*
G01X10253Y23112D01*
G01X10247Y23136D01*
G01X10243Y23161D01*
G01X10242Y23187D01*
G01X10242Y24187D01*
G01X10243Y24210D01*
G01X10246Y24234D01*
G01X10252Y24257D01*
G01X10259Y24279D01*
G01X10269Y24301D01*
G01X10280Y24322D01*
G01X10294Y24341D01*
G01X10309Y24359D01*
G01X10326Y24376D01*
G01X10344Y24391D01*
G01X10363Y24405D01*
G01X10384Y24416D01*
G01X10406Y24426D01*
G01X10428Y24433D01*
G01X10451Y24439D01*
G01X10475Y24442D01*
G01X10499Y24443D01*
G01X11263Y24443D01*
G01X11280Y24445D01*
G01X11297Y24449D01*
G01X11312Y24456D01*
G01X11326Y24465D01*
G01X11350Y24483D01*
G01X11376Y24498D01*
G01X11403Y24511D01*
G01X11430Y24522D01*
G01X11459Y24531D01*
G01X11488Y24537D01*
G01X11518Y24541D01*
G01X11547Y24542D01*
G01X11920Y24542D01*
G01X11936Y24543D01*
G01X11952Y24547D01*
G01X11967Y24553D01*
G01X11980Y24562D01*
G01X11992Y24572D01*
G01X12003Y24584D01*
G01X12018Y24604D01*
G01X12035Y24621D01*
G01X12053Y24637D01*
G01X12073Y24651D01*
G01X12094Y24663D01*
G01X12116Y24674D01*
G01X12139Y24681D01*
G01X12163Y24687D01*
G01X12187Y24691D01*
G01X12212Y24692D01*
G01X14711Y24692D01*
G01X14736Y24691D01*
G01X14760Y24687D01*
G01X14784Y24681D01*
G01X14807Y24674D01*
G01X14829Y24663D01*
G01X14850Y24651D01*
G01X14870Y24637D01*
G01X14888Y24621D01*
G01X14905Y24604D01*
G01X14920Y24584D01*
G01X14931Y24572D01*
G01X14943Y24562D01*
G01X14956Y24553D01*
G01X14971Y24547D01*
G01X14987Y24543D01*
G01X15003Y24542D01*
G01X15438Y24542D01*
G01X15466Y24541D01*
G01X15493Y24538D01*
G01X15521Y24532D01*
G01X15548Y24524D01*
G01X15574Y24515D01*
G01X15599Y24503D01*
G01X15624Y24489D01*
G01X15647Y24474D01*
G01X15669Y24456D01*
G01X15690Y24437D01*
G01X15746Y24382D01*
G01X16889Y23239D01*
G01X16908Y23218D01*
G01X16925Y23196D01*
G01X16941Y23173D01*
G01X16954Y23148D01*
G01X16966Y23123D01*
G01X16976Y23097D01*
G01X16983Y23070D01*
G01X16989Y23042D01*
G01X16992Y23014D01*
G01X16993Y22987D01*
G01X16993Y20283D01*
G01X16994Y20268D01*
G01X16997Y20254D01*
G01X17002Y20240D01*
G01X17009Y20228D01*
G01X17018Y20216D01*
G01X17028Y20206D01*
G01X17040Y20197D01*
G01X17052Y20190D01*
G01X17066Y20185D01*
G01X17080Y20182D01*
G01X17095Y20181D01*
G01X17111Y20182D01*
G01X17126Y20186D01*
G01X17141Y20192D01*
G01X17154Y20200D01*
G01X17166Y20211D01*
G01X18162Y21207D01*
G01X18183Y21226D01*
G01X18205Y21243D01*
G01X18228Y21259D01*
G01X18253Y21272D01*
G01X18278Y21284D01*
G01X18304Y21294D01*
G01X18331Y21301D01*
G01X18359Y21307D01*
G01X18387Y21310D01*
G01X18414Y21311D01*
G01X18507Y21311D01*
G01X18522Y21312D01*
G01X18536Y21315D01*
G01X18550Y21320D01*
G01X18562Y21327D01*
G01X18574Y21336D01*
G01X18584Y21346D01*
G01X18593Y21358D01*
G01X18600Y21370D01*
G01X18605Y21384D01*
G01X18608Y21398D01*
G01X18609Y21413D01*
G01X18609Y21504D01*
G01X18610Y21529D01*
G01X18614Y21553D01*
G01X18620Y21577D01*
G01X18628Y21600D01*
G01X18638Y21622D01*
G01X18650Y21644D01*
G01X18664Y21664D01*
G01X18680Y21682D01*
G01X18698Y21699D01*
G01X18718Y21714D01*
G01X18738Y21727D01*
G01X18760Y21738D01*
G01X18783Y21747D01*
G01X18797Y21754D01*
G01X18811Y21762D01*
G01X18823Y21772D01*
G01X18833Y21784D01*
G01X18841Y21798D01*
G01X18847Y21812D01*
G01X18850Y21828D01*
G01X18852Y21843D01*
G01X18850Y21859D01*
G01X18847Y21875D01*
G01X18841Y21889D01*
G01X18833Y21903D01*
G01X18823Y21915D01*
G01X18811Y21925D01*
G01X18797Y21933D01*
G01X18783Y21940D01*
G01X18760Y21949D01*
G01X18738Y21960D01*
G01X18718Y21973D01*
G01X18698Y21988D01*
G01X18680Y22005D01*
G01X18664Y22023D01*
G01X18650Y22043D01*
G01X18638Y22065D01*
G01X18628Y22087D01*
G01X18620Y22110D01*
G01X18614Y22134D01*
G01X18610Y22158D01*
G01X18609Y22182D01*
G01X18609Y23282D01*
G01X18610Y23307D01*
G01X18614Y23331D01*
G01X18620Y23355D01*
G01X18628Y23378D01*
G01X18638Y23400D01*
G01X18650Y23422D01*
G01X18664Y23442D01*
G01X18680Y23460D01*
G01X18698Y23477D01*
G01X18718Y23492D01*
G01X18738Y23505D01*
G01X18760Y23516D01*
G01X18783Y23525D01*
G01X18797Y23532D01*
G01X18811Y23540D01*
G01X18823Y23550D01*
G01X18833Y23562D01*
G01X18841Y23576D01*
G01X18847Y23590D01*
G01X18850Y23606D01*
G01X18852Y23621D01*
G01X18850Y23637D01*
G01X18847Y23653D01*
G01X18841Y23667D01*
G01X18833Y23681D01*
G01X18822Y23693D01*
G01X18811Y23703D01*
G01X18797Y23711D01*
G01X18783Y23718D01*
G01X18760Y23727D01*
G01X18738Y23738D01*
G01X18717Y23751D01*
G01X18698Y23766D01*
G01X18680Y23783D01*
G01X18664Y23801D01*
G01X18650Y23821D01*
G01X18638Y23843D01*
G01X18627Y23865D01*
G01X18619Y23888D01*
G01X18614Y23912D01*
G01X18610Y23936D01*
G01X18609Y23961D01*
G01X18609Y25068D01*
G01X18608Y25083D01*
G01X18605Y25097D01*
G01X18600Y25111D01*
G01X18593Y25123D01*
G01X18584Y25135D01*
G01X18574Y25145D01*
G01X18562Y25154D01*
G01X18550Y25161D01*
G01X18536Y25166D01*
G01X18522Y25169D01*
G01X18507Y25170D01*
G01X9908Y25170D01*
G01X9894Y25169D01*
G01X9880Y25166D01*
G01X9866Y25161D01*
G01X9853Y25154D01*
G01X9842Y25145D01*
G01X9831Y25135D01*
G01X9823Y25123D01*
G01X9816Y25111D01*
G01X9811Y25097D01*
G01X9808Y25083D01*
G01X9807Y25068D01*
G01X9808Y25051D01*
G01X9813Y25033D01*
G01X9820Y25017D01*
G01X9853Y24975D01*
G01X9873Y24945D01*
G01X9892Y24914D01*
G01X9909Y24882D01*
G01X9923Y24849D01*
G01X9936Y24815D01*
G01X9946Y24780D01*
G01X9954Y24745D01*
G01X9959Y24709D01*
G01X9963Y24674D01*
G01X9964Y24638D01*
G01X9963Y24603D01*
G01X9960Y24569D01*
G01X9955Y24534D01*
G01X9947Y24501D01*
G01X9938Y24467D01*
G01X9927Y24435D01*
G01X9913Y24403D01*
G01X9908Y24389D01*
G01X9905Y24375D01*
G01X9904Y24361D01*
G01X9904Y22882D01*
G01X9905Y22868D01*
G01X9908Y22854D01*
G01X9913Y22840D01*
G01X9927Y22808D01*
G01X9938Y22776D01*
G01X9947Y22742D01*
G01X9955Y22709D01*
G01X9960Y22674D01*
G01X9963Y22640D01*
G01X9963Y22605D01*
G01X9963Y22571D01*
G01X9960Y22537D01*
G01X9955Y22503D01*
G01X9948Y22470D01*
G01X9938Y22437D01*
G01X9927Y22405D01*
G01X9914Y22373D01*
G01X9899Y22342D01*
G01X9882Y22312D01*
G01X9864Y22284D01*
G01X9843Y22256D01*
G01X9822Y22230D01*
G01X9798Y22205D01*
G01X9773Y22181D01*
G01X9747Y22160D01*
G01X9719Y22139D01*
G01X9691Y22121D01*
G01X9661Y22104D01*
G01X9630Y22089D01*
G01X9598Y22076D01*
G01X9566Y22065D01*
G01X9533Y22055D01*
G01X9500Y22048D01*
G01X9466Y22043D01*
G01X9432Y22040D01*
G01X9398Y22039D01*
G01X9363Y22040D01*
G01X9329Y22043D01*
G01X9295Y22048D01*
G01X9262Y22055D01*
G01X9229Y22065D01*
G01X9197Y22076D01*
G01X9165Y22089D01*
G01X9134Y22104D01*
G01X9104Y22121D01*
G01X9076Y22139D01*
G01X9048Y22160D01*
G01X9022Y22181D01*
G01X8997Y22205D01*
G01X8973Y22230D01*
G01X8952Y22256D01*
G01X8931Y22284D01*
G01X8913Y22312D01*
G01X8896Y22342D01*
G01X8881Y22373D01*
G01X8868Y22405D01*
G01X8857Y22437D01*
G01X8847Y22470D01*
G01X8840Y22503D01*
G01X8835Y22537D01*
G01X8832Y22571D01*
G01X8831Y22606D01*
G01X8832Y22640D01*
G01X8835Y22674D01*
G01X8840Y22709D01*
G01X8848Y22742D01*
G01X8857Y22776D01*
G01X8868Y22808D01*
G01X8882Y22840D01*
G01X8887Y22854D01*
G01X8890Y22868D01*
G01X8891Y22882D01*
G01X8891Y24361D01*
G01X8890Y24375D01*
G01X8887Y24389D01*
G01X8882Y24403D01*
G01X8868Y24435D01*
G01X8857Y24467D01*
G01X8848Y24501D01*
G01X8840Y24534D01*
G01X8835Y24569D01*
G01X8832Y24603D01*
G01X8831Y24638D01*
G01X8832Y24674D01*
G01X8836Y24709D01*
G01X8841Y24745D01*
G01X8849Y24780D01*
G01X8859Y24815D01*
G01X8872Y24849D01*
G01X8886Y24882D01*
G01X8903Y24914D01*
G01X8922Y24945D01*
G01X8942Y24975D01*
G01X8975Y25017D01*
G01X8982Y25033D01*
G01X8987Y25051D01*
G01X8988Y25068D01*
G01X8987Y25083D01*
G01X8984Y25097D01*
G01X8979Y25111D01*
G01X8972Y25123D01*
G01X8964Y25135D01*
G01X8953Y25145D01*
G01X8942Y25154D01*
G01X8929Y25161D01*
G01X8915Y25166D01*
G01X8901Y25169D01*
G01X8887Y25170D01*
G01X6031Y25170D01*
G01X6015Y25169D01*
G01X6000Y25165D01*
G01X5985Y25159D01*
G01X5972Y25151D01*
G01X5959Y25140D01*
G01X4443Y23623D01*
G01X4422Y23604D01*
G01X4400Y23587D01*
G01X4377Y23571D01*
G01X4352Y23558D01*
G01X4327Y23546D01*
G01X4301Y23536D01*
G01X4274Y23529D01*
G01X4246Y23523D01*
G01X4218Y23520D01*
G01X4191Y23519D01*
G01X4152Y23519D01*
G01X4137Y23518D01*
G01X4123Y23515D01*
G01X4109Y23510D01*
G01X4097Y23503D01*
G01X4085Y23494D01*
G01X4075Y23484D01*
G01X4066Y23472D01*
G01X4059Y23460D01*
G01X4054Y23446D01*
G01X4051Y23432D01*
G01X4050Y23417D01*
G01X4050Y23249D01*
G01X4049Y23225D01*
G01X4046Y23201D01*
G01X4040Y23178D01*
G01X4033Y23156D01*
G01X4023Y23134D01*
G01X4012Y23113D01*
G01X3998Y23094D01*
G01X3983Y23076D01*
G01X3966Y23059D01*
G01X3948Y23044D01*
G01X3929Y23030D01*
G01X3908Y23019D01*
G01X3886Y23009D01*
G01X3864Y23002D01*
G01X3841Y22996D01*
G01X3817Y22993D01*
G01X3793Y22992D01*
G01X1794Y22992D01*
G01X1770Y22993D01*
G01X1746Y22996D01*
G01X1723Y23002D01*
G01X1701Y23009D01*
G01X1679Y23019D01*
G01X1658Y23030D01*
G01X1639Y23044D01*
G01X1621Y23059D01*
G01X1604Y23076D01*
G01X1589Y23094D01*
G01X1575Y23113D01*
G01X1564Y23134D01*
G01X1554Y23156D01*
G01X1547Y23178D01*
G01X1541Y23201D01*
G01X1538Y23225D01*
G01X1537Y23249D01*
G01X1537Y24248D01*
G01X1538Y24272D01*
G01X1541Y24296D01*
G01X1547Y24319D01*
G01X1554Y24341D01*
G01X1564Y24363D01*
G01X1575Y24384D01*
G01X1589Y24403D01*
G01X1604Y24421D01*
G01X1621Y24438D01*
G01X1639Y24453D01*
G01X1658Y24467D01*
G01X1679Y24478D01*
G01X1701Y24488D01*
G01X1723Y24495D01*
G01X1746Y24501D01*
G01X1770Y24504D01*
G01X1794Y24505D01*
G01X3793Y24505D01*
G01X3817Y24504D01*
G01X3841Y24501D01*
G01X3865Y24495D01*
G01X3887Y24487D01*
G01X3909Y24477D01*
G01X3930Y24466D01*
G01X3950Y24452D01*
G01X3968Y24437D01*
G01X3985Y24419D01*
G01X4000Y24401D01*
G01X4013Y24381D01*
G01X4022Y24369D01*
G01X4032Y24358D01*
G01X4044Y24349D01*
G01X4057Y24341D01*
G01X4071Y24336D01*
G01X4085Y24333D01*
G01X4100Y24332D01*
G01X4116Y24333D01*
G01X4132Y24337D01*
G01X4146Y24343D01*
G01X4160Y24351D01*
G01X4172Y24361D01*
G01X5315Y25505D01*
G01X5326Y25517D01*
G01X5334Y25530D01*
G01X5340Y25545D01*
G01X5344Y25560D01*
G01X5345Y25576D01*
G01X5344Y25591D01*
G01X5341Y25605D01*
G01X5336Y25619D01*
G01X5329Y25631D01*
G01X5320Y25643D01*
G01X5310Y25653D01*
G01X5298Y25662D01*
G01X5286Y25669D01*
G01X5272Y25674D01*
G01X5258Y25677D01*
G01X5243Y25678D01*
G01X4152Y25678D01*
G01X4137Y25677D01*
G01X4123Y25674D01*
G01X4109Y25669D01*
G01X4097Y25662D01*
G01X4085Y25653D01*
G01X4075Y25643D01*
G01X4066Y25631D01*
G01X4059Y25619D01*
G01X4054Y25605D01*
G01X4051Y25591D01*
G01X4050Y25576D01*
G01X4050Y25154D01*
G01X4049Y25130D01*
G01X4046Y25106D01*
G01X4040Y25083D01*
G01X4033Y25061D01*
G01X4023Y25039D01*
G01X4012Y25018D01*
G01X3998Y24999D01*
G01X3983Y24981D01*
G01X3966Y24964D01*
G01X3948Y24949D01*
G01X3929Y24935D01*
G01X3908Y24924D01*
G01X3886Y24914D01*
G01X3864Y24907D01*
G01X3841Y24901D01*
G01X3817Y24898D01*
G01X3793Y24897D01*
G01X1794Y24897D01*
G01X1770Y24898D01*
G01X1746Y24901D01*
G01X1723Y24907D01*
G01X1701Y24914D01*
G01X1679Y24924D01*
G01X1658Y24935D01*
G01X1639Y24949D01*
G01X1621Y24964D01*
G01X1604Y24981D01*
G01X1589Y24999D01*
G01X1575Y25018D01*
G01X1564Y25039D01*
G01X1554Y25061D01*
G01X1547Y25083D01*
G01X1541Y25106D01*
G01X1538Y25130D01*
G01X1537Y25154D01*
G01X1537Y26172D01*
G01X1536Y26186D01*
G01X1533Y26200D01*
G01X1528Y26214D01*
G01X1521Y26227D01*
G01X1513Y26238D01*
G01X1502Y26248D01*
G01X1491Y26257D01*
G01X1478Y26264D01*
G01X1464Y26269D01*
G01X1450Y26272D01*
G01X1436Y26273D01*
G37*

%LPC*%
G36*
G01X1722Y11370D02*
G01X1029Y11370D01*
G01X1029Y11184D01*
G01X1030Y11160D01*
G01X1033Y11136D01*
G01X1039Y11113D01*
G01X1046Y11091D01*
G01X1056Y11069D01*
G01X1067Y11048D01*
G01X1081Y11029D01*
G01X1096Y11011D01*
G01X1113Y10994D01*
G01X1131Y10979D01*
G01X1150Y10965D01*
G01X1171Y10954D01*
G01X1193Y10944D01*
G01X1215Y10937D01*
G01X1238Y10931D01*
G01X1262Y10928D01*
G01X1286Y10927D01*
G01X1722Y10927D01*
G01X1722Y11370D01*
G37*
G36*
G01X3542Y11370D02*
G01X2849Y11370D01*
G01X2849Y10927D01*
G01X3285Y10927D01*
G01X3309Y10928D01*
G01X3333Y10931D01*
G01X3356Y10937D01*
G01X3378Y10944D01*
G01X3400Y10954D01*
G01X3421Y10965D01*
G01X3440Y10979D01*
G01X3458Y10994D01*
G01X3475Y11011D01*
G01X3490Y11029D01*
G01X3504Y11048D01*
G01X3515Y11069D01*
G01X3525Y11091D01*
G01X3532Y11113D01*
G01X3538Y11136D01*
G01X3541Y11160D01*
G01X3542Y11184D01*
G01X3542Y11370D01*
G37*
G36*
G01X1722Y12440D02*
G01X1286Y12440D01*
G01X1262Y12439D01*
G01X1238Y12436D01*
G01X1215Y12430D01*
G01X1193Y12423D01*
G01X1171Y12413D01*
G01X1150Y12402D01*
G01X1131Y12388D01*
G01X1113Y12373D01*
G01X1096Y12356D01*
G01X1081Y12338D01*
G01X1067Y12319D01*
G01X1056Y12298D01*
G01X1046Y12276D01*
G01X1039Y12254D01*
G01X1033Y12231D01*
G01X1030Y12207D01*
G01X1029Y12183D01*
G01X1029Y11997D01*
G01X1722Y11997D01*
G01X1722Y12440D01*
G37*
G36*
G01X3285Y12440D02*
G01X2849Y12440D01*
G01X2849Y11997D01*
G01X3542Y11997D01*
G01X3542Y12183D01*
G01X3541Y12207D01*
G01X3538Y12231D01*
G01X3532Y12254D01*
G01X3525Y12276D01*
G01X3515Y12298D01*
G01X3504Y12319D01*
G01X3490Y12338D01*
G01X3475Y12356D01*
G01X3458Y12373D01*
G01X3440Y12388D01*
G01X3421Y12402D01*
G01X3400Y12413D01*
G01X3378Y12423D01*
G01X3356Y12430D01*
G01X3333Y12436D01*
G01X3309Y12439D01*
G01X3285Y12440D01*
G37*

%LPD*%
G36*
G01X27214Y8575D02*
G01X27198Y8577D01*
G01X27184Y8576D01*
G01X27169Y8572D01*
G01X27156Y8567D01*
G01X27143Y8560D01*
G01X27132Y8552D01*
G01X27121Y8542D01*
G01X27113Y8530D01*
G01X27106Y8517D01*
G01X27101Y8504D01*
G01X27098Y8489D01*
G01X27096Y8475D01*
G01X27098Y8458D01*
G01X27102Y8442D01*
G01X27109Y8426D01*
G01X27122Y8399D01*
G01X27133Y8372D01*
G01X27142Y8343D01*
G01X27148Y8314D01*
G01X27152Y8284D01*
G01X27153Y8254D01*
G01X27153Y7619D01*
G01X27152Y7592D01*
G01X27149Y7564D01*
G01X27143Y7537D01*
G01X27136Y7510D01*
G01X27126Y7483D01*
G01X27114Y7458D01*
G01X27101Y7434D01*
G01X27093Y7417D01*
G01X27088Y7399D01*
G01X27086Y7381D01*
G01X27087Y7366D01*
G01X27090Y7352D01*
G01X27095Y7339D01*
G01X27102Y7326D01*
G01X27111Y7314D01*
G01X27121Y7304D01*
G01X27133Y7295D01*
G01X27145Y7288D01*
G01X27159Y7283D01*
G01X27173Y7280D01*
G01X27188Y7279D01*
G01X27476Y7279D01*
G01X27476Y6686D01*
G01X26883Y6686D01*
G01X26883Y6956D01*
G01X26882Y6971D01*
G01X26879Y6985D01*
G01X26874Y6999D01*
G01X26867Y7011D01*
G01X26858Y7023D01*
G01X26848Y7033D01*
G01X26836Y7042D01*
G01X26823Y7049D01*
G01X26810Y7054D01*
G01X26796Y7057D01*
G01X26781Y7058D01*
G01X26765Y7057D01*
G01X26750Y7053D01*
G01X26735Y7047D01*
G01X26722Y7039D01*
G01X26709Y7028D01*
G01X26541Y6859D01*
G01X26520Y6840D01*
G01X26498Y6823D01*
G01X26475Y6807D01*
G01X26450Y6794D01*
G01X26425Y6782D01*
G01X26399Y6772D01*
G01X26372Y6765D01*
G01X26344Y6759D01*
G01X26316Y6756D01*
G01X26289Y6755D01*
G01X25462Y6755D01*
G01X25446Y6754D01*
G01X25431Y6750D01*
G01X25416Y6744D01*
G01X25403Y6736D01*
G01X25390Y6725D01*
G01X24255Y5589D01*
G01X24234Y5570D01*
G01X24212Y5553D01*
G01X24189Y5537D01*
G01X24164Y5524D01*
G01X24139Y5512D01*
G01X24113Y5502D01*
G01X24086Y5495D01*
G01X24058Y5489D01*
G01X24030Y5486D01*
G01X24003Y5485D01*
G01X22323Y5485D01*
G01X22306Y5484D01*
G01X22290Y5480D01*
G01X22275Y5473D01*
G01X22261Y5464D01*
G01X22249Y5454D01*
G01X22224Y5429D01*
G01X22198Y5406D01*
G01X22170Y5385D01*
G01X22141Y5366D01*
G01X22111Y5348D01*
G01X22080Y5332D01*
G01X22048Y5319D01*
G01X22015Y5307D01*
G01X21982Y5297D01*
G01X21948Y5290D01*
G01X21913Y5284D01*
G01X21878Y5281D01*
G01X21844Y5280D01*
G01X21809Y5281D01*
G01X21775Y5284D01*
G01X21741Y5290D01*
G01X21708Y5297D01*
G01X21675Y5306D01*
G01X21642Y5318D01*
G01X21610Y5331D01*
G01X21580Y5346D01*
G01X21550Y5363D01*
G01X21521Y5382D01*
G01X21493Y5403D01*
G01X21467Y5425D01*
G01X21442Y5449D01*
G01X21419Y5475D01*
G01X21397Y5502D01*
G01X21377Y5530D01*
G01X21358Y5559D01*
G01X21342Y5589D01*
G01X21327Y5621D01*
G01X21315Y5653D01*
G01X21304Y5686D01*
G01X21296Y5719D01*
G01X21291Y5734D01*
G01X21285Y5748D01*
G01X21276Y5760D01*
G01X21266Y5772D01*
G01X21254Y5781D01*
G01X21241Y5789D01*
G01X21226Y5794D01*
G01X21212Y5798D01*
G01X21196Y5799D01*
G01X20952Y5799D01*
G01X20952Y6272D01*
G01X20951Y6287D01*
G01X20948Y6301D01*
G01X20943Y6315D01*
G01X20936Y6327D01*
G01X20927Y6339D01*
G01X20917Y6349D01*
G01X20905Y6358D01*
G01X20893Y6365D01*
G01X20879Y6370D01*
G01X20865Y6373D01*
G01X20850Y6374D01*
G01X20427Y6374D01*
G01X20412Y6373D01*
G01X20398Y6370D01*
G01X20384Y6365D01*
G01X20372Y6358D01*
G01X20360Y6349D01*
G01X20350Y6339D01*
G01X20341Y6327D01*
G01X20334Y6315D01*
G01X20329Y6301D01*
G01X20326Y6287D01*
G01X20325Y6272D01*
G01X20325Y5799D01*
G01X20097Y5799D01*
G01X20082Y5798D01*
G01X20068Y5795D01*
G01X20055Y5790D01*
G01X20042Y5783D01*
G01X20030Y5774D01*
G01X20020Y5764D01*
G01X20011Y5752D01*
G01X20004Y5740D01*
G01X19999Y5726D01*
G01X19996Y5712D01*
G01X19995Y5697D01*
G01X19995Y5224D01*
G01X19996Y5209D01*
G01X19999Y5195D01*
G01X20004Y5181D01*
G01X20011Y5169D01*
G01X20020Y5157D01*
G01X20030Y5147D01*
G01X20042Y5138D01*
G01X20055Y5131D01*
G01X20068Y5126D01*
G01X20082Y5123D01*
G01X20097Y5122D01*
G01X20325Y5122D01*
G01X20325Y4591D01*
G01X20326Y4576D01*
G01X20329Y4562D01*
G01X20334Y4548D01*
G01X20341Y4536D01*
G01X20350Y4524D01*
G01X20360Y4514D01*
G01X20372Y4505D01*
G01X20384Y4498D01*
G01X20398Y4493D01*
G01X20412Y4490D01*
G01X20427Y4489D01*
G01X20850Y4489D01*
G01X20865Y4490D01*
G01X20879Y4493D01*
G01X20893Y4498D01*
G01X20905Y4505D01*
G01X20917Y4514D01*
G01X20927Y4524D01*
G01X20936Y4536D01*
G01X20943Y4548D01*
G01X20948Y4562D01*
G01X20951Y4576D01*
G01X20952Y4591D01*
G01X20952Y5122D01*
G01X21395Y5122D01*
G01X21395Y4910D01*
G01X21394Y4886D01*
G01X21390Y4862D01*
G01X21385Y4838D01*
G01X21377Y4815D01*
G01X21366Y4793D01*
G01X21354Y4771D01*
G01X21340Y4751D01*
G01X21324Y4733D01*
G01X21306Y4716D01*
G01X21287Y4701D01*
G01X21266Y4688D01*
G01X21244Y4677D01*
G01X21221Y4668D01*
G01X21207Y4661D01*
G01X21194Y4653D01*
G01X21182Y4643D01*
G01X21171Y4631D01*
G01X21163Y4617D01*
G01X21157Y4603D01*
G01X21154Y4587D01*
G01X21153Y4571D01*
G01X21154Y4556D01*
G01X21157Y4540D01*
G01X21163Y4526D01*
G01X21171Y4512D01*
G01X21182Y4500D01*
G01X21194Y4490D01*
G01X21207Y4482D01*
G01X21221Y4475D01*
G01X21244Y4466D01*
G01X21266Y4455D01*
G01X21287Y4442D01*
G01X21306Y4427D01*
G01X21324Y4410D01*
G01X21340Y4392D01*
G01X21354Y4372D01*
G01X21366Y4350D01*
G01X21377Y4328D01*
G01X21385Y4305D01*
G01X21390Y4281D01*
G01X21394Y4257D01*
G01X21395Y4232D01*
G01X21395Y3760D01*
G01X21396Y3745D01*
G01X21399Y3731D01*
G01X21404Y3717D01*
G01X21411Y3705D01*
G01X21420Y3693D01*
G01X21430Y3683D01*
G01X21442Y3674D01*
G01X21455Y3667D01*
G01X21468Y3662D01*
G01X21482Y3659D01*
G01X21497Y3658D01*
G01X22602Y3658D01*
G01X22616Y3659D01*
G01X22630Y3662D01*
G01X22644Y3667D01*
G01X22657Y3674D01*
G01X22668Y3683D01*
G01X22678Y3693D01*
G01X22687Y3705D01*
G01X22694Y3717D01*
G01X22699Y3731D01*
G01X22702Y3745D01*
G01X22703Y3760D01*
G01X22700Y3787D01*
G01X22691Y3824D01*
G01X22684Y3861D01*
G01X22680Y3899D01*
G01X22679Y3937D01*
G01X22680Y3970D01*
G01X22683Y4004D01*
G01X22688Y4038D01*
G01X22695Y4071D01*
G01X22705Y4104D01*
G01X22716Y4136D01*
G01X22729Y4167D01*
G01X22743Y4197D01*
G01X22760Y4227D01*
G01X22779Y4255D01*
G01X22799Y4283D01*
G01X22820Y4309D01*
G01X22868Y4357D01*
G01X22894Y4378D01*
G01X22922Y4398D01*
G01X22950Y4417D01*
G01X22980Y4434D01*
G01X23010Y4448D01*
G01X23041Y4461D01*
G01X23073Y4472D01*
G01X23106Y4482D01*
G01X23139Y4489D01*
G01X23173Y4494D01*
G01X23207Y4497D01*
G01X23241Y4498D01*
G01X23255Y4498D01*
G01X23271Y4499D01*
G01X23287Y4503D01*
G01X23301Y4509D01*
G01X23315Y4517D01*
G01X23327Y4527D01*
G01X23369Y4570D01*
G01X23390Y4589D01*
G01X23412Y4606D01*
G01X23435Y4622D01*
G01X23460Y4635D01*
G01X23485Y4647D01*
G01X23511Y4657D01*
G01X23538Y4664D01*
G01X23566Y4670D01*
G01X23594Y4673D01*
G01X23621Y4674D01*
G01X25083Y4674D01*
G01X25099Y4675D01*
G01X25114Y4679D01*
G01X25129Y4685D01*
G01X25142Y4693D01*
G01X25155Y4704D01*
G01X25782Y5332D01*
G01X25803Y5351D01*
G01X25825Y5368D01*
G01X25848Y5384D01*
G01X25873Y5397D01*
G01X25898Y5409D01*
G01X25924Y5419D01*
G01X25951Y5426D01*
G01X25979Y5432D01*
G01X26007Y5435D01*
G01X26035Y5436D01*
G01X26781Y5436D01*
G01X26796Y5437D01*
G01X26810Y5440D01*
G01X26823Y5445D01*
G01X26836Y5452D01*
G01X26848Y5461D01*
G01X26858Y5471D01*
G01X26867Y5483D01*
G01X26874Y5495D01*
G01X26879Y5509D01*
G01X26882Y5523D01*
G01X26883Y5538D01*
G01X26883Y5759D01*
G01X27476Y5759D01*
G01X27476Y5538D01*
G01X27477Y5523D01*
G01X27480Y5509D01*
G01X27485Y5495D01*
G01X27492Y5483D01*
G01X27501Y5471D01*
G01X27511Y5461D01*
G01X27523Y5452D01*
G01X27535Y5445D01*
G01X27549Y5440D01*
G01X27563Y5437D01*
G01X27578Y5436D01*
G01X28301Y5436D01*
G01X28316Y5437D01*
G01X28330Y5440D01*
G01X28344Y5445D01*
G01X28356Y5452D01*
G01X28368Y5461D01*
G01X28378Y5471D01*
G01X28387Y5483D01*
G01X28394Y5495D01*
G01X28399Y5509D01*
G01X28402Y5523D01*
G01X28403Y5538D01*
G01X28403Y5759D01*
G01X28996Y5759D01*
G01X28996Y5538D01*
G01X28997Y5523D01*
G01X29000Y5509D01*
G01X29005Y5495D01*
G01X29012Y5483D01*
G01X29021Y5471D01*
G01X29031Y5461D01*
G01X29043Y5452D01*
G01X29056Y5445D01*
G01X29069Y5440D01*
G01X29083Y5437D01*
G01X29098Y5436D01*
G01X29147Y5436D01*
G01X29163Y5437D01*
G01X29178Y5441D01*
G01X29193Y5447D01*
G01X29206Y5455D01*
G01X29219Y5466D01*
G01X29973Y6221D01*
G01X29994Y6240D01*
G01X30016Y6257D01*
G01X30039Y6273D01*
G01X30064Y6286D01*
G01X30089Y6298D01*
G01X30115Y6308D01*
G01X30142Y6315D01*
G01X30170Y6321D01*
G01X30198Y6324D01*
G01X30226Y6325D01*
G01X31247Y6325D01*
G01X31262Y6326D01*
G01X31276Y6329D01*
G01X31290Y6334D01*
G01X31314Y6350D01*
G01X31324Y6361D01*
G01X31348Y6387D01*
G01X31373Y6412D01*
G01X31400Y6435D01*
G01X31428Y6457D01*
G01X31457Y6477D01*
G01X31487Y6496D01*
G01X31518Y6512D01*
G01X31532Y6521D01*
G01X31545Y6531D01*
G01X31555Y6543D01*
G01X31564Y6557D01*
G01X31570Y6572D01*
G01X31574Y6587D01*
G01X31575Y6603D01*
G01X31575Y6604D01*
G01X31574Y6620D01*
G01X31570Y6635D01*
G01X31564Y6650D01*
G01X31555Y6664D01*
G01X31545Y6676D01*
G01X31532Y6686D01*
G01X31518Y6695D01*
G01X31487Y6711D01*
G01X31456Y6730D01*
G01X31427Y6750D01*
G01X31399Y6772D01*
G01X31372Y6796D01*
G01X31347Y6821D01*
G01X31323Y6848D01*
G01X31300Y6876D01*
G01X31280Y6906D01*
G01X31261Y6936D01*
G01X31244Y6968D01*
G01X31229Y7000D01*
G01X31932Y7000D01*
G01X31932Y6677D01*
G01X31933Y6662D01*
G01X31936Y6648D01*
G01X31941Y6634D01*
G01X31948Y6622D01*
G01X31957Y6610D01*
G01X31967Y6600D01*
G01X31979Y6591D01*
G01X31991Y6584D01*
G01X32005Y6579D01*
G01X32019Y6576D01*
G01X32034Y6575D01*
G01X33040Y6575D01*
G01X33055Y6576D01*
G01X33069Y6579D01*
G01X33082Y6584D01*
G01X33095Y6591D01*
G01X33107Y6600D01*
G01X33117Y6610D01*
G01X33126Y6622D01*
G01X33133Y6634D01*
G01X33138Y6648D01*
G01X33141Y6662D01*
G01X33142Y6677D01*
G01X33142Y7000D01*
G01X33831Y7000D01*
G01X33846Y7001D01*
G01X33860Y7004D01*
G01X33874Y7009D01*
G01X33886Y7016D01*
G01X33898Y7025D01*
G01X33908Y7035D01*
G01X33917Y7047D01*
G01X33924Y7059D01*
G01X33929Y7073D01*
G01X33932Y7087D01*
G01X33933Y7102D01*
G01X33933Y7303D01*
G01X33932Y7319D01*
G01X33928Y7334D01*
G01X33922Y7349D01*
G01X33914Y7362D01*
G01X33903Y7375D01*
G01X33831Y7447D01*
G01X33818Y7458D01*
G01X33805Y7466D01*
G01X33790Y7472D01*
G01X33775Y7476D01*
G01X33759Y7477D01*
G01X33142Y7477D01*
G01X33142Y7845D01*
G01X33187Y7845D01*
G01X33202Y7846D01*
G01X33216Y7849D01*
G01X33230Y7854D01*
G01X33242Y7861D01*
G01X33254Y7870D01*
G01X33264Y7880D01*
G01X33273Y7892D01*
G01X33280Y7904D01*
G01X33285Y7918D01*
G01X33288Y7932D01*
G01X33289Y7947D01*
G01X33288Y7963D01*
G01X33284Y7978D01*
G01X33278Y7993D01*
G01X33270Y8006D01*
G01X33259Y8018D01*
G01X33156Y8122D01*
G01X33143Y8133D01*
G01X33130Y8141D01*
G01X33115Y8147D01*
G01X33100Y8151D01*
G01X33084Y8152D01*
G01X27813Y8152D01*
G01X27785Y8153D01*
G01X27757Y8156D01*
G01X27729Y8162D01*
G01X27702Y8169D01*
G01X27676Y8179D01*
G01X27651Y8191D01*
G01X27626Y8204D01*
G01X27603Y8220D01*
G01X27581Y8237D01*
G01X27560Y8256D01*
G01X27270Y8547D01*
G01X27258Y8557D01*
G01X27244Y8566D01*
G01X27229Y8572D01*
G01X27214Y8575D01*
G37*

%LPC*%
G36*
G01X28740Y7279D02*
G01X28403Y7279D01*
G01X28403Y6686D01*
G01X28996Y6686D01*
G01X28996Y7023D01*
G01X28995Y7046D01*
G01X28992Y7070D01*
G01X28986Y7093D01*
G01X28979Y7115D01*
G01X28969Y7137D01*
G01X28958Y7158D01*
G01X28944Y7177D01*
G01X28929Y7195D01*
G01X28912Y7212D01*
G01X28894Y7227D01*
G01X28875Y7241D01*
G01X28854Y7252D01*
G01X28832Y7262D01*
G01X28810Y7269D01*
G01X28787Y7275D01*
G01X28763Y7278D01*
G01X28740Y7279D01*
G37*
G36*
G01X31932Y7845D02*
G01X31787Y7845D01*
G01X31752Y7844D01*
G01X31716Y7841D01*
G01X31681Y7836D01*
G01X31647Y7829D01*
G01X31613Y7819D01*
G01X31579Y7808D01*
G01X31546Y7795D01*
G01X31514Y7780D01*
G01X31483Y7763D01*
G01X31453Y7745D01*
G01X31424Y7724D01*
G01X31396Y7702D01*
G01X31370Y7679D01*
G01X31345Y7654D01*
G01X31321Y7627D01*
G01X31299Y7599D01*
G01X31279Y7570D01*
G01X31261Y7540D01*
G01X31244Y7509D01*
G01X31229Y7477D01*
G01X31932Y7477D01*
G01X31932Y7845D01*
G37*

%LPD*%
G36*
G01X22162Y24154D02*
G01X21624Y24154D01*
G01X21609Y24153D01*
G01X21595Y24150D01*
G01X21581Y24145D01*
G01X21569Y24138D01*
G01X21557Y24129D01*
G01X21547Y24119D01*
G01X21538Y24107D01*
G01X21531Y24095D01*
G01X21526Y24081D01*
G01X21523Y24067D01*
G01X21522Y24052D01*
G01X21522Y23961D01*
G01X21521Y23936D01*
G01X21517Y23912D01*
G01X21511Y23888D01*
G01X21503Y23865D01*
G01X21493Y23843D01*
G01X21481Y23821D01*
G01X21467Y23801D01*
G01X21451Y23783D01*
G01X21433Y23766D01*
G01X21413Y23751D01*
G01X21393Y23738D01*
G01X21371Y23727D01*
G01X21348Y23718D01*
G01X21334Y23711D01*
G01X21320Y23703D01*
G01X21308Y23693D01*
G01X21298Y23681D01*
G01X21290Y23667D01*
G01X21284Y23653D01*
G01X21281Y23637D01*
G01X21279Y23622D01*
G01X21281Y23606D01*
G01X21284Y23590D01*
G01X21290Y23576D01*
G01X21298Y23562D01*
G01X21309Y23550D01*
G01X21320Y23540D01*
G01X21334Y23532D01*
G01X21348Y23525D01*
G01X21370Y23517D01*
G01X21391Y23506D01*
G01X21411Y23494D01*
G01X21430Y23479D01*
G01X21448Y23463D01*
G01X21464Y23446D01*
G01X21478Y23427D01*
G01X21490Y23407D01*
G01X21501Y23385D01*
G01X21509Y23363D01*
G01X21515Y23349D01*
G01X21523Y23336D01*
G01X21533Y23324D01*
G01X21545Y23314D01*
G01X21558Y23305D01*
G01X21573Y23299D01*
G01X21588Y23295D01*
G01X21603Y23294D01*
G01X21638Y23292D01*
G01X21672Y23288D01*
G01X21706Y23282D01*
G01X21740Y23273D01*
G01X21773Y23263D01*
G01X21806Y23251D01*
G01X21837Y23236D01*
G01X21868Y23220D01*
G01X21898Y23202D01*
G01X21926Y23182D01*
G01X21953Y23160D01*
G01X21979Y23137D01*
G01X22003Y23112D01*
G01X22026Y23086D01*
G01X22047Y23058D01*
G01X22066Y23029D01*
G01X22083Y22999D01*
G01X22099Y22968D01*
G01X22113Y22936D01*
G01X22124Y22903D01*
G01X22134Y22870D01*
G01X22141Y22836D01*
G01X22147Y22802D01*
G01X22150Y22767D01*
G01X22150Y22732D01*
G01X22150Y22698D01*
G01X22147Y22663D01*
G01X22141Y22629D01*
G01X22134Y22595D01*
G01X22124Y22562D01*
G01X22113Y22529D01*
G01X22099Y22497D01*
G01X22083Y22466D01*
G01X22066Y22436D01*
G01X22047Y22407D01*
G01X22026Y22379D01*
G01X22003Y22353D01*
G01X21979Y22328D01*
G01X21953Y22305D01*
G01X21926Y22283D01*
G01X21898Y22263D01*
G01X21868Y22245D01*
G01X21837Y22229D01*
G01X21806Y22214D01*
G01X21773Y22202D01*
G01X21740Y22192D01*
G01X21706Y22183D01*
G01X21672Y22177D01*
G01X21638Y22173D01*
G01X21603Y22171D01*
G01X21588Y22170D01*
G01X21573Y22166D01*
G01X21558Y22160D01*
G01X21545Y22151D01*
G01X21533Y22141D01*
G01X21523Y22129D01*
G01X21515Y22116D01*
G01X21509Y22102D01*
G01X21501Y22080D01*
G01X21490Y22058D01*
G01X21478Y22038D01*
G01X21464Y22019D01*
G01X21448Y22002D01*
G01X21430Y21986D01*
G01X21412Y21971D01*
G01X21391Y21959D01*
G01X21370Y21948D01*
G01X21348Y21940D01*
G01X21334Y21933D01*
G01X21321Y21925D01*
G01X21309Y21915D01*
G01X21298Y21903D01*
G01X21290Y21889D01*
G01X21284Y21875D01*
G01X21281Y21859D01*
G01X21280Y21843D01*
G01X21281Y21828D01*
G01X21284Y21812D01*
G01X21290Y21798D01*
G01X21298Y21784D01*
G01X21309Y21772D01*
G01X21321Y21762D01*
G01X21334Y21754D01*
G01X21348Y21747D01*
G01X21371Y21738D01*
G01X21393Y21727D01*
G01X21414Y21714D01*
G01X21433Y21699D01*
G01X21451Y21682D01*
G01X21467Y21664D01*
G01X21481Y21644D01*
G01X21493Y21622D01*
G01X21504Y21600D01*
G01X21512Y21577D01*
G01X21517Y21553D01*
G01X21521Y21529D01*
G01X21522Y21504D01*
G01X21522Y21293D01*
G01X21079Y21293D01*
G01X21079Y21824D01*
G01X21078Y21839D01*
G01X21075Y21853D01*
G01X21070Y21867D01*
G01X21063Y21879D01*
G01X21054Y21891D01*
G01X21044Y21901D01*
G01X21032Y21910D01*
G01X21020Y21917D01*
G01X21006Y21922D01*
G01X20992Y21925D01*
G01X20977Y21926D01*
G01X20554Y21926D01*
G01X20539Y21925D01*
G01X20525Y21922D01*
G01X20511Y21917D01*
G01X20499Y21910D01*
G01X20487Y21901D01*
G01X20477Y21891D01*
G01X20468Y21879D01*
G01X20461Y21867D01*
G01X20456Y21853D01*
G01X20453Y21839D01*
G01X20452Y21824D01*
G01X20452Y21293D01*
G01X20224Y21293D01*
G01X20209Y21292D01*
G01X20195Y21289D01*
G01X20182Y21284D01*
G01X20169Y21277D01*
G01X20157Y21268D01*
G01X20147Y21258D01*
G01X20138Y21246D01*
G01X20131Y21234D01*
G01X20126Y21220D01*
G01X20123Y21206D01*
G01X20122Y21191D01*
G01X20122Y20718D01*
G01X20123Y20703D01*
G01X20126Y20689D01*
G01X20131Y20675D01*
G01X20138Y20663D01*
G01X20147Y20651D01*
G01X20157Y20641D01*
G01X20169Y20632D01*
G01X20182Y20625D01*
G01X20195Y20620D01*
G01X20209Y20617D01*
G01X20224Y20616D01*
G01X20452Y20616D01*
G01X20452Y20148D01*
G01X20304Y20148D01*
G01X20290Y20147D01*
G01X20276Y20144D01*
G01X20262Y20139D01*
G01X20250Y20132D01*
G01X20238Y20123D01*
G01X20228Y20113D01*
G01X20219Y20101D01*
G01X20212Y20089D01*
G01X20207Y20075D01*
G01X20204Y20061D01*
G01X20203Y20046D01*
G01X20205Y20028D01*
G01X20209Y20010D01*
G01X20220Y19978D01*
G01X20230Y19946D01*
G01X20237Y19913D01*
G01X20242Y19879D01*
G01X20245Y19845D01*
G01X20245Y19811D01*
G01X20245Y19777D01*
G01X20242Y19742D01*
G01X20236Y19708D01*
G01X20229Y19674D01*
G01X20219Y19641D01*
G01X20208Y19608D01*
G01X20194Y19577D01*
G01X20179Y19546D01*
G01X20162Y19516D01*
G01X20142Y19487D01*
G01X20121Y19459D01*
G01X20099Y19433D01*
G01X20075Y19408D01*
G01X20049Y19385D01*
G01X20039Y19374D01*
G01X20030Y19363D01*
G01X20023Y19350D01*
G01X20018Y19336D01*
G01X20015Y19322D01*
G01X20014Y19307D01*
G01X20015Y19293D01*
G01X20018Y19279D01*
G01X20023Y19265D01*
G01X20030Y19252D01*
G01X20039Y19240D01*
G01X20049Y19230D01*
G01X20061Y19221D01*
G01X20074Y19214D01*
G01X20088Y19210D01*
G01X20121Y19199D01*
G01X20154Y19187D01*
G01X20185Y19173D01*
G01X20216Y19156D01*
G01X20246Y19138D01*
G01X20274Y19118D01*
G01X20302Y19097D01*
G01X20327Y19073D01*
G01X20352Y19048D01*
G01X20374Y19022D01*
G01X20396Y18994D01*
G01X20415Y18966D01*
G01X20432Y18935D01*
G01X20448Y18904D01*
G01X20461Y18872D01*
G01X20473Y18840D01*
G01X20483Y18806D01*
G01X20490Y18772D01*
G01X20496Y18738D01*
G01X20499Y18703D01*
G01X20500Y18669D01*
G01X20499Y18633D01*
G01X20495Y18598D01*
G01X20490Y18563D01*
G01X20482Y18529D01*
G01X20472Y18495D01*
G01X20460Y18461D01*
G01X20446Y18429D01*
G01X20430Y18398D01*
G01X20412Y18367D01*
G01X20392Y18338D01*
G01X20371Y18310D01*
G01X20347Y18284D01*
G01X20322Y18259D01*
G01X20311Y18246D01*
G01X20302Y18232D01*
G01X20295Y18217D01*
G01X20291Y18201D01*
G01X20290Y18185D01*
G01X20291Y18170D01*
G01X20294Y18155D01*
G01X20300Y18141D01*
G01X20307Y18128D01*
G01X20316Y18117D01*
G01X20327Y18106D01*
G01X20339Y18098D01*
G01X20352Y18091D01*
G01X20366Y18086D01*
G01X20381Y18084D01*
G01X20415Y18079D01*
G01X20449Y18072D01*
G01X20482Y18063D01*
G01X20515Y18052D01*
G01X20547Y18039D01*
G01X20578Y18024D01*
G01X20608Y18007D01*
G01X20637Y17988D01*
G01X20665Y17968D01*
G01X20692Y17946D01*
G01X20717Y17922D01*
G01X20741Y17897D01*
G01X20763Y17870D01*
G01X20783Y17842D01*
G01X20802Y17813D01*
G01X20819Y17783D01*
G01X20833Y17751D01*
G01X20846Y17719D01*
G01X20857Y17686D01*
G01X20866Y17653D01*
G01X20871Y17639D01*
G01X20877Y17625D01*
G01X20886Y17612D01*
G01X20896Y17601D01*
G01X20908Y17592D01*
G01X20921Y17584D01*
G01X20935Y17579D01*
G01X20950Y17576D01*
G01X20965Y17574D01*
G01X20981Y17576D01*
G01X20997Y17579D01*
G01X21011Y17586D01*
G01X21025Y17594D01*
G01X21037Y17604D01*
G01X21076Y17643D01*
G01X21087Y17656D01*
G01X21095Y17669D01*
G01X21101Y17684D01*
G01X21105Y17699D01*
G01X21106Y17715D01*
G01X21106Y19332D01*
G01X21105Y19349D01*
G01X21101Y19365D01*
G01X21094Y19380D01*
G01X21085Y19394D01*
G01X21075Y19406D01*
G01X21050Y19431D01*
G01X21027Y19457D01*
G01X21006Y19485D01*
G01X20987Y19514D01*
G01X20969Y19544D01*
G01X20953Y19575D01*
G01X20940Y19607D01*
G01X20928Y19640D01*
G01X20918Y19673D01*
G01X20911Y19707D01*
G01X20905Y19742D01*
G01X20902Y19777D01*
G01X20901Y19811D01*
G01X20901Y19812D01*
G01X20902Y19845D01*
G01X20905Y19879D01*
G01X20910Y19913D01*
G01X20917Y19946D01*
G01X20927Y19978D01*
G01X20938Y20010D01*
G01X20952Y20044D01*
G01X20968Y20076D01*
G01X20986Y20108D01*
G01X21006Y20138D01*
G01X21028Y20167D01*
G01X21052Y20194D01*
G01X21061Y20206D01*
G01X21069Y20219D01*
G01X21074Y20233D01*
G01X21078Y20248D01*
G01X21079Y20263D01*
G01X21079Y20616D01*
G01X21522Y20616D01*
G01X21522Y20455D01*
G01X21523Y20440D01*
G01X21527Y20425D01*
G01X21532Y20411D01*
G01X21539Y20398D01*
G01X21548Y20386D01*
G01X21559Y20376D01*
G01X21571Y20367D01*
G01X21585Y20361D01*
G01X21599Y20356D01*
G01X21632Y20347D01*
G01X21663Y20336D01*
G01X21695Y20323D01*
G01X21725Y20308D01*
G01X21754Y20291D01*
G01X21783Y20273D01*
G01X21810Y20252D01*
G01X21836Y20231D01*
G01X21860Y20207D01*
G01X21883Y20183D01*
G01X21905Y20157D01*
G01X21925Y20130D01*
G01X21943Y20101D01*
G01X21960Y20072D01*
G01X21975Y20041D01*
G01X21988Y20010D01*
G01X21999Y19978D01*
G01X22008Y19945D01*
G01X22015Y19912D01*
G01X22020Y19879D01*
G01X22023Y19845D01*
G01X22023Y19811D01*
G01X22023Y19777D01*
G01X22020Y19742D01*
G01X22014Y19707D01*
G01X22007Y19673D01*
G01X21997Y19640D01*
G01X21985Y19607D01*
G01X21972Y19575D01*
G01X21956Y19544D01*
G01X21938Y19514D01*
G01X21919Y19485D01*
G01X21898Y19457D01*
G01X21875Y19431D01*
G01X21850Y19406D01*
G01X21840Y19394D01*
G01X21831Y19380D01*
G01X21824Y19365D01*
G01X21820Y19349D01*
G01X21819Y19332D01*
G01X21819Y17525D01*
G01X21818Y17498D01*
G01X21815Y17470D01*
G01X21809Y17442D01*
G01X21802Y17415D01*
G01X21792Y17389D01*
G01X21780Y17364D01*
G01X21767Y17339D01*
G01X21751Y17316D01*
G01X21734Y17294D01*
G01X21715Y17273D01*
G01X21164Y16723D01*
G01X21154Y16711D01*
G01X21146Y16697D01*
G01X21140Y16683D01*
G01X21136Y16667D01*
G01X21135Y16651D01*
G01X21135Y16637D01*
G01X21134Y16599D01*
G01X21130Y16561D01*
G01X21123Y16524D01*
G01X21114Y16487D01*
G01X21111Y16460D01*
G01X21112Y16445D01*
G01X21115Y16431D01*
G01X21120Y16417D01*
G01X21127Y16405D01*
G01X21136Y16393D01*
G01X21146Y16383D01*
G01X21157Y16374D01*
G01X21170Y16367D01*
G01X21184Y16362D01*
G01X21198Y16359D01*
G01X21212Y16358D01*
G01X22162Y16358D01*
G01X22178Y16359D01*
G01X22193Y16363D01*
G01X22208Y16369D01*
G01X22221Y16377D01*
G01X22234Y16388D01*
G01X22727Y16881D01*
G01X22738Y16894D01*
G01X22746Y16907D01*
G01X22752Y16922D01*
G01X22756Y16937D01*
G01X22757Y16953D01*
G01X22757Y23559D01*
G01X22756Y23575D01*
G01X22752Y23590D01*
G01X22746Y23605D01*
G01X22738Y23618D01*
G01X22727Y23631D01*
G01X22234Y24124D01*
G01X22221Y24135D01*
G01X22208Y24143D01*
G01X22193Y24149D01*
G01X22178Y24153D01*
G01X22162Y24154D01*
G37*

%LPD*%
G36*
G01X15248Y23829D02*
G01X15003Y23829D01*
G01X14987Y23828D01*
G01X14971Y23824D01*
G01X14956Y23818D01*
G01X14943Y23809D01*
G01X14931Y23799D01*
G01X14920Y23786D01*
G01X14905Y23767D01*
G01X14888Y23750D01*
G01X14870Y23734D01*
G01X14850Y23719D01*
G01X14829Y23707D01*
G01X14807Y23697D01*
G01X14784Y23689D01*
G01X14760Y23684D01*
G01X14736Y23680D01*
G01X14711Y23679D01*
G01X14371Y23679D01*
G01X14357Y23678D01*
G01X14343Y23675D01*
G01X14329Y23670D01*
G01X14317Y23663D01*
G01X14305Y23654D01*
G01X14295Y23644D01*
G01X14286Y23632D01*
G01X14279Y23620D01*
G01X14274Y23606D01*
G01X14271Y23592D01*
G01X14270Y23577D01*
G01X14271Y23561D01*
G01X14275Y23546D01*
G01X14281Y23531D01*
G01X14289Y23517D01*
G01X14300Y23505D01*
G01X14312Y23495D01*
G01X14326Y23487D01*
G01X14340Y23481D01*
G01X14362Y23473D01*
G01X14383Y23463D01*
G01X14403Y23451D01*
G01X14421Y23437D01*
G01X14439Y23422D01*
G01X14455Y23405D01*
G01X14469Y23387D01*
G01X14482Y23368D01*
G01X14493Y23348D01*
G01X14502Y23327D01*
G01X14509Y23305D01*
G01X14514Y23282D01*
G01X14517Y23259D01*
G01X14518Y23236D01*
G01X14518Y23175D01*
G01X13925Y23175D01*
G01X13925Y23577D01*
G01X13924Y23592D01*
G01X13921Y23606D01*
G01X13916Y23620D01*
G01X13909Y23632D01*
G01X13900Y23644D01*
G01X13890Y23654D01*
G01X13878Y23663D01*
G01X13866Y23670D01*
G01X13852Y23675D01*
G01X13838Y23678D01*
G01X13823Y23679D01*
G01X13100Y23679D01*
G01X13085Y23678D01*
G01X13071Y23675D01*
G01X13057Y23670D01*
G01X13045Y23663D01*
G01X13033Y23654D01*
G01X13023Y23644D01*
G01X13014Y23632D01*
G01X13007Y23620D01*
G01X13002Y23606D01*
G01X12999Y23592D01*
G01X12998Y23577D01*
G01X12998Y23175D01*
G01X12405Y23175D01*
G01X12405Y23236D01*
G01X12406Y23259D01*
G01X12409Y23282D01*
G01X12414Y23305D01*
G01X12421Y23327D01*
G01X12430Y23348D01*
G01X12441Y23368D01*
G01X12454Y23387D01*
G01X12468Y23405D01*
G01X12484Y23422D01*
G01X12502Y23437D01*
G01X12520Y23451D01*
G01X12540Y23463D01*
G01X12561Y23473D01*
G01X12583Y23481D01*
G01X12597Y23487D01*
G01X12611Y23495D01*
G01X12623Y23505D01*
G01X12634Y23517D01*
G01X12642Y23531D01*
G01X12648Y23546D01*
G01X12652Y23561D01*
G01X12653Y23577D01*
G01X12652Y23592D01*
G01X12649Y23606D01*
G01X12644Y23620D01*
G01X12637Y23632D01*
G01X12628Y23644D01*
G01X12618Y23654D01*
G01X12606Y23663D01*
G01X12594Y23670D01*
G01X12580Y23675D01*
G01X12566Y23678D01*
G01X12552Y23679D01*
G01X12212Y23679D01*
G01X12186Y23680D01*
G01X12161Y23684D01*
G01X12136Y23690D01*
G01X12113Y23699D01*
G01X12090Y23710D01*
G01X12068Y23723D01*
G01X12048Y23738D01*
G01X12029Y23755D01*
G01X12017Y23766D01*
G01X12003Y23774D01*
G01X11988Y23780D01*
G01X11973Y23784D01*
G01X11957Y23785D01*
G01X11942Y23784D01*
G01X11928Y23781D01*
G01X11914Y23776D01*
G01X11902Y23769D01*
G01X11890Y23761D01*
G01X11880Y23750D01*
G01X11871Y23739D01*
G01X11864Y23726D01*
G01X11859Y23713D01*
G01X11856Y23698D01*
G01X11855Y23684D01*
G01X11855Y23187D01*
G01X11854Y23161D01*
G01X11850Y23136D01*
G01X11844Y23112D01*
G01X11835Y23088D01*
G01X11824Y23065D01*
G01X11811Y23043D01*
G01X11804Y23030D01*
G01X11798Y23016D01*
G01X11795Y23002D01*
G01X11794Y22987D01*
G01X11795Y22972D01*
G01X11798Y22957D01*
G01X11804Y22943D01*
G01X11811Y22930D01*
G01X11824Y22908D01*
G01X11835Y22885D01*
G01X11844Y22861D01*
G01X11850Y22837D01*
G01X11854Y22812D01*
G01X11855Y22787D01*
G01X11855Y22289D01*
G01X11856Y22275D01*
G01X11859Y22260D01*
G01X11864Y22247D01*
G01X11871Y22234D01*
G01X11880Y22223D01*
G01X11890Y22212D01*
G01X11902Y22204D01*
G01X11914Y22197D01*
G01X11928Y22192D01*
G01X11942Y22189D01*
G01X11957Y22188D01*
G01X11973Y22189D01*
G01X11988Y22193D01*
G01X12003Y22199D01*
G01X12017Y22207D01*
G01X12029Y22218D01*
G01X12048Y22235D01*
G01X12068Y22250D01*
G01X12090Y22263D01*
G01X12113Y22274D01*
G01X12136Y22283D01*
G01X12161Y22289D01*
G01X12186Y22293D01*
G01X12212Y22294D01*
G01X12552Y22294D01*
G01X12566Y22295D01*
G01X12580Y22298D01*
G01X12594Y22303D01*
G01X12606Y22310D01*
G01X12618Y22319D01*
G01X12628Y22329D01*
G01X12637Y22341D01*
G01X12644Y22353D01*
G01X12649Y22367D01*
G01X12652Y22381D01*
G01X12653Y22396D01*
G01X12652Y22412D01*
G01X12648Y22427D01*
G01X12642Y22442D01*
G01X12634Y22456D01*
G01X12623Y22468D01*
G01X12611Y22478D01*
G01X12597Y22486D01*
G01X12583Y22492D01*
G01X12561Y22500D01*
G01X12540Y22510D01*
G01X12520Y22522D01*
G01X12502Y22536D01*
G01X12484Y22551D01*
G01X12468Y22568D01*
G01X12454Y22586D01*
G01X12441Y22605D01*
G01X12430Y22625D01*
G01X12421Y22646D01*
G01X12414Y22668D01*
G01X12409Y22691D01*
G01X12406Y22714D01*
G01X12405Y22737D01*
G01X12405Y22798D01*
G01X12998Y22798D01*
G01X12998Y22396D01*
G01X12999Y22381D01*
G01X13002Y22367D01*
G01X13007Y22353D01*
G01X13014Y22341D01*
G01X13023Y22329D01*
G01X13033Y22319D01*
G01X13045Y22310D01*
G01X13057Y22303D01*
G01X13071Y22298D01*
G01X13085Y22295D01*
G01X13100Y22294D01*
G01X13823Y22294D01*
G01X13838Y22295D01*
G01X13852Y22298D01*
G01X13866Y22303D01*
G01X13878Y22310D01*
G01X13890Y22319D01*
G01X13900Y22329D01*
G01X13909Y22341D01*
G01X13916Y22353D01*
G01X13921Y22367D01*
G01X13924Y22381D01*
G01X13925Y22396D01*
G01X13925Y22798D01*
G01X14518Y22798D01*
G01X14518Y22737D01*
G01X14517Y22714D01*
G01X14514Y22691D01*
G01X14509Y22668D01*
G01X14502Y22646D01*
G01X14493Y22625D01*
G01X14482Y22605D01*
G01X14469Y22586D01*
G01X14455Y22568D01*
G01X14439Y22551D01*
G01X14421Y22536D01*
G01X14403Y22522D01*
G01X14383Y22510D01*
G01X14362Y22500D01*
G01X14340Y22492D01*
G01X14326Y22486D01*
G01X14312Y22478D01*
G01X14300Y22468D01*
G01X14289Y22456D01*
G01X14281Y22442D01*
G01X14275Y22427D01*
G01X14271Y22412D01*
G01X14270Y22396D01*
G01X14271Y22381D01*
G01X14274Y22367D01*
G01X14279Y22353D01*
G01X14286Y22341D01*
G01X14295Y22329D01*
G01X14305Y22319D01*
G01X14317Y22310D01*
G01X14329Y22303D01*
G01X14343Y22298D01*
G01X14357Y22295D01*
G01X14371Y22294D01*
G01X14711Y22294D01*
G01X14736Y22293D01*
G01X14760Y22289D01*
G01X14784Y22284D01*
G01X14807Y22276D01*
G01X14829Y22266D01*
G01X14850Y22254D01*
G01X14870Y22239D01*
G01X14888Y22223D01*
G01X14905Y22206D01*
G01X14920Y22187D01*
G01X14931Y22174D01*
G01X14943Y22164D01*
G01X14956Y22155D01*
G01X14971Y22149D01*
G01X14987Y22145D01*
G01X15003Y22144D01*
G01X15041Y22144D01*
G01X15069Y22143D01*
G01X15097Y22140D01*
G01X15125Y22134D01*
G01X15152Y22127D01*
G01X15178Y22117D01*
G01X15203Y22105D01*
G01X15228Y22092D01*
G01X15251Y22076D01*
G01X15273Y22059D01*
G01X15293Y22040D01*
G01X15365Y21969D01*
G01X16089Y21245D01*
G01X16103Y21230D01*
G01X16115Y21218D01*
G01X16129Y21209D01*
G01X16145Y21202D01*
G01X16161Y21197D01*
G01X16178Y21196D01*
G01X16193Y21197D01*
G01X16207Y21200D01*
G01X16221Y21205D01*
G01X16233Y21212D01*
G01X16245Y21221D01*
G01X16255Y21231D01*
G01X16264Y21243D01*
G01X16271Y21255D01*
G01X16276Y21269D01*
G01X16279Y21283D01*
G01X16280Y21297D01*
G01X16280Y22797D01*
G01X16279Y22813D01*
G01X16275Y22828D01*
G01X16269Y22843D01*
G01X16261Y22856D01*
G01X16250Y22869D01*
G01X15320Y23799D01*
G01X15308Y23809D01*
G01X15294Y23818D01*
G01X15279Y23824D01*
G01X15264Y23828D01*
G01X15248Y23829D01*
G37*

%LPD*%
G54D12*
G01X26035Y8128D02*
G01X24892Y9271D01*
G01X24892Y14605D01*
G01X25654Y15367D01*
G54D11*
G01X22860Y2667D02*
G01X22860Y1524D01*
G01X21717Y381D01*
G01X14097Y381D01*
G01X11938Y2540D01*
G01X9474Y16891D02*
G01X10033Y16891D01*
G01X11938Y14986D01*
G01X11938Y11811D01*
G01X18237Y16101D02*
G01X17371Y16101D01*
G01X16891Y15621D01*
G01X16891Y11303D01*
G01X17653Y10541D01*
G01X17653Y9895D01*
G01X18084Y9398D01*
G01X19050Y9398D01*
G01X19558Y8890D01*
G54D12*
G01X19685Y19812D02*
G01X19431Y19558D01*
G01X18796Y19558D01*
G01X18796Y18161D01*
G01X18669Y18034D01*
G01X15240Y14859D02*
G01X15144Y14763D01*
G01X14478Y14763D01*
G54D11*
G01X12700Y11176D02*
G01X12700Y15113D01*
G01X10287Y17526D01*
G01X10287Y19939D01*
G01X8509Y21717D01*
G01X5842Y21717D01*
G01X4191Y20066D01*
G01X2794Y20066D01*
G01X26162Y12446D02*
G01X26162Y12700D01*
G01X27051Y13589D01*
G01X32156Y13589D01*
G01X32537Y13208D01*
G01X22098Y8509D02*
G01X21717Y8128D01*
G01X15621Y8128D01*
G01X15113Y7620D01*
G01X15494Y5969D02*
G01X16891Y7366D01*
G01X23622Y7366D01*
G01X24257Y8001D01*
G01X24257Y9652D01*
G01X22860Y11049D01*
G01X22860Y14478D01*
G01X22479Y14859D01*
G01X22098Y14859D01*
G01X21844Y14605D01*
G01X20828Y14605D01*
G01X20723Y14500D01*
G01X18237Y14500D01*
G54D12*
G01X21717Y12573D02*
G01X21717Y13716D01*
G01X22098Y14097D01*
G54D11*
G01X30734Y5207D02*
G01X30099Y4572D01*
G01X26670Y4572D01*
G01X25400Y3302D01*
G01X20640Y3302D01*
G01X20640Y3683D01*
G01X19366Y20955D02*
G01X18415Y20955D01*
G01X17272Y19812D01*
G01X17272Y17653D01*
G01X15875Y16256D01*
G01X15875Y12573D01*
G01X21717Y9906D02*
G01X21336Y10287D01*
G01X18796Y10287D01*
G01X18237Y10845D01*
G01X18237Y11303D01*
G54D12*
G01X21463Y15367D02*
G01X19939Y15367D01*
G54D11*
G01X5334Y16002D02*
G01X5334Y16383D01*
G01X6350Y17399D01*
G01X7239Y17399D01*
G01X8547Y16090D01*
G01X9474Y16090D01*
G54D12*
G01X2286Y12827D02*
G01X2286Y11684D01*
G01X1651Y4699D02*
G01X762Y5588D01*
G01X762Y12192D01*
G01X1397Y12827D01*
G01X2286Y12827D01*
G54D11*
G01X16637Y18465D02*
G01X16637Y22987D01*
G01X15494Y24130D01*
G01X15438Y24185D01*
G01X13462Y24185D01*
G01X15836Y18465D02*
G01X15836Y20993D01*
G01X15113Y21717D01*
G01X15041Y21788D01*
G01X13462Y21788D01*
G01X11049Y23687D02*
G01X11547Y24185D01*
G01X13462Y24185D01*
G01X11049Y22286D02*
G01X11547Y21788D01*
G01X13462Y21788D01*
G01X19365Y24511D02*
G01X19366Y24510D01*
G01X19366Y20955D01*
G01X13449Y9728D02*
G01X13449Y3884D01*
G01X13905Y3429D01*
G01X13905Y3429D02*
G01X12954Y3429D01*
G01X15036Y18465D02*
G01X15036Y20015D01*
G01X14097Y20955D01*
G01X2474Y16129D02*
G01X2474Y14351D01*
G01X2474Y14351D01*
G01X3876Y14351D02*
G01X3556Y14351D01*
G01X5207Y12700D01*
G01X5207Y4826D01*
G01X3683Y3302D01*
G01X2540Y3302D01*
G01X2159Y3002D01*
G01X2159Y1651D01*
G01X2286Y9779D02*
G01X3683Y9779D01*
G01X4191Y10287D01*
G01X4191Y12700D01*
G01X3429Y13462D01*
G01X1651Y13462D01*
G01X1016Y14097D01*
G01X1016Y17653D01*
G01X1397Y18034D01*
G01X2667Y18034D01*
G01X2667Y18161D01*
G01X3875Y16129D02*
G01X3875Y17714D01*
G01X3429Y18161D01*
G01X2667Y18161D01*
G01X4191Y1651D02*
G01X4191Y2667D01*
G01X5715Y4191D01*
G01X5715Y13462D01*
G01X14246Y9728D02*
G01X14224Y5080D01*
G01X15306Y3997D01*
G01X15306Y3429D01*
G01X7112Y16129D02*
G01X7493Y16129D01*
G01X8331Y15290D01*
G01X9474Y15290D01*
G01X6223Y1651D02*
G01X6731Y2159D01*
G01X6731Y13589D01*
G01X3605Y9779D02*
G01X3937Y9447D01*
G01X3937Y8890D01*
G01X8128Y3683D02*
G01X8255Y3556D01*
G01X8255Y1651D01*
G01X2286Y7874D02*
G01X3937Y6223D01*
G01X4572Y6223D01*
G01X8636Y4572D02*
G01X9271Y5207D01*
G01X12446Y5207D01*
G01X2794Y25654D02*
G01X2794Y26035D01*
G01X22987Y26035D01*
G01X24130Y24892D01*
G01X24130Y10795D01*
G01X19239Y5461D02*
G01X19239Y3683D01*
G01X19239Y3683D02*
G01X19238Y3682D01*
G01X19238Y1905D01*
G01X19239Y5461D02*
G01X18604Y6096D01*
G01X16891Y6096D01*
G01X11811Y6731D02*
G01X11849Y6769D01*
G01X11849Y9728D01*
G54D12*
G01X32537Y15748D02*
G01X29083Y15748D01*
G01X28448Y15113D01*
G01X27940Y15113D01*
G54D11*
G01X18237Y16101D02*
G01X18237Y16002D01*
G01X22352Y16002D01*
G01X23114Y16764D01*
G01X23114Y23749D01*
G01X22352Y24511D01*
G01X20767Y24511D01*
G54D12*
G01X27940Y21838D02*
G01X26294Y21838D01*
G01X26289Y21844D01*
G01X32537Y24892D02*
G01X29210Y24892D01*
G01X28956Y24638D01*
G01X27940Y24638D01*
G54D11*
G01X9474Y14490D02*
G01X6972Y14490D01*
G01X6223Y15240D01*
G01X6202Y15260D01*
G01X2982Y15260D01*
G01X2978Y15264D01*
G01X2474Y15264D01*
G01X2794Y21971D02*
G01X2667Y21844D01*
G01X1651Y21844D01*
G01X1016Y21209D01*
G01X1016Y19558D01*
G01X1524Y19050D01*
G01X1905Y19050D01*
G01X1778Y17272D02*
G01X2474Y16575D01*
G01X2474Y16129D01*
G54D12*
G01X32537Y7239D02*
G01X28956Y7239D01*
G01X27940Y6223D01*
G54D11*
G01X2794Y23749D02*
G01X2921Y23876D01*
G01X4191Y23876D01*
G01X5842Y25527D01*
G01X22479Y25527D01*
G01X23495Y24511D01*
G01X23495Y11684D01*
G01X21463Y11684D02*
G01X21043Y12103D01*
G01X18237Y12103D01*
G01X13439Y18465D02*
G01X13439Y20297D01*
G01X14097Y20955D01*
G54D13*
G01X9398Y22606D02*
G01X9398Y24638D01*
G54D11*
G01X38582Y13208D02*
G01X38709Y13081D01*
G01X40259Y13081D01*
G01X41402Y11938D01*
G01X42861Y11938D01*
G54D12*
G01X27940Y3423D02*
G01X27945Y3429D01*
G01X32537Y3429D01*
G54D11*
G01X44389Y16891D02*
G01X47244Y14046D01*
G01X47244Y2032D01*
G01X46355Y1143D01*
G54D12*
G01X32537Y21082D02*
G01X34290Y19329D01*
G01X34290Y18795D01*
G54D11*
G01X38582Y23622D02*
G01X40640Y23622D01*
G01X41275Y22987D01*
G01X42861Y22987D01*
G01X38582Y24892D02*
G01X38709Y24765D01*
G01X42861Y24765D01*
G01X38582Y21082D02*
G01X40741Y18923D01*
G01X43053Y18923D01*
G01X45466Y18923D01*
G01X46101Y19558D01*
G01X46101Y22606D01*
G01X45720Y22987D01*
G01X44261Y22987D01*
G01X38582Y22352D02*
G01X40640Y22352D01*
G01X41783Y21209D01*
G01X42861Y21209D01*
G01X38582Y15748D02*
G01X38709Y15875D01*
G01X41783Y15875D01*
G01X42799Y16891D01*
G01X42988Y16891D01*
G54D13*
G01X20766Y20955D02*
G01X21590Y20955D01*
G54D11*
G01X38582Y11938D02*
G01X40868Y9652D01*
G01X45212Y9652D01*
G01X46355Y10795D01*
G01X46355Y13208D01*
G01X44388Y15174D01*
G01X44388Y15240D01*
G01X38582Y7239D02*
G01X41656Y7239D01*
G01X42226Y7239D01*
G01X43115Y8128D01*
G01X38582Y5969D02*
G01X41275Y5969D01*
G01X41783Y6477D01*
G01X43115Y6477D01*
G01X38582Y4699D02*
G01X40894Y4699D01*
G01X42164Y3429D01*
G01X42861Y3429D01*
G01X36957Y1397D02*
G01X45212Y1397D01*
G01X46482Y2667D01*
G01X46482Y4953D01*
G01X44958Y6477D01*
G01X44516Y6477D01*
G01X36830Y18795D02*
G01X38582Y20548D01*
G01X38582Y21082D01*
G54D12*
G01X32537Y11938D02*
G01X34417Y10058D01*
G01X34417Y9778D01*
G01X27940Y12313D02*
G01X28315Y11938D01*
G01X32537Y11938D01*
G01X34290Y18796D02*
G01X34798Y18288D01*
G01X34798Y10668D01*
G01X34417Y10287D01*
G01X34417Y9779D01*
G01X34417Y1396D02*
G01X32537Y3276D01*
G01X32537Y3429D01*
G01X34417Y9778D02*
G01X34925Y9270D01*
G01X34925Y2540D01*
G01X34417Y2032D01*
G01X34417Y1396D01*
G54D11*
G01X36957Y9778D02*
G01X38582Y11404D01*
G01X38582Y11938D01*
G01X38582Y5969D02*
G01X38328Y6223D01*
G01X36449Y6223D01*
G01X42988Y15240D02*
G01X41783Y14034D01*
G01X41783Y13462D01*
G01X38582Y23622D02*
G01X36957Y23622D01*
G01X35687Y22352D01*
G01X35687Y17145D01*
G54D13*
G01X25400Y5588D02*
G01X26035Y6223D01*
G01X27940Y6223D01*
G54D11*
G01X25146Y20955D02*
G01X25169Y20978D01*
G01X25273Y20978D01*
G01X13462Y22987D02*
G01X13716Y22733D01*
G01X14732Y22733D01*
G01X41783Y13462D02*
G01X40767Y14478D01*
G01X38582Y14478D01*
G01X44261Y11938D02*
G01X44196Y12003D01*
G01X44196Y13462D01*
G01X44261Y24765D02*
G01X45593Y24765D01*
G01X48006Y22352D01*
G01X48006Y1270D01*
G01X47244Y508D01*
G01X28829Y508D01*
G01X28321Y1016D01*
G01X44261Y21209D02*
G01X44196Y21143D01*
G01X44196Y20066D01*
G01X44069Y19939D01*
G01X41910Y19939D01*
G01X36957Y1396D02*
G01X36957Y2794D01*
G01X37592Y3429D01*
G01X38582Y3429D01*
G01X35687Y2413D02*
G01X35687Y7239D01*
G01X36830Y8382D01*
G01X40640Y8382D01*
G01X41402Y9144D01*
G01X44196Y9144D01*
G01X44515Y8824D01*
G01X44515Y8128D01*
G01X41910Y5461D02*
G01X43053Y5461D01*
G01X44261Y4252D01*
G01X44261Y3429D01*
G01X38582Y14478D02*
G01X37592Y14478D01*
G01X36195Y13081D01*
G01X40208Y16637D02*
G01X40208Y17068D01*
G01X38862Y18415D01*
G01X21590Y22733D02*
G01X20766Y22733D01*
G01X9474Y11292D02*
G01X9474Y8432D01*
G01X10414Y7493D01*
G01X32537Y22352D02*
G01X33528Y22352D01*
G01X34163Y21717D01*
G01X21463Y19812D02*
G01X21463Y17526D01*
G01X20574Y16637D01*
G01X20447Y13716D02*
G01X20434Y13703D01*
G01X18237Y13703D01*
G01X32537Y23622D02*
G01X30861Y23622D01*
G01X29845Y22606D01*
G01X29845Y17907D01*
G01X29718Y17780D01*
G01X26924Y17780D01*
G01X11838Y18465D02*
G01X11838Y19458D01*
G01X12573Y20193D01*
G01X12700Y20193D01*
G54D12*
G01X14224Y19812D02*
G01X14236Y19799D01*
G01X14236Y18465D01*
G01X14236Y18465D02*
G01X14236Y16903D01*
G01X14097Y16764D01*
G54D11*
G01X12639Y18465D02*
G01X12639Y17332D01*
G01X13208Y16764D01*
G01X14097Y16764D01*
G01X13449Y9728D02*
G01X13449Y16116D01*
G01X14097Y16764D01*
G54D12*
G01X32537Y21082D02*
G01X31115Y21082D01*
G54D11*
G01X32537Y4699D02*
G01X34036Y4699D01*
G01X34290Y4953D01*
G01X34290Y7493D01*
G01X33274Y8509D01*
G01X27813Y8509D01*
G01X26162Y10160D01*
G01X20828Y12954D02*
G01X18288Y12954D01*
G01X18237Y12903D01*
G01X32537Y5969D02*
G01X30226Y5969D01*
G01X29337Y5080D01*
G01X26035Y5080D01*
G01X25273Y4318D01*
G01X23622Y4318D01*
G01X23241Y3937D01*
G01X12954Y3429D02*
G01X10414Y3429D01*
G01X10287Y3302D01*
G01X10287Y1651D01*
G01X11303Y12573D02*
G01X11049Y12319D01*
G01X11049Y9728D01*
G01X10922Y5842D02*
G01X10922Y7112D01*
G01X11303Y7493D01*
G01X11303Y7747D01*
G01X10160Y8890D01*
G01X10160Y10668D01*
G01X10668Y11176D01*
G01X10668Y13716D01*
G01X11049Y14097D01*
G01X11938Y16891D02*
G01X11038Y17790D01*
G01X11038Y18465D01*
G01X23495Y14478D02*
G01X23581Y14478D01*
G01X23622Y14437D01*
G01X32537Y14478D02*
G01X33909Y14478D01*
G01X34163Y14732D01*
G01X34163Y16256D01*
G01X33909Y16510D01*
G01X26670Y16510D01*
G01X26289Y16510D01*
G01X15847Y9728D02*
G01X15847Y10314D01*
G01X14478Y11684D01*
G01X14478Y15367D01*
G01X15036Y15925D01*
G01X15036Y18465D01*
G01X16647Y9728D02*
G01X16647Y10657D01*
G01X16129Y11176D01*
G01X19558Y6731D02*
G01X22225Y6731D01*
G54D12*
G01X25146Y20955D02*
G01X25146Y23622D01*
G01X25908Y24384D01*
G01X26162Y24638D01*
G01X27940Y24638D01*
G01X27940Y15113D02*
G01X27686Y15367D01*
G01X25654Y15367D01*
G01X25146Y15875D01*
G01X25146Y20955D01*
G01X25400Y5588D02*
G01X24765Y4953D01*
G01X24257Y4953D01*
G01X24130Y4826D01*
G01X21590Y4826D01*
G01X20955Y5461D01*
G01X20639Y5461D01*
G54D11*
G01X20639Y1905D02*
G01X20574Y1839D01*
G01X20574Y1016D01*
G01X20447Y889D01*
G01X19939Y889D01*
G01X17907Y889D01*
G01X17272Y1524D01*
G01X17272Y4826D01*
G01X32537Y14478D02*
G01X32029Y13970D01*
G01X26035Y13970D01*
G01X25527Y13462D01*
G01X25527Y9525D01*
G01X26797Y8255D01*
G01X26797Y7620D01*
G01X26289Y7112D01*
G01X25273Y7112D01*
G01X24003Y5842D01*
G01X21844Y5842D01*
G01X21336Y9144D02*
G01X20828Y9652D01*
G01X19812Y9652D01*
G54D28*
G01X8874Y16891D02*
G01X10074Y16891D01*
G01X8874Y16090D02*
G01X10074Y16090D01*
G01X8874Y15290D02*
G01X10074Y15290D01*
G01X8874Y14490D02*
G01X10074Y14490D01*
G01X8874Y13693D02*
G01X10074Y13693D01*
G01X8874Y12893D02*
G01X10074Y12893D01*
G01X8874Y12092D02*
G01X10074Y12092D01*
G01X8874Y11292D02*
G01X10074Y11292D01*
G01X11049Y10328D02*
G01X11049Y9128D01*
G01X11849Y10328D02*
G01X11849Y9128D01*
G01X12649Y10328D02*
G01X12649Y9128D01*
G01X13449Y10328D02*
G01X13449Y9128D01*
G01X14246Y10328D02*
G01X14246Y9128D01*
G01X15046Y10328D02*
G01X15046Y9128D01*
G01X15847Y10328D02*
G01X15847Y9128D01*
G01X16647Y10328D02*
G01X16647Y9128D01*
G01X17637Y11303D02*
G01X18837Y11303D01*
G01X17637Y12103D02*
G01X18837Y12103D01*
G01X17637Y12903D02*
G01X18837Y12903D01*
G01X17637Y13703D02*
G01X18837Y13703D01*
G01X17637Y14500D02*
G01X18837Y14500D01*
G01X17637Y15300D02*
G01X18837Y15300D01*
G01X17637Y16101D02*
G01X18837Y16101D01*
G01X17637Y16901D02*
G01X18837Y16901D01*
G01X16637Y19065D02*
G01X16637Y17865D01*
G01X15836Y19065D02*
G01X15836Y17865D01*
G01X15036Y19065D02*
G01X15036Y17865D01*
G01X14236Y19065D02*
G01X14236Y17865D01*
G01X13439Y19065D02*
G01X13439Y17865D01*
G01X12639Y19065D02*
G01X12639Y17865D01*
G01X11838Y19065D02*
G01X11838Y17865D01*
G01X11038Y19065D02*
G01X11038Y17865D01*
G54D29*
G01X31787Y3429D02*
G01X33287Y3429D01*
G01X31787Y4699D02*
G01X33287Y4699D01*
G01X31787Y5969D02*
G01X33287Y5969D01*
G01X31787Y7239D02*
G01X33287Y7239D01*
G01X37832Y3429D02*
G01X39332Y3429D01*
G01X37832Y4699D02*
G01X39332Y4699D01*
G01X37832Y5969D02*
G01X39332Y5969D01*
G01X37832Y7239D02*
G01X39332Y7239D01*
G01X31787Y21082D02*
G01X33287Y21082D01*
G01X31787Y22352D02*
G01X33287Y22352D01*
G01X31787Y23622D02*
G01X33287Y23622D01*
G01X31787Y24892D02*
G01X33287Y24892D01*
G01X37832Y21082D02*
G01X39332Y21082D01*
G01X37832Y22352D02*
G01X39332Y22352D01*
G01X37832Y23622D02*
G01X39332Y23622D01*
G01X37832Y24892D02*
G01X39332Y24892D01*
G01X31787Y11938D02*
G01X33287Y11938D01*
G01X31787Y13208D02*
G01X33287Y13208D01*
G01X31787Y14478D02*
G01X33287Y14478D01*
G01X31787Y15748D02*
G01X33287Y15748D01*
G01X37832Y11938D02*
G01X39332Y11938D01*
G01X37832Y13208D02*
G01X39332Y13208D01*
G01X37832Y14478D02*
G01X39332Y14478D01*
G01X37832Y15748D02*
G01X39332Y15748D01*
G36*
G01X12212Y21538D02*
G01X14711Y21538D01*
G01X14711Y22038D01*
G01X12212Y22038D01*
G01X12212Y21538D01*
G37*
G36*
G01X12661Y22737D02*
G01X14262Y22737D01*
G01X14262Y23236D01*
G01X12661Y23236D01*
G01X12661Y22737D01*
G37*
G36*
G01X12212Y23935D02*
G01X14711Y23935D01*
G01X14711Y24435D01*
G01X12212Y24435D01*
G01X12212Y23935D01*
G37*
G36*
G01X44761Y3978D02*
G01X43761Y3978D01*
G01X43761Y2878D01*
G01X44761Y2878D01*
G01X44761Y3978D01*
G37*
G36*
G01X43361Y3978D02*
G01X42361Y3978D01*
G01X42361Y2878D01*
G01X43361Y2878D01*
G01X43361Y3978D01*
G37*
G36*
G01X45015Y8677D02*
G01X44015Y8677D01*
G01X44015Y7577D01*
G01X45015Y7577D01*
G01X45015Y8677D01*
G37*
G36*
G01X43615Y8677D02*
G01X42615Y8677D01*
G01X42615Y7577D01*
G01X43615Y7577D01*
G01X43615Y8677D01*
G37*
G36*
G01X45015Y7026D02*
G01X44015Y7026D01*
G01X44015Y5926D01*
G01X45015Y5926D01*
G01X45015Y7026D01*
G37*
G36*
G01X43615Y7026D02*
G01X42615Y7026D01*
G01X42615Y5926D01*
G01X43615Y5926D01*
G01X43615Y7026D01*
G37*
G36*
G01X34016Y896D02*
G01X34817Y896D01*
G01X34817Y1896D01*
G01X34016Y1896D01*
G01X34016Y896D01*
G37*
G36*
G01X36556Y896D02*
G01X37357Y896D01*
G01X37357Y1896D01*
G01X36556Y1896D01*
G01X36556Y896D01*
G37*
G36*
G01X27139Y7023D02*
G01X27139Y5422D01*
G01X28740Y5422D01*
G01X28740Y7023D01*
G01X27139Y7023D01*
G37*
G36*
G01X27139Y4224D02*
G01X27139Y2623D01*
G01X28740Y2623D01*
G01X28740Y4224D01*
G01X27139Y4224D01*
G37*
G36*
G01X21139Y6010D02*
G01X20139Y6010D01*
G01X20139Y4910D01*
G01X21139Y4910D01*
G01X21139Y6010D01*
G37*
G36*
G01X19739Y6010D02*
G01X18739Y6010D01*
G01X18739Y4910D01*
G01X19739Y4910D01*
G01X19739Y6010D01*
G37*
G36*
G01X21139Y4232D02*
G01X20139Y4232D01*
G01X20139Y3132D01*
G01X21139Y3132D01*
G01X21139Y4232D01*
G37*
G36*
G01X19739Y4232D02*
G01X18739Y4232D01*
G01X18739Y3132D01*
G01X19739Y3132D01*
G01X19739Y4232D01*
G37*
G36*
G01X21266Y21504D02*
G01X20266Y21504D01*
G01X20266Y20404D01*
G01X21266Y20404D01*
G01X21266Y21504D01*
G37*
G36*
G01X19866Y21504D02*
G01X18866Y21504D01*
G01X18866Y20404D01*
G01X19866Y20404D01*
G01X19866Y21504D01*
G37*
G36*
G01X21266Y23282D02*
G01X20266Y23282D01*
G01X20266Y22182D01*
G01X21266Y22182D01*
G01X21266Y23282D01*
G37*
G36*
G01X19866Y23282D02*
G01X18866Y23282D01*
G01X18866Y22182D01*
G01X19866Y22182D01*
G01X19866Y23282D01*
G37*
G36*
G01X18738Y1355D02*
G01X19738Y1355D01*
G01X19738Y2455D01*
G01X18738Y2455D01*
G01X18738Y1355D01*
G37*
G36*
G01X20138Y1355D02*
G01X21138Y1355D01*
G01X21138Y2455D01*
G01X20138Y2455D01*
G01X20138Y1355D01*
G37*
G36*
G01X18865Y23961D02*
G01X19865Y23961D01*
G01X19865Y25061D01*
G01X18865Y25061D01*
G01X18865Y23961D01*
G37*
G36*
G01X20265Y23961D02*
G01X21265Y23961D01*
G01X21265Y25061D01*
G01X20265Y25061D01*
G01X20265Y23961D01*
G37*
G36*
G01X15805Y3978D02*
G01X14805Y3978D01*
G01X14805Y2878D01*
G01X15805Y2878D01*
G01X15805Y3978D01*
G37*
G36*
G01X14405Y3978D02*
G01X13405Y3978D01*
G01X13405Y2878D01*
G01X14405Y2878D01*
G01X14405Y3978D01*
G37*
G36*
G01X1974Y13801D02*
G01X2974Y13801D01*
G01X2974Y14901D01*
G01X1974Y14901D01*
G01X1974Y13801D01*
G37*
G36*
G01X3374Y13801D02*
G01X4374Y13801D01*
G01X4374Y14901D01*
G01X3374Y14901D01*
G01X3374Y13801D01*
G37*
G36*
G01X44761Y21758D02*
G01X43761Y21758D01*
G01X43761Y20658D01*
G01X44761Y20658D01*
G01X44761Y21758D01*
G37*
G36*
G01X43361Y21758D02*
G01X42361Y21758D01*
G01X42361Y20658D01*
G01X43361Y20658D01*
G01X43361Y21758D01*
G37*
G36*
G01X44761Y25314D02*
G01X43761Y25314D01*
G01X43761Y24214D01*
G01X44761Y24214D01*
G01X44761Y25314D01*
G37*
G36*
G01X43361Y25314D02*
G01X42361Y25314D01*
G01X42361Y24214D01*
G01X43361Y24214D01*
G01X43361Y25314D01*
G37*
G36*
G01X44761Y23536D02*
G01X43761Y23536D01*
G01X43761Y22436D01*
G01X44761Y22436D01*
G01X44761Y23536D01*
G37*
G36*
G01X43361Y23536D02*
G01X42361Y23536D01*
G01X42361Y22436D01*
G01X43361Y22436D01*
G01X43361Y23536D01*
G37*
G36*
G01X33889Y18295D02*
G01X34690Y18295D01*
G01X34690Y19295D01*
G01X33889Y19295D01*
G01X33889Y18295D01*
G37*
G36*
G01X36429Y18295D02*
G01X37230Y18295D01*
G01X37230Y19295D01*
G01X36429Y19295D01*
G01X36429Y18295D01*
G37*
G36*
G01X27139Y25438D02*
G01X27139Y23837D01*
G01X28740Y23837D01*
G01X28740Y25438D01*
G01X27139Y25438D01*
G37*
G36*
G01X27139Y22639D02*
G01X27139Y21038D01*
G01X28740Y21038D01*
G01X28740Y22639D01*
G01X27139Y22639D01*
G37*
G36*
G01X44761Y12487D02*
G01X43761Y12487D01*
G01X43761Y11387D01*
G01X44761Y11387D01*
G01X44761Y12487D01*
G37*
G36*
G01X43361Y12487D02*
G01X42361Y12487D01*
G01X42361Y11387D01*
G01X43361Y11387D01*
G01X43361Y12487D01*
G37*
G36*
G01X44888Y17440D02*
G01X43888Y17440D01*
G01X43888Y16340D01*
G01X44888Y16340D01*
G01X44888Y17440D01*
G37*
G36*
G01X43488Y17440D02*
G01X42488Y17440D01*
G01X42488Y16340D01*
G01X43488Y16340D01*
G01X43488Y17440D01*
G37*
G36*
G01X44888Y15789D02*
G01X43888Y15789D01*
G01X43888Y14689D01*
G01X44888Y14689D01*
G01X44888Y15789D01*
G37*
G36*
G01X43488Y15789D02*
G01X42488Y15789D01*
G01X42488Y14689D01*
G01X43488Y14689D01*
G01X43488Y15789D01*
G37*
G36*
G01X34016Y9278D02*
G01X34817Y9278D01*
G01X34817Y10278D01*
G01X34016Y10278D01*
G01X34016Y9278D01*
G37*
G36*
G01X36556Y9278D02*
G01X37357Y9278D01*
G01X37357Y10278D01*
G01X36556Y10278D01*
G01X36556Y9278D01*
G37*
G36*
G01X27139Y15913D02*
G01X27139Y14312D01*
G01X28740Y14312D01*
G01X28740Y15913D01*
G01X27139Y15913D01*
G37*
G36*
G01X27139Y13114D02*
G01X27139Y11513D01*
G01X28740Y11513D01*
G01X28740Y13114D01*
G01X27139Y13114D01*
G37*
G36*
G01X1974Y15579D02*
G01X2974Y15579D01*
G01X2974Y16679D01*
G01X1974Y16679D01*
G01X1974Y15579D01*
G37*
G36*
G01X3374Y15579D02*
G01X4374Y15579D01*
G01X4374Y16679D01*
G01X3374Y16679D01*
G01X3374Y15579D01*
G37*
G36*
G01X10499Y24187D02*
G01X10499Y23187D01*
G01X11599Y23187D01*
G01X11599Y24187D01*
G01X10499Y24187D01*
G37*
G36*
G01X10499Y22787D02*
G01X10499Y21787D01*
G01X11599Y21787D01*
G01X11599Y22787D01*
G01X10499Y22787D01*
G37*
G54D33*
G01X2286Y11684D03*
G01X2286Y7874D03*
G01X2286Y9779D03*
G54D34*
G01X2159Y1651D03*
G01X4191Y1651D03*
G01X6223Y1651D03*
G01X8255Y1651D03*
G01X10287Y1651D03*
G54D33*
G01X2794Y20066D03*
G01X2794Y25654D03*
G01X2794Y23749D03*
G01X2794Y21971D03*
G54D17*
G01X2286Y12827D03*
G01X1651Y4699D03*
G54D18*
G01X12954Y3429D03*
G01X14097Y20955D03*
G01X2667Y18161D03*
G01X5715Y13462D03*
G01X5334Y16002D03*
G01X6731Y13589D03*
G01X7112Y16129D03*
G01X3937Y8890D03*
G01X8128Y3683D03*
G01X4572Y6223D03*
G01X8636Y4572D03*
G01X12446Y5207D03*
G01X15494Y5969D03*
G01X16891Y6096D03*
G01X11811Y6731D03*
G01X15875Y12573D03*
G01X11303Y12573D03*
G01X26289Y21844D03*
G01X12700Y11176D03*
G01X16129Y11176D03*
G01X1905Y19050D03*
G01X1778Y17272D03*
G01X24130Y10795D03*
G01X21717Y9906D03*
G01X23495Y11684D03*
G01X21463Y11684D03*
G01X9398Y22606D03*
G01X9398Y24638D03*
G01X36449Y6223D03*
G01X41783Y13462D03*
G01X35687Y17145D03*
G01X25400Y5588D03*
G01X21590Y20955D03*
G01X25146Y20955D03*
G01X14732Y22733D03*
G01X35687Y2413D03*
G01X44196Y13462D03*
G01X46355Y1143D03*
G01X28321Y1016D03*
G01X41910Y19939D03*
G01X41910Y5461D03*
G54D17*
G01X36195Y13081D03*
G01X30734Y5207D03*
G01X40208Y16637D03*
G01X38862Y18415D03*
G01X21590Y22733D03*
G01X22098Y8509D03*
G01X15113Y7620D03*
G01X10414Y7493D03*
G01X34163Y21717D03*
G01X21463Y19812D03*
G01X20574Y16637D03*
G01X20447Y13716D03*
G01X26924Y17780D03*
G01X19939Y18669D03*
G01X12700Y20193D03*
G01X14224Y19812D03*
G01X14097Y16764D03*
G01X19685Y19812D03*
G01X31115Y21082D03*
G01X26162Y10160D03*
G01X20828Y12954D03*
G01X21717Y12573D03*
G01X22098Y14097D03*
G01X23241Y3937D03*
G01X22860Y2667D03*
G01X11938Y2540D03*
G01X10922Y5842D03*
G01X11049Y14097D03*
G01X11938Y16891D03*
G01X26162Y12446D03*
G01X23495Y14478D03*
G01X26289Y16510D03*
G01X19558Y8890D03*
G01X19558Y6731D03*
G01X22225Y6731D03*
G01X21463Y15367D03*
G01X19939Y15367D03*
G01X15240Y14859D03*
G01X18669Y18034D03*
G01X20320Y17526D03*
G01X11938Y11811D03*
G01X19812Y11049D03*
G01X26035Y8128D03*
G01X17272Y4826D03*
G01X21844Y5842D03*
G01X21336Y9144D03*
G01X19812Y9652D03*
M00*
M02*
