G04 Layer: TopLayer*
G04 EasyEDA v6.2.44, 2019-10-11T09:46:47+02:00*
G04 b694c453db3c4fbcb19a449f5af86211,674c0623d3a246009f606e19fc16e94a,10*
G04 Gerber Generator version 0.2*
G04 Scale: 100 percent, Rotated: No, Reflected: No *
G04 Dimensions in millimeters *
G04 leading zeros omitted , absolute positions ,3 integer and 3 decimal *
%FSLAX33Y33*%
%MOMM*%
G90*
G71D02*

%ADD11C,0.200000*%
%ADD12C,0.399999*%
%ADD13C,0.499999*%
%ADD14C,1.999996*%
%ADD15C,1.799996*%
%ADD16C,0.599999*%
%ADD17C,0.609600*%
%ADD18C,0.620014*%
%ADD19R,2.999994X3.999992*%
%ADD20R,3.499866X2.499995*%
%ADD21R,1.099998X0.999998*%
%ADD22R,0.999998X1.099998*%
%ADD23R,1.600200X1.600200*%
%ADD24R,3.499993X2.499995*%
%ADD25R,1.199998X2.199996*%
%ADD26R,6.000013X6.499987*%
%ADD27R,0.810260X0.810260*%

%LPD*%
G36*
G01X789Y22254D02*
G01X370Y22254D01*
G01X356Y22253D01*
G01X342Y22250D01*
G01X328Y22245D01*
G01X315Y22238D01*
G01X304Y22229D01*
G01X294Y22219D01*
G01X285Y22207D01*
G01X278Y22195D01*
G01X273Y22181D01*
G01X270Y22167D01*
G01X269Y22152D01*
G01X269Y4390D01*
G01X270Y4375D01*
G01X273Y4361D01*
G01X278Y4347D01*
G01X285Y4335D01*
G01X294Y4323D01*
G01X304Y4313D01*
G01X315Y4304D01*
G01X328Y4297D01*
G01X342Y4292D01*
G01X356Y4289D01*
G01X370Y4288D01*
G01X710Y4288D01*
G01X710Y3095D01*
G01X370Y3095D01*
G01X356Y3094D01*
G01X342Y3091D01*
G01X328Y3086D01*
G01X315Y3079D01*
G01X304Y3070D01*
G01X294Y3060D01*
G01X285Y3048D01*
G01X278Y3036D01*
G01X273Y3022D01*
G01X270Y3008D01*
G01X269Y2993D01*
G01X269Y1070D01*
G01X270Y1055D01*
G01X273Y1041D01*
G01X278Y1027D01*
G01X285Y1015D01*
G01X294Y1003D01*
G01X304Y993D01*
G01X315Y984D01*
G01X328Y977D01*
G01X342Y972D01*
G01X356Y969D01*
G01X370Y968D01*
G01X710Y968D01*
G01X710Y370D01*
G01X711Y356D01*
G01X714Y342D01*
G01X719Y328D01*
G01X726Y315D01*
G01X735Y304D01*
G01X745Y294D01*
G01X757Y285D01*
G01X769Y278D01*
G01X783Y273D01*
G01X797Y270D01*
G01X812Y269D01*
G01X2235Y269D01*
G01X2250Y270D01*
G01X2264Y273D01*
G01X2278Y278D01*
G01X2290Y285D01*
G01X2302Y294D01*
G01X2312Y304D01*
G01X2321Y315D01*
G01X2328Y328D01*
G01X2333Y342D01*
G01X2336Y356D01*
G01X2337Y370D01*
G01X2337Y968D01*
G01X3280Y968D01*
G01X3280Y370D01*
G01X3281Y356D01*
G01X3284Y342D01*
G01X3289Y328D01*
G01X3296Y315D01*
G01X3305Y304D01*
G01X3315Y294D01*
G01X3327Y285D01*
G01X3339Y278D01*
G01X3353Y273D01*
G01X3367Y270D01*
G01X3382Y269D01*
G01X26397Y269D01*
G01X26412Y270D01*
G01X26426Y273D01*
G01X26439Y278D01*
G01X26452Y285D01*
G01X26464Y294D01*
G01X26474Y304D01*
G01X26483Y315D01*
G01X26490Y328D01*
G01X26495Y342D01*
G01X26498Y356D01*
G01X26499Y370D01*
G01X26499Y2558D01*
G01X26500Y2581D01*
G01X26503Y2605D01*
G01X26509Y2628D01*
G01X26516Y2650D01*
G01X26526Y2672D01*
G01X26537Y2693D01*
G01X26551Y2712D01*
G01X26566Y2730D01*
G01X26583Y2747D01*
G01X26601Y2762D01*
G01X26620Y2776D01*
G01X26641Y2787D01*
G01X26663Y2797D01*
G01X26685Y2804D01*
G01X26708Y2810D01*
G01X26732Y2813D01*
G01X26755Y2814D01*
G01X27955Y2814D01*
G01X27979Y2813D01*
G01X28002Y2810D01*
G01X28025Y2804D01*
G01X28048Y2797D01*
G01X28070Y2787D01*
G01X28090Y2776D01*
G01X28110Y2762D01*
G01X28128Y2747D01*
G01X28145Y2730D01*
G01X28160Y2712D01*
G01X28173Y2693D01*
G01X28185Y2672D01*
G01X28194Y2650D01*
G01X28202Y2628D01*
G01X28207Y2605D01*
G01X28211Y2581D01*
G01X28212Y2558D01*
G01X28212Y1684D01*
G01X28213Y1669D01*
G01X28216Y1655D01*
G01X28221Y1641D01*
G01X28228Y1629D01*
G01X28237Y1617D01*
G01X28247Y1607D01*
G01X28258Y1598D01*
G01X28271Y1591D01*
G01X28285Y1586D01*
G01X28299Y1583D01*
G01X28313Y1582D01*
G01X28321Y1582D01*
G01X28355Y1581D01*
G01X28389Y1578D01*
G01X28423Y1573D01*
G01X28456Y1566D01*
G01X28489Y1556D01*
G01X28521Y1545D01*
G01X28553Y1532D01*
G01X28584Y1517D01*
G01X28614Y1500D01*
G01X28642Y1482D01*
G01X28670Y1461D01*
G01X28696Y1440D01*
G01X28721Y1416D01*
G01X28745Y1391D01*
G01X28766Y1365D01*
G01X28787Y1337D01*
G01X28805Y1309D01*
G01X28822Y1279D01*
G01X28837Y1248D01*
G01X28850Y1216D01*
G01X28861Y1184D01*
G01X28871Y1151D01*
G01X28878Y1118D01*
G01X28883Y1084D01*
G01X28886Y1050D01*
G01X28887Y1016D01*
G01X28886Y980D01*
G01X28883Y945D01*
G01X28877Y910D01*
G01X28870Y876D01*
G01X28860Y842D01*
G01X28848Y809D01*
G01X28834Y776D01*
G01X28818Y745D01*
G01X28800Y714D01*
G01X28781Y685D01*
G01X28759Y657D01*
G01X28736Y630D01*
G01X28711Y605D01*
G01X28685Y582D01*
G01X28657Y560D01*
G01X28628Y540D01*
G01X28598Y522D01*
G01X28567Y505D01*
G01X28535Y491D01*
G01X28502Y479D01*
G01X28468Y468D01*
G01X28454Y464D01*
G01X28441Y457D01*
G01X28429Y448D01*
G01X28418Y438D01*
G01X28409Y426D01*
G01X28402Y413D01*
G01X28397Y399D01*
G01X28394Y385D01*
G01X28393Y370D01*
G01X28394Y356D01*
G01X28397Y342D01*
G01X28402Y328D01*
G01X28409Y315D01*
G01X28417Y304D01*
G01X28428Y294D01*
G01X28439Y285D01*
G01X28452Y278D01*
G01X28466Y273D01*
G01X28480Y270D01*
G01X28494Y269D01*
G01X31122Y269D01*
G01X31136Y270D01*
G01X31150Y273D01*
G01X31164Y278D01*
G01X31177Y285D01*
G01X31188Y294D01*
G01X31198Y304D01*
G01X31207Y315D01*
G01X31214Y328D01*
G01X31219Y342D01*
G01X31222Y356D01*
G01X31223Y370D01*
G01X31223Y849D01*
G01X31716Y849D01*
G01X31716Y370D01*
G01X31717Y356D01*
G01X31720Y342D01*
G01X31725Y328D01*
G01X31732Y315D01*
G01X31741Y304D01*
G01X31751Y294D01*
G01X31763Y285D01*
G01X31776Y278D01*
G01X31789Y273D01*
G01X31803Y270D01*
G01X31818Y269D01*
G01X32342Y269D01*
G01X32356Y270D01*
G01X32370Y273D01*
G01X32384Y278D01*
G01X32397Y285D01*
G01X32408Y294D01*
G01X32418Y304D01*
G01X32427Y315D01*
G01X32434Y328D01*
G01X32439Y342D01*
G01X32442Y356D01*
G01X32443Y370D01*
G01X32443Y849D01*
G01X32936Y849D01*
G01X32936Y370D01*
G01X32937Y356D01*
G01X32940Y342D01*
G01X32945Y328D01*
G01X32952Y315D01*
G01X32961Y304D01*
G01X32971Y294D01*
G01X32983Y285D01*
G01X32996Y278D01*
G01X33009Y273D01*
G01X33023Y270D01*
G01X33038Y269D01*
G01X34525Y269D01*
G01X34540Y270D01*
G01X34554Y273D01*
G01X34567Y278D01*
G01X34580Y285D01*
G01X34592Y294D01*
G01X34602Y304D01*
G01X34611Y315D01*
G01X34618Y328D01*
G01X34623Y342D01*
G01X34626Y356D01*
G01X34627Y370D01*
G01X34627Y2558D01*
G01X34628Y2581D01*
G01X34631Y2605D01*
G01X34637Y2628D01*
G01X34644Y2650D01*
G01X34654Y2672D01*
G01X34665Y2693D01*
G01X34679Y2712D01*
G01X34694Y2730D01*
G01X34711Y2747D01*
G01X34729Y2762D01*
G01X34748Y2776D01*
G01X34769Y2787D01*
G01X34791Y2797D01*
G01X34813Y2804D01*
G01X34836Y2810D01*
G01X34860Y2813D01*
G01X34883Y2814D01*
G01X35247Y2814D01*
G01X35261Y2815D01*
G01X35276Y2818D01*
G01X35289Y2823D01*
G01X35302Y2830D01*
G01X35314Y2839D01*
G01X35342Y2863D01*
G01X35372Y2884D01*
G01X35404Y2904D01*
G01X35437Y2921D01*
G01X35470Y2936D01*
G01X35505Y2949D01*
G01X35540Y2960D01*
G01X35576Y2968D01*
G01X35613Y2974D01*
G01X35650Y2978D01*
G01X35687Y2979D01*
G01X35721Y2978D01*
G01X35755Y2975D01*
G01X35789Y2970D01*
G01X35822Y2963D01*
G01X35855Y2953D01*
G01X35887Y2942D01*
G01X35919Y2929D01*
G01X35950Y2914D01*
G01X35980Y2897D01*
G01X36008Y2879D01*
G01X36036Y2859D01*
G01X36062Y2837D01*
G01X36074Y2827D01*
G01X36087Y2820D01*
G01X36102Y2815D01*
G01X36116Y2812D01*
G01X36139Y2808D01*
G01X36161Y2802D01*
G01X36183Y2794D01*
G01X36204Y2784D01*
G01X36224Y2772D01*
G01X36243Y2759D01*
G01X36260Y2743D01*
G01X36276Y2727D01*
G01X36290Y2709D01*
G01X36303Y2690D01*
G01X36314Y2669D01*
G01X36323Y2648D01*
G01X36330Y2626D01*
G01X36336Y2604D01*
G01X36339Y2581D01*
G01X36340Y2558D01*
G01X36340Y370D01*
G01X36341Y356D01*
G01X36344Y342D01*
G01X36349Y328D01*
G01X36356Y315D01*
G01X36365Y304D01*
G01X36375Y294D01*
G01X36386Y285D01*
G01X36399Y278D01*
G01X36413Y273D01*
G01X36427Y270D01*
G01X36441Y269D01*
G01X39250Y269D01*
G01X39264Y270D01*
G01X39278Y273D01*
G01X39292Y278D01*
G01X39305Y285D01*
G01X39316Y294D01*
G01X39326Y304D01*
G01X39335Y315D01*
G01X39342Y328D01*
G01X39347Y342D01*
G01X39350Y356D01*
G01X39351Y370D01*
G01X39351Y849D01*
G01X39844Y849D01*
G01X39844Y370D01*
G01X39845Y356D01*
G01X39848Y342D01*
G01X39853Y328D01*
G01X39860Y315D01*
G01X39869Y304D01*
G01X39879Y294D01*
G01X39891Y285D01*
G01X39904Y278D01*
G01X39917Y273D01*
G01X39931Y270D01*
G01X39946Y269D01*
G01X40470Y269D01*
G01X40484Y270D01*
G01X40498Y273D01*
G01X40512Y278D01*
G01X40525Y285D01*
G01X40536Y294D01*
G01X40546Y304D01*
G01X40555Y315D01*
G01X40562Y328D01*
G01X40567Y342D01*
G01X40570Y356D01*
G01X40571Y370D01*
G01X40571Y849D01*
G01X41064Y849D01*
G01X41064Y370D01*
G01X41065Y356D01*
G01X41068Y342D01*
G01X41073Y328D01*
G01X41080Y315D01*
G01X41089Y304D01*
G01X41099Y294D01*
G01X41111Y285D01*
G01X41124Y278D01*
G01X41137Y273D01*
G01X41151Y270D01*
G01X41166Y269D01*
G01X42653Y269D01*
G01X42668Y270D01*
G01X42682Y273D01*
G01X42695Y278D01*
G01X42708Y285D01*
G01X42720Y294D01*
G01X42730Y304D01*
G01X42739Y315D01*
G01X42746Y328D01*
G01X42751Y342D01*
G01X42754Y356D01*
G01X42755Y370D01*
G01X42755Y2558D01*
G01X42756Y2581D01*
G01X42759Y2605D01*
G01X42765Y2628D01*
G01X42772Y2650D01*
G01X42782Y2672D01*
G01X42793Y2693D01*
G01X42807Y2712D01*
G01X42822Y2730D01*
G01X42839Y2747D01*
G01X42857Y2762D01*
G01X42876Y2776D01*
G01X42897Y2787D01*
G01X42919Y2797D01*
G01X42941Y2804D01*
G01X42964Y2810D01*
G01X42988Y2813D01*
G01X43011Y2814D01*
G01X44211Y2814D01*
G01X44235Y2813D01*
G01X44258Y2810D01*
G01X44281Y2804D01*
G01X44304Y2797D01*
G01X44326Y2787D01*
G01X44346Y2776D01*
G01X44366Y2762D01*
G01X44384Y2747D01*
G01X44401Y2730D01*
G01X44416Y2712D01*
G01X44429Y2693D01*
G01X44441Y2672D01*
G01X44450Y2650D01*
G01X44458Y2628D01*
G01X44463Y2605D01*
G01X44467Y2581D01*
G01X44468Y2558D01*
G01X44468Y1855D01*
G01X44469Y1840D01*
G01X44472Y1826D01*
G01X44477Y1812D01*
G01X44484Y1800D01*
G01X44493Y1788D01*
G01X44503Y1778D01*
G01X44514Y1769D01*
G01X44527Y1762D01*
G01X44541Y1757D01*
G01X44555Y1754D01*
G01X44569Y1753D01*
G01X46100Y1753D01*
G01X46133Y1752D01*
G01X46165Y1747D01*
G01X46196Y1740D01*
G01X46227Y1730D01*
G01X46256Y1717D01*
G01X46271Y1711D01*
G01X46286Y1708D01*
G01X46301Y1707D01*
G01X46309Y1707D01*
G01X46354Y1709D01*
G01X46355Y1709D01*
G01X46389Y1708D01*
G01X46423Y1705D01*
G01X46457Y1700D01*
G01X46490Y1693D01*
G01X46523Y1683D01*
G01X46555Y1672D01*
G01X46587Y1659D01*
G01X46618Y1644D01*
G01X46648Y1627D01*
G01X46676Y1609D01*
G01X46704Y1588D01*
G01X46730Y1567D01*
G01X46755Y1543D01*
G01X46779Y1518D01*
G01X46800Y1492D01*
G01X46821Y1464D01*
G01X46839Y1436D01*
G01X46856Y1406D01*
G01X46871Y1375D01*
G01X46884Y1343D01*
G01X46895Y1311D01*
G01X46905Y1278D01*
G01X46912Y1245D01*
G01X46917Y1211D01*
G01X46920Y1177D01*
G01X46921Y1143D01*
G01X46920Y1108D01*
G01X46917Y1074D01*
G01X46912Y1040D01*
G01X46905Y1007D01*
G01X46895Y974D01*
G01X46884Y942D01*
G01X46871Y910D01*
G01X46856Y879D01*
G01X46839Y849D01*
G01X46821Y821D01*
G01X46800Y793D01*
G01X46779Y767D01*
G01X46755Y742D01*
G01X46730Y718D01*
G01X46704Y697D01*
G01X46676Y676D01*
G01X46648Y658D01*
G01X46618Y641D01*
G01X46587Y626D01*
G01X46555Y613D01*
G01X46523Y602D01*
G01X46490Y592D01*
G01X46457Y585D01*
G01X46423Y580D01*
G01X46389Y577D01*
G01X46355Y576D01*
G01X46321Y577D01*
G01X46287Y580D01*
G01X46253Y585D01*
G01X46220Y592D01*
G01X46187Y601D01*
G01X46155Y612D01*
G01X46123Y625D01*
G01X46093Y640D01*
G01X46063Y657D01*
G01X46035Y675D01*
G01X46007Y695D01*
G01X45981Y717D01*
G01X45956Y740D01*
G01X45933Y764D01*
G01X45911Y790D01*
G01X45890Y818D01*
G01X45872Y846D01*
G01X45855Y876D01*
G01X45840Y906D01*
G01X45826Y937D01*
G01X45815Y969D01*
G01X45809Y984D01*
G01X45801Y998D01*
G01X45790Y1010D01*
G01X45778Y1020D01*
G01X45765Y1029D01*
G01X45750Y1035D01*
G01X45734Y1039D01*
G01X45718Y1040D01*
G01X44569Y1040D01*
G01X44555Y1039D01*
G01X44541Y1036D01*
G01X44527Y1031D01*
G01X44514Y1024D01*
G01X44503Y1015D01*
G01X44493Y1005D01*
G01X44484Y993D01*
G01X44477Y981D01*
G01X44472Y967D01*
G01X44469Y953D01*
G01X44468Y938D01*
G01X44468Y370D01*
G01X44469Y356D01*
G01X44472Y342D01*
G01X44477Y328D01*
G01X44484Y315D01*
G01X44493Y304D01*
G01X44503Y294D01*
G01X44514Y285D01*
G01X44527Y278D01*
G01X44541Y273D01*
G01X44555Y270D01*
G01X44569Y269D01*
G01X47378Y269D01*
G01X47392Y270D01*
G01X47406Y273D01*
G01X47420Y278D01*
G01X47433Y285D01*
G01X47444Y294D01*
G01X47454Y304D01*
G01X47463Y315D01*
G01X47470Y328D01*
G01X47475Y342D01*
G01X47478Y356D01*
G01X47479Y370D01*
G01X47479Y849D01*
G01X47972Y849D01*
G01X47972Y370D01*
G01X47973Y356D01*
G01X47976Y342D01*
G01X47981Y328D01*
G01X47988Y315D01*
G01X47997Y304D01*
G01X48007Y294D01*
G01X48019Y285D01*
G01X48032Y278D01*
G01X48045Y273D01*
G01X48059Y270D01*
G01X48074Y269D01*
G01X48598Y269D01*
G01X48612Y270D01*
G01X48626Y273D01*
G01X48640Y278D01*
G01X48653Y285D01*
G01X48664Y294D01*
G01X48674Y304D01*
G01X48683Y315D01*
G01X48690Y328D01*
G01X48695Y342D01*
G01X48698Y356D01*
G01X48699Y370D01*
G01X48699Y849D01*
G01X49192Y849D01*
G01X49192Y370D01*
G01X49193Y356D01*
G01X49196Y342D01*
G01X49201Y328D01*
G01X49208Y315D01*
G01X49217Y304D01*
G01X49227Y294D01*
G01X49239Y285D01*
G01X49252Y278D01*
G01X49265Y273D01*
G01X49279Y270D01*
G01X49294Y269D01*
G01X49794Y269D01*
G01X49808Y270D01*
G01X49822Y273D01*
G01X49836Y278D01*
G01X49849Y285D01*
G01X49860Y294D01*
G01X49870Y304D01*
G01X49879Y315D01*
G01X49886Y328D01*
G01X49891Y342D01*
G01X49894Y356D01*
G01X49895Y370D01*
G01X49895Y5492D01*
G01X49894Y5506D01*
G01X49891Y5520D01*
G01X49886Y5534D01*
G01X49879Y5546D01*
G01X49870Y5558D01*
G01X49860Y5568D01*
G01X49849Y5577D01*
G01X49836Y5584D01*
G01X49822Y5589D01*
G01X49808Y5592D01*
G01X49794Y5593D01*
G01X49777Y5592D01*
G01X49760Y5587D01*
G01X49744Y5580D01*
G01X49730Y5571D01*
G01X49244Y5182D01*
G01X49220Y5164D01*
G01X49194Y5149D01*
G01X49167Y5135D01*
G01X49140Y5124D01*
G01X49111Y5115D01*
G01X49081Y5109D01*
G01X49052Y5105D01*
G01X49022Y5104D01*
G01X42396Y5104D01*
G01X42379Y5103D01*
G01X42363Y5099D01*
G01X42348Y5092D01*
G01X42334Y5083D01*
G01X42322Y5072D01*
G01X42297Y5047D01*
G01X42270Y5023D01*
G01X42242Y5002D01*
G01X42213Y4982D01*
G01X42182Y4964D01*
G01X42150Y4948D01*
G01X42118Y4934D01*
G01X42084Y4922D01*
G01X42050Y4912D01*
G01X42015Y4904D01*
G01X41980Y4898D01*
G01X41945Y4895D01*
G01X41910Y4894D01*
G01X41875Y4895D01*
G01X41841Y4898D01*
G01X41807Y4903D01*
G01X41774Y4910D01*
G01X41741Y4920D01*
G01X41709Y4931D01*
G01X41677Y4944D01*
G01X41646Y4959D01*
G01X41616Y4976D01*
G01X41588Y4994D01*
G01X41560Y5015D01*
G01X41534Y5036D01*
G01X41509Y5060D01*
G01X41485Y5085D01*
G01X41464Y5111D01*
G01X41443Y5139D01*
G01X41425Y5167D01*
G01X41408Y5197D01*
G01X41393Y5228D01*
G01X41380Y5260D01*
G01X41369Y5292D01*
G01X41359Y5325D01*
G01X41352Y5358D01*
G01X41347Y5392D01*
G01X41344Y5426D01*
G01X41343Y5461D01*
G01X41344Y5495D01*
G01X41347Y5529D01*
G01X41352Y5563D01*
G01X41359Y5596D01*
G01X41369Y5629D01*
G01X41380Y5661D01*
G01X41393Y5693D01*
G01X41408Y5724D01*
G01X41425Y5754D01*
G01X41443Y5782D01*
G01X41464Y5810D01*
G01X41485Y5836D01*
G01X41509Y5861D01*
G01X41534Y5885D01*
G01X41560Y5906D01*
G01X41588Y5927D01*
G01X41616Y5945D01*
G01X41646Y5962D01*
G01X41677Y5977D01*
G01X41709Y5990D01*
G01X41741Y6001D01*
G01X41774Y6011D01*
G01X41807Y6018D01*
G01X41841Y6023D01*
G01X41875Y6026D01*
G01X41910Y6027D01*
G01X41945Y6026D01*
G01X41980Y6023D01*
G01X42015Y6017D01*
G01X42050Y6009D01*
G01X42084Y5999D01*
G01X42118Y5987D01*
G01X42150Y5973D01*
G01X42182Y5957D01*
G01X42213Y5939D01*
G01X42242Y5919D01*
G01X42270Y5898D01*
G01X42297Y5874D01*
G01X42322Y5849D01*
G01X42334Y5838D01*
G01X42348Y5829D01*
G01X42363Y5822D01*
G01X42379Y5818D01*
G01X42396Y5817D01*
G01X42618Y5817D01*
G01X42632Y5818D01*
G01X42646Y5821D01*
G01X42660Y5826D01*
G01X42673Y5833D01*
G01X42684Y5842D01*
G01X42695Y5852D01*
G01X42703Y5864D01*
G01X42710Y5876D01*
G01X42715Y5890D01*
G01X42718Y5904D01*
G01X42719Y5919D01*
G01X42719Y5930D01*
G01X42717Y5960D01*
G01X42717Y11981D01*
G01X42716Y11997D01*
G01X42712Y12012D01*
G01X42706Y12027D01*
G01X42698Y12040D01*
G01X42687Y12053D01*
G01X41874Y12865D01*
G01X41862Y12876D01*
G01X41849Y12884D01*
G01X41834Y12890D01*
G01X41818Y12894D01*
G01X41802Y12895D01*
G01X41783Y12895D01*
G01X41748Y12896D01*
G01X41714Y12899D01*
G01X41680Y12904D01*
G01X41647Y12911D01*
G01X41614Y12921D01*
G01X41582Y12932D01*
G01X41550Y12945D01*
G01X41519Y12960D01*
G01X41489Y12977D01*
G01X41461Y12995D01*
G01X41433Y13016D01*
G01X41407Y13037D01*
G01X41382Y13061D01*
G01X41358Y13086D01*
G01X41337Y13112D01*
G01X41316Y13140D01*
G01X41298Y13168D01*
G01X41281Y13198D01*
G01X41266Y13229D01*
G01X41253Y13261D01*
G01X41242Y13293D01*
G01X41232Y13326D01*
G01X41225Y13359D01*
G01X41220Y13393D01*
G01X41217Y13427D01*
G01X41216Y13461D01*
G01X41218Y13508D01*
G01X41218Y13516D01*
G01X41217Y13531D01*
G01X41214Y13545D01*
G01X41209Y13559D01*
G01X41202Y13571D01*
G01X41193Y13583D01*
G01X41183Y13593D01*
G01X41172Y13602D01*
G01X41159Y13609D01*
G01X41145Y13614D01*
G01X41131Y13617D01*
G01X41117Y13618D01*
G01X41102Y13617D01*
G01X41087Y13613D01*
G01X41073Y13608D01*
G01X41060Y13600D01*
G01X41048Y13591D01*
G01X41038Y13580D01*
G01X41029Y13568D01*
G01X41016Y13547D01*
G01X41001Y13528D01*
G01X40984Y13511D01*
G01X40965Y13495D01*
G01X40946Y13481D01*
G01X40925Y13469D01*
G01X40902Y13459D01*
G01X40879Y13451D01*
G01X40856Y13446D01*
G01X40832Y13442D01*
G01X40808Y13441D01*
G01X40670Y13441D01*
G01X40654Y13440D01*
G01X40639Y13436D01*
G01X40624Y13430D01*
G01X40610Y13422D01*
G01X40598Y13411D01*
G01X40077Y12889D01*
G01X40066Y12877D01*
G01X40058Y12864D01*
G01X40052Y12849D01*
G01X40048Y12834D01*
G01X40047Y12818D01*
G01X40048Y12803D01*
G01X40051Y12789D01*
G01X40056Y12775D01*
G01X40063Y12763D01*
G01X40072Y12751D01*
G01X40082Y12741D01*
G01X40094Y12732D01*
G01X40106Y12725D01*
G01X40120Y12720D01*
G01X40134Y12717D01*
G01X40148Y12716D01*
G01X40845Y12716D01*
G01X40869Y12715D01*
G01X40893Y12712D01*
G01X40916Y12706D01*
G01X40938Y12699D01*
G01X40960Y12689D01*
G01X40981Y12678D01*
G01X41000Y12664D01*
G01X41018Y12649D01*
G01X41035Y12632D01*
G01X41050Y12614D01*
G01X41064Y12595D01*
G01X41075Y12574D01*
G01X41085Y12552D01*
G01X41092Y12530D01*
G01X41098Y12507D01*
G01X41101Y12483D01*
G01X41102Y12459D01*
G01X41102Y5960D01*
G01X41101Y5936D01*
G01X41098Y5912D01*
G01X41092Y5889D01*
G01X41085Y5867D01*
G01X41075Y5845D01*
G01X41064Y5825D01*
G01X41050Y5805D01*
G01X41035Y5787D01*
G01X41018Y5770D01*
G01X41000Y5755D01*
G01X40981Y5741D01*
G01X40960Y5730D01*
G01X40938Y5720D01*
G01X40916Y5713D01*
G01X40893Y5707D01*
G01X40869Y5704D01*
G01X40845Y5703D01*
G01X36695Y5703D01*
G01X36676Y5701D01*
G01X36657Y5696D01*
G01X36624Y5684D01*
G01X36590Y5674D01*
G01X36555Y5666D01*
G01X36520Y5660D01*
G01X36484Y5657D01*
G01X36449Y5656D01*
G01X36413Y5657D01*
G01X36377Y5660D01*
G01X36342Y5666D01*
G01X36307Y5674D01*
G01X36273Y5684D01*
G01X36240Y5696D01*
G01X36221Y5701D01*
G01X36202Y5703D01*
G01X34846Y5703D01*
G01X34822Y5704D01*
G01X34798Y5707D01*
G01X34775Y5713D01*
G01X34753Y5720D01*
G01X34731Y5730D01*
G01X34710Y5741D01*
G01X34691Y5755D01*
G01X34673Y5770D01*
G01X34656Y5787D01*
G01X34641Y5805D01*
G01X34627Y5825D01*
G01X34616Y5845D01*
G01X34606Y5867D01*
G01X34599Y5889D01*
G01X34593Y5912D01*
G01X34590Y5936D01*
G01X34589Y5960D01*
G01X34589Y12122D01*
G01X34588Y12137D01*
G01X34585Y12151D01*
G01X34580Y12165D01*
G01X34573Y12177D01*
G01X34564Y12189D01*
G01X34554Y12199D01*
G01X34542Y12208D01*
G01X34530Y12215D01*
G01X34516Y12220D01*
G01X34502Y12223D01*
G01X34487Y12224D01*
G01X34471Y12223D01*
G01X34456Y12219D01*
G01X34441Y12213D01*
G01X34428Y12205D01*
G01X34416Y12194D01*
G01X34041Y11820D01*
G01X34030Y11807D01*
G01X34022Y11794D01*
G01X34016Y11779D01*
G01X34012Y11764D01*
G01X34011Y11748D01*
G01X34011Y6095D01*
G01X34010Y6068D01*
G01X34007Y6040D01*
G01X34001Y6012D01*
G01X33994Y5985D01*
G01X33984Y5959D01*
G01X33972Y5934D01*
G01X33959Y5909D01*
G01X33943Y5886D01*
G01X33926Y5864D01*
G01X33907Y5843D01*
G01X32383Y4319D01*
G01X32362Y4300D01*
G01X32340Y4283D01*
G01X32317Y4267D01*
G01X32292Y4254D01*
G01X32267Y4242D01*
G01X32241Y4232D01*
G01X32214Y4225D01*
G01X32186Y4219D01*
G01X32158Y4216D01*
G01X32131Y4215D01*
G01X31369Y4215D01*
G01X31341Y4216D01*
G01X31313Y4219D01*
G01X31285Y4225D01*
G01X31258Y4232D01*
G01X31232Y4242D01*
G01X31207Y4254D01*
G01X31182Y4267D01*
G01X31159Y4283D01*
G01X31137Y4300D01*
G01X31116Y4319D01*
G01X30820Y4616D01*
G01X30808Y4626D01*
G01X30794Y4634D01*
G01X30780Y4640D01*
G01X30764Y4644D01*
G01X30748Y4645D01*
G01X30734Y4645D01*
G01X30700Y4646D01*
G01X30666Y4649D01*
G01X30632Y4654D01*
G01X30599Y4661D01*
G01X30566Y4671D01*
G01X30534Y4682D01*
G01X30503Y4695D01*
G01X30473Y4709D01*
G01X30443Y4726D01*
G01X30415Y4745D01*
G01X30387Y4765D01*
G01X30361Y4786D01*
G01X30313Y4834D01*
G01X30292Y4860D01*
G01X30272Y4888D01*
G01X30253Y4916D01*
G01X30236Y4946D01*
G01X30222Y4976D01*
G01X30209Y5007D01*
G01X30198Y5039D01*
G01X30188Y5072D01*
G01X30181Y5105D01*
G01X30176Y5139D01*
G01X30173Y5173D01*
G01X30172Y5207D01*
G01X30173Y5242D01*
G01X30177Y5278D01*
G01X30182Y5313D01*
G01X30190Y5348D01*
G01X30201Y5383D01*
G01X30213Y5416D01*
G01X30227Y5449D01*
G01X30244Y5481D01*
G01X30262Y5512D01*
G01X30283Y5541D01*
G01X30291Y5555D01*
G01X30298Y5570D01*
G01X30301Y5585D01*
G01X30303Y5601D01*
G01X30302Y5616D01*
G01X30299Y5630D01*
G01X30293Y5644D01*
G01X30287Y5656D01*
G01X30278Y5668D01*
G01X30268Y5678D01*
G01X30256Y5687D01*
G01X30243Y5694D01*
G01X30230Y5699D01*
G01X30216Y5702D01*
G01X30201Y5703D01*
G01X26718Y5703D01*
G01X26694Y5704D01*
G01X26670Y5707D01*
G01X26647Y5713D01*
G01X26625Y5720D01*
G01X26603Y5730D01*
G01X26582Y5741D01*
G01X26563Y5755D01*
G01X26545Y5770D01*
G01X26528Y5787D01*
G01X26513Y5805D01*
G01X26499Y5825D01*
G01X26488Y5845D01*
G01X26478Y5867D01*
G01X26471Y5889D01*
G01X26465Y5912D01*
G01X26462Y5936D01*
G01X26461Y5960D01*
G01X26461Y8751D01*
G01X26460Y8766D01*
G01X26457Y8780D01*
G01X26452Y8794D01*
G01X26445Y8806D01*
G01X26436Y8818D01*
G01X26426Y8828D01*
G01X26414Y8837D01*
G01X26402Y8844D01*
G01X26388Y8849D01*
G01X26374Y8852D01*
G01X26359Y8853D01*
G01X25307Y8853D01*
G01X25292Y8852D01*
G01X25278Y8849D01*
G01X25265Y8844D01*
G01X25252Y8837D01*
G01X25240Y8828D01*
G01X25230Y8818D01*
G01X25221Y8806D01*
G01X25214Y8794D01*
G01X25209Y8780D01*
G01X25206Y8766D01*
G01X25205Y8751D01*
G01X25205Y8340D01*
G01X25204Y8315D01*
G01X25200Y8291D01*
G01X25195Y8267D01*
G01X25187Y8244D01*
G01X25176Y8222D01*
G01X25164Y8200D01*
G01X25150Y8180D01*
G01X25134Y8162D01*
G01X25116Y8145D01*
G01X25097Y8130D01*
G01X25076Y8117D01*
G01X25054Y8106D01*
G01X25031Y8097D01*
G01X25017Y8090D01*
G01X25004Y8082D01*
G01X24992Y8072D01*
G01X24981Y8060D01*
G01X24973Y8046D01*
G01X24967Y8032D01*
G01X24964Y8016D01*
G01X24963Y8001D01*
G01X24964Y7985D01*
G01X24967Y7969D01*
G01X24973Y7955D01*
G01X24981Y7941D01*
G01X24992Y7929D01*
G01X25004Y7919D01*
G01X25017Y7911D01*
G01X25031Y7904D01*
G01X25054Y7895D01*
G01X25076Y7884D01*
G01X25097Y7871D01*
G01X25116Y7856D01*
G01X25134Y7839D01*
G01X25150Y7821D01*
G01X25164Y7801D01*
G01X25176Y7779D01*
G01X25187Y7757D01*
G01X25195Y7734D01*
G01X25200Y7710D01*
G01X25204Y7686D01*
G01X25205Y7662D01*
G01X25205Y6562D01*
G01X25204Y6538D01*
G01X25201Y6514D01*
G01X25195Y6491D01*
G01X25188Y6469D01*
G01X25178Y6447D01*
G01X25167Y6426D01*
G01X25153Y6407D01*
G01X25138Y6389D01*
G01X25121Y6372D01*
G01X25103Y6357D01*
G01X25084Y6343D01*
G01X25063Y6332D01*
G01X25041Y6322D01*
G01X25019Y6315D01*
G01X24996Y6309D01*
G01X24972Y6306D01*
G01X24949Y6305D01*
G01X24377Y6305D01*
G01X24361Y6304D01*
G01X24346Y6300D01*
G01X24331Y6294D01*
G01X24318Y6286D01*
G01X24305Y6275D01*
G01X24255Y6224D01*
G01X23963Y5932D01*
G01X23952Y5920D01*
G01X23944Y5907D01*
G01X23938Y5892D01*
G01X23934Y5877D01*
G01X23933Y5861D01*
G01X23934Y5846D01*
G01X23937Y5832D01*
G01X23942Y5818D01*
G01X23949Y5806D01*
G01X23958Y5794D01*
G01X23968Y5784D01*
G01X23980Y5775D01*
G01X23992Y5768D01*
G01X24006Y5763D01*
G01X24020Y5760D01*
G01X24035Y5759D01*
G01X24135Y5759D01*
G01X24135Y5291D01*
G01X23907Y5291D01*
G01X23892Y5290D01*
G01X23878Y5287D01*
G01X23865Y5282D01*
G01X23852Y5275D01*
G01X23840Y5266D01*
G01X23830Y5256D01*
G01X23821Y5244D01*
G01X23814Y5232D01*
G01X23809Y5218D01*
G01X23806Y5204D01*
G01X23805Y5189D01*
G01X23805Y4716D01*
G01X23806Y4701D01*
G01X23809Y4687D01*
G01X23814Y4673D01*
G01X23821Y4661D01*
G01X23830Y4649D01*
G01X23840Y4639D01*
G01X23852Y4630D01*
G01X23865Y4623D01*
G01X23878Y4618D01*
G01X23892Y4615D01*
G01X23907Y4614D01*
G01X24135Y4614D01*
G01X24135Y4146D01*
G01X23949Y4146D01*
G01X23909Y4149D01*
G01X23894Y4150D01*
G01X23879Y4149D01*
G01X23865Y4146D01*
G01X23852Y4141D01*
G01X23839Y4134D01*
G01X23827Y4125D01*
G01X23817Y4115D01*
G01X23808Y4104D01*
G01X23801Y4091D01*
G01X23796Y4077D01*
G01X23793Y4063D01*
G01X23792Y4049D01*
G01X23794Y4031D01*
G01X23800Y3984D01*
G01X23802Y3937D01*
G01X23801Y3902D01*
G01X23798Y3867D01*
G01X23792Y3832D01*
G01X23785Y3798D01*
G01X23775Y3765D01*
G01X23763Y3732D01*
G01X23750Y3700D01*
G01X23734Y3669D01*
G01X23716Y3639D01*
G01X23697Y3610D01*
G01X23676Y3582D01*
G01X23653Y3556D01*
G01X23628Y3531D01*
G01X23618Y3519D01*
G01X23609Y3505D01*
G01X23602Y3490D01*
G01X23598Y3474D01*
G01X23597Y3457D01*
G01X23597Y3047D01*
G01X23596Y3020D01*
G01X23593Y2992D01*
G01X23587Y2964D01*
G01X23580Y2937D01*
G01X23570Y2911D01*
G01X23558Y2886D01*
G01X23545Y2861D01*
G01X23529Y2838D01*
G01X23512Y2816D01*
G01X23493Y2795D01*
G01X23450Y2753D01*
G01X23440Y2741D01*
G01X23432Y2727D01*
G01X23426Y2713D01*
G01X23422Y2697D01*
G01X23421Y2681D01*
G01X23421Y2667D01*
G01X23420Y2633D01*
G01X23417Y2599D01*
G01X23412Y2565D01*
G01X23405Y2532D01*
G01X23395Y2499D01*
G01X23384Y2467D01*
G01X23371Y2436D01*
G01X23357Y2406D01*
G01X23340Y2376D01*
G01X23321Y2348D01*
G01X23301Y2320D01*
G01X23280Y2294D01*
G01X23232Y2246D01*
G01X23206Y2225D01*
G01X23178Y2205D01*
G01X23150Y2186D01*
G01X23120Y2169D01*
G01X23090Y2155D01*
G01X23059Y2142D01*
G01X23027Y2131D01*
G01X22994Y2121D01*
G01X22961Y2114D01*
G01X22927Y2109D01*
G01X22893Y2106D01*
G01X22860Y2105D01*
G01X22826Y2106D01*
G01X22792Y2109D01*
G01X22758Y2114D01*
G01X22725Y2121D01*
G01X22692Y2131D01*
G01X22660Y2142D01*
G01X22629Y2155D01*
G01X22599Y2169D01*
G01X22569Y2186D01*
G01X22541Y2205D01*
G01X22513Y2225D01*
G01X22487Y2246D01*
G01X22439Y2294D01*
G01X22418Y2320D01*
G01X22398Y2348D01*
G01X22379Y2376D01*
G01X22362Y2406D01*
G01X22348Y2436D01*
G01X22335Y2467D01*
G01X22324Y2499D01*
G01X22314Y2532D01*
G01X22307Y2565D01*
G01X22302Y2599D01*
G01X22299Y2633D01*
G01X22298Y2667D01*
G01X22299Y2700D01*
G01X22302Y2734D01*
G01X22307Y2768D01*
G01X22315Y2801D01*
G01X22324Y2834D01*
G01X22335Y2866D01*
G01X22348Y2898D01*
G01X22363Y2928D01*
G01X22380Y2958D01*
G01X22398Y2986D01*
G01X22418Y3014D01*
G01X22440Y3040D01*
G01X22463Y3064D01*
G01X22488Y3088D01*
G01X22514Y3109D01*
G01X22542Y3129D01*
G01X22571Y3148D01*
G01X22600Y3164D01*
G01X22631Y3179D01*
G01X22662Y3192D01*
G01X22694Y3203D01*
G01X22727Y3212D01*
G01X22761Y3219D01*
G01X22794Y3224D01*
G01X22809Y3227D01*
G01X22823Y3232D01*
G01X22836Y3238D01*
G01X22848Y3247D01*
G01X22858Y3257D01*
G01X22867Y3269D01*
G01X22874Y3282D01*
G01X22880Y3296D01*
G01X22883Y3310D01*
G01X22884Y3325D01*
G01X22884Y3457D01*
G01X22883Y3474D01*
G01X22879Y3490D01*
G01X22872Y3505D01*
G01X22863Y3519D01*
G01X22853Y3531D01*
G01X22828Y3556D01*
G01X22805Y3582D01*
G01X22784Y3610D01*
G01X22765Y3639D01*
G01X22747Y3669D01*
G01X22731Y3700D01*
G01X22718Y3732D01*
G01X22706Y3765D01*
G01X22696Y3798D01*
G01X22689Y3832D01*
G01X22683Y3867D01*
G01X22680Y3902D01*
G01X22679Y3936D01*
G01X22679Y3937D01*
G01X22681Y3982D01*
G01X22687Y4028D01*
G01X22688Y4044D01*
G01X22687Y4059D01*
G01X22684Y4073D01*
G01X22679Y4087D01*
G01X22672Y4099D01*
G01X22663Y4111D01*
G01X22653Y4121D01*
G01X22641Y4130D01*
G01X22629Y4137D01*
G01X22615Y4142D01*
G01X22601Y4145D01*
G01X22586Y4146D01*
G01X22549Y4146D01*
G01X22525Y4147D01*
G01X22501Y4150D01*
G01X22478Y4156D01*
G01X22456Y4163D01*
G01X22434Y4173D01*
G01X22414Y4184D01*
G01X22394Y4198D01*
G01X22376Y4213D01*
G01X22359Y4230D01*
G01X22344Y4248D01*
G01X22330Y4267D01*
G01X22319Y4288D01*
G01X22309Y4310D01*
G01X22302Y4332D01*
G01X22296Y4355D01*
G01X22293Y4379D01*
G01X22292Y4403D01*
G01X22292Y5277D01*
G01X22291Y5291D01*
G01X22288Y5305D01*
G01X22283Y5319D01*
G01X22276Y5332D01*
G01X22267Y5343D01*
G01X22257Y5353D01*
G01X22245Y5362D01*
G01X22233Y5369D01*
G01X22219Y5374D01*
G01X22205Y5377D01*
G01X22190Y5378D01*
G01X22172Y5376D01*
G01X22154Y5371D01*
G01X22137Y5363D01*
G01X22107Y5346D01*
G01X22077Y5331D01*
G01X22045Y5318D01*
G01X22013Y5306D01*
G01X21980Y5297D01*
G01X21946Y5290D01*
G01X21912Y5284D01*
G01X21878Y5281D01*
G01X21844Y5280D01*
G01X21810Y5281D01*
G01X21776Y5284D01*
G01X21742Y5289D01*
G01X21709Y5296D01*
G01X21676Y5306D01*
G01X21644Y5317D01*
G01X21613Y5330D01*
G01X21583Y5344D01*
G01X21553Y5361D01*
G01X21525Y5380D01*
G01X21497Y5400D01*
G01X21471Y5421D01*
G01X21423Y5469D01*
G01X21402Y5495D01*
G01X21382Y5523D01*
G01X21363Y5551D01*
G01X21346Y5581D01*
G01X21332Y5611D01*
G01X21319Y5642D01*
G01X21308Y5674D01*
G01X21298Y5707D01*
G01X21291Y5740D01*
G01X21286Y5774D01*
G01X21283Y5808D01*
G01X21282Y5842D01*
G01X21282Y5856D01*
G01X21281Y5872D01*
G01X21277Y5888D01*
G01X21271Y5902D01*
G01X21263Y5916D01*
G01X21253Y5928D01*
G01X21083Y6097D01*
G01X21064Y6118D01*
G01X21047Y6140D01*
G01X21031Y6163D01*
G01X21018Y6188D01*
G01X21006Y6213D01*
G01X20996Y6239D01*
G01X20989Y6266D01*
G01X20983Y6294D01*
G01X20980Y6322D01*
G01X20979Y6349D01*
G01X20979Y8664D01*
G01X20978Y8681D01*
G01X20974Y8697D01*
G01X20967Y8712D01*
G01X20958Y8726D01*
G01X20948Y8738D01*
G01X20923Y8763D01*
G01X20900Y8789D01*
G01X20879Y8817D01*
G01X20860Y8846D01*
G01X20842Y8876D01*
G01X20826Y8907D01*
G01X20813Y8939D01*
G01X20801Y8972D01*
G01X20791Y9005D01*
G01X20784Y9039D01*
G01X20778Y9074D01*
G01X20775Y9109D01*
G01X20774Y9143D01*
G01X20774Y9144D01*
G01X20775Y9178D01*
G01X20778Y9211D01*
G01X20783Y9245D01*
G01X20791Y9278D01*
G01X20800Y9311D01*
G01X20811Y9343D01*
G01X20824Y9375D01*
G01X20839Y9406D01*
G01X20856Y9435D01*
G01X20874Y9464D01*
G01X20895Y9491D01*
G01X20917Y9517D01*
G01X20940Y9542D01*
G01X20965Y9565D01*
G01X20991Y9587D01*
G01X21019Y9607D01*
G01X21048Y9625D01*
G01X21077Y9642D01*
G01X21108Y9657D01*
G01X21121Y9664D01*
G01X21133Y9672D01*
G01X21143Y9682D01*
G01X21152Y9694D01*
G01X21159Y9707D01*
G01X21164Y9721D01*
G01X21167Y9735D01*
G01X21168Y9750D01*
G01X21166Y9773D01*
G01X21157Y9817D01*
G01X21152Y9861D01*
G01X21150Y9905D01*
G01X21151Y9940D01*
G01X21154Y9974D01*
G01X21159Y10008D01*
G01X21166Y10041D01*
G01X21176Y10074D01*
G01X21187Y10106D01*
G01X21200Y10138D01*
G01X21215Y10168D01*
G01X21231Y10198D01*
G01X21250Y10227D01*
G01X21270Y10255D01*
G01X21292Y10281D01*
G01X21316Y10306D01*
G01X21340Y10329D01*
G01X21367Y10351D01*
G01X21394Y10371D01*
G01X21423Y10390D01*
G01X21453Y10407D01*
G01X21483Y10422D01*
G01X21515Y10435D01*
G01X21547Y10446D01*
G01X21580Y10455D01*
G01X21613Y10463D01*
G01X21647Y10468D01*
G01X21681Y10471D01*
G01X21715Y10472D01*
G01X21730Y10473D01*
G01X21744Y10476D01*
G01X21758Y10481D01*
G01X21770Y10488D01*
G01X21782Y10497D01*
G01X21792Y10507D01*
G01X21801Y10519D01*
G01X21808Y10531D01*
G01X21813Y10545D01*
G01X21816Y10559D01*
G01X21817Y10574D01*
G01X21817Y10655D01*
G01X22212Y10655D01*
G01X22212Y10364D01*
G01X22213Y10349D01*
G01X22217Y10335D01*
G01X22222Y10321D01*
G01X22229Y10309D01*
G01X22237Y10297D01*
G01X22248Y10287D01*
G01X22259Y10278D01*
G01X22272Y10271D01*
G01X22285Y10266D01*
G01X22300Y10263D01*
G01X22314Y10262D01*
G01X22643Y10262D01*
G01X22657Y10263D01*
G01X22672Y10266D01*
G01X22685Y10271D01*
G01X22698Y10278D01*
G01X22709Y10287D01*
G01X22720Y10297D01*
G01X22728Y10309D01*
G01X22735Y10321D01*
G01X22740Y10335D01*
G01X22744Y10349D01*
G01X22745Y10364D01*
G01X22745Y10655D01*
G01X23140Y10655D01*
G01X23140Y10555D01*
G01X23141Y10540D01*
G01X23144Y10526D01*
G01X23149Y10512D01*
G01X23156Y10500D01*
G01X23165Y10488D01*
G01X23175Y10478D01*
G01X23187Y10469D01*
G01X23200Y10462D01*
G01X23213Y10457D01*
G01X23227Y10454D01*
G01X23242Y10453D01*
G01X23258Y10454D01*
G01X23273Y10458D01*
G01X23288Y10464D01*
G01X23301Y10472D01*
G01X23314Y10483D01*
G01X23533Y10703D01*
G01X23544Y10715D01*
G01X23552Y10728D01*
G01X23558Y10743D01*
G01X23562Y10759D01*
G01X23563Y10775D01*
G01X23563Y10795D01*
G01X23564Y10833D01*
G01X23568Y10871D01*
G01X23574Y10908D01*
G01X23583Y10945D01*
G01X23595Y10982D01*
G01X23599Y10998D01*
G01X23601Y11015D01*
G01X23599Y11030D01*
G01X23596Y11044D01*
G01X23591Y11058D01*
G01X23584Y11070D01*
G01X23576Y11082D01*
G01X23565Y11092D01*
G01X23554Y11101D01*
G01X23541Y11108D01*
G01X23528Y11113D01*
G01X23513Y11116D01*
G01X23499Y11117D01*
G01X23495Y11117D01*
G01X23458Y11118D01*
G01X23421Y11122D01*
G01X23385Y11128D01*
G01X23350Y11136D01*
G01X23315Y11146D01*
G01X23280Y11159D01*
G01X23241Y11177D01*
G01X23226Y11183D01*
G01X23211Y11186D01*
G01X23196Y11188D01*
G01X22745Y11188D01*
G01X22745Y11225D01*
G01X22744Y11240D01*
G01X22740Y11254D01*
G01X22735Y11268D01*
G01X22728Y11280D01*
G01X22720Y11292D01*
G01X22709Y11302D01*
G01X22698Y11311D01*
G01X22685Y11318D01*
G01X22672Y11323D01*
G01X22657Y11326D01*
G01X22643Y11327D01*
G01X22314Y11327D01*
G01X22300Y11326D01*
G01X22285Y11323D01*
G01X22272Y11318D01*
G01X22259Y11311D01*
G01X22248Y11302D01*
G01X22237Y11292D01*
G01X22229Y11280D01*
G01X22222Y11268D01*
G01X22217Y11254D01*
G01X22213Y11240D01*
G01X22212Y11225D01*
G01X22212Y11188D01*
G01X21761Y11188D01*
G01X21746Y11186D01*
G01X21731Y11183D01*
G01X21716Y11177D01*
G01X21677Y11159D01*
G01X21642Y11146D01*
G01X21607Y11136D01*
G01X21572Y11128D01*
G01X21536Y11122D01*
G01X21499Y11118D01*
G01X21463Y11117D01*
G01X21428Y11118D01*
G01X21394Y11121D01*
G01X21360Y11126D01*
G01X21327Y11133D01*
G01X21294Y11143D01*
G01X21262Y11154D01*
G01X21230Y11167D01*
G01X21199Y11182D01*
G01X21169Y11199D01*
G01X21141Y11217D01*
G01X21113Y11238D01*
G01X21087Y11259D01*
G01X21062Y11283D01*
G01X21038Y11308D01*
G01X21017Y11334D01*
G01X20996Y11362D01*
G01X20978Y11390D01*
G01X20961Y11420D01*
G01X20946Y11451D01*
G01X20933Y11483D01*
G01X20922Y11515D01*
G01X20912Y11548D01*
G01X20905Y11581D01*
G01X20900Y11615D01*
G01X20897Y11649D01*
G01X20896Y11684D01*
G01X20897Y11718D01*
G01X20900Y11753D01*
G01X20906Y11788D01*
G01X20913Y11822D01*
G01X20923Y11856D01*
G01X20934Y11889D01*
G01X20948Y11921D01*
G01X20964Y11952D01*
G01X20981Y11983D01*
G01X21001Y12012D01*
G01X21022Y12040D01*
G01X21045Y12066D01*
G01X21069Y12091D01*
G01X21095Y12115D01*
G01X21122Y12137D01*
G01X21151Y12157D01*
G01X21181Y12175D01*
G01X21193Y12184D01*
G01X21204Y12194D01*
G01X21214Y12206D01*
G01X21222Y12219D01*
G01X21227Y12233D01*
G01X21231Y12248D01*
G01X21232Y12263D01*
G01X21230Y12280D01*
G01X21226Y12295D01*
G01X21220Y12311D01*
G01X21203Y12345D01*
G01X21189Y12381D01*
G01X21182Y12395D01*
G01X21174Y12408D01*
G01X21164Y12420D01*
G01X21152Y12429D01*
G01X21138Y12437D01*
G01X21124Y12443D01*
G01X21109Y12447D01*
G01X21093Y12448D01*
G01X21073Y12446D01*
G01X21053Y12439D01*
G01X21017Y12425D01*
G01X20980Y12413D01*
G01X20943Y12404D01*
G01X20904Y12397D01*
G01X20866Y12393D01*
G01X20828Y12392D01*
G01X20794Y12393D01*
G01X20760Y12396D01*
G01X20726Y12401D01*
G01X20693Y12408D01*
G01X20660Y12418D01*
G01X20628Y12429D01*
G01X20597Y12442D01*
G01X20567Y12456D01*
G01X20537Y12473D01*
G01X20509Y12492D01*
G01X20481Y12512D01*
G01X20455Y12533D01*
G01X20407Y12581D01*
G01X20386Y12607D01*
G01X20366Y12635D01*
G01X20347Y12663D01*
G01X20330Y12693D01*
G01X20316Y12723D01*
G01X20303Y12754D01*
G01X20292Y12786D01*
G01X20282Y12819D01*
G01X20275Y12852D01*
G01X20270Y12886D01*
G01X20267Y12920D01*
G01X20266Y12954D01*
G01X20268Y12997D01*
G01X20273Y13041D01*
G01X20281Y13084D01*
G01X20284Y13107D01*
G01X20283Y13122D01*
G01X20280Y13136D01*
G01X20275Y13150D01*
G01X20268Y13163D01*
G01X20259Y13175D01*
G01X20248Y13185D01*
G01X20236Y13194D01*
G01X20223Y13201D01*
G01X20192Y13215D01*
G01X20162Y13232D01*
G01X20133Y13250D01*
G01X20105Y13270D01*
G01X20078Y13292D01*
G01X20053Y13315D01*
G01X20030Y13340D01*
G01X20007Y13366D01*
G01X19987Y13393D01*
G01X19968Y13422D01*
G01X19951Y13452D01*
G01X19936Y13483D01*
G01X19922Y13514D01*
G01X19911Y13547D01*
G01X19902Y13580D01*
G01X19895Y13613D01*
G01X19889Y13647D01*
G01X19886Y13681D01*
G01X19885Y13715D01*
G01X19885Y13716D01*
G01X19886Y13750D01*
G01X19889Y13785D01*
G01X19895Y13819D01*
G01X19902Y13852D01*
G01X19912Y13886D01*
G01X19923Y13918D01*
G01X19937Y13950D01*
G01X19952Y13981D01*
G01X19969Y14011D01*
G01X19988Y14040D01*
G01X20009Y14068D01*
G01X20032Y14094D01*
G01X20056Y14119D01*
G01X20081Y14142D01*
G01X20108Y14164D01*
G01X20137Y14184D01*
G01X20166Y14202D01*
G01X20179Y14210D01*
G01X20190Y14221D01*
G01X20199Y14233D01*
G01X20207Y14246D01*
G01X20212Y14260D01*
G01X20216Y14275D01*
G01X20217Y14290D01*
G01X20217Y14728D01*
G01X20216Y14742D01*
G01X20213Y14756D01*
G01X20208Y14770D01*
G01X20201Y14783D01*
G01X20192Y14794D01*
G01X20182Y14804D01*
G01X20170Y14813D01*
G01X20158Y14820D01*
G01X20144Y14825D01*
G01X20130Y14828D01*
G01X20115Y14829D01*
G01X20088Y14826D01*
G01X20034Y14813D01*
G01X20016Y14808D01*
G01X19999Y14800D01*
G01X19972Y14785D01*
G01X19944Y14772D01*
G01X19915Y14761D01*
G01X19886Y14752D01*
G01X19856Y14744D01*
G01X19825Y14739D01*
G01X19794Y14736D01*
G01X19763Y14735D01*
G01X19380Y14735D01*
G01X19365Y14734D01*
G01X19351Y14731D01*
G01X19337Y14726D01*
G01X19325Y14719D01*
G01X19313Y14710D01*
G01X19303Y14700D01*
G01X19294Y14688D01*
G01X19287Y14676D01*
G01X19282Y14662D01*
G01X19279Y14648D01*
G01X19278Y14633D01*
G01X19278Y13942D01*
G01X19277Y13918D01*
G01X19274Y13895D01*
G01X19268Y13872D01*
G01X19261Y13849D01*
G01X19251Y13827D01*
G01X19240Y13807D01*
G01X19226Y13787D01*
G01X19211Y13769D01*
G01X19194Y13752D01*
G01X19176Y13737D01*
G01X19157Y13724D01*
G01X19136Y13712D01*
G01X19114Y13703D01*
G01X19092Y13695D01*
G01X19069Y13690D01*
G01X19045Y13686D01*
G01X19022Y13685D01*
G01X15521Y13685D01*
G01X15498Y13686D01*
G01X15474Y13690D01*
G01X15451Y13695D01*
G01X15429Y13703D01*
G01X15407Y13712D01*
G01X15386Y13724D01*
G01X15367Y13737D01*
G01X15349Y13752D01*
G01X15332Y13769D01*
G01X15317Y13787D01*
G01X15303Y13807D01*
G01X15292Y13827D01*
G01X15282Y13849D01*
G01X15275Y13872D01*
G01X15269Y13895D01*
G01X15266Y13918D01*
G01X15265Y13942D01*
G01X15265Y14200D01*
G01X15264Y14215D01*
G01X15261Y14229D01*
G01X15255Y14243D01*
G01X15248Y14256D01*
G01X15239Y14268D01*
G01X15229Y14278D01*
G01X15217Y14286D01*
G01X15203Y14293D01*
G01X15189Y14298D01*
G01X15175Y14301D01*
G01X15141Y14306D01*
G01X15108Y14313D01*
G01X15075Y14322D01*
G01X15043Y14333D01*
G01X15011Y14346D01*
G01X14981Y14360D01*
G01X14951Y14377D01*
G01X14922Y14395D01*
G01X14895Y14415D01*
G01X14869Y14437D01*
G01X14844Y14460D01*
G01X14820Y14485D01*
G01X14799Y14511D01*
G01X14778Y14539D01*
G01X14760Y14567D01*
G01X14743Y14597D01*
G01X14728Y14627D01*
G01X14715Y14659D01*
G01X14704Y14691D01*
G01X14695Y14724D01*
G01X14687Y14757D01*
G01X14682Y14791D01*
G01X14679Y14824D01*
G01X14678Y14859D01*
G01X14679Y14893D01*
G01X14682Y14926D01*
G01X14687Y14960D01*
G01X14695Y14993D01*
G01X14704Y15026D01*
G01X14715Y15058D01*
G01X14728Y15090D01*
G01X14743Y15120D01*
G01X14760Y15150D01*
G01X14778Y15178D01*
G01X14799Y15206D01*
G01X14820Y15232D01*
G01X14844Y15257D01*
G01X14869Y15280D01*
G01X14895Y15302D01*
G01X14922Y15322D01*
G01X14951Y15340D01*
G01X14981Y15357D01*
G01X15011Y15371D01*
G01X15043Y15384D01*
G01X15075Y15395D01*
G01X15108Y15404D01*
G01X15141Y15411D01*
G01X15175Y15416D01*
G01X15189Y15419D01*
G01X15203Y15424D01*
G01X15217Y15431D01*
G01X15229Y15439D01*
G01X15239Y15449D01*
G01X15248Y15461D01*
G01X15255Y15474D01*
G01X15261Y15488D01*
G01X15264Y15502D01*
G01X15265Y15517D01*
G01X15265Y16367D01*
G01X15264Y16382D01*
G01X15261Y16396D01*
G01X15256Y16409D01*
G01X15249Y16422D01*
G01X15240Y16434D01*
G01X15230Y16444D01*
G01X15218Y16453D01*
G01X15206Y16460D01*
G01X15192Y16465D01*
G01X15178Y16468D01*
G01X15163Y16469D01*
G01X15074Y16469D01*
G01X15051Y16470D01*
G01X15027Y16473D01*
G01X15004Y16479D01*
G01X14982Y16486D01*
G01X14960Y16496D01*
G01X14939Y16507D01*
G01X14920Y16521D01*
G01X14902Y16536D01*
G01X14885Y16553D01*
G01X14870Y16571D01*
G01X14856Y16590D01*
G01X14845Y16611D01*
G01X14835Y16633D01*
G01X14828Y16655D01*
G01X14822Y16678D01*
G01X14819Y16702D01*
G01X14818Y16725D01*
G01X14818Y17062D01*
G01X15411Y17062D01*
G01X15411Y16799D01*
G01X15412Y16785D01*
G01X15415Y16771D01*
G01X15420Y16757D01*
G01X15427Y16744D01*
G01X15436Y16733D01*
G01X15446Y16722D01*
G01X15458Y16714D01*
G01X15470Y16707D01*
G01X15484Y16702D01*
G01X15498Y16699D01*
G01X15513Y16698D01*
G01X16236Y16698D01*
G01X16251Y16699D01*
G01X16265Y16702D01*
G01X16279Y16707D01*
G01X16291Y16714D01*
G01X16303Y16723D01*
G01X16313Y16733D01*
G01X16322Y16744D01*
G01X16329Y16757D01*
G01X16334Y16771D01*
G01X16337Y16785D01*
G01X16338Y16799D01*
G01X16338Y17062D01*
G01X16931Y17062D01*
G01X16931Y16799D01*
G01X16932Y16785D01*
G01X16935Y16771D01*
G01X16940Y16757D01*
G01X16947Y16744D01*
G01X16956Y16733D01*
G01X16966Y16723D01*
G01X16978Y16714D01*
G01X16991Y16707D01*
G01X17004Y16702D01*
G01X17018Y16699D01*
G01X17033Y16698D01*
G01X17515Y16698D01*
G01X17530Y16699D01*
G01X17544Y16702D01*
G01X17558Y16707D01*
G01X17570Y16714D01*
G01X17582Y16723D01*
G01X17592Y16733D01*
G01X17601Y16744D01*
G01X17608Y16757D01*
G01X17613Y16771D01*
G01X17616Y16785D01*
G01X17617Y16799D01*
G01X17617Y18210D01*
G01X17616Y18225D01*
G01X17613Y18239D01*
G01X17608Y18253D01*
G01X17601Y18265D01*
G01X17592Y18277D01*
G01X17582Y18287D01*
G01X17570Y18296D01*
G01X17558Y18303D01*
G01X17544Y18308D01*
G01X17530Y18311D01*
G01X17515Y18312D01*
G01X17033Y18312D01*
G01X17018Y18311D01*
G01X17004Y18308D01*
G01X16991Y18303D01*
G01X16978Y18296D01*
G01X16966Y18287D01*
G01X16956Y18277D01*
G01X16947Y18265D01*
G01X16940Y18253D01*
G01X16935Y18239D01*
G01X16932Y18225D01*
G01X16931Y18210D01*
G01X16931Y17989D01*
G01X16338Y17989D01*
G01X16338Y18210D01*
G01X16337Y18225D01*
G01X16334Y18239D01*
G01X16329Y18253D01*
G01X16322Y18265D01*
G01X16313Y18277D01*
G01X16303Y18287D01*
G01X16291Y18296D01*
G01X16279Y18303D01*
G01X16265Y18308D01*
G01X16251Y18311D01*
G01X16236Y18312D01*
G01X15513Y18312D01*
G01X15498Y18311D01*
G01X15484Y18308D01*
G01X15470Y18303D01*
G01X15458Y18296D01*
G01X15446Y18287D01*
G01X15436Y18277D01*
G01X15427Y18265D01*
G01X15420Y18253D01*
G01X15415Y18239D01*
G01X15412Y18225D01*
G01X15411Y18210D01*
G01X15411Y17989D01*
G01X14818Y17989D01*
G01X14818Y18210D01*
G01X14817Y18225D01*
G01X14814Y18239D01*
G01X14809Y18253D01*
G01X14802Y18265D01*
G01X14793Y18277D01*
G01X14783Y18287D01*
G01X14771Y18296D01*
G01X14758Y18303D01*
G01X14745Y18308D01*
G01X14731Y18311D01*
G01X14716Y18312D01*
G01X13588Y18312D01*
G01X13561Y18313D01*
G01X13533Y18316D01*
G01X13505Y18322D01*
G01X13478Y18329D01*
G01X13452Y18339D01*
G01X13427Y18351D01*
G01X13402Y18364D01*
G01X13379Y18380D01*
G01X13357Y18397D01*
G01X13336Y18416D01*
G01X13300Y18453D01*
G01X13288Y18463D01*
G01X13274Y18472D01*
G01X13259Y18478D01*
G01X13244Y18481D01*
G01X13228Y18483D01*
G01X13214Y18482D01*
G01X13199Y18478D01*
G01X13186Y18473D01*
G01X13173Y18466D01*
G01X13162Y18458D01*
G01X13151Y18448D01*
G01X13143Y18436D01*
G01X13136Y18423D01*
G01X13131Y18410D01*
G01X13128Y18395D01*
G01X13126Y18381D01*
G01X13128Y18364D01*
G01X13132Y18348D01*
G01X13139Y18332D01*
G01X13152Y18305D01*
G01X13163Y18278D01*
G01X13172Y18249D01*
G01X13178Y18220D01*
G01X13182Y18190D01*
G01X13183Y18160D01*
G01X13183Y14096D01*
G01X13182Y14069D01*
G01X13179Y14041D01*
G01X13173Y14013D01*
G01X13166Y13986D01*
G01X13156Y13960D01*
G01X13144Y13935D01*
G01X13131Y13910D01*
G01X13115Y13887D01*
G01X13098Y13865D01*
G01X13079Y13844D01*
G01X12444Y13209D01*
G01X12421Y13188D01*
G01X12396Y13169D01*
G01X12369Y13152D01*
G01X12342Y13138D01*
G01X12313Y13126D01*
G01X12299Y13120D01*
G01X12286Y13111D01*
G01X12274Y13101D01*
G01X12264Y13089D01*
G01X12256Y13076D01*
G01X12250Y13061D01*
G01X12247Y13046D01*
G01X12246Y13031D01*
G01X12247Y13016D01*
G01X12250Y13002D01*
G01X12255Y12988D01*
G01X12262Y12976D01*
G01X12270Y12964D01*
G01X12281Y12954D01*
G01X12292Y12945D01*
G01X12305Y12938D01*
G01X12319Y12933D01*
G01X12333Y12930D01*
G01X12347Y12929D01*
G01X15388Y12929D01*
G01X15405Y12930D01*
G01X15421Y12934D01*
G01X15436Y12941D01*
G01X15450Y12950D01*
G01X15462Y12961D01*
G01X15487Y12986D01*
G01X15514Y13010D01*
G01X15542Y13031D01*
G01X15571Y13051D01*
G01X15602Y13069D01*
G01X15634Y13085D01*
G01X15666Y13099D01*
G01X15700Y13111D01*
G01X15734Y13121D01*
G01X15769Y13129D01*
G01X15804Y13135D01*
G01X15839Y13138D01*
G01X15874Y13139D01*
G01X15909Y13138D01*
G01X15943Y13135D01*
G01X15977Y13130D01*
G01X16010Y13123D01*
G01X16043Y13113D01*
G01X16075Y13102D01*
G01X16107Y13089D01*
G01X16138Y13074D01*
G01X16168Y13057D01*
G01X16196Y13039D01*
G01X16224Y13018D01*
G01X16250Y12997D01*
G01X16275Y12973D01*
G01X16299Y12948D01*
G01X16320Y12922D01*
G01X16341Y12894D01*
G01X16359Y12866D01*
G01X16376Y12836D01*
G01X16391Y12805D01*
G01X16404Y12773D01*
G01X16415Y12741D01*
G01X16425Y12708D01*
G01X16432Y12675D01*
G01X16437Y12641D01*
G01X16440Y12607D01*
G01X16441Y12573D01*
G01X16441Y12572D01*
G01X16440Y12534D01*
G01X16436Y12496D01*
G01X16429Y12459D01*
G01X16421Y12422D01*
G01X16409Y12385D01*
G01X16395Y12349D01*
G01X16379Y12315D01*
G01X16373Y12300D01*
G01X16369Y12285D01*
G01X16368Y12269D01*
G01X16369Y12254D01*
G01X16372Y12240D01*
G01X16377Y12226D01*
G01X16384Y12214D01*
G01X16393Y12202D01*
G01X16403Y12192D01*
G01X16415Y12183D01*
G01X16427Y12176D01*
G01X16441Y12171D01*
G01X16455Y12168D01*
G01X16470Y12167D01*
G01X19050Y12167D01*
G01X19077Y12166D01*
G01X19105Y12163D01*
G01X19133Y12157D01*
G01X19160Y12150D01*
G01X19186Y12140D01*
G01X19211Y12128D01*
G01X19236Y12115D01*
G01X19259Y12099D01*
G01X19281Y12082D01*
G01X19302Y12063D01*
G01X19725Y11639D01*
G01X19737Y11629D01*
G01X19751Y11621D01*
G01X19765Y11615D01*
G01X19781Y11611D01*
G01X19797Y11610D01*
G01X19812Y11610D01*
G01X19845Y11609D01*
G01X19879Y11606D01*
G01X19913Y11601D01*
G01X19946Y11594D01*
G01X19979Y11584D01*
G01X20011Y11573D01*
G01X20042Y11560D01*
G01X20072Y11546D01*
G01X20102Y11529D01*
G01X20130Y11510D01*
G01X20158Y11490D01*
G01X20184Y11469D01*
G01X20232Y11421D01*
G01X20253Y11395D01*
G01X20273Y11367D01*
G01X20292Y11339D01*
G01X20309Y11309D01*
G01X20323Y11279D01*
G01X20336Y11248D01*
G01X20347Y11216D01*
G01X20357Y11183D01*
G01X20364Y11150D01*
G01X20369Y11116D01*
G01X20372Y11082D01*
G01X20373Y11049D01*
G01X20372Y11014D01*
G01X20369Y10979D01*
G01X20363Y10944D01*
G01X20356Y10910D01*
G01X20346Y10877D01*
G01X20334Y10844D01*
G01X20321Y10812D01*
G01X20305Y10781D01*
G01X20287Y10751D01*
G01X20268Y10722D01*
G01X20247Y10694D01*
G01X20224Y10668D01*
G01X20199Y10643D01*
G01X20189Y10631D01*
G01X20180Y10617D01*
G01X20173Y10602D01*
G01X20169Y10586D01*
G01X20168Y10569D01*
G01X20168Y10131D01*
G01X20169Y10114D01*
G01X20173Y10098D01*
G01X20180Y10083D01*
G01X20189Y10069D01*
G01X20199Y10057D01*
G01X20224Y10032D01*
G01X20247Y10006D01*
G01X20268Y9978D01*
G01X20287Y9949D01*
G01X20305Y9919D01*
G01X20321Y9888D01*
G01X20334Y9856D01*
G01X20346Y9823D01*
G01X20356Y9790D01*
G01X20363Y9756D01*
G01X20369Y9721D01*
G01X20372Y9686D01*
G01X20373Y9652D01*
G01X20372Y9617D01*
G01X20369Y9583D01*
G01X20364Y9550D01*
G01X20356Y9516D01*
G01X20347Y9484D01*
G01X20336Y9451D01*
G01X20323Y9420D01*
G01X20308Y9389D01*
G01X20291Y9360D01*
G01X20272Y9331D01*
G01X20252Y9304D01*
G01X20230Y9277D01*
G01X20207Y9253D01*
G01X20182Y9229D01*
G01X20155Y9208D01*
G01X20128Y9188D01*
G01X20115Y9177D01*
G01X20104Y9165D01*
G01X20095Y9151D01*
G01X20089Y9136D01*
G01X20085Y9120D01*
G01X20083Y9104D01*
G01X20085Y9087D01*
G01X20089Y9071D01*
G01X20100Y9036D01*
G01X20108Y9000D01*
G01X20114Y8963D01*
G01X20118Y8926D01*
G01X20118Y8889D01*
G01X20118Y8855D01*
G01X20115Y8820D01*
G01X20109Y8785D01*
G01X20102Y8751D01*
G01X20092Y8718D01*
G01X20080Y8685D01*
G01X20067Y8653D01*
G01X20051Y8622D01*
G01X20033Y8592D01*
G01X20014Y8563D01*
G01X19993Y8535D01*
G01X19970Y8509D01*
G01X19945Y8484D01*
G01X19935Y8472D01*
G01X19926Y8458D01*
G01X19919Y8443D01*
G01X19915Y8427D01*
G01X19914Y8410D01*
G01X19914Y7210D01*
G01X19915Y7193D01*
G01X19919Y7177D01*
G01X19926Y7162D01*
G01X19935Y7148D01*
G01X19945Y7136D01*
G01X19970Y7111D01*
G01X19993Y7085D01*
G01X20014Y7057D01*
G01X20033Y7028D01*
G01X20051Y6998D01*
G01X20067Y6967D01*
G01X20080Y6935D01*
G01X20092Y6902D01*
G01X20102Y6869D01*
G01X20109Y6835D01*
G01X20115Y6800D01*
G01X20118Y6765D01*
G01X20119Y6731D01*
G01X20118Y6697D01*
G01X20115Y6663D01*
G01X20110Y6629D01*
G01X20103Y6596D01*
G01X20093Y6563D01*
G01X20082Y6531D01*
G01X20069Y6500D01*
G01X20055Y6470D01*
G01X20038Y6440D01*
G01X20019Y6412D01*
G01X19999Y6384D01*
G01X19978Y6358D01*
G01X19930Y6310D01*
G01X19904Y6289D01*
G01X19876Y6269D01*
G01X19848Y6250D01*
G01X19818Y6233D01*
G01X19788Y6219D01*
G01X19757Y6206D01*
G01X19725Y6195D01*
G01X19692Y6185D01*
G01X19659Y6178D01*
G01X19625Y6173D01*
G01X19591Y6170D01*
G01X19558Y6169D01*
G01X19523Y6170D01*
G01X19488Y6173D01*
G01X19453Y6179D01*
G01X19419Y6186D01*
G01X19386Y6196D01*
G01X19353Y6208D01*
G01X19321Y6221D01*
G01X19290Y6237D01*
G01X19260Y6255D01*
G01X19231Y6274D01*
G01X19203Y6295D01*
G01X19177Y6318D01*
G01X19152Y6343D01*
G01X19140Y6353D01*
G01X19126Y6362D01*
G01X19111Y6369D01*
G01X19095Y6373D01*
G01X19078Y6374D01*
G01X18619Y6374D01*
G01X18604Y6373D01*
G01X18590Y6370D01*
G01X18576Y6365D01*
G01X18564Y6358D01*
G01X18552Y6349D01*
G01X18542Y6339D01*
G01X18533Y6327D01*
G01X18526Y6315D01*
G01X18521Y6301D01*
G01X18518Y6287D01*
G01X18517Y6272D01*
G01X18517Y5714D01*
G01X18516Y5687D01*
G01X18513Y5659D01*
G01X18507Y5631D01*
G01X18500Y5604D01*
G01X18490Y5578D01*
G01X18478Y5553D01*
G01X18465Y5528D01*
G01X18449Y5505D01*
G01X18432Y5483D01*
G01X18413Y5462D01*
G01X17862Y4912D01*
G01X17852Y4900D01*
G01X17844Y4886D01*
G01X17838Y4872D01*
G01X17834Y4856D01*
G01X17833Y4840D01*
G01X17833Y4826D01*
G01X17832Y4792D01*
G01X17829Y4758D01*
G01X17824Y4724D01*
G01X17817Y4691D01*
G01X17807Y4658D01*
G01X17796Y4626D01*
G01X17783Y4595D01*
G01X17769Y4565D01*
G01X17752Y4535D01*
G01X17733Y4507D01*
G01X17713Y4479D01*
G01X17692Y4453D01*
G01X17644Y4405D01*
G01X17618Y4384D01*
G01X17590Y4364D01*
G01X17562Y4345D01*
G01X17532Y4328D01*
G01X17502Y4314D01*
G01X17471Y4301D01*
G01X17439Y4290D01*
G01X17406Y4280D01*
G01X17373Y4273D01*
G01X17339Y4268D01*
G01X17305Y4265D01*
G01X17272Y4264D01*
G01X17238Y4265D01*
G01X17204Y4268D01*
G01X17170Y4273D01*
G01X17137Y4280D01*
G01X17104Y4290D01*
G01X17072Y4301D01*
G01X17041Y4314D01*
G01X17011Y4328D01*
G01X16981Y4345D01*
G01X16953Y4364D01*
G01X16925Y4384D01*
G01X16899Y4405D01*
G01X16851Y4453D01*
G01X16830Y4479D01*
G01X16810Y4507D01*
G01X16791Y4535D01*
G01X16774Y4565D01*
G01X16760Y4595D01*
G01X16747Y4626D01*
G01X16736Y4658D01*
G01X16726Y4691D01*
G01X16719Y4724D01*
G01X16714Y4758D01*
G01X16711Y4792D01*
G01X16710Y4826D01*
G01X16711Y4861D01*
G01X16715Y4896D01*
G01X16720Y4930D01*
G01X16728Y4965D01*
G01X16737Y4999D01*
G01X16749Y5032D01*
G01X16763Y5064D01*
G01X16779Y5095D01*
G01X16797Y5126D01*
G01X16817Y5155D01*
G01X16838Y5183D01*
G01X16862Y5209D01*
G01X16886Y5234D01*
G01X16913Y5257D01*
G01X16940Y5279D01*
G01X16970Y5299D01*
G01X17000Y5317D01*
G01X17031Y5333D01*
G01X17063Y5347D01*
G01X17079Y5355D01*
G01X17093Y5366D01*
G01X17106Y5378D01*
G01X17122Y5375D01*
G01X17138Y5373D01*
G01X17158Y5375D01*
G01X17196Y5382D01*
G01X17234Y5386D01*
G01X17272Y5387D01*
G01X17286Y5387D01*
G01X17302Y5388D01*
G01X17318Y5392D01*
G01X17332Y5398D01*
G01X17346Y5406D01*
G01X17358Y5416D01*
G01X17774Y5832D01*
G01X17785Y5845D01*
G01X17793Y5858D01*
G01X17799Y5873D01*
G01X17803Y5888D01*
G01X17804Y5904D01*
G01X17804Y6477D01*
G01X17805Y6504D01*
G01X17808Y6532D01*
G01X17814Y6560D01*
G01X17821Y6587D01*
G01X17831Y6613D01*
G01X17843Y6638D01*
G01X17856Y6663D01*
G01X17872Y6686D01*
G01X17889Y6708D01*
G01X17908Y6729D01*
G01X18162Y6983D01*
G01X18183Y7002D01*
G01X18205Y7019D01*
G01X18228Y7035D01*
G01X18253Y7048D01*
G01X18278Y7060D01*
G01X18304Y7070D01*
G01X18331Y7077D01*
G01X18359Y7083D01*
G01X18387Y7086D01*
G01X18414Y7087D01*
G01X19078Y7087D01*
G01X19095Y7088D01*
G01X19111Y7092D01*
G01X19126Y7099D01*
G01X19140Y7108D01*
G01X19152Y7118D01*
G01X19170Y7136D01*
G01X19180Y7148D01*
G01X19189Y7162D01*
G01X19196Y7177D01*
G01X19200Y7193D01*
G01X19201Y7210D01*
G01X19201Y7592D01*
G01X19200Y7606D01*
G01X19197Y7621D01*
G01X19192Y7634D01*
G01X19185Y7647D01*
G01X19176Y7659D01*
G01X19166Y7669D01*
G01X19154Y7677D01*
G01X19142Y7684D01*
G01X19128Y7689D01*
G01X19114Y7693D01*
G01X19099Y7694D01*
G01X19077Y7691D01*
G01X19050Y7687D01*
G01X19022Y7685D01*
G01X15774Y7685D01*
G01X15759Y7684D01*
G01X15744Y7680D01*
G01X15730Y7675D01*
G01X15717Y7667D01*
G01X15705Y7657D01*
G01X15694Y7646D01*
G01X15686Y7633D01*
G01X15679Y7619D01*
G01X15675Y7604D01*
G01X15673Y7589D01*
G01X15670Y7552D01*
G01X15664Y7516D01*
G01X15656Y7480D01*
G01X15646Y7445D01*
G01X15634Y7411D01*
G01X15619Y7377D01*
G01X15602Y7345D01*
G01X15583Y7313D01*
G01X15562Y7283D01*
G01X15539Y7255D01*
G01X15531Y7243D01*
G01X15524Y7230D01*
G01X15519Y7217D01*
G01X15516Y7203D01*
G01X15515Y7189D01*
G01X15516Y7174D01*
G01X15519Y7160D01*
G01X15524Y7146D01*
G01X15531Y7134D01*
G01X15540Y7122D01*
G01X15550Y7112D01*
G01X15561Y7103D01*
G01X15574Y7096D01*
G01X15588Y7091D01*
G01X15602Y7088D01*
G01X15616Y7087D01*
G01X16256Y7087D01*
G01X16283Y7086D01*
G01X16311Y7083D01*
G01X16339Y7077D01*
G01X16366Y7070D01*
G01X16392Y7060D01*
G01X16417Y7048D01*
G01X16442Y7035D01*
G01X16465Y7019D01*
G01X16487Y7002D01*
G01X16508Y6983D01*
G01X16799Y6692D01*
G01X16811Y6681D01*
G01X16824Y6673D01*
G01X16839Y6667D01*
G01X16855Y6663D01*
G01X16871Y6662D01*
G01X16890Y6662D01*
G01X16925Y6661D01*
G01X16959Y6658D01*
G01X16993Y6653D01*
G01X17026Y6646D01*
G01X17059Y6636D01*
G01X17091Y6625D01*
G01X17123Y6612D01*
G01X17154Y6597D01*
G01X17184Y6580D01*
G01X17212Y6562D01*
G01X17240Y6541D01*
G01X17266Y6520D01*
G01X17291Y6496D01*
G01X17315Y6471D01*
G01X17336Y6445D01*
G01X17357Y6417D01*
G01X17375Y6389D01*
G01X17392Y6359D01*
G01X17407Y6328D01*
G01X17420Y6296D01*
G01X17431Y6264D01*
G01X17441Y6231D01*
G01X17448Y6198D01*
G01X17453Y6164D01*
G01X17456Y6130D01*
G01X17457Y6096D01*
G01X17456Y6060D01*
G01X17453Y6025D01*
G01X17447Y5990D01*
G01X17439Y5955D01*
G01X17429Y5921D01*
G01X17417Y5887D01*
G01X17403Y5855D01*
G01X17387Y5823D01*
G01X17369Y5792D01*
G01X17349Y5763D01*
G01X17328Y5735D01*
G01X17304Y5708D01*
G01X17279Y5683D01*
G01X17252Y5660D01*
G01X17224Y5638D01*
G01X17195Y5618D01*
G01X17164Y5600D01*
G01X17133Y5583D01*
G01X17100Y5569D01*
G01X17084Y5561D01*
G01X17070Y5551D01*
G01X17058Y5538D01*
G01X17042Y5541D01*
G01X17026Y5543D01*
G01X17005Y5541D01*
G01X16967Y5534D01*
G01X16929Y5530D01*
G01X16891Y5529D01*
G01X16856Y5530D01*
G01X16822Y5533D01*
G01X16788Y5538D01*
G01X16755Y5545D01*
G01X16722Y5555D01*
G01X16690Y5566D01*
G01X16658Y5579D01*
G01X16627Y5594D01*
G01X16597Y5611D01*
G01X16569Y5629D01*
G01X16541Y5650D01*
G01X16515Y5671D01*
G01X16490Y5695D01*
G01X16466Y5720D01*
G01X16445Y5746D01*
G01X16424Y5774D01*
G01X16406Y5802D01*
G01X16389Y5832D01*
G01X16374Y5863D01*
G01X16361Y5895D01*
G01X16350Y5927D01*
G01X16340Y5960D01*
G01X16333Y5993D01*
G01X16328Y6027D01*
G01X16325Y6061D01*
G01X16324Y6096D01*
G01X16324Y6115D01*
G01X16323Y6131D01*
G01X16319Y6147D01*
G01X16313Y6162D01*
G01X16305Y6175D01*
G01X16294Y6187D01*
G01X16180Y6301D01*
G01X16168Y6312D01*
G01X16155Y6320D01*
G01X16140Y6326D01*
G01X16124Y6330D01*
G01X16109Y6331D01*
G01X16094Y6330D01*
G01X16080Y6327D01*
G01X16066Y6322D01*
G01X16054Y6315D01*
G01X16042Y6306D01*
G01X16032Y6296D01*
G01X16023Y6284D01*
G01X16016Y6272D01*
G01X16011Y6258D01*
G01X16008Y6244D01*
G01X16007Y6230D01*
G01X16009Y6209D01*
G01X16015Y6190D01*
G01X16029Y6154D01*
G01X16040Y6118D01*
G01X16049Y6081D01*
G01X16055Y6044D01*
G01X16059Y6006D01*
G01X16060Y5969D01*
G01X16059Y5934D01*
G01X16056Y5900D01*
G01X16051Y5866D01*
G01X16044Y5833D01*
G01X16034Y5800D01*
G01X16023Y5768D01*
G01X16010Y5736D01*
G01X15995Y5705D01*
G01X15978Y5675D01*
G01X15960Y5647D01*
G01X15939Y5619D01*
G01X15918Y5593D01*
G01X15894Y5568D01*
G01X15869Y5544D01*
G01X15843Y5523D01*
G01X15815Y5502D01*
G01X15787Y5484D01*
G01X15757Y5467D01*
G01X15726Y5452D01*
G01X15694Y5439D01*
G01X15662Y5428D01*
G01X15629Y5418D01*
G01X15596Y5411D01*
G01X15562Y5406D01*
G01X15528Y5403D01*
G01X15494Y5402D01*
G01X15458Y5403D01*
G01X15423Y5406D01*
G01X15388Y5412D01*
G01X15353Y5420D01*
G01X15319Y5430D01*
G01X15285Y5442D01*
G01X15253Y5456D01*
G01X15221Y5472D01*
G01X15190Y5490D01*
G01X15161Y5510D01*
G01X15133Y5531D01*
G01X15106Y5555D01*
G01X15081Y5580D01*
G01X15069Y5591D01*
G01X15055Y5600D01*
G01X15040Y5607D01*
G01X15024Y5611D01*
G01X15007Y5612D01*
G01X13397Y5612D01*
G01X13381Y5611D01*
G01X13366Y5607D01*
G01X13351Y5601D01*
G01X13338Y5593D01*
G01X13325Y5582D01*
G01X13042Y5298D01*
G01X13031Y5286D01*
G01X13023Y5273D01*
G01X13017Y5258D01*
G01X13013Y5242D01*
G01X13012Y5226D01*
G01X13012Y5207D01*
G01X13011Y5172D01*
G01X13008Y5138D01*
G01X13003Y5104D01*
G01X12996Y5071D01*
G01X12986Y5038D01*
G01X12975Y5006D01*
G01X12962Y4974D01*
G01X12947Y4943D01*
G01X12930Y4913D01*
G01X12912Y4885D01*
G01X12891Y4857D01*
G01X12870Y4831D01*
G01X12846Y4806D01*
G01X12821Y4782D01*
G01X12795Y4761D01*
G01X12767Y4740D01*
G01X12739Y4722D01*
G01X12709Y4705D01*
G01X12678Y4690D01*
G01X12646Y4677D01*
G01X12614Y4666D01*
G01X12581Y4656D01*
G01X12548Y4649D01*
G01X12514Y4644D01*
G01X12480Y4641D01*
G01X12446Y4640D01*
G01X12411Y4641D01*
G01X12377Y4644D01*
G01X12343Y4649D01*
G01X12310Y4656D01*
G01X12277Y4666D01*
G01X12245Y4677D01*
G01X12213Y4690D01*
G01X12182Y4705D01*
G01X12152Y4722D01*
G01X12124Y4740D01*
G01X12096Y4761D01*
G01X12070Y4782D01*
G01X12045Y4806D01*
G01X12021Y4831D01*
G01X12000Y4857D01*
G01X11979Y4885D01*
G01X11961Y4913D01*
G01X11944Y4943D01*
G01X11929Y4974D01*
G01X11916Y5006D01*
G01X11905Y5038D01*
G01X11895Y5071D01*
G01X11888Y5104D01*
G01X11883Y5138D01*
G01X11880Y5172D01*
G01X11879Y5207D01*
G01X11880Y5241D01*
G01X11883Y5275D01*
G01X11888Y5309D01*
G01X11895Y5342D01*
G01X11905Y5375D01*
G01X11916Y5407D01*
G01X11929Y5439D01*
G01X11944Y5470D01*
G01X11961Y5500D01*
G01X11979Y5528D01*
G01X12000Y5556D01*
G01X12021Y5582D01*
G01X12045Y5607D01*
G01X12070Y5631D01*
G01X12096Y5652D01*
G01X12124Y5673D01*
G01X12152Y5691D01*
G01X12182Y5708D01*
G01X12213Y5723D01*
G01X12245Y5736D01*
G01X12277Y5747D01*
G01X12310Y5757D01*
G01X12343Y5764D01*
G01X12377Y5769D01*
G01X12411Y5772D01*
G01X12446Y5773D01*
G01X12465Y5773D01*
G01X12481Y5774D01*
G01X12497Y5778D01*
G01X12512Y5784D01*
G01X12525Y5792D01*
G01X12537Y5803D01*
G01X12935Y6201D01*
G01X12946Y6213D01*
G01X12954Y6226D01*
G01X12960Y6241D01*
G01X12964Y6256D01*
G01X12965Y6272D01*
G01X12964Y6287D01*
G01X12961Y6301D01*
G01X12956Y6315D01*
G01X12949Y6327D01*
G01X12940Y6339D01*
G01X12930Y6349D01*
G01X12918Y6358D01*
G01X12906Y6365D01*
G01X12892Y6370D01*
G01X12878Y6373D01*
G01X12863Y6374D01*
G01X12297Y6374D01*
G01X12280Y6373D01*
G01X12264Y6369D01*
G01X12249Y6362D01*
G01X12235Y6353D01*
G01X12223Y6342D01*
G01X12198Y6317D01*
G01X12171Y6293D01*
G01X12143Y6272D01*
G01X12114Y6252D01*
G01X12083Y6234D01*
G01X12051Y6218D01*
G01X12019Y6204D01*
G01X11985Y6192D01*
G01X11951Y6182D01*
G01X11916Y6174D01*
G01X11881Y6168D01*
G01X11846Y6165D01*
G01X11810Y6164D01*
G01X11774Y6165D01*
G01X11738Y6169D01*
G01X11701Y6175D01*
G01X11666Y6183D01*
G01X11631Y6193D01*
G01X11596Y6206D01*
G01X11563Y6221D01*
G01X11549Y6226D01*
G01X11534Y6230D01*
G01X11519Y6231D01*
G01X11504Y6230D01*
G01X11490Y6227D01*
G01X11476Y6222D01*
G01X11464Y6215D01*
G01X11452Y6206D01*
G01X11442Y6196D01*
G01X11433Y6184D01*
G01X11426Y6172D01*
G01X11421Y6158D01*
G01X11418Y6144D01*
G01X11417Y6129D01*
G01X11418Y6114D01*
G01X11422Y6099D01*
G01X11427Y6085D01*
G01X11442Y6052D01*
G01X11454Y6019D01*
G01X11464Y5984D01*
G01X11472Y5949D01*
G01X11478Y5913D01*
G01X11482Y5878D01*
G01X11483Y5842D01*
G01X11482Y5807D01*
G01X11479Y5772D01*
G01X11473Y5737D01*
G01X11466Y5703D01*
G01X11456Y5670D01*
G01X11444Y5637D01*
G01X11431Y5605D01*
G01X11415Y5574D01*
G01X11397Y5544D01*
G01X11378Y5515D01*
G01X11357Y5487D01*
G01X11334Y5461D01*
G01X11309Y5436D01*
G01X11299Y5424D01*
G01X11290Y5410D01*
G01X11283Y5395D01*
G01X11279Y5379D01*
G01X11278Y5362D01*
G01X11278Y3745D01*
G01X11279Y3729D01*
G01X11283Y3714D01*
G01X11289Y3699D01*
G01X11297Y3686D01*
G01X11308Y3673D01*
G01X11851Y3130D01*
G01X11863Y3120D01*
G01X11877Y3112D01*
G01X11891Y3106D01*
G01X11907Y3102D01*
G01X11923Y3101D01*
G01X11938Y3101D01*
G01X11971Y3100D01*
G01X12005Y3097D01*
G01X12039Y3092D01*
G01X12072Y3085D01*
G01X12105Y3075D01*
G01X12137Y3064D01*
G01X12168Y3051D01*
G01X12198Y3037D01*
G01X12228Y3020D01*
G01X12256Y3001D01*
G01X12284Y2981D01*
G01X12310Y2960D01*
G01X12358Y2912D01*
G01X12379Y2886D01*
G01X12399Y2858D01*
G01X12418Y2830D01*
G01X12435Y2800D01*
G01X12449Y2770D01*
G01X12462Y2739D01*
G01X12473Y2707D01*
G01X12483Y2674D01*
G01X12490Y2641D01*
G01X12495Y2607D01*
G01X12498Y2573D01*
G01X12499Y2540D01*
G01X12498Y2506D01*
G01X12495Y2472D01*
G01X12490Y2438D01*
G01X12483Y2405D01*
G01X12473Y2372D01*
G01X12462Y2340D01*
G01X12449Y2309D01*
G01X12435Y2279D01*
G01X12418Y2249D01*
G01X12399Y2221D01*
G01X12379Y2193D01*
G01X12358Y2167D01*
G01X12310Y2119D01*
G01X12284Y2098D01*
G01X12256Y2078D01*
G01X12228Y2059D01*
G01X12198Y2042D01*
G01X12168Y2028D01*
G01X12137Y2015D01*
G01X12105Y2004D01*
G01X12072Y1994D01*
G01X12039Y1987D01*
G01X12005Y1982D01*
G01X11971Y1979D01*
G01X11938Y1978D01*
G01X11904Y1979D01*
G01X11870Y1982D01*
G01X11836Y1987D01*
G01X11803Y1994D01*
G01X11770Y2004D01*
G01X11738Y2015D01*
G01X11707Y2028D01*
G01X11677Y2042D01*
G01X11647Y2059D01*
G01X11619Y2078D01*
G01X11591Y2098D01*
G01X11565Y2119D01*
G01X11517Y2167D01*
G01X11496Y2193D01*
G01X11476Y2221D01*
G01X11457Y2249D01*
G01X11440Y2279D01*
G01X11426Y2309D01*
G01X11413Y2340D01*
G01X11402Y2372D01*
G01X11392Y2405D01*
G01X11385Y2438D01*
G01X11380Y2472D01*
G01X11377Y2506D01*
G01X11376Y2540D01*
G01X11376Y2554D01*
G01X11375Y2570D01*
G01X11371Y2586D01*
G01X11365Y2600D01*
G01X11357Y2614D01*
G01X11347Y2626D01*
G01X10669Y3303D01*
G01X10650Y3324D01*
G01X10633Y3346D01*
G01X10617Y3369D01*
G01X10604Y3394D01*
G01X10592Y3419D01*
G01X10582Y3445D01*
G01X10575Y3472D01*
G01X10569Y3500D01*
G01X10566Y3528D01*
G01X10565Y3555D01*
G01X10565Y5362D01*
G01X10564Y5379D01*
G01X10560Y5395D01*
G01X10553Y5410D01*
G01X10544Y5424D01*
G01X10534Y5436D01*
G01X10509Y5461D01*
G01X10486Y5487D01*
G01X10465Y5515D01*
G01X10446Y5544D01*
G01X10428Y5574D01*
G01X10412Y5605D01*
G01X10399Y5637D01*
G01X10387Y5670D01*
G01X10377Y5703D01*
G01X10370Y5737D01*
G01X10364Y5772D01*
G01X10361Y5807D01*
G01X10360Y5841D01*
G01X10360Y5842D01*
G01X10361Y5875D01*
G01X10364Y5909D01*
G01X10369Y5943D01*
G01X10376Y5976D01*
G01X10386Y6009D01*
G01X10397Y6041D01*
G01X10410Y6072D01*
G01X10424Y6102D01*
G01X10441Y6132D01*
G01X10460Y6160D01*
G01X10480Y6188D01*
G01X10501Y6214D01*
G01X10549Y6262D01*
G01X10575Y6283D01*
G01X10603Y6303D01*
G01X10631Y6322D01*
G01X10661Y6339D01*
G01X10691Y6353D01*
G01X10722Y6366D01*
G01X10754Y6377D01*
G01X10787Y6387D01*
G01X10820Y6394D01*
G01X10854Y6399D01*
G01X10888Y6402D01*
G01X10922Y6403D01*
G01X10958Y6402D01*
G01X10993Y6398D01*
G01X11029Y6392D01*
G01X11064Y6384D01*
G01X11099Y6374D01*
G01X11132Y6362D01*
G01X11165Y6347D01*
G01X11179Y6342D01*
G01X11194Y6338D01*
G01X11209Y6337D01*
G01X11224Y6338D01*
G01X11238Y6341D01*
G01X11252Y6346D01*
G01X11264Y6353D01*
G01X11276Y6362D01*
G01X11286Y6372D01*
G01X11295Y6384D01*
G01X11302Y6396D01*
G01X11307Y6410D01*
G01X11310Y6424D01*
G01X11311Y6439D01*
G01X11310Y6454D01*
G01X11306Y6469D01*
G01X11301Y6483D01*
G01X11286Y6516D01*
G01X11273Y6551D01*
G01X11263Y6586D01*
G01X11255Y6621D01*
G01X11249Y6658D01*
G01X11245Y6694D01*
G01X11244Y6731D01*
G01X11245Y6769D01*
G01X11249Y6807D01*
G01X11256Y6844D01*
G01X11264Y6881D01*
G01X11276Y6918D01*
G01X11290Y6954D01*
G01X11306Y6988D01*
G01X11312Y7003D01*
G01X11316Y7018D01*
G01X11317Y7034D01*
G01X11316Y7049D01*
G01X11313Y7063D01*
G01X11308Y7077D01*
G01X11301Y7089D01*
G01X11292Y7101D01*
G01X11282Y7111D01*
G01X11270Y7120D01*
G01X11258Y7127D01*
G01X11244Y7132D01*
G01X11230Y7135D01*
G01X11215Y7136D01*
G01X10893Y7136D01*
G01X10876Y7135D01*
G01X10860Y7131D01*
G01X10845Y7124D01*
G01X10831Y7115D01*
G01X10819Y7105D01*
G01X10794Y7080D01*
G01X10768Y7057D01*
G01X10740Y7036D01*
G01X10711Y7017D01*
G01X10681Y6999D01*
G01X10650Y6983D01*
G01X10618Y6970D01*
G01X10585Y6958D01*
G01X10552Y6948D01*
G01X10518Y6941D01*
G01X10483Y6935D01*
G01X10448Y6932D01*
G01X10414Y6931D01*
G01X10380Y6932D01*
G01X10346Y6935D01*
G01X10312Y6940D01*
G01X10279Y6947D01*
G01X10246Y6957D01*
G01X10214Y6968D01*
G01X10183Y6981D01*
G01X10153Y6995D01*
G01X10123Y7012D01*
G01X10095Y7031D01*
G01X10067Y7051D01*
G01X10041Y7072D01*
G01X9993Y7120D01*
G01X9972Y7146D01*
G01X9952Y7174D01*
G01X9933Y7202D01*
G01X9916Y7232D01*
G01X9902Y7262D01*
G01X9889Y7293D01*
G01X9878Y7325D01*
G01X9868Y7358D01*
G01X9861Y7391D01*
G01X9856Y7425D01*
G01X9853Y7459D01*
G01X9852Y7493D01*
G01X9853Y7527D01*
G01X9856Y7561D01*
G01X9862Y7595D01*
G01X9869Y7629D01*
G01X9878Y7662D01*
G01X9882Y7677D01*
G01X9889Y7691D01*
G01X9902Y7724D01*
G01X9918Y7756D01*
G01X9935Y7787D01*
G01X9955Y7816D01*
G01X9976Y7845D01*
G01X9999Y7871D01*
G01X10024Y7897D01*
G01X10050Y7921D01*
G01X10078Y7943D01*
G01X10090Y7953D01*
G01X10100Y7965D01*
G01X10108Y7979D01*
G01X10114Y7993D01*
G01X10118Y8008D01*
G01X10119Y8024D01*
G01X10119Y8383D01*
G01X10462Y8383D01*
G01X10462Y8339D01*
G01X10460Y8297D01*
G01X10456Y8256D01*
G01X10448Y8215D01*
G01X10437Y8174D01*
G01X10434Y8160D01*
G01X10433Y8144D01*
G01X10434Y8129D01*
G01X10437Y8114D01*
G01X10443Y8099D01*
G01X10451Y8086D01*
G01X10461Y8074D01*
G01X10473Y8063D01*
G01X10486Y8055D01*
G01X10501Y8048D01*
G01X10516Y8044D01*
G01X10550Y8037D01*
G01X10584Y8027D01*
G01X10617Y8016D01*
G01X10649Y8002D01*
G01X10680Y7986D01*
G01X10711Y7969D01*
G01X10740Y7949D01*
G01X10768Y7928D01*
G01X10794Y7905D01*
G01X10819Y7880D01*
G01X10831Y7870D01*
G01X10845Y7861D01*
G01X10860Y7854D01*
G01X10876Y7850D01*
G01X10893Y7849D01*
G01X14538Y7849D01*
G01X14553Y7850D01*
G01X14568Y7854D01*
G01X14582Y7859D01*
G01X14595Y7867D01*
G01X14607Y7876D01*
G01X14618Y7887D01*
G01X14626Y7900D01*
G01X14644Y7929D01*
G01X14664Y7958D01*
G01X14686Y7985D01*
G01X14709Y8010D01*
G01X14734Y8034D01*
G01X14760Y8057D01*
G01X14788Y8078D01*
G01X14817Y8097D01*
G01X14847Y8114D01*
G01X14878Y8129D01*
G01X14910Y8143D01*
G01X14942Y8154D01*
G01X14976Y8164D01*
G01X15009Y8171D01*
G01X15043Y8177D01*
G01X15078Y8180D01*
G01X15113Y8181D01*
G01X15156Y8179D01*
G01X15163Y8179D01*
G01X15178Y8180D01*
G01X15192Y8183D01*
G01X15206Y8188D01*
G01X15218Y8195D01*
G01X15230Y8204D01*
G01X15240Y8214D01*
G01X15249Y8226D01*
G01X15256Y8238D01*
G01X15261Y8252D01*
G01X15264Y8266D01*
G01X15265Y8280D01*
G01X15265Y9474D01*
G01X15264Y9489D01*
G01X15261Y9503D01*
G01X15256Y9517D01*
G01X15249Y9529D01*
G01X15240Y9541D01*
G01X15230Y9551D01*
G01X15218Y9560D01*
G01X15206Y9567D01*
G01X15192Y9572D01*
G01X15178Y9575D01*
G01X15163Y9576D01*
G01X10550Y9576D01*
G01X10535Y9575D01*
G01X10521Y9572D01*
G01X10507Y9567D01*
G01X10495Y9560D01*
G01X10483Y9551D01*
G01X10473Y9541D01*
G01X10464Y9529D01*
G01X10457Y9517D01*
G01X10452Y9503D01*
G01X10449Y9489D01*
G01X10448Y9474D01*
G01X10450Y9453D01*
G01X10457Y9415D01*
G01X10461Y9377D01*
G01X10462Y9339D01*
G01X10462Y9295D01*
G01X10119Y9295D01*
G01X10119Y9474D01*
G01X10118Y9489D01*
G01X10115Y9503D01*
G01X10110Y9517D01*
G01X10103Y9529D01*
G01X10094Y9541D01*
G01X10084Y9551D01*
G01X10072Y9560D01*
G01X10060Y9567D01*
G01X10046Y9572D01*
G01X10032Y9575D01*
G01X10017Y9576D01*
G01X9794Y9576D01*
G01X9779Y9575D01*
G01X9765Y9572D01*
G01X9751Y9567D01*
G01X9739Y9560D01*
G01X9727Y9551D01*
G01X9717Y9541D01*
G01X9708Y9529D01*
G01X9701Y9517D01*
G01X9696Y9503D01*
G01X9693Y9489D01*
G01X9692Y9474D01*
G01X9692Y9295D01*
G01X9294Y9295D01*
G01X9279Y9294D01*
G01X9265Y9291D01*
G01X9251Y9286D01*
G01X9239Y9279D01*
G01X9227Y9270D01*
G01X9217Y9260D01*
G01X9208Y9248D01*
G01X9201Y9235D01*
G01X9196Y9222D01*
G01X9193Y9208D01*
G01X9192Y9193D01*
G01X9192Y8484D01*
G01X9193Y8470D01*
G01X9196Y8456D01*
G01X9201Y8442D01*
G01X9208Y8429D01*
G01X9217Y8418D01*
G01X9227Y8407D01*
G01X9239Y8399D01*
G01X9251Y8392D01*
G01X9265Y8387D01*
G01X9279Y8384D01*
G01X9294Y8383D01*
G01X9692Y8383D01*
G01X9692Y7825D01*
G01X9661Y7839D01*
G01X9631Y7854D01*
G01X9602Y7872D01*
G01X9575Y7891D01*
G01X9548Y7912D01*
G01X9523Y7935D01*
G01X9499Y7959D01*
G01X9477Y7984D01*
G01X9456Y8011D01*
G01X9437Y8039D01*
G01X9419Y8068D01*
G01X9404Y8098D01*
G01X9390Y8128D01*
G01X9378Y8160D01*
G01X9369Y8192D01*
G01X9364Y8206D01*
G01X9357Y8219D01*
G01X9348Y8231D01*
G01X9338Y8242D01*
G01X9326Y8251D01*
G01X9313Y8258D01*
G01X9300Y8263D01*
G01X9285Y8266D01*
G01X9271Y8267D01*
G01X9256Y8266D01*
G01X9241Y8263D01*
G01X9228Y8258D01*
G01X9215Y8251D01*
G01X9203Y8242D01*
G01X9193Y8231D01*
G01X9184Y8219D01*
G01X9177Y8206D01*
G01X9172Y8192D01*
G01X9160Y8154D01*
G01X9145Y8116D01*
G01X9128Y8079D01*
G01X9107Y8044D01*
G01X9099Y8027D01*
G01X9094Y8009D01*
G01X9092Y7990D01*
G01X9092Y6651D01*
G01X9093Y6634D01*
G01X9097Y6618D01*
G01X9104Y6603D01*
G01X9113Y6590D01*
G01X9124Y6577D01*
G01X9140Y6561D01*
G01X9154Y6543D01*
G01X9167Y6523D01*
G01X9178Y6503D01*
G01X9187Y6482D01*
G01X9194Y6460D01*
G01X9199Y6437D01*
G01X9202Y6415D01*
G01X9203Y6392D01*
G01X9203Y5292D01*
G01X9202Y5267D01*
G01X9198Y5242D01*
G01X9192Y5218D01*
G01X9184Y5195D01*
G01X9174Y5172D01*
G01X9161Y5151D01*
G01X9147Y5131D01*
G01X9130Y5113D01*
G01X9112Y5096D01*
G01X9093Y5081D01*
G01X9080Y5070D01*
G01X9069Y5058D01*
G01X9061Y5044D01*
G01X9054Y5029D01*
G01X9050Y5013D01*
G01X9049Y4997D01*
G01X9050Y4980D01*
G01X9055Y4963D01*
G01X9062Y4947D01*
G01X9072Y4932D01*
G01X9094Y4904D01*
G01X9114Y4875D01*
G01X9132Y4844D01*
G01X9148Y4813D01*
G01X9162Y4780D01*
G01X9174Y4746D01*
G01X9184Y4712D01*
G01X9192Y4678D01*
G01X9198Y4642D01*
G01X9201Y4607D01*
G01X9202Y4572D01*
G01X9201Y4537D01*
G01X9198Y4503D01*
G01X9193Y4469D01*
G01X9186Y4436D01*
G01X9176Y4403D01*
G01X9165Y4370D01*
G01X9152Y4339D01*
G01X9137Y4308D01*
G01X9120Y4278D01*
G01X9101Y4249D01*
G01X9081Y4222D01*
G01X9059Y4195D01*
G01X9036Y4170D01*
G01X9011Y4147D01*
G01X8984Y4125D01*
G01X8957Y4105D01*
G01X8928Y4086D01*
G01X8898Y4069D01*
G01X8867Y4054D01*
G01X8835Y4041D01*
G01X8803Y4030D01*
G01X8770Y4021D01*
G01X8736Y4014D01*
G01X8721Y4010D01*
G01X8707Y4004D01*
G01X8693Y3995D01*
G01X8682Y3985D01*
G01X8671Y3973D01*
G01X8663Y3959D01*
G01X8657Y3945D01*
G01X8654Y3930D01*
G01X8653Y3914D01*
G01X8654Y3896D01*
G01X8659Y3879D01*
G01X8672Y3841D01*
G01X8681Y3802D01*
G01X8688Y3762D01*
G01X8693Y3723D01*
G01X8694Y3683D01*
G01X8693Y3647D01*
G01X8690Y3612D01*
G01X8684Y3577D01*
G01X8677Y3543D01*
G01X8667Y3509D01*
G01X8655Y3476D01*
G01X8641Y3443D01*
G01X8625Y3412D01*
G01X8607Y3382D01*
G01X8588Y3352D01*
G01X8566Y3324D01*
G01X8543Y3298D01*
G01X8519Y3273D01*
G01X8492Y3249D01*
G01X8465Y3227D01*
G01X8436Y3207D01*
G01X8405Y3189D01*
G01X8374Y3172D01*
G01X8342Y3158D01*
G01X8309Y3146D01*
G01X8275Y3136D01*
G01X8241Y3127D01*
G01X8206Y3121D01*
G01X8171Y3118D01*
G01X8136Y3116D01*
G01X8113Y3113D01*
G01X8076Y3105D01*
G01X8038Y3101D01*
G01X8001Y3099D01*
G01X4699Y3099D01*
G01X4666Y3100D01*
G01X4634Y3104D01*
G01X4601Y3109D01*
G01X4570Y3117D01*
G01X4539Y3128D01*
G01X4509Y3140D01*
G01X4480Y3155D01*
G01X4452Y3171D01*
G01X4425Y3190D01*
G01X4400Y3210D01*
G01X4376Y3233D01*
G01X3449Y4159D01*
G01X3437Y4170D01*
G01X3423Y4178D01*
G01X3409Y4184D01*
G01X3393Y4188D01*
G01X3377Y4189D01*
G01X3363Y4188D01*
G01X3349Y4185D01*
G01X3335Y4180D01*
G01X3322Y4173D01*
G01X3311Y4164D01*
G01X3300Y4154D01*
G01X3292Y4142D01*
G01X3285Y4130D01*
G01X3280Y4116D01*
G01X3277Y4102D01*
G01X3276Y4087D01*
G01X3277Y4072D01*
G01X3280Y4031D01*
G01X3280Y3095D01*
G01X2337Y3095D01*
G01X2337Y4288D01*
G01X3023Y4288D01*
G01X3064Y4285D01*
G01X3079Y4284D01*
G01X3094Y4285D01*
G01X3108Y4288D01*
G01X3122Y4293D01*
G01X3134Y4300D01*
G01X3146Y4308D01*
G01X3156Y4319D01*
G01X3165Y4330D01*
G01X3172Y4343D01*
G01X3177Y4357D01*
G01X3180Y4371D01*
G01X3181Y4385D01*
G01X3180Y4401D01*
G01X3176Y4417D01*
G01X3170Y4431D01*
G01X3162Y4445D01*
G01X3151Y4457D01*
G01X3106Y4503D01*
G01X3083Y4527D01*
G01X3063Y4552D01*
G01X3044Y4579D01*
G01X3028Y4607D01*
G01X3013Y4636D01*
G01X3001Y4666D01*
G01X2990Y4697D01*
G01X2982Y4728D01*
G01X2977Y4761D01*
G01X2973Y4793D01*
G01X2972Y4825D01*
G01X2972Y6603D01*
G01X2973Y6636D01*
G01X2977Y6669D01*
G01X2982Y6701D01*
G01X2990Y6732D01*
G01X3001Y6763D01*
G01X3013Y6793D01*
G01X3028Y6822D01*
G01X3045Y6851D01*
G01X3063Y6877D01*
G01X3084Y6903D01*
G01X3092Y6914D01*
G01X3099Y6927D01*
G01X3104Y6941D01*
G01X3107Y6955D01*
G01X3109Y6969D01*
G01X3107Y6984D01*
G01X3104Y6998D01*
G01X3099Y7011D01*
G01X3092Y7024D01*
G01X3084Y7036D01*
G01X3073Y7046D01*
G01X3062Y7055D01*
G01X3049Y7062D01*
G01X3036Y7067D01*
G01X3021Y7070D01*
G01X3007Y7071D01*
G01X2749Y7071D01*
G01X2749Y7664D01*
G01X3378Y7664D01*
G01X3393Y7665D01*
G01X3407Y7668D01*
G01X3421Y7673D01*
G01X3433Y7680D01*
G01X3445Y7689D01*
G01X3455Y7699D01*
G01X3464Y7711D01*
G01X3471Y7723D01*
G01X3476Y7737D01*
G01X3479Y7751D01*
G01X3480Y7766D01*
G01X3480Y8489D01*
G01X3479Y8504D01*
G01X3476Y8518D01*
G01X3471Y8532D01*
G01X3464Y8544D01*
G01X3455Y8556D01*
G01X3445Y8566D01*
G01X3433Y8575D01*
G01X3421Y8582D01*
G01X3407Y8587D01*
G01X3393Y8590D01*
G01X3378Y8591D01*
G01X2749Y8591D01*
G01X2749Y9184D01*
G01X3086Y9184D01*
G01X3110Y9183D01*
G01X3135Y9179D01*
G01X3159Y9173D01*
G01X3183Y9165D01*
G01X3205Y9155D01*
G01X3227Y9142D01*
G01X3247Y9127D01*
G01X3265Y9111D01*
G01X3277Y9101D01*
G01X3291Y9092D01*
G01X3305Y9087D01*
G01X3321Y9083D01*
G01X3336Y9082D01*
G01X3353Y9083D01*
G01X3368Y9087D01*
G01X3383Y9093D01*
G01X3397Y9102D01*
G01X3409Y9112D01*
G01X3419Y9125D01*
G01X3428Y9139D01*
G01X3444Y9169D01*
G01X3462Y9199D01*
G01X3482Y9227D01*
G01X3503Y9254D01*
G01X3526Y9280D01*
G01X3551Y9304D01*
G01X3577Y9327D01*
G01X3604Y9348D01*
G01X3633Y9368D01*
G01X3663Y9385D01*
G01X3676Y9394D01*
G01X3687Y9404D01*
G01X3697Y9416D01*
G01X3705Y9430D01*
G01X3710Y9444D01*
G01X3714Y9459D01*
G01X3715Y9474D01*
G01X3714Y9489D01*
G01X3711Y9503D01*
G01X3706Y9517D01*
G01X3699Y9529D01*
G01X3690Y9541D01*
G01X3680Y9551D01*
G01X3668Y9560D01*
G01X3656Y9567D01*
G01X3642Y9572D01*
G01X3628Y9575D01*
G01X3613Y9576D01*
G01X3180Y9576D01*
G01X3147Y9577D01*
G01X3115Y9581D01*
G01X3083Y9586D01*
G01X3051Y9594D01*
G01X3020Y9605D01*
G01X2990Y9617D01*
G01X2961Y9632D01*
G01X2933Y9648D01*
G01X2906Y9667D01*
G01X2881Y9687D01*
G01X2857Y9710D01*
G01X2726Y9840D01*
G01X2714Y9851D01*
G01X2701Y9859D01*
G01X2686Y9865D01*
G01X2670Y9869D01*
G01X2654Y9870D01*
G01X1485Y9870D01*
G01X1462Y9871D01*
G01X1438Y9874D01*
G01X1415Y9880D01*
G01X1393Y9887D01*
G01X1371Y9897D01*
G01X1350Y9908D01*
G01X1331Y9922D01*
G01X1313Y9937D01*
G01X1296Y9954D01*
G01X1281Y9972D01*
G01X1267Y9991D01*
G01X1256Y10012D01*
G01X1246Y10034D01*
G01X1239Y10056D01*
G01X1233Y10079D01*
G01X1230Y10103D01*
G01X1229Y10126D01*
G01X1229Y11295D01*
G01X1228Y11311D01*
G01X1224Y11327D01*
G01X1218Y11342D01*
G01X1209Y11355D01*
G01X1199Y11367D01*
G01X693Y11874D01*
G01X670Y11898D01*
G01X650Y11923D01*
G01X631Y11950D01*
G01X615Y11978D01*
G01X600Y12007D01*
G01X588Y12037D01*
G01X577Y12068D01*
G01X569Y12100D01*
G01X564Y12132D01*
G01X560Y12164D01*
G01X559Y12197D01*
G01X559Y21590D01*
G01X560Y21622D01*
G01X564Y21654D01*
G01X569Y21687D01*
G01X577Y21718D01*
G01X588Y21749D01*
G01X600Y21779D01*
G01X615Y21808D01*
G01X631Y21836D01*
G01X650Y21863D01*
G01X670Y21888D01*
G01X693Y21912D01*
G01X861Y22081D01*
G01X871Y22093D01*
G01X880Y22106D01*
G01X886Y22121D01*
G01X889Y22136D01*
G01X891Y22152D01*
G01X890Y22167D01*
G01X887Y22181D01*
G01X881Y22195D01*
G01X875Y22207D01*
G01X866Y22219D01*
G01X856Y22229D01*
G01X844Y22238D01*
G01X831Y22245D01*
G01X818Y22250D01*
G01X803Y22253D01*
G01X789Y22254D01*
G37*

%LPC*%
G36*
G01X48936Y2819D02*
G01X48699Y2819D01*
G01X48699Y2076D01*
G01X49192Y2076D01*
G01X49192Y2563D01*
G01X49191Y2586D01*
G01X49188Y2610D01*
G01X49182Y2633D01*
G01X49175Y2655D01*
G01X49165Y2677D01*
G01X49154Y2698D01*
G01X49140Y2717D01*
G01X49125Y2735D01*
G01X49108Y2752D01*
G01X49090Y2767D01*
G01X49071Y2781D01*
G01X49050Y2792D01*
G01X49028Y2802D01*
G01X49006Y2809D01*
G01X48983Y2815D01*
G01X48959Y2818D01*
G01X48936Y2819D01*
G37*
G36*
G01X47972Y2819D02*
G01X47736Y2819D01*
G01X47712Y2818D01*
G01X47689Y2815D01*
G01X47666Y2809D01*
G01X47643Y2802D01*
G01X47621Y2792D01*
G01X47601Y2781D01*
G01X47581Y2767D01*
G01X47563Y2752D01*
G01X47546Y2735D01*
G01X47531Y2717D01*
G01X47518Y2698D01*
G01X47506Y2677D01*
G01X47497Y2655D01*
G01X47489Y2633D01*
G01X47484Y2610D01*
G01X47480Y2586D01*
G01X47479Y2563D01*
G01X47479Y2076D01*
G01X47972Y2076D01*
G01X47972Y2819D01*
G37*
G36*
G01X40808Y2819D02*
G01X40571Y2819D01*
G01X40571Y2076D01*
G01X41064Y2076D01*
G01X41064Y2563D01*
G01X41063Y2586D01*
G01X41060Y2610D01*
G01X41054Y2633D01*
G01X41047Y2655D01*
G01X41037Y2677D01*
G01X41026Y2698D01*
G01X41012Y2717D01*
G01X40997Y2735D01*
G01X40980Y2752D01*
G01X40962Y2767D01*
G01X40943Y2781D01*
G01X40922Y2792D01*
G01X40900Y2802D01*
G01X40878Y2809D01*
G01X40855Y2815D01*
G01X40831Y2818D01*
G01X40808Y2819D01*
G37*
G36*
G01X32680Y2819D02*
G01X32443Y2819D01*
G01X32443Y2076D01*
G01X32936Y2076D01*
G01X32936Y2563D01*
G01X32935Y2586D01*
G01X32932Y2610D01*
G01X32926Y2633D01*
G01X32919Y2655D01*
G01X32909Y2677D01*
G01X32898Y2698D01*
G01X32884Y2717D01*
G01X32869Y2735D01*
G01X32852Y2752D01*
G01X32834Y2767D01*
G01X32815Y2781D01*
G01X32794Y2792D01*
G01X32772Y2802D01*
G01X32750Y2809D01*
G01X32727Y2815D01*
G01X32703Y2818D01*
G01X32680Y2819D01*
G37*
G36*
G01X39844Y2819D02*
G01X39608Y2819D01*
G01X39584Y2818D01*
G01X39561Y2815D01*
G01X39538Y2809D01*
G01X39515Y2802D01*
G01X39493Y2792D01*
G01X39473Y2781D01*
G01X39453Y2767D01*
G01X39435Y2752D01*
G01X39418Y2735D01*
G01X39403Y2717D01*
G01X39390Y2698D01*
G01X39378Y2677D01*
G01X39369Y2655D01*
G01X39361Y2633D01*
G01X39356Y2610D01*
G01X39352Y2586D01*
G01X39351Y2563D01*
G01X39351Y2076D01*
G01X39844Y2076D01*
G01X39844Y2819D01*
G37*
G36*
G01X31716Y2819D02*
G01X31480Y2819D01*
G01X31456Y2818D01*
G01X31433Y2815D01*
G01X31410Y2809D01*
G01X31387Y2802D01*
G01X31365Y2792D01*
G01X31345Y2781D01*
G01X31325Y2767D01*
G01X31307Y2752D01*
G01X31290Y2735D01*
G01X31275Y2717D01*
G01X31262Y2698D01*
G01X31250Y2677D01*
G01X31241Y2655D01*
G01X31233Y2633D01*
G01X31228Y2610D01*
G01X31224Y2586D01*
G01X31223Y2563D01*
G01X31223Y2076D01*
G01X31716Y2076D01*
G01X31716Y2819D01*
G37*
G36*
G01X1822Y9184D02*
G01X1485Y9184D01*
G01X1462Y9183D01*
G01X1438Y9180D01*
G01X1415Y9174D01*
G01X1393Y9167D01*
G01X1371Y9157D01*
G01X1350Y9146D01*
G01X1331Y9132D01*
G01X1313Y9117D01*
G01X1296Y9100D01*
G01X1281Y9082D01*
G01X1267Y9063D01*
G01X1256Y9042D01*
G01X1246Y9020D01*
G01X1239Y8998D01*
G01X1233Y8975D01*
G01X1230Y8951D01*
G01X1229Y8928D01*
G01X1229Y8591D01*
G01X1822Y8591D01*
G01X1822Y9184D01*
G37*
G36*
G01X1822Y7664D02*
G01X1229Y7664D01*
G01X1229Y7327D01*
G01X1230Y7304D01*
G01X1233Y7280D01*
G01X1239Y7257D01*
G01X1246Y7235D01*
G01X1256Y7213D01*
G01X1267Y7192D01*
G01X1281Y7173D01*
G01X1296Y7155D01*
G01X1313Y7138D01*
G01X1331Y7123D01*
G01X1350Y7109D01*
G01X1371Y7098D01*
G01X1393Y7088D01*
G01X1415Y7081D01*
G01X1438Y7075D01*
G01X1462Y7072D01*
G01X1485Y7071D01*
G01X1822Y7071D01*
G01X1822Y7664D01*
G37*
G36*
G01X24949Y5759D02*
G01X24762Y5759D01*
G01X24762Y5291D01*
G01X25205Y5291D01*
G01X25205Y5503D01*
G01X25204Y5526D01*
G01X25201Y5550D01*
G01X25195Y5573D01*
G01X25188Y5595D01*
G01X25178Y5617D01*
G01X25167Y5638D01*
G01X25153Y5657D01*
G01X25138Y5675D01*
G01X25121Y5692D01*
G01X25103Y5707D01*
G01X25084Y5721D01*
G01X25063Y5732D01*
G01X25041Y5742D01*
G01X25019Y5749D01*
G01X24996Y5755D01*
G01X24972Y5758D01*
G01X24949Y5759D01*
G37*
G36*
G01X25205Y4614D02*
G01X24762Y4614D01*
G01X24762Y4146D01*
G01X24949Y4146D01*
G01X24972Y4147D01*
G01X24996Y4150D01*
G01X25019Y4156D01*
G01X25041Y4163D01*
G01X25063Y4173D01*
G01X25084Y4184D01*
G01X25103Y4198D01*
G01X25121Y4213D01*
G01X25138Y4230D01*
G01X25153Y4248D01*
G01X25167Y4267D01*
G01X25178Y4288D01*
G01X25188Y4310D01*
G01X25195Y4332D01*
G01X25201Y4355D01*
G01X25204Y4379D01*
G01X25205Y4403D01*
G01X25205Y4614D01*
G37*

%LPD*%
G36*
G01X5226Y21672D02*
G01X4803Y21672D01*
G01X4788Y21671D01*
G01X4774Y21668D01*
G01X4760Y21663D01*
G01X4748Y21656D01*
G01X4736Y21647D01*
G01X4726Y21637D01*
G01X4717Y21625D01*
G01X4710Y21613D01*
G01X4705Y21599D01*
G01X4702Y21585D01*
G01X4701Y21570D01*
G01X4701Y21039D01*
G01X4258Y21039D01*
G01X4258Y21268D01*
G01X4259Y21275D01*
G01X4258Y21289D01*
G01X4255Y21303D01*
G01X4250Y21317D01*
G01X4243Y21330D01*
G01X4234Y21341D01*
G01X4224Y21352D01*
G01X4212Y21360D01*
G01X4199Y21367D01*
G01X4186Y21372D01*
G01X4172Y21375D01*
G01X4157Y21376D01*
G01X4141Y21375D01*
G01X4126Y21371D01*
G01X4111Y21365D01*
G01X4097Y21357D01*
G01X4085Y21347D01*
G01X3661Y20922D01*
G01X3650Y20910D01*
G01X3642Y20896D01*
G01X3636Y20882D01*
G01X3632Y20866D01*
G01X3631Y20850D01*
G01X3631Y18669D01*
G01X3630Y18636D01*
G01X3626Y18604D01*
G01X3621Y18571D01*
G01X3613Y18540D01*
G01X3602Y18509D01*
G01X3590Y18479D01*
G01X3575Y18450D01*
G01X3559Y18422D01*
G01X3540Y18395D01*
G01X3520Y18370D01*
G01X3497Y18346D01*
G01X3249Y18097D01*
G01X3239Y18086D01*
G01X3231Y18074D01*
G01X3225Y18060D01*
G01X3221Y18046D01*
G01X3213Y18012D01*
G01X3203Y17978D01*
G01X3191Y17945D01*
G01X3176Y17913D01*
G01X3160Y17882D01*
G01X3142Y17852D01*
G01X3121Y17823D01*
G01X3100Y17795D01*
G01X3076Y17769D01*
G01X3051Y17744D01*
G01X3024Y17721D01*
G01X2996Y17700D01*
G01X2967Y17680D01*
G01X2937Y17663D01*
G01X2905Y17647D01*
G01X2873Y17633D01*
G01X2840Y17621D01*
G01X2806Y17611D01*
G01X2772Y17604D01*
G01X2737Y17598D01*
G01X2702Y17595D01*
G01X2667Y17594D01*
G01X2666Y17594D01*
G01X2631Y17595D01*
G01X2596Y17598D01*
G01X2560Y17604D01*
G01X2526Y17612D01*
G01X2491Y17622D01*
G01X2458Y17634D01*
G01X2425Y17648D01*
G01X2411Y17653D01*
G01X2397Y17656D01*
G01X2382Y17658D01*
G01X2368Y17656D01*
G01X2353Y17653D01*
G01X2340Y17648D01*
G01X2327Y17641D01*
G01X2316Y17633D01*
G01X2305Y17622D01*
G01X2297Y17611D01*
G01X2290Y17598D01*
G01X2285Y17585D01*
G01X2282Y17570D01*
G01X2280Y17556D01*
G01X2282Y17541D01*
G01X2285Y17527D01*
G01X2290Y17513D01*
G01X2304Y17480D01*
G01X2316Y17447D01*
G01X2326Y17412D01*
G01X2334Y17378D01*
G01X2340Y17342D01*
G01X2343Y17307D01*
G01X2344Y17272D01*
G01X2343Y17237D01*
G01X2340Y17203D01*
G01X2335Y17169D01*
G01X2328Y17136D01*
G01X2318Y17103D01*
G01X2307Y17071D01*
G01X2294Y17039D01*
G01X2279Y17008D01*
G01X2262Y16978D01*
G01X2244Y16950D01*
G01X2223Y16922D01*
G01X2202Y16896D01*
G01X2178Y16871D01*
G01X2153Y16847D01*
G01X2127Y16826D01*
G01X2099Y16805D01*
G01X2071Y16787D01*
G01X2041Y16770D01*
G01X2010Y16755D01*
G01X1978Y16742D01*
G01X1946Y16731D01*
G01X1913Y16721D01*
G01X1880Y16714D01*
G01X1846Y16709D01*
G01X1812Y16706D01*
G01X1778Y16705D01*
G01X1742Y16706D01*
G01X1707Y16709D01*
G01X1673Y16715D01*
G01X1638Y16722D01*
G01X1605Y16732D01*
G01X1589Y16736D01*
G01X1574Y16737D01*
G01X1559Y16736D01*
G01X1545Y16733D01*
G01X1531Y16728D01*
G01X1519Y16721D01*
G01X1507Y16712D01*
G01X1497Y16702D01*
G01X1488Y16690D01*
G01X1481Y16677D01*
G01X1476Y16664D01*
G01X1473Y16650D01*
G01X1472Y16635D01*
G01X1472Y12428D01*
G01X1473Y12412D01*
G01X1477Y12396D01*
G01X1483Y12382D01*
G01X1491Y12368D01*
G01X1502Y12356D01*
G01X1845Y12013D01*
G01X1857Y12003D01*
G01X1870Y11994D01*
G01X1885Y11988D01*
G01X1901Y11984D01*
G01X1917Y11983D01*
G01X3086Y11983D01*
G01X3109Y11982D01*
G01X3133Y11979D01*
G01X3156Y11973D01*
G01X3178Y11966D01*
G01X3200Y11956D01*
G01X3221Y11945D01*
G01X3240Y11931D01*
G01X3258Y11916D01*
G01X3275Y11900D01*
G01X3290Y11881D01*
G01X3304Y11862D01*
G01X3315Y11841D01*
G01X3325Y11819D01*
G01X3332Y11797D01*
G01X3338Y11774D01*
G01X3341Y11750D01*
G01X3342Y11727D01*
G01X3342Y10591D01*
G01X3343Y10576D01*
G01X3346Y10562D01*
G01X3351Y10548D01*
G01X3358Y10536D01*
G01X3367Y10524D01*
G01X3377Y10514D01*
G01X3389Y10505D01*
G01X3402Y10498D01*
G01X3415Y10493D01*
G01X3429Y10490D01*
G01X3444Y10489D01*
G01X5892Y10489D01*
G01X5907Y10490D01*
G01X5921Y10493D01*
G01X5935Y10498D01*
G01X5947Y10505D01*
G01X5959Y10514D01*
G01X5969Y10524D01*
G01X5978Y10536D01*
G01X5985Y10548D01*
G01X5990Y10562D01*
G01X5993Y10576D01*
G01X5994Y10591D01*
G01X5994Y12817D01*
G01X5993Y12832D01*
G01X5990Y12846D01*
G01X5985Y12860D01*
G01X5978Y12872D01*
G01X5969Y12884D01*
G01X5959Y12894D01*
G01X5947Y12903D01*
G01X5935Y12910D01*
G01X5921Y12915D01*
G01X5907Y12918D01*
G01X5892Y12919D01*
G01X5865Y12915D01*
G01X5828Y12906D01*
G01X5791Y12900D01*
G01X5753Y12896D01*
G01X5715Y12895D01*
G01X5680Y12896D01*
G01X5646Y12899D01*
G01X5612Y12904D01*
G01X5579Y12911D01*
G01X5546Y12921D01*
G01X5514Y12932D01*
G01X5482Y12945D01*
G01X5451Y12960D01*
G01X5421Y12977D01*
G01X5393Y12995D01*
G01X5365Y13016D01*
G01X5339Y13037D01*
G01X5314Y13061D01*
G01X5290Y13086D01*
G01X5269Y13112D01*
G01X5248Y13140D01*
G01X5230Y13168D01*
G01X5213Y13198D01*
G01X5198Y13229D01*
G01X5185Y13261D01*
G01X5174Y13293D01*
G01X5164Y13326D01*
G01X5157Y13359D01*
G01X5152Y13393D01*
G01X5149Y13427D01*
G01X5148Y13462D01*
G01X5148Y13481D01*
G01X5147Y13497D01*
G01X5143Y13513D01*
G01X5137Y13528D01*
G01X5129Y13541D01*
G01X5118Y13553D01*
G01X4954Y13717D01*
G01X4935Y13738D01*
G01X4918Y13760D01*
G01X4902Y13783D01*
G01X4889Y13808D01*
G01X4877Y13833D01*
G01X4867Y13859D01*
G01X4860Y13886D01*
G01X4854Y13914D01*
G01X4851Y13942D01*
G01X4850Y13969D01*
G01X4850Y15679D01*
G01X4849Y15696D01*
G01X4844Y15712D01*
G01X4837Y15728D01*
G01X4821Y15760D01*
G01X4807Y15792D01*
G01X4795Y15826D01*
G01X4785Y15860D01*
G01X4777Y15895D01*
G01X4771Y15930D01*
G01X4768Y15966D01*
G01X4767Y16002D01*
G01X4768Y16042D01*
G01X4773Y16083D01*
G01X4780Y16123D01*
G01X4790Y16162D01*
G01X4803Y16201D01*
G01X4808Y16218D01*
G01X4810Y16236D01*
G01X4808Y16252D01*
G01X4805Y16268D01*
G01X4799Y16282D01*
G01X4790Y16296D01*
G01X4780Y16308D01*
G01X4803Y16306D01*
G01X4818Y16307D01*
G01X4833Y16310D01*
G01X4848Y16316D01*
G01X4861Y16324D01*
G01X4873Y16334D01*
G01X4883Y16345D01*
G01X4906Y16373D01*
G01X4930Y16399D01*
G01X4956Y16424D01*
G01X4983Y16447D01*
G01X5012Y16468D01*
G01X5042Y16488D01*
G01X5074Y16505D01*
G01X5106Y16520D01*
G01X5139Y16534D01*
G01X5173Y16545D01*
G01X5208Y16554D01*
G01X5258Y16564D01*
G01X5273Y16571D01*
G01X5286Y16579D01*
G01X5298Y16589D01*
G01X5309Y16601D01*
G01X5317Y16615D01*
G01X5323Y16630D01*
G01X5327Y16645D01*
G01X5328Y16661D01*
G01X5328Y16806D01*
G01X5556Y16806D01*
G01X5571Y16807D01*
G01X5585Y16810D01*
G01X5598Y16815D01*
G01X5611Y16822D01*
G01X5623Y16831D01*
G01X5633Y16841D01*
G01X5642Y16853D01*
G01X5649Y16865D01*
G01X5654Y16879D01*
G01X5657Y16893D01*
G01X5658Y16908D01*
G01X5658Y17381D01*
G01X5657Y17396D01*
G01X5654Y17410D01*
G01X5649Y17424D01*
G01X5642Y17436D01*
G01X5633Y17448D01*
G01X5623Y17458D01*
G01X5611Y17467D01*
G01X5598Y17474D01*
G01X5585Y17479D01*
G01X5571Y17482D01*
G01X5556Y17483D01*
G01X5328Y17483D01*
G01X5328Y18584D01*
G01X5556Y18584D01*
G01X5571Y18585D01*
G01X5585Y18588D01*
G01X5598Y18593D01*
G01X5611Y18600D01*
G01X5623Y18609D01*
G01X5633Y18619D01*
G01X5642Y18631D01*
G01X5649Y18643D01*
G01X5654Y18657D01*
G01X5657Y18671D01*
G01X5658Y18686D01*
G01X5658Y19159D01*
G01X5657Y19174D01*
G01X5654Y19188D01*
G01X5649Y19202D01*
G01X5642Y19214D01*
G01X5633Y19226D01*
G01X5623Y19236D01*
G01X5611Y19245D01*
G01X5598Y19252D01*
G01X5585Y19257D01*
G01X5571Y19260D01*
G01X5556Y19261D01*
G01X5328Y19261D01*
G01X5328Y20362D01*
G01X5556Y20362D01*
G01X5571Y20363D01*
G01X5585Y20366D01*
G01X5598Y20371D01*
G01X5611Y20378D01*
G01X5623Y20387D01*
G01X5633Y20397D01*
G01X5642Y20409D01*
G01X5649Y20421D01*
G01X5654Y20435D01*
G01X5657Y20449D01*
G01X5658Y20464D01*
G01X5658Y20937D01*
G01X5657Y20952D01*
G01X5654Y20966D01*
G01X5649Y20980D01*
G01X5642Y20992D01*
G01X5633Y21004D01*
G01X5623Y21014D01*
G01X5611Y21023D01*
G01X5598Y21030D01*
G01X5585Y21035D01*
G01X5571Y21038D01*
G01X5556Y21039D01*
G01X5328Y21039D01*
G01X5328Y21570D01*
G01X5327Y21585D01*
G01X5324Y21599D01*
G01X5319Y21613D01*
G01X5312Y21625D01*
G01X5303Y21637D01*
G01X5293Y21647D01*
G01X5281Y21656D01*
G01X5269Y21663D01*
G01X5255Y21668D01*
G01X5241Y21671D01*
G01X5226Y21672D01*
G37*

%LPC*%
G36*
G01X4701Y20362D02*
G01X4258Y20362D01*
G01X4258Y20150D01*
G01X4259Y20126D01*
G01X4263Y20102D01*
G01X4268Y20078D01*
G01X4276Y20055D01*
G01X4287Y20033D01*
G01X4299Y20011D01*
G01X4313Y19991D01*
G01X4329Y19973D01*
G01X4347Y19956D01*
G01X4366Y19941D01*
G01X4387Y19928D01*
G01X4409Y19917D01*
G01X4432Y19908D01*
G01X4446Y19901D01*
G01X4459Y19893D01*
G01X4471Y19883D01*
G01X4482Y19871D01*
G01X4490Y19857D01*
G01X4496Y19843D01*
G01X4499Y19827D01*
G01X4500Y19811D01*
G01X4499Y19796D01*
G01X4496Y19780D01*
G01X4490Y19766D01*
G01X4482Y19752D01*
G01X4471Y19740D01*
G01X4459Y19730D01*
G01X4446Y19722D01*
G01X4432Y19715D01*
G01X4409Y19706D01*
G01X4387Y19695D01*
G01X4366Y19682D01*
G01X4347Y19667D01*
G01X4329Y19650D01*
G01X4313Y19632D01*
G01X4299Y19612D01*
G01X4287Y19590D01*
G01X4276Y19568D01*
G01X4268Y19545D01*
G01X4263Y19521D01*
G01X4259Y19497D01*
G01X4258Y19472D01*
G01X4258Y19261D01*
G01X4701Y19261D01*
G01X4701Y20362D01*
G37*
G36*
G01X4701Y18584D02*
G01X4258Y18584D01*
G01X4258Y18372D01*
G01X4259Y18348D01*
G01X4263Y18324D01*
G01X4268Y18300D01*
G01X4276Y18277D01*
G01X4287Y18255D01*
G01X4299Y18233D01*
G01X4313Y18213D01*
G01X4329Y18195D01*
G01X4347Y18178D01*
G01X4366Y18163D01*
G01X4387Y18150D01*
G01X4409Y18139D01*
G01X4432Y18130D01*
G01X4446Y18123D01*
G01X4459Y18115D01*
G01X4471Y18105D01*
G01X4482Y18093D01*
G01X4490Y18079D01*
G01X4496Y18065D01*
G01X4499Y18049D01*
G01X4500Y18033D01*
G01X4499Y18018D01*
G01X4496Y18002D01*
G01X4490Y17988D01*
G01X4482Y17974D01*
G01X4471Y17962D01*
G01X4459Y17952D01*
G01X4446Y17944D01*
G01X4432Y17937D01*
G01X4409Y17928D01*
G01X4387Y17917D01*
G01X4366Y17904D01*
G01X4347Y17889D01*
G01X4329Y17872D01*
G01X4313Y17854D01*
G01X4299Y17834D01*
G01X4287Y17812D01*
G01X4276Y17790D01*
G01X4268Y17767D01*
G01X4263Y17743D01*
G01X4259Y17719D01*
G01X4258Y17694D01*
G01X4258Y17483D01*
G01X4701Y17483D01*
G01X4701Y18584D01*
G37*
G36*
G01X4701Y16806D02*
G01X4258Y16806D01*
G01X4258Y16594D01*
G01X4259Y16571D01*
G01X4262Y16547D01*
G01X4268Y16524D01*
G01X4275Y16502D01*
G01X4285Y16480D01*
G01X4296Y16459D01*
G01X4310Y16440D01*
G01X4325Y16422D01*
G01X4342Y16405D01*
G01X4360Y16390D01*
G01X4379Y16376D01*
G01X4400Y16365D01*
G01X4422Y16355D01*
G01X4444Y16348D01*
G01X4467Y16342D01*
G01X4491Y16339D01*
G01X4514Y16338D01*
G01X4708Y16338D01*
G01X4731Y16335D01*
G01X4720Y16348D01*
G01X4712Y16361D01*
G01X4706Y16376D01*
G01X4702Y16391D01*
G01X4701Y16407D01*
G01X4701Y16806D01*
G37*

%LPD*%
G36*
G01X14716Y23165D02*
G01X14273Y23165D01*
G01X14258Y23164D01*
G01X14244Y23161D01*
G01X14230Y23156D01*
G01X14218Y23149D01*
G01X14206Y23140D01*
G01X14196Y23130D01*
G01X14187Y23118D01*
G01X14180Y23106D01*
G01X14175Y23092D01*
G01X14172Y23078D01*
G01X14171Y23063D01*
G01X14171Y22379D01*
G01X14172Y22352D01*
G01X14172Y21599D01*
G01X14173Y21584D01*
G01X14176Y21570D01*
G01X14181Y21556D01*
G01X14189Y21543D01*
G01X14197Y21531D01*
G01X14208Y21521D01*
G01X14220Y21513D01*
G01X14233Y21506D01*
G01X14247Y21501D01*
G01X14280Y21490D01*
G01X14313Y21478D01*
G01X14345Y21464D01*
G01X14376Y21447D01*
G01X14406Y21429D01*
G01X14435Y21409D01*
G01X14463Y21387D01*
G01X14489Y21363D01*
G01X14513Y21338D01*
G01X14536Y21312D01*
G01X14558Y21284D01*
G01X14577Y21255D01*
G01X14595Y21224D01*
G01X14610Y21193D01*
G01X14624Y21160D01*
G01X14636Y21127D01*
G01X14646Y21094D01*
G01X14653Y21059D01*
G01X14659Y21025D01*
G01X14662Y20990D01*
G01X14662Y20954D01*
G01X14662Y20922D01*
G01X14662Y20916D01*
G01X14663Y20902D01*
G01X14666Y20888D01*
G01X14671Y20874D01*
G01X14678Y20862D01*
G01X14687Y20850D01*
G01X14697Y20840D01*
G01X14709Y20831D01*
G01X14721Y20824D01*
G01X14735Y20819D01*
G01X14749Y20816D01*
G01X14764Y20815D01*
G01X14779Y20816D01*
G01X14794Y20819D01*
G01X14808Y20825D01*
G01X14821Y20833D01*
G01X14833Y20842D01*
G01X14843Y20853D01*
G01X14852Y20866D01*
G01X14865Y20887D01*
G01X14880Y20906D01*
G01X14897Y20924D01*
G01X14915Y20940D01*
G01X14935Y20954D01*
G01X14956Y20966D01*
G01X14979Y20977D01*
G01X15002Y20985D01*
G01X15026Y20990D01*
G01X15050Y20994D01*
G01X15074Y20995D01*
G01X15411Y20995D01*
G01X15411Y20402D01*
G01X14818Y20402D01*
G01X14818Y20705D01*
G01X14817Y20719D01*
G01X14814Y20733D01*
G01X14809Y20747D01*
G01X14802Y20760D01*
G01X14793Y20771D01*
G01X14783Y20782D01*
G01X14771Y20790D01*
G01X14758Y20797D01*
G01X14745Y20802D01*
G01X14731Y20805D01*
G01X14716Y20806D01*
G01X14701Y20805D01*
G01X14687Y20802D01*
G01X14672Y20797D01*
G01X14659Y20789D01*
G01X14648Y20780D01*
G01X14637Y20769D01*
G01X14629Y20756D01*
G01X14622Y20743D01*
G01X14608Y20710D01*
G01X14592Y20679D01*
G01X14573Y20649D01*
G01X14553Y20619D01*
G01X14531Y20591D01*
G01X14508Y20565D01*
G01X14483Y20540D01*
G01X14456Y20517D01*
G01X14428Y20495D01*
G01X14399Y20475D01*
G01X14368Y20457D01*
G01X14337Y20441D01*
G01X14304Y20427D01*
G01X14271Y20415D01*
G01X14237Y20406D01*
G01X14202Y20398D01*
G01X14167Y20392D01*
G01X14132Y20389D01*
G01X14097Y20388D01*
G01X14096Y20388D01*
G01X14061Y20389D01*
G01X14026Y20392D01*
G01X13991Y20398D01*
G01X13957Y20405D01*
G01X13923Y20415D01*
G01X13890Y20427D01*
G01X13858Y20441D01*
G01X13826Y20457D01*
G01X13796Y20474D01*
G01X13767Y20494D01*
G01X13739Y20515D01*
G01X13712Y20538D01*
G01X13687Y20563D01*
G01X13663Y20589D01*
G01X13642Y20617D01*
G01X13621Y20646D01*
G01X13603Y20676D01*
G01X13587Y20707D01*
G01X13572Y20739D01*
G01X13560Y20772D01*
G01X13550Y20806D01*
G01X13542Y20840D01*
G01X13538Y20854D01*
G01X13532Y20868D01*
G01X13524Y20880D01*
G01X13514Y20891D01*
G01X13393Y21013D01*
G01X13371Y21036D01*
G01X13351Y21061D01*
G01X13332Y21088D01*
G01X13316Y21115D01*
G01X13307Y21128D01*
G01X13297Y21140D01*
G01X13285Y21149D01*
G01X13272Y21157D01*
G01X13257Y21163D01*
G01X13242Y21167D01*
G01X13227Y21168D01*
G01X13212Y21167D01*
G01X13198Y21164D01*
G01X13184Y21159D01*
G01X13172Y21152D01*
G01X13160Y21143D01*
G01X13150Y21133D01*
G01X13141Y21121D01*
G01X13134Y21108D01*
G01X13129Y21095D01*
G01X13126Y21081D01*
G01X13125Y21066D01*
G01X13125Y20770D01*
G01X13124Y20745D01*
G01X13120Y20719D01*
G01X13113Y20694D01*
G01X13104Y20670D01*
G01X13098Y20650D01*
G01X13096Y20630D01*
G01X13097Y20615D01*
G01X13100Y20601D01*
G01X13106Y20587D01*
G01X13113Y20574D01*
G01X13121Y20563D01*
G01X13145Y20534D01*
G01X13166Y20504D01*
G01X13186Y20473D01*
G01X13203Y20441D01*
G01X13218Y20407D01*
G01X13231Y20373D01*
G01X13242Y20338D01*
G01X13250Y20302D01*
G01X13256Y20266D01*
G01X13260Y20229D01*
G01X13260Y20192D01*
G01X13260Y20156D01*
G01X13256Y20121D01*
G01X13250Y20085D01*
G01X13242Y20050D01*
G01X13232Y20015D01*
G01X13220Y19981D01*
G01X13205Y19948D01*
G01X13188Y19916D01*
G01X13169Y19885D01*
G01X13149Y19856D01*
G01X13126Y19828D01*
G01X13102Y19801D01*
G01X13092Y19789D01*
G01X13084Y19776D01*
G01X13078Y19761D01*
G01X13074Y19746D01*
G01X13073Y19730D01*
G01X13074Y19714D01*
G01X13078Y19699D01*
G01X13084Y19684D01*
G01X13092Y19671D01*
G01X13103Y19658D01*
G01X13706Y19055D01*
G01X13719Y19044D01*
G01X13732Y19036D01*
G01X13747Y19030D01*
G01X13762Y19026D01*
G01X13778Y19025D01*
G01X14716Y19025D01*
G01X14731Y19026D01*
G01X14745Y19029D01*
G01X14759Y19034D01*
G01X14771Y19041D01*
G01X14783Y19050D01*
G01X14793Y19060D01*
G01X14802Y19072D01*
G01X14809Y19084D01*
G01X14814Y19098D01*
G01X14817Y19112D01*
G01X14818Y19127D01*
G01X14818Y19475D01*
G01X15411Y19475D01*
G01X15411Y19127D01*
G01X15412Y19112D01*
G01X15415Y19098D01*
G01X15420Y19084D01*
G01X15427Y19072D01*
G01X15436Y19060D01*
G01X15446Y19050D01*
G01X15458Y19041D01*
G01X15470Y19034D01*
G01X15484Y19029D01*
G01X15498Y19026D01*
G01X15513Y19025D01*
G01X16236Y19025D01*
G01X16251Y19026D01*
G01X16265Y19029D01*
G01X16279Y19034D01*
G01X16291Y19041D01*
G01X16303Y19050D01*
G01X16313Y19060D01*
G01X16322Y19072D01*
G01X16329Y19084D01*
G01X16334Y19098D01*
G01X16337Y19112D01*
G01X16338Y19127D01*
G01X16338Y19475D01*
G01X16931Y19475D01*
G01X16931Y19127D01*
G01X16932Y19112D01*
G01X16935Y19098D01*
G01X16940Y19084D01*
G01X16947Y19072D01*
G01X16956Y19060D01*
G01X16966Y19050D01*
G01X16978Y19041D01*
G01X16990Y19034D01*
G01X17004Y19029D01*
G01X17018Y19026D01*
G01X17033Y19025D01*
G01X17516Y19025D01*
G01X17530Y19026D01*
G01X17544Y19029D01*
G01X17558Y19034D01*
G01X17570Y19041D01*
G01X17582Y19050D01*
G01X17592Y19060D01*
G01X17601Y19072D01*
G01X17608Y19084D01*
G01X17613Y19098D01*
G01X17616Y19112D01*
G01X17617Y19127D01*
G01X17617Y20739D01*
G01X17618Y20762D01*
G01X17621Y20786D01*
G01X17627Y20809D01*
G01X17634Y20831D01*
G01X17644Y20853D01*
G01X17655Y20874D01*
G01X17669Y20893D01*
G01X17684Y20911D01*
G01X17701Y20928D01*
G01X17719Y20943D01*
G01X17738Y20957D01*
G01X17759Y20968D01*
G01X17781Y20978D01*
G01X17803Y20985D01*
G01X17826Y20991D01*
G01X17850Y20994D01*
G01X17873Y20995D01*
G01X18115Y20995D01*
G01X18130Y20996D01*
G01X18144Y20999D01*
G01X18158Y21004D01*
G01X18170Y21011D01*
G01X18182Y21020D01*
G01X18192Y21030D01*
G01X18201Y21042D01*
G01X18208Y21055D01*
G01X18213Y21068D01*
G01X18216Y21082D01*
G01X18217Y21097D01*
G01X18217Y21193D01*
G01X18216Y21208D01*
G01X18213Y21222D01*
G01X18208Y21235D01*
G01X18201Y21248D01*
G01X18192Y21260D01*
G01X18182Y21270D01*
G01X18170Y21279D01*
G01X18158Y21286D01*
G01X18144Y21291D01*
G01X18130Y21294D01*
G01X18115Y21295D01*
G01X17873Y21295D01*
G01X17850Y21296D01*
G01X17826Y21299D01*
G01X17803Y21305D01*
G01X17781Y21312D01*
G01X17759Y21322D01*
G01X17738Y21333D01*
G01X17719Y21347D01*
G01X17701Y21362D01*
G01X17684Y21379D01*
G01X17669Y21397D01*
G01X17655Y21416D01*
G01X17644Y21437D01*
G01X17634Y21459D01*
G01X17627Y21481D01*
G01X17621Y21504D01*
G01X17618Y21528D01*
G01X17617Y21551D01*
G01X17617Y23063D01*
G01X17616Y23078D01*
G01X17613Y23092D01*
G01X17608Y23106D01*
G01X17601Y23118D01*
G01X17592Y23130D01*
G01X17582Y23140D01*
G01X17570Y23149D01*
G01X17558Y23156D01*
G01X17544Y23161D01*
G01X17530Y23164D01*
G01X17515Y23165D01*
G01X17033Y23165D01*
G01X17018Y23164D01*
G01X17004Y23161D01*
G01X16991Y23156D01*
G01X16978Y23149D01*
G01X16966Y23140D01*
G01X16956Y23130D01*
G01X16947Y23118D01*
G01X16940Y23106D01*
G01X16935Y23092D01*
G01X16932Y23078D01*
G01X16931Y23063D01*
G01X16931Y22815D01*
G01X16338Y22815D01*
G01X16338Y23063D01*
G01X16337Y23078D01*
G01X16334Y23092D01*
G01X16329Y23106D01*
G01X16322Y23118D01*
G01X16313Y23130D01*
G01X16303Y23140D01*
G01X16291Y23149D01*
G01X16279Y23156D01*
G01X16265Y23161D01*
G01X16251Y23164D01*
G01X16236Y23165D01*
G01X15513Y23165D01*
G01X15498Y23164D01*
G01X15484Y23161D01*
G01X15470Y23156D01*
G01X15458Y23149D01*
G01X15446Y23140D01*
G01X15436Y23130D01*
G01X15427Y23118D01*
G01X15420Y23106D01*
G01X15415Y23092D01*
G01X15412Y23078D01*
G01X15411Y23063D01*
G01X15411Y22815D01*
G01X14818Y22815D01*
G01X14818Y23063D01*
G01X14817Y23078D01*
G01X14814Y23092D01*
G01X14809Y23106D01*
G01X14802Y23118D01*
G01X14793Y23130D01*
G01X14783Y23140D01*
G01X14771Y23149D01*
G01X14758Y23156D01*
G01X14745Y23161D01*
G01X14731Y23164D01*
G01X14716Y23165D01*
G37*

%LPC*%
G36*
G01X16675Y20995D02*
G01X16338Y20995D01*
G01X16338Y20402D01*
G01X16931Y20402D01*
G01X16931Y20739D01*
G01X16930Y20762D01*
G01X16927Y20786D01*
G01X16921Y20809D01*
G01X16914Y20831D01*
G01X16904Y20853D01*
G01X16893Y20874D01*
G01X16879Y20893D01*
G01X16864Y20911D01*
G01X16847Y20928D01*
G01X16829Y20943D01*
G01X16810Y20957D01*
G01X16789Y20968D01*
G01X16767Y20978D01*
G01X16745Y20985D01*
G01X16722Y20991D01*
G01X16698Y20994D01*
G01X16675Y20995D01*
G37*
G36*
G01X15411Y21888D02*
G01X14818Y21888D01*
G01X14818Y21551D01*
G01X14819Y21528D01*
G01X14822Y21504D01*
G01X14828Y21481D01*
G01X14835Y21459D01*
G01X14845Y21437D01*
G01X14856Y21416D01*
G01X14870Y21397D01*
G01X14885Y21379D01*
G01X14902Y21362D01*
G01X14920Y21347D01*
G01X14939Y21333D01*
G01X14960Y21322D01*
G01X14982Y21312D01*
G01X15004Y21305D01*
G01X15027Y21299D01*
G01X15051Y21296D01*
G01X15074Y21295D01*
G01X15411Y21295D01*
G01X15411Y21888D01*
G37*
G36*
G01X16931Y21888D02*
G01X16338Y21888D01*
G01X16338Y21295D01*
G01X16675Y21295D01*
G01X16698Y21296D01*
G01X16722Y21299D01*
G01X16745Y21305D01*
G01X16767Y21312D01*
G01X16789Y21322D01*
G01X16810Y21333D01*
G01X16829Y21347D01*
G01X16847Y21362D01*
G01X16864Y21379D01*
G01X16879Y21397D01*
G01X16893Y21416D01*
G01X16904Y21437D01*
G01X16914Y21459D01*
G01X16921Y21481D01*
G01X16927Y21504D01*
G01X16930Y21528D01*
G01X16931Y21551D01*
G01X16931Y21888D01*
G37*

%LPD*%
G36*
G01X25730Y23889D02*
G01X18784Y23889D01*
G01X18770Y23888D01*
G01X18755Y23885D01*
G01X18742Y23880D01*
G01X18729Y23873D01*
G01X18717Y23864D01*
G01X18707Y23854D01*
G01X18698Y23842D01*
G01X18692Y23830D01*
G01X18686Y23816D01*
G01X18683Y23802D01*
G01X18682Y23787D01*
G01X18684Y23771D01*
G01X18687Y23756D01*
G01X18693Y23741D01*
G01X18702Y23728D01*
G01X18712Y23716D01*
G01X18864Y23563D01*
G01X18886Y23540D01*
G01X18906Y23515D01*
G01X18925Y23488D01*
G01X18941Y23461D01*
G01X18950Y23448D01*
G01X18960Y23436D01*
G01X18972Y23426D01*
G01X18986Y23419D01*
G01X19000Y23413D01*
G01X19015Y23409D01*
G01X19030Y23408D01*
G01X19474Y23408D01*
G01X19497Y23407D01*
G01X19521Y23404D01*
G01X19544Y23398D01*
G01X19566Y23391D01*
G01X19588Y23381D01*
G01X19609Y23370D01*
G01X19628Y23356D01*
G01X19647Y23341D01*
G01X19663Y23324D01*
G01X19678Y23306D01*
G01X19692Y23287D01*
G01X19703Y23266D01*
G01X19713Y23244D01*
G01X19720Y23222D01*
G01X19726Y23199D01*
G01X19729Y23175D01*
G01X19730Y23152D01*
G01X19730Y21551D01*
G01X19729Y21528D01*
G01X19726Y21504D01*
G01X19720Y21481D01*
G01X19713Y21459D01*
G01X19703Y21437D01*
G01X19692Y21416D01*
G01X19678Y21397D01*
G01X19663Y21379D01*
G01X19647Y21362D01*
G01X19628Y21347D01*
G01X19609Y21333D01*
G01X19588Y21322D01*
G01X19566Y21312D01*
G01X19544Y21305D01*
G01X19521Y21299D01*
G01X19497Y21296D01*
G01X19474Y21295D01*
G01X19232Y21295D01*
G01X19217Y21294D01*
G01X19203Y21291D01*
G01X19190Y21286D01*
G01X19177Y21279D01*
G01X19165Y21270D01*
G01X19155Y21260D01*
G01X19146Y21248D01*
G01X19139Y21235D01*
G01X19134Y21222D01*
G01X19131Y21208D01*
G01X19130Y21193D01*
G01X19130Y21097D01*
G01X19131Y21082D01*
G01X19134Y21068D01*
G01X19139Y21055D01*
G01X19146Y21042D01*
G01X19155Y21030D01*
G01X19165Y21020D01*
G01X19177Y21011D01*
G01X19190Y21004D01*
G01X19203Y20999D01*
G01X19217Y20996D01*
G01X19232Y20995D01*
G01X19474Y20995D01*
G01X19497Y20994D01*
G01X19521Y20991D01*
G01X19544Y20985D01*
G01X19566Y20978D01*
G01X19588Y20968D01*
G01X19609Y20957D01*
G01X19628Y20943D01*
G01X19647Y20928D01*
G01X19663Y20911D01*
G01X19678Y20893D01*
G01X19692Y20874D01*
G01X19703Y20853D01*
G01X19713Y20831D01*
G01X19720Y20809D01*
G01X19726Y20786D01*
G01X19729Y20762D01*
G01X19730Y20739D01*
G01X19730Y20458D01*
G01X19731Y20443D01*
G01X19735Y20428D01*
G01X19740Y20414D01*
G01X19748Y20401D01*
G01X19757Y20389D01*
G01X19768Y20378D01*
G01X19781Y20370D01*
G01X19795Y20363D01*
G01X19809Y20359D01*
G01X19843Y20350D01*
G01X19877Y20339D01*
G01X19910Y20326D01*
G01X19942Y20310D01*
G01X19957Y20304D01*
G01X19972Y20300D01*
G01X19988Y20299D01*
G01X20003Y20300D01*
G01X20017Y20303D01*
G01X20031Y20308D01*
G01X20043Y20315D01*
G01X20055Y20324D01*
G01X20065Y20334D01*
G01X20074Y20346D01*
G01X20081Y20358D01*
G01X20086Y20372D01*
G01X20089Y20386D01*
G01X20090Y20401D01*
G01X20090Y21590D01*
G01X20091Y21617D01*
G01X20094Y21645D01*
G01X20100Y21673D01*
G01X20107Y21700D01*
G01X20117Y21726D01*
G01X20129Y21751D01*
G01X20142Y21776D01*
G01X20158Y21799D01*
G01X20175Y21821D01*
G01X20194Y21842D01*
G01X20999Y22646D01*
G01X21009Y22658D01*
G01X21017Y22672D01*
G01X21023Y22686D01*
G01X21027Y22702D01*
G01X21028Y22718D01*
G01X21028Y22733D01*
G01X21029Y22766D01*
G01X21032Y22800D01*
G01X21037Y22834D01*
G01X21044Y22867D01*
G01X21054Y22900D01*
G01X21065Y22932D01*
G01X21078Y22963D01*
G01X21092Y22993D01*
G01X21109Y23023D01*
G01X21128Y23051D01*
G01X21148Y23079D01*
G01X21169Y23105D01*
G01X21217Y23153D01*
G01X21243Y23174D01*
G01X21271Y23194D01*
G01X21299Y23213D01*
G01X21329Y23230D01*
G01X21359Y23244D01*
G01X21390Y23257D01*
G01X21422Y23268D01*
G01X21455Y23278D01*
G01X21488Y23285D01*
G01X21522Y23290D01*
G01X21556Y23293D01*
G01X21590Y23294D01*
G01X21623Y23293D01*
G01X21657Y23290D01*
G01X21691Y23285D01*
G01X21724Y23278D01*
G01X21757Y23268D01*
G01X21789Y23257D01*
G01X21820Y23244D01*
G01X21850Y23230D01*
G01X21880Y23213D01*
G01X21908Y23194D01*
G01X21936Y23174D01*
G01X21962Y23153D01*
G01X22010Y23105D01*
G01X22031Y23079D01*
G01X22051Y23051D01*
G01X22070Y23023D01*
G01X22087Y22993D01*
G01X22101Y22963D01*
G01X22114Y22932D01*
G01X22125Y22900D01*
G01X22135Y22867D01*
G01X22142Y22834D01*
G01X22147Y22800D01*
G01X22150Y22766D01*
G01X22151Y22733D01*
G01X22150Y22699D01*
G01X22147Y22665D01*
G01X22142Y22631D01*
G01X22135Y22598D01*
G01X22125Y22565D01*
G01X22114Y22533D01*
G01X22101Y22502D01*
G01X22087Y22472D01*
G01X22070Y22442D01*
G01X22051Y22414D01*
G01X22031Y22386D01*
G01X22010Y22360D01*
G01X21962Y22312D01*
G01X21936Y22291D01*
G01X21908Y22271D01*
G01X21880Y22252D01*
G01X21850Y22235D01*
G01X21820Y22221D01*
G01X21789Y22208D01*
G01X21757Y22197D01*
G01X21724Y22187D01*
G01X21691Y22180D01*
G01X21657Y22175D01*
G01X21623Y22172D01*
G01X21590Y22171D01*
G01X21575Y22171D01*
G01X21559Y22170D01*
G01X21543Y22166D01*
G01X21529Y22160D01*
G01X21515Y22152D01*
G01X21503Y22142D01*
G01X20833Y21472D01*
G01X20822Y21459D01*
G01X20814Y21446D01*
G01X20808Y21431D01*
G01X20804Y21416D01*
G01X20803Y21400D01*
G01X20803Y20170D01*
G01X20804Y20155D01*
G01X20807Y20141D01*
G01X20812Y20127D01*
G01X20819Y20115D01*
G01X20828Y20103D01*
G01X20838Y20093D01*
G01X20850Y20084D01*
G01X20862Y20077D01*
G01X20876Y20072D01*
G01X20890Y20069D01*
G01X20905Y20068D01*
G01X20919Y20069D01*
G01X20933Y20072D01*
G01X20947Y20077D01*
G01X20960Y20084D01*
G01X20971Y20093D01*
G01X20981Y20103D01*
G01X20990Y20115D01*
G01X21010Y20144D01*
G01X21032Y20171D01*
G01X21055Y20198D01*
G01X21080Y20222D01*
G01X21106Y20245D01*
G01X21134Y20267D01*
G01X21163Y20286D01*
G01X21193Y20304D01*
G01X21225Y20320D01*
G01X21257Y20334D01*
G01X21290Y20346D01*
G01X21324Y20355D01*
G01X21358Y20363D01*
G01X21393Y20368D01*
G01X21427Y20372D01*
G01X21463Y20373D01*
G01X21496Y20372D01*
G01X21530Y20369D01*
G01X21564Y20364D01*
G01X21597Y20357D01*
G01X21630Y20347D01*
G01X21662Y20336D01*
G01X21693Y20323D01*
G01X21723Y20309D01*
G01X21753Y20292D01*
G01X21781Y20273D01*
G01X21809Y20253D01*
G01X21835Y20232D01*
G01X21883Y20184D01*
G01X21904Y20158D01*
G01X21924Y20130D01*
G01X21943Y20102D01*
G01X21960Y20072D01*
G01X21974Y20042D01*
G01X21987Y20011D01*
G01X21998Y19979D01*
G01X22008Y19946D01*
G01X22015Y19913D01*
G01X22020Y19879D01*
G01X22023Y19845D01*
G01X22024Y19812D01*
G01X22024Y19797D01*
G01X22025Y19781D01*
G01X22029Y19765D01*
G01X22035Y19751D01*
G01X22043Y19737D01*
G01X22053Y19725D01*
G01X22469Y19309D01*
G01X22482Y19298D01*
G01X22495Y19290D01*
G01X22510Y19284D01*
G01X22525Y19280D01*
G01X22541Y19279D01*
G01X26359Y19279D01*
G01X26374Y19280D01*
G01X26388Y19283D01*
G01X26402Y19288D01*
G01X26414Y19295D01*
G01X26426Y19304D01*
G01X26436Y19314D01*
G01X26445Y19326D01*
G01X26452Y19338D01*
G01X26457Y19352D01*
G01X26460Y19366D01*
G01X26461Y19381D01*
G01X26461Y21179D01*
G01X26460Y21194D01*
G01X26457Y21208D01*
G01X26452Y21221D01*
G01X26445Y21234D01*
G01X26436Y21246D01*
G01X26426Y21256D01*
G01X26414Y21265D01*
G01X26402Y21272D01*
G01X26388Y21277D01*
G01X26374Y21280D01*
G01X26359Y21281D01*
G01X26349Y21280D01*
G01X26289Y21277D01*
G01X26254Y21278D01*
G01X26220Y21281D01*
G01X26186Y21286D01*
G01X26153Y21293D01*
G01X26120Y21303D01*
G01X26088Y21314D01*
G01X26056Y21327D01*
G01X26025Y21342D01*
G01X25995Y21359D01*
G01X25967Y21377D01*
G01X25939Y21398D01*
G01X25913Y21419D01*
G01X25888Y21443D01*
G01X25864Y21468D01*
G01X25843Y21494D01*
G01X25822Y21522D01*
G01X25804Y21550D01*
G01X25787Y21580D01*
G01X25772Y21611D01*
G01X25759Y21643D01*
G01X25748Y21675D01*
G01X25738Y21708D01*
G01X25731Y21741D01*
G01X25726Y21775D01*
G01X25723Y21809D01*
G01X25722Y21844D01*
G01X25723Y21880D01*
G01X25727Y21917D01*
G01X25733Y21953D01*
G01X25741Y21988D01*
G01X25751Y22024D01*
G01X25764Y22058D01*
G01X25779Y22091D01*
G01X25796Y22124D01*
G01X25815Y22155D01*
G01X25822Y22168D01*
G01X25828Y22182D01*
G01X25831Y22196D01*
G01X25832Y22211D01*
G01X25832Y23787D01*
G01X25831Y23802D01*
G01X25828Y23816D01*
G01X25823Y23830D01*
G01X25816Y23842D01*
G01X25807Y23854D01*
G01X25797Y23864D01*
G01X25785Y23873D01*
G01X25773Y23880D01*
G01X25759Y23885D01*
G01X25745Y23888D01*
G01X25730Y23889D01*
G37*

%LPD*%
G54D11*
G01X5334Y16002D02*
G01X5207Y15875D01*
G01X5207Y13970D01*
G01X5715Y13462D01*
G01X15875Y12573D02*
G01X11303Y12573D01*
G54D12*
G01X22352Y15685D02*
G01X22033Y15367D01*
G01X21463Y15367D01*
G01X19939Y15367D02*
G01X19763Y15191D01*
G01X17272Y15191D01*
G54D11*
G01X19939Y18669D02*
G01X13589Y18669D01*
G01X12700Y19558D01*
G01X12700Y20193D01*
G54D12*
G01X15875Y17907D02*
G01X14097Y16129D01*
G01X14097Y14097D01*
G01X14859Y13335D01*
G01X18923Y13335D01*
G01X20574Y11684D01*
G01X20574Y1270D01*
G01X20866Y1270D01*
G54D11*
G01X35687Y17145D02*
G01X32638Y17145D01*
G01X32080Y16586D01*
G01X32080Y14798D01*
G54D13*
G01X24449Y4953D02*
G01X25084Y4318D01*
G01X26543Y4318D01*
G54D14*
G01X1524Y24511D02*
G01X1524Y24511D01*
G01X3302Y25146D01*
G01X27117Y25146D01*
G01X29718Y22545D01*
G54D13*
G01X9398Y24638D02*
G01X9398Y25146D01*
G01X9347Y25146D01*
G54D14*
G01X29718Y22545D02*
G01X30673Y22545D01*
G01X33147Y25019D01*
G01X34671Y25019D01*
G01X37144Y22545D01*
G01X37846Y22545D01*
G01X37846Y22545D02*
G01X38547Y22545D01*
G01X41021Y25019D01*
G01X42672Y25019D01*
G01X45145Y22545D01*
G01X45974Y22545D01*
G54D15*
G01X1524Y2032D02*
G01X3893Y1143D01*
G01X23368Y1143D01*
G01X26543Y4318D01*
G01X29225Y4318D01*
G01X32080Y1463D01*
G01X32080Y1463D02*
G01X32766Y2148D01*
G01X32766Y2540D01*
G01X34544Y4318D01*
G01X38354Y4318D01*
G01X40208Y2463D01*
G01X40208Y1463D01*
G54D14*
G01X32080Y14798D02*
G01X29718Y12435D01*
G01X29718Y9210D01*
G01X40208Y14798D02*
G01X37846Y12435D01*
G01X37846Y9210D01*
G01X48336Y14798D02*
G01X45974Y12435D01*
G01X45974Y9210D01*
G54D12*
G01X6415Y22479D02*
G01X6415Y20701D01*
G01X5014Y20701D02*
G01X5014Y18923D01*
G01X8636Y14782D02*
G01X8636Y16637D01*
G01X9525Y17526D01*
G01X9589Y17590D01*
G01X9589Y18923D01*
G01X6415Y20574D02*
G01X10287Y20574D01*
G01X10922Y19939D01*
G01X10922Y19685D01*
G01X10922Y15671D01*
G01X9906Y14655D01*
G01X6096Y14782D02*
G01X6096Y16383D01*
G01X6416Y16703D01*
G01X6416Y17145D01*
G01X1524Y2032D02*
G01X2286Y2794D01*
G01X2286Y8128D01*
G01X7047Y5842D02*
G01X6096Y6793D01*
G01X6096Y7366D01*
G01X6096Y8839D01*
G01X2286Y10927D02*
G01X3180Y10033D01*
G01X6858Y10033D01*
G01X7366Y9525D01*
G01X7366Y8839D01*
G01X2286Y10927D02*
G01X1016Y12197D01*
G01X1016Y12700D01*
G01X1016Y21590D01*
G01X1524Y22098D01*
G01X1524Y24511D01*
G01X5014Y18923D02*
G01X5014Y17145D01*
G01X6415Y18923D02*
G01X8189Y18923D01*
G01X17272Y15191D02*
G01X18674Y16594D01*
G01X18674Y17907D01*
G01X18674Y22733D02*
G01X18674Y20320D01*
G01X15875Y22733D02*
G01X15875Y20320D01*
G01X22479Y12446D02*
G01X21844Y12446D01*
G01X21717Y12573D01*
G01X5014Y22479D02*
G01X4953Y22540D01*
G01X4953Y23114D01*
G01X18674Y22352D02*
G01X18542Y22484D01*
G01X18542Y23241D01*
G01X18161Y23622D01*
G01X17780Y23622D01*
G01X5461Y23622D01*
G01X4953Y23114D01*
G01X5014Y17145D02*
G01X2286Y14416D01*
G01X2286Y12827D01*
G01X2286Y4641D02*
G01X2228Y4699D01*
G01X1651Y4699D01*
G01X22479Y10922D02*
G01X20618Y10922D01*
G01X20574Y10966D01*
G54D11*
G01X24449Y8890D02*
G01X24769Y9210D01*
G01X29718Y9210D01*
G54D13*
G01X12954Y3429D02*
G01X12765Y3240D01*
G01X12765Y1270D01*
G54D15*
G01X40208Y1463D02*
G01X40894Y2148D01*
G01X40894Y3556D01*
G01X41402Y4064D01*
G01X47244Y4064D01*
G01X48336Y2971D01*
G01X48336Y1463D01*
G54D11*
G01X6731Y13589D02*
G01X6731Y15748D01*
G01X7112Y16129D01*
G01X4572Y6223D02*
G01X6223Y4572D01*
G01X8636Y4572D01*
G01X12446Y5207D02*
G01X13208Y5969D01*
G01X15494Y5969D01*
G01X16891Y6096D02*
G01X16256Y6731D01*
G01X11811Y6731D01*
G54D12*
G01X26289Y21844D02*
G01X26289Y24534D01*
G01X25677Y25146D01*
G54D11*
G01X12700Y11176D02*
G01X16129Y11176D01*
G01X1905Y19050D02*
G01X1905Y17399D01*
G01X1778Y17272D01*
G01X24130Y10795D02*
G01X23241Y9906D01*
G01X21717Y9906D01*
G01X23495Y11684D02*
G01X21463Y11684D01*
G54D13*
G01X12319Y22670D02*
G01X12254Y22606D01*
G01X9398Y22606D01*
G54D11*
G01X36449Y6223D02*
G01X37846Y7620D01*
G01X37846Y9210D01*
G01X41783Y13462D02*
G01X45974Y9271D01*
G01X45974Y9210D01*
G54D13*
G01X24450Y4953D02*
G01X24511Y4953D01*
G01X25146Y5588D01*
G01X25400Y5588D01*
G01X21590Y20955D02*
G01X25146Y20955D01*
G54D11*
G01X14732Y22733D02*
G01X15113Y22352D01*
G01X15875Y22352D01*
G01X35687Y2413D02*
G01X35483Y2209D01*
G01X35483Y1457D01*
G01X44196Y13462D02*
G01X43611Y14046D01*
G01X43611Y14792D01*
G01X46355Y1143D02*
G01X46101Y1397D01*
G01X43611Y1397D01*
G01X43611Y1457D01*
G01X28321Y1016D02*
G01X27879Y1457D01*
G01X27355Y1457D01*
G01X41910Y19939D02*
G01X39751Y17780D01*
G01X28321Y17780D01*
G01X27355Y16814D01*
G01X27355Y14792D01*
G01X35483Y14792D02*
G01X37962Y17272D01*
G01X48641Y17272D01*
G01X49657Y16256D01*
G01X49657Y5969D01*
G01X49657Y5969D02*
G01X49022Y5461D01*
G01X41910Y5461D01*
G01X26924Y17780D02*
G01X21336Y17780D01*
G01X20447Y18669D01*
G01X19939Y18669D01*
G01X36195Y13081D02*
G01X34798Y13081D01*
G01X33655Y11938D01*
G01X33655Y6096D01*
G01X32131Y4572D01*
G01X31369Y4572D01*
G01X30734Y5207D01*
G01X40208Y14798D02*
G01X40208Y16637D01*
G01X38862Y18415D02*
G01X21336Y18415D01*
G01X20447Y19304D01*
G01X20447Y21590D01*
G01X21590Y22733D01*
G01X23049Y8890D02*
G01X23049Y8573D01*
G01X23876Y7747D01*
G01X24449Y7173D01*
G01X24449Y7112D01*
G01X23049Y4953D02*
G01X23049Y5523D01*
G01X24003Y6477D01*
G01X24449Y6923D01*
G01X24449Y7112D01*
G01X23049Y8890D02*
G01X22479Y8890D01*
G01X22098Y8509D01*
G01X15113Y7620D02*
G01X14986Y7493D01*
G01X10414Y7493D01*
G01X34163Y21717D02*
G01X34163Y19685D01*
G01X33401Y18923D01*
G01X22352Y18923D01*
G01X21463Y19812D01*
G01X20574Y16637D02*
G01X20574Y13843D01*
G01X20447Y13716D01*
G54D12*
G01X15875Y19939D02*
G01X14351Y19939D01*
G01X14224Y19812D01*
G01X14097Y16129D02*
G01X14097Y16764D01*
G01X18674Y19939D02*
G01X19558Y19939D01*
G01X19685Y19812D01*
G01X19050Y17780D02*
G01X18796Y17526D01*
G01X18674Y17526D01*
G01X31115Y21082D02*
G01X29718Y22479D01*
G01X29718Y22545D01*
G54D11*
G01X26162Y10160D02*
G01X26162Y11303D01*
G01X24130Y13335D01*
G01X21209Y13335D01*
G01X20828Y12954D01*
G01X22098Y14097D02*
G01X22286Y14285D01*
G01X22352Y14285D01*
G01X23241Y3937D02*
G01X23241Y3048D01*
G01X22860Y2667D01*
G01X11938Y2540D02*
G01X10922Y3556D01*
G01X10922Y5842D01*
G54D12*
G01X9906Y8839D02*
G01X9906Y8255D01*
G01X9525Y7874D01*
G01X9525Y1143D01*
G54D11*
G01X7366Y14782D02*
G01X7366Y13970D01*
G01X7874Y13462D01*
G01X12192Y13462D01*
G01X12827Y14097D01*
G01X12827Y18161D01*
G01X11811Y19177D01*
G01X11811Y20762D01*
G01X12319Y21270D01*
G01X11938Y16891D02*
G01X11938Y14986D01*
G01X11049Y14097D01*
G01X26162Y12446D02*
G01X24130Y14478D01*
G01X23495Y14478D01*
G01X19558Y8890D02*
G01X19558Y6731D01*
G01X22225Y6731D02*
G01X22606Y7112D01*
G01X23048Y7112D01*
G54D12*
G01X17272Y15191D02*
G01X16939Y14859D01*
G01X15240Y14859D01*
G54D11*
G01X18669Y18034D02*
G01X18669Y17531D01*
G01X18674Y17526D01*
G01X26289Y16510D02*
G01X25908Y16891D01*
G01X21590Y16891D01*
G01X20955Y17526D01*
G01X20320Y17526D01*
G01X11938Y11811D02*
G01X19050Y11811D01*
G01X19812Y11049D01*
G54D12*
G01X25400Y5588D02*
G01X26035Y6223D01*
G01X26035Y8128D01*
G54D11*
G01X17272Y4826D02*
G01X18161Y5715D01*
G01X18161Y6477D01*
G01X18415Y6731D01*
G01X19558Y6731D01*
G01X21844Y5842D02*
G01X21336Y6350D01*
G01X21336Y9144D01*
G01X19812Y9652D02*
G01X19812Y11049D01*
G54D12*
G01X14097Y20955D02*
G01X13716Y21336D01*
G01X13716Y22352D01*
G01X13714Y22353D01*
G01X13714Y23622D01*
G01X8128Y3683D02*
G01X8001Y3556D01*
G01X4699Y3556D01*
G01X3429Y4826D01*
G01X3429Y6604D01*
G01X3937Y7112D01*
G01X3937Y7620D01*
G01X3937Y8890D01*
G01X2667Y18161D02*
G01X3175Y18669D01*
G01X3175Y21082D01*
G01X4572Y22479D01*
G01X5014Y22479D01*
G01X8447Y5842D02*
G01X8636Y6030D01*
G01X8636Y8839D01*
G01X8636Y8839D02*
G01X8636Y9779D01*
G01X8890Y10033D01*
G01X9525Y10033D01*
G01X16431Y10033D01*
G01X17272Y9192D01*
G54D16*
G01X9906Y14282D02*
G01X9906Y15282D01*
G01X8636Y14282D02*
G01X8636Y15282D01*
G01X7366Y14282D02*
G01X7366Y15282D01*
G01X6096Y14282D02*
G01X6096Y15282D01*
G01X9906Y8339D02*
G01X9906Y9339D01*
G01X8636Y8339D02*
G01X8636Y9339D01*
G01X7366Y8339D02*
G01X7366Y9339D01*
G01X6096Y8339D02*
G01X6096Y9339D01*
G36*
G01X3023Y4031D02*
G01X24Y4031D01*
G01X24Y32D01*
G01X3023Y32D01*
G01X3023Y4031D01*
G37*
G54D20*
G01X8001Y11811D03*
G54D21*
G01X12319Y21270D03*
G01X12319Y22670D03*
G54D22*
G01X5014Y17145D03*
G01X6415Y17145D03*
G54D23*
G01X2286Y8128D03*
G01X2286Y10927D03*
G54D22*
G01X8447Y5842D03*
G01X7047Y5842D03*
G01X5014Y18923D03*
G01X6415Y18923D03*
G01X5014Y20701D03*
G01X6415Y20701D03*
G01X5014Y22479D03*
G01X6415Y22479D03*
G54D24*
G01X17272Y9192D03*
G36*
G01X15521Y13942D02*
G01X15521Y16441D01*
G01X19022Y16441D01*
G01X19022Y13942D01*
G01X15521Y13942D01*
G37*
G54D23*
G01X15875Y22352D03*
G01X18674Y22352D03*
G54D25*
G01X40208Y14798D03*
G01X35483Y14792D03*
G54D26*
G01X37846Y22545D03*
G54D25*
G01X40208Y1463D03*
G01X35483Y1457D03*
G54D26*
G01X37846Y9210D03*
G54D19*
G01X1524Y24511D03*
G54D25*
G01X32080Y14798D03*
G01X27355Y14792D03*
G54D26*
G01X29718Y22545D03*
G54D25*
G01X32080Y1463D03*
G01X27355Y1457D03*
G54D26*
G01X29718Y9210D03*
G54D25*
G01X48336Y14798D03*
G01X43611Y14792D03*
G54D26*
G01X45974Y22545D03*
G54D25*
G01X48336Y1463D03*
G01X43611Y1457D03*
G54D26*
G01X45974Y9210D03*
G54D23*
G01X15875Y19939D03*
G01X18674Y19939D03*
G01X15875Y17526D03*
G01X18674Y17526D03*
G54D21*
G01X22352Y14285D03*
G01X22352Y15685D03*
G54D27*
G01X22479Y12446D03*
G01X22479Y10922D03*
G54D22*
G01X24449Y4953D03*
G01X23049Y4953D03*
G01X24449Y8890D03*
G01X23049Y8890D03*
G01X24449Y7112D03*
G01X23049Y7112D03*
G01X8189Y18923D03*
G01X9590Y18923D03*
G54D17*
G01X2286Y12827D03*
G01X1651Y4699D03*
G54D18*
G01X12954Y3429D03*
G01X14097Y20955D03*
G01X2667Y18161D03*
G01X5715Y13462D03*
G01X5334Y16002D03*
G01X6731Y13589D03*
G01X7112Y16129D03*
G01X3937Y8890D03*
G01X8128Y3683D03*
G01X4572Y6223D03*
G01X8636Y4572D03*
G01X12446Y5207D03*
G01X15494Y5969D03*
G01X16891Y6096D03*
G01X11811Y6731D03*
G01X15875Y12573D03*
G01X11303Y12573D03*
G01X26289Y21844D03*
G01X12700Y11176D03*
G01X16129Y11176D03*
G01X1905Y19050D03*
G01X1778Y17272D03*
G01X24130Y10795D03*
G01X21717Y9906D03*
G01X23495Y11684D03*
G01X21463Y11684D03*
G01X9398Y22606D03*
G01X9398Y24638D03*
G01X36449Y6223D03*
G01X41783Y13462D03*
G01X35687Y17145D03*
G01X25400Y5588D03*
G01X21590Y20955D03*
G01X25146Y20955D03*
G01X14732Y22733D03*
G01X35687Y2413D03*
G01X44196Y13462D03*
G01X46355Y1143D03*
G01X28321Y1016D03*
G01X41910Y19939D03*
G01X41910Y5461D03*
G54D17*
G01X36195Y13081D03*
G01X30734Y5207D03*
G01X40208Y16637D03*
G01X38862Y18415D03*
G01X21590Y22733D03*
G01X22098Y8509D03*
G01X15113Y7620D03*
G01X10414Y7493D03*
G01X34163Y21717D03*
G01X21463Y19812D03*
G01X20574Y16637D03*
G01X20447Y13716D03*
G01X26924Y17780D03*
G01X19939Y18669D03*
G01X12700Y20193D03*
G01X14224Y19812D03*
G01X14097Y16764D03*
G01X19685Y19812D03*
G01X31115Y21082D03*
G01X26162Y10160D03*
G01X20828Y12954D03*
G01X21717Y12573D03*
G01X22098Y14097D03*
G01X23241Y3937D03*
G01X22860Y2667D03*
G01X11938Y2540D03*
G01X10922Y5842D03*
G01X11049Y14097D03*
G01X11938Y16891D03*
G01X26162Y12446D03*
G01X23495Y14478D03*
G01X26289Y16510D03*
G01X19558Y8890D03*
G01X19558Y6731D03*
G01X22225Y6731D03*
G01X21463Y15367D03*
G01X19939Y15367D03*
G01X15240Y14859D03*
G01X18669Y18034D03*
G01X20320Y17526D03*
G01X11938Y11811D03*
G01X19812Y11049D03*
G01X26035Y8128D03*
G01X17272Y4826D03*
G01X21844Y5842D03*
G01X21336Y9144D03*
G01X19812Y9652D03*
M00*
M02*
