G04 Layer: TopPasteMaskLayer*
G04 EasyEDA v6.2.44, 2019-10-11T09:46:47+02:00*
G04 b694c453db3c4fbcb19a449f5af86211,674c0623d3a246009f606e19fc16e94a,10*
G04 Gerber Generator version 0.2*
G04 Scale: 100 percent, Rotated: No, Reflected: No *
G04 Dimensions in millimeters *
G04 leading zeros omitted , absolute positions ,4 integer and 3 decimal *
%FSLAX43Y43*%
%MOMM*%
G90*
G71D02*

%ADD16C,0.599999*%
%ADD19R,2.999994X3.999992*%
%ADD20R,3.499866X2.499995*%
%ADD21R,1.099998X0.999998*%
%ADD22R,0.999998X1.099998*%
%ADD23R,1.600200X1.600200*%
%ADD24R,3.499993X2.499995*%
%ADD25R,1.199998X2.199996*%
%ADD26R,6.000013X6.499987*%
%ADD27R,0.810260X0.810260*%

%LPD*%
G54D16*
G01X9906Y14282D02*
G01X9906Y15282D01*
G01X8636Y14282D02*
G01X8636Y15282D01*
G01X7366Y14282D02*
G01X7366Y15282D01*
G01X6096Y14282D02*
G01X6096Y15282D01*
G01X9906Y8339D02*
G01X9906Y9339D01*
G01X8636Y8339D02*
G01X8636Y9339D01*
G01X7366Y8339D02*
G01X7366Y9339D01*
G01X6096Y8339D02*
G01X6096Y9339D01*
G36*
G01X3023Y4031D02*
G01X24Y4031D01*
G01X24Y32D01*
G01X3023Y32D01*
G01X3023Y4031D01*
G37*
G54D20*
G01X8001Y11811D03*
G54D21*
G01X12319Y21270D03*
G01X12319Y22670D03*
G54D22*
G01X5014Y17145D03*
G01X6415Y17145D03*
G54D23*
G01X2286Y8128D03*
G01X2286Y10927D03*
G54D22*
G01X8447Y5842D03*
G01X7047Y5842D03*
G01X5014Y18923D03*
G01X6415Y18923D03*
G01X5014Y20701D03*
G01X6415Y20701D03*
G01X5014Y22479D03*
G01X6415Y22479D03*
G54D24*
G01X17272Y9192D03*
G36*
G01X15521Y13942D02*
G01X15521Y16441D01*
G01X19022Y16441D01*
G01X19022Y13942D01*
G01X15521Y13942D01*
G37*
G54D23*
G01X15875Y22352D03*
G01X18674Y22352D03*
G54D25*
G01X40208Y14798D03*
G01X35483Y14792D03*
G54D26*
G01X37846Y22545D03*
G54D25*
G01X40208Y1463D03*
G01X35483Y1457D03*
G54D26*
G01X37846Y9210D03*
G54D19*
G01X1524Y24511D03*
G54D25*
G01X32080Y14798D03*
G01X27355Y14792D03*
G54D26*
G01X29718Y22545D03*
G54D25*
G01X32080Y1463D03*
G01X27355Y1457D03*
G54D26*
G01X29718Y9210D03*
G54D25*
G01X48336Y14798D03*
G01X43611Y14792D03*
G54D26*
G01X45974Y22545D03*
G54D25*
G01X48336Y1463D03*
G01X43611Y1457D03*
G54D26*
G01X45974Y9210D03*
G54D23*
G01X15875Y19939D03*
G01X18674Y19939D03*
G01X15875Y17526D03*
G01X18674Y17526D03*
G54D21*
G01X22352Y14285D03*
G01X22352Y15685D03*
G54D27*
G01X22479Y12446D03*
G01X22479Y10922D03*
G54D22*
G01X24449Y4953D03*
G01X23049Y4953D03*
G01X24449Y8890D03*
G01X23049Y8890D03*
G01X24449Y7112D03*
G01X23049Y7112D03*
G01X8189Y18923D03*
G01X9590Y18923D03*
M00*
M02*
