G04 Layer: BottomSolderMaskLayer*
G04 EasyEDA v6.2.44, 2019-10-11T09:46:47+02:00*
G04 b694c453db3c4fbcb19a449f5af86211,674c0623d3a246009f606e19fc16e94a,10*
G04 Gerber Generator version 0.2*
G04 Scale: 100 percent, Rotated: No, Reflected: No *
G04 Dimensions in millimeters *
G04 leading zeros omitted , absolute positions ,4 integer and 3 decimal *
%FSLAX43Y43*%
%MOMM*%
G90*
G71D02*

%ADD50R,1.803400X1.803400*%
%ADD55C,0.653212*%
%ADD56C,0.903199*%

%LPD*%
G54D55*
G01X8874Y16891D02*
G01X10074Y16891D01*
G01X8874Y16090D02*
G01X10074Y16090D01*
G01X8874Y15290D02*
G01X10074Y15290D01*
G01X8874Y14490D02*
G01X10074Y14490D01*
G01X8874Y13693D02*
G01X10074Y13693D01*
G01X8874Y12893D02*
G01X10074Y12893D01*
G01X8874Y12092D02*
G01X10074Y12092D01*
G01X8874Y11292D02*
G01X10074Y11292D01*
G01X11049Y10328D02*
G01X11049Y9128D01*
G01X11849Y10328D02*
G01X11849Y9128D01*
G01X12649Y10328D02*
G01X12649Y9128D01*
G01X13449Y10328D02*
G01X13449Y9128D01*
G01X14246Y10328D02*
G01X14246Y9128D01*
G01X15046Y10328D02*
G01X15046Y9128D01*
G01X15847Y10328D02*
G01X15847Y9128D01*
G01X16647Y10328D02*
G01X16647Y9128D01*
G01X17637Y11303D02*
G01X18837Y11303D01*
G01X17637Y12103D02*
G01X18837Y12103D01*
G01X17637Y12903D02*
G01X18837Y12903D01*
G01X17637Y13703D02*
G01X18837Y13703D01*
G01X17637Y14500D02*
G01X18837Y14500D01*
G01X17637Y15300D02*
G01X18837Y15300D01*
G01X17637Y16101D02*
G01X18837Y16101D01*
G01X17637Y16901D02*
G01X18837Y16901D01*
G01X16637Y19065D02*
G01X16637Y17865D01*
G01X15836Y19065D02*
G01X15836Y17865D01*
G01X15036Y19065D02*
G01X15036Y17865D01*
G01X14236Y19065D02*
G01X14236Y17865D01*
G01X13439Y19065D02*
G01X13439Y17865D01*
G01X12639Y19065D02*
G01X12639Y17865D01*
G01X11838Y19065D02*
G01X11838Y17865D01*
G01X11038Y19065D02*
G01X11038Y17865D01*
G54D56*
G01X31787Y3429D02*
G01X33287Y3429D01*
G01X31787Y4699D02*
G01X33287Y4699D01*
G01X31787Y5969D02*
G01X33287Y5969D01*
G01X31787Y7239D02*
G01X33287Y7239D01*
G01X37832Y3429D02*
G01X39332Y3429D01*
G01X37832Y4699D02*
G01X39332Y4699D01*
G01X37832Y5969D02*
G01X39332Y5969D01*
G01X37832Y7239D02*
G01X39332Y7239D01*
G01X31787Y21082D02*
G01X33287Y21082D01*
G01X31787Y22352D02*
G01X33287Y22352D01*
G01X31787Y23622D02*
G01X33287Y23622D01*
G01X31787Y24892D02*
G01X33287Y24892D01*
G01X37832Y21082D02*
G01X39332Y21082D01*
G01X37832Y22352D02*
G01X39332Y22352D01*
G01X37832Y23622D02*
G01X39332Y23622D01*
G01X37832Y24892D02*
G01X39332Y24892D01*
G01X31787Y11938D02*
G01X33287Y11938D01*
G01X31787Y13208D02*
G01X33287Y13208D01*
G01X31787Y14478D02*
G01X33287Y14478D01*
G01X31787Y15748D02*
G01X33287Y15748D01*
G01X37832Y11938D02*
G01X39332Y11938D01*
G01X37832Y13208D02*
G01X39332Y13208D01*
G01X37832Y14478D02*
G01X39332Y14478D01*
G01X37832Y15748D02*
G01X39332Y15748D01*
G36*
G01X12110Y21437D02*
G01X12110Y22138D01*
G01X14813Y22138D01*
G01X14813Y21437D01*
G01X12110Y21437D01*
G37*
G36*
G01X12560Y22636D02*
G01X12560Y23337D01*
G01X14363Y23337D01*
G01X14363Y22636D01*
G01X12560Y22636D01*
G37*
G36*
G01X12110Y23835D02*
G01X12110Y24536D01*
G01X14813Y24536D01*
G01X14813Y23835D01*
G01X12110Y23835D01*
G37*
G36*
G01X43660Y2776D02*
G01X43660Y4081D01*
G01X44861Y4081D01*
G01X44861Y2776D01*
G01X43660Y2776D01*
G37*
G36*
G01X42260Y2776D02*
G01X42260Y4081D01*
G01X43461Y4081D01*
G01X43461Y2776D01*
G01X42260Y2776D01*
G37*
G36*
G01X43914Y7475D02*
G01X43914Y8780D01*
G01X45115Y8780D01*
G01X45115Y7475D01*
G01X43914Y7475D01*
G37*
G36*
G01X42514Y7475D02*
G01X42514Y8780D01*
G01X43715Y8780D01*
G01X43715Y7475D01*
G01X42514Y7475D01*
G37*
G36*
G01X43914Y5824D02*
G01X43914Y7129D01*
G01X45115Y7129D01*
G01X45115Y5824D01*
G01X43914Y5824D01*
G37*
G36*
G01X42514Y5824D02*
G01X42514Y7129D01*
G01X43715Y7129D01*
G01X43715Y5824D01*
G01X42514Y5824D01*
G37*
G36*
G01X33916Y795D02*
G01X33916Y1998D01*
G01X34919Y1998D01*
G01X34919Y795D01*
G01X33916Y795D01*
G37*
G36*
G01X36456Y795D02*
G01X36456Y1998D01*
G01X37459Y1998D01*
G01X37459Y795D01*
G01X36456Y795D01*
G37*
G54D50*
G01X27940Y6223D03*
G01X27940Y3423D03*
G36*
G01X20038Y4808D02*
G01X20038Y6113D01*
G01X21239Y6113D01*
G01X21239Y4808D01*
G01X20038Y4808D01*
G37*
G36*
G01X18638Y4808D02*
G01X18638Y6113D01*
G01X19839Y6113D01*
G01X19839Y4808D01*
G01X18638Y4808D01*
G37*
G36*
G01X20038Y3030D02*
G01X20038Y4335D01*
G01X21239Y4335D01*
G01X21239Y3030D01*
G01X20038Y3030D01*
G37*
G36*
G01X18638Y3030D02*
G01X18638Y4335D01*
G01X19839Y4335D01*
G01X19839Y3030D01*
G01X18638Y3030D01*
G37*
G36*
G01X20165Y20302D02*
G01X20165Y21607D01*
G01X21366Y21607D01*
G01X21366Y20302D01*
G01X20165Y20302D01*
G37*
G36*
G01X18765Y20302D02*
G01X18765Y21607D01*
G01X19966Y21607D01*
G01X19966Y20302D01*
G01X18765Y20302D01*
G37*
G36*
G01X20165Y22080D02*
G01X20165Y23385D01*
G01X21366Y23385D01*
G01X21366Y22080D01*
G01X20165Y22080D01*
G37*
G36*
G01X18765Y22080D02*
G01X18765Y23385D01*
G01X19966Y23385D01*
G01X19966Y22080D01*
G01X18765Y22080D01*
G37*
G36*
G01X18638Y1252D02*
G01X18638Y2557D01*
G01X19839Y2557D01*
G01X19839Y1252D01*
G01X18638Y1252D01*
G37*
G36*
G01X20038Y1252D02*
G01X20038Y2557D01*
G01X21239Y2557D01*
G01X21239Y1252D01*
G01X20038Y1252D01*
G37*
G36*
G01X18765Y23858D02*
G01X18765Y25163D01*
G01X19966Y25163D01*
G01X19966Y23858D01*
G01X18765Y23858D01*
G37*
G36*
G01X20165Y23858D02*
G01X20165Y25163D01*
G01X21366Y25163D01*
G01X21366Y23858D01*
G01X20165Y23858D01*
G37*
G36*
G01X14704Y2776D02*
G01X14704Y4081D01*
G01X15905Y4081D01*
G01X15905Y2776D01*
G01X14704Y2776D01*
G37*
G36*
G01X13304Y2776D02*
G01X13304Y4081D01*
G01X14505Y4081D01*
G01X14505Y2776D01*
G01X13304Y2776D01*
G37*
G36*
G01X1874Y13698D02*
G01X1874Y15003D01*
G01X3075Y15003D01*
G01X3075Y13698D01*
G01X1874Y13698D01*
G37*
G36*
G01X3274Y13698D02*
G01X3274Y15003D01*
G01X4475Y15003D01*
G01X4475Y13698D01*
G01X3274Y13698D01*
G37*
G36*
G01X43660Y20556D02*
G01X43660Y21861D01*
G01X44861Y21861D01*
G01X44861Y20556D01*
G01X43660Y20556D01*
G37*
G36*
G01X42260Y20556D02*
G01X42260Y21861D01*
G01X43461Y21861D01*
G01X43461Y20556D01*
G01X42260Y20556D01*
G37*
G36*
G01X43660Y24112D02*
G01X43660Y25417D01*
G01X44861Y25417D01*
G01X44861Y24112D01*
G01X43660Y24112D01*
G37*
G36*
G01X42260Y24112D02*
G01X42260Y25417D01*
G01X43461Y25417D01*
G01X43461Y24112D01*
G01X42260Y24112D01*
G37*
G36*
G01X43660Y22334D02*
G01X43660Y23639D01*
G01X44861Y23639D01*
G01X44861Y22334D01*
G01X43660Y22334D01*
G37*
G36*
G01X42260Y22334D02*
G01X42260Y23639D01*
G01X43461Y23639D01*
G01X43461Y22334D01*
G01X42260Y22334D01*
G37*
G36*
G01X33789Y18194D02*
G01X33789Y19397D01*
G01X34792Y19397D01*
G01X34792Y18194D01*
G01X33789Y18194D01*
G37*
G36*
G01X36329Y18194D02*
G01X36329Y19397D01*
G01X37332Y19397D01*
G01X37332Y18194D01*
G01X36329Y18194D01*
G37*
G01X27940Y24638D03*
G01X27940Y21838D03*
G36*
G01X43660Y11285D02*
G01X43660Y12590D01*
G01X44861Y12590D01*
G01X44861Y11285D01*
G01X43660Y11285D01*
G37*
G36*
G01X42260Y11285D02*
G01X42260Y12590D01*
G01X43461Y12590D01*
G01X43461Y11285D01*
G01X42260Y11285D01*
G37*
G36*
G01X43787Y16238D02*
G01X43787Y17543D01*
G01X44988Y17543D01*
G01X44988Y16238D01*
G01X43787Y16238D01*
G37*
G36*
G01X42387Y16238D02*
G01X42387Y17543D01*
G01X43588Y17543D01*
G01X43588Y16238D01*
G01X42387Y16238D01*
G37*
G36*
G01X43787Y14587D02*
G01X43787Y15892D01*
G01X44988Y15892D01*
G01X44988Y14587D01*
G01X43787Y14587D01*
G37*
G36*
G01X42387Y14587D02*
G01X42387Y15892D01*
G01X43588Y15892D01*
G01X43588Y14587D01*
G01X42387Y14587D01*
G37*
G36*
G01X33916Y9177D02*
G01X33916Y10380D01*
G01X34919Y10380D01*
G01X34919Y9177D01*
G01X33916Y9177D01*
G37*
G36*
G01X36456Y9177D02*
G01X36456Y10380D01*
G01X37459Y10380D01*
G01X37459Y9177D01*
G01X36456Y9177D01*
G37*
G01X27940Y15113D03*
G01X27940Y12313D03*
G36*
G01X1874Y15476D02*
G01X1874Y16781D01*
G01X3075Y16781D01*
G01X3075Y15476D01*
G01X1874Y15476D01*
G37*
G36*
G01X3274Y15476D02*
G01X3274Y16781D01*
G01X4475Y16781D01*
G01X4475Y15476D01*
G01X3274Y15476D01*
G37*
G36*
G01X10396Y23086D02*
G01X10396Y24287D01*
G01X11701Y24287D01*
G01X11701Y23086D01*
G01X10396Y23086D01*
G37*
G36*
G01X10396Y21686D02*
G01X10396Y22887D01*
G01X11701Y22887D01*
G01X11701Y21686D01*
G01X10396Y21686D01*
G37*
G36*
G01X1183Y11082D02*
G01X1183Y12285D01*
G01X3388Y12285D01*
G01X3388Y11082D01*
G01X1183Y11082D01*
G37*
G36*
G01X1183Y7272D02*
G01X1183Y8475D01*
G01X3388Y8475D01*
G01X3388Y7272D01*
G01X1183Y7272D01*
G37*
G36*
G01X1183Y9177D02*
G01X1183Y10380D01*
G01X3388Y10380D01*
G01X3388Y9177D01*
G01X1183Y9177D01*
G37*
G36*
G01X1557Y548D02*
G01X1557Y2753D01*
G01X2760Y2753D01*
G01X2760Y548D01*
G01X1557Y548D01*
G37*
G36*
G01X3589Y548D02*
G01X3589Y2753D01*
G01X4792Y2753D01*
G01X4792Y548D01*
G01X3589Y548D01*
G37*
G36*
G01X5621Y548D02*
G01X5621Y2753D01*
G01X6824Y2753D01*
G01X6824Y548D01*
G01X5621Y548D01*
G37*
G36*
G01X7653Y548D02*
G01X7653Y2753D01*
G01X8856Y2753D01*
G01X8856Y548D01*
G01X7653Y548D01*
G37*
G36*
G01X9685Y548D02*
G01X9685Y2753D01*
G01X10888Y2753D01*
G01X10888Y548D01*
G01X9685Y548D01*
G37*
G36*
G01X1691Y19464D02*
G01X1691Y20667D01*
G01X3896Y20667D01*
G01X3896Y19464D01*
G01X1691Y19464D01*
G37*
G36*
G01X1691Y25052D02*
G01X1691Y26255D01*
G01X3896Y26255D01*
G01X3896Y25052D01*
G01X1691Y25052D01*
G37*
G36*
G01X1691Y23147D02*
G01X1691Y24350D01*
G01X3896Y24350D01*
G01X3896Y23147D01*
G01X1691Y23147D01*
G37*
G36*
G01X1691Y21369D02*
G01X1691Y22572D01*
G01X3896Y22572D01*
G01X3896Y21369D01*
G01X1691Y21369D01*
G37*
M00*
M02*
