  0
SECTION
  2
HEADER
  9
$INSBASE
 10
0.0000
 20
0.0000
  9
$EXTMIN
 10
-57.818376618407356
 20
-57.818376618407356
  9
$EXTMAX
 10
57.818376618407356
 20
57.818376618407356
  9
$LIMMIN
 10
-57.818376618407356
 20
-57.818376618407356
  9
$LIMMAX
 10
57.818376618407356
 20
57.818376618407356
  9
$TEXTSTYLE
  7
STANDARD
  9
$CLAYER
  8
default
  0
ENDSEC
  0
SECTION
  2
TABLES
  0
TABLE
  2
LTYPE
 70
4948253
  0
LTYPE
  2
CONTINUOUS
 70
    64
  3
Solid line
 72
    65
 73
     0
 40
0.0
  0
ENDTAB
  0
TABLE
  2
LAYER
 70
     5
  0
LAYER
  2
default
 70
    64
 62
     7
  6
CONTINUOUS
  0
ENDTAB
  0
TABLE
  2
STYLE
 70
     1
  0
STYLE
  2
STANDARD
 70
     0
 40
0.0
 41
1.0
 50
0.0
 71
     0
 42
0.2
  3
txt
  4

  0
ENDTAB
  0
TABLE
  2
VIEW
 70
     0
  0
ENDTAB
  0
ENDSEC
  0
SECTION
  2
BLOCKS
  0
ENDSEC
  0
SECTION
  2
ENTITIES
  0
LINE
  8
default
 10
-54
 20
-54
 30
0.0
 11
-54
 21
54
 31
0.0
  0
LINE
  8
default
 10
-54
 20
54
 30
0.0
 11
54
 21
54
 31
0.0
  0
LINE
  8
default
 10
54
 20
54
 30
0.0
 11
54
 21
-54
 31
0.0
  0
LINE
  8
default
 10
54
 20
-54
 30
0.0
 11
-54
 21
-54
 31
0.0
  0
LINE
  8
default
 10
6.9619133533626467
 20
14.553320388437442
 30
0.0
 11
6.4525782719928344
 21
12.176193406906583
 31
0.0
  0
LINE
  8
default
 10
4.4800239805073421
 20
14.013389930356748
 30
0.0
 11
4.0657273650319183
 21
14.013389930356748
 31
0.0
  0
LINE
  8
default
 10
4.0657273650319183
 20
14.013389930356748
 30
0.0
 11
0
 21
14.013389930356748
 31
0.0
  0
LINE
  8
default
 10
4.4800239805073421
 20
11.700070035644696
 30
0.0
 11
4.0657273650319183
 21
11.700070035644696
 31
0.0
  0
LINE
  8
default
 10
4.0657273650319183
 20
11.700070035644696
 30
0.0
 11
0
 21
11.700070035644696
 31
0.0
  0
LINE
  8
default
 10
4.0657273650319183
 20
11.700070035644696
 30
0.0
 11
4.0657273650319183
 21
14.013389930356748
 31
0.0
  0
LINE
  8
default
 10
-6.9619133533626467
 20
14.553320388437442
 30
0.0
 11
-6.4525782719928344
 21
12.176193406906583
 31
0.0
  0
LINE
  8
default
 10
-4.4800239805073421
 20
14.013389930356748
 30
0.0
 11
-4.0657273650319183
 21
14.013389930356748
 31
0.0
  0
LINE
  8
default
 10
-4.0657273650319183
 20
14.013389930356748
 30
0.0
 11
0
 21
14.013389930356748
 31
0.0
  0
LINE
  8
default
 10
-4.4800239805073421
 20
11.700070035644696
 30
0.0
 11
-4.0657273650319183
 21
11.700070035644696
 31
0.0
  0
LINE
  8
default
 10
-4.0657273650319183
 20
11.700070035644696
 30
0.0
 11
0
 21
11.700070035644696
 31
0.0
  0
LINE
  8
default
 10
-4.0657273650319183
 20
11.700070035644696
 30
0.0
 11
-4.0657273650319183
 21
14.013389930356748
 31
0.0
  0
LINE
  8
default
 10
-9.122588489119515
 20
13.305854017176884
 30
0.0
 11
-7.3186036757772746
 21
11.676193406906583
 31
0.0
  0
LINE
  8
default
 10
-9.8959396825723172
 20
10.886509541861216
 30
0.0
 11
-10.10308799031003
 21
10.527718148157584
 31
0.0
  0
LINE
  8
default
 10
-10.10308799031003
 20
10.527718148157584
 30
0.0
 11
-12.135951672825989
 21
7.0066949651783759
 31
0.0
  0
LINE
  8
default
 10
-7.8925458866717371
 20
9.7298495945051879
 30
0.0
 11
-8.0996941944094498
 21
9.3710582008015582
 31
0.0
  0
LINE
  8
default
 10
-8.0996941944094498
 20
9.3710582008015582
 30
0.0
 11
-10.132557876925409
 21
5.850035017822349
 31
0.0
  0
LINE
  8
default
 10
-8.0996941944094498
 20
9.3710582008015582
 30
0.0
 11
-10.10308799031003
 21
10.527718148157584
 31
0.0
  0
LINE
  8
default
 10
-16.084501842482162
 20
1.2474663712605611
 30
0.0
 11
-13.77118194777011
 21
0.50000000000000355
 31
0.0
  0
LINE
  8
default
 10
-14.375963663079661
 20
3.126880388495537
 30
0.0
 11
-14.168815355341948
 21
3.4856717821991672
 31
0.0
  0
LINE
  8
default
 10
-14.168815355341948
 20
3.4856717821991672
 30
0.0
 11
-12.135951672825989
 21
7.0066949651783759
 31
0.0
  0
LINE
  8
default
 10
-12.372569867179081
 20
1.9702204411395101
 30
0.0
 11
-12.165421559441368
 21
2.3290118348431403
 31
0.0
  0
LINE
  8
default
 10
-12.165421559441368
 20
2.3290118348431403
 30
0.0
 11
-10.132557876925409
 21
5.850035017822349
 31
0.0
  0
LINE
  8
default
 10
-12.165421559441368
 20
2.3290118348431403
 30
0.0
 11
-14.168815355341948
 21
3.4856717821991672
 31
0.0
  0
LINE
  8
default
 10
-16.084501842482162
 20
-1.2474663712605558
 30
0.0
 11
-13.77118194777011
 21
-0.49999999999999822
 31
0.0
  0
LINE
  8
default
 10
-14.375963663079661
 20
-3.1268803884955312
 30
0.0
 11
-14.168815355341948
 21
-3.4856717821991614
 31
0.0
  0
LINE
  8
default
 10
-14.168815355341948
 20
-3.4856717821991614
 30
0.0
 11
-12.135951672825991
 21
-7.0066949651783705
 31
0.0
  0
LINE
  8
default
 10
-12.372569867179081
 20
-1.9702204411395061
 30
0.0
 11
-12.16542155944137
 21
-2.3290118348431363
 31
0.0
  0
LINE
  8
default
 10
-12.16542155944137
 20
-2.3290118348431363
 30
0.0
 11
-10.132557876925411
 21
-5.8500350178223455
 31
0.0
  0
LINE
  8
default
 10
-12.16542155944137
 20
-2.3290118348431363
 30
0.0
 11
-14.168815355341948
 21
-3.4856717821991614
 31
0.0
  0
LINE
  8
default
 10
-9.1225884891195186
 20
-13.305854017176879
 30
0.0
 11
-7.318603675777279
 21
-11.676193406906579
 31
0.0
  0
LINE
  8
default
 10
-9.8959396825723207
 20
-10.88650954186121
 30
0.0
 11
-10.103087990310033
 21
-10.527718148157579
 31
0.0
  0
LINE
  8
default
 10
-10.103087990310033
 20
-10.527718148157579
 30
0.0
 11
-12.135951672825991
 21
-7.0066949651783705
 31
0.0
  0
LINE
  8
default
 10
-7.8925458866717406
 20
-9.7298495945051844
 30
0.0
 11
-8.0996941944094516
 21
-9.3710582008015546
 31
0.0
  0
LINE
  8
default
 10
-8.0996941944094516
 20
-9.3710582008015546
 30
0.0
 11
-10.132557876925411
 21
-5.8500350178223455
 31
0.0
  0
LINE
  8
default
 10
-8.0996941944094516
 20
-9.3710582008015546
 30
0.0
 11
-10.103087990310033
 21
-10.527718148157579
 31
0.0
  0
LINE
  8
default
 10
-6.9619133533626485
 20
-14.553320388437442
 30
0.0
 11
-6.4525782719928362
 21
-12.176193406906583
 31
0.0
  0
LINE
  8
default
 10
-4.4800239805073439
 20
-14.013389930356748
 30
0.0
 11
-4.0657273650319201
 21
-14.013389930356748
 31
0.0
  0
LINE
  8
default
 10
-4.0657273650319201
 20
-14.013389930356748
 30
0.0
 11
-1.7161453123415142e-015
 21
-14.013389930356748
 31
0.0
  0
LINE
  8
default
 10
-4.4800239805073439
 20
-11.700070035644696
 30
0.0
 11
-4.0657273650319201
 21
-11.700070035644696
 31
0.0
  0
LINE
  8
default
 10
-4.0657273650319201
 20
-11.700070035644696
 30
0.0
 11
-1.4328453318952135e-015
 21
-11.700070035644696
 31
0.0
  0
LINE
  8
default
 10
-4.0657273650319201
 20
-11.700070035644696
 30
0.0
 11
-4.0657273650319201
 21
-14.013389930356748
 31
0.0
  0
LINE
  8
default
 10
6.9619133533626449
 20
-14.553320388437442
 30
0.0
 11
6.4525782719928326
 21
-12.176193406906583
 31
0.0
  0
LINE
  8
default
 10
4.4800239805073403
 20
-14.013389930356748
 30
0.0
 11
4.0657273650319166
 21
-14.013389930356748
 31
0.0
  0
LINE
  8
default
 10
4.0657273650319166
 20
-14.013389930356748
 30
0.0
 11
-1.7161453123415142e-015
 21
-14.013389930356748
 31
0.0
  0
LINE
  8
default
 10
4.4800239805073403
 20
-11.700070035644696
 30
0.0
 11
4.0657273650319166
 21
-11.700070035644696
 31
0.0
  0
LINE
  8
default
 10
4.0657273650319166
 20
-11.700070035644696
 30
0.0
 11
-1.4328453318952135e-015
 21
-11.700070035644696
 31
0.0
  0
LINE
  8
default
 10
4.0657273650319166
 20
-11.700070035644696
 30
0.0
 11
4.0657273650319166
 21
-14.013389930356748
 31
0.0
  0
LINE
  8
default
 10
9.1225884891195079
 20
-13.305854017176888
 30
0.0
 11
7.3186036757772692
 21
-11.676193406906584
 31
0.0
  0
LINE
  8
default
 10
9.8959396825723118
 20
-10.886509541861217
 30
0.0
 11
10.103087990310025
 21
-10.527718148157588
 31
0.0
  0
LINE
  8
default
 10
10.103087990310025
 20
-10.527718148157588
 30
0.0
 11
12.135951672825986
 21
-7.0066949651783803
 31
0.0
  0
LINE
  8
default
 10
7.8925458866717344
 20
-9.7298495945051915
 30
0.0
 11
8.0996941944094463
 21
-9.3710582008015617
 31
0.0
  0
LINE
  8
default
 10
8.0996941944094463
 20
-9.3710582008015617
 30
0.0
 11
10.132557876925407
 21
-5.8500350178223535
 31
0.0
  0
LINE
  8
default
 10
8.0996941944094463
 20
-9.3710582008015617
 30
0.0
 11
10.103087990310025
 21
-10.527718148157588
 31
0.0
  0
LINE
  8
default
 10
16.084501842482162
 20
-1.2474663712605674
 30
0.0
 11
13.77118194777011
 21
-0.50000000000000888
 31
0.0
  0
LINE
  8
default
 10
14.375963663079659
 20
-3.1268803884955427
 30
0.0
 11
14.168815355341946
 21
-3.4856717821991725
 31
0.0
  0
LINE
  8
default
 10
14.168815355341946
 20
-3.4856717821991725
 30
0.0
 11
12.135951672825986
 21
-7.0066949651783803
 31
0.0
  0
LINE
  8
default
 10
12.372569867179081
 20
-1.9702204411395159
 30
0.0
 11
12.165421559441368
 21
-2.3290118348431457
 31
0.0
  0
LINE
  8
default
 10
12.165421559441368
 20
-2.3290118348431457
 30
0.0
 11
10.132557876925407
 21
-5.8500350178223535
 31
0.0
  0
LINE
  8
default
 10
12.165421559441368
 20
-2.3290118348431457
 30
0.0
 11
14.168815355341946
 21
-3.4856717821991725
 31
0.0
  0
LINE
  8
default
 10
16.084501842482162
 20
1.2474663712605611
 30
0.0
 11
13.77118194777011
 21
0.50000000000000355
 31
0.0
  0
LINE
  8
default
 10
14.375963663079661
 20
3.126880388495537
 30
0.0
 11
14.168815355341948
 21
3.4856717821991672
 31
0.0
  0
LINE
  8
default
 10
14.168815355341948
 20
3.4856717821991672
 30
0.0
 11
12.135951672825989
 21
7.0066949651783759
 31
0.0
  0
LINE
  8
default
 10
12.372569867179081
 20
1.9702204411395101
 30
0.0
 11
12.165421559441368
 21
2.3290118348431403
 31
0.0
  0
LINE
  8
default
 10
12.165421559441368
 20
2.3290118348431403
 30
0.0
 11
10.132557876925409
 21
5.850035017822349
 31
0.0
  0
LINE
  8
default
 10
12.165421559441368
 20
2.3290118348431403
 30
0.0
 11
14.168815355341948
 21
3.4856717821991672
 31
0.0
  0
LINE
  8
default
 10
9.122588489119515
 20
13.305854017176884
 30
0.0
 11
7.3186036757772746
 21
11.676193406906583
 31
0.0
  0
LINE
  8
default
 10
9.8959396825723172
 20
10.886509541861216
 30
0.0
 11
10.10308799031003
 21
10.527718148157584
 31
0.0
  0
LINE
  8
default
 10
10.10308799031003
 20
10.527718148157584
 30
0.0
 11
12.135951672825989
 21
7.0066949651783759
 31
0.0
  0
LINE
  8
default
 10
7.8925458866717371
 20
9.7298495945051879
 30
0.0
 11
8.0996941944094498
 21
9.3710582008015582
 31
0.0
  0
LINE
  8
default
 10
8.0996941944094498
 20
9.3710582008015582
 30
0.0
 11
10.132557876925409
 21
5.850035017822349
 31
0.0
  0
LINE
  8
default
 10
8.0996941944094498
 20
9.3710582008015582
 30
0.0
 11
10.10308799031003
 21
10.527718148157584
 31
0.0
  0
ARC
  8
default
 10
0
 20
-4.4408920985006262e-016
 30
0
 40
9
 50
2.8271597168564595e-015
 51
59.999999999999993
  0
ARC
  8
default
 10
0
 20
-8.8817841970012523e-016
 30
0
 40
9
 50
59.999999999999993
 51
119.99999999999999
  0
ARC
  8
default
 10
-8.8817841970012523e-016
 20
0
 30
0
 40
9
 50
119.99999999999999
 51
180
  0
ARC
  8
default
 10
0
 20
4.4408920985006262e-016
 30
0
 40
9
 50
180
 51
240
  0
ARC
  8
default
 10
0
 20
8.8817841970012523e-016
 30
0
 40
9
 50
240
 51
300
  0
ARC
  8
default
 10
8.8817841970012523e-016
 20
0
 30
0
 40
9
 50
300
 51
0
  0
ARC
  8
default
 10
0.075437853969754443
 20
12.82949169589476
 30
0
 40
5.1710585949719059
 50
24.402666989490598
 51
90.83588764211521
  0
ARC
  8
default
 10
6.9225298822451951
 20
20.599144058549161
 30
0
 40
6.0253193739441322
 50
249.21668100434323
 51
285.5940095699151
  0
ARC
  8
default
 10
4.8993169170348754
 20
18.060228117285131
 30
0
 40
4.0685016747942582
 50
264.08469059130516
 51
300.46201915687703
  0
ARC
  8
default
 10
4.7417492968231834
 20
14.939912156358673
 30
0
 40
3.2503964540272716
 50
265.38148401236555
 51
301.75881257793742
  0
ARC
  8
default
 10
-0.075437853969754887
 20
12.82949169589476
 30
0
 40
5.1710585949719059
 50
89.164112357884804
 51
155.59733301050943
  0
ARC
  8
default
 10
-6.9225298822451959
 20
20.599144058549161
 30
0
 40
6.0253193739441322
 50
254.40599043008487
 51
290.78331899565677
  0
ARC
  8
default
 10
-4.8993169170348754
 20
18.060228117285131
 30
0
 40
4.0685016747942582
 50
239.53798084312297
 51
275.91530940869484
  0
ARC
  8
default
 10
-4.7417492968231834
 20
14.939912156358673
 30
0
 40
3.2503964540272716
 50
238.24118742206255
 51
274.61851598763445
  0
ARC
  8
default
 10
-11.072946799301482
 20
6.4800769458921694
 30
0
 40
5.1710585949719059
 50
84.402666989490612
 51
150.83588764211521
  0
ARC
  8
default
 10
-14.378117109796259
 20
16.294658765755827
 30
0
 40
6.0253193739441366
 50
309.21668100434317
 51
345.5940095699151
  0
ARC
  8
default
 10
-13.190957889193488
 20
13.273046969985625
 30
0
 40
4.0685016747942573
 50
324.08469059130516
 51
0.46201915687707085
  0
ARC
  8
default
 10
-10.567468809302971
 20
11.576431427605213
 30
0
 40
3.2503964540272721
 50
325.38148401236555
 51
1.7588125779374548
  0
ARC
  8
default
 10
-11.148384653271236
 20
6.349414750002591
 30
0
 40
5.1710585949719068
 50
149.16411235788479
 51
215.59733301050935
  0
ARC
  8
default
 10
-21.300646992041454
 20
4.3044852927933421
 30
0
 40
6.0253193739441313
 50
314.4059904300849
 51
350.78331899565677
  0
ARC
  8
default
 10
-18.090274806228365
 20
4.7871811472995081
 30
0
 40
4.0685016747942573
 50
299.53798084312297
 51
335.91530940869484
  0
ARC
  8
default
 10
-15.309218106126153
 20
3.3634807287534616
 30
0
 40
3.2503964540272694
 50
298.24118742206252
 51
334.61851598763445
  0
ARC
  8
default
 10
-11.148384653271238
 20
-6.3494147500025866
 30
0
 40
5.1710585949719068
 50
144.40266698949063
 51
210.83588764211521
  0
ARC
  8
default
 10
-21.300646992041457
 20
-4.3044852927933341
 30
0
 40
6.0253193739441357
 50
9.2166810043431777
 51
45.594009569915094
  0
ARC
  8
default
 10
-18.090274806228365
 20
-4.7871811472995018
 30
0
 40
4.0685016747942573
 50
24.084690591305144
 51
60.462019156877041
  0
ARC
  8
default
 10
-15.309218106126155
 20
-3.3634807287534567
 30
0
 40
3.2503964540272716
 50
25.381484012365537
 51
61.758812577937441
  0
ARC
  8
default
 10
-11.072946799301484
 20
-6.480076945892165
 30
0
 40
5.171058594971905
 50
209.16411235788479
 51
275.59733301050937
  0
ARC
  8
default
 10
-14.378117109796261
 20
-16.29465876575582
 30
0
 40
6.0253193739441331
 50
14.405990430084916
 51
50.783318995656813
  0
ARC
  8
default
 10
-13.190957889193491
 20
-13.27304696998562
 30
0
 40
4.0685016747942573
 50
359.53798084312291
 51
35.915309408694839
  0
ARC
  8
default
 10
-10.567468809302975
 20
-11.576431427605208
 30
0
 40
3.2503964540272721
 50
358.24118742206252
 51
34.618515987634417
  0
ARC
  8
default
 10
-0.075437853969756219
 20
-12.82949169589476
 30
0
 40
5.1710585949719059
 50
204.40266698949057
 51
270.83588764211521
  0
ARC
  8
default
 10
-6.9225298822452075
 20
-20.599144058549165
 30
0
 40
6.0253193739441393
 50
69.216681004343144
 51
105.59400956991504
  0
ARC
  8
default
 10
-4.8993169170348772
 20
-18.060228117285131
 30
0
 40
4.0685016747942582
 50
84.084690591305147
 51
120.46201915687705
  0
ARC
  8
default
 10
-4.7417492968231851
 20
-14.939912156358673
 30
0
 40
3.2503964540272716
 50
85.381484012365547
 51
121.75881257793745
  0
ARC
  8
default
 10
0.07543785396975268
 20
-12.82949169589476
 30
0
 40
5.1710585949719059
 50
269.16411235788479
 51
335.59733301050937
  0
ARC
  8
default
 10
6.9225298822451915
 20
-20.599144058549161
 30
0
 40
6.0253193739441322
 50
74.405990430084856
 51
110.78331899565677
  0
ARC
  8
default
 10
4.8993169170348736
 20
-18.060228117285131
 30
0
 40
4.0685016747942582
 50
59.537980843122959
 51
95.915309408694867
  0
ARC
  8
default
 10
4.7417492968231816
 20
-14.939912156358673
 30
0
 40
3.2503964540272716
 50
58.241187422062559
 51
94.618515987634453
  0
ARC
  8
default
 10
11.07294679930148
 20
-6.4800769458921721
 30
0
 40
5.1710585949719068
 50
264.40266698949057
 51
330.83588764211515
  0
ARC
  8
default
 10
14.378117109796253
 20
-16.294658765755823
 30
0
 40
6.0253193739441322
 50
129.21668100434323
 51
165.59400956991513
  0
ARC
  8
default
 10
13.190957889193486
 20
-13.273046969985632
 30
0
 40
4.0685016747942608
 50
144.08469059130513
 51
180.46201915687701
  0
ARC
  8
default
 10
10.567468809302964
 20
-11.576431427605218
 30
0
 40
3.2503964540272707
 50
145.38148401236549
 51
181.75881257793739
  0
ARC
  8
default
 10
11.148384653271236
 20
-6.3494147500025946
 30
0
 40
5.1710585949719059
 50
329.16411235788473
 51
35.597333010509352
  0
ARC
  8
default
 10
21.300646992041454
 20
-4.3044852927933501
 30
0
 40
6.0253193739441313
 50
134.4059904300849
 51
170.7833189956568
  0
ARC
  8
default
 10
18.090274806228365
 20
-4.787181147299516
 30
0
 40
4.0685016747942599
 50
119.53798084312294
 51
155.91530940869484
  0
ARC
  8
default
 10
15.309218106126153
 20
-3.3634807287534665
 30
0
 40
3.2503964540272698
 50
118.24118742206254
 51
154.61851598763445
  0
ARC
  8
default
 10
11.148384653271236
 20
6.349414750002591
 30
0
 40
5.1710585949719068
 50
324.40266698949063
 51
30.835887642115225
  0
ARC
  8
default
 10
21.300646992041479
 20
4.3044852927933341
 30
0
 40
6.0253193739441526
 50
189.21668100434309
 51
225.59400956991499
  0
ARC
  8
default
 10
18.090274806228365
 20
4.7871811472995081
 30
0
 40
4.0685016747942573
 50
204.08469059130513
 51
240.46201915687703
  0
ARC
  8
default
 10
15.309218106126153
 20
3.3634807287534616
 30
0
 40
3.2503964540272694
 50
205.38148401236555
 51
241.75881257793748
  0
ARC
  8
default
 10
11.072946799301482
 20
6.4800769458921694
 30
0
 40
5.1710585949719059
 50
29.16411235788479
 51
95.597333010509388
  0
ARC
  8
default
 10
14.378117109796259
 20
16.294658765755827
 30
0
 40
6.0253193739441366
 50
194.4059904300849
 51
230.78331899565683
  0
ARC
  8
default
 10
13.190957889193488
 20
13.273046969985625
 30
0
 40
4.0685016747942573
 50
179.53798084312294
 51
215.91530940869484
  0
ARC
  8
default
 10
10.567468809302971
 20
11.576431427605213
 30
0
 40
3.2503964540272721
 50
178.24118742206252
 51
214.61851598763442
  0
ARC
  8
default
 10
0
 20
0
 30
0
 40
20.5
 50
0
 51
180
  0
ARC
  8
default
 10
0
 20
0
 30
0
 40
20.5
 50
180
 51
0
  0
ARC
  8
default
 10
0
 20
0
 30
0
 40
23.5
 50
0
 51
180
  0
ARC
  8
default
 10
0
 20
0
 30
0
 40
23.5
 50
180
 51
0
  0
ENDSEC
  0
EOF
