  0
SECTION
  2
HEADER
  9
$INSBASE
 10
0.0000
 20
0.0000
  9
$EXTMIN
 10
-57.818376618407356
 20
-57.818376618407356
  9
$EXTMAX
 10
57.818376618407356
 20
57.818376618407356
  9
$LIMMIN
 10
-57.818376618407356
 20
-57.818376618407356
  9
$LIMMAX
 10
57.818376618407356
 20
57.818376618407356
  9
$TEXTSTYLE
  7
STANDARD
  9
$CLAYER
  8
default
  0
ENDSEC
  0
SECTION
  2
TABLES
  0
TABLE
  2
LTYPE
 70
4948253
  0
LTYPE
  2
CONTINUOUS
 70
    64
  3
Solid line
 72
    65
 73
     0
 40
0.0
  0
ENDTAB
  0
TABLE
  2
LAYER
 70
     5
  0
LAYER
  2
default
 70
    64
 62
     7
  6
CONTINUOUS
  0
ENDTAB
  0
TABLE
  2
STYLE
 70
     1
  0
STYLE
  2
STANDARD
 70
     0
 40
0.0
 41
1.0
 50
0.0
 71
     0
 42
0.2
  3
txt
  4

  0
ENDTAB
  0
TABLE
  2
VIEW
 70
     0
  0
ENDTAB
  0
ENDSEC
  0
SECTION
  2
BLOCKS
  0
ENDSEC
  0
SECTION
  2
ENTITIES
  0
LINE
  8
default
 10
-54
 20
-54
 30
0.0
 11
-54
 21
54
 31
0.0
  0
LINE
  8
default
 10
-54
 20
54
 30
0.0
 11
54
 21
54
 31
0.0
  0
LINE
  8
default
 10
54
 20
54
 30
0.0
 11
54
 21
-54
 31
0.0
  0
LINE
  8
default
 10
54
 20
-54
 30
0.0
 11
-54
 21
-54
 31
0.0
  0
LINE
  8
default
 10
7.1917131049448582
 20
14.284879591290071
 30
0.0
 11
6.3917337746438339
 21
12.070807646137125
 31
0.0
  0
LINE
  8
default
 10
4.9204540035506312
 20
14.050773117297947
 30
0.0
 11
4.6129111500347015
 21
14.050773117297947
 31
0.0
  0
LINE
  8
default
 10
4.6129111500347015
 20
14.050773117297947
 30
0.0
 11
0
 21
14.050773117297947
 31
0.0
  0
LINE
  8
default
 10
4.9204540035506312
 20
11.733340901838556
 30
0.0
 11
4.6129111500347015
 21
11.733340901838556
 31
0.0
  0
LINE
  8
default
 10
4.6129111500347015
 20
11.733340901838556
 30
0.0
 11
0
 21
11.733340901838556
 31
0.0
  0
LINE
  8
default
 10
4.6129111500347015
 20
11.733340901838556
 30
0.0
 11
4.6129111500347015
 21
14.050773117297947
 31
0.0
  0
LINE
  8
default
 10
-7.1917131049448582
 20
14.284879591290071
 30
0.0
 11
-6.3917337746438339
 21
12.070807646137125
 31
0.0
  0
LINE
  8
default
 10
-4.9204540035506312
 20
14.050773117297947
 30
0.0
 11
-4.6129111500347015
 21
14.050773117297947
 31
0.0
  0
LINE
  8
default
 10
-4.6129111500347015
 20
14.050773117297947
 30
0.0
 11
0
 21
14.050773117297947
 31
0.0
  0
LINE
  8
default
 10
-4.9204540035506312
 20
11.733340901838556
 30
0.0
 11
-4.6129111500347015
 21
11.733340901838556
 31
0.0
  0
LINE
  8
default
 10
-4.6129111500347015
 20
11.733340901838556
 30
0.0
 11
0
 21
11.733340901838556
 31
0.0
  0
LINE
  8
default
 10
-4.6129111500347015
 20
11.733340901838556
 30
0.0
 11
-4.6129111500347015
 21
14.050773117297947
 31
0.0
  0
LINE
  8
default
 10
-8.7752120635866397
 20
13.370646041256748
 30
0.0
 11
-7.2577591784282749
 21
11.570807646137125
 31
0.0
  0
LINE
  8
default
 10
-9.7080994606161735
 20
11.286624723876667
 30
0.0
 11
-9.8618708873741383
 21
11.020284799979517
 31
0.0
  0
LINE
  8
default
 10
-9.8618708873741383
 20
11.020284799979517
 30
0.0
 11
-12.168326462391489
 21
7.0253865586489752
 31
0.0
  0
LINE
  8
default
 10
-7.7011442904798884
 20
10.127908616146971
 30
0.0
 11
-7.8549157172378532
 21
9.8615686922498202
 31
0.0
  0
LINE
  8
default
 10
-7.8549157172378532
 20
9.8615686922498202
 30
0.0
 11
-10.161371292255204
 21
5.8666704509192789
 31
0.0
  0
LINE
  8
default
 10
-7.8549157172378532
 20
9.8615686922498202
 30
0.0
 11
-9.8618708873741383
 21
11.020284799979517
 31
0.0
  0
LINE
  8
default
 10
-15.9669251685315
 20
0.91423355003332762
 30
0.0
 11
-13.649492953072111
 21
0.50000000000000355
 31
0.0
  0
LINE
  8
default
 10
-14.628553464166805
 20
2.7641483934212827
 30
0.0
 11
-14.47478203740884
 21
3.0304883173184338
 31
0.0
  0
LINE
  8
default
 10
-14.47478203740884
 20
3.0304883173184338
 30
0.0
 11
-12.168326462391489
 21
7.0253865586489752
 31
0.0
  0
LINE
  8
default
 10
-12.62159829403052
 20
1.6054322856915864
 30
0.0
 11
-12.467826867272555
 21
1.8717722095887375
 31
0.0
  0
LINE
  8
default
 10
-12.467826867272555
 20
1.8717722095887375
 30
0.0
 11
-10.161371292255204
 21
5.8666704509192789
 31
0.0
  0
LINE
  8
default
 10
-12.467826867272555
 20
1.8717722095887375
 30
0.0
 11
-14.47478203740884
 21
3.0304883173184338
 31
0.0
  0
LINE
  8
default
 10
-15.9669251685315
 20
-0.91423355003332141
 30
0.0
 11
-13.649492953072109
 21
-0.49999999999999911
 31
0.0
  0
LINE
  8
default
 10
-14.628553464166806
 20
-2.7641483934212765
 30
0.0
 11
-14.47478203740884
 21
-3.030488317318428
 31
0.0
  0
LINE
  8
default
 10
-14.47478203740884
 20
-3.030488317318428
 30
0.0
 11
-12.168326462391491
 21
-7.0253865586489699
 31
0.0
  0
LINE
  8
default
 10
-12.62159829403052
 20
-1.6054322856915819
 30
0.0
 11
-12.467826867272557
 21
-1.8717722095887335
 31
0.0
  0
LINE
  8
default
 10
-12.467826867272557
 20
-1.8717722095887335
 30
0.0
 11
-10.161371292255206
 21
-5.8666704509192753
 31
0.0
  0
LINE
  8
default
 10
-12.467826867272557
 20
-1.8717722095887335
 30
0.0
 11
-14.47478203740884
 21
-3.030488317318428
 31
0.0
  0
LINE
  8
default
 10
-8.7752120635866433
 20
-13.370646041256743
 30
0.0
 11
-7.2577591784282767
 21
-11.570807646137119
 31
0.0
  0
LINE
  8
default
 10
-9.7080994606161752
 20
-11.286624723876663
 30
0.0
 11
-9.8618708873741419
 21
-11.020284799979512
 31
0.0
  0
LINE
  8
default
 10
-9.8618708873741419
 20
-11.020284799979512
 30
0.0
 11
-12.168326462391491
 21
-7.0253865586489699
 31
0.0
  0
LINE
  8
default
 10
-7.701144290479891
 20
-10.127908616146968
 30
0.0
 11
-7.8549157172378559
 21
-9.8615686922498167
 31
0.0
  0
LINE
  8
default
 10
-7.8549157172378559
 20
-9.8615686922498167
 30
0.0
 11
-10.161371292255206
 21
-5.8666704509192753
 31
0.0
  0
LINE
  8
default
 10
-7.8549157172378559
 20
-9.8615686922498167
 30
0.0
 11
-9.8618708873741419
 21
-11.020284799979512
 31
0.0
  0
LINE
  8
default
 10
-7.1917131049448599
 20
-14.284879591290071
 30
0.0
 11
-6.3917337746438356
 21
-12.070807646137125
 31
0.0
  0
LINE
  8
default
 10
-4.920454003550633
 20
-14.050773117297947
 30
0.0
 11
-4.6129111500347033
 21
-14.050773117297947
 31
0.0
  0
LINE
  8
default
 10
-4.6129111500347033
 20
-14.050773117297947
 30
0.0
 11
-1.7207234323644609e-015
 21
-14.050773117297947
 31
0.0
  0
LINE
  8
default
 10
-4.920454003550633
 20
-11.733340901838556
 30
0.0
 11
-4.6129111500347033
 21
-11.733340901838556
 31
0.0
  0
LINE
  8
default
 10
-4.6129111500347033
 20
-11.733340901838556
 30
0.0
 11
-1.4369198378741306e-015
 21
-11.733340901838556
 31
0.0
  0
LINE
  8
default
 10
-4.6129111500347033
 20
-11.733340901838556
 30
0.0
 11
-4.6129111500347033
 21
-14.050773117297947
 31
0.0
  0
LINE
  8
default
 10
7.1917131049448564
 20
-14.284879591290071
 30
0.0
 11
6.3917337746438321
 21
-12.070807646137125
 31
0.0
  0
LINE
  8
default
 10
4.9204540035506295
 20
-14.050773117297947
 30
0.0
 11
4.6129111500346998
 21
-14.050773117297947
 31
0.0
  0
LINE
  8
default
 10
4.6129111500346998
 20
-14.050773117297947
 30
0.0
 11
-1.7207234323644609e-015
 21
-14.050773117297947
 31
0.0
  0
LINE
  8
default
 10
4.9204540035506295
 20
-11.733340901838556
 30
0.0
 11
4.6129111500346998
 21
-11.733340901838556
 31
0.0
  0
LINE
  8
default
 10
4.6129111500346998
 20
-11.733340901838556
 30
0.0
 11
-1.4369198378741306e-015
 21
-11.733340901838556
 31
0.0
  0
LINE
  8
default
 10
4.6129111500346998
 20
-11.733340901838556
 30
0.0
 11
4.6129111500346998
 21
-14.050773117297947
 31
0.0
  0
LINE
  8
default
 10
8.7752120635866344
 20
-13.37064604125675
 30
0.0
 11
7.2577591784282696
 21
-11.570807646137126
 31
0.0
  0
LINE
  8
default
 10
9.7080994606161681
 20
-11.28662472387667
 30
0.0
 11
9.861870887374133
 21
-11.020284799979521
 31
0.0
  0
LINE
  8
default
 10
9.861870887374133
 20
-11.020284799979521
 30
0.0
 11
12.168326462391486
 21
-7.0253865586489797
 31
0.0
  0
LINE
  8
default
 10
7.7011442904798848
 20
-10.127908616146975
 30
0.0
 11
7.8549157172378496
 21
-9.8615686922498238
 31
0.0
  0
LINE
  8
default
 10
7.8549157172378496
 20
-9.8615686922498238
 30
0.0
 11
10.161371292255202
 21
-5.8666704509192833
 31
0.0
  0
LINE
  8
default
 10
7.8549157172378496
 20
-9.8615686922498238
 30
0.0
 11
9.861870887374133
 21
-11.020284799979521
 31
0.0
  0
LINE
  8
default
 10
15.966925168531498
 20
-0.91423355003333384
 30
0.0
 11
13.649492953072109
 21
-0.50000000000000888
 31
0.0
  0
LINE
  8
default
 10
14.628553464166803
 20
-2.764148393421288
 30
0.0
 11
14.474782037408838
 21
-3.0304883173184392
 31
0.0
  0
LINE
  8
default
 10
14.474782037408838
 20
-3.0304883173184392
 30
0.0
 11
12.168326462391486
 21
-7.0253865586489797
 31
0.0
  0
LINE
  8
default
 10
12.62159829403052
 20
-1.6054322856915917
 30
0.0
 11
12.467826867272555
 21
-1.8717722095887428
 31
0.0
  0
LINE
  8
default
 10
12.467826867272555
 20
-1.8717722095887428
 30
0.0
 11
10.161371292255202
 21
-5.8666704509192833
 31
0.0
  0
LINE
  8
default
 10
12.467826867272555
 20
-1.8717722095887428
 30
0.0
 11
14.474782037408838
 21
-3.0304883173184392
 31
0.0
  0
LINE
  8
default
 10
15.9669251685315
 20
0.91423355003332762
 30
0.0
 11
13.649492953072111
 21
0.50000000000000355
 31
0.0
  0
LINE
  8
default
 10
14.628553464166805
 20
2.7641483934212827
 30
0.0
 11
14.47478203740884
 21
3.0304883173184338
 31
0.0
  0
LINE
  8
default
 10
14.47478203740884
 20
3.0304883173184338
 30
0.0
 11
12.168326462391489
 21
7.0253865586489752
 31
0.0
  0
LINE
  8
default
 10
12.62159829403052
 20
1.6054322856915864
 30
0.0
 11
12.467826867272555
 21
1.8717722095887375
 31
0.0
  0
LINE
  8
default
 10
12.467826867272555
 20
1.8717722095887375
 30
0.0
 11
10.161371292255204
 21
5.8666704509192789
 31
0.0
  0
LINE
  8
default
 10
12.467826867272555
 20
1.8717722095887375
 30
0.0
 11
14.47478203740884
 21
3.0304883173184338
 31
0.0
  0
LINE
  8
default
 10
8.7752120635866397
 20
13.370646041256748
 30
0.0
 11
7.2577591784282749
 21
11.570807646137125
 31
0.0
  0
LINE
  8
default
 10
9.7080994606161735
 20
11.286624723876667
 30
0.0
 11
9.8618708873741383
 21
11.020284799979517
 31
0.0
  0
LINE
  8
default
 10
9.8618708873741383
 20
11.020284799979517
 30
0.0
 11
12.168326462391489
 21
7.0253865586489752
 31
0.0
  0
LINE
  8
default
 10
7.7011442904798884
 20
10.127908616146971
 30
0.0
 11
7.8549157172378532
 21
9.8615686922498202
 31
0.0
  0
LINE
  8
default
 10
7.8549157172378532
 20
9.8615686922498202
 30
0.0
 11
10.161371292255204
 21
5.8666704509192789
 31
0.0
  0
LINE
  8
default
 10
7.8549157172378532
 20
9.8615686922498202
 30
0.0
 11
9.8618708873741383
 21
11.020284799979517
 31
0.0
  0
ARC
  8
default
 10
0
 20
-4.4408920985006262e-016
 30
0
 40
9
 50
2.8271597168564595e-015
 51
59.999999999999993
  0
ARC
  8
default
 10
0
 20
-8.8817841970012523e-016
 30
0
 40
9
 50
59.999999999999993
 51
119.99999999999999
  0
ARC
  8
default
 10
-8.8817841970012523e-016
 20
0
 30
0
 40
9
 50
119.99999999999999
 51
180
  0
ARC
  8
default
 10
0
 20
4.4408920985006262e-016
 30
0
 40
9
 50
180
 51
240
  0
ARC
  8
default
 10
0
 20
8.8817841970012523e-016
 30
0
 40
9
 50
240
 51
300
  0
ARC
  8
default
 10
8.8817841970012523e-016
 20
0
 30
0
 40
9
 50
300
 51
0
  0
ARC
  8
default
 10
0.81946838265105981
 20
13.341887732500211
 30
0
 40
4.7296446300749455
 50
20.452556221008162
 51
99.97754163668057
  0
ARC
  8
default
 10
7.3040095421462414
 20
19.538337495818599
 30
0
 40
4.9860572764298441
 50
245.68473830776838
 51
283.68302170812001
  0
ARC
  8
default
 10
5.7161197263115664
 20
17.466094553279575
 30
0
 40
3.5067797839973194
 50
256.88574911734224
 51
294.88403251769387
  0
ARC
  8
default
 10
5.1660327462483586
 20
14.038631603721214
 30
0
 40
2.3183343458292711
 50
263.91930953772498
 51
301.91759293807661
  0
ARC
  8
default
 10
-0.81946838265105937
 20
13.341887732500211
 30
0
 40
4.7296446300749455
 50
80.022458363319444
 51
159.54744377899183
  0
ARC
  8
default
 10
-7.3040095421462414
 20
19.538337495818599
 30
0
 40
4.9860572764298441
 50
256.31697829187993
 51
294.31526169223162
  0
ARC
  8
default
 10
-5.7161197263115664
 20
17.466094553279575
 30
0
 40
3.5067797839973194
 50
245.11596748230616
 51
283.11425088265776
  0
ARC
  8
default
 10
-5.1660327462483586
 20
14.038631603721214
 30
0
 40
2.3183343458292711
 50
238.08240706192339
 51
276.08069046227502
  0
ARC
  8
default
 10
-11.144679519459613
 20
7.3806243032240726
 30
0
 40
4.7296446300749455
 50
80.452556221008166
 51
159.97754163668057
  0
ARC
  8
default
 10
-13.268691848019818
 20
16.094626560891896
 30
0
 40
4.9860572764298459
 50
305.68473830776838
 51
343.68302170812001
  0
ARC
  8
default
 10
-12.268021724885346
 20
13.68335217069896
 30
0
 40
3.5067797839973229
 50
316.88574911734219
 51
354.88403251769381
  0
ARC
  8
default
 10
-9.5747952300694692
 20
11.493231396893975
 30
0
 40
2.3183343458292733
 50
323.91930953772498
 51
1.9175929380766357
  0
ARC
  8
default
 10
-11.964147902110673
 20
5.9612634292761424
 30
0
 40
4.7296446300749455
 50
140.02245836331943
 51
219.54744377899181
  0
ARC
  8
default
 10
-20.57270139016606
 20
3.4437109349267123
 30
0
 40
4.986057276429845
 50
316.31697829187993
 51
354.31526169223156
  0
ARC
  8
default
 10
-17.984141451196912
 20
3.7827423825806203
 30
0
 40
3.5067797839973207
 50
305.11596748230619
 51
343.11425088265781
  0
ARC
  8
default
 10
-14.740827976317824
 20
2.5454002068272441
 30
0
 40
2.3183343458292729
 50
298.08240706192333
 51
336.08069046227496
  0
ARC
  8
default
 10
-11.964147902110675
 20
-5.9612634292761379
 30
0
 40
4.7296446300749455
 50
140.45255622100814
 51
219.97754163668054
  0
ARC
  8
default
 10
-20.572701390166063
 20
-3.4437109349267057
 30
0
 40
4.9860572764298468
 50
5.6847383077684119
 51
43.683021708120052
  0
ARC
  8
default
 10
-17.984141451196912
 20
-3.7827423825806115
 30
0
 40
3.5067797839973194
 50
16.885749117342169
 51
54.884032517693818
  0
ARC
  8
default
 10
-14.740827976317824
 20
-2.545400206827237
 30
0
 40
2.3183343458292711
 50
23.919309537724978
 51
61.917592938076623
  0
ARC
  8
default
 10
-11.144679519459615
 20
-7.3806243032240682
 30
0
 40
4.7296446300749437
 50
200.02245836331943
 51
279.54744377899181
  0
ARC
  8
default
 10
-13.268691848019824
 20
-16.094626560891889
 30
0
 40
4.9860572764298468
 50
16.316978291879952
 51
54.315261692231608
  0
ARC
  8
default
 10
-12.268021724885346
 20
-13.683352170698953
 30
0
 40
3.5067797839973194
 50
5.1159674823061421
 51
43.114250882657785
  0
ARC
  8
default
 10
-9.5747952300694674
 20
-11.493231396893972
 30
0
 40
2.3183343458292711
 50
358.08240706192339
 51
36.080690462275051
  0
ARC
  8
default
 10
-0.81946838265106159
 20
-13.341887732500211
 30
0
 40
4.7296446300749455
 50
200.45255622100817
 51
279.97754163668054
  0
ARC
  8
default
 10
-7.3040095421462503
 20
-19.538337495818602
 30
0
 40
4.9860572764298503
 50
65.684738307768342
 51
103.68302170811999
  0
ARC
  8
default
 10
-5.7161197263115682
 20
-17.466094553279575
 30
0
 40
3.5067797839973194
 50
76.885749117342215
 51
114.88403251769384
  0
ARC
  8
default
 10
-5.1660327462483604
 20
-14.038631603721214
 30
0
 40
2.3183343458292711
 50
83.91930953772497
 51
121.91759293807662
  0
ARC
  8
default
 10
0.81946838265105715
 20
-13.341887732500211
 30
0
 40
4.7296446300749455
 50
260.0224583633194
 51
339.54744377899186
  0
ARC
  8
default
 10
7.304009542146237
 20
-19.538337495818602
 30
0
 40
4.9860572764298432
 50
76.316978291879934
 51
114.31526169223156
  0
ARC
  8
default
 10
5.7161197263115646
 20
-17.466094553279575
 30
0
 40
3.5067797839973194
 50
65.115967482306161
 51
103.11425088265779
  0
ARC
  8
default
 10
5.1660327462483568
 20
-14.038631603721214
 30
0
 40
2.3183343458292711
 50
58.082407061923391
 51
96.08069046227503
  0
ARC
  8
default
 10
11.14467951945961
 20
-7.3806243032240761
 30
0
 40
4.7296446300749455
 50
260.45255622100814
 51
339.97754163668054
  0
ARC
  8
default
 10
13.268691848019811
 20
-16.094626560891896
 30
0
 40
4.9860572764298405
 50
125.68473830776838
 51
163.68302170812001
  0
ARC
  8
default
 10
12.268021724885338
 20
-13.683352170698962
 30
0
 40
3.5067797839973207
 50
136.88574911734219
 51
174.88403251769384
  0
ARC
  8
default
 10
9.5747952300694621
 20
-11.493231396893981
 30
0
 40
2.3183343458292711
 50
143.91930953772493
 51
181.91759293807655
  0
ARC
  8
default
 10
11.964147902110669
 20
-5.9612634292761468
 30
0
 40
4.7296446300749455
 50
320.0224583633194
 51
39.547443778991813
  0
ARC
  8
default
 10
20.572701390166056
 20
-3.4437109349267154
 30
0
 40
4.9860572764298414
 50
136.31697829187996
 51
174.31526169223162
  0
ARC
  8
default
 10
17.984141451196908
 20
-3.7827423825806261
 30
0
 40
3.5067797839973194
 50
125.11596748230615
 51
163.11425088265779
  0
ARC
  8
default
 10
14.740827976317824
 20
-2.5454002068272468
 30
0
 40
2.3183343458292711
 50
118.08240706192338
 51
156.08069046227502
  0
ARC
  8
default
 10
11.964147902110673
 20
5.9612634292761424
 30
0
 40
4.7296446300749455
 50
320.45255622100819
 51
39.97754163668057
  0
ARC
  8
default
 10
20.572701390166081
 20
3.4437109349266999
 30
0
 40
4.9860572764298627
 50
185.68473830776824
 51
223.6830217081199
  0
ARC
  8
default
 10
17.984141451196912
 20
3.7827423825806203
 30
0
 40
3.5067797839973207
 50
196.88574911734219
 51
234.88403251769384
  0
ARC
  8
default
 10
14.740827976317824
 20
2.5454002068272441
 30
0
 40
2.3183343458292729
 50
203.91930953772501
 51
241.91759293807669
  0
ARC
  8
default
 10
11.144679519459613
 20
7.3806243032240726
 30
0
 40
4.7296446300749455
 50
20.022458363319434
 51
99.547443778991834
  0
ARC
  8
default
 10
13.268691848019818
 20
16.094626560891896
 30
0
 40
4.9860572764298459
 50
196.31697829187999
 51
234.31526169223162
  0
ARC
  8
default
 10
12.268021724885346
 20
13.68335217069896
 30
0
 40
3.5067797839973229
 50
185.11596748230616
 51
223.11425088265781
  0
ARC
  8
default
 10
9.5747952300694692
 20
11.493231396893975
 30
0
 40
2.3183343458292733
 50
178.08240706192339
 51
216.08069046227499
  0
ARC
  8
default
 10
0
 20
0
 30
0
 40
20.5
 50
0
 51
180
  0
ARC
  8
default
 10
0
 20
0
 30
0
 40
20.5
 50
180
 51
0
  0
ARC
  8
default
 10
0
 20
0
 30
0
 40
23.5
 50
0
 51
180
  0
ARC
  8
default
 10
0
 20
0
 30
0
 40
23.5
 50
180
 51
0
  0
ENDSEC
  0
EOF
