  0
SECTION
  2
HEADER
  9
$INSBASE
 10
0.0000
 20
0.0000
  9
$EXTMIN
 10
-57.818376618407356
 20
-57.818376618407356
  9
$EXTMAX
 10
57.818376618407356
 20
57.818376618407356
  9
$LIMMIN
 10
-57.818376618407356
 20
-57.818376618407356
  9
$LIMMAX
 10
57.818376618407356
 20
57.818376618407356
  9
$TEXTSTYLE
  7
STANDARD
  9
$CLAYER
  8
default
  0
ENDSEC
  0
SECTION
  2
TABLES
  0
TABLE
  2
LTYPE
 70
4948253
  0
LTYPE
  2
CONTINUOUS
 70
    64
  3
Solid line
 72
    65
 73
     0
 40
0.0
  0
ENDTAB
  0
TABLE
  2
LAYER
 70
     5
  0
LAYER
  2
default
 70
    64
 62
     7
  6
CONTINUOUS
  0
ENDTAB
  0
TABLE
  2
STYLE
 70
     1
  0
STYLE
  2
STANDARD
 70
     0
 40
0.0
 41
1.0
 50
0.0
 71
     0
 42
0.2
  3
txt
  4

  0
ENDTAB
  0
TABLE
  2
VIEW
 70
     0
  0
ENDTAB
  0
ENDSEC
  0
SECTION
  2
BLOCKS
  0
ENDSEC
  0
SECTION
  2
ENTITIES
  0
LINE
  8
default
 10
-54
 20
-54
 30
0.0
 11
-54
 21
54
 31
0.0
  0
LINE
  8
default
 10
-54
 20
54
 30
0.0
 11
54
 21
54
 31
0.0
  0
LINE
  8
default
 10
54
 20
54
 30
0.0
 11
54
 21
-54
 31
0.0
  0
LINE
  8
default
 10
54
 20
-54
 30
0.0
 11
-54
 21
-54
 31
0.0
  0
LINE
  8
default
 10
7.2143527489961192
 20
13.561560471018629
 30
0.0
 11
6.2352722926105661
 21
11.799808409827978
 31
0.0
  0
LINE
  8
default
 10
4.454848474395126
 20
13.263217102143621
 30
0.0
 11
4.1393181864853537
 21
13.263217102143621
 31
0.0
  0
LINE
  8
default
 10
4.1393181864853537
 20
13.263217102143621
 30
0.0
 11
0
 21
13.263217102143621
 31
0.0
  0
LINE
  8
default
 10
4.454848474395126
 20
11.247954833790146
 30
0.0
 11
4.1393181864853537
 21
11.247954833790146
 31
0.0
  0
LINE
  8
default
 10
4.1393181864853537
 20
11.247954833790146
 30
0.0
 11
0
 21
11.247954833790146
 31
0.0
  0
LINE
  8
default
 10
4.1393181864853537
 20
11.247954833790146
 30
0.0
 11
4.1393181864853537
 21
13.263217102143621
 31
0.0
  0
LINE
  8
default
 10
-7.2143527489961192
 20
13.561560471018629
 30
0.0
 11
-6.2352722926105661
 21
11.799808409827978
 31
0.0
  0
LINE
  8
default
 10
-4.454848474395126
 20
13.263217102143621
 30
0.0
 11
-4.1393181864853537
 21
13.263217102143621
 31
0.0
  0
LINE
  8
default
 10
-4.1393181864853537
 20
13.263217102143621
 30
0.0
 11
0
 21
13.263217102143621
 31
0.0
  0
LINE
  8
default
 10
-4.454848474395126
 20
11.247954833790146
 30
0.0
 11
-4.1393181864853537
 21
11.247954833790146
 31
0.0
  0
LINE
  8
default
 10
-4.1393181864853537
 20
11.247954833790146
 30
0.0
 11
0
 21
11.247954833790146
 31
0.0
  0
LINE
  8
default
 10
-4.1393181864853537
 20
11.247954833790146
 30
0.0
 11
-4.1393181864853537
 21
13.263217102143621
 31
0.0
  0
LINE
  8
default
 10
-8.1374795083629294
 20
13.028592988002055
 30
0.0
 11
-7.1012976963950063
 21
11.299808409827978
 31
0.0
  0
LINE
  8
default
 10
-9.2588587091670362
 20
10.489620499908341
 30
0.0
 11
-9.4166238531219228
 21
10.216363254915061
 31
0.0
  0
LINE
  8
default
 10
-9.4166238531219228
 20
10.216363254915061
 30
0.0
 11
-11.4862829463646
 21
6.6316085510718121
 31
0.0
  0
LINE
  8
default
 10
-7.5135903894846763
 20
9.4819893657316037
 30
0.0
 11
-7.6713555334395629
 21
9.2087321207383219
 31
0.0
  0
LINE
  8
default
 10
-7.6713555334395629
 20
9.2087321207383219
 30
0.0
 11
-9.7410146266822402
 21
5.623977416895074
 31
0.0
  0
LINE
  8
default
 10
-7.6713555334395629
 20
9.2087321207383219
 30
0.0
 11
-9.4166238531219228
 21
10.216363254915061
 31
0.0
  0
LINE
  8
default
 10
-15.35183225735905
 20
0.53296748301657715
 30
0.0
 11
-13.336569989005573
 21
0.50000000000000266
 31
0.0
  0
LINE
  8
default
 10
-13.713707183562164
 20
2.7735966022352829
 30
0.0
 11
-13.555942039607277
 21
3.0468538472285638
 31
0.0
  0
LINE
  8
default
 10
-13.555942039607277
 20
3.0468538472285638
 30
0.0
 11
-11.4862829463646
 21
6.6316085510718121
 31
0.0
  0
LINE
  8
default
 10
-11.968438863879804
 20
1.7659654680585448
 30
0.0
 11
-11.810673719924917
 21
2.0392227130518257
 31
0.0
  0
LINE
  8
default
 10
-11.810673719924917
 20
2.0392227130518257
 30
0.0
 11
-9.7410146266822402
 21
5.623977416895074
 31
0.0
  0
LINE
  8
default
 10
-11.810673719924917
 20
2.0392227130518257
 30
0.0
 11
-13.555942039607277
 21
3.0468538472285638
 31
0.0
  0
LINE
  8
default
 10
-15.35183225735905
 20
-0.53296748301657182
 30
0.0
 11
-13.336569989005572
 21
-0.49999999999999822
 31
0.0
  0
LINE
  8
default
 10
-13.713707183562164
 20
-2.773596602235278
 30
0.0
 11
-13.555942039607277
 21
-3.0468538472285589
 31
0.0
  0
LINE
  8
default
 10
-13.555942039607277
 20
-3.0468538472285589
 30
0.0
 11
-11.486282946364602
 21
-6.6316085510718077
 31
0.0
  0
LINE
  8
default
 10
-11.968438863879802
 20
-1.7659654680585408
 30
0.0
 11
-11.810673719924916
 21
-2.0392227130518217
 31
0.0
  0
LINE
  8
default
 10
-11.810673719924916
 20
-2.0392227130518217
 30
0.0
 11
-9.7410146266822402
 21
-5.6239774168950705
 31
0.0
  0
LINE
  8
default
 10
-11.810673719924916
 20
-2.0392227130518217
 30
0.0
 11
-13.555942039607277
 21
-3.0468538472285589
 31
0.0
  0
LINE
  8
default
 10
-8.137479508362933
 20
-13.028592988002051
 30
0.0
 11
-7.1012976963950081
 21
-11.299808409827975
 31
0.0
  0
LINE
  8
default
 10
-9.2588587091670398
 20
-10.489620499908337
 30
0.0
 11
-9.4166238531219264
 21
-10.216363254915056
 31
0.0
  0
LINE
  8
default
 10
-9.4166238531219264
 20
-10.216363254915056
 30
0.0
 11
-11.486282946364602
 21
-6.6316085510718077
 31
0.0
  0
LINE
  8
default
 10
-7.5135903894846781
 20
-9.4819893657316001
 30
0.0
 11
-7.6713555334395647
 21
-9.2087321207383184
 31
0.0
  0
LINE
  8
default
 10
-7.6713555334395647
 20
-9.2087321207383184
 30
0.0
 11
-9.7410146266822402
 21
-5.6239774168950705
 31
0.0
  0
LINE
  8
default
 10
-7.6713555334395647
 20
-9.2087321207383184
 30
0.0
 11
-9.4166238531219264
 21
-10.216363254915056
 31
0.0
  0
LINE
  8
default
 10
-7.214352748996121
 20
-13.561560471018629
 30
0.0
 11
-6.2352722926105679
 21
-11.799808409827978
 31
0.0
  0
LINE
  8
default
 10
-4.4548484743951278
 20
-13.263217102143621
 30
0.0
 11
-4.1393181864853554
 21
-13.263217102143621
 31
0.0
  0
LINE
  8
default
 10
-4.1393181864853554
 20
-13.263217102143621
 30
0.0
 11
-1.6242756370536619e-015
 21
-13.263217102143621
 31
0.0
  0
LINE
  8
default
 10
-4.4548484743951278
 20
-11.247954833790146
 30
0.0
 11
-4.1393181864853554
 21
-11.247954833790146
 31
0.0
  0
LINE
  8
default
 10
-4.1393181864853554
 20
-11.247954833790146
 30
0.0
 11
-1.3774771884155101e-015
 21
-11.247954833790146
 31
0.0
  0
LINE
  8
default
 10
-4.1393181864853554
 20
-11.247954833790146
 30
0.0
 11
-4.1393181864853554
 21
-13.263217102143621
 31
0.0
  0
LINE
  8
default
 10
7.2143527489961174
 20
-13.561560471018629
 30
0.0
 11
6.2352722926105644
 21
-11.799808409827978
 31
0.0
  0
LINE
  8
default
 10
4.4548484743951242
 20
-13.263217102143621
 30
0.0
 11
4.1393181864853519
 21
-13.263217102143621
 31
0.0
  0
LINE
  8
default
 10
4.1393181864853519
 20
-13.263217102143621
 30
0.0
 11
-1.6242756370536619e-015
 21
-13.263217102143621
 31
0.0
  0
LINE
  8
default
 10
4.4548484743951242
 20
-11.247954833790146
 30
0.0
 11
4.1393181864853519
 21
-11.247954833790146
 31
0.0
  0
LINE
  8
default
 10
4.1393181864853519
 20
-11.247954833790146
 30
0.0
 11
-1.3774771884155101e-015
 21
-11.247954833790146
 31
0.0
  0
LINE
  8
default
 10
4.1393181864853519
 20
-11.247954833790146
 30
0.0
 11
4.1393181864853519
 21
-13.263217102143621
 31
0.0
  0
LINE
  8
default
 10
8.1374795083629223
 20
-13.028592988002057
 30
0.0
 11
7.101297696395001
 21
-11.299808409827982
 31
0.0
  0
LINE
  8
default
 10
9.2588587091670327
 20
-10.489620499908344
 30
0.0
 11
9.4166238531219193
 21
-10.216363254915064
 31
0.0
  0
LINE
  8
default
 10
9.4166238531219193
 20
-10.216363254915064
 30
0.0
 11
11.486282946364598
 21
-6.6316085510718166
 31
0.0
  0
LINE
  8
default
 10
7.5135903894846718
 20
-9.4819893657316072
 30
0.0
 11
7.6713555334395576
 21
-9.2087321207383255
 31
0.0
  0
LINE
  8
default
 10
7.6713555334395576
 20
-9.2087321207383255
 30
0.0
 11
9.7410146266822366
 21
-5.6239774168950785
 31
0.0
  0
LINE
  8
default
 10
7.6713555334395576
 20
-9.2087321207383255
 30
0.0
 11
9.4166238531219193
 21
-10.216363254915064
 31
0.0
  0
LINE
  8
default
 10
15.35183225735905
 20
-0.53296748301658337
 30
0.0
 11
13.336569989005572
 21
-0.50000000000000799
 31
0.0
  0
LINE
  8
default
 10
13.713707183562164
 20
-2.7735966022352883
 30
0.0
 11
13.555942039607277
 21
-3.0468538472285691
 31
0.0
  0
LINE
  8
default
 10
13.555942039607277
 20
-3.0468538472285691
 30
0.0
 11
11.486282946364598
 21
-6.6316085510718166
 31
0.0
  0
LINE
  8
default
 10
11.9684388638798
 20
-1.7659654680585501
 30
0.0
 11
11.810673719924916
 21
-2.039222713051831
 31
0.0
  0
LINE
  8
default
 10
11.810673719924916
 20
-2.039222713051831
 30
0.0
 11
9.7410146266822366
 21
-5.6239774168950785
 31
0.0
  0
LINE
  8
default
 10
11.810673719924916
 20
-2.039222713051831
 30
0.0
 11
13.555942039607277
 21
-3.0468538472285691
 31
0.0
  0
LINE
  8
default
 10
15.35183225735905
 20
0.53296748301657715
 30
0.0
 11
13.336569989005573
 21
0.50000000000000266
 31
0.0
  0
LINE
  8
default
 10
13.713707183562164
 20
2.7735966022352829
 30
0.0
 11
13.555942039607277
 21
3.0468538472285638
 31
0.0
  0
LINE
  8
default
 10
13.555942039607277
 20
3.0468538472285638
 30
0.0
 11
11.4862829463646
 21
6.6316085510718121
 31
0.0
  0
LINE
  8
default
 10
11.968438863879804
 20
1.7659654680585448
 30
0.0
 11
11.810673719924917
 21
2.0392227130518257
 31
0.0
  0
LINE
  8
default
 10
11.810673719924917
 20
2.0392227130518257
 30
0.0
 11
9.7410146266822402
 21
5.623977416895074
 31
0.0
  0
LINE
  8
default
 10
11.810673719924917
 20
2.0392227130518257
 30
0.0
 11
13.555942039607277
 21
3.0468538472285638
 31
0.0
  0
LINE
  8
default
 10
8.1374795083629294
 20
13.028592988002055
 30
0.0
 11
7.1012976963950063
 21
11.299808409827978
 31
0.0
  0
LINE
  8
default
 10
9.2588587091670362
 20
10.489620499908341
 30
0.0
 11
9.4166238531219228
 21
10.216363254915061
 31
0.0
  0
LINE
  8
default
 10
9.4166238531219228
 20
10.216363254915061
 30
0.0
 11
11.4862829463646
 21
6.6316085510718121
 31
0.0
  0
LINE
  8
default
 10
7.5135903894846763
 20
9.4819893657316037
 30
0.0
 11
7.6713555334395629
 21
9.2087321207383219
 31
0.0
  0
LINE
  8
default
 10
7.6713555334395629
 20
9.2087321207383219
 30
0.0
 11
9.7410146266822402
 21
5.623977416895074
 31
0.0
  0
LINE
  8
default
 10
7.6713555334395629
 20
9.2087321207383219
 30
0.0
 11
9.4166238531219228
 21
10.216363254915061
 31
0.0
  0
ARC
  8
default
 10
0
 20
-4.4408920985006262e-016
 30
0
 40
9
 50
2.8271597168564595e-015
 51
59.999999999999993
  0
ARC
  8
default
 10
0
 20
-8.8817841970012523e-016
 30
0
 40
9
 50
59.999999999999993
 51
119.99999999999999
  0
ARC
  8
default
 10
-8.8817841970012523e-016
 20
0
 30
0
 40
9
 50
119.99999999999999
 51
180
  0
ARC
  8
default
 10
0
 20
4.4408920985006262e-016
 30
0
 40
9
 50
180
 51
240
  0
ARC
  8
default
 10
0
 20
8.8817841970012523e-016
 30
0
 40
9
 50
240
 51
300
  0
ARC
  8
default
 10
8.8817841970012523e-016
 20
0
 30
0
 40
9
 50
300
 51
0
  0
ARC
  8
default
 10
-1.3991263085262453
 20
11.336213943420157
 30
0
 40
6.8090820993051784
 50
24.975095080756141
 51
78.142434142280464
  0
ARC
  8
default
 10
7.0776156007850037
 20
55.165944945532488
 30
0
 40
41.019548974920426
 50
266.77958237827869
 51
271.53428079453676
  0
ARC
  8
default
 10
2.2415220399964788
 20
46.646295459180891
 30
0
 40
33.456370611548678
 50
273.79320725772681
 51
278.54790567398487
  0
ARC
  8
default
 10
-1.3011515509336888
 20
32.966297767658794
 30
0
 40
22.468154265197381
 50
284.8438025601489
 51
289.59850097640697
  0
ARC
  8
default
 10
1.3991263085262453
 20
11.336213943420157
 30
0
 40
6.8090820993051784
 50
101.85756585771952
 51
155.02490491924385
  0
ARC
  8
default
 10
-7.0776156007850037
 20
55.165944945532495
 30
0
 40
41.019548974920426
 50
268.46571920546324
 51
273.22041762172131
  0
ARC
  8
default
 10
-2.2415220399964788
 20
46.646295459180891
 30
0
 40
33.456370611548678
 50
261.45209432601513
 51
266.20679274227319
  0
ARC
  8
default
 10
1.301151550933688
 20
32.966297767658787
 30
0
 40
22.468154265197381
 50
250.401499023593
 51
255.15619743985104
  0
ARC
  8
default
 10
-10.517012412000348
 20
4.4564280454232081
 30
0
 40
6.8090820993051775
 50
84.975095080756134
 51
138.14243414228048
  0
ARC
  8
default
 10
-44.236301946212393
 20
33.712367381267171
 30
0
 40
41.019548974920468
 50
326.77958237827863
 51
331.5342807945367
  0
ARC
  8
default
 10
-39.27611584008713
 20
25.264362759370101
 30
0
 40
33.456370611548678
 50
333.79320725772686
 51
338.54790567398493
  0
ARC
  8
default
 10
-29.20022711098159
 20
15.3563185865473
 30
0
 40
22.468154265197384
 50
344.84380256014896
 51
349.59850097640697
  0
ARC
  8
default
 10
-9.1178861034741026
 20
6.8797858979969515
 30
0
 40
6.8090820993051784
 50
161.85756585771952
 51
215.02490491924385
  0
ARC
  8
default
 10
-51.313917546997388
 20
21.453577564265366
 30
0
 40
41.019548974920426
 50
328.46571920546324
 51
333.22041762172131
  0
ARC
  8
default
 10
-41.517637880083605
 20
21.381932699810786
 30
0
 40
33.456370611548685
 50
321.45209432601513
 51
326.20679274227319
  0
ARC
  8
default
 10
-27.899075560047898
 20
17.609979181111484
 30
0
 40
22.468154265197374
 50
310.40149902359303
 51
315.1561974398511
  0
ARC
  8
default
 10
-9.1178861034741026
 20
-6.8797858979969497
 30
0
 40
6.8090820993051793
 50
144.97509508075612
 51
198.14243414228045
  0
ARC
  8
default
 10
-51.313917546997423
 20
-21.453577564265384
 30
0
 40
41.019548974920468
 50
26.779582378278679
 51
31.534280794536741
  0
ARC
  8
default
 10
-41.517637880083612
 20
-21.381932699810783
 30
0
 40
33.456370611548692
 50
33.793207257726806
 51
38.547905673984872
  0
ARC
  8
default
 10
-27.899075560047898
 20
-17.609979181111477
 30
0
 40
22.468154265197374
 50
44.843802560148909
 51
49.598500976406967
  0
ARC
  8
default
 10
-10.51701241200035
 20
-4.4564280454232028
 30
0
 40
6.8090820993051775
 50
221.85756585771952
 51
275.02490491924385
  0
ARC
  8
default
 10
-44.236301946212393
 20
-33.712367381267121
 30
0
 40
41.01954897492044
 50
28.465719205463262
 51
33.220417621721317
  0
ARC
  8
default
 10
-39.27611584008713
 20
-25.264362759370094
 30
0
 40
33.456370611548678
 50
21.452094326015093
 51
26.206792742273159
  0
ARC
  8
default
 10
-29.20022711098159
 20
-15.356318586547296
 30
0
 40
22.468154265197384
 50
10.401499023593008
 51
15.15619743985107
  0
ARC
  8
default
 10
1.3991263085262435
 20
-11.336213943420157
 30
0
 40
6.8090820993051784
 50
204.97509508075615
 51
258.14243414228042
  0
ARC
  8
default
 10
-7.0776156007850712
 20
-55.16594494553253
 30
0
 40
41.019548974920468
 50
86.77958237827859
 51
91.534280794536656
  0
ARC
  8
default
 10
-2.2415220399964806
 20
-46.646295459180891
 30
0
 40
33.456370611548678
 50
93.79320725772682
 51
98.547905673984886
  0
ARC
  8
default
 10
1.3011515509336871
 20
-32.966297767658794
 30
0
 40
22.468154265197381
 50
104.84380256014894
 51
109.598500976407
  0
ARC
  8
default
 10
-1.3991263085262475
 20
-11.336213943420157
 30
0
 40
6.8090820993051784
 50
281.85756585771952
 51
335.02490491924385
  0
ARC
  8
default
 10
7.0776156007849806
 20
-55.165944945532488
 30
0
 40
41.019548974920426
 50
88.465719205463245
 51
93.220417621721296
  0
ARC
  8
default
 10
2.241522039996477
 20
-46.646295459180891
 30
0
 40
33.456370611548678
 50
81.452094326015128
 51
86.206792742273194
  0
ARC
  8
default
 10
-1.3011515509336897
 20
-32.966297767658787
 30
0
 40
22.468154265197381
 50
70.401499023593018
 51
75.15619743985107
  0
ARC
  8
default
 10
10.517012412000344
 20
-4.4564280454232117
 30
0
 40
6.8090820993051784
 50
264.97509508075609
 51
318.14243414228042
  0
ARC
  8
default
 10
44.236301946212379
 20
-33.712367381267129
 30
0
 40
41.019548974920426
 50
146.77958237827869
 51
151.53428079453676
  0
ARC
  8
default
 10
39.276115840087101
 20
-25.264362759370144
 30
0
 40
33.456370611548678
 50
153.79320725772678
 51
158.54790567398484
  0
ARC
  8
default
 10
29.200227110981587
 20
-15.356318586547314
 30
0
 40
22.468154265197384
 50
164.84380256014893
 51
169.59850097640697
  0
ARC
  8
default
 10
9.117886103474099
 20
-6.8797858979969551
 30
0
 40
6.8090820993051757
 50
341.85756585771952
 51
35.024904919243831
  0
ARC
  8
default
 10
51.313917546997374
 20
-21.453577564265395
 30
0
 40
41.019548974920433
 50
148.46571920546324
 51
153.22041762172131
  0
ARC
  8
default
 10
41.517637880083583
 20
-21.381932699810793
 30
0
 40
33.456370611548671
 50
141.4520943260151
 51
146.20679274227317
  0
ARC
  8
default
 10
27.899075560047891
 20
-17.609979181111505
 30
0
 40
22.468154265197384
 50
130.40149902359298
 51
135.15619743985107
  0
ARC
  8
default
 10
9.1178861034741026
 20
6.8797858979969515
 30
0
 40
6.8090820993051784
 50
324.97509508075615
 51
18.142434142280489
  0
ARC
  8
default
 10
51.313917546997573
 20
21.453577564265359
 30
0
 40
41.019548974920589
 50
206.77958237827855
 51
211.53428079453661
  0
ARC
  8
default
 10
41.517637880083605
 20
21.38193269981079
 30
0
 40
33.456370611548685
 50
213.79320725772681
 51
218.54790567398487
  0
ARC
  8
default
 10
27.899075560047894
 20
17.609979181111484
 30
0
 40
22.468154265197374
 50
224.84380256014893
 51
229.598500976407
  0
ARC
  8
default
 10
10.517012412000348
 20
4.4564280454232081
 30
0
 40
6.8090820993051775
 50
41.857565857719543
 51
95.024904919243866
  0
ARC
  8
default
 10
44.2363019462124
 20
33.712367381267171
 30
0
 40
41.019548974920468
 50
208.4657192054633
 51
213.22041762172137
  0
ARC
  8
default
 10
39.27611584008713
 20
25.264362759370101
 30
0
 40
33.456370611548678
 50
201.4520943260151
 51
206.20679274227317
  0
ARC
  8
default
 10
29.200227110981587
 20
15.3563185865473
 30
0
 40
22.468154265197384
 50
190.40149902359298
 51
195.15619743985104
  0
ENDSEC
  0
EOF
