  0
SECTION
  2
HEADER
  9
$INSBASE
 10
0.0000
 20
0.0000
  9
$EXTMIN
 10
-57.818376618407356
 20
-57.818376618407356
  9
$EXTMAX
 10
57.818376618407356
 20
57.818376618407356
  9
$LIMMIN
 10
-57.818376618407356
 20
-57.818376618407356
  9
$LIMMAX
 10
57.818376618407356
 20
57.818376618407356
  9
$TEXTSTYLE
  7
STANDARD
  9
$CLAYER
  8
default
  0
ENDSEC
  0
SECTION
  2
TABLES
  0
TABLE
  2
LTYPE
 70
4948253
  0
LTYPE
  2
CONTINUOUS
 70
    64
  3
Solid line
 72
    65
 73
     0
 40
0.0
  0
ENDTAB
  0
TABLE
  2
LAYER
 70
     5
  0
LAYER
  2
default
 70
    64
 62
     7
  6
CONTINUOUS
  0
ENDTAB
  0
TABLE
  2
STYLE
 70
     1
  0
STYLE
  2
STANDARD
 70
     0
 40
0.0
 41
1.0
 50
0.0
 71
     0
 42
0.2
  3
txt
  4

  0
ENDTAB
  0
TABLE
  2
VIEW
 70
     0
  0
ENDTAB
  0
ENDSEC
  0
SECTION
  2
BLOCKS
  0
ENDSEC
  0
SECTION
  2
ENTITIES
  0
LINE
  8
default
 10
-54
 20
-54
 30
0.0
 11
-54
 21
54
 31
0.0
  0
LINE
  8
default
 10
-54
 20
54
 30
0.0
 11
54
 21
54
 31
0.0
  0
LINE
  8
default
 10
54
 20
54
 30
0.0
 11
54
 21
-54
 31
0.0
  0
LINE
  8
default
 10
54
 20
-54
 30
0.0
 11
-54
 21
-54
 31
0.0
  0
LINE
  8
default
 10
7.4022146441575485
 20
14.1258030568147
 30
0.0
 11
6.5449032694171301
 21
12.336104993254128
 31
0.0
  0
LINE
  8
default
 10
4.3288336412849384
 20
12.983081440561042
 30
0.0
 11
4.3491514886264122
 21
14.961452452021982
 31
0.0
  0
LINE
  8
default
 10
0
 20
13.027538511848856
 30
0.0
 11
0.020317847341473669
 21
15.005909523309796
 31
0.0
  0
LINE
  8
default
 10
4.3491514886264122
 20
14.961452452021982
 30
0.0
 11
0.020317847341473669
 21
15.005909523309796
 31
0.0
  0
LINE
  8
default
 10
0.020317847341473669
 20
15.005909523309796
 30
0.0
 11
0
 21
15.006118187366337
 31
0.0
  0
LINE
  8
default
 10
4.986796039891801
 20
12.976324174358759
 30
0.0
 11
4.3288336412849384
 21
12.983081440561042
 31
0.0
  0
LINE
  8
default
 10
4.3288336412849384
 20
12.983081440561042
 30
0.0
 11
0
 21
13.027538511848856
 31
0.0
  0
LINE
  8
default
 10
-7.4022146441575485
 20
14.1258030568147
 30
0.0
 11
-6.5449032694171301
 21
12.336104993254128
 31
0.0
  0
LINE
  8
default
 10
-4.3288336412849384
 20
12.983081440561042
 30
0.0
 11
-4.3491514886264122
 21
14.961452452021982
 31
0.0
  0
LINE
  8
default
 10
0
 20
13.027538511848856
 30
0.0
 11
-0.020317847341473669
 21
15.005909523309796
 31
0.0
  0
LINE
  8
default
 10
-4.3491514886264122
 20
14.961452452021982
 30
0.0
 11
-0.020317847341473669
 21
15.005909523309796
 31
0.0
  0
LINE
  8
default
 10
-0.020317847341473669
 20
15.005909523309796
 30
0.0
 11
0
 21
15.006118187366337
 31
0.0
  0
LINE
  8
default
 10
-4.986796039891801
 20
12.976324174358759
 30
0.0
 11
-4.3288336412849384
 21
12.983081440561042
 31
0.0
  0
LINE
  8
default
 10
-4.3288336412849384
 20
12.983081440561042
 30
0.0
 11
0
 21
13.027538511848856
 31
0.0
  0
LINE
  8
default
 10
-8.5321969739786336
 20
13.473407454512976
 30
0.0
 11
-7.4109286732015702
 21
11.836104993254128
 31
0.0
  0
LINE
  8
default
 10
-9.0792615262856593
 20
10.240420622389973
 30
0.0
 11
-10.78242215665081
 21
11.247201900068374
 31
0.0
  0
LINE
  8
default
 10
-11.28217930004123
 20
6.51376925592443
 30
0.0
 11
-12.985339930406383
 21
7.5205505336028304
 31
0.0
  0
LINE
  8
default
 10
-10.78242215665081
 20
11.247201900068374
 30
0.0
 11
-12.985339930406383
 21
7.5205505336028304
 31
0.0
  0
LINE
  8
default
 10
-12.985339930406383
 20
7.5205505336028304
 30
0.0
 11
-12.99567956245094
 21
7.50305909368317
 31
0.0
  0
LINE
  8
default
 10
-8.744428362790913
 20
10.806854141217318
 30
0.0
 11
-9.0792615262856593
 21
10.240420622389973
 31
0.0
  0
LINE
  8
default
 10
-9.0792615262856593
 20
10.240420622389973
 30
0.0
 11
-11.28217930004123
 21
6.51376925592443
 31
0.0
  0
LINE
  8
default
 10
-15.934411618136183
 20
0.65239560230172611
 30
0.0
 11
-13.955831942618701
 21
0.50000000000000355
 31
0.0
  0
LINE
  8
default
 10
-13.408095167570597
 20
2.7426608181710725
 30
0.0
 11
-15.131573645277221
 21
3.714250551953612
 31
0.0
  0
LINE
  8
default
 10
-11.28217930004123
 20
6.51376925592443
 30
0.0
 11
-13.005657777747857
 21
7.4853589897069694
 31
0.0
  0
LINE
  8
default
 10
-15.131573645277221
 20
3.714250551953612
 30
0.0
 11
-13.005657777747857
 21
7.4853589897069694
 31
0.0
  0
LINE
  8
default
 10
-13.005657777747857
 20
7.4853589897069694
 30
0.0
 11
-12.99567956245094
 21
7.50305909368317
 31
0.0
  0
LINE
  8
default
 10
-13.731224402682717
 20
2.1694700331414447
 30
0.0
 11
-13.408095167570597
 21
2.7426608181710725
 31
0.0
  0
LINE
  8
default
 10
-13.408095167570597
 20
2.7426608181710725
 30
0.0
 11
-11.28217930004123
 21
6.51376925592443
 31
0.0
  0
LINE
  8
default
 10
-15.934411618136181
 20
-0.65239560230171989
 30
0.0
 11
-13.955831942618701
 21
-0.49999999999999822
 31
0.0
  0
LINE
  8
default
 10
-13.408095167570597
 20
-2.7426608181710677
 30
0.0
 11
-15.131573645277223
 21
-3.7142505519536062
 31
0.0
  0
LINE
  8
default
 10
-11.282179300041232
 20
-6.5137692559244256
 30
0.0
 11
-13.005657777747857
 21
-7.4853589897069641
 31
0.0
  0
LINE
  8
default
 10
-15.131573645277223
 20
-3.7142505519536062
 30
0.0
 11
-13.005657777747857
 21
-7.4853589897069641
 31
0.0
  0
LINE
  8
default
 10
-13.005657777747857
 20
-7.4853589897069641
 30
0.0
 11
-12.995679562450942
 21
-7.5030590936831647
 31
0.0
  0
LINE
  8
default
 10
-13.731224402682717
 20
-2.1694700331414394
 30
0.0
 11
-13.408095167570597
 21
-2.7426608181710677
 31
0.0
  0
LINE
  8
default
 10
-13.408095167570597
 20
-2.7426608181710677
 30
0.0
 11
-11.282179300041232
 21
-6.5137692559244256
 31
0.0
  0
LINE
  8
default
 10
-8.5321969739786354
 20
-13.473407454512973
 30
0.0
 11
-7.4109286732015747
 21
-11.836104993254125
 31
0.0
  0
LINE
  8
default
 10
-9.0792615262856593
 20
-10.240420622389969
 30
0.0
 11
-10.782422156650812
 21
-11.247201900068369
 31
0.0
  0
LINE
  8
default
 10
-11.282179300041232
 20
-6.5137692559244256
 30
0.0
 11
-12.985339930406383
 21
-7.5205505336028251
 31
0.0
  0
LINE
  8
default
 10
-10.782422156650812
 20
-11.247201900068369
 30
0.0
 11
-12.985339930406383
 21
-7.5205505336028251
 31
0.0
  0
LINE
  8
default
 10
-12.985339930406383
 20
-7.5205505336028251
 30
0.0
 11
-12.995679562450942
 21
-7.5030590936831647
 31
0.0
  0
LINE
  8
default
 10
-8.7444283627909165
 20
-10.806854141217315
 30
0.0
 11
-9.0792615262856593
 21
-10.240420622389969
 31
0.0
  0
LINE
  8
default
 10
-9.0792615262856593
 20
-10.240420622389969
 30
0.0
 11
-11.282179300041232
 21
-6.5137692559244256
 31
0.0
  0
LINE
  8
default
 10
-7.4022146441575503
 20
-14.125803056814698
 30
0.0
 11
-6.5449032694171319
 21
-12.336104993254128
 31
0.0
  0
LINE
  8
default
 10
-4.3288336412849402
 20
-12.983081440561042
 30
0.0
 11
-4.349151488626414
 21
-14.961452452021982
 31
0.0
  0
LINE
  8
default
 10
-1.5954133339304575e-015
 20
-13.027538511848856
 30
0.0
 11
-0.020317847341475508
 21
-15.005909523309796
 31
0.0
  0
LINE
  8
default
 10
-4.349151488626414
 20
-14.961452452021982
 30
0.0
 11
-0.020317847341475508
 21
-15.005909523309796
 31
0.0
  0
LINE
  8
default
 10
-0.020317847341475508
 20
-15.005909523309796
 30
0.0
 11
-1.8377194605785067e-015
 21
-15.006118187366337
 31
0.0
  0
LINE
  8
default
 10
-4.9867960398918028
 20
-12.976324174358759
 30
0.0
 11
-4.3288336412849402
 21
-12.983081440561042
 31
0.0
  0
LINE
  8
default
 10
-4.3288336412849402
 20
-12.983081440561042
 30
0.0
 11
-1.5954133339304575e-015
 21
-13.027538511848856
 31
0.0
  0
LINE
  8
default
 10
7.4022146441575467
 20
-14.125803056814702
 30
0.0
 11
6.5449032694171283
 21
-12.336104993254128
 31
0.0
  0
LINE
  8
default
 10
4.3288336412849366
 20
-12.983081440561042
 30
0.0
 11
4.3491514886264104
 21
-14.961452452021982
 31
0.0
  0
LINE
  8
default
 10
-1.5954133339304575e-015
 20
-13.027538511848856
 30
0.0
 11
0.02031784734147183
 21
-15.005909523309796
 31
0.0
  0
LINE
  8
default
 10
4.3491514886264104
 20
-14.961452452021982
 30
0.0
 11
0.02031784734147183
 21
-15.005909523309796
 31
0.0
  0
LINE
  8
default
 10
0.02031784734147183
 20
-15.005909523309796
 30
0.0
 11
-1.8377194605785067e-015
 21
-15.006118187366337
 31
0.0
  0
LINE
  8
default
 10
4.9867960398917992
 20
-12.976324174358759
 30
0.0
 11
4.3288336412849366
 21
-12.983081440561042
 31
0.0
  0
LINE
  8
default
 10
4.3288336412849366
 20
-12.983081440561042
 30
0.0
 11
-1.5954133339304575e-015
 21
-13.027538511848856
 31
0.0
  0
LINE
  8
default
 10
8.5321969739786283
 20
-13.47340745451298
 30
0.0
 11
7.410928673201564
 21
-11.83610499325413
 31
0.0
  0
LINE
  8
default
 10
9.079261526285654
 20
-10.240420622389976
 30
0.0
 11
10.782422156650805
 21
-11.247201900068378
 31
0.0
  0
LINE
  8
default
 10
11.282179300041227
 20
-6.5137692559244345
 30
0.0
 11
12.985339930406379
 21
-7.5205505336028358
 31
0.0
  0
LINE
  8
default
 10
10.782422156650805
 20
-11.247201900068378
 30
0.0
 11
12.985339930406379
 21
-7.5205505336028358
 31
0.0
  0
LINE
  8
default
 10
12.985339930406379
 20
-7.5205505336028358
 30
0.0
 11
12.995679562450936
 21
-7.5030590936831754
 31
0.0
  0
LINE
  8
default
 10
8.7444283627909094
 20
-10.80685414121732
 30
0.0
 11
9.079261526285654
 21
-10.240420622389976
 31
0.0
  0
LINE
  8
default
 10
9.079261526285654
 20
-10.240420622389976
 30
0.0
 11
11.282179300041227
 21
-6.5137692559244345
 31
0.0
  0
LINE
  8
default
 10
15.934411618136181
 20
-0.65239560230173232
 30
0.0
 11
13.955831942618701
 21
-0.50000000000000888
 31
0.0
  0
LINE
  8
default
 10
13.408095167570595
 20
-2.742660818171077
 30
0.0
 11
15.13157364527722
 21
-3.7142505519536173
 31
0.0
  0
LINE
  8
default
 10
11.282179300041227
 20
-6.5137692559244345
 30
0.0
 11
13.005657777747853
 21
-7.4853589897069748
 31
0.0
  0
LINE
  8
default
 10
15.13157364527722
 20
-3.7142505519536173
 30
0.0
 11
13.005657777747853
 21
-7.4853589897069748
 31
0.0
  0
LINE
  8
default
 10
13.005657777747853
 20
-7.4853589897069748
 30
0.0
 11
12.995679562450936
 21
-7.5030590936831754
 31
0.0
  0
LINE
  8
default
 10
13.731224402682717
 20
-2.1694700331414492
 30
0.0
 11
13.408095167570595
 21
-2.742660818171077
 31
0.0
  0
LINE
  8
default
 10
13.408095167570595
 20
-2.742660818171077
 30
0.0
 11
11.282179300041227
 21
-6.5137692559244345
 31
0.0
  0
LINE
  8
default
 10
15.934411618136183
 20
0.65239560230172611
 30
0.0
 11
13.955831942618701
 21
0.50000000000000355
 31
0.0
  0
LINE
  8
default
 10
13.408095167570597
 20
2.7426608181710725
 30
0.0
 11
15.131573645277221
 21
3.714250551953612
 31
0.0
  0
LINE
  8
default
 10
11.28217930004123
 20
6.51376925592443
 30
0.0
 11
13.005657777747857
 21
7.4853589897069694
 31
0.0
  0
LINE
  8
default
 10
15.131573645277221
 20
3.714250551953612
 30
0.0
 11
13.005657777747857
 21
7.4853589897069694
 31
0.0
  0
LINE
  8
default
 10
13.005657777747857
 20
7.4853589897069694
 30
0.0
 11
12.99567956245094
 21
7.50305909368317
 31
0.0
  0
LINE
  8
default
 10
13.731224402682717
 20
2.1694700331414447
 30
0.0
 11
13.408095167570597
 21
2.7426608181710725
 31
0.0
  0
LINE
  8
default
 10
13.408095167570597
 20
2.7426608181710725
 30
0.0
 11
11.28217930004123
 21
6.51376925592443
 31
0.0
  0
LINE
  8
default
 10
8.5321969739786336
 20
13.473407454512976
 30
0.0
 11
7.4109286732015702
 21
11.836104993254128
 31
0.0
  0
LINE
  8
default
 10
9.0792615262856593
 20
10.240420622389973
 30
0.0
 11
10.78242215665081
 21
11.247201900068374
 31
0.0
  0
LINE
  8
default
 10
11.28217930004123
 20
6.51376925592443
 30
0.0
 11
12.985339930406383
 21
7.5205505336028304
 31
0.0
  0
LINE
  8
default
 10
10.78242215665081
 20
11.247201900068374
 30
0.0
 11
12.985339930406383
 21
7.5205505336028304
 31
0.0
  0
LINE
  8
default
 10
12.985339930406383
 20
7.5205505336028304
 30
0.0
 11
12.99567956245094
 21
7.50305909368317
 31
0.0
  0
LINE
  8
default
 10
8.744428362790913
 20
10.806854141217318
 30
0.0
 11
9.0792615262856593
 21
10.240420622389973
 31
0.0
  0
LINE
  8
default
 10
9.0792615262856593
 20
10.240420622389973
 30
0.0
 11
11.28217930004123
 21
6.51376925592443
 31
0.0
  0
ARC
  8
default
 10
0
 20
-4.4408920985006262e-016
 30
0
 40
9
 50
2.8271597168564595e-015
 51
59.999999999999993
  0
ARC
  8
default
 10
0
 20
-8.8817841970012523e-016
 30
0
 40
9
 50
59.999999999999993
 51
119.99999999999999
  0
ARC
  8
default
 10
-8.8817841970012523e-016
 20
0
 30
0
 40
9
 50
119.99999999999999
 51
180
  0
ARC
  8
default
 10
0
 20
4.4408920985006262e-016
 30
0
 40
9
 50
180
 51
240
  0
ARC
  8
default
 10
0
 20
8.8817841970012523e-016
 30
0
 40
9
 50
240
 51
300
  0
ARC
  8
default
 10
8.8817841970012523e-016
 20
0
 30
0
 40
9
 50
300
 51
0
  0
ARC
  8
default
 10
-0.84362080180222065
 20
8.1104328377208663
 30
0
 40
9.9254841047912201
 50
51.735724957084948
 51
85.124237851514977
  0
ARC
  8
default
 10
8.8245237867074557
 20
20.241508817293663
 30
0
 40
5.5873153990339199
 50
230.93156145498207
 51
266.3333387614648
  0
ARC
  8
default
 10
7.1848307632335908
 20
19.326627205263556
 30
0
 40
5.2053652681415494
 50
236.99167665247245
 51
272.39345395895509
  0
ARC
  8
default
 10
6.768831851762438
 20
15.097181456593301
 30
0
 40
2.7701420985929088
 50
229.9615734989834
 51
265.3633508054661
  0
ARC
  8
default
 10
0.84362080180222021
 20
8.1104328377208663
 30
0
 40
9.9254841047912201
 50
94.875762148485038
 51
128.26427504291505
  0
ARC
  8
default
 10
-8.824523786707454
 20
20.241508817293663
 30
0
 40
5.5873153990339199
 50
273.6666612385352
 51
309.0684385450179
  0
ARC
  8
default
 10
-7.1848307632335908
 20
19.326627205263556
 30
0
 40
5.2053652681415494
 50
267.60654604104491
 51
303.00832334752755
  0
ARC
  8
default
 10
-6.768831851762438
 20
15.097181456593301
 30
0
 40
2.7701420985929088
 50
274.6366491945339
 51
310.0384265010166
  0
ARC
  8
default
 10
-7.445651274054895
 20
3.324619373338713
 30
0
 40
9.9254841047912183
 50
111.73572495708494
 51
145.12423785151498
  0
ARC
  8
default
 10
-13.117398953349294
 20
17.763016184235543
 30
0
 40
5.5873153990339244
 50
290.9315614549821
 51
326.3333387614648
  0
ARC
  8
default
 10
-13.144934747612892
 20
15.885559565484007
 30
0
 40
5.2053652681415468
 50
296.99167665247245
 51
332.39345395895509
  0
ARC
  8
default
 10
-9.6901267410719303
 20
13.410571065868185
 30
0
 40
2.7701420985929057
 50
289.9615734989834
 51
325.3633508054661
  0
ARC
  8
default
 10
-6.6020304722526735
 20
4.785813464382155
 30
0
 40
9.9254841047912201
 50
154.87576214848502
 51
188.26427504291505
  0
ARC
  8
default
 10
-21.94192274005675
 20
2.4784926330581309
 30
0
 40
5.5873153990339226
 50
333.6666612385352
 51
9.0684385450178606
  0
ARC
  8
default
 10
-20.329765510846485
 20
3.4410676397795563
 30
0
 40
5.2053652681415503
 50
327.60654604104485
 51
3.0083233475275311
  0
ARC
  8
default
 10
-16.458958592834371
 20
1.6866103907251166
 30
0
 40
2.7701420985929084
 50
334.6366491945339
 51
10.038426501016609
  0
ARC
  8
default
 10
-6.6020304722526735
 20
-4.7858134643821533
 30
0
 40
9.9254841047912201
 50
171.73572495708495
 51
205.12423785151495
  0
ARC
  8
default
 10
-21.94192274005675
 20
-2.4784926330581243
 30
0
 40
5.5873153990339235
 50
350.93156145498216
 51
26.333338761464827
  0
ARC
  8
default
 10
-20.329765510846485
 20
-3.4410676397795448
 30
0
 40
5.2053652681415494
 50
356.99167665247239
 51
32.393453958955085
  0
ARC
  8
default
 10
-16.458958592834371
 20
-1.6866103907251113
 30
0
 40
2.7701420985929084
 50
349.9615734989834
 51
25.36335080546608
  0
ARC
  8
default
 10
-7.4456512740548959
 20
-3.3246193733387122
 30
0
 40
9.9254841047912201
 50
214.87576214848502
 51
248.26427504291502
  0
ARC
  8
default
 10
-13.1173989533493
 20
-17.763016184235536
 30
0
 40
5.5873153990339217
 50
33.66666123853517
 51
69.06843854501787
  0
ARC
  8
default
 10
-13.144934747612895
 20
-15.885559565484002
 30
0
 40
5.2053652681415494
 50
27.606546041044869
 51
63.008323347527558
  0
ARC
  8
default
 10
-9.6901267410719338
 20
-13.410571065868179
 30
0
 40
2.7701420985929044
 50
34.636649194533888
 51
70.038426501016573
  0
ARC
  8
default
 10
0.84362080180221888
 20
-8.1104328377208663
 30
0
 40
9.9254841047912201
 50
231.73572495708495
 51
265.12423785151498
  0
ARC
  8
default
 10
-8.8245237867074628
 20
-20.241508817293671
 30
0
 40
5.5873153990339288
 50
50.931561454982088
 51
86.333338761464759
  0
ARC
  8
default
 10
-7.1848307632335953
 20
-19.326627205263556
 30
0
 40
5.2053652681415494
 50
56.991676652472407
 51
92.393453958955092
  0
ARC
  8
default
 10
-6.7688318517624397
 20
-15.097181456593301
 30
0
 40
2.7701420985929088
 50
49.961573498983412
 51
85.363350805466084
  0
ARC
  8
default
 10
-0.84362080180222243
 20
-8.1104328377208663
 30
0
 40
9.9254841047912201
 50
274.87576214848502
 51
308.26427504291507
  0
ARC
  8
default
 10
8.8245237867074486
 20
-20.241508817293663
 30
0
 40
5.587315399033919
 50
93.66666123853517
 51
129.06843854501787
  0
ARC
  8
default
 10
7.1848307632335864
 20
-19.326627205263556
 30
0
 40
5.2053652681415477
 50
87.606546041044865
 51
123.00832334752755
  0
ARC
  8
default
 10
6.7688318517624362
 20
-15.097181456593301
 30
0
 40
2.7701420985929088
 50
94.636649194533916
 51
130.0384265010166
  0
ARC
  8
default
 10
7.4456512740548915
 20
-3.3246193733387166
 30
0
 40
9.9254841047912219
 50
291.73572495708493
 51
325.12423785151498
  0
ARC
  8
default
 10
13.117398953349285
 20
-17.763016184235539
 30
0
 40
5.5873153990339164
 50
110.9315614549821
 51
146.3333387614648
  0
ARC
  8
default
 10
13.144934747612886
 20
-15.88555956548401
 30
0
 40
5.2053652681415468
 50
116.99167665247244
 51
152.39345395895509
  0
ARC
  8
default
 10
9.690126741071925
 20
-13.41057106586819
 30
0
 40
2.7701420985929093
 50
109.96157349898337
 51
145.36335080546604
  0
ARC
  8
default
 10
6.6020304722526735
 20
-4.785813464382155
 30
0
 40
9.9254841047912201
 50
334.87576214848497
 51
8.2642750429150151
  0
ARC
  8
default
 10
21.941922740056746
 20
-2.4784926330581376
 30
0
 40
5.5873153990339208
 50
153.66666123853517
 51
189.06843854501787
  0
ARC
  8
default
 10
20.329765510846482
 20
-3.4410676397795621
 30
0
 40
5.2053652681415485
 50
147.60654604104485
 51
183.00832334752755
  0
ARC
  8
default
 10
16.458958592834371
 20
-1.6866103907251218
 30
0
 40
2.7701420985929071
 50
154.63664919453393
 51
190.0384265010166
  0
ARC
  8
default
 10
6.6020304722526717
 20
4.785813464382155
 30
0
 40
9.9254841047912201
 50
351.73572495708493
 51
25.124237851514977
  0
ARC
  8
default
 10
21.941922740056771
 20
2.4784926330581238
 30
0
 40
5.5873153990339448
 50
170.9315614549821
 51
206.33333876146477
  0
ARC
  8
default
 10
20.329765510846485
 20
3.4410676397795563
 30
0
 40
5.2053652681415503
 50
176.99167665247245
 51
212.39345395895515
  0
ARC
  8
default
 10
16.458958592834371
 20
1.6866103907251166
 30
0
 40
2.7701420985929084
 50
169.9615734989834
 51
205.36335080546607
  0
ARC
  8
default
 10
7.4456512740548941
 20
3.3246193733387139
 30
0
 40
9.9254841047912183
 50
34.87576214848503
 51
68.26427504291506
  0
ARC
  8
default
 10
13.117398953349294
 20
17.763016184235543
 30
0
 40
5.5873153990339244
 50
213.6666612385352
 51
249.0684385450179
  0
ARC
  8
default
 10
13.144934747612892
 20
15.885559565484007
 30
0
 40
5.2053652681415468
 50
207.60654604104491
 51
243.00832334752755
  0
ARC
  8
default
 10
9.6901267410719285
 20
13.410571065868185
 30
0
 40
2.7701420985929057
 50
214.63664919453393
 51
250.0384265010166
  0
ARC
  8
default
 10
0
 20
0
 30
0
 40
20.5
 50
0
 51
180
  0
ARC
  8
default
 10
0
 20
0
 30
0
 40
20.5
 50
180
 51
0
  0
ARC
  8
default
 10
0
 20
0
 30
0
 40
23.5
 50
0
 51
180
  0
ARC
  8
default
 10
0
 20
0
 30
0
 40
23.5
 50
180
 51
0
  0
ENDSEC
  0
EOF
