  0
SECTION
  2
HEADER
  9
$INSBASE
 10
0.0000
 20
0.0000
  9
$EXTMIN
 10
-57.818376618407356
 20
-57.818376618407356
  9
$EXTMAX
 10
57.818376618407356
 20
57.818376618407356
  9
$LIMMIN
 10
-57.818376618407356
 20
-57.818376618407356
  9
$LIMMAX
 10
57.818376618407356
 20
57.818376618407356
  9
$TEXTSTYLE
  7
STANDARD
  9
$CLAYER
  8
default
  0
ENDSEC
  0
SECTION
  2
TABLES
  0
TABLE
  2
LTYPE
 70
4948253
  0
LTYPE
  2
CONTINUOUS
 70
    64
  3
Solid line
 72
    65
 73
     0
 40
0.0
  0
ENDTAB
  0
TABLE
  2
LAYER
 70
     5
  0
LAYER
  2
default
 70
    64
 62
     7
  6
CONTINUOUS
  0
ENDTAB
  0
TABLE
  2
STYLE
 70
     1
  0
STYLE
  2
STANDARD
 70
     0
 40
0.0
 41
1.0
 50
0.0
 71
     0
 42
0.2
  3
txt
  4

  0
ENDTAB
  0
TABLE
  2
VIEW
 70
     0
  0
ENDTAB
  0
ENDSEC
  0
SECTION
  2
BLOCKS
  0
ENDSEC
  0
SECTION
  2
ENTITIES
  0
LINE
  8
default
 10
-54
 20
-54
 30
0.0
 11
-54
 21
54
 31
0.0
  0
LINE
  8
default
 10
-54
 20
54
 30
0.0
 11
54
 21
54
 31
0.0
  0
LINE
  8
default
 10
54
 20
54
 30
0.0
 11
54
 21
-54
 31
0.0
  0
LINE
  8
default
 10
54
 20
-54
 30
0.0
 11
-54
 21
-54
 31
0.0
  0
LINE
  8
default
 10
7.4837548627863688
 20
14.088473010641888
 30
0.0
 11
6.2901396670498002
 21
11.894841490034638
 31
0.0
  0
LINE
  8
default
 10
4.6708623435826517
 20
12.50306073744043
 30
0.0
 11
5.4744988842867173
 21
14.706508426906495
 31
0.0
  0
LINE
  8
default
 10
0
 20
14.206607263117755
 30
0.0
 11
0.80363654070406554
 21
16.41005495258382
 31
0.0
  0
LINE
  8
default
 10
5.4744988842867173
 20
14.706508426906495
 30
0.0
 11
0.80363654070406554
 21
16.41005495258382
 31
0.0
  0
LINE
  8
default
 10
0.80363654070406554
 20
16.41005495258382
 30
0.0
 11
0
 21
16.703155484374204
 31
0.0
  0
LINE
  8
default
 10
4.9709860379031188
 20
12.393600291140718
 30
0.0
 11
4.6708623435826517
 21
12.50306073744043
 31
0.0
  0
LINE
  8
default
 10
4.6708623435826517
 20
12.50306073744043
 30
0.0
 11
0
 21
14.206607263117755
 31
0.0
  0
LINE
  8
default
 10
-7.4837548627863688
 20
14.088473010641888
 30
0.0
 11
-6.2901396670498002
 21
11.894841490034638
 31
0.0
  0
LINE
  8
default
 10
-4.6708623435826517
 20
12.50306073744043
 30
0.0
 11
-5.4744988842867173
 21
14.706508426906495
 31
0.0
  0
LINE
  8
default
 10
0
 20
14.206607263117755
 30
0.0
 11
-0.80363654070406554
 21
16.41005495258382
 31
0.0
  0
LINE
  8
default
 10
-5.4744988842867173
 20
14.706508426906495
 30
0.0
 11
-0.80363654070406554
 21
16.41005495258382
 31
0.0
  0
LINE
  8
default
 10
-0.80363654070406554
 20
16.41005495258382
 30
0.0
 11
0
 21
16.703155484374204
 31
0.0
  0
LINE
  8
default
 10
-4.9709860379031188
 20
12.393600291140718
 30
0.0
 11
-4.6708623435826517
 21
12.50306073744043
 31
0.0
  0
LINE
  8
default
 10
-4.6708623435826517
 20
12.50306073744043
 30
0.0
 11
0
 21
14.206607263117755
 31
0.0
  0
LINE
  8
default
 10
-8.459098096354122
 20
13.525358332189267
 30
0.0
 11
-7.1561650708342404
 21
11.394841490034636
 31
0.0
  0
LINE
  8
default
 10
-8.4925370518918832
 20
10.296615815842912
 30
0.0
 11
-9.9989604565275876
 21
12.094309320235112
 31
0.0
  0
LINE
  8
default
 10
-12.303282791448492
 20
7.1033036315588793
 30
0.0
 11
-13.809706196084196
 21
8.90099713595108
 31
0.0
  0
LINE
  8
default
 10
-9.9989604565275876
 20
12.094309320235112
 30
0.0
 11
-13.809706196084196
 21
8.90099713595108
 31
0.0
  0
LINE
  8
default
 10
-13.809706196084196
 20
8.90099713595108
 30
0.0
 11
-14.465356972829429
 21
8.3515777421871036
 31
0.0
  0
LINE
  8
default
 10
-8.2476796775265164
 20
10.501800336252217
 30
0.0
 11
-8.4925370518918832
 21
10.296615815842912
 31
0.0
  0
LINE
  8
default
 10
-8.4925370518918832
 20
10.296615815842912
 30
0.0
 11
-12.303282791448492
 21
7.1033036315588793
 31
0.0
  0
LINE
  8
default
 10
-15.942852959140492
 20
0.56311467845262442
 30
0.0
 11
-13.446304737884041
 21
0.50000000000000266
 31
0.0
  0
LINE
  8
default
 10
-13.163399395474535
 20
2.2064449215975221
 30
0.0
 11
-15.473459340814305
 21
2.6121991066713868
 31
0.0
  0
LINE
  8
default
 10
-12.303282791448492
 20
7.1033036315588793
 30
0.0
 11
-14.613342736788262
 21
7.509057816632744
 31
0.0
  0
LINE
  8
default
 10
-15.473459340814305
 20
2.6121991066713868
 30
0.0
 11
-14.613342736788262
 21
7.509057816632744
 31
0.0
  0
LINE
  8
default
 10
-14.613342736788262
 20
7.509057816632744
 30
0.0
 11
-14.465356972829429
 21
8.3515777421871036
 31
0.0
  0
LINE
  8
default
 10
-13.218665715429637
 20
1.8917999548885058
 30
0.0
 11
-13.163399395474535
 21
2.2064449215975221
 31
0.0
  0
LINE
  8
default
 10
-13.163399395474535
 20
2.2064449215975221
 30
0.0
 11
-12.303282791448492
 21
7.1033036315588793
 31
0.0
  0
LINE
  8
default
 10
-15.942852959140492
 20
-0.5631146784526182
 30
0.0
 11
-13.44630473788404
 21
-0.49999999999999822
 31
0.0
  0
LINE
  8
default
 10
-13.163399395474535
 20
-2.2064449215975168
 30
0.0
 11
-15.473459340814305
 21
-2.6121991066713806
 31
0.0
  0
LINE
  8
default
 10
-12.303282791448494
 20
-7.103303631558874
 30
0.0
 11
-14.613342736788264
 21
-7.5090578166327386
 31
0.0
  0
LINE
  8
default
 10
-15.473459340814305
 20
-2.6121991066713806
 30
0.0
 11
-14.613342736788264
 21
-7.5090578166327386
 31
0.0
  0
LINE
  8
default
 10
-14.613342736788264
 20
-7.5090578166327386
 30
0.0
 11
-14.465356972829431
 21
-8.3515777421870983
 31
0.0
  0
LINE
  8
default
 10
-13.218665715429635
 20
-1.8917999548885005
 30
0.0
 11
-13.163399395474535
 21
-2.2064449215975168
 31
0.0
  0
LINE
  8
default
 10
-13.163399395474535
 20
-2.2064449215975168
 30
0.0
 11
-12.303282791448494
 21
-7.103303631558874
 31
0.0
  0
LINE
  8
default
 10
-8.4590980963541256
 20
-13.525358332189263
 30
0.0
 11
-7.156165070834243
 21
-11.394841490034635
 31
0.0
  0
LINE
  8
default
 10
-8.4925370518918868
 20
-10.296615815842909
 30
0.0
 11
-9.9989604565275911
 21
-12.094309320235109
 31
0.0
  0
LINE
  8
default
 10
-12.303282791448494
 20
-7.103303631558874
 30
0.0
 11
-13.809706196084198
 21
-8.9009971359510747
 31
0.0
  0
LINE
  8
default
 10
-9.9989604565275911
 20
-12.094309320235109
 30
0.0
 11
-13.809706196084198
 21
-8.9009971359510747
 31
0.0
  0
LINE
  8
default
 10
-13.809706196084198
 20
-8.9009971359510747
 30
0.0
 11
-14.465356972829431
 21
-8.3515777421870983
 31
0.0
  0
LINE
  8
default
 10
-8.2476796775265182
 20
-10.501800336252213
 30
0.0
 11
-8.4925370518918868
 21
-10.296615815842909
 31
0.0
  0
LINE
  8
default
 10
-8.4925370518918868
 20
-10.296615815842909
 30
0.0
 11
-12.303282791448494
 21
-7.103303631558874
 31
0.0
  0
LINE
  8
default
 10
-7.4837548627863706
 20
-14.088473010641886
 30
0.0
 11
-6.290139667049802
 21
-11.894841490034638
 31
0.0
  0
LINE
  8
default
 10
-4.6708623435826535
 20
-12.50306073744043
 30
0.0
 11
-5.474498884286719
 21
-14.706508426906495
 31
0.0
  0
LINE
  8
default
 10
-1.7398076111520698e-015
 20
-14.206607263117755
 30
0.0
 11
-0.80363654070406754
 21
-16.41005495258382
 31
0.0
  0
LINE
  8
default
 10
-5.474498884286719
 20
-14.706508426906495
 30
0.0
 11
-0.80363654070406754
 21
-16.41005495258382
 31
0.0
  0
LINE
  8
default
 10
-0.80363654070406754
 20
-16.41005495258382
 30
0.0
 11
-2.0455465899599425e-015
 21
-16.703155484374204
 31
0.0
  0
LINE
  8
default
 10
-4.9709860379031205
 20
-12.393600291140718
 30
0.0
 11
-4.6708623435826535
 21
-12.50306073744043
 31
0.0
  0
LINE
  8
default
 10
-4.6708623435826535
 20
-12.50306073744043
 30
0.0
 11
-1.7398076111520698e-015
 21
-14.206607263117755
 31
0.0
  0
LINE
  8
default
 10
7.483754862786367
 20
-14.08847301064189
 30
0.0
 11
6.2901396670497984
 21
-11.894841490034638
 31
0.0
  0
LINE
  8
default
 10
4.67086234358265
 20
-12.50306073744043
 30
0.0
 11
5.4744988842867155
 21
-14.706508426906495
 31
0.0
  0
LINE
  8
default
 10
-1.7398076111520698e-015
 20
-14.206607263117755
 30
0.0
 11
0.80363654070406354
 21
-16.41005495258382
 31
0.0
  0
LINE
  8
default
 10
5.4744988842867155
 20
-14.706508426906495
 30
0.0
 11
0.80363654070406354
 21
-16.41005495258382
 31
0.0
  0
LINE
  8
default
 10
0.80363654070406354
 20
-16.41005495258382
 30
0.0
 11
-2.0455465899599425e-015
 21
-16.703155484374204
 31
0.0
  0
LINE
  8
default
 10
4.970986037903117
 20
-12.393600291140718
 30
0.0
 11
4.67086234358265
 21
-12.50306073744043
 31
0.0
  0
LINE
  8
default
 10
4.67086234358265
 20
-12.50306073744043
 30
0.0
 11
-1.7398076111520698e-015
 21
-14.206607263117755
 31
0.0
  0
LINE
  8
default
 10
8.4590980963541149
 20
-13.525358332189271
 30
0.0
 11
7.156165070834235
 21
-11.39484149003464
 31
0.0
  0
LINE
  8
default
 10
8.4925370518918779
 20
-10.296615815842914
 30
0.0
 11
9.9989604565275823
 21
-12.094309320235116
 31
0.0
  0
LINE
  8
default
 10
12.303282791448488
 20
-7.1033036315588838
 30
0.0
 11
13.809706196084193
 21
-8.9009971359510853
 31
0.0
  0
LINE
  8
default
 10
9.9989604565275823
 20
-12.094309320235116
 30
0.0
 11
13.809706196084193
 21
-8.9009971359510853
 31
0.0
  0
LINE
  8
default
 10
13.809706196084193
 20
-8.9009971359510853
 30
0.0
 11
14.465356972829426
 21
-8.3515777421871089
 31
0.0
  0
LINE
  8
default
 10
8.2476796775265111
 20
-10.501800336252218
 30
0.0
 11
8.4925370518918779
 21
-10.296615815842914
 31
0.0
  0
LINE
  8
default
 10
8.4925370518918779
 20
-10.296615815842914
 30
0.0
 11
12.303282791448488
 21
-7.1033036315588838
 31
0.0
  0
LINE
  8
default
 10
15.942852959140492
 20
-0.56311467845263063
 30
0.0
 11
13.446304737884041
 21
-0.50000000000000888
 31
0.0
  0
LINE
  8
default
 10
13.163399395474533
 20
-2.2064449215975266
 30
0.0
 11
15.473459340814303
 21
-2.6121991066713921
 31
0.0
  0
LINE
  8
default
 10
12.303282791448488
 20
-7.1033036315588838
 30
0.0
 11
14.613342736788258
 21
-7.5090578166327493
 31
0.0
  0
LINE
  8
default
 10
15.473459340814303
 20
-2.6121991066713921
 30
0.0
 11
14.613342736788258
 21
-7.5090578166327493
 31
0.0
  0
LINE
  8
default
 10
14.613342736788258
 20
-7.5090578166327493
 30
0.0
 11
14.465356972829426
 21
-8.3515777421871089
 31
0.0
  0
LINE
  8
default
 10
13.218665715429635
 20
-1.8917999548885103
 30
0.0
 11
13.163399395474533
 21
-2.2064449215975266
 31
0.0
  0
LINE
  8
default
 10
13.163399395474533
 20
-2.2064449215975266
 30
0.0
 11
12.303282791448488
 21
-7.1033036315588838
 31
0.0
  0
LINE
  8
default
 10
15.942852959140492
 20
0.56311467845262442
 30
0.0
 11
13.446304737884041
 21
0.50000000000000266
 31
0.0
  0
LINE
  8
default
 10
13.163399395474535
 20
2.2064449215975221
 30
0.0
 11
15.473459340814305
 21
2.6121991066713868
 31
0.0
  0
LINE
  8
default
 10
12.303282791448492
 20
7.1033036315588793
 30
0.0
 11
14.613342736788262
 21
7.509057816632744
 31
0.0
  0
LINE
  8
default
 10
15.473459340814305
 20
2.6121991066713868
 30
0.0
 11
14.613342736788262
 21
7.509057816632744
 31
0.0
  0
LINE
  8
default
 10
14.613342736788262
 20
7.509057816632744
 30
0.0
 11
14.465356972829429
 21
8.3515777421871036
 31
0.0
  0
LINE
  8
default
 10
13.218665715429637
 20
1.8917999548885058
 30
0.0
 11
13.163399395474535
 21
2.2064449215975221
 31
0.0
  0
LINE
  8
default
 10
13.163399395474535
 20
2.2064449215975221
 30
0.0
 11
12.303282791448492
 21
7.1033036315588793
 31
0.0
  0
LINE
  8
default
 10
8.459098096354122
 20
13.525358332189267
 30
0.0
 11
7.1561650708342404
 21
11.394841490034636
 31
0.0
  0
LINE
  8
default
 10
8.4925370518918832
 20
10.296615815842912
 30
0.0
 11
9.9989604565275876
 21
12.094309320235112
 31
0.0
  0
LINE
  8
default
 10
12.303282791448492
 20
7.1033036315588793
 30
0.0
 11
13.809706196084196
 21
8.90099713595108
 31
0.0
  0
LINE
  8
default
 10
9.9989604565275876
 20
12.094309320235112
 30
0.0
 11
13.809706196084196
 21
8.90099713595108
 31
0.0
  0
LINE
  8
default
 10
13.809706196084196
 20
8.90099713595108
 30
0.0
 11
14.465356972829429
 21
8.3515777421871036
 31
0.0
  0
LINE
  8
default
 10
8.2476796775265164
 20
10.501800336252217
 30
0.0
 11
8.4925370518918832
 21
10.296615815842912
 31
0.0
  0
LINE
  8
default
 10
8.4925370518918832
 20
10.296615815842912
 30
0.0
 11
12.303282791448492
 21
7.1033036315588793
 31
0.0
  0
ARC
  8
default
 10
0
 20
-4.4408920985006262e-016
 30
0
 40
9
 50
2.8271597168564595e-015
 51
59.999999999999993
  0
ARC
  8
default
 10
0
 20
-8.8817841970012523e-016
 30
0
 40
9
 50
59.999999999999993
 51
119.99999999999999
  0
ARC
  8
default
 10
-8.8817841970012523e-016
 20
0
 30
0
 40
9
 50
119.99999999999999
 51
180
  0
ARC
  8
default
 10
0
 20
4.4408920985006262e-016
 30
0
 40
9
 50
180
 51
240
  0
ARC
  8
default
 10
0
 20
8.8817841970012523e-016
 30
0
 40
9
 50
240
 51
300
  0
ARC
  8
default
 10
8.8817841970012523e-016
 20
0
 30
0
 40
9
 50
300
 51
0
  0
ARC
  8
default
 10
-0.45476817046515183
 20
9.3386411766463837
 30
0
 40
8.6732895002849855
 50
48.541245149758922
 51
86.994421691858264
  0
ARC
  8
default
 10
8.8072931539547206
 20
20.520721706509711
 30
0
 40
5.8574179238708002
 50
233.06658357743638
 51
266.71283420047149
  0
ARC
  8
default
 10
7.5011519050908166
 20
17.720131866490433
 30
0
 40
3.6317005248704222
 50
236.07928266213378
 51
269.72553328516892
  0
ARC
  8
default
 10
6.4553440317158213
 20
14.325662267527065
 30
0
 40
2.4364281508785739
 50
232.46577054161423
 51
266.11202116464932
  0
ARC
  8
default
 10
0.45476817046515139
 20
9.3386411766463837
 30
0
 40
8.6732895002849855
 50
93.005578308141736
 51
131.45875485024106
  0
ARC
  8
default
 10
-8.8072931539547206
 20
20.520721706509711
 30
0
 40
5.8574179238708002
 50
273.28716579952845
 51
306.9334164225636
  0
ARC
  8
default
 10
-7.5011519050908166
 20
17.720131866490433
 30
0
 40
3.6317005248704222
 50
270.27446671483108
 51
303.92071733786622
  0
ARC
  8
default
 10
-6.4553440317158213
 20
14.325662267527065
 30
0
 40
2.4364281508785739
 50
273.88797883535062
 51
307.53422945838577
  0
ARC
  8
default
 10
-8.3148845810357432
 20
4.2754797998678011
 30
0
 40
8.6732895002849855
 50
108.54124514975895
 51
146.99442169185829
  0
ARC
  8
default
 10
-13.367819724850806
 20
17.88770046315642
 30
0
 40
5.8574179238708037
 50
293.06658357743635
 51
326.71283420047149
  0
ARC
  8
default
 10
-11.595508402245466
 20
15.356254040699902
 30
0
 40
3.6317005248704222
 50
296.07928266213378
 51
329.72553328516892
  0
ARC
  8
default
 10
-9.1787154338567074
 20
12.753323055397694
 30
0
 40
2.4364281508785712
 50
292.46577054161412
 51
326.11202116464926
  0
ARC
  8
default
 10
-7.8601164105705914
 20
5.0631613767785844
 30
0
 40
8.6732895002849855
 50
153.00557830814171
 51
191.45875485024106
  0
ARC
  8
default
 10
-22.175112878805528
 20
2.6330212433533
 30
0
 40
5.8574179238707984
 50
333.28716579952845
 51
6.9334164225636021
  0
ARC
  8
default
 10
-19.096660307336283
 20
2.3638778257905342
 30
0
 40
3.6317005248704235
 50
330.27446671483102
 51
3.9207173378661877
  0
ARC
  8
default
 10
-15.634059465572536
 20
1.5723392121293718
 30
0
 40
2.4364281508785752
 50
333.88797883535074
 51
7.5342294583858438
  0
ARC
  8
default
 10
-7.8601164105705923
 20
-5.0631613767785817
 30
0
 40
8.6732895002849855
 50
168.54124514975894
 51
206.99442169185826
  0
ARC
  8
default
 10
-22.175112878805535
 20
-2.6330212433532929
 30
0
 40
5.8574179238708046
 50
353.0665835774364
 51
26.712834200471509
  0
ARC
  8
default
 10
-19.096660307336283
 20
-2.363877825790528
 30
0
 40
3.6317005248704235
 50
356.07928266213383
 51
29.725533285168954
  0
ARC
  8
default
 10
-15.634059465572532
 20
-1.5723392121293669
 30
0
 40
2.4364281508785739
 50
352.46577054161418
 51
26.112021164649292
  0
ARC
  8
default
 10
-8.314884581035745
 20
-4.2754797998677967
 30
0
 40
8.6732895002849837
 50
213.00557830814171
 51
251.45875485024106
  0
ARC
  8
default
 10
-13.367819724850811
 20
-17.88770046315641
 30
0
 40
5.8574179238707984
 50
33.287165799528466
 51
66.933416422563596
  0
ARC
  8
default
 10
-11.59550840224547
 20
-15.356254040699898
 30
0
 40
3.6317005248704222
 50
30.274466714831064
 51
63.920717337866201
  0
ARC
  8
default
 10
-9.1787154338567127
 20
-12.75332305539769
 30
0
 40
2.4364281508785717
 50
33.88797883535068
 51
67.534229458385795
  0
ARC
  8
default
 10
0.45476817046515006
 20
-9.3386411766463837
 30
0
 40
8.6732895002849855
 50
228.54124514975894
 51
266.99442169185829
  0
ARC
  8
default
 10
-8.8072931539547348
 20
-20.520721706509718
 30
0
 40
5.8574179238708126
 50
53.066583577436333
 51
86.712834200471448
  0
ARC
  8
default
 10
-7.501151905090822
 20
-17.72013186649043
 30
0
 40
3.6317005248704235
 50
56.079282662133728
 51
89.725533285168865
  0
ARC
  8
default
 10
-6.455344031715823
 20
-14.325662267527065
 30
0
 40
2.4364281508785739
 50
52.465770541614219
 51
86.112021164649349
  0
ARC
  8
default
 10
-0.45476817046515361
 20
-9.3386411766463837
 30
0
 40
8.6732895002849855
 50
273.00557830814171
 51
311.45875485024106
  0
ARC
  8
default
 10
8.8072931539547152
 20
-20.520721706509715
 30
0
 40
5.8574179238708002
 50
93.287165799528452
 51
126.93341642256358
  0
ARC
  8
default
 10
7.5011519050908122
 20
-17.720131866490433
 30
0
 40
3.6317005248704213
 50
90.27446671483105
 51
123.92071733786617
  0
ARC
  8
default
 10
6.4553440317158195
 20
-14.325662267527065
 30
0
 40
2.4364281508785739
 50
93.88797883535068
 51
127.53422945838578
  0
ARC
  8
default
 10
8.3148845810357415
 20
-4.2754797998678029
 30
0
 40
8.6732895002849855
 50
288.54124514975888
 51
326.99442169185824
  0
ARC
  8
default
 10
13.367819724850801
 20
-17.88770046315642
 30
0
 40
5.8574179238707975
 50
113.06658357743638
 51
146.71283420047149
  0
ARC
  8
default
 10
11.595508402245461
 20
-15.356254040699909
 30
0
 40
3.6317005248704244
 50
116.07928266213378
 51
149.72553328516889
  0
ARC
  8
default
 10
9.1787154338567039
 20
-12.753323055397697
 30
0
 40
2.4364281508785735
 50
112.46577054161416
 51
146.11202116464929
  0
ARC
  8
default
 10
7.8601164105705914
 20
-5.0631613767785861
 30
0
 40
8.6732895002849837
 50
333.00557830814171
 51
11.45875485024102
  0
ARC
  8
default
 10
22.175112878805528
 20
-2.6330212433533067
 30
0
 40
5.8574179238708002
 50
153.28716579952848
 51
186.9334164225636
  0
ARC
  8
default
 10
19.096660307336283
 20
-2.3638778257905431
 30
0
 40
3.6317005248704231
 50
150.27446671483102
 51
183.92071733786614
  0
ARC
  8
default
 10
15.634059465572532
 20
-1.57233921212938
 30
0
 40
2.4364281508785726
 50
153.88797883535065
 51
187.53422945838577
  0
ARC
  8
default
 10
7.8601164105705923
 20
5.0631613767785844
 30
0
 40
8.6732895002849855
 50
348.54124514975894
 51
26.994421691858292
  0
ARC
  8
default
 10
22.175112878805553
 20
2.6330212433532925
 30
0
 40
5.8574179238708259
 50
173.06658357743638
 51
206.71283420047146
  0
ARC
  8
default
 10
19.096660307336283
 20
2.3638778257905342
 30
0
 40
3.6317005248704235
 50
176.07928266213383
 51
209.72553328516895
  0
ARC
  8
default
 10
15.634059465572536
 20
1.5723392121293718
 30
0
 40
2.4364281508785752
 50
172.46577054161418
 51
206.11202116464926
  0
ARC
  8
default
 10
8.3148845810357432
 20
4.2754797998678002
 30
0
 40
8.6732895002849855
 50
33.005578308141722
 51
71.458754850241078
  0
ARC
  8
default
 10
13.367819724850806
 20
17.88770046315642
 30
0
 40
5.8574179238708037
 50
213.28716579952851
 51
246.93341642256365
  0
ARC
  8
default
 10
11.595508402245466
 20
15.356254040699902
 30
0
 40
3.6317005248704222
 50
210.27446671483105
 51
243.92071733786619
  0
ARC
  8
default
 10
9.1787154338567056
 20
12.753323055397694
 30
0
 40
2.4364281508785712
 50
213.88797883535076
 51
247.53422945838591
  0
ARC
  8
default
 10
0
 20
0
 30
0
 40
20.5
 50
0
 51
180
  0
ARC
  8
default
 10
0
 20
0
 30
0
 40
20.5
 50
180
 51
0
  0
ARC
  8
default
 10
0
 20
0
 30
0
 40
23.5
 50
0
 51
180
  0
ARC
  8
default
 10
0
 20
0
 30
0
 40
23.5
 50
180
 51
0
  0
ENDSEC
  0
EOF
