  0
SECTION
  2
HEADER
  9
$INSBASE
 10
0.0000
 20
0.0000
  9
$EXTMIN
 10
-57.818376618407356
 20
-57.818376618407356
  9
$EXTMAX
 10
57.818376618407356
 20
57.818376618407356
  9
$LIMMIN
 10
-57.818376618407356
 20
-57.818376618407356
  9
$LIMMAX
 10
57.818376618407356
 20
57.818376618407356
  9
$TEXTSTYLE
  7
STANDARD
  9
$CLAYER
  8
default
  0
ENDSEC
  0
SECTION
  2
TABLES
  0
TABLE
  2
LTYPE
 70
4948253
  0
LTYPE
  2
CONTINUOUS
 70
    64
  3
Solid line
 72
    65
 73
     0
 40
0.0
  0
ENDTAB
  0
TABLE
  2
LAYER
 70
     5
  0
LAYER
  2
default
 70
    64
 62
     7
  6
CONTINUOUS
  0
ENDTAB
  0
TABLE
  2
STYLE
 70
     1
  0
STYLE
  2
STANDARD
 70
     0
 40
0.0
 41
1.0
 50
0.0
 71
     0
 42
0.2
  3
txt
  4

  0
ENDTAB
  0
TABLE
  2
VIEW
 70
     0
  0
ENDTAB
  0
ENDSEC
  0
SECTION
  2
BLOCKS
  0
ENDSEC
  0
SECTION
  2
ENTITIES
  0
LINE
  8
default
 10
-54
 20
-54
 30
0.0
 11
-54
 21
54
 31
0.0
  0
LINE
  8
default
 10
-54
 20
54
 30
0.0
 11
54
 21
54
 31
0.0
  0
LINE
  8
default
 10
54
 20
54
 30
0.0
 11
54
 21
-54
 31
0.0
  0
LINE
  8
default
 10
54
 20
-54
 30
0.0
 11
-54
 21
-54
 31
0.0
  0
LINE
  8
default
 10
7.293036412707723
 20
13.871351557626515
 30
0.0
 11
5.8465726182960562
 21
11.126560825029772
 31
0.0
  0
LINE
  8
default
 10
4.9514922646169328
 20
14.806338922641034
 30
0.0
 11
4.5977491581962369
 21
14.806338922641034
 31
0.0
  0
LINE
  8
default
 10
4.5977491581962369
 20
14.806338922641034
 30
0.0
 11
0
 21
14.806338922641034
 31
0.0
  0
LINE
  8
default
 10
4.9514922646169328
 20
11.706048522934323
 30
0.0
 11
4.5977491581962369
 21
11.706048522934323
 31
0.0
  0
LINE
  8
default
 10
4.5977491581962369
 20
11.706048522934323
 30
0.0
 11
0
 21
11.706048522934323
 31
0.0
  0
LINE
  8
default
 10
4.5977491581962369
 20
11.706048522934323
 30
0.0
 11
4.5977491581962369
 21
14.806338922641034
 31
0.0
  0
LINE
  8
default
 10
-7.293036412707723
 20
13.871351557626515
 30
0.0
 11
-5.8465726182960562
 21
11.126560825029772
 31
0.0
  0
LINE
  8
default
 10
-4.9514922646169328
 20
14.806338922641034
 30
0.0
 11
-4.5977491581962369
 21
14.806338922641034
 31
0.0
  0
LINE
  8
default
 10
-4.5977491581962369
 20
14.806338922641034
 30
0.0
 11
0
 21
14.806338922641034
 31
0.0
  0
LINE
  8
default
 10
-4.9514922646169328
 20
11.706048522934323
 30
0.0
 11
-4.5977491581962369
 21
11.706048522934323
 31
0.0
  0
LINE
  8
default
 10
-4.5977491581962369
 20
11.706048522934323
 30
0.0
 11
0
 21
11.706048522934323
 31
0.0
  0
LINE
  8
default
 10
-4.5977491581962369
 20
11.706048522934323
 30
0.0
 11
-4.5977491581962369
 21
14.806338922641034
 31
0.0
  0
LINE
  8
default
 10
-8.3664246273755403
 20
13.251630582943079
 30
0.0
 11
-6.7125980220804955
 21
10.62656082502977
 31
0.0
  0
LINE
  8
default
 10
-10.346919511740984
 20
11.691287549120922
 30
0.0
 11
-10.523791064951332
 21
11.384937032546977
 31
0.0
  0
LINE
  8
default
 10
-10.523791064951332
 20
11.384937032546977
 30
0.0
 11
-12.822665644049451
 21
7.4031694613205188
 31
0.0
  0
LINE
  8
default
 10
-7.6619892664859606
 20
10.141142349267565
 30
0.0
 11
-7.8388608196963094
 21
9.8347918326936217
 31
0.0
  0
LINE
  8
default
 10
-7.8388608196963094
 20
9.8347918326936217
 30
0.0
 11
-10.137735398794428
 21
5.8530242614671621
 31
0.0
  0
LINE
  8
default
 10
-7.8388608196963094
 20
9.8347918326936217
 30
0.0
 11
-10.523791064951332
 21
11.384937032546977
 31
0.0
  0
LINE
  8
default
 10
-15.659461040083265
 20
0.61972097468343978
 30
0.0
 11
-12.559170640376554
 21
0.50000000000000266
 31
0.0
  0
LINE
  8
default
 10
-15.298411776357918
 20
3.1150513735201155
 30
0.0
 11
-15.121540223147569
 21
3.4214018900940601
 31
0.0
  0
LINE
  8
default
 10
-15.121540223147569
 20
3.4214018900940601
 30
0.0
 11
-12.822665644049451
 21
7.4031694613205188
 31
0.0
  0
LINE
  8
default
 10
-12.613481531102895
 20
1.5649061736667589
 30
0.0
 11
-12.436609977892546
 21
1.8712566902407035
 31
0.0
  0
LINE
  8
default
 10
-12.436609977892546
 20
1.8712566902407035
 30
0.0
 11
-10.137735398794428
 21
5.8530242614671621
 31
0.0
  0
LINE
  8
default
 10
-12.436609977892546
 20
1.8712566902407035
 30
0.0
 11
-15.121540223147569
 21
3.4214018900940601
 31
0.0
  0
LINE
  8
default
 10
-15.659461040083265
 20
-0.61972097468343446
 30
0.0
 11
-12.559170640376554
 21
-0.49999999999999822
 31
0.0
  0
LINE
  8
default
 10
-15.298411776357918
 20
-3.1150513735201093
 30
0.0
 11
-15.121540223147569
 21
-3.4214018900940544
 31
0.0
  0
LINE
  8
default
 10
-15.121540223147569
 20
-3.4214018900940544
 30
0.0
 11
-12.822665644049453
 21
-7.4031694613205135
 31
0.0
  0
LINE
  8
default
 10
-12.613481531102895
 20
-1.5649061736667544
 30
0.0
 11
-12.436609977892548
 21
-1.8712566902406995
 31
0.0
  0
LINE
  8
default
 10
-12.436609977892548
 20
-1.8712566902406995
 30
0.0
 11
-10.13773539879443
 21
-5.8530242614671586
 31
0.0
  0
LINE
  8
default
 10
-12.436609977892548
 20
-1.8712566902406995
 30
0.0
 11
-15.121540223147569
 21
-3.4214018900940544
 31
0.0
  0
LINE
  8
default
 10
-8.3664246273755438
 20
-13.251630582943076
 30
0.0
 11
-6.712598022080499
 21
-10.626560825029769
 31
0.0
  0
LINE
  8
default
 10
-10.346919511740987
 20
-11.691287549120918
 30
0.0
 11
-10.523791064951336
 21
-11.384937032546972
 31
0.0
  0
LINE
  8
default
 10
-10.523791064951336
 20
-11.384937032546972
 30
0.0
 11
-12.822665644049453
 21
-7.4031694613205135
 31
0.0
  0
LINE
  8
default
 10
-7.6619892664859641
 20
-10.141142349267563
 30
0.0
 11
-7.8388608196963121
 21
-9.8347918326936181
 31
0.0
  0
LINE
  8
default
 10
-7.8388608196963121
 20
-9.8347918326936181
 30
0.0
 11
-10.13773539879443
 21
-5.8530242614671586
 31
0.0
  0
LINE
  8
default
 10
-7.8388608196963121
 20
-9.8347918326936181
 30
0.0
 11
-10.523791064951336
 21
-11.384937032546972
 31
0.0
  0
LINE
  8
default
 10
-7.2930364127077247
 20
-13.871351557626513
 30
0.0
 11
-5.846572618296058
 21
-11.126560825029772
 31
0.0
  0
LINE
  8
default
 10
-4.9514922646169346
 20
-14.806338922641034
 30
0.0
 11
-4.5977491581962386
 21
-14.806338922641034
 31
0.0
  0
LINE
  8
default
 10
-4.5977491581962386
 20
-14.806338922641034
 30
0.0
 11
-1.8132535568703211e-015
 21
-14.806338922641034
 31
0.0
  0
LINE
  8
default
 10
-4.9514922646169346
 20
-11.706048522934323
 30
0.0
 11
-4.5977491581962386
 21
-11.706048522934323
 31
0.0
  0
LINE
  8
default
 10
-4.5977491581962386
 20
-11.706048522934323
 30
0.0
 11
-1.4335774854275119e-015
 21
-11.706048522934323
 31
0.0
  0
LINE
  8
default
 10
-4.5977491581962386
 20
-11.706048522934323
 30
0.0
 11
-4.5977491581962386
 21
-14.806338922641034
 31
0.0
  0
LINE
  8
default
 10
7.2930364127077212
 20
-13.871351557626516
 30
0.0
 11
5.8465726182960545
 21
-11.126560825029772
 31
0.0
  0
LINE
  8
default
 10
4.951492264616931
 20
-14.806338922641034
 30
0.0
 11
4.5977491581962351
 21
-14.806338922641034
 31
0.0
  0
LINE
  8
default
 10
4.5977491581962351
 20
-14.806338922641034
 30
0.0
 11
-1.8132535568703211e-015
 21
-14.806338922641034
 31
0.0
  0
LINE
  8
default
 10
4.951492264616931
 20
-11.706048522934323
 30
0.0
 11
4.5977491581962351
 21
-11.706048522934323
 31
0.0
  0
LINE
  8
default
 10
4.5977491581962351
 20
-11.706048522934323
 30
0.0
 11
-1.4335774854275119e-015
 21
-11.706048522934323
 31
0.0
  0
LINE
  8
default
 10
4.5977491581962351
 20
-11.706048522934323
 30
0.0
 11
4.5977491581962351
 21
-14.806338922641034
 31
0.0
  0
LINE
  8
default
 10
8.3664246273755367
 20
-13.251630582943081
 30
0.0
 11
6.7125980220804919
 21
-10.626560825029774
 31
0.0
  0
LINE
  8
default
 10
10.346919511740978
 20
-11.691287549120926
 30
0.0
 11
10.523791064951327
 21
-11.384937032546981
 31
0.0
  0
LINE
  8
default
 10
10.523791064951327
 20
-11.384937032546981
 30
0.0
 11
12.822665644049447
 21
-7.4031694613205232
 31
0.0
  0
LINE
  8
default
 10
7.6619892664859552
 20
-10.141142349267568
 30
0.0
 11
7.8388608196963041
 21
-9.8347918326936252
 31
0.0
  0
LINE
  8
default
 10
7.8388608196963041
 20
-9.8347918326936252
 30
0.0
 11
10.137735398794424
 21
-5.8530242614671666
 31
0.0
  0
LINE
  8
default
 10
7.8388608196963041
 20
-9.8347918326936252
 30
0.0
 11
10.523791064951327
 21
-11.384937032546981
 31
0.0
  0
LINE
  8
default
 10
15.659461040083265
 20
-0.619720974683446
 30
0.0
 11
12.559170640376554
 21
-0.50000000000000799
 31
0.0
  0
LINE
  8
default
 10
15.298411776357916
 20
-3.1150513735201208
 30
0.0
 11
15.121540223147568
 21
-3.4214018900940655
 31
0.0
  0
LINE
  8
default
 10
15.121540223147568
 20
-3.4214018900940655
 30
0.0
 11
12.822665644049447
 21
-7.4031694613205232
 31
0.0
  0
LINE
  8
default
 10
12.613481531102893
 20
-1.5649061736667642
 30
0.0
 11
12.436609977892545
 21
-1.8712566902407088
 31
0.0
  0
LINE
  8
default
 10
12.436609977892545
 20
-1.8712566902407088
 30
0.0
 11
10.137735398794424
 21
-5.8530242614671666
 31
0.0
  0
LINE
  8
default
 10
12.436609977892545
 20
-1.8712566902407088
 30
0.0
 11
15.121540223147568
 21
-3.4214018900940655
 31
0.0
  0
LINE
  8
default
 10
15.659461040083265
 20
0.61972097468343978
 30
0.0
 11
12.559170640376554
 21
0.50000000000000266
 31
0.0
  0
LINE
  8
default
 10
15.298411776357918
 20
3.1150513735201155
 30
0.0
 11
15.121540223147569
 21
3.4214018900940601
 31
0.0
  0
LINE
  8
default
 10
15.121540223147569
 20
3.4214018900940601
 30
0.0
 11
12.822665644049451
 21
7.4031694613205188
 31
0.0
  0
LINE
  8
default
 10
12.613481531102895
 20
1.5649061736667589
 30
0.0
 11
12.436609977892546
 21
1.8712566902407035
 31
0.0
  0
LINE
  8
default
 10
12.436609977892546
 20
1.8712566902407035
 30
0.0
 11
10.137735398794428
 21
5.8530242614671621
 31
0.0
  0
LINE
  8
default
 10
12.436609977892546
 20
1.8712566902407035
 30
0.0
 11
15.121540223147569
 21
3.4214018900940601
 31
0.0
  0
LINE
  8
default
 10
8.3664246273755403
 20
13.251630582943079
 30
0.0
 11
6.7125980220804955
 21
10.62656082502977
 31
0.0
  0
LINE
  8
default
 10
10.346919511740984
 20
11.691287549120922
 30
0.0
 11
10.523791064951332
 21
11.384937032546977
 31
0.0
  0
LINE
  8
default
 10
10.523791064951332
 20
11.384937032546977
 30
0.0
 11
12.822665644049451
 21
7.4031694613205188
 31
0.0
  0
LINE
  8
default
 10
7.6619892664859606
 20
10.141142349267565
 30
0.0
 11
7.8388608196963094
 21
9.8347918326936217
 31
0.0
  0
LINE
  8
default
 10
7.8388608196963094
 20
9.8347918326936217
 30
0.0
 11
10.137735398794428
 21
5.8530242614671621
 31
0.0
  0
LINE
  8
default
 10
7.8388608196963094
 20
9.8347918326936217
 30
0.0
 11
10.523791064951332
 21
11.384937032546977
 31
0.0
  0
ARC
  8
default
 10
0
 20
-4.4408920985006262e-016
 30
0
 40
9
 50
2.8271597168564595e-015
 51
59.999999999999993
  0
ARC
  8
default
 10
0
 20
-8.8817841970012523e-016
 30
0
 40
9
 50
59.999999999999993
 51
119.99999999999999
  0
ARC
  8
default
 10
-8.8817841970012523e-016
 20
0
 30
0
 40
9
 50
119.99999999999999
 51
180
  0
ARC
  8
default
 10
0
 20
4.4408920985006262e-016
 30
0
 40
9
 50
180
 51
240
  0
ARC
  8
default
 10
0
 20
8.8817841970012523e-016
 30
0
 40
9
 50
240
 51
300
  0
ARC
  8
default
 10
8.8817841970012523e-016
 20
0
 30
0
 40
9
 50
300
 51
0
  0
ARC
  8
default
 10
-0.42306135608443096
 20
9.7030967660861513
 30
0
 40
8.3076822389847145
 50
46.755456808672676
 51
87.08100064997754
  0
ARC
  8
default
 10
8.7843998569788688
 20
19.669865965122941
 30
0
 40
5.2620293036339145
 50
228.07658195050516
 51
265.04313689597882
  0
ARC
  8
default
 10
7.5208120570170376
 20
17.84131099344194
 30
0
 40
3.97648835860995
 50
229.7497109868861
 51
266.71626593235976
  0
ARC
  8
default
 10
6.265826184392739
 20
12.755159757186968
 30
0
 40
1.6816979617363947
 50
218.59713100335077
 51
255.5636859488244
  0
ARC
  8
default
 10
0.42306135608443141
 20
9.7030967660861513
 30
0
 40
8.3076822389847145
 50
92.91899935002246
 51
133.24454319132732
  0
ARC
  8
default
 10
-8.7843998569788688
 20
19.669865965122941
 30
0
 40
5.2620293036339145
 50
274.95686310402118
 51
311.92341804949484
  0
ARC
  8
default
 10
-7.5208120570170376
 20
17.84131099344194
 30
0
 40
3.97648835860995
 50
273.28373406764024
 51
310.25028901311384
  0
ARC
  8
default
 10
-6.265826184392739
 20
12.755159757186968
 30
0
 40
1.6816979617363947
 50
284.4363140511756
 51
321.4028689966492
  0
ARC
  8
default
 10
-8.6146589728514549
 20
4.4851665013144641
 30
0
 40
8.3076822389847145
 50
106.75545680867266
 51
147.08100064997751
  0
ARC
  8
default
 10
-12.642403686341947
 20
17.442446415705565
 30
0
 40
5.2620293036339163
 50
288.07658195050516
 51
325.04313689597882
  0
ARC
  8
default
 10
-11.690622528630781
 20
15.433869795186027
 30
0
 40
3.9764883586099518
 50
289.74971098688616
 51
326.71626593235976
  0
ARC
  8
default
 10
-7.9133792868564949
 20
11.803944529975315
 30
0
 40
1.681697961736395
 50
278.59713100335074
 51
315.5636859488244
  0
ARC
  8
default
 10
-8.191597616767023
 20
5.2179302647716863
 30
0
 40
8.3076822389847145
 50
152.91899935002246
 51
193.2445431913273
  0
ARC
  8
default
 10
-21.426803543320819
 20
2.2274195494173834
 30
0
 40
5.2620293036339154
 50
334.95686310402118
 51
11.923418049494838
  0
ARC
  8
default
 10
-19.211434585647819
 20
2.407441198255917
 30
0
 40
3.97648835860995
 50
333.28373406764024
 51
10.250289013113893
  0
ARC
  8
default
 10
-14.179205471249237
 20
0.95121522721165475
 30
0
 40
1.6816979617363947
 50
344.4363140511756
 51
21.402868996649239
  0
ARC
  8
default
 10
-8.191597616767023
 20
-5.2179302647716828
 30
0
 40
8.3076822389847145
 50
166.75545680867268
 51
207.08100064997751
  0
ARC
  8
default
 10
-21.426803543320823
 20
-2.2274195494173767
 30
0
 40
5.2620293036339172
 50
348.07658195050516
 51
25.04313689597879
  0
ARC
  8
default
 10
-19.211434585647815
 20
-2.4074411982559112
 30
0
 40
3.9764883586099482
 50
349.7497109868861
 51
26.716265932359761
  0
ARC
  8
default
 10
-14.179205471249237
 20
-0.9512152272116503
 30
0
 40
1.6816979617363947
 50
338.59713100335074
 51
15.563685948824396
  0
ARC
  8
default
 10
-8.6146589728514567
 20
-4.4851665013144624
 30
0
 40
8.3076822389847127
 50
212.91899935002246
 51
253.24454319132732
  0
ARC
  8
default
 10
-12.642403686341952
 20
-17.442446415705554
 30
0
 40
5.2620293036339145
 50
34.95686310402116
 51
71.923418049494813
  0
ARC
  8
default
 10
-11.690622528630785
 20
-15.433869795186023
 30
0
 40
3.9764883586099518
 50
33.283734067640232
 51
70.250289013113871
  0
ARC
  8
default
 10
-7.9133792868564985
 20
-11.803944529975313
 30
0
 40
1.681697961736395
 50
44.436314051175621
 51
81.402868996649261
  0
ARC
  8
default
 10
0.42306135608442919
 20
-9.7030967660861513
 30
0
 40
8.3076822389847145
 50
226.75545680867268
 51
267.08100064997757
  0
ARC
  8
default
 10
-8.7843998569788795
 20
-19.669865965122945
 30
0
 40
5.2620293036339234
 50
48.076581950505108
 51
85.043136895978748
  0
ARC
  8
default
 10
-7.5208120570170411
 20
-17.84131099344194
 30
0
 40
3.9764883586099513
 50
49.749710986886107
 51
86.716265932359747
  0
ARC
  8
default
 10
-6.2658261843927407
 20
-12.755159757186968
 30
0
 40
1.6816979617363947
 50
38.597131003350775
 51
75.563685948824414
  0
ARC
  8
default
 10
-0.42306135608443363
 20
-9.7030967660861513
 30
0
 40
8.3076822389847145
 50
272.91899935002243
 51
313.24454319132735
  0
ARC
  8
default
 10
8.7843998569788635
 20
-19.669865965122945
 30
0
 40
5.2620293036339127
 50
94.956863104021167
 51
131.92341804949479
  0
ARC
  8
default
 10
7.5208120570170323
 20
-17.84131099344194
 30
0
 40
3.9764883586099491
 50
93.283734067640211
 51
130.25028901311384
  0
ARC
  8
default
 10
6.2658261843927372
 20
-12.755159757186968
 30
0
 40
1.6816979617363947
 50
104.43631405117559
 51
141.40286899664923
  0
ARC
  8
default
 10
8.6146589728514513
 20
-4.4851665013144677
 30
0
 40
8.3076822389847162
 50
286.75545680867265
 51
327.08100064997751
  0
ARC
  8
default
 10
12.64240368634194
 20
-17.442446415705561
 30
0
 40
5.2620293036339083
 50
108.07658195050517
 51
145.04313689597882
  0
ARC
  8
default
 10
11.690622528630774
 20
-15.433869795186027
 30
0
 40
3.9764883586099478
 50
109.74971098688613
 51
146.71626593235979
  0
ARC
  8
default
 10
7.9133792868564914
 20
-11.803944529975315
 30
0
 40
1.6816979617363925
 50
98.597131003350839
 51
135.56368594882449
  0
ARC
  8
default
 10
8.191597616767023
 20
-5.2179302647716925
 30
0
 40
8.3076822389847127
 50
332.91899935002243
 51
13.244543191327306
  0
ARC
  8
default
 10
21.426803543320815
 20
-2.2274195494173954
 30
0
 40
5.2620293036339154
 50
154.95686310402115
 51
191.92341804949476
  0
ARC
  8
default
 10
19.211434585647815
 20
-2.4074411982559254
 30
0
 40
3.9764883586099491
 50
153.28373406764021
 51
190.25028901311384
  0
ARC
  8
default
 10
14.179205471249235
 20
-0.95121522721166274
 30
0
 40
1.6816979617363947
 50
164.43631405117549
 51
201.40286899664915
  0
ARC
  8
default
 10
8.191597616767023
 20
5.2179302647716863
 30
0
 40
8.3076822389847145
 50
346.7554568086727
 51
27.081000649977547
  0
ARC
  8
default
 10
21.42680354332084
 20
2.2274195494173763
 30
0
 40
5.2620293036339376
 50
168.07658195050513
 51
205.04313689597876
  0
ARC
  8
default
 10
19.211434585647819
 20
2.407441198255917
 30
0
 40
3.97648835860995
 50
169.74971098688613
 51
206.71626593235973
  0
ARC
  8
default
 10
14.179205471249237
 20
0.95121522721165475
 30
0
 40
1.6816979617363947
 50
158.59713100335077
 51
195.5636859488244
  0
ARC
  8
default
 10
8.6146589728514549
 20
4.4851665013144641
 30
0
 40
8.3076822389847145
 50
32.918999350022482
 51
73.244543191327338
  0
ARC
  8
default
 10
12.642403686341947
 20
17.442446415705565
 30
0
 40
5.2620293036339163
 50
214.95686310402121
 51
251.92341804949484
  0
ARC
  8
default
 10
11.690622528630781
 20
15.433869795186027
 30
0
 40
3.9764883586099518
 50
213.28373406764021
 51
250.25028901311384
  0
ARC
  8
default
 10
7.9133792868564949
 20
11.803944529975315
 30
0
 40
1.681697961736395
 50
224.4363140511756
 51
261.40286899664926
  0
ARC
  8
default
 10
0
 20
0
 30
0
 40
20.5
 50
0
 51
180
  0
ARC
  8
default
 10
0
 20
0
 30
0
 40
20.5
 50
180
 51
0
  0
ARC
  8
default
 10
0
 20
0
 30
0
 40
23.5
 50
0
 51
180
  0
ARC
  8
default
 10
0
 20
0
 30
0
 40
23.5
 50
180
 51
0
  0
ENDSEC
  0
EOF
