  0
SECTION
  2
HEADER
  9
$INSBASE
 10
0.0000
 20
0.0000
  9
$EXTMIN
 10
-57.818376618407356
 20
-57.818376618407356
  9
$EXTMAX
 10
57.818376618407356
 20
57.818376618407356
  9
$LIMMIN
 10
-57.818376618407356
 20
-57.818376618407356
  9
$LIMMAX
 10
57.818376618407356
 20
57.818376618407356
  9
$TEXTSTYLE
  7
STANDARD
  9
$CLAYER
  8
default
  0
ENDSEC
  0
SECTION
  2
TABLES
  0
TABLE
  2
LTYPE
 70
4948253
  0
LTYPE
  2
CONTINUOUS
 70
    64
  3
Solid line
 72
    65
 73
     0
 40
0.0
  0
ENDTAB
  0
TABLE
  2
LAYER
 70
     5
  0
LAYER
  2
default
 70
    64
 62
     7
  6
CONTINUOUS
  0
ENDTAB
  0
TABLE
  2
STYLE
 70
     1
  0
STYLE
  2
STANDARD
 70
     0
 40
0.0
 41
1.0
 50
0.0
 71
     0
 42
0.2
  3
txt
  4

  0
ENDTAB
  0
TABLE
  2
VIEW
 70
     0
  0
ENDTAB
  0
ENDSEC
  0
SECTION
  2
BLOCKS
  0
ENDSEC
  0
SECTION
  2
ENTITIES
  0
LINE
  8
default
 10
-54
 20
-54
 30
0.0
 11
-54
 21
54
 31
0.0
  0
LINE
  8
default
 10
-54
 20
54
 30
0.0
 11
54
 21
54
 31
0.0
  0
LINE
  8
default
 10
54
 20
54
 30
0.0
 11
54
 21
-54
 31
0.0
  0
LINE
  8
default
 10
54
 20
-54
 30
0.0
 11
-54
 21
-54
 31
0.0
  0
LINE
  8
default
 10
7.5453377815404279
 20
14.216544248060027
 30
0.0
 11
6.9428007613329026
 21
13.025283665456474
 31
0.0
  0
LINE
  8
default
 10
4.930317888216571
 20
14.585112220912826
 30
0.0
 11
4.5608758739024911
 21
14.585112220912826
 31
0.0
  0
LINE
  8
default
 10
4.5608758739024911
 20
14.585112220912826
 30
0.0
 11
0
 21
14.585112220912826
 31
0.0
  0
LINE
  8
default
 10
4.930317888216571
 20
13.252181783747336
 30
0.0
 11
4.5608758739024911
 21
13.252181783747336
 31
0.0
  0
LINE
  8
default
 10
4.5608758739024911
 20
13.252181783747336
 30
0.0
 11
0
 21
13.252181783747336
 31
0.0
  0
LINE
  8
default
 10
4.5608758739024911
 20
13.252181783747336
 30
0.0
 11
4.5608758739024911
 21
14.585112220912826
 31
0.0
  0
LINE
  8
default
 10
-7.5453377815404279
 20
14.216544248060027
 30
0.0
 11
-6.9428007613329026
 21
13.025283665456474
 31
0.0
  0
LINE
  8
default
 10
-4.930317888216571
 20
14.585112220912826
 30
0.0
 11
-4.5608758739024911
 21
14.585112220912826
 31
0.0
  0
LINE
  8
default
 10
-4.5608758739024911
 20
14.585112220912826
 30
0.0
 11
0
 21
14.585112220912826
 31
0.0
  0
LINE
  8
default
 10
-4.930317888216571
 20
13.252181783747336
 30
0.0
 11
-4.5608758739024911
 21
13.252181783747336
 31
0.0
  0
LINE
  8
default
 10
-4.5608758739024911
 20
13.252181783747336
 30
0.0
 11
0
 21
13.252181783747336
 31
0.0
  0
LINE
  8
default
 10
-4.5608758739024911
 20
13.252181783747336
 30
0.0
 11
-4.5608758739024911
 21
14.585112220912826
 31
0.0
  0
LINE
  8
default
 10
-8.5392195820753081
 20
13.642726322978543
 30
0.0
 11
-7.8088261651173436
 21
12.525283665456474
 31
0.0
  0
LINE
  8
default
 10
-10.165918756249095
 20
11.562336650384811
 30
0.0
 11
-10.350639763406134
 21
11.242390480763524
 31
0.0
  0
LINE
  8
default
 10
-10.350639763406134
 20
11.242390480763524
 30
0.0
 11
-12.63107770035738
 21
7.2925561104564149
 31
0.0
  0
LINE
  8
default
 10
-9.011567136186283
 20
10.895871431802066
 30
0.0
 11
-9.1962881433433221
 21
10.575925262180778
 31
0.0
  0
LINE
  8
default
 10
-9.1962881433433221
 20
10.575925262180778
 30
0.0
 11
-11.476726080294569
 21
6.6260908918736696
 31
0.0
  0
LINE
  8
default
 10
-9.1962881433433221
 20
10.575925262180778
 30
0.0
 11
-10.350639763406134
 21
11.242390480763524
 31
0.0
  0
LINE
  8
default
 10
-16.084557363615737
 20
0.5738179250814861
 30
0.0
 11
-14.751626926450248
 21
0.50000000000000444
 31
0.0
  0
LINE
  8
default
 10
-15.096236644465666
 20
3.0227755705280188
 30
0.0
 11
-14.911515637308627
 21
3.3427217401493059
 31
0.0
  0
LINE
  8
default
 10
-14.911515637308627
 20
3.3427217401493059
 30
0.0
 11
-12.63107770035738
 21
7.2925561104564149
 31
0.0
  0
LINE
  8
default
 10
-13.941885024402854
 20
2.3563103519452735
 30
0.0
 11
-13.757164017245815
 21
2.6762565215665606
 31
0.0
  0
LINE
  8
default
 10
-13.757164017245815
 20
2.6762565215665606
 30
0.0
 11
-11.476726080294569
 21
6.6260908918736696
 31
0.0
  0
LINE
  8
default
 10
-13.757164017245815
 20
2.6762565215665606
 30
0.0
 11
-14.911515637308627
 21
3.3427217401493059
 31
0.0
  0
LINE
  8
default
 10
-16.084557363615737
 20
-0.57381792508147988
 30
0.0
 11
-14.751626926450246
 21
-0.49999999999999911
 31
0.0
  0
LINE
  8
default
 10
-15.096236644465666
 20
-3.0227755705280126
 30
0.0
 11
-14.911515637308627
 21
-3.3427217401493001
 31
0.0
  0
LINE
  8
default
 10
-14.911515637308627
 20
-3.3427217401493001
 30
0.0
 11
-12.631077700357382
 21
-7.2925561104564096
 31
0.0
  0
LINE
  8
default
 10
-13.941885024402854
 20
-2.3563103519452682
 30
0.0
 11
-13.757164017245815
 21
-2.6762565215665557
 31
0.0
  0
LINE
  8
default
 10
-13.757164017245815
 20
-2.6762565215665557
 30
0.0
 11
-11.47672608029457
 21
-6.6260908918736652
 31
0.0
  0
LINE
  8
default
 10
-13.757164017245815
 20
-2.6762565215665557
 30
0.0
 11
-14.911515637308627
 21
-3.3427217401493001
 31
0.0
  0
LINE
  8
default
 10
-8.5392195820753116
 20
-13.64272632297854
 30
0.0
 11
-7.8088261651173454
 21
-12.52528366545647
 31
0.0
  0
LINE
  8
default
 10
-10.165918756249098
 20
-11.562336650384808
 30
0.0
 11
-10.350639763406138
 21
-11.242390480763518
 31
0.0
  0
LINE
  8
default
 10
-10.350639763406138
 20
-11.242390480763518
 30
0.0
 11
-12.631077700357382
 21
-7.2925561104564096
 31
0.0
  0
LINE
  8
default
 10
-9.0115671361862866
 20
-10.895871431802062
 30
0.0
 11
-9.1962881433433257
 21
-10.575925262180775
 31
0.0
  0
LINE
  8
default
 10
-9.1962881433433257
 20
-10.575925262180775
 30
0.0
 11
-11.47672608029457
 21
-6.6260908918736652
 31
0.0
  0
LINE
  8
default
 10
-9.1962881433433257
 20
-10.575925262180775
 30
0.0
 11
-10.350639763406138
 21
-11.242390480763518
 31
0.0
  0
LINE
  8
default
 10
-7.5453377815404297
 20
-14.216544248060025
 30
0.0
 11
-6.9428007613329044
 21
-13.025283665456474
 31
0.0
  0
LINE
  8
default
 10
-4.9303178882165728
 20
-14.585112220912826
 30
0.0
 11
-4.5608758739024928
 21
-14.585112220912826
 31
0.0
  0
LINE
  8
default
 10
-4.5608758739024928
 20
-14.585112220912826
 30
0.0
 11
-1.7861610996545839e-015
 21
-14.585112220912826
 31
0.0
  0
LINE
  8
default
 10
-4.9303178882165728
 20
-13.252181783747336
 30
0.0
 11
-4.5608758739024928
 21
-13.252181783747336
 31
0.0
  0
LINE
  8
default
 10
-4.5608758739024928
 20
-13.252181783747336
 30
0.0
 11
-1.6229242003185036e-015
 21
-13.252181783747336
 31
0.0
  0
LINE
  8
default
 10
-4.5608758739024928
 20
-13.252181783747336
 30
0.0
 11
-4.5608758739024928
 21
-14.585112220912826
 31
0.0
  0
LINE
  8
default
 10
7.5453377815404261
 20
-14.216544248060028
 30
0.0
 11
6.9428007613329008
 21
-13.025283665456474
 31
0.0
  0
LINE
  8
default
 10
4.9303178882165692
 20
-14.585112220912826
 30
0.0
 11
4.5608758739024893
 21
-14.585112220912826
 31
0.0
  0
LINE
  8
default
 10
4.5608758739024893
 20
-14.585112220912826
 30
0.0
 11
-1.7861610996545839e-015
 21
-14.585112220912826
 31
0.0
  0
LINE
  8
default
 10
4.9303178882165692
 20
-13.252181783747336
 30
0.0
 11
4.5608758739024893
 21
-13.252181783747336
 31
0.0
  0
LINE
  8
default
 10
4.5608758739024893
 20
-13.252181783747336
 30
0.0
 11
-1.6229242003185036e-015
 21
-13.252181783747336
 31
0.0
  0
LINE
  8
default
 10
4.5608758739024893
 20
-13.252181783747336
 30
0.0
 11
4.5608758739024893
 21
-14.585112220912826
 31
0.0
  0
LINE
  8
default
 10
8.539219582075301
 20
-13.642726322978547
 30
0.0
 11
7.8088261651173383
 21
-12.525283665456477
 31
0.0
  0
LINE
  8
default
 10
10.16591875624909
 20
-11.562336650384815
 30
0.0
 11
10.350639763406129
 21
-11.242390480763527
 31
0.0
  0
LINE
  8
default
 10
10.350639763406129
 20
-11.242390480763527
 30
0.0
 11
12.631077700357377
 21
-7.2925561104564194
 31
0.0
  0
LINE
  8
default
 10
9.0115671361862777
 20
-10.895871431802069
 30
0.0
 11
9.1962881433433168
 21
-10.575925262180782
 31
0.0
  0
LINE
  8
default
 10
9.1962881433433168
 20
-10.575925262180782
 30
0.0
 11
11.476726080294565
 21
-6.6260908918736741
 31
0.0
  0
LINE
  8
default
 10
9.1962881433433168
 20
-10.575925262180782
 30
0.0
 11
10.350639763406129
 21
-11.242390480763527
 31
0.0
  0
LINE
  8
default
 10
16.084557363615737
 20
-0.57381792508149232
 30
0.0
 11
14.751626926450246
 21
-0.50000000000000977
 31
0.0
  0
LINE
  8
default
 10
15.096236644465664
 20
-3.0227755705280241
 30
0.0
 11
14.911515637308625
 21
-3.3427217401493112
 31
0.0
  0
LINE
  8
default
 10
14.911515637308625
 20
-3.3427217401493112
 30
0.0
 11
12.631077700357377
 21
-7.2925561104564194
 31
0.0
  0
LINE
  8
default
 10
13.941885024402852
 20
-2.3563103519452788
 30
0.0
 11
13.757164017245813
 21
-2.6762565215665659
 31
0.0
  0
LINE
  8
default
 10
13.757164017245813
 20
-2.6762565215665659
 30
0.0
 11
11.476726080294565
 21
-6.6260908918736741
 31
0.0
  0
LINE
  8
default
 10
13.757164017245813
 20
-2.6762565215665659
 30
0.0
 11
14.911515637308625
 21
-3.3427217401493112
 31
0.0
  0
LINE
  8
default
 10
16.084557363615737
 20
0.5738179250814861
 30
0.0
 11
14.751626926450248
 21
0.50000000000000444
 31
0.0
  0
LINE
  8
default
 10
15.096236644465666
 20
3.0227755705280188
 30
0.0
 11
14.911515637308627
 21
3.3427217401493059
 31
0.0
  0
LINE
  8
default
 10
14.911515637308627
 20
3.3427217401493059
 30
0.0
 11
12.63107770035738
 21
7.2925561104564149
 31
0.0
  0
LINE
  8
default
 10
13.941885024402854
 20
2.3563103519452735
 30
0.0
 11
13.757164017245815
 21
2.6762565215665606
 31
0.0
  0
LINE
  8
default
 10
13.757164017245815
 20
2.6762565215665606
 30
0.0
 11
11.476726080294569
 21
6.6260908918736696
 31
0.0
  0
LINE
  8
default
 10
13.757164017245815
 20
2.6762565215665606
 30
0.0
 11
14.911515637308627
 21
3.3427217401493059
 31
0.0
  0
LINE
  8
default
 10
8.5392195820753081
 20
13.642726322978543
 30
0.0
 11
7.8088261651173436
 21
12.525283665456474
 31
0.0
  0
LINE
  8
default
 10
10.165918756249095
 20
11.562336650384811
 30
0.0
 11
10.350639763406134
 21
11.242390480763524
 31
0.0
  0
LINE
  8
default
 10
10.350639763406134
 20
11.242390480763524
 30
0.0
 11
12.63107770035738
 21
7.2925561104564149
 31
0.0
  0
LINE
  8
default
 10
9.011567136186283
 20
10.895871431802066
 30
0.0
 11
9.1962881433433221
 21
10.575925262180778
 31
0.0
  0
LINE
  8
default
 10
9.1962881433433221
 20
10.575925262180778
 30
0.0
 11
11.476726080294569
 21
6.6260908918736696
 31
0.0
  0
LINE
  8
default
 10
9.1962881433433221
 20
10.575925262180778
 30
0.0
 11
10.350639763406134
 21
11.242390480763524
 31
0.0
  0
ARC
  8
default
 10
0
 20
-4.4408920985006262e-016
 30
0
 40
9
 50
2.8271597168564595e-015
 51
59.999999999999993
  0
ARC
  8
default
 10
0
 20
-8.8817841970012523e-016
 30
0
 40
9
 50
59.999999999999993
 51
119.99999999999999
  0
ARC
  8
default
 10
-8.8817841970012523e-016
 20
0
 30
0
 40
9
 50
119.99999999999999
 51
180
  0
ARC
  8
default
 10
0
 20
4.4408920985006262e-016
 30
0
 40
9
 50
180
 51
240
  0
ARC
  8
default
 10
0
 20
8.8817841970012523e-016
 30
0
 40
9
 50
240
 51
300
  0
ARC
  8
default
 10
8.8817841970012523e-016
 20
0
 30
0
 40
9
 50
300
 51
0
  0
ARC
  8
default
 10
0.77806047880339069
 20
12.835642309888726
 30
0
 40
5.2226399895155726
 50
31.088983713455494
 51
98.567727211114772
  0
ARC
  8
default
 10
8.4384242624142551
 20
22.05322404241879
 30
0
 40
7.2583063840613935
 50
243.94695490413261
 51
270.81983628909165
  0
ARC
  8
default
 10
7.00919452562845
 20
19.873737955169418
 30
0
 40
5.6825425850245921
 50
248.54098116865077
 51
275.41386255360982
  0
ARC
  8
default
 10
6.4114287207472236
 20
17.350607788002179
 30
0
 40
4.3578417835658021
 50
250.13089021765489
 51
277.00377160261394
  0
ARC
  8
default
 10
-0.77806047880339047
 20
12.835642309888726
 30
0
 40
5.2226399895155726
 50
81.432272788885228
 51
148.91101628654451
  0
ARC
  8
default
 10
-8.4384242624142569
 20
22.05322404241879
 30
0
 40
7.2583063840613935
 50
269.18016371090835
 51
296.05304509586739
  0
ARC
  8
default
 10
-7.00919452562845
 20
19.873737955169418
 30
0
 40
5.6825425850245921
 50
264.58613744639018
 51
291.45901883134923
  0
ARC
  8
default
 10
-6.4114287207472236
 20
17.350607788002179
 30
0
 40
4.3578417835658021
 50
262.99622839738606
 51
289.86910978234511
  0
ARC
  8
default
 10
-10.726962074852311
 20
7.0916412952687846
 30
0
 40
5.2226399895155726
 50
91.088983713455519
 51
158.56772721111477
  0
ARC
  8
default
 10
-14.879440124877293
 20
18.334501800371115
 30
0
 40
7.2583063840613979
 50
303.94695490413255
 51
330.8198362890916
  0
ARC
  8
default
 10
-13.706564674517489
 20
16.007009496845765
 30
0
 40
5.6825425850245912
 50
308.54098116865072
 51
335.41386255360982
  0
ARC
  8
default
 10
-11.820352755136403
 20
14.227764040721354
 30
0
 40
4.3578417835658048
 50
310.13089021765489
 51
337.00377160261394
  0
ARC
  8
default
 10
-11.505022553655701
 20
5.7440010146199443
 30
0
 40
5.2226399895155735
 50
141.43227278888526
 51
208.91101628654448
  0
ARC
  8
default
 10
-23.31786438729155
 20
3.7187222420476878
 30
0
 40
7.2583063840613926
 50
329.18016371090835
 51
356.05304509586739
  0
ARC
  8
default
 10
-20.715759200145943
 20
3.8667284583236561
 30
0
 40
5.6825425850245921
 50
324.58613744639018
 51
351.45901883134923
  0
ARC
  8
default
 10
-18.231781475883626
 20
3.1228437472808337
 30
0
 40
4.3578417835658039
 50
322.99622839738601
 51
349.86910978234505
  0
ARC
  8
default
 10
-11.505022553655703
 20
-5.7440010146199398
 30
0
 40
5.2226399895155744
 50
151.08898371345549
 51
218.56772721111474
  0
ARC
  8
default
 10
-23.317864387291557
 20
-3.7187222420476802
 30
0
 40
7.2583063840613979
 50
3.9469549041325882
 51
30.819836289091651
  0
ARC
  8
default
 10
-20.715759200145943
 20
-3.8667284583236499
 30
0
 40
5.6825425850245921
 50
8.5409811686507631
 51
35.413862553609825
  0
ARC
  8
default
 10
-18.231781475883626
 20
-3.1228437472808244
 30
0
 40
4.3578417835658021
 50
10.130890217654878
 51
37.003771602613938
  0
ARC
  8
default
 10
-10.726962074852313
 20
-7.0916412952687793
 30
0
 40
5.2226399895155726
 50
201.43227278888523
 51
268.91101628654445
  0
ARC
  8
default
 10
-14.879440124877299
 20
-18.334501800371104
 30
0
 40
7.2583063840613953
 50
29.180163710908339
 51
56.053045095867411
  0
ARC
  8
default
 10
-13.706564674517493
 20
-16.007009496845761
 30
0
 40
5.6825425850245912
 50
24.586137446390204
 51
51.459018831349269
  0
ARC
  8
default
 10
-11.820352755136406
 20
-14.227764040721354
 30
0
 40
4.3578417835658065
 50
22.996228397386073
 51
49.869109782345134
  0
ARC
  8
default
 10
-0.77806047880339246
 20
-12.835642309888726
 30
0
 40
5.2226399895155726
 50
211.08898371345549
 51
278.56772721111474
  0
ARC
  8
default
 10
-8.4384242624142711
 20
-22.053224042418794
 30
0
 40
7.2583063840614033
 50
63.946954904132518
 51
90.819836289091597
  0
ARC
  8
default
 10
-7.0091945256284554
 20
-19.873737955169418
 30
0
 40
5.6825425850245921
 50
68.540981168650731
 51
95.413862553609775
  0
ARC
  8
default
 10
-6.4114287207472254
 20
-17.350607788002179
 30
0
 40
4.3578417835658021
 50
70.130890217654894
 51
97.003771602613966
  0
ARC
  8
default
 10
0.77806047880338824
 20
-12.835642309888726
 30
0
 40
5.2226399895155726
 50
261.43227278888526
 51
328.91101628654451
  0
ARC
  8
default
 10
8.4384242624142516
 20
-22.05322404241879
 30
0
 40
7.2583063840613917
 50
89.180163710908317
 51
116.05304509586739
  0
ARC
  8
default
 10
7.0091945256284447
 20
-19.873737955169418
 30
0
 40
5.6825425850245912
 50
84.586137446390154
 51
111.45901883134921
  0
ARC
  8
default
 10
6.4114287207472218
 20
-17.350607788002179
 30
0
 40
4.3578417835658021
 50
82.996228397386034
 51
109.86910978234511
  0
ARC
  8
default
 10
10.726962074852306
 20
-7.0916412952687873
 30
0
 40
5.2226399895155735
 50
271.08898371345549
 51
338.56772721111474
  0
ARC
  8
default
 10
14.879440124877283
 20
-18.334501800371108
 30
0
 40
7.2583063840613882
 50
123.9469549041326
 51
150.81983628909165
  0
ARC
  8
default
 10
13.706564674517484
 20
-16.007009496845772
 30
0
 40
5.6825425850245939
 50
128.54098116865072
 51
155.41386255360976
  0
ARC
  8
default
 10
11.820352755136398
 20
-14.227764040721357
 30
0
 40
4.3578417835658048
 50
130.13089021765489
 51
157.00377160261397
  0
ARC
  8
default
 10
11.505022553655701
 20
-5.7440010146199478
 30
0
 40
5.2226399895155726
 50
321.4322727888852
 51
28.911016286544463
  0
ARC
  8
default
 10
23.31786438729155
 20
-3.718722242047694
 30
0
 40
7.2583063840613926
 50
149.18016371090832
 51
176.05304509586739
  0
ARC
  8
default
 10
20.715759200145939
 20
-3.866728458323665
 30
0
 40
5.6825425850245912
 50
144.58613744639015
 51
171.4590188313492
  0
ARC
  8
default
 10
18.231781475883622
 20
-3.122843747280839
 30
0
 40
4.3578417835658039
 50
142.99622839738598
 51
169.86910978234505
  0
ARC
  8
default
 10
11.505022553655701
 20
5.7440010146199443
 30
0
 40
5.2226399895155735
 50
331.08898371345549
 51
38.567727211114764
  0
ARC
  8
default
 10
23.317864387291582
 20
3.7187222420476806
 30
0
 40
7.2583063840614255
 50
183.94695490413253
 51
210.81983628909157
  0
ARC
  8
default
 10
20.715759200145943
 20
3.8667284583236561
 30
0
 40
5.6825425850245921
 50
188.54098116865075
 51
215.41386255360982
  0
ARC
  8
default
 10
18.231781475883626
 20
3.1228437472808337
 30
0
 40
4.3578417835658039
 50
190.13089021765495
 51
217.00377160261399
  0
ARC
  8
default
 10
10.726962074852311
 20
7.0916412952687846
 30
0
 40
5.2226399895155726
 50
21.432272788885232
 51
88.911016286544509
  0
ARC
  8
default
 10
14.879440124877293
 20
18.334501800371115
 30
0
 40
7.2583063840613979
 50
209.18016371090837
 51
236.05304509586745
  0
ARC
  8
default
 10
13.706564674517489
 20
16.007009496845765
 30
0
 40
5.6825425850245912
 50
204.58613744639018
 51
231.45901883134925
  0
ARC
  8
default
 10
11.820352755136403
 20
14.227764040721354
 30
0
 40
4.3578417835658048
 50
202.99622839738603
 51
229.86910978234511
  0
ENDSEC
  0
EOF
