  0
SECTION
  2
HEADER
  9
$INSBASE
 10
0.0000
 20
0.0000
  9
$EXTMIN
 10
-57.818376618407356
 20
-57.818376618407356
  9
$EXTMAX
 10
57.818376618407356
 20
57.818376618407356
  9
$LIMMIN
 10
-57.818376618407356
 20
-57.818376618407356
  9
$LIMMAX
 10
57.818376618407356
 20
57.818376618407356
  9
$TEXTSTYLE
  7
STANDARD
  9
$CLAYER
  8
default
  0
ENDSEC
  0
SECTION
  2
TABLES
  0
TABLE
  2
LTYPE
 70
4948253
  0
LTYPE
  2
CONTINUOUS
 70
    64
  3
Solid line
 72
    65
 73
     0
 40
0.0
  0
ENDTAB
  0
TABLE
  2
LAYER
 70
     5
  0
LAYER
  2
default
 70
    64
 62
     7
  6
CONTINUOUS
  0
ENDTAB
  0
TABLE
  2
STYLE
 70
     1
  0
STYLE
  2
STANDARD
 70
     0
 40
0.0
 41
1.0
 50
0.0
 71
     0
 42
0.2
  3
txt
  4

  0
ENDTAB
  0
TABLE
  2
VIEW
 70
     0
  0
ENDTAB
  0
ENDSEC
  0
SECTION
  2
BLOCKS
  0
ENDSEC
  0
SECTION
  2
ENTITIES
  0
LINE
  8
default
 10
-54
 20
-54
 30
0.0
 11
-54
 21
54
 31
0.0
  0
LINE
  8
default
 10
-54
 20
54
 30
0.0
 11
54
 21
54
 31
0.0
  0
LINE
  8
default
 10
54
 20
54
 30
0.0
 11
54
 21
-54
 31
0.0
  0
LINE
  8
default
 10
54
 20
-54
 30
0.0
 11
-54
 21
-54
 31
0.0
  0
LINE
  8
default
 10
7.1541485021234372
 20
13.88970669667075
 30
0.0
 11
6.7553372982205735
 21
12.700587422783105
 31
0.0
  0
LINE
  8
default
 10
5.3615929212351539
 20
14.094596248335895
 30
0.0
 11
2.8385178102576281
 21
14.094596248335895
 31
0.0
  0
LINE
  8
default
 10
2.8385178102576281
 20
14.094596248335895
 30
0.0
 11
0
 21
14.094596248335895
 31
0.0
  0
LINE
  8
default
 10
5.3615929212351539
 20
12.86538314706806
 30
0.0
 11
2.8385178102576281
 21
12.86538314706806
 31
0.0
  0
LINE
  8
default
 10
2.8385178102576281
 20
12.86538314706806
 30
0.0
 11
0
 21
12.86538314706806
 31
0.0
  0
LINE
  8
default
 10
2.8385178102576281
 20
12.86538314706806
 30
0.0
 11
2.8385178102576281
 21
14.094596248335895
 31
0.0
  0
LINE
  8
default
 10
-7.1541485021234372
 20
13.88970669667075
 30
0.0
 11
-6.7553372982205735
 21
12.700587422783105
 31
0.0
  0
LINE
  8
default
 10
-5.3615929212351539
 20
14.094596248335895
 30
0.0
 11
-2.8385178102576281
 21
14.094596248335895
 31
0.0
  0
LINE
  8
default
 10
-2.8385178102576281
 20
14.094596248335895
 30
0.0
 11
0
 21
14.094596248335895
 31
0.0
  0
LINE
  8
default
 10
-5.3615929212351539
 20
12.86538314706806
 30
0.0
 11
-2.8385178102576281
 21
12.86538314706806
 31
0.0
  0
LINE
  8
default
 10
-2.8385178102576281
 20
12.86538314706806
 30
0.0
 11
0
 21
12.86538314706806
 31
0.0
  0
LINE
  8
default
 10
-2.8385178102576281
 20
12.86538314706806
 30
0.0
 11
-2.8385178102576281
 21
14.094596248335895
 31
0.0
  0
LINE
  8
default
 10
-8.4517645993699873
 20
13.140527693620662
 30
0.0
 11
-7.6213627020050136
 21
12.200587422783105
 31
0.0
  0
LINE
  8
default
 10
-9.5254819465261509
 20
11.69057379870841
 30
0.0
 11
-10.787019502014914
 21
9.5055266569456318
 31
0.0
  0
LINE
  8
default
 10
-10.787019502014914
 20
9.5055266569456318
 30
0.0
 11
-12.206278407143728
 21
7.0472981241679493
 31
0.0
  0
LINE
  8
default
 10
-8.4609521741635518
 20
11.075967248074495
 30
0.0
 11
-9.7224897296523149
 21
8.8909201063117145
 31
0.0
  0
LINE
  8
default
 10
-9.7224897296523149
 20
8.8909201063117145
 30
0.0
 11
-11.141748634781129
 21
6.432691573534032
 31
0.0
  0
LINE
  8
default
 10
-9.7224897296523149
 20
8.8909201063117145
 30
0.0
 11
-10.787019502014914
 21
9.5055266569456318
 31
0.0
  0
LINE
  8
default
 10
-15.605913101493428
 20
0.74917900305009066
 30
0.0
 11
-14.376700000225588
 21
0.50000000000000355
 31
0.0
  0
LINE
  8
default
 10
-14.887074867761305
 20
2.4040224496274876
 30
0.0
 11
-13.625537312272542
 21
4.5890695913902668
 31
0.0
  0
LINE
  8
default
 10
-13.625537312272542
 20
4.5890695913902668
 30
0.0
 11
-12.206278407143728
 21
7.0472981241679493
 31
0.0
  0
LINE
  8
default
 10
-13.822545095398706
 20
1.7894158989935702
 30
0.0
 11
-12.561007539909943
 21
3.974463040756349
 31
0.0
  0
LINE
  8
default
 10
-12.561007539909943
 20
3.974463040756349
 30
0.0
 11
-11.141748634781129
 21
6.432691573534032
 31
0.0
  0
LINE
  8
default
 10
-12.561007539909943
 20
3.974463040756349
 30
0.0
 11
-13.625537312272542
 21
4.5890695913902668
 31
0.0
  0
LINE
  8
default
 10
-15.605913101493424
 20
-0.74917900305008533
 30
0.0
 11
-14.376700000225588
 21
-0.49999999999999822
 31
0.0
  0
LINE
  8
default
 10
-14.887074867761303
 20
-2.4040224496274814
 30
0.0
 11
-13.625537312272542
 21
-4.5890695913902615
 31
0.0
  0
LINE
  8
default
 10
-13.625537312272542
 20
-4.5890695913902615
 30
0.0
 11
-12.206278407143728
 21
-7.047298124167944
 31
0.0
  0
LINE
  8
default
 10
-13.822545095398706
 20
-1.7894158989935649
 30
0.0
 11
-12.561007539909944
 21
-3.9744630407563446
 31
0.0
  0
LINE
  8
default
 10
-12.561007539909944
 20
-3.9744630407563446
 30
0.0
 11
-11.141748634781131
 21
-6.4326915735340275
 31
0.0
  0
LINE
  8
default
 10
-12.561007539909944
 20
-3.9744630407563446
 30
0.0
 11
-13.625537312272542
 21
-4.5890695913902615
 31
0.0
  0
LINE
  8
default
 10
-8.4517645993699908
 20
-13.140527693620658
 30
0.0
 11
-7.6213627020050172
 21
-12.200587422783101
 31
0.0
  0
LINE
  8
default
 10
-9.5254819465261527
 20
-11.690573798708407
 30
0.0
 11
-10.787019502014914
 21
-9.5055266569456265
 31
0.0
  0
LINE
  8
default
 10
-10.787019502014914
 20
-9.5055266569456265
 30
0.0
 11
-12.206278407143728
 21
-7.047298124167944
 31
0.0
  0
LINE
  8
default
 10
-8.4609521741635554
 20
-11.075967248074491
 30
0.0
 11
-9.7224897296523167
 21
-8.8909201063117109
 31
0.0
  0
LINE
  8
default
 10
-9.7224897296523167
 20
-8.8909201063117109
 30
0.0
 11
-11.141748634781131
 21
-6.4326915735340275
 31
0.0
  0
LINE
  8
default
 10
-9.7224897296523167
 20
-8.8909201063117109
 30
0.0
 11
-10.787019502014914
 21
-9.5055266569456265
 31
0.0
  0
LINE
  8
default
 10
-7.154148502123439
 20
-13.88970669667075
 30
0.0
 11
-6.7553372982205753
 21
-12.700587422783105
 31
0.0
  0
LINE
  8
default
 10
-5.3615929212351556
 20
-14.094596248335895
 30
0.0
 11
-2.8385178102576298
 21
-14.094596248335895
 31
0.0
  0
LINE
  8
default
 10
-2.8385178102576298
 20
-14.094596248335895
 30
0.0
 11
-1.7260902180798847e-015
 21
-14.094596248335895
 31
0.0
  0
LINE
  8
default
 10
-5.3615929212351556
 20
-12.86538314706806
 30
0.0
 11
-2.8385178102576298
 21
-12.86538314706806
 31
0.0
  0
LINE
  8
default
 10
-2.8385178102576298
 20
-12.86538314706806
 30
0.0
 11
-1.5755550290861202e-015
 21
-12.86538314706806
 31
0.0
  0
LINE
  8
default
 10
-2.8385178102576298
 20
-12.86538314706806
 30
0.0
 11
-2.8385178102576298
 21
-14.094596248335895
 31
0.0
  0
LINE
  8
default
 10
7.1541485021234354
 20
-13.88970669667075
 30
0.0
 11
6.7553372982205717
 21
-12.700587422783105
 31
0.0
  0
LINE
  8
default
 10
5.3615929212351521
 20
-14.094596248335895
 30
0.0
 11
2.8385178102576263
 21
-14.094596248335895
 31
0.0
  0
LINE
  8
default
 10
2.8385178102576263
 20
-14.094596248335895
 30
0.0
 11
-1.7260902180798847e-015
 21
-14.094596248335895
 31
0.0
  0
LINE
  8
default
 10
5.3615929212351521
 20
-12.86538314706806
 30
0.0
 11
2.8385178102576263
 21
-12.86538314706806
 31
0.0
  0
LINE
  8
default
 10
2.8385178102576263
 20
-12.86538314706806
 30
0.0
 11
-1.5755550290861202e-015
 21
-12.86538314706806
 31
0.0
  0
LINE
  8
default
 10
2.8385178102576263
 20
-12.86538314706806
 30
0.0
 11
2.8385178102576263
 21
-14.094596248335895
 31
0.0
  0
LINE
  8
default
 10
8.4517645993699819
 20
-13.140527693620665
 30
0.0
 11
7.6213627020050074
 21
-12.200587422783107
 31
0.0
  0
LINE
  8
default
 10
9.5254819465261455
 20
-11.690573798708414
 30
0.0
 11
10.787019502014909
 21
-9.5055266569456354
 31
0.0
  0
LINE
  8
default
 10
10.787019502014909
 20
-9.5055266569456354
 30
0.0
 11
12.206278407143724
 21
-7.0472981241679538
 31
0.0
  0
LINE
  8
default
 10
8.4609521741635465
 20
-11.075967248074496
 30
0.0
 11
9.7224897296523096
 21
-8.890920106311718
 31
0.0
  0
LINE
  8
default
 10
9.7224897296523096
 20
-8.890920106311718
 30
0.0
 11
11.141748634781125
 21
-6.4326915735340355
 31
0.0
  0
LINE
  8
default
 10
9.7224897296523096
 20
-8.890920106311718
 30
0.0
 11
10.787019502014909
 21
-9.5055266569456354
 31
0.0
  0
LINE
  8
default
 10
15.605913101493426
 20
-0.74917900305009688
 30
0.0
 11
14.376700000225586
 21
-0.50000000000000888
 31
0.0
  0
LINE
  8
default
 10
14.887074867761303
 20
-2.4040224496274929
 30
0.0
 11
13.62553731227254
 21
-4.5890695913902722
 31
0.0
  0
LINE
  8
default
 10
13.62553731227254
 20
-4.5890695913902722
 30
0.0
 11
12.206278407143724
 21
-7.0472981241679538
 31
0.0
  0
LINE
  8
default
 10
13.822545095398704
 20
-1.7894158989935747
 30
0.0
 11
12.561007539909941
 21
-3.9744630407563535
 31
0.0
  0
LINE
  8
default
 10
12.561007539909941
 20
-3.9744630407563535
 30
0.0
 11
11.141748634781125
 21
-6.4326915735340355
 31
0.0
  0
LINE
  8
default
 10
12.561007539909941
 20
-3.9744630407563535
 30
0.0
 11
13.62553731227254
 21
-4.5890695913902722
 31
0.0
  0
LINE
  8
default
 10
15.605913101493428
 20
0.74917900305009066
 30
0.0
 11
14.376700000225588
 21
0.50000000000000355
 31
0.0
  0
LINE
  8
default
 10
14.887074867761305
 20
2.4040224496274876
 30
0.0
 11
13.625537312272542
 21
4.5890695913902668
 31
0.0
  0
LINE
  8
default
 10
13.625537312272542
 20
4.5890695913902668
 30
0.0
 11
12.206278407143728
 21
7.0472981241679493
 31
0.0
  0
LINE
  8
default
 10
13.822545095398706
 20
1.7894158989935702
 30
0.0
 11
12.561007539909943
 21
3.974463040756349
 31
0.0
  0
LINE
  8
default
 10
12.561007539909943
 20
3.974463040756349
 30
0.0
 11
11.141748634781129
 21
6.432691573534032
 31
0.0
  0
LINE
  8
default
 10
12.561007539909943
 20
3.974463040756349
 30
0.0
 11
13.625537312272542
 21
4.5890695913902668
 31
0.0
  0
LINE
  8
default
 10
8.4517645993699873
 20
13.140527693620662
 30
0.0
 11
7.6213627020050136
 21
12.200587422783105
 31
0.0
  0
LINE
  8
default
 10
9.5254819465261509
 20
11.69057379870841
 30
0.0
 11
10.787019502014914
 21
9.5055266569456318
 31
0.0
  0
LINE
  8
default
 10
10.787019502014914
 20
9.5055266569456318
 30
0.0
 11
12.206278407143728
 21
7.0472981241679493
 31
0.0
  0
LINE
  8
default
 10
8.4609521741635518
 20
11.075967248074495
 30
0.0
 11
9.7224897296523149
 21
8.8909201063117145
 31
0.0
  0
LINE
  8
default
 10
9.7224897296523149
 20
8.8909201063117145
 30
0.0
 11
11.141748634781129
 21
6.432691573534032
 31
0.0
  0
LINE
  8
default
 10
9.7224897296523149
 20
8.8909201063117145
 30
0.0
 11
10.787019502014914
 21
9.5055266569456318
 31
0.0
  0
ARC
  8
default
 10
0
 20
0
 30
0
 40
12.35
 50
0
 51
59.999999999999993
  0
ARC
  8
default
 10
8.8817841970012523e-016
 20
0
 30
0
 40
12.349999999999998
 50
59.999999999999993
 51
119.99999999999999
  0
ARC
  8
default
 10
-8.8817841970012523e-016
 20
1.7763568394002505e-015
 30
0
 40
12.349999999999998
 50
119.99999999999999
 51
180
  0
ARC
  8
default
 10
0
 20
0
 30
0
 40
12.35
 50
180
 51
240
  0
ARC
  8
default
 10
-8.8817841970012523e-016
 20
0
 30
0
 40
12.349999999999998
 50
240
 51
300
  0
ARC
  8
default
 10
8.8817841970012523e-016
 20
-1.7763568394002505e-015
 30
0
 40
12.349999999999998
 50
300
 51
8.241113344682798e-015
  0
ARC
  8
default
 10
0.58129952552448572
 20
12.132068807580399
 30
0
 40
5.8966537644112949
 50
29.427854765616409
 51
95.657478659517452
  0
ARC
  8
default
 10
8.3977273936692907
 20
20.241718549263119
 30
0
 40
5.8613421656041833
 50
242.7848078221428
 51
269.07355588744991
  0
ARC
  8
default
 10
6.6965615605527926
 20
17.830208235485543
 30
0
 40
3.9669809914464835
 50
250.33500209965675
 51
276.62375016496389
  0
ARC
  8
default
 10
6.411310706732448
 20
15.767143817575684
 30
0
 40
3.0857936447685863
 50
250.11230700288559
 51
276.4010550681927
  0
ARC
  8
default
 10
-0.58129952552448616
 20
12.132068807580399
 30
0
 40
5.8966537644112949
 50
84.342521340482548
 51
150.57214523438358
  0
ARC
  8
default
 10
-8.3977273936692907
 20
20.241718549263119
 30
0
 40
5.8613421656041833
 50
270.92644411255009
 51
297.2151921778572
  0
ARC
  8
default
 10
-6.6965615605527926
 20
17.830208235485543
 30
0
 40
3.9669809914464835
 50
263.37624983503611
 51
289.66499790034322
  0
ARC
  8
default
 10
-6.411310706732448
 20
15.767143817575684
 30
0
 40
3.0857936447685863
 50
263.5989449318073
 51
289.88769299711441
  0
ARC
  8
default
 10
-10.216030025063166
 20
6.5694545601022476
 30
0
 40
5.8966537644112957
 50
89.427854765616402
 51
155.65747865951747
  0
ARC
  8
default
 10
-13.330978783081907
 20
17.393504531605654
 30
0
 40
5.8613421656041851
 50
302.7848078221428
 51
329.07355588744986
  0
ARC
  8
default
 10
-12.093132506420591
 20
14.714496547187858
 30
0
 40
3.9669809914464853
 50
310.33500209965666
 51
336.62375016496378
  0
ARC
  8
default
 10
-10.449091737777071
 20
13.43592985237331
 30
0
 40
3.0857936447685863
 50
310.11230700288553
 51
336.40105506819265
  0
ARC
  8
default
 10
-10.797329550587651
 20
5.5626142474781552
 30
0
 40
5.8966537644112949
 50
144.34252134048253
 51
210.57214523438358
  0
ARC
  8
default
 10
-21.728706176751203
 20
2.8482140176574733
 30
0
 40
5.8613421656041824
 50
330.92644411255009
 51
357.2151921778572
  0
ARC
  8
default
 10
-18.789694066973386
 20
3.1157116882976941
 30
0
 40
3.966980991446484
 50
323.37624983503611
 51
349.66499790034317
  0
ARC
  8
default
 10
-16.860402444509521
 20
2.3312139652023811
 30
0
 40
3.0857936447685868
 50
323.5989449318073
 51
349.88769299711441
  0
ARC
  8
default
 10
-10.797329550587651
 20
-5.5626142474781508
 30
0
 40
5.8966537644112957
 50
149.42785476561642
 51
215.65747865951744
  0
ARC
  8
default
 10
-21.728706176751203
 20
-2.8482140176574662
 30
0
 40
5.8613421656041842
 50
2.7848078221427977
 51
29.073555887449903
  0
ARC
  8
default
 10
-18.789694066973382
 20
-3.1157116882976843
 30
0
 40
3.9669809914464809
 50
10.335002099656768
 51
36.623750164963873
  0
ARC
  8
default
 10
-16.860402444509521
 20
-2.3312139652023758
 30
0
 40
3.0857936447685868
 50
10.112307002885586
 51
36.40105506819269
  0
ARC
  8
default
 10
-10.216030025063167
 20
-6.569454560102244
 30
0
 40
5.8966537644112931
 50
204.34252134048253
 51
270.57214523438358
  0
ARC
  8
default
 10
-13.330978783081916
 20
-17.393504531605643
 30
0
 40
5.8613421656041851
 50
30.926444112550037
 51
57.215192177857155
  0
ARC
  8
default
 10
-12.093132506420595
 20
-14.714496547187851
 30
0
 40
3.9669809914464831
 50
23.376249835036148
 51
49.664997900343252
  0
ARC
  8
default
 10
-10.449091737777074
 20
-13.435929852373306
 30
0
 40
3.0857936447685863
 50
23.598944931807367
 51
49.887692997114478
  0
ARC
  8
default
 10
-0.58129952552448749
 20
-12.132068807580399
 30
0
 40
5.8966537644112949
 50
209.42785476561642
 51
275.65747865951744
  0
ARC
  8
default
 10
-8.3977273936693013
 20
-20.241718549263126
 30
0
 40
5.8613421656041922
 50
62.78480782214276
 51
89.073555887449857
  0
ARC
  8
default
 10
-6.6965615605527944
 20
-17.830208235485543
 30
0
 40
3.9669809914464835
 50
70.335002099656762
 51
96.623750164963866
  0
ARC
  8
default
 10
-6.4113107067324497
 20
-15.767143817575684
 30
0
 40
3.0857936447685863
 50
70.112307002885601
 51
96.40105506819269
  0
ARC
  8
default
 10
0.58129952552448394
 20
-12.132068807580399
 30
0
 40
5.8966537644112949
 50
264.34252134048256
 51
330.57214523438358
  0
ARC
  8
default
 10
8.3977273936692853
 20
-20.241718549263119
 30
0
 40
5.8613421656041824
 50
90.926444112550072
 51
117.21519217785716
  0
ARC
  8
default
 10
6.6965615605527908
 20
-17.830208235485543
 30
0
 40
3.9669809914464835
 50
83.376249835036134
 51
109.66499790034325
  0
ARC
  8
default
 10
6.4113107067324462
 20
-15.767143817575684
 30
0
 40
3.0857936447685863
 50
83.59894493180731
 51
109.88769299711441
  0
ARC
  8
default
 10
10.216030025063162
 20
-6.5694545601022503
 30
0
 40
5.8966537644112949
 50
269.42785476561636
 51
335.65747865951744
  0
ARC
  8
default
 10
13.330978783081902
 20
-17.39350453160565
 30
0
 40
5.861342165604178
 50
122.78480782214282
 51
149.07355588744991
  0
ARC
  8
default
 10
12.093132506420588
 20
-14.714496547187862
 30
0
 40
3.9669809914464853
 50
130.33500209965672
 51
156.62375016496384
  0
ARC
  8
default
 10
10.449091737777065
 20
-13.435929852373313
 30
0
 40
3.0857936447685876
 50
130.11230700288553
 51
156.40105506819262
  0
ARC
  8
default
 10
10.797329550587651
 20
-5.5626142474781597
 30
0
 40
5.8966537644112931
 50
324.34252134048251
 51
30.572145234383569
  0
ARC
  8
default
 10
21.728706176751199
 20
-2.8482140176574839
 30
0
 40
5.8613421656041842
 50
150.92644411255006
 51
177.21519217785718
  0
ARC
  8
default
 10
18.789694066973382
 20
-3.1157116882976998
 30
0
 40
3.9669809914464822
 50
143.37624983503608
 51
169.66499790034317
  0
ARC
  8
default
 10
16.860402444509518
 20
-2.331213965202386
 30
0
 40
3.0857936447685854
 50
143.5989449318073
 51
169.88769299711441
  0
ARC
  8
default
 10
10.797329550587651
 20
5.5626142474781552
 30
0
 40
5.8966537644112949
 50
329.42785476561642
 51
35.657478659517466
  0
ARC
  8
default
 10
21.728706176751231
 20
2.8482140176574666
 30
0
 40
5.8613421656042126
 50
182.78480782214271
 51
209.07355588744983
  0
ARC
  8
default
 10
18.789694066973386
 20
3.1157116882976941
 30
0
 40
3.966980991446484
 50
190.3350020996568
 51
216.62375016496389
  0
ARC
  8
default
 10
16.860402444509521
 20
2.3312139652023811
 30
0
 40
3.0857936447685868
 50
190.11230700288559
 51
216.4010550681927
  0
ARC
  8
default
 10
10.216030025063166
 20
6.5694545601022476
 30
0
 40
5.8966537644112957
 50
24.342521340482552
 51
90.572145234383626
  0
ARC
  8
default
 10
13.330978783081907
 20
17.393504531605654
 30
0
 40
5.8613421656041851
 50
210.92644411255012
 51
237.2151921778572
  0
ARC
  8
default
 10
12.093132506420591
 20
14.714496547187858
 30
0
 40
3.9669809914464853
 50
203.37624983503619
 51
229.66499790034331
  0
ARC
  8
default
 10
10.449091737777071
 20
13.43592985237331
 30
0
 40
3.0857936447685863
 50
203.59894493180738
 51
229.88769299711447
  0
ARC
  8
default
 10
0
 20
0
 30
0
 40
20.5
 50
0
 51
180
  0
ARC
  8
default
 10
0
 20
0
 30
0
 40
20.5
 50
180
 51
0
  0
ARC
  8
default
 10
0
 20
0
 30
0
 40
23.5
 50
0
 51
180
  0
ARC
  8
default
 10
0
 20
0
 30
0
 40
23.5
 50
180
 51
0
  0
ENDSEC
  0
EOF
