G04 EAGLE Gerber RS-274X export*
G75*
%MOMM*%
%FSLAX34Y34*%
%LPD*%
%IN*%
%IPPOS*%
%AMOC8*
5,1,8,0,0,1.08239X$1,22.5*%
G01*
%ADD10C,0.254000*%


D10*
X680000Y-8345D02*
X680000Y8345D01*
X679590Y25031D01*
X678771Y41701D01*
X677544Y58347D01*
X675908Y74957D01*
X673865Y91522D01*
X671416Y108032D01*
X668562Y124477D01*
X665306Y140846D01*
X661649Y157131D01*
X657594Y173322D01*
X653142Y189408D01*
X648297Y205380D01*
X643061Y221228D01*
X637439Y236943D01*
X631432Y252515D01*
X625044Y267935D01*
X618281Y283193D01*
X611145Y298282D01*
X603640Y313190D01*
X595773Y327910D01*
X587546Y342432D01*
X578965Y356748D01*
X570036Y370849D01*
X560763Y384727D01*
X551152Y398373D01*
X541210Y411779D01*
X530941Y424936D01*
X520353Y437838D01*
X509451Y450477D01*
X498242Y462844D01*
X486734Y474932D01*
X474932Y486734D01*
X462844Y498242D01*
X450477Y509451D01*
X437838Y520353D01*
X424936Y530941D01*
X411779Y541210D01*
X398373Y551152D01*
X384727Y560763D01*
X370849Y570036D01*
X356748Y578965D01*
X342432Y587546D01*
X327910Y595773D01*
X313190Y603640D01*
X298282Y611145D01*
X283193Y618281D01*
X267935Y625044D01*
X252515Y631432D01*
X236943Y637439D01*
X221228Y643061D01*
X205380Y648297D01*
X189408Y653142D01*
X173322Y657594D01*
X157131Y661649D01*
X140846Y665306D01*
X124477Y668562D01*
X108032Y671416D01*
X91522Y673865D01*
X74957Y675908D01*
X58347Y677544D01*
X41701Y678771D01*
X25031Y679590D01*
X8345Y680000D01*
X-8345Y680000D01*
X-25031Y679590D01*
X-41701Y678771D01*
X-58347Y677544D01*
X-74957Y675908D01*
X-91522Y673865D01*
X-108032Y671416D01*
X-124477Y668562D01*
X-140846Y665306D01*
X-157131Y661649D01*
X-173322Y657594D01*
X-189408Y653142D01*
X-205380Y648297D01*
X-221228Y643061D01*
X-236943Y637439D01*
X-252515Y631432D01*
X-267935Y625044D01*
X-283193Y618281D01*
X-298282Y611145D01*
X-313190Y603640D01*
X-327910Y595773D01*
X-342432Y587546D01*
X-356748Y578965D01*
X-370849Y570036D01*
X-384727Y560763D01*
X-398373Y551152D01*
X-411779Y541210D01*
X-424936Y530941D01*
X-437838Y520353D01*
X-450477Y509451D01*
X-462844Y498242D01*
X-474932Y486734D01*
X-486734Y474932D01*
X-498242Y462844D01*
X-509451Y450477D01*
X-520353Y437838D01*
X-530941Y424936D01*
X-541210Y411779D01*
X-551152Y398373D01*
X-560763Y384727D01*
X-570036Y370849D01*
X-578965Y356748D01*
X-587546Y342432D01*
X-595773Y327910D01*
X-603640Y313190D01*
X-611145Y298282D01*
X-618281Y283193D01*
X-625044Y267935D01*
X-631432Y252515D01*
X-637439Y236943D01*
X-643061Y221228D01*
X-648297Y205380D01*
X-653142Y189408D01*
X-657594Y173322D01*
X-661649Y157131D01*
X-665306Y140846D01*
X-668562Y124477D01*
X-671416Y108032D01*
X-673865Y91522D01*
X-675908Y74957D01*
X-677544Y58347D01*
X-678771Y41701D01*
X-679590Y25031D01*
X-680000Y8345D01*
X-680000Y-8345D01*
X-679590Y-25031D01*
X-678771Y-41701D01*
X-677544Y-58347D01*
X-675908Y-74957D01*
X-673865Y-91522D01*
X-671416Y-108032D01*
X-668562Y-124477D01*
X-665306Y-140846D01*
X-661649Y-157131D01*
X-657594Y-173322D01*
X-653142Y-189408D01*
X-648297Y-205380D01*
X-643061Y-221228D01*
X-637439Y-236943D01*
X-631432Y-252515D01*
X-625044Y-267935D01*
X-618281Y-283193D01*
X-611145Y-298282D01*
X-603640Y-313190D01*
X-595773Y-327910D01*
X-587546Y-342432D01*
X-578965Y-356748D01*
X-570036Y-370849D01*
X-560763Y-384727D01*
X-551152Y-398373D01*
X-541210Y-411779D01*
X-530941Y-424936D01*
X-520353Y-437838D01*
X-509451Y-450477D01*
X-498242Y-462844D01*
X-486734Y-474932D01*
X-474932Y-486734D01*
X-462844Y-498242D01*
X-450477Y-509451D01*
X-437838Y-520353D01*
X-424936Y-530941D01*
X-411779Y-541210D01*
X-398373Y-551152D01*
X-384727Y-560763D01*
X-370849Y-570036D01*
X-356748Y-578965D01*
X-342432Y-587546D01*
X-327910Y-595773D01*
X-313190Y-603640D01*
X-298282Y-611145D01*
X-283193Y-618281D01*
X-267935Y-625044D01*
X-252515Y-631432D01*
X-236943Y-637439D01*
X-221228Y-643061D01*
X-205380Y-648297D01*
X-189408Y-653142D01*
X-173322Y-657594D01*
X-157131Y-661649D01*
X-140846Y-665306D01*
X-124477Y-668562D01*
X-108032Y-671416D01*
X-91522Y-673865D01*
X-74957Y-675908D01*
X-58347Y-677544D01*
X-41701Y-678771D01*
X-25031Y-679590D01*
X-8345Y-680000D01*
X8345Y-680000D01*
X25031Y-679590D01*
X41701Y-678771D01*
X58347Y-677544D01*
X74957Y-675908D01*
X91522Y-673865D01*
X108032Y-671416D01*
X124477Y-668562D01*
X140846Y-665306D01*
X157131Y-661649D01*
X173322Y-657594D01*
X189408Y-653142D01*
X205380Y-648297D01*
X221228Y-643061D01*
X236943Y-637439D01*
X252515Y-631432D01*
X267935Y-625044D01*
X283193Y-618281D01*
X298282Y-611145D01*
X313190Y-603640D01*
X327910Y-595773D01*
X342432Y-587546D01*
X356748Y-578965D01*
X370849Y-570036D01*
X384727Y-560763D01*
X398373Y-551152D01*
X411779Y-541210D01*
X424936Y-530941D01*
X437838Y-520353D01*
X450477Y-509451D01*
X462844Y-498242D01*
X474932Y-486734D01*
X486734Y-474932D01*
X498242Y-462844D01*
X509451Y-450477D01*
X520353Y-437838D01*
X530941Y-424936D01*
X541210Y-411779D01*
X551152Y-398373D01*
X560763Y-384727D01*
X570036Y-370849D01*
X578965Y-356748D01*
X587546Y-342432D01*
X595773Y-327910D01*
X603640Y-313190D01*
X611145Y-298282D01*
X618281Y-283193D01*
X625044Y-267935D01*
X631432Y-252515D01*
X637439Y-236943D01*
X643061Y-221228D01*
X648297Y-205380D01*
X653142Y-189408D01*
X657594Y-173322D01*
X661649Y-157131D01*
X665306Y-140846D01*
X668562Y-124477D01*
X671416Y-108032D01*
X673865Y-91522D01*
X675908Y-74957D01*
X677544Y-58347D01*
X678771Y-41701D01*
X679590Y-25031D01*
X680000Y-8345D01*
X625000Y-930D02*
X625000Y930D01*
X624923Y2789D01*
X624770Y4643D01*
X624539Y6489D01*
X624233Y8324D01*
X623851Y10145D01*
X623395Y11949D01*
X622864Y13732D01*
X622260Y15491D01*
X621583Y17224D01*
X620836Y18928D01*
X620019Y20600D01*
X619134Y22236D01*
X618181Y23834D01*
X617164Y25391D01*
X616083Y26906D01*
X614940Y28374D01*
X613738Y29793D01*
X612478Y31162D01*
X611162Y32478D01*
X609793Y33738D01*
X608374Y34940D01*
X606906Y36083D01*
X605391Y37164D01*
X603834Y38181D01*
X602236Y39134D01*
X600600Y40019D01*
X598928Y40836D01*
X597224Y41583D01*
X595491Y42260D01*
X593732Y42864D01*
X591949Y43395D01*
X590145Y43851D01*
X588324Y44233D01*
X586489Y44539D01*
X584643Y44770D01*
X582789Y44923D01*
X580930Y45000D01*
X579070Y45000D01*
X577211Y44923D01*
X575357Y44770D01*
X573511Y44539D01*
X571676Y44233D01*
X569855Y43851D01*
X568051Y43395D01*
X566268Y42864D01*
X564509Y42260D01*
X562776Y41583D01*
X561072Y40836D01*
X559400Y40019D01*
X557764Y39134D01*
X556166Y38181D01*
X554609Y37164D01*
X553095Y36083D01*
X551626Y34940D01*
X550207Y33738D01*
X548838Y32478D01*
X547522Y31162D01*
X546262Y29793D01*
X545060Y28374D01*
X543917Y26906D01*
X542836Y25391D01*
X541819Y23834D01*
X540866Y22236D01*
X539981Y20600D01*
X539164Y18928D01*
X538417Y17224D01*
X537740Y15491D01*
X537136Y13732D01*
X536605Y11949D01*
X536149Y10145D01*
X535767Y8324D01*
X535461Y6489D01*
X535231Y4643D01*
X535077Y2789D01*
X535000Y930D01*
X535000Y-930D01*
X535077Y-2789D01*
X535231Y-4643D01*
X535461Y-6489D01*
X535767Y-8324D01*
X536149Y-10145D01*
X536605Y-11949D01*
X537136Y-13732D01*
X537740Y-15491D01*
X538417Y-17224D01*
X539164Y-18928D01*
X539981Y-20600D01*
X540866Y-22236D01*
X541819Y-23834D01*
X542836Y-25391D01*
X543917Y-26906D01*
X545060Y-28374D01*
X546262Y-29793D01*
X547522Y-31162D01*
X548838Y-32478D01*
X550207Y-33738D01*
X551626Y-34940D01*
X553095Y-36083D01*
X554609Y-37164D01*
X556166Y-38181D01*
X557764Y-39134D01*
X559400Y-40019D01*
X561072Y-40836D01*
X562776Y-41583D01*
X564509Y-42260D01*
X566268Y-42864D01*
X568051Y-43395D01*
X569855Y-43851D01*
X571676Y-44233D01*
X573511Y-44539D01*
X575357Y-44770D01*
X577211Y-44923D01*
X579070Y-45000D01*
X580930Y-45000D01*
X582789Y-44923D01*
X584643Y-44770D01*
X586489Y-44539D01*
X588324Y-44233D01*
X590145Y-43851D01*
X591949Y-43395D01*
X593732Y-42864D01*
X595491Y-42260D01*
X597224Y-41583D01*
X598928Y-40836D01*
X600600Y-40019D01*
X602236Y-39134D01*
X603834Y-38181D01*
X605391Y-37164D01*
X606906Y-36083D01*
X608374Y-34940D01*
X609793Y-33738D01*
X611162Y-32478D01*
X612478Y-31162D01*
X613738Y-29793D01*
X614940Y-28374D01*
X616083Y-26906D01*
X617164Y-25391D01*
X618181Y-23834D01*
X619134Y-22236D01*
X620019Y-20600D01*
X620836Y-18928D01*
X621583Y-17224D01*
X622260Y-15491D01*
X622864Y-13732D01*
X623395Y-11949D01*
X623851Y-10145D01*
X624233Y-8324D01*
X624539Y-6489D01*
X624770Y-4643D01*
X624923Y-2789D01*
X625000Y-930D01*
X45000Y579070D02*
X45000Y580930D01*
X44923Y582789D01*
X44770Y584643D01*
X44539Y586489D01*
X44233Y588324D01*
X43851Y590145D01*
X43395Y591949D01*
X42864Y593732D01*
X42260Y595491D01*
X41583Y597224D01*
X40836Y598928D01*
X40019Y600600D01*
X39134Y602236D01*
X38181Y603834D01*
X37164Y605391D01*
X36083Y606906D01*
X34940Y608374D01*
X33738Y609793D01*
X32478Y611162D01*
X31162Y612478D01*
X29793Y613738D01*
X28374Y614940D01*
X26906Y616083D01*
X25391Y617164D01*
X23834Y618181D01*
X22236Y619134D01*
X20600Y620019D01*
X18928Y620836D01*
X17224Y621583D01*
X15491Y622260D01*
X13732Y622864D01*
X11949Y623395D01*
X10145Y623851D01*
X8324Y624233D01*
X6489Y624539D01*
X4643Y624770D01*
X2789Y624923D01*
X930Y625000D01*
X-930Y625000D01*
X-2789Y624923D01*
X-4643Y624770D01*
X-6489Y624539D01*
X-8324Y624233D01*
X-10145Y623851D01*
X-11949Y623395D01*
X-13732Y622864D01*
X-15491Y622260D01*
X-17224Y621583D01*
X-18928Y620836D01*
X-20600Y620019D01*
X-22236Y619134D01*
X-23834Y618181D01*
X-25391Y617164D01*
X-26906Y616083D01*
X-28374Y614940D01*
X-29793Y613738D01*
X-31162Y612478D01*
X-32478Y611162D01*
X-33738Y609793D01*
X-34940Y608374D01*
X-36083Y606906D01*
X-37164Y605391D01*
X-38181Y603834D01*
X-39134Y602236D01*
X-40019Y600600D01*
X-40836Y598928D01*
X-41583Y597224D01*
X-42260Y595491D01*
X-42864Y593732D01*
X-43395Y591949D01*
X-43851Y590145D01*
X-44233Y588324D01*
X-44539Y586489D01*
X-44770Y584643D01*
X-44923Y582789D01*
X-45000Y580930D01*
X-45000Y579070D01*
X-44923Y577211D01*
X-44770Y575357D01*
X-44539Y573511D01*
X-44233Y571676D01*
X-43851Y569855D01*
X-43395Y568051D01*
X-42864Y566268D01*
X-42260Y564509D01*
X-41583Y562776D01*
X-40836Y561072D01*
X-40019Y559400D01*
X-39134Y557764D01*
X-38181Y556166D01*
X-37164Y554609D01*
X-36083Y553095D01*
X-34940Y551626D01*
X-33738Y550207D01*
X-32478Y548838D01*
X-31162Y547522D01*
X-29793Y546262D01*
X-28374Y545060D01*
X-26906Y543917D01*
X-25391Y542836D01*
X-23834Y541819D01*
X-22236Y540866D01*
X-20600Y539981D01*
X-18928Y539164D01*
X-17224Y538417D01*
X-15491Y537740D01*
X-13732Y537136D01*
X-11949Y536605D01*
X-10145Y536149D01*
X-8324Y535767D01*
X-6489Y535461D01*
X-4643Y535231D01*
X-2789Y535077D01*
X-930Y535000D01*
X930Y535000D01*
X2789Y535077D01*
X4643Y535231D01*
X6489Y535461D01*
X8324Y535767D01*
X10145Y536149D01*
X11949Y536605D01*
X13732Y537136D01*
X15491Y537740D01*
X17224Y538417D01*
X18928Y539164D01*
X20600Y539981D01*
X22236Y540866D01*
X23834Y541819D01*
X25391Y542836D01*
X26906Y543917D01*
X28374Y545060D01*
X29793Y546262D01*
X31162Y547522D01*
X32478Y548838D01*
X33738Y550207D01*
X34940Y551626D01*
X36083Y553095D01*
X37164Y554609D01*
X38181Y556166D01*
X39134Y557764D01*
X40019Y559400D01*
X40836Y561072D01*
X41583Y562776D01*
X42260Y564509D01*
X42864Y566268D01*
X43395Y568051D01*
X43851Y569855D01*
X44233Y571676D01*
X44539Y573511D01*
X44770Y575357D01*
X44923Y577211D01*
X45000Y579070D01*
X-535000Y-930D02*
X-535000Y930D01*
X-535077Y2789D01*
X-535231Y4643D01*
X-535461Y6489D01*
X-535767Y8324D01*
X-536149Y10145D01*
X-536605Y11949D01*
X-537136Y13732D01*
X-537740Y15491D01*
X-538417Y17224D01*
X-539164Y18928D01*
X-539981Y20600D01*
X-540866Y22236D01*
X-541819Y23834D01*
X-542836Y25391D01*
X-543917Y26906D01*
X-545060Y28374D01*
X-546262Y29793D01*
X-547522Y31162D01*
X-548838Y32478D01*
X-550207Y33738D01*
X-551626Y34940D01*
X-553095Y36083D01*
X-554609Y37164D01*
X-556166Y38181D01*
X-557764Y39134D01*
X-559400Y40019D01*
X-561072Y40836D01*
X-562776Y41583D01*
X-564509Y42260D01*
X-566268Y42864D01*
X-568051Y43395D01*
X-569855Y43851D01*
X-571676Y44233D01*
X-573511Y44539D01*
X-575357Y44770D01*
X-577211Y44923D01*
X-579070Y45000D01*
X-580930Y45000D01*
X-582789Y44923D01*
X-584643Y44770D01*
X-586489Y44539D01*
X-588324Y44233D01*
X-590145Y43851D01*
X-591949Y43395D01*
X-593732Y42864D01*
X-595491Y42260D01*
X-597224Y41583D01*
X-598928Y40836D01*
X-600600Y40019D01*
X-602236Y39134D01*
X-603834Y38181D01*
X-605391Y37164D01*
X-606906Y36083D01*
X-608374Y34940D01*
X-609793Y33738D01*
X-611162Y32478D01*
X-612478Y31162D01*
X-613738Y29793D01*
X-614940Y28374D01*
X-616083Y26906D01*
X-617164Y25391D01*
X-618181Y23834D01*
X-619134Y22236D01*
X-620019Y20600D01*
X-620836Y18928D01*
X-621583Y17224D01*
X-622260Y15491D01*
X-622864Y13732D01*
X-623395Y11949D01*
X-623851Y10145D01*
X-624233Y8324D01*
X-624539Y6489D01*
X-624770Y4643D01*
X-624923Y2789D01*
X-625000Y930D01*
X-625000Y-930D01*
X-624923Y-2789D01*
X-624770Y-4643D01*
X-624539Y-6489D01*
X-624233Y-8324D01*
X-623851Y-10145D01*
X-623395Y-11949D01*
X-622864Y-13732D01*
X-622260Y-15491D01*
X-621583Y-17224D01*
X-620836Y-18928D01*
X-620019Y-20600D01*
X-619134Y-22236D01*
X-618181Y-23834D01*
X-617164Y-25391D01*
X-616083Y-26906D01*
X-614940Y-28374D01*
X-613738Y-29793D01*
X-612478Y-31162D01*
X-611162Y-32478D01*
X-609793Y-33738D01*
X-608374Y-34940D01*
X-606906Y-36083D01*
X-605391Y-37164D01*
X-603834Y-38181D01*
X-602236Y-39134D01*
X-600600Y-40019D01*
X-598928Y-40836D01*
X-597224Y-41583D01*
X-595491Y-42260D01*
X-593732Y-42864D01*
X-591949Y-43395D01*
X-590145Y-43851D01*
X-588324Y-44233D01*
X-586489Y-44539D01*
X-584643Y-44770D01*
X-582789Y-44923D01*
X-580930Y-45000D01*
X-579070Y-45000D01*
X-577211Y-44923D01*
X-575357Y-44770D01*
X-573511Y-44539D01*
X-571676Y-44233D01*
X-569855Y-43851D01*
X-568051Y-43395D01*
X-566268Y-42864D01*
X-564509Y-42260D01*
X-562776Y-41583D01*
X-561072Y-40836D01*
X-559400Y-40019D01*
X-557764Y-39134D01*
X-556166Y-38181D01*
X-554609Y-37164D01*
X-553095Y-36083D01*
X-551626Y-34940D01*
X-550207Y-33738D01*
X-548838Y-32478D01*
X-547522Y-31162D01*
X-546262Y-29793D01*
X-545060Y-28374D01*
X-543917Y-26906D01*
X-542836Y-25391D01*
X-541819Y-23834D01*
X-540866Y-22236D01*
X-539981Y-20600D01*
X-539164Y-18928D01*
X-538417Y-17224D01*
X-537740Y-15491D01*
X-537136Y-13732D01*
X-536605Y-11949D01*
X-536149Y-10145D01*
X-535767Y-8324D01*
X-535461Y-6489D01*
X-535231Y-4643D01*
X-535077Y-2789D01*
X-535000Y-930D01*
X45000Y-580930D02*
X45000Y-579070D01*
X44923Y-577211D01*
X44770Y-575357D01*
X44539Y-573511D01*
X44233Y-571676D01*
X43851Y-569855D01*
X43395Y-568051D01*
X42864Y-566268D01*
X42260Y-564509D01*
X41583Y-562776D01*
X40836Y-561072D01*
X40019Y-559400D01*
X39134Y-557764D01*
X38181Y-556166D01*
X37164Y-554609D01*
X36083Y-553095D01*
X34940Y-551626D01*
X33738Y-550207D01*
X32478Y-548838D01*
X31162Y-547522D01*
X29793Y-546262D01*
X28374Y-545060D01*
X26906Y-543917D01*
X25391Y-542836D01*
X23834Y-541819D01*
X22236Y-540866D01*
X20600Y-539981D01*
X18928Y-539164D01*
X17224Y-538417D01*
X15491Y-537740D01*
X13732Y-537136D01*
X11949Y-536605D01*
X10145Y-536149D01*
X8324Y-535767D01*
X6489Y-535461D01*
X4643Y-535231D01*
X2789Y-535077D01*
X930Y-535000D01*
X-930Y-535000D01*
X-2789Y-535077D01*
X-4643Y-535231D01*
X-6489Y-535461D01*
X-8324Y-535767D01*
X-10145Y-536149D01*
X-11949Y-536605D01*
X-13732Y-537136D01*
X-15491Y-537740D01*
X-17224Y-538417D01*
X-18928Y-539164D01*
X-20600Y-539981D01*
X-22236Y-540866D01*
X-23834Y-541819D01*
X-25391Y-542836D01*
X-26906Y-543917D01*
X-28374Y-545060D01*
X-29793Y-546262D01*
X-31162Y-547522D01*
X-32478Y-548838D01*
X-33738Y-550207D01*
X-34940Y-551626D01*
X-36083Y-553095D01*
X-37164Y-554609D01*
X-38181Y-556166D01*
X-39134Y-557764D01*
X-40019Y-559400D01*
X-40836Y-561072D01*
X-41583Y-562776D01*
X-42260Y-564509D01*
X-42864Y-566268D01*
X-43395Y-568051D01*
X-43851Y-569855D01*
X-44233Y-571676D01*
X-44539Y-573511D01*
X-44770Y-575357D01*
X-44923Y-577211D01*
X-45000Y-579070D01*
X-45000Y-580930D01*
X-44923Y-582789D01*
X-44770Y-584643D01*
X-44539Y-586489D01*
X-44233Y-588324D01*
X-43851Y-590145D01*
X-43395Y-591949D01*
X-42864Y-593732D01*
X-42260Y-595491D01*
X-41583Y-597224D01*
X-40836Y-598928D01*
X-40019Y-600600D01*
X-39134Y-602236D01*
X-38181Y-603834D01*
X-37164Y-605391D01*
X-36083Y-606906D01*
X-34940Y-608374D01*
X-33738Y-609793D01*
X-32478Y-611162D01*
X-31162Y-612478D01*
X-29793Y-613738D01*
X-28374Y-614940D01*
X-26906Y-616083D01*
X-25391Y-617164D01*
X-23834Y-618181D01*
X-22236Y-619134D01*
X-20600Y-620019D01*
X-18928Y-620836D01*
X-17224Y-621583D01*
X-15491Y-622260D01*
X-13732Y-622864D01*
X-11949Y-623395D01*
X-10145Y-623851D01*
X-8324Y-624233D01*
X-6489Y-624539D01*
X-4643Y-624770D01*
X-2789Y-624923D01*
X-930Y-625000D01*
X930Y-625000D01*
X2789Y-624923D01*
X4643Y-624770D01*
X6489Y-624539D01*
X8324Y-624233D01*
X10145Y-623851D01*
X11949Y-623395D01*
X13732Y-622864D01*
X15491Y-622260D01*
X17224Y-621583D01*
X18928Y-620836D01*
X20600Y-620019D01*
X22236Y-619134D01*
X23834Y-618181D01*
X25391Y-617164D01*
X26906Y-616083D01*
X28374Y-614940D01*
X29793Y-613738D01*
X31162Y-612478D01*
X32478Y-611162D01*
X33738Y-609793D01*
X34940Y-608374D01*
X36083Y-606906D01*
X37164Y-605391D01*
X38181Y-603834D01*
X39134Y-602236D01*
X40019Y-600600D01*
X40836Y-598928D01*
X41583Y-597224D01*
X42260Y-595491D01*
X42864Y-593732D01*
X43395Y-591949D01*
X43851Y-590145D01*
X44233Y-588324D01*
X44539Y-586489D01*
X44770Y-584643D01*
X44923Y-582789D01*
X45000Y-580930D01*
M02*
