  0
SECTION
  2
HEADER
  9
$INSBASE
 10
0.0000
 20
0.0000
  9
$EXTMIN
 10
-57.818377
 20
-57.818377
  9
$EXTMAX
 10
57.818377
 20
57.818377
  9
$LIMMIN
 10
-57.818377
 20
-57.818377
  9
$LIMMAX
 10
57.818377
 20
57.818377
  9
$TEXTSTYLE
  7
STANDARD
  9
$CLAYER
  8
default
  0
ENDSEC
  0
SECTION
  2
TABLES
  0
TABLE
  2
LTYPE
 70
4948253
  0
LTYPE
  2
CONTINUOUS
 70
    64
  3
Solid line
 72
    65
 73
     0
 40
0.0
  0
ENDTAB
  0
TABLE
  2
LAYER
 70
     5
  0
LAYER
  2
default
 70
    64
 62
     7
  6
CONTINUOUS
  0
ENDTAB
  0
TABLE
  2
STYLE
 70
     1
  0
STYLE
  2
STANDARD
 70
     0
 40
0.0
 41
1.0
 50
0.0
 71
     0
 42
0.2
  3
txt
  4

  0
ENDTAB
  0
TABLE
  2
VIEW
 70
     0
  0
ENDTAB
  0
ENDSEC
  0
SECTION
  2
BLOCKS
  0
ENDSEC
  0
SECTION
  2
ENTITIES
  0
LINE
  8
default
 10
-54.000000
 20
-54.000000
 30
0.0
 11
-54.000000
 21
54.000000
 31
0.0
  0
LINE
  8
default
 10
-54.000000
 20
54.000000
 30
0.0
 11
54.000000
 21
54.000000
 31
0.0
  0
LINE
  8
default
 10
54.000000
 20
54.000000
 30
0.0
 11
54.000000
 21
-54.000000
 31
0.0
  0
LINE
  8
default
 10
54.000000
 20
-54.000000
 30
0.0
 11
-54.000000
 21
-54.000000
 31
0.0
  0
LINE
  8
default
 10
6.806780
 20
14.492774
 30
0.0
 11
6.413377
 21
12.108295
 31
0.0
  0
LINE
  8
default
 10
4.562099
 20
14.031829
 30
0.0
 11
4.244568
 21
14.031829
 31
0.0
  0
LINE
  8
default
 10
4.244568
 20
14.031829
 30
0.0
 11
0.000000
 21
14.031829
 31
0.0
  0
LINE
  8
default
 10
4.562099
 20
11.770109
 30
0.0
 11
4.244568
 21
11.770109
 31
0.0
  0
LINE
  8
default
 10
4.244568
 20
11.770109
 30
0.0
 11
0.000000
 21
11.770109
 31
0.0
  0
LINE
  8
default
 10
4.244568
 20
11.770109
 30
0.0
 11
4.244568
 21
14.031829
 31
0.0
  0
LINE
  8
default
 10
-6.806780
 20
14.492774
 30
0.0
 11
-6.413377
 21
12.108295
 31
0.0
  0
LINE
  8
default
 10
-4.562099
 20
14.031829
 30
0.0
 11
-4.244568
 21
14.031829
 31
0.0
  0
LINE
  8
default
 10
-4.244568
 20
14.031829
 30
0.0
 11
0.000000
 21
14.031829
 31
0.0
  0
LINE
  8
default
 10
-4.562099
 20
11.770109
 30
0.0
 11
-4.244568
 21
11.770109
 31
0.0
  0
LINE
  8
default
 10
-4.244568
 20
11.770109
 30
0.0
 11
0.000000
 21
11.770109
 31
0.0
  0
LINE
  8
default
 10
-4.244568
 20
11.770109
 30
0.0
 11
-4.244568
 21
14.031829
 31
0.0
  0
LINE
  8
default
 10
-9.147720
 20
13.141231
 30
0.0
 11
-7.279403
 21
11.608295
 31
0.0
  0
LINE
  8
default
 10
-9.870871
 20
10.966808
 30
0.0
 11
-10.029636
 21
10.691818
 31
0.0
  0
LINE
  8
default
 10
-10.029636
 20
10.691818
 30
0.0
 11
-12.151920
 21
7.015914
 31
0.0
  0
LINE
  8
default
 10
-7.912164
 20
9.835948
 30
0.0
 11
-8.070929
 21
9.560958
 31
0.0
  0
LINE
  8
default
 10
-8.070929
 20
9.560958
 30
0.0
 11
-10.193213
 21
5.885054
 31
0.0
  0
LINE
  8
default
 10
-8.070929
 20
9.560958
 30
0.0
 11
-10.029636
 21
10.691818
 31
0.0
  0
LINE
  8
default
 10
-15.954500
 20
1.351543
 30
0.0
 11
-13.692780
 21
0.500000
 31
0.0
  0
LINE
  8
default
 10
-14.432969
 20
3.065021
 30
0.0
 11
-14.274204
 21
3.340011
 31
0.0
  0
LINE
  8
default
 10
-14.274204
 20
3.340011
 30
0.0
 11
-12.151920
 21
7.015914
 31
0.0
  0
LINE
  8
default
 10
-12.474262
 20
1.934161
 30
0.0
 11
-12.315497
 21
2.209151
 31
0.0
  0
LINE
  8
default
 10
-12.315497
 20
2.209151
 30
0.0
 11
-10.193213
 21
5.885054
 31
0.0
  0
LINE
  8
default
 10
-12.315497
 20
2.209151
 30
0.0
 11
-14.274204
 21
3.340011
 31
0.0
  0
LINE
  8
default
 10
-15.954500
 20
-1.351543
 30
0.0
 11
-13.692780
 21
-0.500000
 31
0.0
  0
LINE
  8
default
 10
-14.432969
 20
-3.065021
 30
0.0
 11
-14.274204
 21
-3.340011
 31
0.0
  0
LINE
  8
default
 10
-14.274204
 20
-3.340011
 30
0.0
 11
-12.151920
 21
-7.015914
 31
0.0
  0
LINE
  8
default
 10
-12.474262
 20
-1.934161
 30
0.0
 11
-12.315497
 21
-2.209151
 31
0.0
  0
LINE
  8
default
 10
-12.315497
 20
-2.209151
 30
0.0
 11
-10.193213
 21
-5.885054
 31
0.0
  0
LINE
  8
default
 10
-12.315497
 20
-2.209151
 30
0.0
 11
-14.274204
 21
-3.340011
 31
0.0
  0
LINE
  8
default
 10
-9.147720
 20
-13.141231
 30
0.0
 11
-7.279403
 21
-11.608295
 31
0.0
  0
LINE
  8
default
 10
-9.870871
 20
-10.966808
 30
0.0
 11
-10.029636
 21
-10.691818
 31
0.0
  0
LINE
  8
default
 10
-10.029636
 20
-10.691818
 30
0.0
 11
-12.151920
 21
-7.015914
 31
0.0
  0
LINE
  8
default
 10
-7.912164
 20
-9.835948
 30
0.0
 11
-8.070929
 21
-9.560958
 31
0.0
  0
LINE
  8
default
 10
-8.070929
 20
-9.560958
 30
0.0
 11
-10.193213
 21
-5.885054
 31
0.0
  0
LINE
  8
default
 10
-8.070929
 20
-9.560958
 30
0.0
 11
-10.029636
 21
-10.691818
 31
0.0
  0
LINE
  8
default
 10
-6.806780
 20
-14.492774
 30
0.0
 11
-6.413377
 21
-12.108295
 31
0.0
  0
LINE
  8
default
 10
-4.562099
 20
-14.031829
 30
0.0
 11
-4.244568
 21
-14.031829
 31
0.0
  0
LINE
  8
default
 10
-4.244568
 20
-14.031829
 30
0.0
 11
-0.000000
 21
-14.031829
 31
0.0
  0
LINE
  8
default
 10
-4.562099
 20
-11.770109
 30
0.0
 11
-4.244568
 21
-11.770109
 31
0.0
  0
LINE
  8
default
 10
-4.244568
 20
-11.770109
 30
0.0
 11
-0.000000
 21
-11.770109
 31
0.0
  0
LINE
  8
default
 10
-4.244568
 20
-11.770109
 30
0.0
 11
-4.244568
 21
-14.031829
 31
0.0
  0
LINE
  8
default
 10
6.806780
 20
-14.492774
 30
0.0
 11
6.413377
 21
-12.108295
 31
0.0
  0
LINE
  8
default
 10
4.562099
 20
-14.031829
 30
0.0
 11
4.244568
 21
-14.031829
 31
0.0
  0
LINE
  8
default
 10
4.244568
 20
-14.031829
 30
0.0
 11
-0.000000
 21
-14.031829
 31
0.0
  0
LINE
  8
default
 10
4.562099
 20
-11.770109
 30
0.0
 11
4.244568
 21
-11.770109
 31
0.0
  0
LINE
  8
default
 10
4.244568
 20
-11.770109
 30
0.0
 11
-0.000000
 21
-11.770109
 31
0.0
  0
LINE
  8
default
 10
4.244568
 20
-11.770109
 30
0.0
 11
4.244568
 21
-14.031829
 31
0.0
  0
LINE
  8
default
 10
9.147720
 20
-13.141231
 30
0.0
 11
7.279403
 21
-11.608295
 31
0.0
  0
LINE
  8
default
 10
9.870871
 20
-10.966808
 30
0.0
 11
10.029636
 21
-10.691818
 31
0.0
  0
LINE
  8
default
 10
10.029636
 20
-10.691818
 30
0.0
 11
12.151920
 21
-7.015914
 31
0.0
  0
LINE
  8
default
 10
7.912164
 20
-9.835948
 30
0.0
 11
8.070929
 21
-9.560958
 31
0.0
  0
LINE
  8
default
 10
8.070929
 20
-9.560958
 30
0.0
 11
10.193213
 21
-5.885054
 31
0.0
  0
LINE
  8
default
 10
8.070929
 20
-9.560958
 30
0.0
 11
10.029636
 21
-10.691818
 31
0.0
  0
LINE
  8
default
 10
15.954500
 20
-1.351543
 30
0.0
 11
13.692780
 21
-0.500000
 31
0.0
  0
LINE
  8
default
 10
14.432969
 20
-3.065021
 30
0.0
 11
14.274204
 21
-3.340011
 31
0.0
  0
LINE
  8
default
 10
14.274204
 20
-3.340011
 30
0.0
 11
12.151920
 21
-7.015914
 31
0.0
  0
LINE
  8
default
 10
12.474262
 20
-1.934161
 30
0.0
 11
12.315497
 21
-2.209151
 31
0.0
  0
LINE
  8
default
 10
12.315497
 20
-2.209151
 30
0.0
 11
10.193213
 21
-5.885054
 31
0.0
  0
LINE
  8
default
 10
12.315497
 20
-2.209151
 30
0.0
 11
14.274204
 21
-3.340011
 31
0.0
  0
LINE
  8
default
 10
15.954500
 20
1.351543
 30
0.0
 11
13.692780
 21
0.500000
 31
0.0
  0
LINE
  8
default
 10
14.432969
 20
3.065021
 30
0.0
 11
14.274204
 21
3.340011
 31
0.0
  0
LINE
  8
default
 10
14.274204
 20
3.340011
 30
0.0
 11
12.151920
 21
7.015914
 31
0.0
  0
LINE
  8
default
 10
12.474262
 20
1.934161
 30
0.0
 11
12.315497
 21
2.209151
 31
0.0
  0
LINE
  8
default
 10
12.315497
 20
2.209151
 30
0.0
 11
10.193213
 21
5.885054
 31
0.0
  0
LINE
  8
default
 10
12.315497
 20
2.209151
 30
0.0
 11
14.274204
 21
3.340011
 31
0.0
  0
LINE
  8
default
 10
9.147720
 20
13.141231
 30
0.0
 11
7.279403
 21
11.608295
 31
0.0
  0
LINE
  8
default
 10
9.870871
 20
10.966808
 30
0.0
 11
10.029636
 21
10.691818
 31
0.0
  0
LINE
  8
default
 10
10.029636
 20
10.691818
 30
0.0
 11
12.151920
 21
7.015914
 31
0.0
  0
LINE
  8
default
 10
7.912164
 20
9.835948
 30
0.0
 11
8.070929
 21
9.560958
 31
0.0
  0
LINE
  8
default
 10
8.070929
 20
9.560958
 30
0.0
 11
10.193213
 21
5.885054
 31
0.0
  0
LINE
  8
default
 10
8.070929
 20
9.560958
 30
0.0
 11
10.029636
 21
10.691818
 31
0.0
  0
ARC
  8
default
 10
0.000000
 20
-0.000000
 30
0.000000
 40
9.000000
 50
0.000000
 51
60.000000
  0
ARC
  8
default
 10
0.000000
 20
-0.000000
 30
0.000000
 40
9.000000
 50
60.000000
 51
120.000000
  0
ARC
  8
default
 10
-0.000000
 20
0.000000
 30
0.000000
 40
9.000000
 50
120.000000
 51
180.000000
  0
ARC
  8
default
 10
0.000000
 20
0.000000
 30
0.000000
 40
9.000000
 50
180.000000
 51
240.000000
  0
ARC
  8
default
 10
0.000000
 20
0.000000
 30
0.000000
 40
9.000000
 50
240.000000
 51
300.000000
  0
ARC
  8
default
 10
0.000000
 20
0.000000
 30
0.000000
 40
9.000000
 50
300.000000
 51
0.000000
  0
ARC
  8
default
 10
0.514375
 20
13.389479
 30
0.000000
 40
4.639125
 50
20.087747
 51
96.365909
  0
ARC
  8
default
 10
7.158713
 20
20.659737
 30
0.000000
 40
6.120424
 50
248.053808
 51
282.440891
  0
ARC
  8
default
 10
4.939605
 20
17.889445
 30
0.000000
 40
3.876044
 50
264.410825
 51
298.797907
  0
ARC
  8
default
 10
4.941267
 20
14.930654
 30
0.000000
 40
3.183208
 50
263.158951
 51
297.546034
  0
ARC
  8
default
 10
-0.514375
 20
13.389479
 30
0.000000
 40
4.639125
 50
83.634091
 51
159.912253
  0
ARC
  8
default
 10
-7.158713
 20
20.659737
 30
0.000000
 40
6.120424
 50
257.559109
 51
291.946192
  0
ARC
  8
default
 10
-4.939605
 20
17.889445
 30
0.000000
 40
3.876044
 50
241.202093
 51
275.589175
  0
ARC
  8
default
 10
-4.941267
 20
14.930654
 30
0.000000
 40
3.183208
 50
242.453966
 51
276.841049
  0
ARC
  8
default
 10
-11.338441
 20
7.140202
 30
0.000000
 40
4.639125
 50
80.087747
 51
156.365909
  0
ARC
  8
default
 10
-14.312500
 20
16.529496
 30
0.000000
 40
6.120424
 50
308.053808
 51
342.440891
  0
ARC
  8
default
 10
-13.022911
 20
13.222546
 30
0.000000
 40
3.876044
 50
324.410825
 51
358.797907
  0
ARC
  8
default
 10
-10.459692
 20
11.744590
 30
0.000000
 40
3.183208
 50
323.158951
 51
357.546034
  0
ARC
  8
default
 10
-11.852817
 20
6.249278
 30
0.000000
 40
4.639125
 50
143.634091
 51
219.912253
  0
ARC
  8
default
 10
-21.471213
 20
4.130241
 30
0.000000
 40
6.120424
 50
317.559109
 51
351.946192
  0
ARC
  8
default
 10
-17.962517
 20
4.666899
 30
0.000000
 40
3.876044
 50
301.202093
 51
335.589175
  0
ARC
  8
default
 10
-15.400959
 20
3.186064
 30
0.000000
 40
3.183208
 50
302.453966
 51
336.841049
  0
ARC
  8
default
 10
-11.852817
 20
-6.249278
 30
0.000000
 40
4.639125
 50
140.087747
 51
216.365909
  0
ARC
  8
default
 10
-21.471213
 20
-4.130241
 30
0.000000
 40
6.120424
 50
8.053808
 51
42.440891
  0
ARC
  8
default
 10
-17.962517
 20
-4.666899
 30
0.000000
 40
3.876044
 50
24.410825
 51
58.797907
  0
ARC
  8
default
 10
-15.400959
 20
-3.186064
 30
0.000000
 40
3.183208
 50
23.158951
 51
57.546034
  0
ARC
  8
default
 10
-11.338441
 20
-7.140202
 30
0.000000
 40
4.639125
 50
203.634091
 51
279.912253
  0
ARC
  8
default
 10
-14.312500
 20
-16.529496
 30
0.000000
 40
6.120424
 50
17.559109
 51
51.946192
  0
ARC
  8
default
 10
-13.022911
 20
-13.222546
 30
0.000000
 40
3.876044
 50
1.202093
 51
35.589175
  0
ARC
  8
default
 10
-10.459692
 20
-11.744590
 30
0.000000
 40
3.183208
 50
2.453966
 51
36.841049
  0
ARC
  8
default
 10
-0.514375
 20
-13.389479
 30
0.000000
 40
4.639125
 50
200.087747
 51
276.365909
  0
ARC
  8
default
 10
-7.158713
 20
-20.659737
 30
0.000000
 40
6.120424
 50
68.053808
 51
102.440891
  0
ARC
  8
default
 10
-4.939605
 20
-17.889445
 30
0.000000
 40
3.876044
 50
84.410825
 51
118.797907
  0
ARC
  8
default
 10
-4.941267
 20
-14.930654
 30
0.000000
 40
3.183208
 50
83.158951
 51
117.546034
  0
ARC
  8
default
 10
0.514375
 20
-13.389479
 30
0.000000
 40
4.639125
 50
263.634091
 51
339.912253
  0
ARC
  8
default
 10
7.158713
 20
-20.659737
 30
0.000000
 40
6.120424
 50
77.559109
 51
111.946192
  0
ARC
  8
default
 10
4.939605
 20
-17.889445
 30
0.000000
 40
3.876044
 50
61.202093
 51
95.589175
  0
ARC
  8
default
 10
4.941267
 20
-14.930654
 30
0.000000
 40
3.183208
 50
62.453966
 51
96.841049
  0
ARC
  8
default
 10
11.338441
 20
-7.140202
 30
0.000000
 40
4.639125
 50
260.087747
 51
336.365909
  0
ARC
  8
default
 10
14.312500
 20
-16.529496
 30
0.000000
 40
6.120424
 50
128.053808
 51
162.440891
  0
ARC
  8
default
 10
13.022911
 20
-13.222546
 30
0.000000
 40
3.876044
 50
144.410825
 51
178.797907
  0
ARC
  8
default
 10
10.459692
 20
-11.744590
 30
0.000000
 40
3.183208
 50
143.158951
 51
177.546034
  0
ARC
  8
default
 10
11.852817
 20
-6.249278
 30
0.000000
 40
4.639125
 50
323.634091
 51
39.912253
  0
ARC
  8
default
 10
21.471213
 20
-4.130241
 30
0.000000
 40
6.120424
 50
137.559109
 51
171.946192
  0
ARC
  8
default
 10
17.962517
 20
-4.666899
 30
0.000000
 40
3.876044
 50
121.202093
 51
155.589175
  0
ARC
  8
default
 10
15.400959
 20
-3.186064
 30
0.000000
 40
3.183208
 50
122.453966
 51
156.841049
  0
ARC
  8
default
 10
11.852817
 20
6.249278
 30
0.000000
 40
4.639125
 50
320.087747
 51
36.365909
  0
ARC
  8
default
 10
21.471213
 20
4.130241
 30
0.000000
 40
6.120424
 50
188.053808
 51
222.440891
  0
ARC
  8
default
 10
17.962517
 20
4.666899
 30
0.000000
 40
3.876044
 50
204.410825
 51
238.797907
  0
ARC
  8
default
 10
15.400959
 20
3.186064
 30
0.000000
 40
3.183208
 50
203.158951
 51
237.546034
  0
ARC
  8
default
 10
11.338441
 20
7.140202
 30
0.000000
 40
4.639125
 50
23.634091
 51
99.912253
  0
ARC
  8
default
 10
14.312500
 20
16.529496
 30
0.000000
 40
6.120424
 50
197.559109
 51
231.946192
  0
ARC
  8
default
 10
13.022911
 20
13.222546
 30
0.000000
 40
3.876044
 50
181.202093
 51
215.589175
  0
ARC
  8
default
 10
10.459692
 20
11.744590
 30
0.000000
 40
3.183208
 50
182.453966
 51
216.841049
  0
ARC
  8
default
 10
0.000000
 20
0.000000
 30
0.000000
 40
20.500000
 50
0.000000
 51
180.000000
  0
ARC
  8
default
 10
0.000000
 20
0.000000
 30
0.000000
 40
20.500000
 50
180.000000
 51
0.000000
  0
ARC
  8
default
 10
0.000000
 20
0.000000
 30
0.000000
 40
23.500000
 50
0.000000
 51
180.000000
  0
ARC
  8
default
 10
0.000000
 20
0.000000
 30
0.000000
 40
23.500000
 50
180.000000
 51
0.000000
  0
ENDSEC
  0
EOF
