G04 Layer: TopSilkLayer*
G04 EasyEDA v6.2.44, 2019-10-11T09:46:47+02:00*
G04 b694c453db3c4fbcb19a449f5af86211,674c0623d3a246009f606e19fc16e94a,10*
G04 Gerber Generator version 0.2*
G04 Scale: 100 percent, Rotated: No, Reflected: No *
G04 Dimensions in millimeters *
G04 leading zeros omitted , absolute positions ,4 integer and 3 decimal *
%FSLAX43Y43*%
%MOMM*%
G90*
G71D02*

%ADD10C,0.254000*%
%ADD11C,0.200000*%
%ADD12C,0.399999*%
%ADD35C,0.228600*%
%ADD36C,0.129032*%
%ADD37C,0.299999*%
%ADD38C,0.152400*%
%ADD39C,0.203200*%

%LPD*%
G54D10*
G01X5511Y9880D02*
G01X5511Y13741D01*
G01X10388Y9855D02*
G01X10388Y13741D01*
G01X5511Y9855D02*
G01X10388Y9855D01*
G01X5511Y13741D02*
G01X10388Y13741D01*
G54D11*
G01X11518Y22370D02*
G01X11518Y23470D01*
G01X13119Y23470D01*
G01X13119Y22370D01*
G01X11518Y21570D02*
G01X11518Y20470D01*
G01X12518Y20470D01*
G01X13119Y20470D01*
G01X13119Y21570D01*
G01X6114Y17945D02*
G01X7214Y17945D01*
G01X7214Y16344D01*
G01X6114Y16344D01*
G01X5314Y17945D02*
G01X4214Y17945D01*
G01X4214Y16945D01*
G01X4214Y16344D01*
G01X5314Y16344D01*
G54D35*
G01X1185Y7027D02*
G01X1185Y12027D01*
G01X3386Y12027D01*
G01X3386Y7027D01*
G01X1185Y7027D01*
G54D11*
G01X7347Y5041D02*
G01X6247Y5041D01*
G01X6247Y6642D01*
G01X7347Y6642D01*
G01X8147Y5041D02*
G01X9247Y5041D01*
G01X9247Y6041D01*
G01X9247Y6642D01*
G01X8147Y6642D01*
G01X6114Y19723D02*
G01X7214Y19723D01*
G01X7214Y18122D01*
G01X6114Y18122D01*
G01X5314Y19723D02*
G01X4214Y19723D01*
G01X4214Y18723D01*
G01X4214Y18122D01*
G01X5314Y18122D01*
G01X6114Y21501D02*
G01X7214Y21501D01*
G01X7214Y19900D01*
G01X6114Y19900D01*
G01X5314Y21501D02*
G01X4214Y21501D01*
G01X4214Y20501D01*
G01X4214Y19900D01*
G01X5314Y19900D01*
G01X6114Y23279D02*
G01X7214Y23279D01*
G01X7214Y21678D01*
G01X6114Y21678D01*
G01X5314Y23279D02*
G01X4214Y23279D01*
G01X4214Y22279D01*
G01X4214Y21678D01*
G01X5314Y21678D01*
G54D10*
G01X20572Y15891D02*
G01X20571Y8492D01*
G01X20572Y8492D02*
G01X13972Y8492D01*
G01X13971Y15891D02*
G01X20571Y15891D01*
G01X13971Y8492D02*
G01X13972Y15891D01*
G54D35*
G01X14774Y23452D02*
G01X19774Y23452D01*
G01X19774Y21251D01*
G01X14774Y21251D01*
G01X14774Y23452D01*
G54D10*
G01X34272Y26310D02*
G01X34272Y18360D01*
G01X41419Y18360D01*
G01X41419Y26310D01*
G01X34272Y26310D01*
G01X35246Y18360D02*
G01X35246Y17060D01*
G01X35745Y17060D01*
G01X35745Y18360D01*
G01X39968Y18364D02*
G01X39968Y17064D01*
G01X40468Y17064D01*
G01X40468Y18364D01*
G01X34272Y12975D02*
G01X34272Y5025D01*
G01X41419Y5025D01*
G01X41419Y12975D01*
G01X34272Y12975D01*
G01X35246Y5025D02*
G01X35246Y3725D01*
G01X35745Y3725D01*
G01X35745Y5025D01*
G01X39968Y5029D02*
G01X39968Y3729D01*
G01X40468Y3729D01*
G01X40468Y5029D01*
G01X26144Y26310D02*
G01X26144Y18360D01*
G01X33291Y18360D01*
G01X33291Y26310D01*
G01X26144Y26310D01*
G01X27118Y18360D02*
G01X27118Y17060D01*
G01X27617Y17060D01*
G01X27617Y18360D01*
G01X31840Y18364D02*
G01X31840Y17064D01*
G01X32340Y17064D01*
G01X32340Y18364D01*
G01X26144Y12975D02*
G01X26144Y5025D01*
G01X33291Y5025D01*
G01X33291Y12975D01*
G01X26144Y12975D01*
G01X27118Y5025D02*
G01X27118Y3725D01*
G01X27617Y3725D01*
G01X27617Y5025D01*
G01X31840Y5029D02*
G01X31840Y3729D01*
G01X32340Y3729D01*
G01X32340Y5029D01*
G01X42400Y26310D02*
G01X42400Y18360D01*
G01X49547Y18360D01*
G01X49547Y26310D01*
G01X42400Y26310D01*
G01X43374Y18360D02*
G01X43374Y17060D01*
G01X43873Y17060D01*
G01X43873Y18360D01*
G01X48096Y18364D02*
G01X48096Y17064D01*
G01X48596Y17064D01*
G01X48596Y18364D01*
G01X42400Y12975D02*
G01X42400Y5025D01*
G01X49547Y5025D01*
G01X49547Y12975D01*
G01X42400Y12975D01*
G01X43374Y5025D02*
G01X43374Y3725D01*
G01X43873Y3725D01*
G01X43873Y5025D01*
G01X48096Y5029D02*
G01X48096Y3729D01*
G01X48596Y3729D01*
G01X48596Y5029D01*
G54D35*
G01X14774Y21039D02*
G01X19774Y21039D01*
G01X19774Y18838D01*
G01X14774Y18838D01*
G01X14774Y21039D01*
G01X14774Y18626D02*
G01X19774Y18626D01*
G01X19774Y16425D01*
G01X14774Y16425D01*
G01X14774Y18626D01*
G54D11*
G01X21551Y15385D02*
G01X21551Y16485D01*
G01X23152Y16485D01*
G01X23152Y15385D01*
G01X21551Y14585D02*
G01X21551Y13485D01*
G01X22551Y13485D01*
G01X23152Y13485D01*
G01X23152Y14585D01*
G54D36*
G01X21971Y11379D02*
G01X22987Y11379D01*
G01X22987Y11988D02*
G01X21971Y11988D01*
G01X22377Y11684D02*
G01X22580Y11684D01*
G01X22682Y11785D02*
G01X22275Y11785D01*
G01X22275Y11785D02*
G01X22479Y11582D01*
G01X22479Y11582D02*
G01X22682Y11785D01*
G01X22987Y12496D02*
G01X22987Y10871D01*
G01X22987Y10871D02*
G01X21971Y10871D01*
G01X21971Y10871D02*
G01X21971Y12496D01*
G01X21971Y12496D02*
G01X22987Y12496D01*
G54D11*
G01X23349Y4152D02*
G01X22249Y4152D01*
G01X22249Y5753D01*
G01X23349Y5753D01*
G01X24149Y4152D02*
G01X25249Y4152D01*
G01X25249Y5152D01*
G01X25249Y5753D01*
G01X24149Y5753D01*
G01X23349Y8089D02*
G01X22249Y8089D01*
G01X22249Y9690D01*
G01X23349Y9690D01*
G01X24149Y8089D02*
G01X25249Y8089D01*
G01X25249Y9089D01*
G01X25249Y9690D01*
G01X24149Y9690D01*
G01X23349Y6311D02*
G01X22249Y6311D01*
G01X22249Y7912D01*
G01X23349Y7912D01*
G01X24149Y6311D02*
G01X25249Y6311D01*
G01X25249Y7311D01*
G01X25249Y7912D01*
G01X24149Y7912D01*
G01X9289Y19723D02*
G01X10389Y19723D01*
G01X10389Y18122D01*
G01X9289Y18122D01*
G01X8489Y19723D02*
G01X7389Y19723D01*
G01X7389Y18723D01*
G01X7389Y18122D01*
G01X8489Y18122D01*
G01X11176Y6477D02*
G01X11176Y2921D01*
G01X11557Y2540D01*
G01X14859Y2540D01*
G01X15367Y3048D01*
G01X15367Y4318D01*
G01X15875Y4826D01*
G01X16383Y4826D01*
G01X17018Y5461D01*
G01X17018Y6985D01*
G01X16383Y7620D01*
G01X11430Y7620D01*
G01X11176Y7366D01*
G01X11176Y6477D01*
G54D38*
G01X10668Y10901D02*
G01X11445Y10901D01*
G01X11602Y10952D01*
G01X11706Y11056D01*
G01X11757Y11214D01*
G01X11757Y11318D01*
G01X11706Y11473D01*
G01X11602Y11577D01*
G01X11445Y11628D01*
G01X10668Y11628D01*
G01X10927Y12024D02*
G01X10873Y12024D01*
G01X10769Y12075D01*
G01X10718Y12128D01*
G01X10668Y12232D01*
G01X10668Y12438D01*
G01X10718Y12542D01*
G01X10769Y12595D01*
G01X10873Y12646D01*
G01X10977Y12646D01*
G01X11082Y12595D01*
G01X11239Y12491D01*
G01X11757Y11970D01*
G01X11757Y12699D01*
G01X10299Y21082D02*
G01X11389Y21082D01*
G01X10299Y21082D02*
G01X10299Y21549D01*
G01X10350Y21704D01*
G01X10401Y21757D01*
G01X10505Y21808D01*
G01X10609Y21808D01*
G01X10713Y21757D01*
G01X10767Y21704D01*
G01X10817Y21549D01*
G01X10817Y21082D01*
G01X10817Y21445D02*
G01X11389Y21808D01*
G01X10558Y22204D02*
G01X10505Y22204D01*
G01X10401Y22255D01*
G01X10350Y22308D01*
G01X10299Y22412D01*
G01X10299Y22618D01*
G01X10350Y22722D01*
G01X10401Y22776D01*
G01X10505Y22826D01*
G01X10609Y22826D01*
G01X10713Y22776D01*
G01X10871Y22672D01*
G01X11389Y22151D01*
G01X11389Y22880D01*
G01X8272Y17520D02*
G01X8219Y17625D01*
G01X8115Y17729D01*
G01X8013Y17780D01*
G01X7805Y17780D01*
G01X7701Y17729D01*
G01X7597Y17625D01*
G01X7543Y17520D01*
G01X7492Y17366D01*
G01X7492Y17106D01*
G01X7543Y16949D01*
G01X7597Y16845D01*
G01X7701Y16741D01*
G01X7805Y16690D01*
G01X8013Y16690D01*
G01X8115Y16741D01*
G01X8219Y16845D01*
G01X8272Y16949D01*
G01X9133Y17780D02*
G01X8615Y17053D01*
G01X9395Y17053D01*
G01X9133Y17780D02*
G01X9133Y16690D01*
G01X4462Y8109D02*
G01X4409Y8214D01*
G01X4305Y8318D01*
G01X4203Y8371D01*
G01X3995Y8371D01*
G01X3891Y8318D01*
G01X3787Y8214D01*
G01X3733Y8109D01*
G01X3682Y7955D01*
G01X3682Y7695D01*
G01X3733Y7538D01*
G01X3787Y7434D01*
G01X3891Y7330D01*
G01X3995Y7279D01*
G01X4203Y7279D01*
G01X4305Y7330D01*
G01X4409Y7434D01*
G01X4462Y7538D01*
G01X5427Y8371D02*
G01X4909Y8371D01*
G01X4856Y7901D01*
G01X4909Y7955D01*
G01X5064Y8005D01*
G01X5219Y8005D01*
G01X5377Y7955D01*
G01X5481Y7850D01*
G01X5532Y7695D01*
G01X5532Y7591D01*
G01X5481Y7434D01*
G01X5377Y7330D01*
G01X5219Y7279D01*
G01X5064Y7279D01*
G01X4909Y7330D01*
G01X4856Y7383D01*
G01X4805Y7487D01*
G01X7637Y7729D02*
G01X7584Y7833D01*
G01X7480Y7937D01*
G01X7378Y7988D01*
G01X7170Y7988D01*
G01X7066Y7937D01*
G01X6962Y7833D01*
G01X6908Y7729D01*
G01X6858Y7574D01*
G01X6858Y7315D01*
G01X6908Y7157D01*
G01X6962Y7053D01*
G01X7066Y6949D01*
G01X7170Y6898D01*
G01X7378Y6898D01*
G01X7480Y6949D01*
G01X7584Y7053D01*
G01X7637Y7157D01*
G01X8239Y7988D02*
G01X8084Y7937D01*
G01X8031Y7833D01*
G01X8031Y7729D01*
G01X8084Y7625D01*
G01X8188Y7574D01*
G01X8394Y7520D01*
G01X8552Y7470D01*
G01X8656Y7366D01*
G01X8707Y7261D01*
G01X8707Y7106D01*
G01X8656Y7002D01*
G01X8602Y6949D01*
G01X8448Y6898D01*
G01X8239Y6898D01*
G01X8084Y6949D01*
G01X8031Y7002D01*
G01X7980Y7106D01*
G01X7980Y7261D01*
G01X8031Y7366D01*
G01X8135Y7470D01*
G01X8293Y7520D01*
G01X8498Y7574D01*
G01X8602Y7625D01*
G01X8656Y7729D01*
G01X8656Y7833D01*
G01X8602Y7937D01*
G01X8448Y7988D01*
G01X8239Y7988D01*
G01X2031Y19430D02*
G01X2031Y18341D01*
G01X2031Y19430D02*
G01X2499Y19430D01*
G01X2654Y19380D01*
G01X2707Y19329D01*
G01X2758Y19225D01*
G01X2758Y19121D01*
G01X2707Y19016D01*
G01X2654Y18963D01*
G01X2499Y18912D01*
G01X2031Y18912D01*
G01X2395Y18912D02*
G01X2758Y18341D01*
G01X3205Y19430D02*
G01X3776Y19430D01*
G01X3467Y19016D01*
G01X3622Y19016D01*
G01X3726Y18963D01*
G01X3776Y18912D01*
G01X3830Y18757D01*
G01X3830Y18653D01*
G01X3776Y18496D01*
G01X3672Y18392D01*
G01X3517Y18341D01*
G01X3362Y18341D01*
G01X3205Y18392D01*
G01X3154Y18445D01*
G01X3101Y18549D01*
G01X7492Y21209D02*
G01X7492Y20119D01*
G01X7492Y21209D02*
G01X7960Y21209D01*
G01X8115Y21158D01*
G01X8168Y21107D01*
G01X8219Y21003D01*
G01X8219Y20899D01*
G01X8168Y20795D01*
G01X8115Y20741D01*
G01X7960Y20690D01*
G01X7492Y20690D01*
G01X7856Y20690D02*
G01X8219Y20119D01*
G01X9083Y21209D02*
G01X8562Y20482D01*
G01X9342Y20482D01*
G01X9083Y21209D02*
G01X9083Y20119D01*
G01X7493Y22974D02*
G01X7493Y21884D01*
G01X7493Y22974D02*
G01X7960Y22974D01*
G01X8115Y22923D01*
G01X8168Y22872D01*
G01X8219Y22768D01*
G01X8219Y22664D01*
G01X8168Y22560D01*
G01X8115Y22506D01*
G01X7960Y22456D01*
G01X7493Y22456D01*
G01X7856Y22456D02*
G01X8219Y21884D01*
G01X9187Y22974D02*
G01X8666Y22974D01*
G01X8615Y22506D01*
G01X8666Y22560D01*
G01X8823Y22611D01*
G01X8978Y22611D01*
G01X9133Y22560D01*
G01X9237Y22456D01*
G01X9291Y22301D01*
G01X9291Y22197D01*
G01X9237Y22039D01*
G01X9133Y21935D01*
G01X8978Y21884D01*
G01X8823Y21884D01*
G01X8666Y21935D01*
G01X8615Y21988D01*
G01X8562Y22092D01*
G01X16764Y11049D02*
G01X17856Y11049D01*
G01X17856Y11049D02*
G01X17856Y11671D01*
G01X16764Y12118D02*
G01X16764Y12689D01*
G01X17180Y12379D01*
G01X17180Y12534D01*
G01X17231Y12639D01*
G01X17284Y12689D01*
G01X17439Y12743D01*
G01X17543Y12743D01*
G01X17698Y12689D01*
G01X17802Y12585D01*
G01X17856Y12430D01*
G01X17856Y12275D01*
G01X17802Y12118D01*
G01X17752Y12067D01*
G01X17647Y12014D01*
G01X20718Y22598D02*
G01X20665Y22702D01*
G01X20561Y22806D01*
G01X20459Y22860D01*
G01X20251Y22860D01*
G01X20147Y22806D01*
G01X20043Y22702D01*
G01X19989Y22598D01*
G01X19939Y22443D01*
G01X19939Y22184D01*
G01X19989Y22026D01*
G01X20043Y21922D01*
G01X20147Y21818D01*
G01X20251Y21767D01*
G01X20459Y21767D01*
G01X20561Y21818D01*
G01X20665Y21922D01*
G01X20718Y22026D01*
G01X21061Y22651D02*
G01X21165Y22702D01*
G01X21320Y22860D01*
G01X21320Y21767D01*
G01X21717Y22598D02*
G01X21717Y22651D01*
G01X21767Y22755D01*
G01X21818Y22806D01*
G01X21922Y22860D01*
G01X22131Y22860D01*
G01X22235Y22806D01*
G01X22288Y22755D01*
G01X22339Y22651D01*
G01X22339Y22547D01*
G01X22288Y22443D01*
G01X22184Y22288D01*
G01X21663Y21767D01*
G01X22390Y21767D01*
G01X37269Y18034D02*
G01X37165Y17980D01*
G01X37061Y17876D01*
G01X37007Y17772D01*
G01X36957Y17617D01*
G01X36957Y17358D01*
G01X37007Y17200D01*
G01X37061Y17099D01*
G01X37165Y16995D01*
G01X37269Y16941D01*
G01X37477Y16941D01*
G01X37579Y16995D01*
G01X37683Y17099D01*
G01X37736Y17200D01*
G01X37787Y17358D01*
G01X37787Y17617D01*
G01X37736Y17772D01*
G01X37683Y17876D01*
G01X37579Y17980D01*
G01X37477Y18034D01*
G01X37269Y18034D01*
G01X37424Y17150D02*
G01X37736Y16837D01*
G01X38234Y18034D02*
G01X38806Y18034D01*
G01X38493Y17617D01*
G01X38651Y17617D01*
G01X38755Y17566D01*
G01X38806Y17513D01*
G01X38859Y17358D01*
G01X38859Y17254D01*
G01X38806Y17099D01*
G01X38701Y16995D01*
G01X38547Y16941D01*
G01X38392Y16941D01*
G01X38234Y16995D01*
G01X38183Y17045D01*
G01X38130Y17150D01*
G01X37015Y14351D02*
G01X36911Y14297D01*
G01X36807Y14193D01*
G01X36753Y14089D01*
G01X36703Y13934D01*
G01X36703Y13675D01*
G01X36753Y13517D01*
G01X36807Y13416D01*
G01X36911Y13312D01*
G01X37015Y13258D01*
G01X37223Y13258D01*
G01X37325Y13312D01*
G01X37429Y13416D01*
G01X37482Y13517D01*
G01X37533Y13675D01*
G01X37533Y13934D01*
G01X37482Y14089D01*
G01X37429Y14193D01*
G01X37325Y14297D01*
G01X37223Y14351D01*
G01X37015Y14351D01*
G01X37170Y13467D02*
G01X37482Y13154D01*
G01X38397Y14351D02*
G01X37876Y13622D01*
G01X38656Y13622D01*
G01X38397Y14351D02*
G01X38397Y13258D01*
G01X29268Y18118D02*
G01X29164Y18065D01*
G01X29060Y17961D01*
G01X29006Y17856D01*
G01X28956Y17702D01*
G01X28956Y17442D01*
G01X29006Y17285D01*
G01X29060Y17183D01*
G01X29164Y17079D01*
G01X29268Y17026D01*
G01X29476Y17026D01*
G01X29578Y17079D01*
G01X29682Y17183D01*
G01X29735Y17285D01*
G01X29786Y17442D01*
G01X29786Y17702D01*
G01X29735Y17856D01*
G01X29682Y17961D01*
G01X29578Y18065D01*
G01X29476Y18118D01*
G01X29268Y18118D01*
G01X29423Y17234D02*
G01X29735Y16922D01*
G01X30129Y17910D02*
G01X30233Y17961D01*
G01X30391Y18118D01*
G01X30391Y17026D01*
G01X28887Y14351D02*
G01X28783Y14297D01*
G01X28679Y14193D01*
G01X28625Y14089D01*
G01X28575Y13934D01*
G01X28575Y13675D01*
G01X28625Y13517D01*
G01X28679Y13416D01*
G01X28783Y13312D01*
G01X28887Y13258D01*
G01X29095Y13258D01*
G01X29197Y13312D01*
G01X29301Y13416D01*
G01X29354Y13517D01*
G01X29405Y13675D01*
G01X29405Y13934D01*
G01X29354Y14089D01*
G01X29301Y14193D01*
G01X29197Y14297D01*
G01X29095Y14351D01*
G01X28887Y14351D01*
G01X29042Y13467D02*
G01X29354Y13154D01*
G01X29801Y14089D02*
G01X29801Y14142D01*
G01X29852Y14246D01*
G01X29905Y14297D01*
G01X30010Y14351D01*
G01X30215Y14351D01*
G01X30319Y14297D01*
G01X30373Y14246D01*
G01X30424Y14142D01*
G01X30424Y14038D01*
G01X30373Y13934D01*
G01X30269Y13779D01*
G01X29748Y13258D01*
G01X30477Y13258D01*
G01X45524Y18161D02*
G01X45420Y18107D01*
G01X45316Y18003D01*
G01X45262Y17899D01*
G01X45212Y17744D01*
G01X45212Y17485D01*
G01X45262Y17327D01*
G01X45316Y17226D01*
G01X45420Y17122D01*
G01X45524Y17068D01*
G01X45732Y17068D01*
G01X45834Y17122D01*
G01X45938Y17226D01*
G01X45991Y17327D01*
G01X46042Y17485D01*
G01X46042Y17744D01*
G01X45991Y17899D01*
G01X45938Y18003D01*
G01X45834Y18107D01*
G01X45732Y18161D01*
G01X45524Y18161D01*
G01X45679Y17277D02*
G01X45991Y16964D01*
G01X47010Y18161D02*
G01X46489Y18161D01*
G01X46438Y17693D01*
G01X46489Y17744D01*
G01X46647Y17797D01*
G01X46802Y17797D01*
G01X46956Y17744D01*
G01X47061Y17640D01*
G01X47114Y17485D01*
G01X47114Y17381D01*
G01X47061Y17226D01*
G01X46956Y17122D01*
G01X46802Y17068D01*
G01X46647Y17068D01*
G01X46489Y17122D01*
G01X46438Y17172D01*
G01X46385Y17277D01*
G01X45143Y14351D02*
G01X45039Y14297D01*
G01X44935Y14193D01*
G01X44881Y14089D01*
G01X44831Y13934D01*
G01X44831Y13675D01*
G01X44881Y13517D01*
G01X44935Y13416D01*
G01X45039Y13312D01*
G01X45143Y13258D01*
G01X45351Y13258D01*
G01X45453Y13312D01*
G01X45557Y13416D01*
G01X45610Y13517D01*
G01X45661Y13675D01*
G01X45661Y13934D01*
G01X45610Y14089D01*
G01X45557Y14193D01*
G01X45453Y14297D01*
G01X45351Y14351D01*
G01X45143Y14351D01*
G01X45298Y13467D02*
G01X45610Y13154D01*
G01X46629Y14193D02*
G01X46575Y14297D01*
G01X46421Y14351D01*
G01X46316Y14351D01*
G01X46161Y14297D01*
G01X46057Y14142D01*
G01X46004Y13883D01*
G01X46004Y13622D01*
G01X46057Y13416D01*
G01X46161Y13312D01*
G01X46316Y13258D01*
G01X46367Y13258D01*
G01X46525Y13312D01*
G01X46629Y13416D01*
G01X46680Y13571D01*
G01X46680Y13622D01*
G01X46629Y13779D01*
G01X46525Y13883D01*
G01X46367Y13934D01*
G01X46316Y13934D01*
G01X46161Y13883D01*
G01X46057Y13779D01*
G01X46004Y13622D01*
G01X20845Y20312D02*
G01X20792Y20416D01*
G01X20688Y20520D01*
G01X20586Y20574D01*
G01X20378Y20574D01*
G01X20274Y20520D01*
G01X20170Y20416D01*
G01X20116Y20312D01*
G01X20066Y20157D01*
G01X20066Y19898D01*
G01X20116Y19740D01*
G01X20170Y19636D01*
G01X20274Y19532D01*
G01X20378Y19481D01*
G01X20586Y19481D01*
G01X20688Y19532D01*
G01X20792Y19636D01*
G01X20845Y19740D01*
G01X21188Y20365D02*
G01X21292Y20416D01*
G01X21447Y20574D01*
G01X21447Y19481D01*
G01X22415Y20416D02*
G01X22362Y20520D01*
G01X22207Y20574D01*
G01X22103Y20574D01*
G01X21945Y20520D01*
G01X21844Y20365D01*
G01X21790Y20104D01*
G01X21790Y19845D01*
G01X21844Y19636D01*
G01X21945Y19532D01*
G01X22103Y19481D01*
G01X22153Y19481D01*
G01X22311Y19532D01*
G01X22415Y19636D01*
G01X22466Y19794D01*
G01X22466Y19845D01*
G01X22415Y20002D01*
G01X22311Y20104D01*
G01X22153Y20157D01*
G01X22103Y20157D01*
G01X21945Y20104D01*
G01X21844Y20002D01*
G01X21790Y19845D01*
G01X20845Y17772D02*
G01X20792Y17876D01*
G01X20688Y17980D01*
G01X20586Y18034D01*
G01X20378Y18034D01*
G01X20274Y17980D01*
G01X20170Y17876D01*
G01X20116Y17772D01*
G01X20066Y17617D01*
G01X20066Y17358D01*
G01X20116Y17200D01*
G01X20170Y17096D01*
G01X20274Y16992D01*
G01X20378Y16941D01*
G01X20586Y16941D01*
G01X20688Y16992D01*
G01X20792Y17096D01*
G01X20845Y17200D01*
G01X21188Y17825D02*
G01X21292Y17876D01*
G01X21447Y18034D01*
G01X21447Y16941D01*
G01X22049Y18034D02*
G01X21894Y17980D01*
G01X21844Y17876D01*
G01X21844Y17772D01*
G01X21894Y17668D01*
G01X21998Y17617D01*
G01X22207Y17564D01*
G01X22362Y17513D01*
G01X22466Y17409D01*
G01X22517Y17305D01*
G01X22517Y17150D01*
G01X22466Y17045D01*
G01X22415Y16992D01*
G01X22258Y16941D01*
G01X22049Y16941D01*
G01X21894Y16992D01*
G01X21844Y17045D01*
G01X21790Y17150D01*
G01X21790Y17305D01*
G01X21844Y17409D01*
G01X21945Y17513D01*
G01X22103Y17564D01*
G01X22311Y17617D01*
G01X22415Y17668D01*
G01X22466Y17772D01*
G01X22466Y17876D01*
G01X22415Y17980D01*
G01X22258Y18034D01*
G01X22049Y18034D01*
G01X23495Y13769D02*
G01X24584Y13769D01*
G01X23495Y13769D02*
G01X23495Y14236D01*
G01X23545Y14391D01*
G01X23596Y14444D01*
G01X23700Y14495D01*
G01X23804Y14495D01*
G01X23909Y14444D01*
G01X23962Y14391D01*
G01X24013Y14236D01*
G01X24013Y13769D01*
G01X24013Y14132D02*
G01X24584Y14495D01*
G01X23754Y14892D02*
G01X23700Y14892D01*
G01X23596Y14942D01*
G01X23545Y14996D01*
G01X23495Y15100D01*
G01X23495Y15306D01*
G01X23545Y15410D01*
G01X23596Y15463D01*
G01X23700Y15514D01*
G01X23804Y15514D01*
G01X23909Y15463D01*
G01X24066Y15359D01*
G01X24584Y14838D01*
G01X24584Y15567D01*
G01X23495Y16532D02*
G01X23495Y16014D01*
G01X23962Y15961D01*
G01X23909Y16014D01*
G01X23858Y16169D01*
G01X23858Y16324D01*
G01X23909Y16482D01*
G01X24013Y16586D01*
G01X24168Y16637D01*
G01X24272Y16637D01*
G01X24429Y16586D01*
G01X24533Y16482D01*
G01X24584Y16324D01*
G01X24584Y16169D01*
G01X24533Y16014D01*
G01X24480Y15961D01*
G01X24376Y15910D01*
G01X19431Y5334D02*
G01X19431Y4244D01*
G01X19431Y5334D02*
G01X19898Y5334D01*
G01X20053Y5283D01*
G01X20106Y5232D01*
G01X20157Y5128D01*
G01X20157Y5024D01*
G01X20106Y4919D01*
G01X20053Y4866D01*
G01X19898Y4815D01*
G01X19431Y4815D01*
G01X19794Y4815D02*
G01X20157Y4244D01*
G01X20500Y5128D02*
G01X20604Y5179D01*
G01X20761Y5334D01*
G01X20761Y4244D01*
G01X21727Y5334D02*
G01X21209Y5334D01*
G01X21155Y4866D01*
G01X21209Y4919D01*
G01X21363Y4970D01*
G01X21518Y4970D01*
G01X21676Y4919D01*
G01X21780Y4815D01*
G01X21831Y4660D01*
G01X21831Y4556D01*
G01X21780Y4399D01*
G01X21676Y4295D01*
G01X21518Y4244D01*
G01X21363Y4244D01*
G01X21209Y4295D01*
G01X21155Y4348D01*
G01X21104Y4452D01*
G01X23241Y10922D02*
G01X23241Y9832D01*
G01X23241Y10922D02*
G01X23708Y10922D01*
G01X23863Y10871D01*
G01X23916Y10820D01*
G01X23967Y10716D01*
G01X23967Y10612D01*
G01X23916Y10507D01*
G01X23863Y10454D01*
G01X23708Y10403D01*
G01X23241Y10403D01*
G01X23604Y10403D02*
G01X23967Y9832D01*
G01X24310Y10716D02*
G01X24414Y10767D01*
G01X24571Y10922D01*
G01X24571Y9832D01*
G01X25641Y10922D02*
G01X25120Y9832D01*
G01X24914Y10922D02*
G01X25641Y10922D01*
G01X19176Y7620D02*
G01X19176Y6530D01*
G01X19176Y7620D02*
G01X19644Y7620D01*
G01X19799Y7569D01*
G01X19852Y7518D01*
G01X19903Y7414D01*
G01X19903Y7310D01*
G01X19852Y7205D01*
G01X19799Y7152D01*
G01X19644Y7101D01*
G01X19176Y7101D01*
G01X19540Y7101D02*
G01X19903Y6530D01*
G01X20299Y7360D02*
G01X20299Y7414D01*
G01X20350Y7518D01*
G01X20403Y7569D01*
G01X20507Y7620D01*
G01X20713Y7620D01*
G01X20817Y7569D01*
G01X20871Y7518D01*
G01X20921Y7414D01*
G01X20921Y7310D01*
G01X20871Y7205D01*
G01X20767Y7048D01*
G01X20246Y6530D01*
G01X20975Y6530D01*
G01X21368Y7360D02*
G01X21368Y7414D01*
G01X21422Y7518D01*
G01X21473Y7569D01*
G01X21577Y7620D01*
G01X21785Y7620D01*
G01X21889Y7569D01*
G01X21940Y7518D01*
G01X21993Y7414D01*
G01X21993Y7310D01*
G01X21940Y7205D01*
G01X21836Y7048D01*
G01X21318Y6530D01*
G01X22044Y6530D01*
G01X11447Y19171D02*
G01X11394Y19276D01*
G01X11290Y19380D01*
G01X11188Y19431D01*
G01X10980Y19431D01*
G01X10876Y19380D01*
G01X10772Y19276D01*
G01X10718Y19171D01*
G01X10668Y19016D01*
G01X10668Y18757D01*
G01X10718Y18600D01*
G01X10772Y18496D01*
G01X10876Y18392D01*
G01X10980Y18341D01*
G01X11188Y18341D01*
G01X11290Y18392D01*
G01X11394Y18496D01*
G01X11447Y18600D01*
G01X12466Y19067D02*
G01X12412Y18912D01*
G01X12308Y18808D01*
G01X12153Y18757D01*
G01X12103Y18757D01*
G01X11945Y18808D01*
G01X11841Y18912D01*
G01X11790Y19067D01*
G01X11790Y19121D01*
G01X11841Y19276D01*
G01X11945Y19380D01*
G01X12103Y19431D01*
G01X12153Y19431D01*
G01X12308Y19380D01*
G01X12412Y19276D01*
G01X12466Y19067D01*
G01X12466Y18808D01*
G01X12412Y18549D01*
G01X12308Y18392D01*
G01X12153Y18341D01*
G01X12049Y18341D01*
G01X11894Y18392D01*
G01X11841Y18496D01*
G54D39*
G01X11557Y7203D02*
G01X11557Y5265D01*
G01X11557Y7203D02*
G01X12758Y7203D01*
G01X11557Y6281D02*
G01X12296Y6281D01*
G01X11557Y5265D02*
G01X12758Y5265D01*
G01X14660Y6926D02*
G01X14475Y7112D01*
G01X14198Y7203D01*
G01X13830Y7203D01*
G01X13550Y7112D01*
G01X13368Y6926D01*
G01X13368Y6743D01*
G01X13459Y6558D01*
G01X13550Y6464D01*
G01X13736Y6372D01*
G01X14290Y6187D01*
G01X14475Y6096D01*
G01X14566Y6004D01*
G01X14660Y5819D01*
G01X14660Y5542D01*
G01X14475Y5356D01*
G01X14198Y5265D01*
G01X13830Y5265D01*
G01X13550Y5356D01*
G01X13368Y5542D01*
G01X16654Y6743D02*
G01X16563Y6926D01*
G01X16377Y7112D01*
G01X16192Y7203D01*
G01X15824Y7203D01*
G01X15638Y7112D01*
G01X15455Y6926D01*
G01X15361Y6743D01*
G01X15270Y6464D01*
G01X15270Y6004D01*
G01X15361Y5727D01*
G01X15455Y5542D01*
G01X15638Y5356D01*
G01X15824Y5265D01*
G01X16192Y5265D01*
G01X16377Y5356D01*
G01X16563Y5542D01*
G01X16654Y5727D01*
G01X11557Y4790D02*
G01X12296Y2852D01*
G01X13035Y4790D02*
G01X12296Y2852D01*
G01X13830Y4790D02*
G01X14846Y4790D01*
G01X14290Y4051D01*
G01X14566Y4051D01*
G01X14752Y3959D01*
G01X14846Y3868D01*
G01X14937Y3591D01*
G01X14937Y3406D01*
G01X14846Y3129D01*
G01X14660Y2943D01*
G01X14384Y2852D01*
G01X14107Y2852D01*
G01X13830Y2943D01*
G01X13736Y3035D01*
G01X13644Y3220D01*
G01X1042416Y-768766D02*
G01X1042416Y-770704D01*
G01X1042416Y-768766D02*
G01X1043617Y-768766D01*
G01X1042416Y-769688D02*
G01X1043155Y-769688D01*
G01X1042416Y-770704D02*
G01X1043617Y-770704D01*
G01X1045519Y-769043D02*
G01X1045334Y-768858D01*
G01X1045057Y-768766D01*
G01X1044689Y-768766D01*
G01X1044409Y-768858D01*
G01X1044227Y-769043D01*
G01X1044227Y-769226D01*
G01X1044318Y-769411D01*
G01X1044409Y-769505D01*
G01X1044595Y-769597D01*
G01X1045149Y-769782D01*
G01X1045334Y-769874D01*
G01X1045425Y-769965D01*
G01X1045519Y-770150D01*
G01X1045519Y-770427D01*
G01X1045334Y-770613D01*
G01X1045057Y-770704D01*
G01X1044689Y-770704D01*
G01X1044409Y-770613D01*
G01X1044227Y-770427D01*
G01X1047513Y-769226D02*
G01X1047422Y-769043D01*
G01X1047236Y-768858D01*
G01X1047051Y-768766D01*
G01X1046683Y-768766D01*
G01X1046497Y-768858D01*
G01X1046314Y-769043D01*
G01X1046220Y-769226D01*
G01X1046129Y-769505D01*
G01X1046129Y-769965D01*
G01X1046220Y-770242D01*
G01X1046314Y-770427D01*
G01X1046497Y-770613D01*
G01X1046683Y-770704D01*
G01X1047051Y-770704D01*
G01X1047236Y-770613D01*
G01X1047422Y-770427D01*
G01X1047513Y-770242D01*
G01X1034923Y-773211D02*
G01X1034923Y-775149D01*
G01X1034923Y-773211D02*
G01X1036124Y-773211D01*
G01X1034923Y-774133D02*
G01X1035662Y-774133D01*
G01X1034923Y-775149D02*
G01X1036124Y-775149D01*
G01X1038026Y-773488D02*
G01X1037841Y-773303D01*
G01X1037564Y-773211D01*
G01X1037196Y-773211D01*
G01X1036916Y-773303D01*
G01X1036734Y-773488D01*
G01X1036734Y-773671D01*
G01X1036825Y-773856D01*
G01X1036916Y-773950D01*
G01X1037102Y-774042D01*
G01X1037656Y-774227D01*
G01X1037841Y-774319D01*
G01X1037932Y-774410D01*
G01X1038026Y-774595D01*
G01X1038026Y-774872D01*
G01X1037841Y-775058D01*
G01X1037564Y-775149D01*
G01X1037196Y-775149D01*
G01X1036916Y-775058D01*
G01X1036734Y-774872D01*
G01X1040020Y-773671D02*
G01X1039929Y-773488D01*
G01X1039743Y-773303D01*
G01X1039558Y-773211D01*
G01X1039190Y-773211D01*
G01X1039004Y-773303D01*
G01X1038821Y-773488D01*
G01X1038727Y-773671D01*
G01X1038636Y-773950D01*
G01X1038636Y-774410D01*
G01X1038727Y-774687D01*
G01X1038821Y-774872D01*
G01X1039004Y-775058D01*
G01X1039190Y-775149D01*
G01X1039558Y-775149D01*
G01X1039743Y-775058D01*
G01X1039929Y-774872D01*
G01X1040020Y-774687D01*
G54D11*
G01X1579Y22225D02*
G01X1579Y20589D01*
G01X762Y21407D02*
G01X2397Y21407D01*
G01X1651Y4445D02*
G01X1651Y6080D01*
G54D37*
G75*
G01X5309Y9373D02*
G03X5311Y9373I1J-150D01*
G01*
G54D12*
G75*
G01X34747Y17460D02*
G03X34747Y17457I-200J-1D01*
G01*
G75*
G01X34747Y4125D02*
G03X34747Y4122I-200J-1D01*
G01*
G75*
G01X26619Y17460D02*
G03X26619Y17457I-200J-1D01*
G01*
G75*
G01X26619Y4125D02*
G03X26619Y4122I-200J-1D01*
G01*
G75*
G01X42875Y17460D02*
G03X42875Y17457I-200J-1D01*
G01*
G75*
G01X42875Y4125D02*
G03X42875Y4122I-200J-1D01*
G01*
G36*
G01X30734Y16256D02*
G01X33401Y16256D01*
G01X33401Y12954D01*
G01X30734Y12954D01*
G01X30734Y16256D01*
G37*
G36*
G01X38798Y16256D02*
G01X41465Y16256D01*
G01X41465Y12954D01*
G01X38798Y12954D01*
G01X38798Y16256D01*
G37*
G36*
G01X46926Y16383D02*
G01X49593Y16383D01*
G01X49593Y13081D01*
G01X46926Y13081D01*
G01X46926Y16383D01*
G37*
M00*
M02*
