G04 Layer: BottomPasteMaskLayer*
G04 EasyEDA v6.2.44, 2019-10-11T09:46:47+02:00*
G04 b694c453db3c4fbcb19a449f5af86211,674c0623d3a246009f606e19fc16e94a,10*
G04 Gerber Generator version 0.2*
G04 Scale: 100 percent, Rotated: No, Reflected: No *
G04 Dimensions in millimeters *
G04 leading zeros omitted , absolute positions ,4 integer and 3 decimal *
%FSLAX43Y43*%
%MOMM*%
G90*
G71D02*

%ADD28C,0.450012*%
%ADD29C,0.699999*%
%ADD33R,1.999996X0.999998*%
%ADD34R,0.999998X1.999996*%

%LPD*%
G54D28*
G01X8874Y16891D02*
G01X10074Y16891D01*
G01X8874Y16090D02*
G01X10074Y16090D01*
G01X8874Y15290D02*
G01X10074Y15290D01*
G01X8874Y14490D02*
G01X10074Y14490D01*
G01X8874Y13693D02*
G01X10074Y13693D01*
G01X8874Y12893D02*
G01X10074Y12893D01*
G01X8874Y12092D02*
G01X10074Y12092D01*
G01X8874Y11292D02*
G01X10074Y11292D01*
G01X11049Y10328D02*
G01X11049Y9128D01*
G01X11849Y10328D02*
G01X11849Y9128D01*
G01X12649Y10328D02*
G01X12649Y9128D01*
G01X13449Y10328D02*
G01X13449Y9128D01*
G01X14246Y10328D02*
G01X14246Y9128D01*
G01X15046Y10328D02*
G01X15046Y9128D01*
G01X15847Y10328D02*
G01X15847Y9128D01*
G01X16647Y10328D02*
G01X16647Y9128D01*
G01X17637Y11303D02*
G01X18837Y11303D01*
G01X17637Y12103D02*
G01X18837Y12103D01*
G01X17637Y12903D02*
G01X18837Y12903D01*
G01X17637Y13703D02*
G01X18837Y13703D01*
G01X17637Y14500D02*
G01X18837Y14500D01*
G01X17637Y15300D02*
G01X18837Y15300D01*
G01X17637Y16101D02*
G01X18837Y16101D01*
G01X17637Y16901D02*
G01X18837Y16901D01*
G01X16637Y19065D02*
G01X16637Y17865D01*
G01X15836Y19065D02*
G01X15836Y17865D01*
G01X15036Y19065D02*
G01X15036Y17865D01*
G01X14236Y19065D02*
G01X14236Y17865D01*
G01X13439Y19065D02*
G01X13439Y17865D01*
G01X12639Y19065D02*
G01X12639Y17865D01*
G01X11838Y19065D02*
G01X11838Y17865D01*
G01X11038Y19065D02*
G01X11038Y17865D01*
G54D29*
G01X31787Y3429D02*
G01X33287Y3429D01*
G01X31787Y4699D02*
G01X33287Y4699D01*
G01X31787Y5969D02*
G01X33287Y5969D01*
G01X31787Y7239D02*
G01X33287Y7239D01*
G01X37832Y3429D02*
G01X39332Y3429D01*
G01X37832Y4699D02*
G01X39332Y4699D01*
G01X37832Y5969D02*
G01X39332Y5969D01*
G01X37832Y7239D02*
G01X39332Y7239D01*
G01X31787Y21082D02*
G01X33287Y21082D01*
G01X31787Y22352D02*
G01X33287Y22352D01*
G01X31787Y23622D02*
G01X33287Y23622D01*
G01X31787Y24892D02*
G01X33287Y24892D01*
G01X37832Y21082D02*
G01X39332Y21082D01*
G01X37832Y22352D02*
G01X39332Y22352D01*
G01X37832Y23622D02*
G01X39332Y23622D01*
G01X37832Y24892D02*
G01X39332Y24892D01*
G01X31787Y11938D02*
G01X33287Y11938D01*
G01X31787Y13208D02*
G01X33287Y13208D01*
G01X31787Y14478D02*
G01X33287Y14478D01*
G01X31787Y15748D02*
G01X33287Y15748D01*
G01X37832Y11938D02*
G01X39332Y11938D01*
G01X37832Y13208D02*
G01X39332Y13208D01*
G01X37832Y14478D02*
G01X39332Y14478D01*
G01X37832Y15748D02*
G01X39332Y15748D01*
G36*
G01X12212Y21538D02*
G01X14711Y21538D01*
G01X14711Y22038D01*
G01X12212Y22038D01*
G01X12212Y21538D01*
G37*
G36*
G01X12661Y22737D02*
G01X14262Y22737D01*
G01X14262Y23236D01*
G01X12661Y23236D01*
G01X12661Y22737D01*
G37*
G36*
G01X12212Y23935D02*
G01X14711Y23935D01*
G01X14711Y24435D01*
G01X12212Y24435D01*
G01X12212Y23935D01*
G37*
G36*
G01X44761Y3978D02*
G01X43761Y3978D01*
G01X43761Y2878D01*
G01X44761Y2878D01*
G01X44761Y3978D01*
G37*
G36*
G01X43361Y3978D02*
G01X42361Y3978D01*
G01X42361Y2878D01*
G01X43361Y2878D01*
G01X43361Y3978D01*
G37*
G36*
G01X45015Y8677D02*
G01X44015Y8677D01*
G01X44015Y7577D01*
G01X45015Y7577D01*
G01X45015Y8677D01*
G37*
G36*
G01X43615Y8677D02*
G01X42615Y8677D01*
G01X42615Y7577D01*
G01X43615Y7577D01*
G01X43615Y8677D01*
G37*
G36*
G01X45015Y7026D02*
G01X44015Y7026D01*
G01X44015Y5926D01*
G01X45015Y5926D01*
G01X45015Y7026D01*
G37*
G36*
G01X43615Y7026D02*
G01X42615Y7026D01*
G01X42615Y5926D01*
G01X43615Y5926D01*
G01X43615Y7026D01*
G37*
G36*
G01X34016Y896D02*
G01X34817Y896D01*
G01X34817Y1896D01*
G01X34016Y1896D01*
G01X34016Y896D01*
G37*
G36*
G01X36556Y896D02*
G01X37357Y896D01*
G01X37357Y1896D01*
G01X36556Y1896D01*
G01X36556Y896D01*
G37*
G36*
G01X27139Y7023D02*
G01X27139Y5422D01*
G01X28740Y5422D01*
G01X28740Y7023D01*
G01X27139Y7023D01*
G37*
G36*
G01X27139Y4224D02*
G01X27139Y2623D01*
G01X28740Y2623D01*
G01X28740Y4224D01*
G01X27139Y4224D01*
G37*
G36*
G01X21139Y6010D02*
G01X20139Y6010D01*
G01X20139Y4910D01*
G01X21139Y4910D01*
G01X21139Y6010D01*
G37*
G36*
G01X19739Y6010D02*
G01X18739Y6010D01*
G01X18739Y4910D01*
G01X19739Y4910D01*
G01X19739Y6010D01*
G37*
G36*
G01X21139Y4232D02*
G01X20139Y4232D01*
G01X20139Y3132D01*
G01X21139Y3132D01*
G01X21139Y4232D01*
G37*
G36*
G01X19739Y4232D02*
G01X18739Y4232D01*
G01X18739Y3132D01*
G01X19739Y3132D01*
G01X19739Y4232D01*
G37*
G36*
G01X21266Y21504D02*
G01X20266Y21504D01*
G01X20266Y20404D01*
G01X21266Y20404D01*
G01X21266Y21504D01*
G37*
G36*
G01X19866Y21504D02*
G01X18866Y21504D01*
G01X18866Y20404D01*
G01X19866Y20404D01*
G01X19866Y21504D01*
G37*
G36*
G01X21266Y23282D02*
G01X20266Y23282D01*
G01X20266Y22182D01*
G01X21266Y22182D01*
G01X21266Y23282D01*
G37*
G36*
G01X19866Y23282D02*
G01X18866Y23282D01*
G01X18866Y22182D01*
G01X19866Y22182D01*
G01X19866Y23282D01*
G37*
G36*
G01X18738Y1355D02*
G01X19738Y1355D01*
G01X19738Y2455D01*
G01X18738Y2455D01*
G01X18738Y1355D01*
G37*
G36*
G01X20138Y1355D02*
G01X21138Y1355D01*
G01X21138Y2455D01*
G01X20138Y2455D01*
G01X20138Y1355D01*
G37*
G36*
G01X18865Y23961D02*
G01X19865Y23961D01*
G01X19865Y25061D01*
G01X18865Y25061D01*
G01X18865Y23961D01*
G37*
G36*
G01X20265Y23961D02*
G01X21265Y23961D01*
G01X21265Y25061D01*
G01X20265Y25061D01*
G01X20265Y23961D01*
G37*
G36*
G01X15805Y3978D02*
G01X14805Y3978D01*
G01X14805Y2878D01*
G01X15805Y2878D01*
G01X15805Y3978D01*
G37*
G36*
G01X14405Y3978D02*
G01X13405Y3978D01*
G01X13405Y2878D01*
G01X14405Y2878D01*
G01X14405Y3978D01*
G37*
G36*
G01X1974Y13801D02*
G01X2974Y13801D01*
G01X2974Y14901D01*
G01X1974Y14901D01*
G01X1974Y13801D01*
G37*
G36*
G01X3374Y13801D02*
G01X4374Y13801D01*
G01X4374Y14901D01*
G01X3374Y14901D01*
G01X3374Y13801D01*
G37*
G36*
G01X44761Y21758D02*
G01X43761Y21758D01*
G01X43761Y20658D01*
G01X44761Y20658D01*
G01X44761Y21758D01*
G37*
G36*
G01X43361Y21758D02*
G01X42361Y21758D01*
G01X42361Y20658D01*
G01X43361Y20658D01*
G01X43361Y21758D01*
G37*
G36*
G01X44761Y25314D02*
G01X43761Y25314D01*
G01X43761Y24214D01*
G01X44761Y24214D01*
G01X44761Y25314D01*
G37*
G36*
G01X43361Y25314D02*
G01X42361Y25314D01*
G01X42361Y24214D01*
G01X43361Y24214D01*
G01X43361Y25314D01*
G37*
G36*
G01X44761Y23536D02*
G01X43761Y23536D01*
G01X43761Y22436D01*
G01X44761Y22436D01*
G01X44761Y23536D01*
G37*
G36*
G01X43361Y23536D02*
G01X42361Y23536D01*
G01X42361Y22436D01*
G01X43361Y22436D01*
G01X43361Y23536D01*
G37*
G36*
G01X33889Y18295D02*
G01X34690Y18295D01*
G01X34690Y19295D01*
G01X33889Y19295D01*
G01X33889Y18295D01*
G37*
G36*
G01X36429Y18295D02*
G01X37230Y18295D01*
G01X37230Y19295D01*
G01X36429Y19295D01*
G01X36429Y18295D01*
G37*
G36*
G01X27139Y25438D02*
G01X27139Y23837D01*
G01X28740Y23837D01*
G01X28740Y25438D01*
G01X27139Y25438D01*
G37*
G36*
G01X27139Y22639D02*
G01X27139Y21038D01*
G01X28740Y21038D01*
G01X28740Y22639D01*
G01X27139Y22639D01*
G37*
G36*
G01X44761Y12487D02*
G01X43761Y12487D01*
G01X43761Y11387D01*
G01X44761Y11387D01*
G01X44761Y12487D01*
G37*
G36*
G01X43361Y12487D02*
G01X42361Y12487D01*
G01X42361Y11387D01*
G01X43361Y11387D01*
G01X43361Y12487D01*
G37*
G36*
G01X44888Y17440D02*
G01X43888Y17440D01*
G01X43888Y16340D01*
G01X44888Y16340D01*
G01X44888Y17440D01*
G37*
G36*
G01X43488Y17440D02*
G01X42488Y17440D01*
G01X42488Y16340D01*
G01X43488Y16340D01*
G01X43488Y17440D01*
G37*
G36*
G01X44888Y15789D02*
G01X43888Y15789D01*
G01X43888Y14689D01*
G01X44888Y14689D01*
G01X44888Y15789D01*
G37*
G36*
G01X43488Y15789D02*
G01X42488Y15789D01*
G01X42488Y14689D01*
G01X43488Y14689D01*
G01X43488Y15789D01*
G37*
G36*
G01X34016Y9278D02*
G01X34817Y9278D01*
G01X34817Y10278D01*
G01X34016Y10278D01*
G01X34016Y9278D01*
G37*
G36*
G01X36556Y9278D02*
G01X37357Y9278D01*
G01X37357Y10278D01*
G01X36556Y10278D01*
G01X36556Y9278D01*
G37*
G36*
G01X27139Y15913D02*
G01X27139Y14312D01*
G01X28740Y14312D01*
G01X28740Y15913D01*
G01X27139Y15913D01*
G37*
G36*
G01X27139Y13114D02*
G01X27139Y11513D01*
G01X28740Y11513D01*
G01X28740Y13114D01*
G01X27139Y13114D01*
G37*
G36*
G01X1974Y15579D02*
G01X2974Y15579D01*
G01X2974Y16679D01*
G01X1974Y16679D01*
G01X1974Y15579D01*
G37*
G36*
G01X3374Y15579D02*
G01X4374Y15579D01*
G01X4374Y16679D01*
G01X3374Y16679D01*
G01X3374Y15579D01*
G37*
G36*
G01X10499Y24187D02*
G01X10499Y23187D01*
G01X11599Y23187D01*
G01X11599Y24187D01*
G01X10499Y24187D01*
G37*
G36*
G01X10499Y22787D02*
G01X10499Y21787D01*
G01X11599Y21787D01*
G01X11599Y22787D01*
G01X10499Y22787D01*
G37*
G54D33*
G01X2286Y11684D03*
G01X2286Y7874D03*
G01X2286Y9779D03*
G54D34*
G01X2159Y1651D03*
G01X4191Y1651D03*
G01X6223Y1651D03*
G01X8255Y1651D03*
G01X10287Y1651D03*
G54D33*
G01X2794Y20066D03*
G01X2794Y25654D03*
G01X2794Y23749D03*
G01X2794Y21971D03*
M00*
M02*
