  0
SECTION
  2
HEADER
  9
$INSBASE
 10
0.0000
 20
0.0000
  9
$EXTMIN
 10
-57.818376618407356
 20
-57.818376618407356
  9
$EXTMAX
 10
57.818376618407356
 20
57.818376618407356
  9
$LIMMIN
 10
-57.818376618407356
 20
-57.818376618407356
  9
$LIMMAX
 10
57.818376618407356
 20
57.818376618407356
  9
$TEXTSTYLE
  7
STANDARD
  9
$CLAYER
  8
default
  0
ENDSEC
  0
SECTION
  2
TABLES
  0
TABLE
  2
LTYPE
 70
4948253
  0
LTYPE
  2
CONTINUOUS
 70
    64
  3
Solid line
 72
    65
 73
     0
 40
0.0
  0
ENDTAB
  0
TABLE
  2
LAYER
 70
     5
  0
LAYER
  2
default
 70
    64
 62
     7
  6
CONTINUOUS
  0
ENDTAB
  0
TABLE
  2
STYLE
 70
     1
  0
STYLE
  2
STANDARD
 70
     0
 40
0.0
 41
1.0
 50
0.0
 71
     0
 42
0.2
  3
txt
  4

  0
ENDTAB
  0
TABLE
  2
VIEW
 70
     0
  0
ENDTAB
  0
ENDSEC
  0
SECTION
  2
BLOCKS
  0
ENDSEC
  0
SECTION
  2
ENTITIES
  0
LINE
  8
default
 10
-54
 20
-54
 30
0.0
 11
-54
 21
54
 31
0.0
  0
LINE
  8
default
 10
-54
 20
54
 30
0.0
 11
54
 21
54
 31
0.0
  0
LINE
  8
default
 10
54
 20
54
 30
0.0
 11
54
 21
-54
 31
0.0
  0
LINE
  8
default
 10
54
 20
-54
 30
0.0
 11
-54
 21
-54
 31
0.0
  0
LINE
  8
default
 10
7.3776805525645193
 20
14.218369618965005
 30
0.0
 11
6.913993858827272
 21
12.975388646708037
 31
0.0
  0
LINE
  8
default
 10
5.459292191965524
 20
13.0762626173493
 30
0.0
 11
5.0440938374484565
 21
13.0762626173493
 31
0.0
  0
LINE
  8
default
 10
5.0440938374484565
 20
13.0762626173493
 30
0.0
 11
0
 21
13.0762626173493
 31
0.0
  0
LINE
  8
default
 10
5.459292191965524
 20
11.767966172085462
 30
0.0
 11
5.0440938374484565
 21
11.767966172085462
 31
0.0
  0
LINE
  8
default
 10
5.0440938374484565
 20
11.767966172085462
 30
0.0
 11
0
 21
11.767966172085462
 31
0.0
  0
LINE
  8
default
 10
5.0440938374484565
 20
11.767966172085462
 30
0.0
 11
5.0440938374484565
 21
13.0762626173493
 31
0.0
  0
LINE
  8
default
 10
-7.3776805525645193
 20
14.218369618965005
 30
0.0
 11
-6.913993858827272
 21
12.975388646708037
 31
0.0
  0
LINE
  8
default
 10
-5.459292191965524
 20
13.0762626173493
 30
0.0
 11
-5.0440938374484565
 21
13.0762626173493
 31
0.0
  0
LINE
  8
default
 10
-5.0440938374484565
 20
13.0762626173493
 30
0.0
 11
0
 21
13.0762626173493
 31
0.0
  0
LINE
  8
default
 10
-5.459292191965524
 20
11.767966172085462
 30
0.0
 11
-5.0440938374484565
 21
11.767966172085462
 31
0.0
  0
LINE
  8
default
 10
-5.0440938374484565
 20
11.767966172085462
 30
0.0
 11
0
 21
11.767966172085462
 31
0.0
  0
LINE
  8
default
 10
-5.0440938374484565
 20
11.767966172085462
 30
0.0
 11
-5.0440938374484565
 21
13.0762626173493
 31
0.0
  0
LINE
  8
default
 10
-8.6246290141383017
 20
13.498443589009792
 30
0.0
 11
-7.7800192626117104
 21
12.475388646708037
 31
0.0
  0
LINE
  8
default
 10
-8.594729517198525
 20
11.266017033598828
 30
0.0
 11
-8.8023286944570582
 21
10.906444710977549
 31
0.0
  0
LINE
  8
default
 10
-8.8023286944570582
 20
10.906444710977549
 30
0.0
 11
-11.324375613181287
 21
6.538131308674652
 31
0.0
  0
LINE
  8
default
 10
-7.4617115599191646
 20
10.611868810966907
 30
0.0
 11
-7.6693107371776978
 21
10.25229648834563
 31
0.0
  0
LINE
  8
default
 10
-7.6693107371776978
 20
10.25229648834563
 30
0.0
 11
-10.191357655901927
 21
5.8839830860427318
 31
0.0
  0
LINE
  8
default
 10
-7.6693107371776978
 20
10.25229648834563
 30
0.0
 11
-8.8023286944570582
 21
10.906444710977549
 31
0.0
  0
LINE
  8
default
 10
-16.002309566702824
 20
0.71992602995521615
 30
0.0
 11
-14.694013121438985
 21
0.50000000000000355
 31
0.0
  0
LINE
  8
default
 10
-14.054021709164049
 20
1.8102455837504765
 30
0.0
 11
-13.846422531905516
 21
2.1698179063717538
 31
0.0
  0
LINE
  8
default
 10
-13.846422531905516
 20
2.1698179063717538
 30
0.0
 11
-11.324375613181287
 21
6.538131308674652
 31
0.0
  0
LINE
  8
default
 10
-12.921003751884689
 20
1.1560973611185563
 30
0.0
 11
-12.713404574626155
 21
1.5156696837398336
 31
0.0
  0
LINE
  8
default
 10
-12.713404574626155
 20
1.5156696837398336
 30
0.0
 11
-10.191357655901927
 21
5.8839830860427318
 31
0.0
  0
LINE
  8
default
 10
-12.713404574626155
 20
1.5156696837398336
 30
0.0
 11
-13.846422531905516
 21
2.1698179063717538
 31
0.0
  0
LINE
  8
default
 10
-16.00230956670282
 20
-0.71992602995520993
 30
0.0
 11
-14.694013121438983
 21
-0.49999999999999822
 31
0.0
  0
LINE
  8
default
 10
-14.054021709164049
 20
-1.8102455837504712
 30
0.0
 11
-13.846422531905516
 21
-2.1698179063717493
 31
0.0
  0
LINE
  8
default
 10
-13.846422531905516
 20
-2.1698179063717493
 30
0.0
 11
-11.324375613181289
 21
-6.5381313086746475
 31
0.0
  0
LINE
  8
default
 10
-12.921003751884689
 20
-1.1560973611185519
 30
0.0
 11
-12.713404574626155
 21
-1.51566968373983
 31
0.0
  0
LINE
  8
default
 10
-12.713404574626155
 20
-1.51566968373983
 30
0.0
 11
-10.191357655901928
 21
-5.8839830860427282
 31
0.0
  0
LINE
  8
default
 10
-12.713404574626155
 20
-1.51566968373983
 30
0.0
 11
-13.846422531905516
 21
-2.1698179063717493
 31
0.0
  0
LINE
  8
default
 10
-8.6246290141383053
 20
-13.498443589009788
 30
0.0
 11
-7.7800192626117148
 21
-12.475388646708033
 31
0.0
  0
LINE
  8
default
 10
-8.5947295171985285
 20
-11.266017033598825
 30
0.0
 11
-8.8023286944570618
 21
-10.906444710977546
 31
0.0
  0
LINE
  8
default
 10
-8.8023286944570618
 20
-10.906444710977546
 30
0.0
 11
-11.324375613181289
 21
-6.5381313086746475
 31
0.0
  0
LINE
  8
default
 10
-7.4617115599191681
 20
-10.611868810966904
 30
0.0
 11
-7.6693107371777014
 21
-10.252296488345626
 31
0.0
  0
LINE
  8
default
 10
-7.6693107371777014
 20
-10.252296488345626
 30
0.0
 11
-10.191357655901928
 21
-5.8839830860427282
 31
0.0
  0
LINE
  8
default
 10
-7.6693107371777014
 20
-10.252296488345626
 30
0.0
 11
-8.8023286944570618
 21
-10.906444710977546
 31
0.0
  0
LINE
  8
default
 10
-7.377680552564521
 20
-14.218369618965003
 30
0.0
 11
-6.9139938588272738
 21
-12.975388646708037
 31
0.0
  0
LINE
  8
default
 10
-5.4592921919655257
 20
-13.0762626173493
 30
0.0
 11
-5.0440938374484583
 21
-13.0762626173493
 31
0.0
  0
LINE
  8
default
 10
-5.0440938374484583
 20
-13.0762626173493
 30
0.0
 11
-1.6013803159147011e-015
 21
-13.0762626173493
 31
0.0
  0
LINE
  8
default
 10
-5.4592921919655257
 20
-11.767966172085462
 30
0.0
 11
-5.0440938374484583
 21
-11.767966172085462
 31
0.0
  0
LINE
  8
default
 10
-5.0440938374484583
 20
-11.767966172085462
 30
0.0
 11
-1.4411602105118791e-015
 21
-11.767966172085462
 31
0.0
  0
LINE
  8
default
 10
-5.0440938374484583
 20
-11.767966172085462
 30
0.0
 11
-5.0440938374484583
 21
-13.0762626173493
 31
0.0
  0
LINE
  8
default
 10
7.3776805525645175
 20
-14.218369618965006
 30
0.0
 11
6.9139938588272702
 21
-12.975388646708037
 31
0.0
  0
LINE
  8
default
 10
5.4592921919655222
 20
-13.0762626173493
 30
0.0
 11
5.0440938374484547
 21
-13.0762626173493
 31
0.0
  0
LINE
  8
default
 10
5.0440938374484547
 20
-13.0762626173493
 30
0.0
 11
-1.6013803159147011e-015
 21
-13.0762626173493
 31
0.0
  0
LINE
  8
default
 10
5.4592921919655222
 20
-11.767966172085462
 30
0.0
 11
5.0440938374484547
 21
-11.767966172085462
 31
0.0
  0
LINE
  8
default
 10
5.0440938374484547
 20
-11.767966172085462
 30
0.0
 11
-1.4411602105118791e-015
 21
-11.767966172085462
 31
0.0
  0
LINE
  8
default
 10
5.0440938374484547
 20
-11.767966172085462
 30
0.0
 11
5.0440938374484547
 21
-13.0762626173493
 31
0.0
  0
LINE
  8
default
 10
8.6246290141382964
 20
-13.498443589009796
 30
0.0
 11
7.780019262611706
 21
-12.475388646708041
 31
0.0
  0
LINE
  8
default
 10
8.5947295171985214
 20
-11.266017033598832
 30
0.0
 11
8.8023286944570547
 21
-10.906444710977553
 31
0.0
  0
LINE
  8
default
 10
8.8023286944570547
 20
-10.906444710977553
 30
0.0
 11
11.324375613181285
 21
-6.5381313086746564
 31
0.0
  0
LINE
  8
default
 10
7.4617115599191592
 20
-10.611868810966911
 30
0.0
 11
7.6693107371776925
 21
-10.252296488345632
 31
0.0
  0
LINE
  8
default
 10
7.6693107371776925
 20
-10.252296488345632
 30
0.0
 11
10.191357655901923
 21
-5.8839830860427362
 31
0.0
  0
LINE
  8
default
 10
7.6693107371776925
 20
-10.252296488345632
 30
0.0
 11
8.8023286944570547
 21
-10.906444710977553
 31
0.0
  0
LINE
  8
default
 10
16.002309566702824
 20
-0.71992602995522237
 30
0.0
 11
14.694013121438985
 21
-0.50000000000000799
 31
0.0
  0
LINE
  8
default
 10
14.054021709164049
 20
-1.8102455837504818
 30
0.0
 11
13.846422531905516
 21
-2.16981790637176
 31
0.0
  0
LINE
  8
default
 10
13.846422531905516
 20
-2.16981790637176
 30
0.0
 11
11.324375613181285
 21
-6.5381313086746564
 31
0.0
  0
LINE
  8
default
 10
12.921003751884687
 20
-1.1560973611185617
 30
0.0
 11
12.713404574626153
 21
-1.5156696837398398
 31
0.0
  0
LINE
  8
default
 10
12.713404574626153
 20
-1.5156696837398398
 30
0.0
 11
10.191357655901923
 21
-5.8839830860427362
 31
0.0
  0
LINE
  8
default
 10
12.713404574626153
 20
-1.5156696837398398
 30
0.0
 11
13.846422531905516
 21
-2.16981790637176
 31
0.0
  0
LINE
  8
default
 10
16.002309566702824
 20
0.71992602995521615
 30
0.0
 11
14.694013121438985
 21
0.50000000000000355
 31
0.0
  0
LINE
  8
default
 10
14.054021709164049
 20
1.8102455837504765
 30
0.0
 11
13.846422531905516
 21
2.1698179063717538
 31
0.0
  0
LINE
  8
default
 10
13.846422531905516
 20
2.1698179063717538
 30
0.0
 11
11.324375613181287
 21
6.538131308674652
 31
0.0
  0
LINE
  8
default
 10
12.921003751884689
 20
1.1560973611185563
 30
0.0
 11
12.713404574626155
 21
1.5156696837398336
 31
0.0
  0
LINE
  8
default
 10
12.713404574626155
 20
1.5156696837398336
 30
0.0
 11
10.191357655901927
 21
5.8839830860427318
 31
0.0
  0
LINE
  8
default
 10
12.713404574626155
 20
1.5156696837398336
 30
0.0
 11
13.846422531905516
 21
2.1698179063717538
 31
0.0
  0
LINE
  8
default
 10
8.6246290141383017
 20
13.498443589009792
 30
0.0
 11
7.7800192626117104
 21
12.475388646708037
 31
0.0
  0
LINE
  8
default
 10
8.594729517198525
 20
11.266017033598828
 30
0.0
 11
8.8023286944570582
 21
10.906444710977549
 31
0.0
  0
LINE
  8
default
 10
8.8023286944570582
 20
10.906444710977549
 30
0.0
 11
11.324375613181287
 21
6.538131308674652
 31
0.0
  0
LINE
  8
default
 10
7.4617115599191646
 20
10.611868810966907
 30
0.0
 11
7.6693107371776978
 21
10.25229648834563
 31
0.0
  0
LINE
  8
default
 10
7.6693107371776978
 20
10.25229648834563
 30
0.0
 11
10.191357655901927
 21
5.8839830860427318
 31
0.0
  0
LINE
  8
default
 10
7.6693107371776978
 20
10.25229648834563
 30
0.0
 11
8.8023286944570582
 21
10.906444710977549
 31
0.0
  0
ARC
  8
default
 10
0
 20
-4.4408920985006262e-016
 30
0
 40
9
 50
2.8271597168564595e-015
 51
59.999999999999993
  0
ARC
  8
default
 10
0
 20
-8.8817841970012523e-016
 30
0
 40
9
 50
59.999999999999993
 51
119.99999999999999
  0
ARC
  8
default
 10
-8.8817841970012523e-016
 20
0
 30
0
 40
9
 50
119.99999999999999
 51
180
  0
ARC
  8
default
 10
0
 20
4.4408920985006262e-016
 30
0
 40
9
 50
180
 51
240
  0
ARC
  8
default
 10
0
 20
8.8817841970012523e-016
 30
0
 40
9
 50
240
 51
300
  0
ARC
  8
default
 10
8.8817841970012523e-016
 20
0
 30
0
 40
9
 50
300
 51
0
  0
ARC
  8
default
 10
0.92156381444784241
 20
13.076888804903334
 30
0
 40
5.0086229348380567
 50
10.609726298675106
 51
100.6025703954957
  0
ARC
  8
default
 10
5.5194608196880681
 20
20.417194390229891
 30
0
 40
6.4263552995516742
 50
272.89973972820343
 51
297.64416526233134
  0
ARC
  8
default
 10
3.8151667232867656
 20
18.020092142166668
 30
0
 40
5.2100478814703868
 50
288.39511933547487
 51
313.13954486960273
  0
ARC
  8
default
 10
3.4344432329459886
 20
15.687525598213718
 30
0
 40
4.411684417747189
 50
297.32092892300636
 51
322.06535445713428
  0
ARC
  8
default
 10
-0.92156381444784241
 20
13.076888804903334
 30
0
 40
5.0086229348380567
 50
79.39742960450431
 51
169.3902737013249
  0
ARC
  8
default
 10
-5.5194608196880681
 20
20.417194390229891
 30
0
 40
6.4263552995516742
 50
242.35583473766866
 51
267.10026027179657
  0
ARC
  8
default
 10
-3.8151667232867656
 20
18.020092142166668
 30
0
 40
5.2100478814703868
 50
226.86045513039724
 51
251.60488066452515
  0
ARC
  8
default
 10
-3.4344432329459886
 20
15.687525598213718
 30
0
 40
4.411684417747189
 50
217.93464554286575
 51
242.67907107699364
  0
ARC
  8
default
 10
-10.864136000286692
 20
7.3365420769719876
 30
0
 40
5.0086229348380567
 50
70.609726298675128
 51
160.60257039549569
  0
ARC
  8
default
 10
-14.922078606100182
 20
14.988590480157702
 30
0
 40
6.4263552995516777
 50
332.89973972820337
 51
357.64416526233128
  0
ARC
  8
default
 10
-13.698274212009293
 20
12.314077373122711
 30
0
 40
5.210047881470385
 50
348.39511933547487
 51
13.13954486960275
  0
ARC
  8
default
 10
-11.868574074098758
 20
10.818077886693647
 30
0
 40
4.4116844177471899
 50
357.32092892300631
 51
22.065354457134188
  0
ARC
  8
default
 10
-11.785699814734533
 20
5.7403467279313478
 30
0
 40
5.0086229348380567
 50
139.39742960450431
 51
229.39027370132487
  0
ARC
  8
default
 10
-20.44153942578825
 20
5.4286039100722006
 30
0
 40
6.4263552995516751
 50
302.35583473766866
 51
327.10026027179657
  0
ARC
  8
default
 10
-17.51344093529606
 20
5.7060147690439678
 30
0
 40
5.2100478814703921
 50
286.86045513039721
 51
311.60488066452513
  0
ARC
  8
default
 10
-15.303017307044744
 20
4.8694477115200794
 30
0
 40
4.4116844177471899
 50
277.93464554286572
 51
302.67907107699358
  0
ARC
  8
default
 10
-11.785699814734535
 20
-5.7403467279313443
 30
0
 40
5.0086229348380567
 50
130.6097262986751
 51
220.60257039549566
  0
ARC
  8
default
 10
-20.441539425788257
 20
-5.4286039100721926
 30
0
 40
6.4263552995516804
 50
32.8997397282034
 51
57.644165262331299
  0
ARC
  8
default
 10
-17.513440935296064
 20
-5.7060147690439535
 30
0
 40
5.2100478814703859
 50
48.395119335474803
 51
73.139544869602702
  0
ARC
  8
default
 10
-15.303017307044746
 20
-4.8694477115200705
 30
0
 40
4.4116844177471863
 50
57.320928923006349
 51
82.065354457134248
  0
ARC
  8
default
 10
-10.864136000286694
 20
-7.336542076971984
 30
0
 40
5.0086229348380567
 50
199.39742960450431
 51
289.39027370132487
  0
ARC
  8
default
 10
-14.922078606100182
 20
-14.98859048015769
 30
0
 40
6.4263552995516724
 50
2.3558347376686619
 51
27.100260271796561
  0
ARC
  8
default
 10
-13.698274212009297
 20
-12.314077373122707
 30
0
 40
5.210047881470385
 50
346.86045513039727
 51
11.604880664525147
  0
ARC
  8
default
 10
-11.868574074098763
 20
-10.818077886693642
 30
0
 40
4.4116844177471908
 50
337.93464554286578
 51
2.679071076993687
  0
ARC
  8
default
 10
-0.92156381444784419
 20
-13.076888804903334
 30
0
 40
5.0086229348380567
 50
190.6097262986751
 51
280.60257039549572
  0
ARC
  8
default
 10
-5.5194608196880841
 20
-20.417194390229902
 30
0
 40
6.4263552995516839
 50
92.899739728203315
 51
117.6441652623312
  0
ARC
  8
default
 10
-3.815166723286771
 20
-18.020092142166668
 30
0
 40
5.210047881470385
 50
108.39511933547482
 51
133.1395448696027
  0
ARC
  8
default
 10
-3.4344432329459904
 20
-15.687525598213718
 30
0
 40
4.411684417747189
 50
117.32092892300636
 51
142.06535445713425
  0
ARC
  8
default
 10
0.92156381444784019
 20
-13.076888804903334
 30
0
 40
5.0086229348380567
 50
259.39742960450428
 51
349.39027370132487
  0
ARC
  8
default
 10
5.5194608196880619
 20
-20.417194390229891
 30
0
 40
6.4263552995516751
 50
62.35583473766863
 51
87.100260271796529
  0
ARC
  8
default
 10
3.815166723286759
 20
-18.020092142166671
 30
0
 40
5.2100478814703894
 50
46.86045513039722
 51
71.604880664525112
  0
ARC
  8
default
 10
3.4344432329459869
 20
-15.687525598213718
 30
0
 40
4.411684417747189
 50
37.934645542865752
 51
62.679071076993644
  0
ARC
  8
default
 10
10.864136000286688
 20
-7.336542076971992
 30
0
 40
5.0086229348380567
 50
250.60972629867507
 51
340.60257039549566
  0
ARC
  8
default
 10
14.922078606100175
 20
-14.988590480157697
 30
0
 40
6.4263552995516724
 50
152.89973972820346
 51
177.64416526233134
  0
ARC
  8
default
 10
13.698274212009288
 20
-12.31407737312272
 30
0
 40
5.210047881470385
 50
168.39511933547482
 51
193.1395448696027
  0
ARC
  8
default
 10
11.868574074098753
 20
-10.818077886693649
 30
0
 40
4.4116844177471908
 50
177.32092892300631
 51
202.06535445713422
  0
ARC
  8
default
 10
11.785699814734532
 20
-5.7403467279313531
 30
0
 40
5.0086229348380567
 50
319.39742960450428
 51
49.390273701324872
  0
ARC
  8
default
 10
20.441539425788246
 20
-5.4286039100722094
 30
0
 40
6.4263552995516759
 50
122.35583473766863
 51
147.10026027179651
  0
ARC
  8
default
 10
17.51344093529606
 20
-5.7060147690439731
 30
0
 40
5.2100478814703912
 50
106.86045513039721
 51
131.60488066452513
  0
ARC
  8
default
 10
15.303017307044746
 20
-4.8694477115200874
 30
0
 40
4.4116844177471943
 50
97.934645542865724
 51
122.67907107699362
  0
ARC
  8
default
 10
11.785699814734533
 20
5.7403467279313478
 30
0
 40
5.0086229348380567
 50
310.60972629867513
 51
40.60257039549569
  0
ARC
  8
default
 10
20.441539425788285
 20
5.4286039100721926
 30
0
 40
6.426355299551699
 50
212.8997397282032
 51
237.64416526233111
  0
ARC
  8
default
 10
17.51344093529606
 20
5.7060147690439678
 30
0
 40
5.2100478814703921
 50
228.39511933547487
 51
253.13954486960279
  0
ARC
  8
default
 10
15.303017307044744
 20
4.8694477115200794
 30
0
 40
4.4116844177471899
 50
237.32092892300639
 51
262.06535445713428
  0
ARC
  8
default
 10
10.864136000286692
 20
7.3365420769719876
 30
0
 40
5.0086229348380567
 50
19.397429604504318
 51
109.39027370132487
  0
ARC
  8
default
 10
14.922078606100182
 20
14.988590480157702
 30
0
 40
6.4263552995516777
 50
182.35583473766872
 51
207.10026027179663
  0
ARC
  8
default
 10
13.698274212009293
 20
12.314077373122711
 30
0
 40
5.210047881470385
 50
166.86045513039727
 51
191.60488066452515
  0
ARC
  8
default
 10
11.86857407409876
 20
10.818077886693647
 30
0
 40
4.4116844177471899
 50
157.93464554286584
 51
182.67907107699372
  0
ARC
  8
default
 10
0
 20
0
 30
0
 40
20.5
 50
0
 51
180
  0
ARC
  8
default
 10
0
 20
0
 30
0
 40
20.5
 50
180
 51
0
  0
ARC
  8
default
 10
0
 20
0
 30
0
 40
23.5
 50
0
 51
180
  0
ARC
  8
default
 10
0
 20
0
 30
0
 40
23.5
 50
180
 51
0
  0
ENDSEC
  0
EOF
