  0
SECTION
  2
HEADER
  9
$INSBASE
 10
0.0000
 20
0.0000
  9
$EXTMIN
 10
-57.818376618407356
 20
-57.818376618407356
  9
$EXTMAX
 10
57.818376618407356
 20
57.818376618407356
  9
$LIMMIN
 10
-57.818376618407356
 20
-57.818376618407356
  9
$LIMMAX
 10
57.818376618407356
 20
57.818376618407356
  9
$TEXTSTYLE
  7
STANDARD
  9
$CLAYER
  8
default
  0
ENDSEC
  0
SECTION
  2
TABLES
  0
TABLE
  2
LTYPE
 70
4948253
  0
LTYPE
  2
CONTINUOUS
 70
    64
  3
Solid line
 72
    65
 73
     0
 40
0.0
  0
ENDTAB
  0
TABLE
  2
LAYER
 70
     5
  0
LAYER
  2
default
 70
    64
 62
     7
  6
CONTINUOUS
  0
ENDTAB
  0
TABLE
  2
STYLE
 70
     1
  0
STYLE
  2
STANDARD
 70
     0
 40
0.0
 41
1.0
 50
0.0
 71
     0
 42
0.2
  3
txt
  4

  0
ENDTAB
  0
TABLE
  2
VIEW
 70
     0
  0
ENDTAB
  0
ENDSEC
  0
SECTION
  2
BLOCKS
  0
ENDSEC
  0
SECTION
  2
ENTITIES
  0
LINE
  8
default
 10
-54
 20
-54
 30
0.0
 11
-54
 21
54
 31
0.0
  0
LINE
  8
default
 10
-54
 20
54
 30
0.0
 11
54
 21
54
 31
0.0
  0
LINE
  8
default
 10
54
 20
54
 30
0.0
 11
54
 21
-54
 31
0.0
  0
LINE
  8
default
 10
54
 20
-54
 30
0.0
 11
-54
 21
-54
 31
0.0
  0
LINE
  8
default
 10
7.218233479433743
 20
14.326803194440938
 30
0.0
 11
6.6561049583145895
 21
12.528711968311995
 31
0.0
  0
LINE
  8
default
 10
4.9960149452884535
 20
14.807438014209902
 30
0.0
 11
4.6090461155840936
 21
14.807438014209902
 31
0.0
  0
LINE
  8
default
 10
4.6090461155840936
 20
14.807438014209902
 30
0.0
 11
0
 21
14.807438014209902
 31
0.0
  0
LINE
  8
default
 10
4.9960149452884535
 20
12.969181073500751
 30
0.0
 11
4.6090461155840936
 21
12.969181073500751
 31
0.0
  0
LINE
  8
default
 10
4.6090461155840936
 20
12.969181073500751
 30
0.0
 11
0
 21
12.969181073500751
 31
0.0
  0
LINE
  8
default
 10
4.6090461155840936
 20
12.969181073500751
 30
0.0
 11
4.6090461155840936
 21
14.807438014209902
 31
0.0
  0
LINE
  8
default
 10
-7.218233479433743
 20
14.326803194440938
 30
0.0
 11
-6.6561049583145895
 21
12.528711968311995
 31
0.0
  0
LINE
  8
default
 10
-4.9960149452884535
 20
14.807438014209902
 30
0.0
 11
-4.6090461155840936
 21
14.807438014209902
 31
0.0
  0
LINE
  8
default
 10
-4.6090461155840936
 20
14.807438014209902
 30
0.0
 11
0
 21
14.807438014209902
 31
0.0
  0
LINE
  8
default
 10
-4.9960149452884535
 20
12.969181073500751
 30
0.0
 11
-4.6090461155840936
 21
12.969181073500751
 31
0.0
  0
LINE
  8
default
 10
-4.6090461155840936
 20
12.969181073500751
 30
0.0
 11
0
 21
12.969181073500751
 31
0.0
  0
LINE
  8
default
 10
-4.6090461155840936
 20
12.969181073500751
 30
0.0
 11
-4.6090461155840936
 21
14.807438014209902
 31
0.0
  0
LINE
  8
default
 10
-8.7982587816890252
 20
13.414575160857432
 30
0.0
 11
-7.5221303620990279
 21
12.028711968311995
 31
0.0
  0
LINE
  8
default
 10
-10.325610012624949
 20
11.730394867411476
 30
0.0
 11
-10.519094427477128
 21
11.395270030414766
 31
0.0
  0
LINE
  8
default
 10
-10.519094427477128
 20
11.395270030414766
 30
0.0
 11
-12.823617485269176
 21
7.4037190071049528
 31
0.0
  0
LINE
  8
default
 10
-8.7336328032877599
 20
10.811266397056901
 30
0.0
 11
-8.9271172181399407
 21
10.47614156006019
 31
0.0
  0
LINE
  8
default
 10
-8.9271172181399407
 20
10.47614156006019
 30
0.0
 11
-11.231640275931987
 21
6.4845905367503773
 31
0.0
  0
LINE
  8
default
 10
-8.9271172181399407
 20
10.47614156006019
 30
0.0
 11
-10.519094427477128
 21
11.395270030414766
 31
0.0
  0
LINE
  8
default
 10
-16.016492261122771
 20
0.91222803358351001
 30
0.0
 11
-14.17823532041362
 21
0.50000000000000355
 31
0.0
  0
LINE
  8
default
 10
-15.321624957913404
 20
3.0770431467984301
 30
0.0
 11
-15.128140543061225
 21
3.4121679837951397
 31
0.0
  0
LINE
  8
default
 10
-15.128140543061225
 20
3.4121679837951397
 30
0.0
 11
-12.823617485269176
 21
7.4037190071049528
 31
0.0
  0
LINE
  8
default
 10
-13.729647748576214
 20
2.1579146764438546
 30
0.0
 11
-13.536163333724033
 21
2.4930395134405643
 31
0.0
  0
LINE
  8
default
 10
-13.536163333724033
 20
2.4930395134405643
 30
0.0
 11
-11.231640275931987
 21
6.4845905367503773
 31
0.0
  0
LINE
  8
default
 10
-13.536163333724033
 20
2.4930395134405643
 30
0.0
 11
-15.128140543061225
 21
3.4121679837951397
 31
0.0
  0
LINE
  8
default
 10
-16.016492261122771
 20
-0.91222803358350379
 30
0.0
 11
-14.178235320413618
 21
-0.49999999999999822
 31
0.0
  0
LINE
  8
default
 10
-15.321624957913404
 20
-3.0770431467984238
 30
0.0
 11
-15.128140543061225
 21
-3.412167983795134
 31
0.0
  0
LINE
  8
default
 10
-15.128140543061225
 20
-3.412167983795134
 30
0.0
 11
-12.823617485269178
 21
-7.4037190071049475
 31
0.0
  0
LINE
  8
default
 10
-13.729647748576214
 20
-2.1579146764438493
 30
0.0
 11
-13.536163333724035
 21
-2.4930395134405594
 31
0.0
  0
LINE
  8
default
 10
-13.536163333724035
 20
-2.4930395134405594
 30
0.0
 11
-11.231640275931989
 21
-6.4845905367503729
 31
0.0
  0
LINE
  8
default
 10
-13.536163333724035
 20
-2.4930395134405594
 30
0.0
 11
-15.128140543061225
 21
-3.412167983795134
 31
0.0
  0
LINE
  8
default
 10
-8.7982587816890305
 20
-13.414575160857428
 30
0.0
 11
-7.5221303620990323
 21
-12.028711968311992
 31
0.0
  0
LINE
  8
default
 10
-10.325610012624953
 20
-11.730394867411471
 30
0.0
 11
-10.519094427477132
 21
-11.39527003041476
 31
0.0
  0
LINE
  8
default
 10
-10.519094427477132
 20
-11.39527003041476
 30
0.0
 11
-12.823617485269178
 21
-7.4037190071049475
 31
0.0
  0
LINE
  8
default
 10
-8.7336328032877635
 20
-10.811266397056897
 30
0.0
 11
-8.9271172181399425
 21
-10.476141560060187
 31
0.0
  0
LINE
  8
default
 10
-8.9271172181399425
 20
-10.476141560060187
 30
0.0
 11
-11.231640275931989
 21
-6.4845905367503729
 31
0.0
  0
LINE
  8
default
 10
-8.9271172181399425
 20
-10.476141560060187
 30
0.0
 11
-10.519094427477132
 21
-11.39527003041476
 31
0.0
  0
LINE
  8
default
 10
-7.2182334794337448
 20
-14.326803194440938
 30
0.0
 11
-6.6561049583145913
 21
-12.528711968311995
 31
0.0
  0
LINE
  8
default
 10
-4.9960149452884552
 20
-14.807438014209902
 30
0.0
 11
-4.6090461155840954
 21
-14.807438014209902
 31
0.0
  0
LINE
  8
default
 10
-4.6090461155840954
 20
-14.807438014209902
 30
0.0
 11
-1.8133881567674997e-015
 21
-14.807438014209902
 31
0.0
  0
LINE
  8
default
 10
-4.9960149452884552
 20
-12.969181073500751
 30
0.0
 11
-4.6090461155840954
 21
-12.969181073500751
 31
0.0
  0
LINE
  8
default
 10
-4.6090461155840954
 20
-12.969181073500751
 30
0.0
 11
-1.5882666089225129e-015
 21
-12.969181073500751
 31
0.0
  0
LINE
  8
default
 10
-4.6090461155840954
 20
-12.969181073500751
 30
0.0
 11
-4.6090461155840954
 21
-14.807438014209902
 31
0.0
  0
LINE
  8
default
 10
7.2182334794337413
 20
-14.326803194440938
 30
0.0
 11
6.6561049583145877
 21
-12.528711968311995
 31
0.0
  0
LINE
  8
default
 10
4.9960149452884517
 20
-14.807438014209902
 30
0.0
 11
4.6090461155840918
 21
-14.807438014209902
 31
0.0
  0
LINE
  8
default
 10
4.6090461155840918
 20
-14.807438014209902
 30
0.0
 11
-1.8133881567674997e-015
 21
-14.807438014209902
 31
0.0
  0
LINE
  8
default
 10
4.9960149452884517
 20
-12.969181073500751
 30
0.0
 11
4.6090461155840918
 21
-12.969181073500751
 31
0.0
  0
LINE
  8
default
 10
4.6090461155840918
 20
-12.969181073500751
 30
0.0
 11
-1.5882666089225129e-015
 21
-12.969181073500751
 31
0.0
  0
LINE
  8
default
 10
4.6090461155840918
 20
-12.969181073500751
 30
0.0
 11
4.6090461155840918
 21
-14.807438014209902
 31
0.0
  0
LINE
  8
default
 10
8.7982587816890199
 20
-13.414575160857435
 30
0.0
 11
7.5221303620990234
 21
-12.028711968311999
 31
0.0
  0
LINE
  8
default
 10
10.325610012624944
 20
-11.73039486741148
 30
0.0
 11
10.519094427477125
 21
-11.395270030414769
 31
0.0
  0
LINE
  8
default
 10
10.519094427477125
 20
-11.395270030414769
 30
0.0
 11
12.823617485269173
 21
-7.4037190071049572
 31
0.0
  0
LINE
  8
default
 10
8.7336328032877546
 20
-10.811266397056903
 30
0.0
 11
8.9271172181399336
 21
-10.476141560060192
 31
0.0
  0
LINE
  8
default
 10
8.9271172181399336
 20
-10.476141560060192
 30
0.0
 11
11.231640275931984
 21
-6.4845905367503809
 31
0.0
  0
LINE
  8
default
 10
8.9271172181399336
 20
-10.476141560060192
 30
0.0
 11
10.519094427477125
 21
-11.395270030414769
 31
0.0
  0
LINE
  8
default
 10
16.016492261122771
 20
-0.91222803358351623
 30
0.0
 11
14.17823532041362
 21
-0.50000000000000799
 31
0.0
  0
LINE
  8
default
 10
15.321624957913402
 20
-3.0770431467984354
 30
0.0
 11
15.128140543061221
 21
-3.4121679837951455
 31
0.0
  0
LINE
  8
default
 10
15.128140543061221
 20
-3.4121679837951455
 30
0.0
 11
12.823617485269173
 21
-7.4037190071049572
 31
0.0
  0
LINE
  8
default
 10
13.729647748576213
 20
-2.157914676443859
 30
0.0
 11
13.536163333724033
 21
-2.4930395134405692
 31
0.0
  0
LINE
  8
default
 10
13.536163333724033
 20
-2.4930395134405692
 30
0.0
 11
11.231640275931984
 21
-6.4845905367503809
 31
0.0
  0
LINE
  8
default
 10
13.536163333724033
 20
-2.4930395134405692
 30
0.0
 11
15.128140543061221
 21
-3.4121679837951455
 31
0.0
  0
LINE
  8
default
 10
16.016492261122771
 20
0.91222803358351001
 30
0.0
 11
14.17823532041362
 21
0.50000000000000355
 31
0.0
  0
LINE
  8
default
 10
15.321624957913404
 20
3.0770431467984301
 30
0.0
 11
15.128140543061225
 21
3.4121679837951397
 31
0.0
  0
LINE
  8
default
 10
15.128140543061225
 20
3.4121679837951397
 30
0.0
 11
12.823617485269176
 21
7.4037190071049528
 31
0.0
  0
LINE
  8
default
 10
13.729647748576214
 20
2.1579146764438546
 30
0.0
 11
13.536163333724033
 21
2.4930395134405643
 31
0.0
  0
LINE
  8
default
 10
13.536163333724033
 20
2.4930395134405643
 30
0.0
 11
11.231640275931987
 21
6.4845905367503773
 31
0.0
  0
LINE
  8
default
 10
13.536163333724033
 20
2.4930395134405643
 30
0.0
 11
15.128140543061225
 21
3.4121679837951397
 31
0.0
  0
LINE
  8
default
 10
8.7982587816890252
 20
13.414575160857432
 30
0.0
 11
7.5221303620990279
 21
12.028711968311995
 31
0.0
  0
LINE
  8
default
 10
10.325610012624949
 20
11.730394867411476
 30
0.0
 11
10.519094427477128
 21
11.395270030414766
 31
0.0
  0
LINE
  8
default
 10
10.519094427477128
 20
11.395270030414766
 30
0.0
 11
12.823617485269176
 21
7.4037190071049528
 31
0.0
  0
LINE
  8
default
 10
8.7336328032877599
 20
10.811266397056901
 30
0.0
 11
8.9271172181399407
 21
10.47614156006019
 31
0.0
  0
LINE
  8
default
 10
8.9271172181399407
 20
10.47614156006019
 30
0.0
 11
11.231640275931987
 21
6.4845905367503773
 31
0.0
  0
LINE
  8
default
 10
8.9271172181399407
 20
10.47614156006019
 30
0.0
 11
10.519094427477128
 21
11.395270030414766
 31
0.0
  0
ARC
  8
default
 10
0
 20
-4.4408920985006262e-016
 30
0
 40
9
 50
2.8271597168564595e-015
 51
59.999999999999993
  0
ARC
  8
default
 10
0
 20
-8.8817841970012523e-016
 30
0
 40
9
 50
59.999999999999993
 51
119.99999999999999
  0
ARC
  8
default
 10
-8.8817841970012523e-016
 20
0
 30
0
 40
9
 50
119.99999999999999
 51
180
  0
ARC
  8
default
 10
0
 20
4.4408920985006262e-016
 30
0
 40
9
 50
180
 51
240
  0
ARC
  8
default
 10
0
 20
8.8817841970012523e-016
 30
0
 40
9
 50
240
 51
300
  0
ARC
  8
default
 10
8.8817841970012523e-016
 20
0
 30
0
 40
9
 50
300
 51
0
  0
ARC
  8
default
 10
-3.409898906430441
 20
2.5105242219748281
 30
0
 40
15.860367915975472
 50
56.622586860022444
 51
77.584769339510984
  0
ARC
  8
default
 10
8.3549051164123007
 20
19.769900529268956
 30
0
 40
5.0355212492955799
 50
232.87530451589714
 51
271.74503312304176
  0
ARC
  8
default
 10
6.7882193748342177
 20
17.716168969760133
 30
0
 40
3.4165351584697046
 50
238.36084575434506
 51
277.23057436148969
  0
ARC
  8
default
 10
6.4502373197815039
 20
15.101417109045503
 30
0
 40
2.5809287525524227
 50
235.70532625984231
 51
274.57505486698693
  0
ARC
  8
default
 10
3.4098989064304406
 20
2.5105242219748263
 30
0
 40
15.860367915975472
 50
102.415230660489
 51
123.37741313997758
  0
ARC
  8
default
 10
-8.3549051164122989
 20
19.769900529268956
 30
0
 40
5.0355212492955799
 50
268.25496687695824
 51
307.1246954841028
  0
ARC
  8
default
 10
-6.7882193748342177
 20
17.716168969760133
 30
0
 40
3.4165351584697046
 50
262.76942563851031
 51
301.63915424565494
  0
ARC
  8
default
 10
-6.4502373197815039
 20
15.101417109045503
 30
0
 40
2.5809287525524227
 50
265.42494513301307
 51
304.29467374015769
  0
ARC
  8
default
 10
-3.8791272062615851
 20
-1.6977969663181227
 30
0
 40
15.86036791597547
 50
116.62258686002242
 51
137.58476933951098
  0
ARC
  8
default
 10
-12.943783530432183
 20
17.120510341656114
 30
0
 40
5.0355212492955825
 50
292.87530451589714
 51
331.74503312304176
  0
ARC
  8
default
 10
-11.94854269813275
 20
14.736854909948223
 30
0
 40
3.4165351584697059
 50
298.36084575434506
 51
337.23057436148963
  0
ARC
  8
default
 10
-9.8530921896876063
 20
13.136777933891988
 30
0
 40
2.5809287525524227
 50
295.70532625984225
 51
334.57505486698682
  0
ARC
  8
default
 10
-0.46922829983114234
 20
4.2083211882929472
 30
0
 40
15.860367915975472
 50
162.41523066048899
 51
183.37741313997753
  0
ARC
  8
default
 10
-21.298688646844482
 20
2.6493901876128443
 30
0
 40
5.0355212492955781
 50
328.25496687695824
 51
7.1246954841028378
  0
ARC
  8
default
 10
-18.736762072966972
 20
2.9793140598119154
 30
0
 40
3.4165351584697059
 50
322.76942563851031
 51
1.6391542456549208
  0
ARC
  8
default
 10
-16.303329509469112
 20
1.9646391751535219
 30
0
 40
2.5809287525524227
 50
325.42494513301307
 51
4.2946737401576707
  0
ARC
  8
default
 10
-0.46922829983114411
 20
-4.2083211882929463
 30
0
 40
15.86036791597547
 50
176.62258686002244
 51
197.58476933951098
  0
ARC
  8
default
 10
-21.298688646844489
 20
-2.6493901876128367
 30
0
 40
5.0355212492955834
 50
352.87530451589714
 51
31.74503312304175
  0
ARC
  8
default
 10
-18.736762072966972
 20
-2.9793140598119092
 30
0
 40
3.4165351584697059
 50
358.36084575434506
 51
37.230574361489673
  0
ARC
  8
default
 10
-16.303329509469112
 20
-1.9646391751535139
 30
0
 40
2.5809287525524218
 50
355.70532625984225
 51
34.575054866986882
  0
ARC
  8
default
 10
-3.8791272062615825
 20
1.6977969663181227
 30
0
 40
15.860367915975464
 50
222.41523066048896
 51
243.37741313997753
  0
ARC
  8
default
 10
-12.943783530432185
 20
-17.120510341656107
 30
0
 40
5.0355212492955781
 50
28.254966876958214
 51
67.12469548410283
  0
ARC
  8
default
 10
-11.948542698132757
 20
-14.736854909948216
 30
0
 40
3.4165351584697059
 50
22.769425638510288
 51
61.639154245654893
  0
ARC
  8
default
 10
-9.8530921896876116
 20
-13.136777933891983
 30
0
 40
2.5809287525524223
 50
25.424945133013114
 51
64.294673740157705
  0
ARC
  8
default
 10
3.4098989064304392
 20
-2.5105242219748281
 30
0
 40
15.860367915975472
 50
236.62258686002241
 51
257.58476933951096
  0
ARC
  8
default
 10
-8.3549051164123114
 20
-19.769900529268959
 30
0
 40
5.035521249295587
 50
52.875304515897113
 51
91.745033123041708
  0
ARC
  8
default
 10
-6.7882193748342194
 20
-17.716168969760133
 30
0
 40
3.4165351584697046
 50
58.360845754345085
 51
97.230574361489673
  0
ARC
  8
default
 10
-6.4502373197815057
 20
-15.101417109045503
 30
0
 40
2.5809287525524227
 50
55.705326259842323
 51
94.575054866986918
  0
ARC
  8
default
 10
-3.4098989064304428
 20
-2.5105242219748263
 30
0
 40
15.860367915975472
 50
282.41523066048899
 51
303.37741313997753
  0
ARC
  8
default
 10
8.3549051164122954
 20
-19.769900529268956
 30
0
 40
5.0355212492955781
 50
88.254966876958207
 51
127.1246954841028
  0
ARC
  8
default
 10
6.7882193748342159
 20
-17.716168969760133
 30
0
 40
3.4165351584697046
 50
82.769425638510327
 51
121.63915424565492
  0
ARC
  8
default
 10
6.4502373197815022
 20
-15.101417109045503
 30
0
 40
2.5809287525524227
 50
85.424945133013082
 51
124.29467374015769
  0
ARC
  8
default
 10
3.8791272062615869
 20
1.6977969663181209
 30
0
 40
15.860367915975468
 50
296.62258686002241
 51
317.58476933951096
  0
ARC
  8
default
 10
12.943783530432178
 20
-17.120510341656114
 30
0
 40
5.0355212492955781
 50
112.87530451589717
 51
151.74503312304179
  0
ARC
  8
default
 10
11.948542698132744
 20
-14.736854909948226
 30
0
 40
3.4165351584697059
 50
118.36084575434505
 51
157.23057436148966
  0
ARC
  8
default
 10
9.8530921896876045
 20
-13.136777933891988
 30
0
 40
2.580928752552424
 50
115.70532625984234
 51
154.57505486698696
  0
ARC
  8
default
 10
0.46922829983114234
 20
-4.2083211882929525
 30
0
 40
15.860367915975468
 50
342.41523066048899
 51
3.3774131399775307
  0
ARC
  8
default
 10
21.298688646844482
 20
-2.6493901876128558
 30
0
 40
5.0355212492955808
 50
148.25496687695818
 51
187.12469548410274
  0
ARC
  8
default
 10
18.736762072966968
 20
-2.9793140598119239
 30
0
 40
3.4165351584697055
 50
142.76942563851026
 51
181.63915424565485
  0
ARC
  8
default
 10
16.303329509469112
 20
-1.9646391751535286
 30
0
 40
2.5809287525524227
 50
145.42494513301301
 51
184.29467374015761
  0
ARC
  8
default
 10
0.46922829983114411
 20
4.2083211882929472
 30
0
 40
15.860367915975472
 50
356.62258686002247
 51
17.584769339511016
  0
ARC
  8
default
 10
21.298688646844504
 20
2.6493901876128367
 30
0
 40
5.0355212492956003
 50
172.87530451589708
 51
211.74503312304174
  0
ARC
  8
default
 10
18.736762072966972
 20
2.9793140598119154
 30
0
 40
3.4165351584697059
 50
178.36084575434509
 51
217.23057436148966
  0
ARC
  8
default
 10
16.303329509469112
 20
1.9646391751535219
 30
0
 40
2.5809287525524227
 50
175.70532625984234
 51
214.57505486698693
  0
ARC
  8
default
 10
3.8791272062615842
 20
-1.6977969663181245
 30
0
 40
15.86036791597547
 50
42.415230660489016
 51
63.377413139977577
  0
ARC
  8
default
 10
12.943783530432183
 20
17.120510341656114
 30
0
 40
5.0355212492955825
 50
208.25496687695821
 51
247.12469548410283
  0
ARC
  8
default
 10
11.94854269813275
 20
14.736854909948223
 30
0
 40
3.4165351584697059
 50
202.76942563851034
 51
241.63915424565494
  0
ARC
  8
default
 10
9.8530921896876063
 20
13.136777933891988
 30
0
 40
2.5809287525524227
 50
205.42494513301313
 51
244.29467374015775
  0
ARC
  8
default
 10
0
 20
0
 30
0
 40
20.5
 50
0
 51
180
  0
ARC
  8
default
 10
0
 20
0
 30
0
 40
20.5
 50
180
 51
0
  0
ARC
  8
default
 10
0
 20
0
 30
0
 40
23.5
 50
0
 51
180
  0
ARC
  8
default
 10
0
 20
0
 30
0
 40
23.5
 50
180
 51
0
  0
ENDSEC
  0
EOF
